<?xml version="1.0" standalone="no"?>
<!DOCTYPE svg PUBLIC "-//W3C//DTD SVG 1.1//EN" "http://www.w3.org/Graphics/SVG/1.1/DTD/svg11.dtd" >
<svg xmlns="http://www.w3.org/2000/svg" xmlns:xlink="http://www.w3.org/1999/xlink" version="1.1">
<metadata></metadata>
<defs>
<font id="stick_no_billsextrabold" horiz-adv-x="1135" >
<font-face units-per-em="2048" ascent="1638" descent="-410" />
<missing-glyph horiz-adv-x="440" />
<glyph unicode="fi" horiz-adv-x="945" d="M50 766h120v-766h234v766h237v-766h234v988h-471v69q0 6 4 16t19.5 22t39.5 13h63l52 224h-117q-69 -1 -128 -31.5t-94 -75t-54 -89t-19 -79.5v-69h-120v-222zM616 1206q0 -56 41 -97t99 -41t99 41t41 97q0 58 -41 99t-99 41t-99 -41t-41 -99z" />
<glyph unicode="fl" horiz-adv-x="924" d="M50 766h120v-766h234v766h126v222l-126 -2v71q0 6 4 16t19.5 22t39.5 13h167v-1108h241v1332h-410q-69 -1 -128 -31.5t-94 -75t-54 -89t-19 -79.5v-69h-120v-222z" />
<glyph unicode=" "  horiz-adv-x="440" />
<glyph unicode="&#x09;" horiz-adv-x="440" />
<glyph unicode="&#xa0;" horiz-adv-x="440" />
<glyph unicode="!" horiz-adv-x="467" d="M90 101q0 -60 42 -101.5t102 -41.5t101.5 41.5t41.5 101.5t-41.5 103t-101.5 43t-102 -43t-42 -103zM113 318h247v1022h-247v-1022z" />
<glyph unicode="&#x22;" horiz-adv-x="750" d="M82 890h243v519h-243v-519zM427 890h243v519h-243v-519z" />
<glyph unicode="#" horiz-adv-x="1441" d="M54 337h268l-52 -295h231l52 295h201l-50 -295h230l52 295l279 -2l35 232h-274l36 206l268 -2l37 232h-265l54 302h-232l-51 -302h-203l53 302h-231l-52 -300h-279l-42 -232h279l-34 -205h-263zM593 568l37 205h201l-35 -206z" />
<glyph unicode="$" horiz-adv-x="920" d="M38 302q2 -66 62 -150t153 -127v-115h136v333q-4 2 -11 5t-25.5 15.5t-32.5 28t-26 41.5t-13 56zM54 972q0 -73 17 -130t50.5 -98.5t73 -70.5t94.5 -55q45 -20 100 -40v291q-79 50 -79 113q0 34 24 65.5t55 39.5v349h-136v-136q-85 -45 -142 -126.5t-57 -201.5zM494 -90 h136v113q110 47 181 150.5t71 226.5q0 56 -15 105t-37 83.5t-57 67.5t-64.5 53t-71.5 45q-57 32 -143 65v-283q57 -28 87.5 -62t30.5 -85q0 -68 -37 -104t-81 -42v-333zM494 1087q3 -1 8 -3t19 -10.5t25 -19.5t21 -32t13 -46l249 82q-10 51 -64 128t-135 119v131h-136v-349z " />
<glyph unicode="%" horiz-adv-x="1203" d="M50 1101q0 -86 60 -146.5t146 -60.5t146.5 60.5t60.5 146.5t-60.5 146t-146.5 60t-146 -60t-60 -146zM306 -44h243l333 1414h-241zM741 224q0 -86 60 -146.5t146 -60.5t146.5 60.5t60.5 146.5t-60.5 146.5t-146.5 60.5t-146 -60.5t-60 -146.5z" />
<glyph unicode="&#x26;" horiz-adv-x="1259" d="M549 295l174 -205q-114 -90 -256 -90q-170 0 -290 119.5t-120 288.5q0 178 142 302l178 -209q-50 -43 -50 -101q0 -55 40 -95.5t96 -40.5q47 0 86 31zM657 1007l239 63q-22 111 -103 189t-192 92v-250q30 -11 43 -39.5t13 -54.5zM496 1101v250q-131 -17 -216 -111.5 t-85 -221.5q0 -72 23 -131.5t81 -134.5l633 -752l270 71l-220 262q55 75 86.5 150.5t43.5 176.5h-274q-8 -61 -46 -111l-304 366q-46 61 -46 105q0 30 16.5 53t37.5 28z" />
<glyph unicode="'" horiz-adv-x="405" d="M82 890h243v519h-243v-519z" />
<glyph unicode="(" horiz-adv-x="426" d="M77 362v614q0 99 20.5 170.5t65 120t95 79t129.5 61.5l2 -167q-59 -35 -86.5 -89t-28.5 -154v-610q0 -90 16 -149.5t38.5 -87.5t60.5 -52v-169q-80 33 -137 71t-90.5 76.5t-53 87t-25.5 93.5t-6 105z" />
<glyph unicode=")" horiz-adv-x="426" d="M38 -71q80 33 137 71t90.5 76.5t53 87t25.5 93.5t6 105v614q0 99 -20.5 170.5t-65 120t-95 79t-129.5 61.5l-2 -167q59 -35 86.5 -89t28.5 -154v-610q0 -90 -16 -149.5t-38.5 -87.5t-60.5 -52v-169z" />
<glyph unicode="*" horiz-adv-x="620" d="M29 1323l168 -111l-166 -113l78 -109l130 90v-165h136v166l136 -95l79 109l-167 115l168 113l-80 109l-136 -88v159h-136v-156l-130 85z" />
<glyph unicode="+" horiz-adv-x="775" d="M29 440h235v-273h243v273h239v243h-239v270h-243v-270h-235v-243z" />
<glyph unicode="," horiz-adv-x="507" d="M98 -44h243l71 291h-244z" />
<glyph unicode="-" horiz-adv-x="796" d="M96 440h605v243h-605v-243z" />
<glyph unicode="." horiz-adv-x="401" d="M57 134q0 -60 42 -102t102 -42t102 42t42 102t-42 102.5t-102 42.5t-102 -42.5t-42 -102.5z" />
<glyph unicode="/" horiz-adv-x="767" d="M96 -44h243l333 1414h-241z" />
<glyph unicode="0" horiz-adv-x="955" d="M425 0v256q-30 7 -51.5 35t-32.5 62.5t-17 91t-7 98t-1 106.5v42q0 54 1 89t4 83.5t10 80.5t19 64t31 50.5t44 24.5v257q-55 0 -102.5 -15t-98 -60t-86 -116.5t-58.5 -194t-23 -284.5t23 -284.5t58.5 -194t86 -116.5t98 -60t102.5 -15zM530 0q55 0 102.5 15t98 60 t86 116.5t58.5 194t23 284.5t-23 284.5t-58.5 194t-86 116.5t-98 60t-102.5 15v-257q25 -6 44 -24.5t31 -50.5t19 -64t10 -80.5t4 -83.5t1 -89v-42q0 -65 -1 -106.5t-7 -98t-17 -91t-32.5 -62.5t-51.5 -35v-256z" />
<glyph unicode="1" horiz-adv-x="530" d="M57 984h146v-984h270v1340h-270l-146 -115v-241z" />
<glyph unicode="2" horiz-adv-x="947" d="M57 997l232 -44q0 71 41 104.5t78 33.5v249q-139 0 -245 -105.5t-106 -237.5zM98 0h773v264h-773v-264zM98 364h302q0 25 13 47.5t41 46t55 42t72.5 48t75.5 51.5q130 93 181.5 172.5t51.5 193.5q0 75 -22.5 140.5t-66.5 119t-118 84.5t-170 31v-249q48 0 88 -30.5 t40 -97.5q0 -25 -12.5 -50t-40.5 -51t-50.5 -44t-64.5 -48.5t-61 -44.5q-20 -15 -75.5 -54t-87.5 -65t-72 -66.5t-59.5 -84t-19.5 -91.5z" />
<glyph unicode="3" horiz-adv-x="960" d="M513 0q63 0 127 20.5t125 63t99.5 119.5t38.5 178q0 110 -38.5 182.5t-89.5 106.5q51 34 89.5 106.5t38.5 182.5q0 101 -38.5 178t-99.5 119.5t-125 63t-127 20.5v-249q58 -5 100 -37t42 -97q0 -78 -52 -120.5t-195 -42.5v-249q75 0 125.5 -12t76 -35t35.5 -50t10 -65 q0 -65 -42 -97t-100 -37v-249zM57 343q0 -132 106 -237.5t245 -105.5v249q-37 0 -78 33.5t-41 104.5zM57 997l232 -44q0 38 13.5 66.5t34.5 42.5t38 20.5t33 8.5v249q-139 0 -245 -105.5t-106 -237.5z" />
<glyph unicode="4" horiz-adv-x="939" d="M38 272h364v249h-88l88 141v483l-364 -624v-249zM511 0h268v272h103v249h-103v821h-268v-1342z" />
<glyph unicode="5" horiz-adv-x="995" d="M86 678l220 -131q12 26 47.5 47.5t82.5 25.5v236q-44 0 -86 -10l23 245h456v249h-687zM540 0q76 2 147 31t127 82t90 134.5t34 179.5q0 81 -24.5 155.5t-71.5 135.5t-125 98.5t-177 39.5v-236q59 -8 106 -61.5t47 -129.5q0 -72 -41.5 -123.5t-111.5 -64.5v-241zM57 337 q0 -85 54 -164t141 -127t179 -48v249q-35 0 -87 38t-55 96z" />
<glyph unicode="6" horiz-adv-x="966" d="M444 -2q-81 0 -144.5 27t-105 78.5t-69.5 113.5t-42.5 144.5t-20 157.5t-5.5 166q0 56 3 107.5t12.5 120t25.5 125t46 114.5t69.5 98t98.5 65t132 25v-249q-30 -6 -53 -23t-36.5 -45t-22 -54.5t-11.5 -64.5t-4 -60t-1 -55q53 24 128 24v-248q-52 -14 -80.5 -59 t-28.5 -100q0 -56 28.5 -100.5t80.5 -58.5v-249zM547 -2v249q53 14 81.5 58.5t28.5 100.5q0 55 -29 100t-81 59v248q171 0 266.5 -116t95.5 -293q0 -175 -107 -290.5t-255 -115.5zM660 999q-13 47 -48.5 69.5t-64.5 22.5v249q100 0 186 -57t130 -146z" />
<glyph unicode="7" horiz-adv-x="859" d="M821 1091v249h-764v-249h764zM274 0h268q0 242 69 496t191 490h-274q-109 -204 -181.5 -462.5t-72.5 -523.5z" />
<glyph unicode="8" horiz-adv-x="941" d="M415 -4v247q-53 8 -82 51t-29 100q0 55 28.5 98.5t80.5 52.5v245q-52 9 -80.5 53t-28.5 99q0 57 29 100t82 51v247q-81 0 -162.5 -47.5t-138.5 -139t-57 -200.5t37.5 -181t85.5 -104q-48 -32 -85.5 -104t-37.5 -181t57 -200.5t138.5 -139t162.5 -47.5zM526 -4 q81 0 162.5 47.5t138.5 139t57 200.5t-37 181.5t-85 103.5q48 31 85 103.5t37 181.5t-57 200.5t-138.5 139t-162.5 47.5v-247q53 -8 82 -51t29 -100q0 -55 -28.5 -99t-80.5 -53v-245q52 -9 80.5 -52.5t28.5 -98.5q0 -57 -29 -100t-82 -51v-247z" />
<glyph unicode="9" horiz-adv-x="966" d="M523 -2v249q27 2 48 13t34.5 29t23 41t13.5 48t7 51.5t2.5 51.5t-0.5 47v21q-55 -25 -128 -25v249q52 14 80.5 59t28.5 100q0 56 -28.5 100.5t-80.5 58.5v249q70 0 127 -21.5t96.5 -57t69 -89t47 -110.5t28.5 -129.5t14.5 -137.5t3.5 -142q0 -46 -1 -82t-5 -90.5 t-11.5 -97.5t-21.5 -95t-33.5 -91t-49 -78.5t-66 -64.5t-87.5 -40.5t-111 -15.5zM419 524q-171 0 -266.5 116.5t-95.5 293.5q0 175 107 290.5t255 115.5v-249q-52 -14 -80.5 -58.5t-28.5 -100.5q0 -55 28.5 -100t80.5 -59v-249zM103 201l203 138q15 -40 48 -65t65 -27v-249 q-110 0 -190 55.5t-126 147.5z" />
<glyph unicode=":" horiz-adv-x="478" d="M96 268q0 -60 41.5 -102t101.5 -42t102 42t42 102t-42 102.5t-102 42.5t-101.5 -42.5t-41.5 -102.5zM96 823q0 -60 41.5 -102t101.5 -42t102 42t42 102t-42 102.5t-102 42.5t-101.5 -42.5t-41.5 -102.5z" />
<glyph unicode=";" horiz-adv-x="556" d="M96 -44h243l71 291h-243zM174 689q0 -60 42 -102t102 -42t101.5 42t41.5 102t-41.5 103t-101.5 43t-102 -43t-42 -103z" />
<glyph unicode="&#x3c;" horiz-adv-x="792" d="M57 494l678 -343v243l-337 165l337 149v249l-678 -341v-122z" />
<glyph unicode="=" horiz-adv-x="800" d="M96 251h608v243h-608v-243zM96 622h608v243h-608v-243z" />
<glyph unicode="&#x3e;" horiz-adv-x="792" d="M57 151l678 343v122l-678 341v-249l337 -149l-337 -165v-243z" />
<glyph unicode="?" horiz-adv-x="880" d="M57 1169l157 -162q70 94 188 94q72 0 124 -42.5t52 -114.5q0 -53 -13 -89t-35 -58.5t-64.5 -35t-89 -17t-120.5 -5.5v-421h247v210q7 1 18.5 3t44.5 13.5t63.5 27.5t67 48.5t63.5 73.5t45 105t18 141q-6 186 -114.5 296t-291.5 110q-59 0 -111.5 -12t-88 -29t-69 -43 t-52 -46t-39.5 -47zM234 101q0 -60 41.5 -101.5t101.5 -41.5t103 41.5t43 101.5t-43 103t-103 43t-101.5 -43t-41.5 -103z" />
<glyph unicode="@" horiz-adv-x="1536" d="M31 591q0 -147 39 -270.5t109.5 -213t168 -151.5t214 -92.5t248.5 -30.5q163 0 319.5 53.5t242.5 136.5l-95 174q-222 -155 -485 -155q-112 0 -208 36t-168.5 104.5t-114 175t-41.5 239.5q0 157 84 285.5t221.5 199t297.5 70.5q97 0 190 -42.5t157.5 -128t64.5 -192.5 q0 -89 -21 -157t-53 -103.5t-63.5 -52.5t-59.5 -17q-20 0 -27.5 12t-7.5 38q0 32 14 81l95 375h-161l-15 -52q-17 18 -27 26.5t-33.5 24t-56.5 22.5t-76 7q-62 0 -128 -28t-126 -80t-98.5 -139t-38.5 -193q0 -137 78.5 -234t187.5 -97q154 0 209 86q15 -36 56.5 -61 t94.5 -25q72 0 140.5 19.5t131.5 64t110.5 109t75.5 161t28 213.5q0 111 -37.5 207t-101 163.5t-147 115.5t-175.5 71t-186 23q-181 0 -336 -61.5t-262 -166.5t-167.5 -247.5t-60.5 -302.5z" />
<glyph unicode="A" horiz-adv-x="1010" d="M61 0h264l127 578l-115 536h-29zM469 163h199l38 -163h268l-316 1340h-266l203 -913h-69z" />
<glyph unicode="B" horiz-adv-x="934" d="M57 0h268v1340h-268v-1340zM431 0h46q101 0 179.5 32.5t125 86.5t70 119.5t23.5 136.5q0 89 -34 169t-96 126q62 46 96 126t34 169q0 71 -23.5 136.5t-70 119.5t-125 86.5t-179.5 32.5h-46v-236h9q79 0 123 -47t44 -111t-43 -111.5t-118 -47.5h-15v-234h15 q75 0 118 -47.5t43 -111.5t-44.5 -111.5t-122.5 -47.5h-9v-235z" />
<glyph unicode="C" horiz-adv-x="945" d="M73 346q0 -37 12.5 -81.5t42 -93.5t71 -89t107.5 -66t144 -26v270q-30 0 -53 11.5t-33.5 28t-15.5 28.5t-5 18v645q0 6 5 18.5t15.5 29t33.5 28.5t53 13v269q-78 0 -144 -26.5t-107.5 -66.5t-71 -89.5t-42 -94t-12.5 -81.5v-645zM553 -10q136 0 245 105t109 253l-264 64 v-23q0 -50 -9 -71q-8 -20 -28.5 -34.5t-36.5 -19.5l-16 -4v-270zM553 1080q7 -2 18 -6t33 -20t30 -36q9 -21 9 -71v-28l264 69q0 90 -51.5 174t-134 135.5t-168.5 51.5v-269z" />
<glyph unicode="D" horiz-adv-x="903" d="M80 0h270v1340h-270v-1340zM454 0q37 0 83.5 11.5t99 40.5t95 70.5t71 108t28.5 146.5v586q0 39 -12.5 86t-42 99t-71 94.5t-107.5 70t-144 27.5v-270q32 -1 55 -16t33.5 -35.5t14.5 -34.5t4 -21v-586q-1 -32 -15.5 -55t-35 -33.5t-35 -14.5t-21.5 -4v-270z" />
<glyph unicode="E" horiz-adv-x="849" d="M80 0h697v270h-427v260h247v270h-247v272h427v268h-697v-1340z" />
<glyph unicode="F" horiz-adv-x="826" d="M80 2h270v528h247v270h-247v272h427v268h-697v-1338z" />
<glyph unicode="G" horiz-adv-x="970" d="M73 367q0 -79 28 -145t70.5 -107.5t95 -71t98.5 -41.5t83 -12v270q-6 0 -20.5 5t-34.5 15.5t-34.5 33.5t-15.5 53v605q-1 18 6 40.5t33 44.5t66 23v269q-72 0 -134 -24.5t-103 -61.5t-72 -84.5t-46 -91.5t-20 -84v-636zM551 -10q77 1 160 55t138.5 135.5t55.5 156.5v339 h-354v-249h83v-63q0 -30 -19 -56t-37.5 -37t-26.5 -11v-270zM551 1080q36 -2 63 -31.5t27 -83.5v-75l264 98q0 90 -51 174t-133.5 135.5t-169.5 51.5v-269z" />
<glyph unicode="H" horiz-adv-x="947" d="M77 0h269v542h75v264h-75v534h-269v-1340zM526 542h75v-542h270v1340h-270v-534h-75v-264z" />
<glyph unicode="I" horiz-adv-x="430" d="M80 0h270v1340h-270v-1340z" />
<glyph unicode="J" horiz-adv-x="926" d="M29 369q0 -76 26.5 -141t66.5 -107.5t89.5 -73t94 -44t81.5 -13.5v272q-6 0 -18 5t-28.5 15.5t-28.5 33.5t-13 53v94h-270v-94zM490 -10q37 0 83 12.5t98.5 42t95 71.5t70.5 108t28 145v971h-268v-971q-1 -30 -16 -53t-35 -33.5t-35 -15.5t-21 -5v-272z" />
<glyph unicode="K" horiz-adv-x="934" d="M80 0h270v1340h-270v-1340zM427 653l214 -653h264l-210 653l203 687h-266z" />
<glyph unicode="L" horiz-adv-x="828" d="M80 0h720v268h-450v1072h-270v-1340z" />
<glyph unicode="M" horiz-adv-x="1332" d="M80 0h270v243l-252 607h-18v-850zM80 1164l485 -1164h185l129 289v622h-20l-202 -457l-366 886h-211v-176zM982 0h270v1340h-270v-1340z" />
<glyph unicode="N" horiz-adv-x="1012" d="M80 0h270v532l-254 410h-16v-942zM80 1164l724 -1164h128v322l-631 1018h-221v-176zM662 953l255 -409h15v796h-270v-387z" />
<glyph unicode="O" horiz-adv-x="1002" d="M73 373q0 -79 28 -145.5t70.5 -109t94.5 -72.5t98.5 -43t83.5 -13v272q-6 0 -21 5.5t-35 16.5t-34.5 35t-14.5 54v599q0 6 5 21t15.5 35.5t33.5 35.5t53 16v269q-72 0 -136 -25t-106.5 -63.5t-74 -86t-46 -91.5t-14.5 -80v-630zM553 -10q37 0 83.5 13t99 43t95 72.5 t71 109t28.5 145.5v630q0 35 -14.5 79t-46 91.5t-74.5 86.5t-106.5 64t-135.5 25v-269q30 -1 53 -16t33.5 -35.5t15.5 -35.5t5 -21v-599q-1 -30 -16 -54t-35 -35t-35 -16.5t-21 -5.5v-272z" />
<glyph unicode="P" horiz-adv-x="916" d="M80 0h270v1340h-270v-1340zM454 611q9 0 23 -0.5t25.5 -0.5t21.5 1q199 -3 281.5 86t82.5 283q0 80 -18 142.5t-58 113t-113 77.5t-175 27h-70v-266h63q8 0 17 -1t24.5 -7t26.5 -16t20 -30t9 -48q0 -33 -12.5 -55t-32 -30t-30.5 -10t-22 -2h-63v-264z" />
<glyph unicode="Q" horiz-adv-x="1006" d="M73 373q0 -79 28 -145.5t70.5 -109t94.5 -72.5t98.5 -43t83.5 -13v272q-6 0 -21 5.5t-35 16.5t-34.5 35t-14.5 54v599q0 6 5 21t15.5 35.5t33.5 35.5t53 16v269q-72 0 -136 -25t-106.5 -63.5t-74 -86t-46 -91.5t-14.5 -80v-630zM553 -10l136 -195l214 144l-105 151 q132 107 132 283v630q0 35 -14.5 79t-46 91.5t-74.5 86.5t-106.5 64t-135.5 25v-269q30 -1 53 -16t33.5 -35.5t15.5 -35.5t5 -21v-599q-1 -30 -16 -54t-35 -35t-35 -16.5t-21 -5.5v-272z" />
<glyph unicode="R" horiz-adv-x="966" d="M80 0h270v1340h-270v-1340zM454 547h21q87 -1 124.5 -48t47.5 -158l29 -341h248l-32 415q-7 78 -39 151t-87 108q130 105 130 302q0 155 -104 258t-296 106h-42v-255h25q72 0 118 -39.5t46 -107.5q0 -63 -41.5 -107t-122.5 -44h-25v-240z" />
<glyph unicode="S" horiz-adv-x="920" d="M38 302q0 -32 16 -72.5t47.5 -81.5t73 -75.5t98 -56.5t116.5 -22v249q-4 2 -11.5 5t-26 15.5t-33 28t-26 41.5t-11.5 56zM54 972q0 -73 17 -130t50.5 -98.5t73 -70.5t94.5 -55q26 -13 76.5 -31t88 -33t76.5 -37.5t60.5 -54.5t21.5 -73q0 -68 -37 -104t-81 -42v-249 q155 0 271.5 122t116.5 284q0 56 -15 105t-37 83.5t-57 67.5t-64.5 53t-71.5 45q-37 22 -103 49.5t-110 46t-79 53t-35 79.5q0 34 24 65.5t55 39.5v253q-32 -1 -72.5 -13t-87.5 -41t-85.5 -69.5t-64 -104.5t-25.5 -140zM494 1087l9 -3t21 -10.5t26 -19.5t20.5 -32t9.5 -46 l249 82q0 37 -24.5 84t-66 92t-107 75.5t-137.5 30.5v-253z" />
<glyph unicode="T" horiz-adv-x="886" d="M29 1076h279v-1076h270v1076h279v264h-828v-264z" />
<glyph unicode="U" horiz-adv-x="979" d="M61 369q0 -79 28.5 -145t71 -108t95 -71.5t99 -42t83.5 -12.5v272q-6 0 -21 5t-35 15.5t-35 33.5t-16 53v971h-270v-971zM542 -10q38 0 84 12t98 41.5t94.5 71.5t70.5 108.5t28 145.5v971h-268v-971q-1 -30 -16 -53t-35 -33.5t-35 -15.5t-21 -5v-272z" />
<glyph unicode="V" horiz-adv-x="903" d="M15 1340l389 -1340h90l101 302l-304 1038h-276zM507 984l127 -429h19q210 704 235 785h-276z" />
<glyph unicode="W" horiz-adv-x="1515" d="M19 1340h276l304 -1038l-101 -302h-90zM511 984l105 356h276l302 -1038l-99 -302h-90l-253 873q-18 -56 -49 -162.5t-46 -155.5h-20zM1116 984l105 356h276l-236 -785h-19z" />
<glyph unicode="X" horiz-adv-x="845" d="M29 0h277l117 320l117 -320h277l-260 691l237 649h-262l-109 -291l-109 291h-262l237 -649z" />
<glyph unicode="Y" horiz-adv-x="863" d="M23 1340l251 -858v-482h279v484l-249 856h-281zM488 1081l126 -447h18l208 706h-277z" />
<glyph unicode="Z" horiz-adv-x="815" d="M57 0h701v276h-402l402 802v262h-701v-268h402l-402 -802v-270z" />
<glyph unicode="[" horiz-adv-x="493" d="M96 -69h371v211h-122l5 1062h117v210h-371v-1483z" />
<glyph unicode="\" horiz-adv-x="736" d="M80 1370l333 -1414h244l-335 1414h-242z" />
<glyph unicode="]" horiz-adv-x="480" d="M27 -69h371v1483h-371v-210h117l5 -1062h-122v-211z" />
<glyph unicode="^" horiz-adv-x="968" d="M115 880h233l134 274l136 -274h236l-286 567h-168z" />
<glyph unicode="_" horiz-adv-x="976" d="M57 -188v-204h862v204h-862z" />
<glyph unicode="`" horiz-adv-x="662" d="M80 1449l140 -291h174l-71 291h-243z" />
<glyph unicode="a" horiz-adv-x="903" d="M48 253v97q0 62 21 108t82 82q31 18 139.5 52.5t187.5 71t79 73.5v44q0 32 -20.5 53t-63.5 22v235q78 0 143.5 -29.5t104.5 -74.5t60 -94.5t21 -94.5v-499q0 -11 3 -23t16 -25.5t35 -13.5v-237q-117 0 -188 61q-76 -61 -193 -61v235q44 0 63 24.5t19 52.5v157 q-47 -28 -157 -60t-115 -34q-25 -12 -25 -44v-27q0 -37 22.5 -53t88.5 -16v-235q-145 0 -234 77.5t-89 175.5zM61 817q0 112 97.5 193t214.5 81v-235q-90 0 -90 -123z" />
<glyph unicode="b" horiz-adv-x="891" d="M80 0h265v1370h-265v-1370zM446 0h69q62 0 116 22t90.5 56t63 75t38.5 78t12 66v501q-1 39 -21.5 87t-58 95t-101 79t-139.5 32h-69v-249h71q25 -1 42.5 -14t22 -23t4.5 -15v-489q0 -4 -4.5 -14.5t-22.5 -24t-44 -13.5h-69v-249z" />
<glyph unicode="c" horiz-adv-x="872" d="M73 297q0 -32 11 -69.5t37.5 -78.5t64 -73.5t97 -54t130.5 -21.5v243q-48 2 -69 14t-21 40v497q0 19 22 35.5t67 16.5v245q-68 0 -126 -21t-95.5 -53t-65 -72t-39.5 -77.5t-13 -69.5v-501zM500 844q78 0 78 -82v-63l234 90q0 124 -91.5 213t-220.5 89v-247zM500 -2 q127 -5 231.5 89t103.5 215l-234 90v-63q0 -50 -23.5 -67t-77.5 -17v-247z" />
<glyph unicode="d" horiz-adv-x="882" d="M57 297q0 -37 20 -85.5t57.5 -97t101.5 -81.5t141 -33h59v249h-59q-26 0 -44 13t-22.5 23.5t-4.5 15.5v484q0 5 4 15.5t21 23.5t42 14h63v247h-63q-75 0 -138 -32t-99.5 -79t-57 -94.5t-21.5 -85.5v-497zM538 0h264l2 1370h-266v-1370z" />
<glyph unicode="e" horiz-adv-x="928" d="M73 297q0 -40 22 -89.5t62.5 -96.5t108 -79t147.5 -32v235q-45 0 -64.5 18t-19.5 44v141h525v362q0 83 -53 151.5t-130 104t-156 35.5v-241q99 0 99 -71v-94h-285v96q0 24 24 46.5t59 22.5v241q-64 0 -120 -21t-95 -53.5t-67.5 -72t-42 -77.5t-14.5 -69v-501zM515 0 q130 0 223.5 76.5t117.5 176.5l-209 78q-27 -97 -132 -97v-234z" />
<glyph unicode="f" horiz-adv-x="614" d="M29 745h134v-745h256v745h138v248h-138v75q0 6 4 17t21.5 25t43.5 15h69l57 247h-128q-76 -1 -140.5 -35t-102.5 -83t-59 -98.5t-21 -87.5v-75h-134v-248z" />
<glyph unicode="g" horiz-adv-x="872" d="M38 -364h442q76 1 140.5 34.5t102 81.5t58.5 96.5t21 84.5v1171h-245v-11q-37 11 -86 11v-239q30 0 51.5 -13.5t28 -26.5t6.5 -21v-488q0 -26 -20 -44.5t-66 -18.5v-238q47 0 86 8v-90q0 -6 -5.5 -18.5t-25.5 -27t-49 -15.5h-379zM57 310q0 -38 21 -86t59.5 -96 t105 -80.5t146.5 -32.5v238q-47 0 -68.5 18t-21.5 41v496q0 8 7 19.5t29 24.5t54 13v239q-79 0 -145 -31.5t-105 -78.5t-60 -94.5t-22 -86.5v-503z" />
<glyph unicode="h" horiz-adv-x="905" d="M80 -15h242v765q0 7 9.5 23t34.5 33t57 17v235q-68 0 -103 -13v325h-240v-1385zM517 823q34 0 56.5 -17.5t29 -32.5t6.5 -23v-765h239v784q0 55 -23 106.5t-64 92.5t-104.5 65.5t-139.5 24.5v-235z" />
<glyph unicode="i" horiz-adv-x="468" d="M96 1246q0 -56 41 -97t98 -41q56 0 97 41t41 97t-41 97t-97 41q-57 0 -98 -41t-41 -97zM109 0h257v1034h-257v-1034z" />
<glyph unicode="j" horiz-adv-x="463" d="M103 1034v-1114q0 -2 -1.5 -7t-6.5 -13.5t-12 -16t-20 -13t-30 -6.5h-56l-57 -245h120q76 0 139.5 32.5t101.5 81t58.5 98t20.5 89.5v1114h-257zM90 1246q0 -56 41 -97t99 -41q56 0 96.5 41t40.5 97t-40.5 97t-96.5 41q-58 0 -99 -41t-41 -97z" />
<glyph unicode="k" horiz-adv-x="957" d="M80 0h265v1370h-265v-1370zM400 549l241 -549h278l-245 549l241 542h-280z" />
<glyph unicode="l" horiz-adv-x="436" d="M80 0h276v1370h-276v-1370z" />
<glyph unicode="m" horiz-adv-x="1458" d="M73 0h260v762q0 30 20 53t66 23v255q-81 0 -149.5 -31.5t-109.5 -78.5t-64 -97t-23 -92v-794zM507 838q92 0 92 -76v-762h260v762q0 76 90 76v255q-134 0 -220 -71q-92 71 -222 71v-255zM1035 838q49 0 69.5 -19.5t20.5 -56.5v-762h261v794q0 31 -14 69.5t-43.5 79 t-69.5 74t-99 55t-125 21.5v-255z" />
<glyph unicode="n" horiz-adv-x="932" d="M73 0h260v764q0 30 20.5 52t67.5 22v255q-82 0 -151.5 -31.5t-110.5 -78.5t-63.5 -97t-22.5 -92v-794zM509 838q46 0 68 -21.5t22 -52.5v-764h260v794q0 40 -23 89.5t-64.5 97.5t-111 80t-151.5 32v-255z" />
<glyph unicode="o" horiz-adv-x="911" d="M73 297q0 -31 13 -69.5t41 -79t67 -74t97.5 -55t125.5 -21.5v249q-92 0 -92 76v446q0 28 21 50.5t71 22.5v249q-83 0 -151.5 -31t-109 -78t-62 -96t-21.5 -90v-499zM505 -2q80 0 146.5 32t105.5 79.5t60 97t21 90.5v499q0 32 -13 70t-41 78t-66 72.5t-94.5 53.5 t-120.5 21v-249q50 0 69 -19t19 -54l2 -449q0 -28 -20 -50.5t-68 -22.5v-249z" />
<glyph unicode="p" horiz-adv-x="920" d="M440 0h65q79 0 145 32.5t104.5 81t59.5 97t21 86.5v497q0 38 -21 86.5t-59.5 97t-104.5 81t-145 32.5h-65v-249h65q30 0 49 -13t23.5 -23.5t4.5 -15.5v-489q0 -5 -4.5 -15.5t-23.5 -23.5t-49 -13h-65v-249zM75 -381h270v1472h-270v-1472z" />
<glyph unicode="q" horiz-adv-x="911" d="M406 0h65v249h-65q-30 0 -49.5 13t-24.5 23.5t-5 15.5v489q0 5 5 15.5t24.5 23.5t49.5 13h65v249h-65q-64 0 -120.5 -22t-93.5 -55.5t-64 -74.5t-39 -78t-12 -67v-497q0 -30 12 -67t39 -78t64 -74.5t93.5 -55.5t120.5 -22zM567 -381h269v1472h-269v-1472z" />
<glyph unicode="r" horiz-adv-x="690" d="M80 0h261v584q0 62 38 122t101.5 98.5t131.5 39.5l60 257h-69q-80 0 -151.5 -40.5t-110.5 -90.5v121h-261v-1091z" />
<glyph unicode="s" horiz-adv-x="868" d="M38 287q0 -54 20 -105t60 -95t108.5 -70.5t156.5 -26.5v242q-41 2 -74 30t-33 69zM50 792q0 -122 46 -191t132 -113q39 -17 139 -42.5t158.5 -53t58.5 -70.5q0 -32 -22 -53.5t-46.5 -29t-46.5 -7.5v-242q155 0 258.5 93.5t103.5 253.5q0 122 -63.5 196t-153.5 91 q-106 23 -176 47t-101 46.5t-41.5 39t-10.5 35.5q0 71 94 71v238q-37 0 -80 -11t-87.5 -35.5t-80 -59t-58.5 -88t-23 -115.5zM465 863q11 0 26 -3.5t36 -12.5t35 -31.5t14 -55.5l236 40q0 53 -25.5 107t-69.5 97t-110 70t-140 27z" />
<glyph unicode="t" horiz-adv-x="620" d="M27 844h134v-490q0 -85 15 -146.5t50.5 -110t100.5 -73t159 -24.5h115l-57 264h-56q-40 0 -55.5 21.5t-15.5 49.5v507h127v249h-127v279h-256v-279h-134v-247z" />
<glyph unicode="u" horiz-adv-x="932" d="M73 289q0 -42 22.5 -92t63.5 -97t110.5 -78.5t151.5 -31.5v255q-47 0 -67.5 21.5t-20.5 53.5v771h-260v-802zM509 -10q82 0 151.5 32t111 80t64.5 97.5t23 89.5v802h-260v-771q0 -30 -21.5 -52.5t-68.5 -22.5v-255z" />
<glyph unicode="v" horiz-adv-x="847" d="M13 1091l333 -1091h146l86 264l-279 827h-286zM469 829l136 -391h25l205 653h-286z" />
<glyph unicode="w" horiz-adv-x="1383" d="M13 1091h286l279 -827l-86 -264h-146zM469 829l80 262h286l279 -827l-86 -264h-146l-193 630l-59 -192h-25zM1005 829l80 262h285l-204 -653h-25z" />
<glyph unicode="x" horiz-adv-x="796" d="M15 0h263l120 266l121 -266h262l-237 551l231 540h-266l-111 -251l-115 251h-264l236 -540z" />
<glyph unicode="y" horiz-adv-x="821" d="M13 1091l249 -846l-191 -628h264l209 624l-255 850h-276zM461 835l115 -391h25l216 647h-275z" />
<glyph unicode="z" horiz-adv-x="738" d="M57 0h624v251h-321l321 591v249h-624v-249h332l-332 -591v-251z" />
<glyph unicode="{" horiz-adv-x="558" d="M29 666q9 -5 31.5 -16t30.5 -15.5t22.5 -14.5t19.5 -17.5t9.5 -20t4.5 -27.5v-188q0 -72 6.5 -130t16.5 -101.5t28 -76.5t35.5 -54.5t45 -36.5t50 -23t56.5 -12t59.5 -5t63.5 -1h13v190q-54 0 -80.5 22t-38.5 80.5t-12 176.5v186q0 29 -23 50.5t-61 33.5q37 9 60.5 26.5 t23.5 40.5v165q2 180 13 229q15 67 67 82q21 6 51 6v192q-50 0 -87 -3t-78.5 -14t-70 -30t-56.5 -51.5t-45 -79t-27 -113t-10 -151.5v-184q0 -11 -2 -20.5t-4 -16.5t-7.5 -14.5t-8.5 -12t-12 -10.5t-13 -9t-16 -8.5t-16 -7.5t-19 -8z" />
<glyph unicode="|" horiz-adv-x="392" d="M96 -256h201v1699h-201v-1699z" />
<glyph unicode="}" horiz-adv-x="558" d="M38 -73q40 0 65.5 1t61.5 5.5t59 12.5t51.5 24t46.5 38t37 55t29.5 76t17 100.5t6.5 127.5v188q0 15 4.5 27.5t9.5 20t19.5 17.5t22.5 14.5t30.5 15.5t31.5 16l-20 8t-19 8t-16 7.5t-16 8.5t-13 9t-12 10.5t-8.5 12t-7.5 14.5t-4 16.5t-2 20.5v184q0 85 -10 151.5 t-27 113t-45 79t-56.5 51.5t-70 30t-78.5 14t-87 3v-192q32 0 53.5 -6t36 -23.5t22.5 -37t12 -59.5t4.5 -76t1.5 -101v-14v-163q0 -24 23.5 -42t61.5 -27q-85 -27 -85 -84v-184q0 -118 -11.5 -177t-38 -81.5t-80.5 -22.5v-190z" />
<glyph unicode="~" horiz-adv-x="1202" d="M153 521q106 69 205 69q52 0 108.5 -22t99 -48t102.5 -48t119 -22q117 0 262 88v251q-142 -87 -251 -87q-56 0 -114.5 22t-100.5 48t-100 48t-114 22q-101 0 -216 -67v-254z" />
<glyph unicode="&#xa1;" horiz-adv-x="468" d="M40 947q0 -62 46 -107.5t109 -45.5t108 45.5t45 107.5q0 63 -45 108.5t-108 45.5t-109 -45.5t-46 -108.5zM69 -379h256v1085h-256v-1085z" />
<glyph unicode="&#xa2;" horiz-adv-x="872" d="M500 1267h97v-195q94 -32 154.5 -111.5t60.5 -177.5l-234 -88v69q0 39 -23 57.5t-55 18.5v427zM316 1267h96v-425q-48 0 -68.5 -21.5t-20.5 -54.5v-450q0 -24 23 -47t66 -24v-425h-96v191q-62 15 -111.5 50t-76.5 77t-41 83t-14 76v497q2 76 66.5 164t176.5 118v191z M500 -180v425q101 0 101 84v63l234 -90q0 -98 -68.5 -178t-169.5 -111v-193h-97z" />
<glyph unicode="&#xa3;" horiz-adv-x="880" d="M38 551v205h107v228q0 76 21 140.5t62.5 115.5t111.5 80t160 29h3q79 0 140 -26q79 -31 130.5 -94.5t68.5 -137.5l-189 -96q-40 123 -142 123q-111 0 -111 -128v-232h266v-205h-268v-346h429v-207h-682v551h-107z" />
<glyph unicode="&#xa4;" horiz-adv-x="1236" d="M78 364l182 162v347l-183 161l137 157l146 -129q83 77 214 77v-226q-46 0 -65 -19.5t-19 -47.5v-301q0 -65 84 -65v-225q-133 0 -216 80l-144 -126zM653 255v224q43 0 61.5 19t18.5 47v299q0 69 -80 69v226q123 0 206 -77l144 129l138 -157l-184 -163v-345l182 -162 l-136 -155l-142 124q-81 -78 -208 -78z" />
<glyph unicode="&#xa5;" horiz-adv-x="859" d="M316 0v456v1h-285v115h252l-27 96h-225v115h193l-157 553h262l121 -408l115 408h262l-155 -553h172v-115h-205l-27 -96h232v-115h-264l-2 -5v-452h-262z" />
<glyph unicode="&#xa6;" horiz-adv-x="409" d="M80 -268h234v683h-234v-683zM80 779h234v683h-234v-683z" />
<glyph unicode="&#xa7;" horiz-adv-x="1154" d="M103 672q0 -56 15 -105t37 -83.5t57 -67.5t64.5 -53t71.5 -45q24 -14 50.5 -26.5t71 -30.5t54.5 -22v282q-70 30 -110.5 68t-40.5 94q0 57 33 83q9 -5 25.5 -13.5t25.5 -13.5q2 -1 67 -27v297q-51 41 -51 93q0 43 28 70.5t75 27.5h199v253h-214q-41 0 -85 -11.5t-90 -39 t-82 -67.5t-59 -103t-23 -139q0 -82 19 -138q-65 -50 -101.5 -123t-36.5 -160zM379 -8v-252h214q41 0 85 11.5t90 39t82 67.5t59 103t23 139q0 81 -19 137q65 50 101.5 123.5t36.5 160.5q0 56 -15 105t-37 83.5t-57 67.5t-64.5 53t-71.5 45q-24 14 -52.5 26.5t-69 28.5 t-56.5 23v-281q72 -30 112.5 -67.5t40.5 -95.5q0 -56 -33 -82q-9 5 -26 13.5t-25 13.5q-5 2 -69 28v-296q53 -40 53 -96q0 -43 -28 -70.5t-75 -27.5h-199z" />
<glyph unicode="&#xa8;" horiz-adv-x="823" d="M105 1298q0 -60 42 -102t102 -42t101.5 42t41.5 102t-41.5 102.5t-101.5 42.5t-102 -42.5t-42 -102.5zM431 1298q0 -60 41.5 -102t101.5 -42t102 42t42 102t-42 102.5t-102 42.5t-101.5 -42.5t-41.5 -102.5z" />
<glyph unicode="&#xa9;" horiz-adv-x="1577" d="M67 649q0 -160 61 -300t160 -234t222.5 -149.5t249.5 -59.5v178q-140 6 -260 83.5t-191.5 205.5t-71.5 276q0 122 47 230.5t122 180.5t168 114t186 43v173q-87 -1 -181 -31.5t-185.5 -93t-164 -148.5t-117.5 -208t-45 -260zM521 442q0 -30 13.5 -67t40 -74t75.5 -62 t110 -25v175q-25 0 -41.5 12.5t-21 23.5t-4.5 17v414q0 4 3 11.5t9.5 18t21 18t33.5 7.5v172q-50 0 -91.5 -16.5t-68 -42t-45 -57t-26.5 -60t-8 -51.5v-414zM827 -94q99 3 197.5 37.5t186 98.5t155.5 149t109.5 198t44.5 237q0 143 -43.5 268.5t-115 214t-162.5 153t-186 96 t-186 32.5v-173q96 -1 189.5 -44t167.5 -117.5t119.5 -185t45.5 -235.5q0 -107 -42.5 -207t-113.5 -173.5t-167 -119.5t-199 -51v-178zM827 214q85 0 155.5 71.5t70.5 158.5l-169 61v-42q0 -35 -16 -56.5t-41 -21.5v-171zM827 911q22 0 39.5 -22t17.5 -62v-37l169 64 q0 87 -70.5 158t-155.5 71v-172z" />
<glyph unicode="&#xaa;" horiz-adv-x="474" d="M36 622v130h395v-130h-395zM189 802q-71 0 -115.5 39t-44.5 87v50q0 31 10 54t41 40q15 9 69 26.5t94 36t40 36.5v21q0 36 -42 39v116q75 0 120 -47.5t45 -97.5v-251q0 -30 27 -30v-119q-60 0 -94 31q-41 -31 -98 -31v119q23 0 32.5 12.5t9.5 25.5v78q-23 -15 -78 -30 t-58 -17q-13 -3 -13 -22v-13q0 -18 11 -26t44 -8v-119zM145 1169l-111 43q0 56 49 95.5t108 39.5v-116q-46 0 -46 -62z" />
<glyph unicode="&#xab;" horiz-adv-x="874" d="M38 496l404 -301v234l-170 130l170 115v239l-404 -299v-118zM442 496l404 -301v234l-170 130l170 115v239l-404 -299v-118z" />
<glyph unicode="&#xac;" horiz-adv-x="1033" d="M77 626h635v-228h226v448h-861v-220z" />
<glyph unicode="&#xad;" horiz-adv-x="719" d="M57 440h605v243h-605v-243z" />
<glyph unicode="&#xae;" horiz-adv-x="773" d="M379 978q29 0 41.5 -12.5t13.5 -44.5l6 -96h67l-6 117q-2 45 -36 72q36 22 36 77q0 50 -32 80.5t-90 30.5v-71h8q20 0 33 -12t13 -32q0 -17 -11.5 -28.5t-34.5 -11.5h-8v-69zM367 678l-1 80q-93 5 -162 77.5t-70 171.5q0 113 74 186.5t165 73.5v79q-37 0 -78.5 -12 t-84 -39.5t-76.5 -66t-55.5 -96.5t-21.5 -127q0 -130 95 -227.5t215 -99.5zM404 678q122 5 217 98.5t95 234.5q0 77 -31 142.5t-78.5 106t-100.5 63t-102 23.5v-79q90 0 162.5 -73.5t72.5 -184.5q0 -99 -70.5 -172.5t-164.5 -78.5v-80zM274 823h74v377h-74v-377z" />
<glyph unicode="&#xaf;" horiz-adv-x="976" d="M57 1568v-205h862v205h-862z" />
<glyph unicode="&#xb0;" horiz-adv-x="576" d="M67 1116q0 -91 64.5 -155.5t155.5 -64.5q92 0 157 64.5t65 155.5t-65 155.5t-157 64.5q-91 0 -155.5 -64.5t-64.5 -155.5zM214 1116q0 31 21.5 53t51.5 22q31 0 53 -21.5t22 -53.5q0 -30 -22 -51.5t-53 -21.5q-30 0 -51.5 21.5t-21.5 51.5z" />
<glyph unicode="&#xb1;" horiz-adv-x="817" d="M50 77h719v243h-719v-243zM48 748h235v-273h243v273h240v243h-240v270h-243v-270h-235v-243z" />
<glyph unicode="&#xb2;" horiz-adv-x="426" d="M15 1194l104 -19q0 31 18.5 46t34.5 15v113q-62 0 -109.5 -48t-47.5 -107zM33 746h348v119h-348v-119zM33 909h137q0 11 5.5 21t18.5 20.5t24.5 19t32.5 22t34 22.5q59 43 82 78.5t23 86.5q0 72 -43 121t-127 49v-113q22 0 40 -13.5t18 -43.5q0 -11 -5.5 -22.5t-19 -23.5 t-22.5 -19.5t-29.5 -22t-27.5 -19.5q-9 -7 -34 -24.5t-39 -29t-32 -29.5t-27 -38t-9 -42z" />
<glyph unicode="&#xb3;" horiz-adv-x="444" d="M234 741q64 0 120 42.5t56 127.5q0 49 -18.5 82.5t-41.5 47.5q60 41 60 130q0 60 -30.5 101t-68.5 56.5t-77 15.5v-113q25 -2 44 -16.5t19 -43.5q0 -36 -23 -55t-88 -19v-111q65 0 88 -19t23 -54q0 -52 -63 -61v-111zM29 894q0 -59 47.5 -106t109.5 -47v111 q-17 0 -35.5 15t-18.5 48zM29 1189l103 -20q0 31 18 45.5t36 16.5v113q-62 0 -109.5 -48t-47.5 -107z" />
<glyph unicode="&#xb4;" horiz-adv-x="756" d="M220 1158h174l140 291h-243z" />
<glyph unicode="&#xb5;" horiz-adv-x="962" d="M92 0v1336h237v-712q0 -50 81 -50v-231q-50 0 -81 7v-350h-237zM490 343v231q80 0 80 50v716h238v-712q0 -11 5 -21t24 -19.5t51 -9.5v-232q-112 0 -197 62q-88 -65 -201 -65z" />
<glyph unicode="&#xb6;" horiz-adv-x="920" d="M67 990q0 148 90.5 253.5t232.5 105.5h159v-1359h-159v640q-149 0 -236 98t-87 262zM658 -10v1359h159v-1359h-159z" />
<glyph unicode="&#xb7;" horiz-adv-x="478" d="M105 693q0 -60 42 -102t102 -42t101.5 42t41.5 102t-41.5 102.5t-101.5 42.5t-102 -42.5t-42 -102.5z" />
<glyph unicode="&#xb8;" horiz-adv-x="815" d="M235 -69q87 0 152 26.5t100.5 71.5t52.5 96.5t17 109.5h-176q0 -38 -12.5 -64.5t-35 -40t-46.5 -19.5t-52 -6v-174z" />
<glyph unicode="&#xb9;" horiz-adv-x="292" d="M21 1179h65v-444h123v603h-123l-65 -52v-107z" />
<glyph unicode="&#xba;" horiz-adv-x="440" d="M50 691h340v136h-340v-136zM42 997q0 -43 42 -89t113 -46v112q-41 0 -41 35v200q0 33 41 33v112q-71 0 -113 -44.5t-42 -87.5v-225zM237 862q69 0 109.5 45.5t40.5 89.5v225q0 43 -41 87.5t-110 44.5v-112q40 0 40 -33l1 -202q0 -13 -9.5 -23t-30.5 -10v-112z" />
<glyph unicode="&#xbb;" horiz-adv-x="874" d="M29 195l404 301v118l-404 299v-239l170 -115l-170 -130v-234zM433 195l403 301v118l-403 299v-239l170 -115l-170 -130v-234z" />
<glyph unicode="&#xbc;" horiz-adv-x="972" d="M712 0h153v117h52v134h-52v421h-153v-672zM94 1162h73v-492h155v670h-155l-73 -58v-120zM452 117h206v134h-44l44 84v276l-206 -360v-134zM0 0h159l813 1340h-145z" />
<glyph unicode="&#xbd;" horiz-adv-x="1113" d="M586 0h451v144h-451v-144zM0 0h159l813 1340h-145zM94 1162h73v-492h155v670h-155l-73 -58v-120zM586 475l136 -25q0 37 21 54t44 19v147q-75 0 -138 -55.5t-63 -139.5zM586 193h185q0 9 7.5 17t23 16.5t30.5 15.5t40.5 17.5t42.5 18.5q64 31 103 72.5t39 105.5 q0 99 -59 156.5t-158 57.5v-147q63 -4 63 -67q0 -16 -9 -29t-34 -27.5t-39.5 -21t-54.5 -23.5q-4 -2 -7 -3t-7 -3t-7 -3q-35 -15 -58.5 -27.5t-49 -31.5t-38.5 -42.5t-13 -51.5z" />
<glyph unicode="&#xbe;" horiz-adv-x="1100" d="M314 672q42 0 85 20t76.5 65.5t33.5 105.5q0 54 -20 91t-45 53q26 16 45.5 52t19.5 91q0 59 -33.5 104.5t-77 65.5t-84.5 20v-148q24 0 38 -16t14 -39q0 -25 -18.5 -44t-52.5 -19h-35v-136h35q35 0 53 -18.5t18 -44.5q0 -22 -14.5 -39t-37.5 -17v-147zM840 0h153v117h52 v134h-52v421h-153v-672zM580 117h207v134h-44l44 84v276l-207 -360v-134zM59 865q0 -82 63 -138.5t138 -56.5v147q-22 2 -43.5 19.5t-21.5 53.5zM59 1145l136 -25q0 37 21 53.5t44 18.5v148q-75 0 -138 -55.5t-63 -139.5zM128 0h159l814 1340h-146z" />
<glyph unicode="&#xbf;" horiz-adv-x="851" d="M813 155l-156 163q-70 -94 -188 -94q-72 0 -124 42.5t-52 114.5q0 53 12.5 89t35 58.5t64.5 35t88.5 17t120.5 5.5v421h-247v-211q-7 -1 -18.5 -3t-44.5 -13t-63 -27.5t-67 -48.5t-63.5 -73t-44.5 -105t-18 -141q6 -186 114.5 -296t291.5 -110q73 0 133.5 16t104 45.5 t69 55t52.5 59.5zM637 1223q0 60 -41.5 102t-101.5 42t-103 -42t-43 -102t43 -102.5t103 -42.5t101.5 42.5t41.5 102.5z" />
<glyph unicode="&#xc0;" horiz-adv-x="1010" d="M287 1757l140 -291h174l-71 291h-243zM61 0h264l127 578l-115 536h-29zM469 163h199l38 -163h268l-316 1340h-266l203 -913h-69z" />
<glyph unicode="&#xc1;" horiz-adv-x="1010" d="M440 1466h174l140 291h-243zM61 0h264l127 578l-115 536h-29zM469 163h199l38 -163h268l-316 1340h-266l203 -913h-69z" />
<glyph unicode="&#xc2;" horiz-adv-x="1010" d="M320 1466h155l51 109l54 -109h157l-147 291h-127zM61 0h264l127 578l-115 536h-29zM469 163h199l38 -163h268l-316 1340h-266l203 -913h-69z" />
<glyph unicode="&#xc3;" horiz-adv-x="1010" d="M256 1466q68 42 127 42q45 0 122 -38t129 -38q74 0 160 53v194q-90 -54 -153 -54q-49 0 -125.5 39t-125.5 39q-61 0 -134 -42v-195zM61 0h264l127 578l-115 536h-29zM469 163h199l38 -163h268l-316 1340h-266l203 -913h-69z" />
<glyph unicode="&#xc4;" horiz-adv-x="1010" d="M222 1610q0 -60 42 -102t102 -42t101.5 42t41.5 102t-41.5 102.5t-101.5 42.5t-102 -42.5t-42 -102.5zM547 1610q0 -60 42 -102t102 -42t102 42t42 102t-42 102.5t-102 42.5t-102 -42.5t-42 -102.5zM61 0h264l127 578l-115 536h-29zM469 163h199l38 -163h268l-316 1340 h-266l203 -913h-69z" />
<glyph unicode="&#xc5;" horiz-adv-x="987" d="M50 0h264l126 578l-115 536h-28zM457 163h180l39 -163h262l-289 1338q50 50 50 126t-54 130t-130 54t-130 -54t-54 -130t52 -128l201 -909h-69zM454 1464q0 26 18 43.5t43 17.5t43 -17.5t18 -43.5t-18 -43.5t-43 -17.5t-43 17.5t-18 43.5z" />
<glyph unicode="&#xc6;" horiz-adv-x="1391" d="M50 0h298l264 1072h33v-559h-69l-55 -230h124v-283h697v270h-427v260h247v270h-247v272h427v268h-948z" />
<glyph unicode="&#xc7;" horiz-adv-x="945" d="M268 -381q87 0 152 26.5t100.5 71.5t52.5 96.5t17 109.5h-177q0 -72 -41.5 -101t-103.5 -29v-174zM73 346q0 -37 12.5 -81.5t42 -93.5t71 -89t107.5 -66t144 -26v270q-30 0 -53 11.5t-33.5 28t-15.5 28.5t-5 18v645q0 6 5 18.5t15.5 29t33.5 28.5t53 13v269 q-78 0 -144 -26.5t-107.5 -66.5t-71 -89.5t-42 -94t-12.5 -81.5v-645zM553 -10q136 0 245 105t109 253l-264 64v-23q0 -50 -9 -71q-8 -20 -28.5 -34.5t-36.5 -19.5l-16 -4v-270zM553 1080q7 -2 18 -6t33 -20t30 -36q9 -21 9 -71v-28l264 69q0 90 -51.5 174t-134 135.5 t-168.5 51.5v-269z" />
<glyph unicode="&#xc8;" horiz-adv-x="849" d="M188 1757l139 -291h174l-70 291h-243zM80 0h697v270h-427v260h247v270h-247v272h427v268h-697v-1340z" />
<glyph unicode="&#xc9;" horiz-adv-x="849" d="M465 1466h174l140 291h-243zM80 0h697v270h-427v260h247v270h-247v272h427v268h-697v-1340z" />
<glyph unicode="&#xca;" horiz-adv-x="849" d="M220 1466h155l52 109l53 -109h157l-147 291h-126zM80 0h697v270h-427v260h247v270h-247v272h427v268h-697v-1340z" />
<glyph unicode="&#xcb;" horiz-adv-x="849" d="M122 1610q0 -60 42 -102t102 -42t102 42t42 102t-42 102.5t-102 42.5t-102 -42.5t-42 -102.5zM448 1610q0 -60 41.5 -102t101.5 -42t102 42t42 102t-42 102.5t-102 42.5t-101.5 -42.5t-41.5 -102.5zM80 0h697v270h-427v260h247v270h-247v272h427v268h-697v-1340z" />
<glyph unicode="&#xcc;" horiz-adv-x="430" d="M-11 1757l139 -291h174l-70 291h-243zM80 0h270v1340h-270v-1340z" />
<glyph unicode="&#xcd;" horiz-adv-x="430" d="M128 1466h174l140 291h-243zM80 0h270v1340h-270v-1340z" />
<glyph unicode="&#xce;" horiz-adv-x="430" d="M6 1466h155l51 109l54 -109h157l-147 291h-127zM80 0h270v1340h-270v-1340z" />
<glyph unicode="&#xcf;" horiz-adv-x="430" d="M-92 1610q0 -60 42 -102t102 -42t101.5 42t41.5 102t-41.5 102.5t-101.5 42.5t-102 -42.5t-42 -102.5zM234 1610q0 -60 41.5 -102t101.5 -42t102 42t42 102t-42 102.5t-102 42.5t-101.5 -42.5t-41.5 -102.5zM80 0h270v1340h-270v-1340z" />
<glyph unicode="&#xd0;" horiz-adv-x="958" d="M50 559h109v-559h270v559h107v245h-107v536h-270v-536h-109v-245zM532 0q37 0 83.5 11.5t99 40.5t95 70.5t71 108t28.5 146.5v586q0 39 -12.5 86t-42 99t-71 94.5t-107.5 70t-144 27.5v-270q32 -1 55 -16t33.5 -35.5t14.5 -34.5t4 -21v-586q-1 -32 -15.5 -55t-35 -33.5 t-35 -14.5t-21.5 -4v-270z" />
<glyph unicode="&#xd1;" horiz-adv-x="1012" d="M237 1501q68 42 127 42q45 0 121.5 -38.5t128.5 -38.5q73 0 161 54v193q-90 -54 -153 -54q-49 0 -125.5 39.5t-125.5 39.5q-61 0 -134 -42v-195zM80 0h270v532l-254 410h-16v-942zM80 1164l724 -1164h128v322l-631 1018h-221v-176zM662 953l255 -409h15v796h-270v-387z " />
<glyph unicode="&#xd2;" horiz-adv-x="1002" d="M260 1757l140 -291h174l-71 291h-243zM73 373q0 -79 28 -145.5t70.5 -109t94.5 -72.5t98.5 -43t83.5 -13v272q-6 0 -21 5.5t-35 16.5t-34.5 35t-14.5 54v599q0 6 5 21t15.5 35.5t33.5 35.5t53 16v269q-72 0 -136 -25t-106.5 -63.5t-74 -86t-46 -91.5t-14.5 -80v-630z M553 -10q37 0 83.5 13t99 43t95 72.5t71 109t28.5 145.5v630q0 35 -14.5 79t-46 91.5t-74.5 86.5t-106.5 64t-135.5 25v-269q30 -1 53 -16t33.5 -35.5t15.5 -35.5t5 -21v-599q-1 -30 -16 -54t-35 -35t-35 -16.5t-21 -5.5v-272z" />
<glyph unicode="&#xd3;" horiz-adv-x="1002" d="M415 1466h175l139 291h-243zM73 373q0 -79 28 -145.5t70.5 -109t94.5 -72.5t98.5 -43t83.5 -13v272q-6 0 -21 5.5t-35 16.5t-34.5 35t-14.5 54v599q0 6 5 21t15.5 35.5t33.5 35.5t53 16v269q-72 0 -136 -25t-106.5 -63.5t-74 -86t-46 -91.5t-14.5 -80v-630zM553 -10 q37 0 83.5 13t99 43t95 72.5t71 109t28.5 145.5v630q0 35 -14.5 79t-46 91.5t-74.5 86.5t-106.5 64t-135.5 25v-269q30 -1 53 -16t33.5 -35.5t15.5 -35.5t5 -21v-599q-1 -30 -16 -54t-35 -35t-35 -16.5t-21 -5.5v-272z" />
<glyph unicode="&#xd4;" horiz-adv-x="1002" d="M293 1466h155l52 109l53 -109h157l-147 291h-127zM73 373q0 -79 28 -145.5t70.5 -109t94.5 -72.5t98.5 -43t83.5 -13v272q-6 0 -21 5.5t-35 16.5t-34.5 35t-14.5 54v599q0 6 5 21t15.5 35.5t33.5 35.5t53 16v269q-72 0 -136 -25t-106.5 -63.5t-74 -86t-46 -91.5 t-14.5 -80v-630zM553 -10q37 0 83.5 13t99 43t95 72.5t71 109t28.5 145.5v630q0 35 -14.5 79t-46 91.5t-74.5 86.5t-106.5 64t-135.5 25v-269q30 -1 53 -16t33.5 -35.5t15.5 -35.5t5 -21v-599q-1 -30 -16 -54t-35 -35t-35 -16.5t-21 -5.5v-272z" />
<glyph unicode="&#xd5;" horiz-adv-x="1002" d="M232 1466q68 42 126 42q45 0 122 -38t129 -38q74 0 160 53v194q-90 -54 -153 -54q-49 0 -125 39t-125 39q-61 0 -134 -42v-195zM73 373q0 -79 28 -145.5t70.5 -109t94.5 -72.5t98.5 -43t83.5 -13v272q-6 0 -21 5.5t-35 16.5t-34.5 35t-14.5 54v599q0 6 5 21t15.5 35.5 t33.5 35.5t53 16v269q-72 0 -136 -25t-106.5 -63.5t-74 -86t-46 -91.5t-14.5 -80v-630zM553 -10q37 0 83.5 13t99 43t95 72.5t71 109t28.5 145.5v630q0 35 -14.5 79t-46 91.5t-74.5 86.5t-106.5 64t-135.5 25v-269q30 -1 53 -16t33.5 -35.5t15.5 -35.5t5 -21v-599 q-1 -30 -16 -54t-35 -35t-35 -16.5t-21 -5.5v-272z" />
<glyph unicode="&#xd6;" horiz-adv-x="1002" d="M195 1610q0 -60 42 -102t102 -42t101.5 42t41.5 102t-41.5 102.5t-101.5 42.5t-102 -42.5t-42 -102.5zM521 1610q0 -60 41.5 -102t101.5 -42t102 42t42 102t-42 102.5t-102 42.5t-101.5 -42.5t-41.5 -102.5zM73 373q0 -79 28 -145.5t70.5 -109t94.5 -72.5t98.5 -43 t83.5 -13v272q-6 0 -21 5.5t-35 16.5t-34.5 35t-14.5 54v599q0 6 5 21t15.5 35.5t33.5 35.5t53 16v269q-72 0 -136 -25t-106.5 -63.5t-74 -86t-46 -91.5t-14.5 -80v-630zM553 -10q37 0 83.5 13t99 43t95 72.5t71 109t28.5 145.5v630q0 35 -14.5 79t-46 91.5t-74.5 86.5 t-106.5 64t-135.5 25v-269q30 -1 53 -16t33.5 -35.5t15.5 -35.5t5 -21v-599q-1 -30 -16 -54t-35 -35t-35 -16.5t-21 -5.5v-272z" />
<glyph unicode="&#xd7;" horiz-adv-x="1334" d="M364 322l304 306l302 -303l173 171l-305 304l305 304l-171 171l-304 -305l-306 307l-171 -171l307 -308l-305 -306z" />
<glyph unicode="&#xd8;" horiz-adv-x="1267" d="M0 251l149 -169l109 98q56 -91 153 -140.5t171 -49.5v272q-6 0 -21 5.5t-35 17.5t-34.5 36.5t-14.5 55.5l317 287v-291q-1 -30 -16 -54t-35 -35t-35 -16.5t-21 -5.5v-272q37 0 83.5 13t99 43t95 72.5t71 109t28.5 145.5v534l203 184l-149 168l-107 -97 q-49 82 -131.5 134.5t-192.5 52.5v-269q32 -1 55 -13.5t33.5 -31.5t14.5 -35.5t4 -32.5l-317 -286v280q0 15 4.5 33t15.5 38t33.5 33.5t53.5 14.5v269q-72 0 -136 -25t-106.5 -63.5t-74 -86t-46 -91.5t-14.5 -80v-567z" />
<glyph unicode="&#xd9;" horiz-adv-x="979" d="M249 1757l140 -291h174l-71 291h-243zM61 369q0 -79 28.5 -145t71 -108t95 -71.5t99 -42t83.5 -12.5v272q-6 0 -21 5t-35 15.5t-35 33.5t-16 53v971h-270v-971zM542 -10q38 0 84 12t98 41.5t94.5 71.5t70.5 108.5t28 145.5v971h-268v-971q-1 -30 -16 -53t-35 -33.5 t-35 -15.5t-21 -5v-272z" />
<glyph unicode="&#xda;" horiz-adv-x="979" d="M402 1466h174l140 291h-243zM61 369q0 -79 28.5 -145t71 -108t95 -71.5t99 -42t83.5 -12.5v272q-6 0 -21 5t-35 15.5t-35 33.5t-16 53v971h-270v-971zM542 -10q38 0 84 12t98 41.5t94.5 71.5t70.5 108.5t28 145.5v971h-268v-971q-1 -30 -16 -53t-35 -33.5t-35 -15.5 t-21 -5v-272z" />
<glyph unicode="&#xdb;" horiz-adv-x="979" d="M281 1466h155l52 109l54 -109h157l-148 291h-126zM61 369q0 -79 28.5 -145t71 -108t95 -71.5t99 -42t83.5 -12.5v272q-6 0 -21 5t-35 15.5t-35 33.5t-16 53v971h-270v-971zM542 -10q38 0 84 12t98 41.5t94.5 71.5t70.5 108.5t28 145.5v971h-268v-971q-1 -30 -16 -53 t-35 -33.5t-35 -15.5t-21 -5v-272z" />
<glyph unicode="&#xdc;" horiz-adv-x="979" d="M184 1610q0 -60 41.5 -102t101.5 -42t102 42t42 102t-42 102.5t-102 42.5t-101.5 -42.5t-41.5 -102.5zM509 1610q0 -60 42 -102t102 -42t101.5 42t41.5 102t-41.5 102.5t-101.5 42.5t-102 -42.5t-42 -102.5zM61 369q0 -79 28.5 -145t71 -108t95 -71.5t99 -42t83.5 -12.5 v272q-6 0 -21 5t-35 15.5t-35 33.5t-16 53v971h-270v-971zM542 -10q38 0 84 12t98 41.5t94.5 71.5t70.5 108.5t28 145.5v971h-268v-971q-1 -30 -16 -53t-35 -33.5t-35 -15.5t-21 -5v-272z" />
<glyph unicode="&#xdd;" horiz-adv-x="863" d="M345 1466h174l139 291h-243zM23 1340l251 -858v-482h279v484l-249 856h-281zM488 1081l126 -447h18l208 706h-277z" />
<glyph unicode="&#xde;" horiz-adv-x="907" d="M50 0h270v1340h-270v-1340zM423 398q230 0 332 84.5t102 286.5q0 87 -19.5 149t-67 111.5t-134 74.5t-213.5 25v-266h63q11 0 23 -2.5t31.5 -11t31.5 -31t12 -56.5q0 -33 -12.5 -55t-32.5 -30t-31.5 -10.5t-21.5 -2.5h-63v-266z" />
<glyph unicode="&#xdf;" horiz-adv-x="999" d="M50 0h247v953q0 84 31.5 126.5t102.5 42.5q57 0 94.5 -29.5t37.5 -99.5v-23q-83 -29 -140 -94.5t-57 -165.5q0 -112 42 -173.5t120 -100.5q26 -13 60.5 -27t55 -22.5t41.5 -21t30.5 -30t9.5 -42.5q0 -41 -33 -61.5t-66 -22.5h-245v-209h245q139 0 231 81.5t92 224.5 q0 57 -17.5 103.5t-47.5 77.5t-63.5 51t-72.5 34q-55 18 -90.5 36.5t-50 34.5t-19 26.5t-4.5 21.5q0 8 2.5 18t8.5 25t21.5 27t38.5 16l122 -2v216q0 29 -2 54.5t-9.5 63.5t-21 69t-39.5 64t-61.5 55.5t-89.5 37t-121 14.5q-79 0 -141 -17.5t-101.5 -44t-67.5 -68t-42 -78.5 t-21 -87t-8.5 -81.5t-1.5 -73.5v-24v-875z" />
<glyph unicode="&#xe0;" horiz-adv-x="903" d="M195 1501h243l71 -291h-174zM48 253v97q0 62 21 108t82 82q31 18 139.5 52.5t187.5 71t79 73.5v44q0 32 -20.5 53t-63.5 22v235q78 0 143.5 -29.5t104.5 -74.5t60 -94.5t21 -94.5v-499q0 -11 3 -23t16 -25.5t35 -13.5v-237q-117 0 -188 61q-76 -61 -193 -61v235 q44 0 63 24.5t19 52.5v157q-47 -28 -157 -60t-115 -34q-25 -12 -25 -44v-27q0 -37 22.5 -53t88.5 -16v-235q-145 0 -234 77.5t-89 175.5zM61 817q0 112 97.5 193t214.5 81v-235q-90 0 -90 -123z" />
<glyph unicode="&#xe1;" horiz-adv-x="903" d="M335 1210l71 291h243l-140 -291h-174zM48 253v97q0 62 21 108t82 82q31 18 139.5 52.5t187.5 71t79 73.5v44q0 32 -20.5 53t-63.5 22v235q78 0 143.5 -29.5t104.5 -74.5t60 -94.5t21 -94.5v-499q0 -11 3 -23t16 -25.5t35 -13.5v-237q-117 0 -188 61q-76 -61 -193 -61v235 q44 0 63 24.5t19 52.5v157q-47 -28 -157 -60t-115 -34q-25 -12 -25 -44v-27q0 -37 22.5 -53t88.5 -16v-235q-145 0 -234 77.5t-89 175.5zM61 817q0 112 97.5 193t214.5 81v-235q-90 0 -90 -123z" />
<glyph unicode="&#xe2;" horiz-adv-x="903" d="M214 1210l144 291h126l148 -291h-157l-54 109l-52 -109h-155zM48 253v97q0 62 21 108t82 82q31 18 139.5 52.5t187.5 71t79 73.5v44q0 32 -20.5 53t-63.5 22v235q78 0 143.5 -29.5t104.5 -74.5t60 -94.5t21 -94.5v-499q0 -11 3 -23t16 -25.5t35 -13.5v-237 q-117 0 -188 61q-76 -61 -193 -61v235q44 0 63 24.5t19 52.5v157q-47 -28 -157 -60t-115 -34q-25 -12 -25 -44v-27q0 -37 22.5 -53t88.5 -16v-235q-145 0 -234 77.5t-89 175.5zM61 817q0 112 97.5 193t214.5 81v-235q-90 0 -90 -123z" />
<glyph unicode="&#xe3;" horiz-adv-x="903" d="M153 1244v195q73 42 134 42q49 0 125.5 -39t125.5 -39q63 0 153 54v-194q-86 -53 -161 -53q-52 0 -129 38t-122 38q-58 0 -126 -42zM48 253v97q0 62 21 108t82 82q31 18 139.5 52.5t187.5 71t79 73.5v44q0 32 -20.5 53t-63.5 22v235q78 0 143.5 -29.5t104.5 -74.5 t60 -94.5t21 -94.5v-499q0 -11 3 -23t16 -25.5t35 -13.5v-237q-117 0 -188 61q-76 -61 -193 -61v235q44 0 63 24.5t19 52.5v157q-47 -28 -157 -60t-115 -34q-25 -12 -25 -44v-27q0 -37 22.5 -53t88.5 -16v-235q-145 0 -234 77.5t-89 175.5zM61 817q0 112 97.5 193t214.5 81 v-235q-90 0 -90 -123z" />
<glyph unicode="&#xe4;" horiz-adv-x="903" d="M117 1353q0 60 41.5 103t101.5 43t102 -43t42 -103t-42 -101.5t-102 -41.5t-101.5 41.5t-41.5 101.5zM442 1353q0 60 42 103t102 43t101.5 -43t41.5 -103t-41.5 -101.5t-101.5 -41.5t-102 41.5t-42 101.5zM48 253v97q0 62 21 108t82 82q31 18 139.5 52.5t187.5 71 t79 73.5v44q0 32 -20.5 53t-63.5 22v235q78 0 143.5 -29.5t104.5 -74.5t60 -94.5t21 -94.5v-499q0 -11 3 -23t16 -25.5t35 -13.5v-237q-117 0 -188 61q-76 -61 -193 -61v235q44 0 63 24.5t19 52.5v157q-47 -28 -157 -60t-115 -34q-25 -12 -25 -44v-27q0 -37 22.5 -53 t88.5 -16v-235q-145 0 -234 77.5t-89 175.5zM61 817q0 112 97.5 193t214.5 81v-235q-90 0 -90 -123z" />
<glyph unicode="&#xe5;" horiz-adv-x="903" d="M239 1393q0 76 54 130t130 54t130 -54t54 -130t-54 -129.5t-130 -53.5t-130 53.5t-54 129.5zM362 1393q0 -25 18 -43t43 -18t43 18t18 43q0 26 -18 44t-43 18t-43 -18t-18 -44zM48 253v97q0 62 21 108t82 82q31 18 139.5 52.5t187.5 71t79 73.5v44q0 32 -20.5 53 t-63.5 22v235q78 0 143.5 -29.5t104.5 -74.5t60 -94.5t21 -94.5v-499q0 -11 3 -23t16 -25.5t35 -13.5v-237q-117 0 -188 61q-76 -61 -193 -61v235q44 0 63 24.5t19 52.5v157q-47 -28 -157 -60t-115 -34q-25 -12 -25 -44v-27q0 -37 22.5 -53t88.5 -16v-235q-145 0 -234 77.5 t-89 175.5zM61 817q0 112 97.5 193t214.5 81v-235q-90 0 -90 -123z" />
<glyph unicode="&#xe6;" horiz-adv-x="1274" d="M50 211q0 -86 80.5 -147.5t214.5 -61.5v214q-54 0 -78 14.5t-24 54.5v25q0 24 30.5 41.5t70 27t90.5 24.5t79 31v-149q0 -5 -3.5 -14.5t-11 -22.5t-23.5 -22.5t-37 -9.5v-214q55 0 102 19.5t74 55.5q84 -77 255 -77q136 0 232 59t124 171l-190 71q-12 -55 -52.5 -74.5 t-121.5 -19.5q-54 0 -90 25.5t-36 71.5v94h488v325q0 104 -98.5 184.5t-209.5 80.5v-220q35 0 62.5 -21.5t27.5 -59.5v-67h-270v75q0 28 24 50.5t62 22.5v220q-107 0 -191 -64q-93 69 -234 69q-127 0 -220.5 -80.5t-93.5 -194.5l182 -50q0 57 42 88t98 31q44 0 76.5 -21 t32.5 -52v-42q0 -30 -34.5 -55t-85.5 -41t-111.5 -38t-111.5 -44.5t-85.5 -61t-34.5 -87.5v-134z" />
<glyph unicode="&#xe7;" horiz-adv-x="872" d="M224 -381q87 0 152 26.5t100.5 71.5t52 96.5t16.5 109.5h-176q0 -72 -41.5 -101t-103.5 -29v-174zM73 297q0 -32 11 -69.5t37.5 -78.5t64 -73.5t97 -54t130.5 -21.5v243q-48 2 -69 14t-21 40v497q0 19 22 35.5t67 16.5v245q-68 0 -126 -21t-95.5 -53t-65 -72t-39.5 -77.5 t-13 -69.5v-501zM500 844q78 0 78 -82v-63l234 90q0 124 -91.5 213t-220.5 89v-247zM500 -2q127 -5 231.5 89t103.5 215l-234 90v-63q0 -50 -23.5 -67t-77.5 -17v-247z" />
<glyph unicode="&#xe8;" horiz-adv-x="928" d="M237 1495l140 -291h174l-71 291h-243zM73 297q0 -40 22 -89.5t62.5 -96.5t108 -79t147.5 -32v235q-45 0 -64.5 18t-19.5 44v141h525v362q0 83 -53 151.5t-130 104t-156 35.5v-241q99 0 99 -71v-94h-285v96q0 24 24 46.5t59 22.5v241q-64 0 -120 -21t-95 -53.5t-67.5 -72 t-42 -77.5t-14.5 -69v-501zM515 0q130 0 223.5 76.5t117.5 176.5l-209 78q-27 -97 -132 -97v-234z" />
<glyph unicode="&#xe9;" horiz-adv-x="928" d="M377 1204h174l140 291h-243zM73 297q0 -40 22 -89.5t62.5 -96.5t108 -79t147.5 -32v235q-45 0 -64.5 18t-19.5 44v141h525v362q0 83 -53 151.5t-130 104t-156 35.5v-241q99 0 99 -71v-94h-285v96q0 24 24 46.5t59 22.5v241q-64 0 -120 -21t-95 -53.5t-67.5 -72t-42 -77.5 t-14.5 -69v-501zM515 0q130 0 223.5 76.5t117.5 176.5l-209 78q-27 -97 -132 -97v-234z" />
<glyph unicode="&#xea;" horiz-adv-x="928" d="M255 1204h155l51 109l54 -109h157l-148 291h-126zM73 297q0 -40 22 -89.5t62.5 -96.5t108 -79t147.5 -32v235q-45 0 -64.5 18t-19.5 44v141h525v362q0 83 -53 151.5t-130 104t-156 35.5v-241q99 0 99 -71v-94h-285v96q0 24 24 46.5t59 22.5v241q-64 0 -120 -21t-95 -53.5 t-67.5 -72t-42 -77.5t-14.5 -69v-501zM515 0q130 0 223.5 76.5t117.5 176.5l-209 78q-27 -97 -132 -97v-234z" />
<glyph unicode="&#xeb;" horiz-adv-x="928" d="M157 1347q0 -60 42 -101.5t102 -41.5t101.5 41.5t41.5 101.5t-41.5 103t-101.5 43t-102 -43t-42 -103zM482 1347q0 -60 42 -101.5t102 -41.5t101.5 41.5t41.5 101.5t-41.5 103t-101.5 43t-102 -43t-42 -103zM73 297q0 -40 22 -89.5t62.5 -96.5t108 -79t147.5 -32v235 q-45 0 -64.5 18t-19.5 44v141h525v362q0 83 -53 151.5t-130 104t-156 35.5v-241q99 0 99 -71v-94h-285v96q0 24 24 46.5t59 22.5v241q-64 0 -120 -21t-95 -53.5t-67.5 -72t-42 -77.5t-14.5 -69v-501zM515 0q130 0 223.5 76.5t117.5 176.5l-209 78q-27 -97 -132 -97v-234z " />
<glyph unicode="&#xec;" horiz-adv-x="333" d="M-61 1495l139 -291h175l-71 291h-243zM50 0h233v988h-233v-988z" />
<glyph unicode="&#xed;" horiz-adv-x="333" d="M78 1204h175l139 291h-243zM50 0h233v988h-233v-988z" />
<glyph unicode="&#xee;" horiz-adv-x="333" d="M-42 1204h155l52 109l53 -109h157l-147 291h-127zM50 0h233v988h-233v-988z" />
<glyph unicode="&#xef;" horiz-adv-x="333" d="M-140 1347q0 -60 42 -101.5t102 -41.5t101.5 41.5t41.5 101.5t-41.5 103t-101.5 43t-102 -43t-42 -103zM186 1347q0 -60 41.5 -101.5t101.5 -41.5t102 41.5t42 101.5t-42 103t-102 43t-101.5 -43t-41.5 -103zM50 0h233v988h-233v-988z" />
<glyph unicode="&#xf0;" horiz-adv-x="803" d="M54 270q0 -29 11.5 -63.5t37.5 -72t61 -67.5t88.5 -49.5t114.5 -19.5v226q-84 0 -84 71v400q0 26 19 46.5t65 20.5v226q-75 0 -137.5 -28.5t-99 -71t-56.5 -87t-20 -81.5v-450zM367 1238q65 -29 96 -63l-96 -30l35 -110l109 33q3 -13 12 -88q-25 8 -77 8v-226 q45 0 62.5 -17t17.5 -50v-404q0 -26 -18 -46.5t-62 -20.5v-226q73 0 134 29t96.5 72t54.5 88t19 83v576q0 166 -53 279l65 21l-35 112l-95 -31q-93 107 -265 140v-129z" />
<glyph unicode="&#xf1;" horiz-adv-x="932" d="M197 1244q68 42 126 42q45 0 122 -38t129 -38q75 0 161 53v194q-90 -54 -153 -54q-49 0 -125.5 39t-125.5 39q-61 0 -134 -42v-195zM73 0h260v764q0 30 20.5 52t67.5 22v255q-82 0 -151.5 -31.5t-110.5 -78.5t-63.5 -97t-22.5 -92v-794zM509 838q46 0 68 -21.5t22 -52.5 v-764h260v794q0 40 -23 89.5t-64.5 97.5t-111 80t-151.5 32v-255z" />
<glyph unicode="&#xf2;" horiz-adv-x="911" d="M234 1495l139 -291h174l-70 291h-243zM73 297q0 -31 13 -69.5t41 -79t67 -74t97.5 -55t125.5 -21.5v249q-92 0 -92 76v446q0 28 21 50.5t71 22.5v249q-83 0 -151.5 -31t-109 -78t-62 -96t-21.5 -90v-499zM505 -2q80 0 146.5 32t105.5 79.5t60 97t21 90.5v499q0 32 -13 70 t-41 78t-66 72.5t-94.5 53.5t-120.5 21v-249q50 0 69 -19t19 -54l2 -449q0 -28 -20 -50.5t-68 -22.5v-249z" />
<glyph unicode="&#xf3;" horiz-adv-x="911" d="M373 1204h174l140 291h-243zM73 297q0 -31 13 -69.5t41 -79t67 -74t97.5 -55t125.5 -21.5v249q-92 0 -92 76v446q0 28 21 50.5t71 22.5v249q-83 0 -151.5 -31t-109 -78t-62 -96t-21.5 -90v-499zM505 -2q80 0 146.5 32t105.5 79.5t60 97t21 90.5v499q0 32 -13 70t-41 78 t-66 72.5t-94.5 53.5t-120.5 21v-249q50 0 69 -19t19 -54l2 -449q0 -28 -20 -50.5t-68 -22.5v-249z" />
<glyph unicode="&#xf4;" horiz-adv-x="911" d="M253 1204h155l51 109l54 -109h157l-147 291h-127zM73 297q0 -31 13 -69.5t41 -79t67 -74t97.5 -55t125.5 -21.5v249q-92 0 -92 76v446q0 28 21 50.5t71 22.5v249q-83 0 -151.5 -31t-109 -78t-62 -96t-21.5 -90v-499zM505 -2q80 0 146.5 32t105.5 79.5t60 97t21 90.5v499 q0 32 -13 70t-41 78t-66 72.5t-94.5 53.5t-120.5 21v-249q50 0 69 -19t19 -54l2 -449q0 -28 -20 -50.5t-68 -22.5v-249z" />
<glyph unicode="&#xf5;" horiz-adv-x="911" d="M191 1238q68 42 127 42q45 0 121.5 -38t128.5 -38q73 0 161 54v193q-90 -54 -153 -54q-49 0 -125.5 39.5t-125.5 39.5q-61 0 -134 -42v-196zM73 297q0 -31 13 -69.5t41 -79t67 -74t97.5 -55t125.5 -21.5v249q-92 0 -92 76v446q0 28 21 50.5t71 22.5v249q-83 0 -151.5 -31 t-109 -78t-62 -96t-21.5 -90v-499zM505 -2q80 0 146.5 32t105.5 79.5t60 97t21 90.5v499q0 32 -13 70t-41 78t-66 72.5t-94.5 53.5t-120.5 21v-249q50 0 69 -19t19 -54l2 -449q0 -28 -20 -50.5t-68 -22.5v-249z" />
<glyph unicode="&#xf6;" horiz-adv-x="911" d="M155 1347q0 -60 42 -101.5t102 -41.5t101.5 41.5t41.5 101.5t-41.5 103t-101.5 43t-102 -43t-42 -103zM480 1347q0 -60 42 -101.5t102 -41.5t102 41.5t42 101.5t-42 103t-102 43t-102 -43t-42 -103zM73 297q0 -31 13 -69.5t41 -79t67 -74t97.5 -55t125.5 -21.5v249 q-92 0 -92 76v446q0 28 21 50.5t71 22.5v249q-83 0 -151.5 -31t-109 -78t-62 -96t-21.5 -90v-499zM505 -2q80 0 146.5 32t105.5 79.5t60 97t21 90.5v499q0 32 -13 70t-41 78t-66 72.5t-94.5 53.5t-120.5 21v-249q50 0 69 -19t19 -54l2 -449q0 -28 -20 -50.5t-68 -22.5v-249z " />
<glyph unicode="&#xf7;" horiz-adv-x="1244" d="M130 436h861v243h-861v-243zM433 928q0 -60 41.5 -101.5t101.5 -41.5t102 41.5t42 101.5t-42 103t-102 43t-101.5 -43t-41.5 -103zM433 253q0 -60 41.5 -102t101.5 -42t102 42t42 102t-42 102.5t-102 42.5t-101.5 -42.5t-41.5 -102.5z" />
<glyph unicode="&#xf8;" horiz-adv-x="953" d="M0 157l128 117v446q0 37 20 81.5t57 87t99.5 71t137.5 28.5v-226q-46 0 -65 -20.5t-19 -46.5v-211l243 224q-7 54 -80 54v226q160 0 248 -125l83 75l101 -115l-128 -117v-436q0 -38 -19 -83t-54.5 -88t-96.5 -72t-134 -29v226q44 0 62 20.5t18 46.5v209l-241 -222 q6 -54 82 -54v-226q-161 0 -254 123l-87 -79z" />
<glyph unicode="&#xf9;" horiz-adv-x="932" d="M239 1495l140 -291h174l-71 291h-243zM73 289q0 -42 22.5 -92t63.5 -97t110.5 -78.5t151.5 -31.5v255q-47 0 -67.5 21.5t-20.5 53.5v771h-260v-802zM509 -10q82 0 151.5 32t111 80t64.5 97.5t23 89.5v802h-260v-771q0 -30 -21.5 -52.5t-68.5 -22.5v-255z" />
<glyph unicode="&#xfa;" horiz-adv-x="932" d="M503 1204h175l139 291h-243zM73 289q0 -42 22.5 -92t63.5 -97t110.5 -78.5t151.5 -31.5v255q-47 0 -67.5 21.5t-20.5 53.5v771h-260v-802zM509 -10q82 0 151.5 32t111 80t64.5 97.5t23 89.5v802h-260v-771q0 -30 -21.5 -52.5t-68.5 -22.5v-255z" />
<glyph unicode="&#xfb;" horiz-adv-x="932" d="M256 1204h156l51 109l54 -109h157l-148 291h-126zM73 289q0 -42 22.5 -92t63.5 -97t110.5 -78.5t151.5 -31.5v255q-47 0 -67.5 21.5t-20.5 53.5v771h-260v-802zM509 -10q82 0 151.5 32t111 80t64.5 97.5t23 89.5v802h-260v-771q0 -30 -21.5 -52.5t-68.5 -22.5v-255z" />
<glyph unicode="&#xfc;" horiz-adv-x="932" d="M159 1347q0 -60 41.5 -101.5t101.5 -41.5t102 41.5t42 101.5t-42 103t-102 43t-101.5 -43t-41.5 -103zM484 1347q0 -60 42 -101.5t102 -41.5t101.5 41.5t41.5 101.5t-41.5 103t-101.5 43t-102 -43t-42 -103zM73 289q0 -42 22.5 -92t63.5 -97t110.5 -78.5t151.5 -31.5v255 q-47 0 -67.5 21.5t-20.5 53.5v771h-260v-802zM509 -10q82 0 151.5 32t111 80t64.5 97.5t23 89.5v802h-260v-771q0 -30 -21.5 -52.5t-68.5 -22.5v-255z" />
<glyph unicode="&#xfd;" horiz-adv-x="821" d="M448 1219h174l140 291h-243zM13 1091l249 -846l-191 -628h264l209 624l-255 850h-276zM461 835l115 -391h25l216 647h-275z" />
<glyph unicode="&#xfe;" horiz-adv-x="807" d="M57 -348h240v1688h-240v-1688zM375 768h61q41 0 66.5 -15t25.5 -35v-444q0 -46 -80 -48h-59v-226h55q77 0 139.5 27t99 68.5t56 86t19.5 84.5v457q0 41 -22 87.5t-61.5 87.5t-102.5 68t-136 27h-61v-225z" />
<glyph unicode="&#xff;" horiz-adv-x="821" d="M105 1363q0 -60 42 -102t102 -42t101.5 42t41.5 102t-41.5 102.5t-101.5 42.5t-102 -42.5t-42 -102.5zM431 1363q0 -60 41.5 -102t101.5 -42t102 42t42 102t-42 102.5t-102 42.5t-101.5 -42.5t-41.5 -102.5zM13 1091l249 -846l-191 -628h264l209 624l-255 850h-276z M461 835l115 -391h25l216 647h-275z" />
<glyph unicode="&#x100;" horiz-adv-x="1010" d="M226 1466h605v157h-605v-157zM61 0h264l127 578l-115 536h-29zM469 163h199l38 -163h268l-316 1340h-266l203 -913h-69z" />
<glyph unicode="&#x101;" horiz-adv-x="903" d="M121 1210v157h604v-157h-604zM48 253v97q0 62 21 108t82 82q31 18 139.5 52.5t187.5 71t79 73.5v44q0 32 -20.5 53t-63.5 22v235q78 0 143.5 -29.5t104.5 -74.5t60 -94.5t21 -94.5v-499q0 -11 3 -23t16 -25.5t35 -13.5v-237q-117 0 -188 61q-76 -61 -193 -61v235 q44 0 63 24.5t19 52.5v157q-47 -28 -157 -60t-115 -34q-25 -12 -25 -44v-27q0 -37 22.5 -53t88.5 -16v-235q-145 0 -234 77.5t-89 175.5zM61 817q0 112 97.5 193t214.5 81v-235q-90 0 -90 -123z" />
<glyph unicode="&#x102;" horiz-adv-x="1010" d="M345 1650q0 -76 53.5 -130t129.5 -54t130 54t54 130h-122q0 -25 -18 -43t-44 -18t-43.5 17.5t-17.5 43.5h-122zM61 0h264l127 578l-115 536h-29zM469 163h199l38 -163h268l-316 1340h-266l203 -913h-69z" />
<glyph unicode="&#x103;" horiz-adv-x="903" d="M239 1393h123q0 -25 18 -43t43 -18t43 18t18 43h123q0 -76 -54 -129.5t-130 -53.5t-130 53.5t-54 129.5zM48 253v97q0 62 21 108t82 82q31 18 139.5 52.5t187.5 71t79 73.5v44q0 32 -20.5 53t-63.5 22v235q78 0 143.5 -29.5t104.5 -74.5t60 -94.5t21 -94.5v-499 q0 -11 3 -23t16 -25.5t35 -13.5v-237q-117 0 -188 61q-76 -61 -193 -61v235q44 0 63 24.5t19 52.5v157q-47 -28 -157 -60t-115 -34q-25 -12 -25 -44v-27q0 -37 22.5 -53t88.5 -16v-235q-145 0 -234 77.5t-89 175.5zM61 817q0 112 97.5 193t214.5 81v-235q-90 0 -90 -123z " />
<glyph unicode="&#x104;" horiz-adv-x="1010" d="M1076 -381v174q-28 0 -52 6t-46.5 19.5t-35 40t-12.5 64.5h-176q0 -58 17 -109.5t52.5 -96.5t100.5 -71.5t152 -26.5zM61 0h264l127 578l-115 536h-29zM469 163h199l38 -163h268l-316 1340h-266l203 -913h-69z" />
<glyph unicode="&#x105;" horiz-adv-x="903" d="M913 -383q-87 0 -152 26.5t-100.5 72t-52.5 97t-17 109.5h177q0 -72 41.5 -101.5t103.5 -29.5v-174zM48 253v97q0 62 21 108t82 82q31 18 139.5 52.5t187.5 71t79 73.5v44q0 32 -20.5 53t-63.5 22v235q78 0 143.5 -29.5t104.5 -74.5t60 -94.5t21 -94.5v-499q0 -11 3 -23 t16 -25.5t35 -13.5v-237q-117 0 -188 61q-76 -61 -193 -61v235q44 0 63 24.5t19 52.5v157q-47 -28 -157 -60t-115 -34q-25 -12 -25 -44v-27q0 -37 22.5 -53t88.5 -16v-235q-145 0 -234 77.5t-89 175.5zM61 817q0 112 97.5 193t214.5 81v-235q-90 0 -90 -123z" />
<glyph unicode="&#x106;" horiz-adv-x="945" d="M415 1466h175l139 291h-243zM73 346q0 -37 12.5 -81.5t42 -93.5t71 -89t107.5 -66t144 -26v270q-30 0 -53 11.5t-33.5 28t-15.5 28.5t-5 18v645q0 6 5 18.5t15.5 29t33.5 28.5t53 13v269q-78 0 -144 -26.5t-107.5 -66.5t-71 -89.5t-42 -94t-12.5 -81.5v-645zM553 -10 q136 0 245 105t109 253l-264 64v-23q0 -50 -9 -71q-8 -20 -28.5 -34.5t-36.5 -19.5l-16 -4v-270zM553 1080q7 -2 18 -6t33 -20t30 -36q9 -21 9 -71v-28l264 69q0 90 -51.5 174t-134 135.5t-168.5 51.5v-269z" />
<glyph unicode="&#x107;" horiz-adv-x="872" d="M369 1204h175l139 291h-243zM73 297q0 -32 11 -69.5t37.5 -78.5t64 -73.5t97 -54t130.5 -21.5v243q-48 2 -69 14t-21 40v497q0 19 22 35.5t67 16.5v245q-68 0 -126 -21t-95.5 -53t-65 -72t-39.5 -77.5t-13 -69.5v-501zM500 844q78 0 78 -82v-63l234 90q0 124 -91.5 213 t-220.5 89v-247zM500 -2q127 -5 231.5 89t103.5 215l-234 90v-63q0 -50 -23.5 -67t-77.5 -17v-247z" />
<glyph unicode="&#x10c;" horiz-adv-x="945" d="M293 1757l143 -291h127l147 291h-157l-53 -109l-52 109h-155zM73 346q0 -37 12.5 -81.5t42 -93.5t71 -89t107.5 -66t144 -26v270q-30 0 -53 11.5t-33.5 28t-15.5 28.5t-5 18v645q0 6 5 18.5t15.5 29t33.5 28.5t53 13v269q-78 0 -144 -26.5t-107.5 -66.5t-71 -89.5 t-42 -94t-12.5 -81.5v-645zM553 -10q136 0 245 105t109 253l-264 64v-23q0 -50 -9 -71q-8 -20 -28.5 -34.5t-36.5 -19.5l-16 -4v-270zM553 1080q7 -2 18 -6t33 -20t30 -36q9 -21 9 -71v-28l264 69q0 90 -51.5 174t-134 135.5t-168.5 51.5v-269z" />
<glyph unicode="&#x10d;" horiz-adv-x="872" d="M247 1495l143 -291h127l147 291h-157l-53 -109l-52 109h-155zM73 297q0 -32 11 -69.5t37.5 -78.5t64 -73.5t97 -54t130.5 -21.5v243q-48 2 -69 14t-21 40v497q0 19 22 35.5t67 16.5v245q-68 0 -126 -21t-95.5 -53t-65 -72t-39.5 -77.5t-13 -69.5v-501zM500 844 q78 0 78 -82v-63l234 90q0 124 -91.5 213t-220.5 89v-247zM500 -2q127 -5 231.5 89t103.5 215l-234 90v-63q0 -50 -23.5 -67t-77.5 -17v-247z" />
<glyph unicode="&#x10e;" horiz-adv-x="903" d="M247 1757l143 -291h127l147 291h-157l-53 -109l-52 109h-155zM80 0h270v1340h-270v-1340zM454 0q37 0 83.5 11.5t99 40.5t95 70.5t71 108t28.5 146.5v586q0 39 -12.5 86t-42 99t-71 94.5t-107.5 70t-144 27.5v-270q32 -1 55 -16t33.5 -35.5t14.5 -34.5t4 -21v-586 q-1 -32 -15.5 -55t-35 -33.5t-35 -14.5t-21.5 -4v-270z" />
<glyph unicode="&#x10f;" horiz-adv-x="882" d="M978 1162h243l71 291h-243zM57 297q0 -37 20 -85.5t57.5 -97t101.5 -81.5t141 -33h59v249h-59q-26 0 -44 13t-22.5 23.5t-4.5 15.5v484q0 5 4 15.5t21 23.5t42 14h63v247h-63q-75 0 -138 -32t-99.5 -79t-57 -94.5t-21.5 -85.5v-497zM538 0h264l2 1370h-266v-1370z" />
<glyph unicode="&#x110;" horiz-adv-x="958" d="M50 559h109v-559h270v559h107v245h-107v536h-270v-536h-109v-245zM532 0q37 0 83.5 11.5t99 40.5t95 70.5t71 108t28.5 146.5v586q0 39 -12.5 86t-42 99t-71 94.5t-107.5 70t-144 27.5v-270q32 -1 55 -16t33.5 -35.5t14.5 -34.5t4 -21v-586q-1 -32 -15.5 -55t-35 -33.5 t-35 -14.5t-21.5 -4v-270z" />
<glyph unicode="&#x111;" horiz-adv-x="792" d="M57 270q0 -34 18 -78t52 -88t92.5 -74t128.5 -30h54v226h-54q-15 0 -27.5 4.5t-19 11t-11 14t-6 12t-1.5 6.5v440q0 5 4 14t19.5 21t38.5 13h57v226h-57q-55 0 -103.5 -19.5t-81 -49.5t-56.5 -66.5t-35 -70t-12 -60.5v-452zM333 1091h161v-1091h241v1091h122v184h-122v95 h-241v-95h-161v-184z" />
<glyph unicode="&#x112;" horiz-adv-x="849" d="M126 1466h605v157h-605v-157zM80 0h697v270h-427v260h247v270h-247v272h427v268h-697v-1340z" />
<glyph unicode="&#x113;" horiz-adv-x="928" d="M161 1204h605v157h-605v-157zM73 297q0 -40 22 -89.5t62.5 -96.5t108 -79t147.5 -32v235q-45 0 -64.5 18t-19.5 44v141h525v362q0 83 -53 151.5t-130 104t-156 35.5v-241q99 0 99 -71v-94h-285v96q0 24 24 46.5t59 22.5v241q-64 0 -120 -21t-95 -53.5t-67.5 -72 t-42 -77.5t-14.5 -69v-501zM515 0q130 0 223.5 76.5t117.5 176.5l-209 78q-27 -97 -132 -97v-234z" />
<glyph unicode="&#x116;" horiz-adv-x="849" d="M285 1610q0 -60 42 -102t102 -42t101.5 42t41.5 102t-41.5 102.5t-101.5 42.5t-102 -42.5t-42 -102.5zM80 0h697v270h-427v260h247v270h-247v272h427v268h-697v-1340z" />
<glyph unicode="&#x117;" horiz-adv-x="928" d="M320 1347q0 -60 41.5 -101.5t101.5 -41.5t102 41.5t42 101.5t-42 103t-102 43t-101.5 -43t-41.5 -103zM73 297q0 -40 22 -89.5t62.5 -96.5t108 -79t147.5 -32v235q-45 0 -64.5 18t-19.5 44v141h525v362q0 83 -53 151.5t-130 104t-156 35.5v-241q99 0 99 -71v-94h-285v96 q0 24 24 46.5t59 22.5v241q-64 0 -120 -21t-95 -53.5t-67.5 -72t-42 -77.5t-14.5 -69v-501zM515 0q130 0 223.5 76.5t117.5 176.5l-209 78q-27 -97 -132 -97v-234z" />
<glyph unicode="&#x118;" horiz-adv-x="849" d="M815 -381q-87 0 -152 26.5t-100.5 71.5t-52 96.5t-16.5 109.5h176q0 -72 41.5 -101t103.5 -29v-174zM80 0h697v270h-427v260h247v270h-247v272h427v268h-697v-1340z" />
<glyph unicode="&#x119;" horiz-adv-x="928" d="M704 -381q-87 0 -152 26.5t-100.5 71.5t-52 96.5t-16.5 109.5h176q0 -72 41.5 -101t103.5 -29v-174zM73 297q0 -40 22 -89.5t62.5 -96.5t108 -79t147.5 -32v235q-45 0 -64.5 18t-19.5 44v141h525v362q0 83 -53 151.5t-130 104t-156 35.5v-241q99 0 99 -71v-94h-285v96 q0 24 24 46.5t59 22.5v241q-64 0 -120 -21t-95 -53.5t-67.5 -72t-42 -77.5t-14.5 -69v-501zM515 0q130 0 223.5 76.5t117.5 176.5l-209 78q-27 -97 -132 -97v-234z" />
<glyph unicode="&#x11a;" horiz-adv-x="849" d="M220 1757l144 -291h126l147 291h-157l-53 -109l-52 109h-155zM80 0h697v270h-427v260h247v270h-247v272h427v268h-697v-1340z" />
<glyph unicode="&#x11b;" horiz-adv-x="928" d="M255 1495l143 -291h126l148 291h-157l-54 -109l-51 109h-155zM73 297q0 -40 22 -89.5t62.5 -96.5t108 -79t147.5 -32v235q-45 0 -64.5 18t-19.5 44v141h525v362q0 83 -53 151.5t-130 104t-156 35.5v-241q99 0 99 -71v-94h-285v96q0 24 24 46.5t59 22.5v241 q-64 0 -120 -21t-95 -53.5t-67.5 -72t-42 -77.5t-14.5 -69v-501zM515 0q130 0 223.5 76.5t117.5 176.5l-209 78q-27 -97 -132 -97v-234z" />
<glyph unicode="&#x11e;" horiz-adv-x="970" d="M316 1650q0 -76 54 -130t130 -54t129.5 54t53.5 130h-122q0 -26 -17.5 -43.5t-43.5 -17.5t-44 18t-18 43h-122zM73 367q0 -79 28 -145t70.5 -107.5t95 -71t98.5 -41.5t83 -12v270q-6 0 -20.5 5t-34.5 15.5t-34.5 33.5t-15.5 53v605q-1 18 6 40.5t33 44.5t66 23v269 q-72 0 -134 -24.5t-103 -61.5t-72 -84.5t-46 -91.5t-20 -84v-636zM551 -10q77 1 160 55t138.5 135.5t55.5 156.5v339h-354v-249h83v-63q0 -30 -19 -56t-37.5 -37t-26.5 -11v-270zM551 1080q36 -2 63 -31.5t27 -83.5v-75l264 98q0 90 -51 174t-133.5 135.5t-169.5 51.5v-269z " />
<glyph unicode="&#x11f;" horiz-adv-x="872" d="M239 1405q0 -76 54 -130t130 -54t130 54t54 130h-123q0 -25 -18 -43t-43 -18t-43 18t-18 43h-123zM38 -364h442q76 1 140.5 34.5t102 81.5t58.5 96.5t21 84.5v1171h-245v-11q-37 11 -86 11v-239q30 0 51.5 -13.5t28 -26.5t6.5 -21v-488q0 -26 -20 -44.5t-66 -18.5v-238 q47 0 86 8v-90q0 -6 -5.5 -18.5t-25.5 -27t-49 -15.5h-379zM57 310q0 -38 21 -86t59.5 -96t105 -80.5t146.5 -32.5v238q-47 0 -68.5 18t-21.5 41v496q0 8 7 19.5t29 24.5t54 13v239q-79 0 -145 -31.5t-105 -78.5t-60 -94.5t-22 -86.5v-503z" />
<glyph unicode="&#x122;" horiz-adv-x="970" d="M343 -417h243l71 291h-244zM73 367q0 -79 28 -145t70.5 -107.5t95 -71t98.5 -41.5t83 -12v270q-6 0 -20.5 5t-34.5 15.5t-34.5 33.5t-15.5 53v605q-1 18 6 40.5t33 44.5t66 23v269q-72 0 -134 -24.5t-103 -61.5t-72 -84.5t-46 -91.5t-20 -84v-636zM551 -10q77 1 160 55 t138.5 135.5t55.5 156.5v339h-354v-249h83v-63q0 -30 -19 -56t-37.5 -37t-26.5 -11v-270zM551 1080q36 -2 63 -31.5t27 -83.5v-75l264 98q0 90 -51 174t-133.5 135.5t-169.5 51.5v-269z" />
<glyph unicode="&#x123;" horiz-adv-x="872" d="M461 1221h174l140 291h-243zM38 -364h442q76 1 140.5 34.5t102 81.5t58.5 96.5t21 84.5v1171h-245v-11q-37 11 -86 11v-239q30 0 51.5 -13.5t28 -26.5t6.5 -21v-488q0 -26 -20 -44.5t-66 -18.5v-238q47 0 86 8v-90q0 -6 -5.5 -18.5t-25.5 -27t-49 -15.5h-379zM57 310 q0 -38 21 -86t59.5 -96t105 -80.5t146.5 -32.5v238q-47 0 -68.5 18t-21.5 41v496q0 8 7 19.5t29 24.5t54 13v239q-79 0 -145 -31.5t-105 -78.5t-60 -94.5t-22 -86.5v-503z" />
<glyph unicode="&#x12a;" horiz-adv-x="430" d="M-88 1466h605v157h-605v-157zM80 0h270v1340h-270v-1340z" />
<glyph unicode="&#x12b;" horiz-adv-x="333" d="M-136 1204h605v157h-605v-157zM50 0h233v988h-233v-988z" />
<glyph unicode="&#x12e;" horiz-adv-x="430" d="M450 -377v174q-28 0 -52 6t-46.5 19.5t-35 40t-12.5 64.5h-176q0 -58 17 -109.5t52.5 -96.5t100.5 -71.5t152 -26.5zM80 0h270v1340h-270v-1340z" />
<glyph unicode="&#x12f;" horiz-adv-x="468" d="M471 -379v174q-28 0 -52 6t-46.5 19.5t-35 40t-12.5 64.5h-176q0 -58 17 -109.5t52.5 -96.5t100.5 -71.5t152 -26.5zM96 1246q0 -56 41 -97t98 -41q56 0 97 41t41 97t-41 97t-97 41q-57 0 -98 -41t-41 -97zM109 0h257v1034h-257v-1034z" />
<glyph unicode="&#x130;" horiz-adv-x="430" d="M73 1610q0 -60 41.5 -102t101.5 -42t102 42t42 102t-42 102.5t-102 42.5t-101.5 -42.5t-41.5 -102.5zM80 0h270v1340h-270v-1340z" />
<glyph unicode="&#x131;" horiz-adv-x="333" d="M50 0h233v988h-233v-988z" />
<glyph unicode="&#x136;" horiz-adv-x="934" d="M337 -408h243l71 291h-243zM80 0h270v1340h-270v-1340zM427 653l214 -653h264l-210 653l203 687h-266z" />
<glyph unicode="&#x137;" horiz-adv-x="957" d="M343 -408h243l71 291h-244zM80 0h265v1370h-265v-1370zM400 549l241 -549h278l-245 549l241 542h-280z" />
<glyph unicode="&#x139;" horiz-adv-x="828" d="M126 1466h175l139 291h-243zM80 0h720v268h-450v1072h-270v-1340z" />
<glyph unicode="&#x13a;" horiz-adv-x="436" d="M128 1569h174l140 291h-243zM80 0h276v1370h-276v-1370z" />
<glyph unicode="&#x13b;" horiz-adv-x="828" d="M283 -408h243l71 291h-243zM80 0h720v268h-450v1072h-270v-1340z" />
<glyph unicode="&#x13c;" horiz-adv-x="436" d="M59 -425h243l71 291h-243zM109 0h276v1370h-276v-1370z" />
<glyph unicode="&#x13d;" horiz-adv-x="828" d="M524 1058h244l70 291h-243zM80 0h720v268h-450v1072h-270v-1340z" />
<glyph unicode="&#x13e;" horiz-adv-x="779" d="M406 1162h243l71 291h-243zM59 0h276v1370h-276v-1370z" />
<glyph unicode="&#x141;" horiz-adv-x="1014" d="M50 578l138 -178l59 46v-446h720v266h-450v391l287 223l-138 178l-149 -116v398h-270v-609z" />
<glyph unicode="&#x142;" horiz-adv-x="811" d="M304 -17v488l-90 -71l-137 178l227 178v597h276v-383l71 56l138 -178l-209 -163v-702h-276z" />
<glyph unicode="&#x143;" horiz-adv-x="1012" d="M419 1466h174l140 291h-243zM80 0h270v532l-254 410h-16v-942zM80 1164l724 -1164h128v322l-631 1018h-221v-176zM662 953l255 -409h15v796h-270v-387z" />
<glyph unicode="&#x144;" horiz-adv-x="932" d="M379 1210h174l140 291h-243zM73 0h260v764q0 30 20.5 52t67.5 22v255q-82 0 -151.5 -31.5t-110.5 -78.5t-63.5 -97t-22.5 -92v-794zM509 838q46 0 68 -21.5t22 -52.5v-764h260v794q0 40 -23 89.5t-64.5 97.5t-111 80t-151.5 32v-255z" />
<glyph unicode="&#x145;" horiz-adv-x="1012" d="M350 -408h243l71 291h-243zM80 0h270v532l-254 410h-16v-942zM80 1164l724 -1164h128v322l-631 1018h-221v-176zM662 953l255 -409h15v796h-270v-387z" />
<glyph unicode="&#x146;" horiz-adv-x="932" d="M308 -408h243l71 291h-243zM73 0h260v764q0 30 20.5 52t67.5 22v255q-82 0 -151.5 -31.5t-110.5 -78.5t-63.5 -97t-22.5 -92v-794zM509 838q46 0 68 -21.5t22 -52.5v-764h260v794q0 40 -23 89.5t-64.5 97.5t-111 80t-151.5 32v-255z" />
<glyph unicode="&#x147;" horiz-adv-x="1012" d="M299 1757l143 -291h126l148 291h-157l-54 -109l-51 109h-155zM80 0h270v532l-254 410h-16v-942zM80 1164l724 -1164h128v322l-631 1018h-221v-176zM662 953l255 -409h15v796h-270v-387z" />
<glyph unicode="&#x148;" horiz-adv-x="932" d="M256 1501l144 -291h126l148 291h-157l-54 -110l-51 110h-156zM73 0h260v764q0 30 20.5 52t67.5 22v255q-82 0 -151.5 -31.5t-110.5 -78.5t-63.5 -97t-22.5 -92v-794zM509 838q46 0 68 -21.5t22 -52.5v-764h260v794q0 40 -23 89.5t-64.5 97.5t-111 80t-151.5 32v-255z" />
<glyph unicode="&#x14c;" horiz-adv-x="1002" d="M199 1466h605v157h-605v-157zM73 373q0 -79 28 -145.5t70.5 -109t94.5 -72.5t98.5 -43t83.5 -13v272q-6 0 -21 5.5t-35 16.5t-34.5 35t-14.5 54v599q0 6 5 21t15.5 35.5t33.5 35.5t53 16v269q-72 0 -136 -25t-106.5 -63.5t-74 -86t-46 -91.5t-14.5 -80v-630zM553 -10 q37 0 83.5 13t99 43t95 72.5t71 109t28.5 145.5v630q0 35 -14.5 79t-46 91.5t-74.5 86.5t-106.5 64t-135.5 25v-269q30 -1 53 -16t33.5 -35.5t15.5 -35.5t5 -21v-599q-1 -30 -16 -54t-35 -35t-35 -16.5t-21 -5.5v-272z" />
<glyph unicode="&#x14d;" horiz-adv-x="911" d="M159 1204h605v157h-605v-157zM73 297q0 -31 13 -69.5t41 -79t67 -74t97.5 -55t125.5 -21.5v249q-92 0 -92 76v446q0 28 21 50.5t71 22.5v249q-83 0 -151.5 -31t-109 -78t-62 -96t-21.5 -90v-499zM505 -2q80 0 146.5 32t105.5 79.5t60 97t21 90.5v499q0 32 -13 70t-41 78 t-66 72.5t-94.5 53.5t-120.5 21v-249q50 0 69 -19t19 -54l2 -449q0 -28 -20 -50.5t-68 -22.5v-249z" />
<glyph unicode="&#x150;" horiz-adv-x="1002" d="M590 1466h174l139 291h-243zM283 1466h174l140 291h-243zM73 373q0 -79 28 -145.5t70.5 -109t94.5 -72.5t98.5 -43t83.5 -13v272q-6 0 -21 5.5t-35 16.5t-34.5 35t-14.5 54v599q0 6 5 21t15.5 35.5t33.5 35.5t53 16v269q-72 0 -136 -25t-106.5 -63.5t-74 -86t-46 -91.5 t-14.5 -80v-630zM553 -10q37 0 83.5 13t99 43t95 72.5t71 109t28.5 145.5v630q0 35 -14.5 79t-46 91.5t-74.5 86.5t-106.5 64t-135.5 25v-269q30 -1 53 -16t33.5 -35.5t15.5 -35.5t5 -21v-599q-1 -30 -16 -54t-35 -35t-35 -16.5t-21 -5.5v-272z" />
<glyph unicode="&#x151;" horiz-adv-x="911" d="M549 1204h174l140 291h-243zM243 1204h174l140 291h-243zM73 297q0 -31 13 -69.5t41 -79t67 -74t97.5 -55t125.5 -21.5v249q-92 0 -92 76v446q0 28 21 50.5t71 22.5v249q-83 0 -151.5 -31t-109 -78t-62 -96t-21.5 -90v-499zM505 -2q80 0 146.5 32t105.5 79.5t60 97 t21 90.5v499q0 32 -13 70t-41 78t-66 72.5t-94.5 53.5t-120.5 21v-249q50 0 69 -19t19 -54l2 -449q0 -28 -20 -50.5t-68 -22.5v-249z" />
<glyph unicode="&#x152;" horiz-adv-x="1385" d="M50 383q0 -79 28 -145.5t70.5 -109t94.5 -72.5t98.5 -43t83.5 -13v272q-6 0 -21 5.5t-35 16.5t-34.5 35t-14.5 54v580q0 6 5 21t15.5 35t33.5 35t53 16v270q-72 0 -136 -25t-106.5 -64t-74 -86t-46 -91.5t-14.5 -80.5v-610zM530 0h806v270h-427v260h247v270h-247v272h427 v268h-806v-270h109v-798h-109v-272z" />
<glyph unicode="&#x153;" horiz-adv-x="1284" d="M639 65q103 -65 236 -65q136 0 232 59t124 171l-190 71q-12 -55 -52.5 -74.5t-121.5 -19.5q-54 0 -90 25.5t-36 71.5v94h488v325q0 104 -98.5 184.5t-209.5 80.5v-220q35 0 62.5 -21.5t27.5 -59.5v-67h-270v75q0 28 24 50.5t62 22.5v220q-108 0 -192 -64q-39 32 -82.5 48 t-110.5 16v-226q45 0 64.5 -16.5t19.5 -52.5v-406q0 -71 -84 -71v-218q69 0 112.5 16t84.5 51zM50 270q0 -27 11.5 -60.5t37 -71t60.5 -68.5t89 -51.5t116 -20.5v218q-85 0 -85 75v404q0 67 85 67v226q-76 0 -139.5 -29.5t-99.5 -73t-55.5 -87t-19.5 -78.5v-450z" />
<glyph unicode="&#x154;" horiz-adv-x="966" d="M354 1466h174l140 291h-243zM80 0h270v1340h-270v-1340zM454 547h21q87 -1 124.5 -48t47.5 -158l29 -341h248l-32 415q-7 78 -39 151t-87 108q130 105 130 302q0 155 -104 258t-296 106h-42v-255h25q72 0 118 -39.5t46 -107.5q0 -63 -41.5 -107t-122.5 -44h-25v-240z" />
<glyph unicode="&#x155;" horiz-adv-x="690" d="M339 1204h174l140 291h-243zM80 0h261v584q0 62 38 122t101.5 98.5t131.5 39.5l60 257h-69q-80 0 -151.5 -40.5t-110.5 -90.5v121h-261v-1091z" />
<glyph unicode="&#x156;" horiz-adv-x="966" d="M343 -408h243l71 291h-244zM80 0h270v1340h-270v-1340zM454 547h21q87 -1 124.5 -48t47.5 -158l29 -341h248l-32 415q-7 78 -39 151t-87 108q130 105 130 302q0 155 -104 258t-296 106h-42v-255h25q72 0 118 -39.5t46 -107.5q0 -63 -41.5 -107t-122.5 -44h-25v-240z" />
<glyph unicode="&#x157;" horiz-adv-x="690" d="M19 -408h243l71 291h-243zM80 0h261v584q0 62 38 122t101.5 98.5t131.5 39.5l60 257h-69q-80 0 -151.5 -40.5t-110.5 -90.5v121h-261v-1091z" />
<glyph unicode="&#x158;" horiz-adv-x="966" d="M201 1757l144 -291h126l147 291h-157l-53 -109l-52 109h-155zM80 0h270v1340h-270v-1340zM454 547h21q87 -1 124.5 -48t47.5 -158l29 -341h248l-32 415q-7 78 -39 151t-87 108q130 105 130 302q0 155 -104 258t-296 106h-42v-255h25q72 0 118 -39.5t46 -107.5 q0 -63 -41.5 -107t-122.5 -44h-25v-240z" />
<glyph unicode="&#x159;" horiz-adv-x="690" d="M167 1495l143 -291h126l148 291h-157l-54 -109l-51 109h-155zM80 0h261v584q0 62 38 122t101.5 98.5t131.5 39.5l60 257h-69q-80 0 -151.5 -40.5t-110.5 -90.5v121h-261v-1091z" />
<glyph unicode="&#x15a;" horiz-adv-x="920" d="M354 1466h174l140 291h-243zM38 302q0 -32 16 -72.5t47.5 -81.5t73 -75.5t98 -56.5t116.5 -22v249q-4 2 -11.5 5t-26 15.5t-33 28t-26 41.5t-11.5 56zM54 972q0 -73 17 -130t50.5 -98.5t73 -70.5t94.5 -55q26 -13 76.5 -31t88 -33t76.5 -37.5t60.5 -54.5t21.5 -73 q0 -68 -37 -104t-81 -42v-249q155 0 271.5 122t116.5 284q0 56 -15 105t-37 83.5t-57 67.5t-64.5 53t-71.5 45q-37 22 -103 49.5t-110 46t-79 53t-35 79.5q0 34 24 65.5t55 39.5v253q-32 -1 -72.5 -13t-87.5 -41t-85.5 -69.5t-64 -104.5t-25.5 -140zM494 1087l9 -3t21 -10.5 t26 -19.5t20.5 -32t9.5 -46l249 82q0 37 -24.5 84t-66 92t-107 75.5t-137.5 30.5v-253z" />
<glyph unicode="&#x15b;" horiz-adv-x="868" d="M335 1206h174l140 291h-243zM38 287q0 -54 20 -105t60 -95t108.5 -70.5t156.5 -26.5v242q-41 2 -74 30t-33 69zM50 792q0 -122 46 -191t132 -113q39 -17 139 -42.5t158.5 -53t58.5 -70.5q0 -32 -22 -53.5t-46.5 -29t-46.5 -7.5v-242q155 0 258.5 93.5t103.5 253.5 q0 122 -63.5 196t-153.5 91q-106 23 -176 47t-101 46.5t-41.5 39t-10.5 35.5q0 71 94 71v238q-37 0 -80 -11t-87.5 -35.5t-80 -59t-58.5 -88t-23 -115.5zM465 863q11 0 26 -3.5t36 -12.5t35 -31.5t14 -55.5l236 40q0 53 -25.5 107t-69.5 97t-110 70t-140 27z" />
<glyph unicode="&#x15e;" horiz-adv-x="920" d="M216 -381q87 0 152 26.5t100.5 71.5t52.5 96.5t17 109.5h-176q0 -38 -12.5 -64.5t-35 -40t-46.5 -19.5t-52 -6v-174zM38 302q0 -32 16 -72.5t47.5 -81.5t73 -75.5t98 -56.5t116.5 -22v249q-4 2 -11.5 5t-26 15.5t-33 28t-26 41.5t-11.5 56zM54 972q0 -73 17 -130 t50.5 -98.5t73 -70.5t94.5 -55q26 -13 76.5 -31t88 -33t76.5 -37.5t60.5 -54.5t21.5 -73q0 -68 -37 -104t-81 -42v-249q155 0 271.5 122t116.5 284q0 56 -15 105t-37 83.5t-57 67.5t-64.5 53t-71.5 45q-37 22 -103 49.5t-110 46t-79 53t-35 79.5q0 34 24 65.5t55 39.5v253 q-32 -1 -72.5 -13t-87.5 -41t-85.5 -69.5t-64 -104.5t-25.5 -140zM494 1087l9 -3t21 -10.5t26 -19.5t20.5 -32t9.5 -46l249 82q0 37 -24.5 84t-66 92t-107 75.5t-137.5 30.5v-253z" />
<glyph unicode="&#x15f;" horiz-adv-x="868" d="M195 -381q87 0 152 26.5t100.5 71.5t52.5 96.5t17 109.5h-176q0 -38 -12.5 -64.5t-35 -40t-46.5 -19.5t-52 -6v-174zM38 287q0 -54 20 -105t60 -95t108.5 -70.5t156.5 -26.5v242q-41 2 -74 30t-33 69zM50 792q0 -122 46 -191t132 -113q39 -17 139 -42.5t158.5 -53 t58.5 -70.5q0 -32 -22 -53.5t-46.5 -29t-46.5 -7.5v-242q155 0 258.5 93.5t103.5 253.5q0 122 -63.5 196t-153.5 91q-106 23 -176 47t-101 46.5t-41.5 39t-10.5 35.5q0 71 94 71v238q-37 0 -80 -11t-87.5 -35.5t-80 -59t-58.5 -88t-23 -115.5zM465 863q11 0 26 -3.5 t36 -12.5t35 -31.5t14 -55.5l236 40q0 53 -25.5 107t-69.5 97t-110 70t-140 27z" />
<glyph unicode="&#x160;" horiz-adv-x="920" d="M216 1757l144 -291h126l148 291h-157l-54 -109l-52 109h-155zM25 302q0 -41 26 -93t70 -100.5t112 -81.5t142 -33v249q-4 2 -11.5 5t-26 15.5t-32.5 28t-25.5 41.5t-11.5 56zM40 972q0 -73 17 -130t50.5 -98.5t73.5 -70.5t95 -55q26 -13 76.5 -31t88 -33t76.5 -37.5 t60.5 -54.5t21.5 -73q0 -68 -37.5 -104t-81.5 -42v-249q155 0 272 122t117 284q0 56 -15 105t-37 83.5t-57 67.5t-64.5 53t-71.5 45q-37 22 -103 49.5t-110 46t-79 53t-35 79.5q0 34 23.5 65.5t54.5 39.5v253q-32 -1 -72.5 -13t-87.5 -41t-85.5 -69.5t-64 -104.5t-25.5 -140 zM480 1087q4 -1 9.5 -3t20.5 -10.5t26.5 -19.5t21 -32t9.5 -46l248 82q0 37 -24.5 84t-66 92t-107 75.5t-137.5 30.5v-253z" />
<glyph unicode="&#x161;" horiz-adv-x="868" d="M214 1497l144 -291h126l148 291h-157l-54 -109l-52 109h-155zM38 287q0 -54 20 -105t60 -95t108.5 -70.5t156.5 -26.5v242q-41 2 -74 30t-33 69zM50 792q0 -122 46 -191t132 -113q39 -17 139 -42.5t158.5 -53t58.5 -70.5q0 -32 -22 -53.5t-46.5 -29t-46.5 -7.5v-242 q155 0 258.5 93.5t103.5 253.5q0 122 -63.5 196t-153.5 91q-106 23 -176 47t-101 46.5t-41.5 39t-10.5 35.5q0 71 94 71v238q-37 0 -80 -11t-87.5 -35.5t-80 -59t-58.5 -88t-23 -115.5zM465 863q11 0 26 -3.5t36 -12.5t35 -31.5t14 -55.5l236 40q0 53 -25.5 107t-69.5 97 t-110 70t-140 27z" />
<glyph unicode="&#x162;" horiz-adv-x="886" d="M211 -381q87 0 152 26.5t100.5 71.5t52 96.5t16.5 109.5h-176q0 -72 -41.5 -101t-103.5 -29v-174zM29 1076h279v-1076h270v1076h279v264h-828v-264z" />
<glyph unicode="&#x163;" horiz-adv-x="620" d="M281 -381q87 0 152 26.5t100.5 71.5t52.5 96.5t17 109.5h-176q0 -38 -12.5 -64.5t-35 -40t-46.5 -19.5t-52 -6v-174zM27 844h134v-490q0 -85 15 -146.5t50.5 -110t100.5 -73t159 -24.5h115l-57 264h-56q-40 0 -55.5 21.5t-15.5 49.5v507h127v249h-127v279h-256v-279h-134 v-247z" />
<glyph unicode="&#x164;" horiz-adv-x="886" d="M235 1757l144 -291h126l148 291h-157l-54 -109l-52 109h-155zM29 1076h279v-1076h270v1076h279v264h-828v-264z" />
<glyph unicode="&#x165;" horiz-adv-x="1037" d="M494 1166h243l71 291h-243zM27 844h134v-490q0 -85 15 -146.5t50.5 -110t100.5 -73t159 -24.5h115l-57 264h-56q-40 0 -55.5 21.5t-15.5 49.5v507h127v249h-127v279h-256v-279h-134v-247z" />
<glyph unicode="&#x16a;" horiz-adv-x="979" d="M188 1466h604v157h-604v-157zM61 369q0 -79 28.5 -145t71 -108t95 -71.5t99 -42t83.5 -12.5v272q-6 0 -21 5t-35 15.5t-35 33.5t-16 53v971h-270v-971zM542 -10q38 0 84 12t98 41.5t94.5 71.5t70.5 108.5t28 145.5v971h-268v-971q-1 -30 -16 -53t-35 -33.5t-35 -15.5 t-21 -5v-272z" />
<glyph unicode="&#x16b;" horiz-adv-x="932" d="M163 1204h605v157h-605v-157zM73 289q0 -42 22.5 -92t63.5 -97t110.5 -78.5t151.5 -31.5v255q-47 0 -67.5 21.5t-20.5 53.5v771h-260v-802zM509 -10q82 0 151.5 32t111 80t64.5 97.5t23 89.5v802h-260v-771q0 -30 -21.5 -52.5t-68.5 -22.5v-255z" />
<glyph unicode="&#x16e;" horiz-adv-x="979" d="M306 1650q0 -76 54 -130t130 -54t130 54t54 130t-54 130t-130 54t-130 -54t-54 -130zM429 1650q0 26 17.5 43.5t43.5 17.5t43.5 -17.5t17.5 -43.5t-17.5 -43.5t-43.5 -17.5t-43.5 17.5t-17.5 43.5zM61 369q0 -79 28.5 -145t71 -108t95 -71.5t99 -42t83.5 -12.5v272 q-6 0 -21 5t-35 15.5t-35 33.5t-16 53v971h-270v-971zM542 -10q38 0 84 12t98 41.5t94.5 71.5t70.5 108.5t28 145.5v971h-268v-971q-1 -30 -16 -53t-35 -33.5t-35 -15.5t-21 -5v-272z" />
<glyph unicode="&#x16f;" horiz-adv-x="932" d="M281 1388q0 -76 54 -130t130 -54t130 54t54 130t-54 129.5t-130 53.5t-130 -53.5t-54 -129.5zM404 1388q0 26 18 43.5t43 17.5t43 -17.5t18 -43.5t-18 -44t-43 -18t-43 18t-18 44zM73 289q0 -42 22.5 -92t63.5 -97t110.5 -78.5t151.5 -31.5v255q-47 0 -67.5 21.5 t-20.5 53.5v771h-260v-802zM509 -10q82 0 151.5 32t111 80t64.5 97.5t23 89.5v802h-260v-771q0 -30 -21.5 -52.5t-68.5 -22.5v-255z" />
<glyph unicode="&#x170;" horiz-adv-x="979" d="M578 1466h174l140 291h-243zM272 1466h174l140 291h-243zM61 369q0 -79 28.5 -145t71 -108t95 -71.5t99 -42t83.5 -12.5v272q-6 0 -21 5t-35 15.5t-35 33.5t-16 53v971h-270v-971zM542 -10q38 0 84 12t98 41.5t94.5 71.5t70.5 108.5t28 145.5v971h-268v-971 q-1 -30 -16 -53t-35 -33.5t-35 -15.5t-21 -5v-272z" />
<glyph unicode="&#x171;" horiz-adv-x="932" d="M553 1204h174l140 291h-243zM247 1204h174l140 291h-243zM73 289q0 -42 22.5 -92t63.5 -97t110.5 -78.5t151.5 -31.5v255q-47 0 -67.5 21.5t-20.5 53.5v771h-260v-802zM509 -10q82 0 151.5 32t111 80t64.5 97.5t23 89.5v802h-260v-771q0 -30 -21.5 -52.5t-68.5 -22.5 v-255z" />
<glyph unicode="&#x172;" horiz-adv-x="979" d="M723 -381v174q-62 0 -103.5 29t-41.5 101h-176q0 -58 16.5 -109.5t52 -96.5t100.5 -71.5t152 -26.5zM61 369q0 -79 28.5 -145t71 -108t95 -71.5t99 -42t83.5 -12.5v272q-6 0 -21 5t-35 15.5t-35 33.5t-16 53v971h-270v-971zM542 -10q38 0 84 12t98 41.5t94.5 71.5 t70.5 108.5t28 145.5v971h-268v-971q-1 -30 -16 -53t-35 -33.5t-35 -15.5t-21 -5v-272z" />
<glyph unicode="&#x173;" horiz-adv-x="932" d="M702 -381v174q-62 0 -103.5 29t-41.5 101h-176q0 -58 16.5 -109.5t52 -96.5t100.5 -71.5t152 -26.5zM73 289q0 -42 22.5 -92t63.5 -97t110.5 -78.5t151.5 -31.5v255q-47 0 -67.5 21.5t-20.5 53.5v771h-260v-802zM509 -10q82 0 151.5 32t111 80t64.5 97.5t23 89.5v802 h-260v-771q0 -30 -21.5 -52.5t-68.5 -22.5v-255z" />
<glyph unicode="&#x178;" horiz-adv-x="863" d="M126 1610q0 -60 42 -102t102 -42t101.5 42t41.5 102t-41.5 102.5t-101.5 42.5t-102 -42.5t-42 -102.5zM452 1610q0 -60 41.5 -102t101.5 -42t102 42t42 102t-42 102.5t-102 42.5t-101.5 -42.5t-41.5 -102.5zM23 1340l251 -858v-482h279v484l-249 856h-281zM488 1081 l126 -447h18l208 706h-277z" />
<glyph unicode="&#x179;" horiz-adv-x="815" d="M322 1466h174l139 291h-243zM57 0h701v276h-402l402 802v262h-701v-268h402l-402 -802v-270z" />
<glyph unicode="&#x17a;" horiz-adv-x="738" d="M283 1204h174l140 291h-243zM57 0h624v251h-321l321 591v249h-624v-249h332l-332 -591v-251z" />
<glyph unicode="&#x17b;" horiz-adv-x="815" d="M264 1610q0 -60 42 -102t102 -42t101.5 42t41.5 102t-41.5 102.5t-101.5 42.5t-102 -42.5t-42 -102.5zM57 0h701v276h-402l402 802v262h-701v-268h402l-402 -802v-270z" />
<glyph unicode="&#x17c;" horiz-adv-x="738" d="M226 1347q0 -60 41.5 -101.5t101.5 -41.5t102 41.5t42 101.5t-42 103t-102 43t-101.5 -43t-41.5 -103zM57 0h624v251h-321l321 591v249h-624v-249h332l-332 -591v-251z" />
<glyph unicode="&#x17d;" horiz-adv-x="815" d="M199 1757l144 -291h126l147 291h-157l-53 -109l-52 109h-155zM57 0h701v276h-402l402 802v262h-701v-268h402l-402 -802v-270z" />
<glyph unicode="&#x17e;" horiz-adv-x="738" d="M161 1495l143 -291h127l147 291h-157l-54 -109l-51 109h-155zM57 0h624v251h-321l321 591v249h-624v-249h332l-332 -591v-251z" />
<glyph unicode="&#x192;" horiz-adv-x="731" d="M50 -322h159q62 0 112.5 16t83.5 42.5t55.5 61.5t32.5 71.5t10 73.5v823h127v222l-127 -2v71q0 6 4 16t20 22t40 13h63l51 224h-116q-69 -1 -128 -31.5t-94 -75t-54 -89t-19 -79.5v-69h-121v-222h121v-835q0 -6 -4 -16t-19.5 -22.5t-39.5 -13.5h-106z" />
<glyph unicode="&#x218;" horiz-adv-x="920" d="M285 -413h243l71 291h-243zM38 302q0 -32 16 -72.5t47.5 -81.5t73 -75.5t98 -56.5t116.5 -22v249q-4 2 -11.5 5t-26 15.5t-33 28t-26 41.5t-11.5 56zM54 972q0 -73 17 -130t50.5 -98.5t73 -70.5t94.5 -55q26 -13 76.5 -31t88 -33t76.5 -37.5t60.5 -54.5t21.5 -73 q0 -68 -37 -104t-81 -42v-249q155 0 271.5 122t116.5 284q0 56 -15 105t-37 83.5t-57 67.5t-64.5 53t-71.5 45q-37 22 -103 49.5t-110 46t-79 53t-35 79.5q0 34 24 65.5t55 39.5v253q-32 -1 -72.5 -13t-87.5 -41t-85.5 -69.5t-64 -104.5t-25.5 -140zM494 1087l9 -3t21 -10.5 t26 -19.5t20.5 -32t9.5 -46l249 82q0 37 -24.5 84t-66 92t-107 75.5t-137.5 30.5v-253z" />
<glyph unicode="&#x219;" horiz-adv-x="868" d="M270 -417h243l71 291h-243zM38 287q0 -54 20 -105t60 -95t108.5 -70.5t156.5 -26.5v242q-41 2 -74 30t-33 69zM50 792q0 -122 46 -191t132 -113q39 -17 139 -42.5t158.5 -53t58.5 -70.5q0 -32 -22 -53.5t-46.5 -29t-46.5 -7.5v-242q155 0 258.5 93.5t103.5 253.5 q0 122 -63.5 196t-153.5 91q-106 23 -176 47t-101 46.5t-41.5 39t-10.5 35.5q0 71 94 71v238q-37 0 -80 -11t-87.5 -35.5t-80 -59t-58.5 -88t-23 -115.5zM465 863q11 0 26 -3.5t36 -12.5t35 -31.5t14 -55.5l236 40q0 53 -25.5 107t-69.5 97t-110 70t-140 27z" />
<glyph unicode="&#x21a;" horiz-adv-x="886" d="M256 -408h244l70 291h-243zM29 1076h279v-1076h270v1076h279v264h-828v-264z" />
<glyph unicode="&#x21b;" horiz-adv-x="620" d="M366 -408h243l70 291h-243zM27 844h134v-490q0 -85 15 -146.5t50.5 -110t100.5 -73t159 -24.5h115l-57 264h-56q-40 0 -55.5 21.5t-15.5 49.5v507h127v249h-127v279h-256v-279h-134v-247z" />
<glyph unicode="&#x2c6;" horiz-adv-x="516" d="M50 984h155l51 109l54 -109h157l-147 291h-127z" />
<glyph unicode="&#x2c7;" horiz-adv-x="516" d="M50 1275l143 -291h127l147 291h-157l-54 -109l-51 109h-155z" />
<glyph unicode="&#x2c9;" horiz-adv-x="796" d="M96 984h605v157h-605v-157z" />
<glyph unicode="&#x2d8;" horiz-adv-x="467" d="M50 1007q0 -76 54 -130t130 -54t129.5 54t53.5 130h-122q0 -25 -17.5 -43t-43.5 -18t-44 18t-18 43h-122z" />
<glyph unicode="&#x2d9;" horiz-adv-x="386" d="M50 1298q0 -60 41.5 -102t101.5 -42t102 42t42 102t-42 102.5t-102 42.5t-101.5 -42.5t-41.5 -102.5z" />
<glyph unicode="&#x2da;" horiz-adv-x="467" d="M50 1007q0 -76 54 -130t130 -54t129.5 54t53.5 130t-53.5 130t-129.5 54t-130 -54t-54 -130zM172 1007q0 25 18 43t44 18t43.5 -18t17.5 -43t-17.5 -43t-43.5 -18t-44 18t-18 43z" />
<glyph unicode="&#x2db;" horiz-adv-x="419" d="M203 -381v174q-28 0 -52 6t-46.5 19.5t-35 40t-12.5 64.5h-176q0 -58 17 -109.5t52.5 -96.5t100.5 -71.5t152 -26.5z" />
<glyph unicode="&#x2dc;" horiz-adv-x="637" d="M50 199q68 42 126 42q45 0 122 -38t129 -38q75 0 161 53v194q-90 -54 -154 -54q-49 0 -125 39t-125 39q-61 0 -134 -42v-195z" />
<glyph unicode="&#x2dd;" horiz-adv-x="681" d="M354 1158h174l140 291h-243zM48 1158h174l140 291h-243z" />
<glyph unicode="&#x3c0;" horiz-adv-x="1020" d="M57 745h110v-745h233v745h226v-490q0 -115 85 -189t225 -74v215q-45 0 -63.5 19.5t-18.5 45.5v473h109v248h-906v-248z" />
<glyph unicode="&#xb82;" horiz-adv-x="436" d="M145 1629q0 33 24 56.5t57 23.5t56.5 -23.5t23.5 -56.5t-23.5 -57t-56.5 -24t-57 24t-24 57zM54 1629q0 -56 58 -114t114 -58t114 58t58 114t-58 114t-114 58t-114 -58t-58 -114z" />
<glyph unicode="&#xb83;" horiz-adv-x="1579" d="M318 456q-96 0 -164 -68t-68 -164t68 -164t164 -68t163.5 68t67.5 164t-67.5 164t-163.5 68zM781 1168q-96 0 -164 -68t-68 -164t68 -164t164 -68t163 68t67 164t-67 164t-163 68zM1248 463q-96 0 -164 -67.5t-68 -163.5t68 -164t164 -68t164 68t68 164t-68 163.5 t-164 67.5z" />
<glyph unicode="&#xb85;" horiz-adv-x="1982" d="M762 877q0 -39 38.5 -64.5t85.5 -25.5q72 0 117.5 39.5t45.5 126.5l161 -170q-8 -92 -102.5 -161t-221.5 -69q-69 0 -126 18t-93.5 46.5t-64.5 63t-42 69t-23 63t-11 46.5l-2 18h238zM524 986q0 143 142.5 243.5t346.5 100.5q259 0 402 -151.5t143 -426.5v-235h96v589 h233v-1311h-233v492h-94v-159q0 -154 -102 -262.5t-275 -108.5h-310v233h289q87 1 125 41t38 97v159h-456v230h456v241q0 162 -72.5 250.5t-239.5 88.5q-57 0 -103.5 -11.5t-72 -27.5t-42.5 -32.5t-23 -27.5l-6 -12h-242zM96 138q0 168 112 274.5t297 106.5h261v-234h-295 q-19 0 -42 -8t-46 -24t-38.5 -46.5t-15.5 -68.5q0 -71 52 -109.5t124 -38.5h263v-233h-284q-164 0 -276 106.5t-112 274.5z" />
<glyph unicode="&#xb86;" horiz-adv-x="2396" d="M1307 -260l620 2q44 0 70 6.5t38.5 25t15.5 39.5t3 61v166q0 65 -12.5 77.5t-73.5 12.5v234q58 0 101 -6.5t86 -27t70.5 -55t44.5 -94t17 -141.5v-166q0 -83 -18 -145.5t-62 -115t-127 -80t-204 -27.5h-569v234zM762 877q0 -39 38.5 -64.5t85.5 -25.5q72 0 117.5 39.5 t45.5 126.5l161 -170q-8 -92 -102.5 -161t-221.5 -69q-69 0 -126 18t-93.5 46.5t-64.5 63t-42 69t-23 63t-11 46.5l-2 18h238zM524 986q0 143 142.5 243.5t346.5 100.5q259 0 402 -151.5t143 -426.5v-235h96v589h233v-1311h-233v492h-94v-159q0 -154 -102 -262.5 t-275 -108.5h-310v233h289q87 1 125 41t38 97v159h-456v230h456v241q0 162 -72.5 250.5t-239.5 88.5q-57 0 -103.5 -11.5t-72 -27.5t-42.5 -32.5t-23 -27.5l-6 -12h-242zM96 138q0 168 112 274.5t297 106.5h261v-234h-295q-19 0 -42 -8t-46 -24t-38.5 -46.5t-15.5 -68.5 q0 -71 52 -109.5t124 -38.5h263v-233h-284q-164 0 -276 106.5t-112 274.5z" />
<glyph unicode="&#xb87;" horiz-adv-x="2287" d="M991 -339l-486 -2q-164 0 -276 106.5t-112 274.5q0 125 64 218.5t177 135.5q-21 162 -21 287q1 233 62 427.5t170.5 331t269 212t353.5 74.5v-235q-149 0 -265.5 -60.5t-189 -168t-110 -248t-37.5 -306.5q0 -151 30 -285h370v-234h-498q-19 0 -42 -8.5t-46 -25t-38.5 -47 t-15.5 -68.5q0 -71 52 -109t124 -38h58q-91 95 -142 224l249 4q32 -75 78.5 -129.5t130.5 -98.5h91v-232zM1099 -341v234h287q86 1 124 42t38 98v158h-453v228h687q195 0 294.5 -92t99.5 -258v-65q0 -64 -31.5 -127t-88 -112.5t-146 -75t-193.5 -12.5l109 229q68 18 95 47 t27 93q0 41 -15 71t-40 45t-52 22t-57 7v-158q0 -100 -42.5 -183.5t-129.5 -137t-203 -53.5h-310zM750 888q0 71 38.5 143.5t103 129.5t156 93t190.5 36q169 0 294 -82.5t188.5 -225.5t63.5 -327v-155h-234v160q0 80 -16.5 148.5t-51.5 125.5t-97.5 90t-146.5 33 q-57 0 -103.5 -17.5t-72 -42.5t-42.5 -49.5t-23 -41.5l-6 -18h-241zM750 779h238q0 -49 36 -69.5t88 -20.5q71 0 117 40t46 127l161 -171q-8 -92 -102.5 -160.5t-221.5 -68.5q-69 0 -126 18t-93.5 46.5t-64.5 63t-42 68.5t-23 62.5t-11 46.5zM1292 1489v237q166 0 292 -25.5 t226.5 -83t168 -147.5t112 -223.5t64 -305t19.5 -397.5l-241 3q0 186 -10 316.5t-37.5 241.5t-72.5 179.5t-117.5 117t-170.5 68t-233 19.5z" />
<glyph unicode="&#xb88;" horiz-adv-x="1203" d="M892 475q0 49 35 84.5t84 35.5t84.5 -35.5t35.5 -84.5t-35.5 -84t-84.5 -35t-84 35t-35 84zM341 477q0 49 34.5 84.5t83.5 35.5t85 -35.5t36 -84.5t-36 -84t-85 -35t-83.5 35t-34.5 84zM618 0v905h-99v234h605v-234h-272v-905h-234zM75 2v1137h340v-234h-107v-903h-233z " />
<glyph unicode="&#xb89;" horiz-adv-x="2026" d="M333 1022h-241q0 73 38.5 145t102.5 129t156 92.5t191 35.5q258 0 406.5 -158.5t148.5 -434.5h-224q0 8 -1 21t-8 51t-18.5 72.5t-36.5 76.5t-58.5 72t-87.5 51t-121 21q-72 0 -123.5 -17t-77 -45t-36 -55.5t-10.5 -56.5zM496 0v214h1481v-214h-1481zM109 214v100 q2 96 35.5 143.5t119.5 47.5h383q48 0 76 1t60 3.5t48 6t33.5 11t25 17.5t14.5 25.5t9 34.5t2 45v90h222v-100q0 -53 -8.5 -96t-36 -88t-73 -75.5t-125 -50t-186.5 -19.5q-346 -2 -365 -2v-94h49v-214h-170q-21 0 -38 3.5t-28.5 12.5t-20.5 17.5t-14 24t-8 26.5t-4 31.5 t-1 31.5t0.5 34t0.5 33zM329 913q0 -46 36.5 -68t88.5 -22q71 0 116.5 40t45.5 127l161 -171q-8 -92 -102 -160.5t-221 -68.5q-70 0 -126 10.5t-93.5 27t-65 42.5t-42.5 52t-23.5 61.5t-11 64t-2.5 65.5h239z" />
<glyph unicode="&#xb8a;" horiz-adv-x="2748" d="M1619 285v192q36 0 54.5 26.5t16.5 64.5q-2 34 -20.5 61t-48.5 28v193q116 0 188 -67.5t72 -145.5q0 -13 2 -137q2 -79 -76 -146.5t-188 -68.5zM1261 632v7v155q0 50 14.5 105.5t47 112.5t78 103t114 75t148.5 29h4l-2 -191h-6q-69 0 -123 -48.5t-66 -137.5q31 8 59 8 v-193q-32 -1 -52 -27t-20 -62q0 -40 18 -65.5t54 -25.5v-192q-117 0 -191.5 66.5t-74.5 144.5q0 26 -1 46t-1 90zM1755 1030v191h2q152 0 255 -96q65 96 185 96h37v-193q-94 0 -98 -192l8 -551h-199l-2 536v10v11q-1 72 -60 130t-124 58h-4zM2326 1028v193h346v-193h-115 v-743h-191v743h-40zM496 0v214h2147v-214h-2147zM333 1022h-241q0 73 38.5 145t102.5 129t156 92.5t191 35.5q258 0 406.5 -158.5t148.5 -434.5h-224q0 8 -1 21t-8 51t-18.5 72.5t-36.5 76.5t-58.5 72t-87.5 51t-121 21q-72 0 -123.5 -17t-77 -45t-36 -55.5t-10.5 -56.5z M109 214v100q2 96 35.5 143.5t119.5 47.5h383q48 0 76 1t60 3.5t48 6t33.5 11t25 17.5t14.5 25.5t9 34.5t2 45v90h222v-100q0 -53 -8.5 -96t-36 -88t-73 -75.5t-125 -50t-186.5 -19.5q-346 -2 -365 -2v-94h49v-214h-170q-21 0 -38 3.5t-28.5 12.5t-20.5 17.5t-14 24t-8 26.5 t-4 31.5t-1 31.5t0.5 34t0.5 33zM329 913q0 -46 36.5 -68t88.5 -22q71 0 116.5 40t45.5 127l161 -171q-8 -92 -102 -160.5t-221 -68.5q-70 0 -126 10.5t-93.5 27t-65 42.5t-42.5 52t-23.5 61.5t-11 64t-2.5 65.5h239z" />
<glyph unicode="&#xb8e;" horiz-adv-x="1456" d="M111 343v80v15v-2v102q0 49 7.5 102.5t25 113t44 114t67.5 104.5t92 86.5t120.5 58.5t150.5 22v-236q-105 0 -167 -61t-82 -161q36 8 69 8v-233q-42 0 -66 -28.5t-24 -79.5q0 -53 23.5 -83t66.5 -30v-233q-148 0 -237.5 92t-89.5 249zM544 2v233q48 0 74.5 30.5 t24.5 82.5q-2 53 -23.5 80.5t-75.5 27.5v233q164 0 248.5 -69t84.5 -199v-138q0 -96 -99.5 -188.5t-233.5 -92.5zM963 0v903h-240v236h686v-236h-213v-903h-233z" />
<glyph unicode="&#xb8f;" horiz-adv-x="1456" d="M639 -337l324 398v842h-240v236h686v-236h-207l-4 -901l-283 -339h-276zM111 343v80v15v-2v102q0 49 7.5 102.5t25 113t44 114t67.5 104.5t92 86.5t120.5 58.5t150.5 22v-236q-105 0 -167 -61t-82 -161q36 8 69 8v-233q-42 0 -66 -28.5t-24 -79.5q0 -53 23.5 -83 t66.5 -30v-233q-148 0 -237.5 92t-89.5 249zM544 2v233q48 0 74.5 30.5t24.5 82.5q-2 53 -23.5 80.5t-75.5 27.5v233q164 0 248.5 -69t84.5 -199v-138q0 -96 -99.5 -188.5t-233.5 -92.5z" />
<glyph unicode="&#xb90;" horiz-adv-x="1843" d="M545 -345q-116 0 -217.5 44.5t-163 124.5t-61.5 176v159q0 49 12.5 99t42.5 100.5t74 89.5t113.5 63.5t154.5 24.5h47v-235h-61q-40 0 -70.5 -20t-47 -53t-24 -68.5t-7.5 -71.5q0 -199 208 -199v-234zM649 -345v234q130 0 180.5 22.5t50.5 80.5v234h234v-234 q0 -58 38.5 -79.5t116.5 -21.5v-236q-231 0 -262 96q-11 -23 -30.5 -40.5t-51 -27.5t-58.5 -16t-72 -8.5t-71 -3t-75 -0.5zM80 1018q0 103 65.5 182.5t176 121t246.5 41.5q275 0 420 -171q56 61 130 96.5t151 43.5v-235q-64 -12 -109.5 -66.5t-45.5 -142.5v-264h-234v166 q0 79 -17.5 143t-54 114.5t-99.5 78.5t-148 28q-73 0 -122 -10.5t-73.5 -30.5t-34 -42.5t-9.5 -52.5h-242zM1369 302v234q60 0 97.5 60.5t37.5 148.5v137q0 94 -33 150.5t-99 66.5v233q156 -12 262 -129.5t106 -320.5v-141q-1 -85 -18 -154.5t-46 -116t-65 -80.5t-79 -52.5 t-82.5 -27t-80.5 -8.5zM442 586q-69 0 -126 18t-93.5 46.5t-64.5 63t-42 68.5t-23 62.5t-11 46.5l-2 18h238q4 -42 40.5 -66t83.5 -24q71 0 117 40t46 127l161 -171q-8 -92 -102.5 -160.5t-221.5 -68.5zM1372 -345v236q59 0 93 26t34 77v232h233v-232q0 -62 -24 -121.5 t-68 -108.5t-114 -79t-154 -30zM641 301v235h615v-234z" />
<glyph unicode="&#xb92;" horiz-adv-x="1713" d="M917 1097v233q122 0 229.5 -29t184.5 -77.5t138 -108.5t97.5 -124.5t55 -122.5t18.5 -106v-446q0 -62 -29.5 -112.5t-78.5 -81t-111.5 -49.5t-128.5 -18t-130 14q34 -86 277 -86v-236q-231 0 -373 84.5t-142 216.5v622h236v-295q0 -32 25 -54.5t60.5 -27.5t71 0t60.5 27 t26 55v387q0 45 -33.5 101t-92 109t-154.5 89t-206 36zM75 339v140v11v103q0 62 10 127t35 138t62 139.5t96.5 128t134 106t178 71.5t224.5 27v-233q-114 0 -202.5 -30.5t-142.5 -83t-84.5 -113.5t-39.5 -131q32 6 56 6v-236q-42 0 -66 -28t-24 -79q0 -53 23.5 -82t66.5 -29 v-235q-69 0 -132.5 30t-104.5 74t-65.5 92t-24.5 87zM507 56v235q49 0 75.5 29.5t24.5 81.5q-2 53 -24 80t-76 27v236q68 0 131.5 -25.5t106.5 -65.5t69 -87.5t26 -91.5v-136q0 -45 -26 -94.5t-69 -91.5t-106.5 -69.5t-131.5 -27.5zM362 -237l228 57q26 -53 85 -75t119.5 -2 t89.5 77l201 -117q-31 -66 -90 -112.5t-130 -67t-149.5 -16.5t-147.5 31.5t-125 86t-81 138.5z" />
<glyph unicode="&#xb93;" horiz-adv-x="1713" d="M917 1097v233q122 0 229.5 -29t184.5 -77.5t138 -108.5t97.5 -124.5t55 -122.5t18.5 -106v-446q0 -62 -29.5 -112.5t-78.5 -81t-111.5 -49.5t-128.5 -18t-130 14q34 -86 277 -86v-236q-231 0 -373 84.5t-142 216.5v622h236v-295q0 -32 25 -54.5t60.5 -27.5t71 0t60.5 27 t26 55v387q0 45 -33.5 101t-92 109t-154.5 89t-206 36zM413 -270q0 59 16.5 110.5t52.5 97t102 72t155 26.5v-235q-39 0 -64.5 -18t-25.5 -53q0 -20 13.5 -37t36.5 -25t50 -7t57.5 20.5t56.5 54.5q16 22 44 76l215 -124q-20 -36 -52.5 -77t-82 -85.5t-117.5 -73.5t-139 -28 q-143 1 -230.5 90t-87.5 216zM75 339v140v11v103q0 62 10 127t35 138t62 139.5t96.5 128t134 106t178 71.5t224.5 27v-233q-114 0 -202.5 -30.5t-142.5 -83t-84.5 -113.5t-39.5 -131q32 6 56 6v-236q-42 0 -66 -28t-24 -79q0 -53 23.5 -82t66.5 -29v-235q-69 0 -132.5 30 t-104.5 74t-65.5 92t-24.5 87zM507 56v235q49 0 75.5 29.5t24.5 81.5q-2 53 -24 80t-76 27v236q68 0 131.5 -25.5t106.5 -65.5t69 -87.5t26 -91.5v-136q0 -45 -26 -94.5t-69 -91.5t-106.5 -69.5t-131.5 -27.5z" />
<glyph unicode="&#xb94;" horiz-adv-x="3583" d="M917 1097v233q122 0 229.5 -29t184.5 -77.5t138 -108.5t97.5 -124.5t55 -122.5t18.5 -106v-446q0 -62 -29.5 -112.5t-78.5 -81t-111.5 -49.5t-128.5 -18t-130 14q34 -86 277 -86v-236q-231 0 -373 84.5t-142 216.5v622h236v-295q0 -32 25 -54.5t60.5 -27.5t71 0t60.5 27 t26 55v387q0 45 -33.5 101t-92 109t-154.5 89t-206 36zM75 339v140v11v103q0 62 10 127t35 138t62 139.5t96.5 128t134 106t178 71.5t224.5 27v-233q-114 0 -202.5 -30.5t-142.5 -83t-84.5 -113.5t-39.5 -131q32 6 56 6v-236q-42 0 -66 -28t-24 -79q0 -53 23.5 -82t66.5 -29 v-235q-69 0 -132.5 30t-104.5 74t-65.5 92t-24.5 87zM507 56v235q49 0 75.5 29.5t24.5 81.5q-2 53 -24 80t-76 27v236q68 0 131.5 -25.5t106.5 -65.5t69 -87.5t26 -91.5v-136q0 -45 -26 -94.5t-69 -91.5t-106.5 -69.5t-131.5 -27.5zM362 -237l228 57q26 -53 85 -75t119.5 -2 t89.5 77l201 -117q-31 -66 -90 -112.5t-130 -67t-149.5 -16.5t-147.5 31.5t-125 86t-81 138.5zM2119 0q-70 0 -133 28.5t-104.5 72t-65.5 93t-24 93.5v130v14v-2v191q0 60 18 128.5t57.5 140.5t95 129.5t140 94.5t182.5 37v-229q-88 0 -156.5 -66.5t-82.5 -180.5q32 7 73 7 v-231q-41 0 -65.5 -30.5t-24.5 -74.5q0 -49 22.5 -81t67.5 -32v-232zM2224 0v232q53 0 71.5 30.5t16.5 82.5q-1 24 -3.5 39t-11 32t-26.5 25.5t-47 8.5v231q66 0 128 -26t103.5 -64.5t67 -83t25.5 -82.5v-136q1 -47 -21 -96.5t-61.5 -93t-103 -71.5t-138.5 -28zM2863 0h-241 l-2 618v21v35q-2 94 -69 170.5t-162 76.5v229q186 0 316 -130q88 130 271 130v-233q-40 0 -64 -21t-39 -80.5t-17 -164.5zM3133 0v917h-53v233h428v-233h-141v-917h-234z" />
<glyph unicode="&#xb95;" horiz-adv-x="1605" d="M92 433q0 128 63.5 191t175.5 80v435h310v-239h-74l-2 -190h254v190h-74v239h560v-239h-252v-190h101q96 0 158 -13t107.5 -47.5t65 -97t19.5 -160.5h-235q0 94 -100 94h-116v-120q0 -58 -12.5 -111t-43 -104.5t-77 -88.5t-120 -60t-166.5 -23v235q92 0 138.5 38 t46.5 106v128h-381q-28 0 -49.5 -5.5t-32 -13t-17 -15.5t-7.5 -14l-1 -5h-239zM530 -21q-119 0 -205.5 27t-136.5 77.5t-73 114.5t-23 145h231q3 -76 45 -102.5t162 -26.5v-235zM1089 -21l4 218q46 0 80.5 10.5t51.5 25t27.5 29t12.5 24.5l2 11h237q0 -167 -96.5 -242.5 t-318.5 -75.5z" />
<glyph unicode="&#xb99;" horiz-adv-x="1713" d="M1405 0v1139h233v-1139h-233zM526 0v234h331q42 0 63.5 1t31 8t10.5 12t1 23v126v9q0 21 -8 25q-9 4 -67 4h-13v236q65 0 120.5 -13t102 -40t73.5 -75t27 -112v-204h105v-234h-777zM538 310v595h-230v-905h-233v1131v8h905v-234h-209v-595h-233z" />
<glyph unicode="&#xb9a;" horiz-adv-x="1424" d="M532 -2q-129 1 -219.5 24t-141.5 66t-73.5 97.5t-22.5 126.5h231q0 -48 50 -64t176 -16v-234zM634 -2v234q93 0 130.5 29.5t37.5 96.5v119h-346q-85 0 -116.5 -14t-31.5 -55h-233q0 112 67 183.5t172 99.5v436h312v-227h-77l-2 -190h255v190h-73v227h588v-227h-282v-190 h196v-233h-196v-111q0 -59 -10.5 -109.5t-38.5 -99.5t-72 -83t-115.5 -55t-164.5 -21z" />
<glyph unicode="&#xb9c;" horiz-adv-x="1818" d="M547 -345q-115 0 -217 50t-163.5 135t-61.5 181v138q0 48 15.5 99t48.5 101t79 90t112 64.5t141 24.5h873q21 0 38.5 4.5t30.5 9.5t22.5 17.5t16.5 21t11 27.5t6.5 29t3.5 33t1 32.5v36v34.5v74q0 198 -130 217v235q156 -12 262 -130.5t106 -321.5v-116 q-1 -116 -31.5 -204t-79.5 -137.5t-105 -73.5t-117 -24h-921q-53 0 -88 -36t-48 -82t-13 -96q0 -199 208 -199v-234zM77 902v1v20q0 29 1 36q3 34 16 76q13 43 34 81t59.5 79t89.5 70t128 48t171 19q122 0 229.5 -41t180.5 -123q56 61 131.5 97t153.5 44v-235 q-64 -12 -109.5 -67.5t-45.5 -143.5v-251h-234v169q0 137 -74 224q4 -34 4 -50v-53q0 -44 -27.5 -98.5t-70 -102.5t-101.5 -80.5t-115 -32.5v239q33 12 56.5 48t23.5 80q0 56 -39 95t-95 39t-95 -39t-39 -95q0 -46 25 -82t59 -48v-237q-80 0 -155 51t-118.5 124t-43.5 139z M664 -105q65 0 92.5 19t28.5 84q3 125 108 197.5t252 72.5h126v-237h-161q-21 1 -34.5 -2.5t-29 -16.5t-24 -44.5t-9.5 -80.5q-2 -80 -98.5 -154t-250.5 -74v236zM1185 -105h34q30 -1 62 0t63 2t59 6.5t48.5 13.5t33 22.5t12.5 33.5q0 55 -123 58v237q66 0 126.5 -17 t113.5 -51t84.5 -93.5t31.5 -137.5q0 -63 -19 -112.5t-56.5 -82.5t-85 -55.5t-111.5 -35t-129 -17.5t-144 -5v234z" />
<glyph unicode="&#xb9e;" horiz-adv-x="2082" d="M465 -398q-165 0 -268 101t-103 293v745q0 90 24.5 161.5t62.5 115.5t89.5 73t102 40.5t102.5 11.5v-234q-41 0 -70 -12.5t-43.5 -29.5t-23 -44t-10 -46t-1.5 -46v-737q0 -90 38 -124.5t131 -34.5h543v-233h-574zM1145 -165h507q36 0 58.5 5.5t35 13t18.5 27t7 35.5t1 51 l2 328q0 64 -14 77t-76 13v233q53 0 96.5 -7t87.5 -28.5t73.5 -56t48 -93.5t18.5 -138v-328q0 -84 -17.5 -145.5t-61 -113.5t-126 -79t-203.5 -27h-455v233zM532 343v80v15v-2v102q0 49 7.5 102.5t25 113t44 114t67.5 104.5t92 86.5t120.5 58.5t150.5 22v-236 q-105 0 -167 -61t-82 -161q36 8 69 8v-233q-42 0 -66 -28.5t-24 -79.5q0 -53 23.5 -83t66.5 -30v-233q-148 0 -237.5 92t-89.5 249zM965 2v233q48 0 74.5 30.5t24.5 82.5q-2 53 -23.5 80.5t-75.5 27.5v233q164 0 248.5 -69t84.5 -199v-138q0 -96 -99.5 -188.5t-233.5 -92.5z M1384 0v903h-239v236h685v-236h-213v-903h-233z" />
<glyph unicode="&#xb9f;" horiz-adv-x="1196" d="M52 0v234h1072v-234h-1072zM52 337v804h233v-804h-233z" />
<glyph unicode="&#xba3;" horiz-adv-x="2796" d="M75 318v235q0 120 25.5 216.5t62 156.5t94 103.5t104 64t110.5 31.5t94 12.5t74 1.5v-236h-7q-34 0 -52 -0.5t-50 -3.5t-50 -9t-45 -18t-42.5 -29t-34 -43.5t-28 -61t-16 -81.5t-6.5 -104v-233q0 -60 17 -77q10 -11 27 -11v-234q-87 0 -151.5 46.5t-95 118t-30.5 155.5z M400 653q-5 55 41 115t122 67q172 0 172 -282v-235q0 -139 -72.5 -229.5t-206.5 -90.5v234q13 0 22 5.5t13.5 11.5t7 18.5t3 18.5t0.5 19l-1 13v235q0 29 -7 49t-16 29.5t-25.5 15t-26 6t-26.5 0.5zM808 320v229q0 211 90 351q-37 3 -155 3v236q255 0 398 -50q131 50 304 50 v-236h-59q82 -126 82 -329v-254q0 -139 -73.5 -229.5t-207.5 -90.5v234q9 0 16 2t12 6.5t8.5 9t5.5 11.5t3.5 12t2 13.5t0.5 12v11v8.5v233q0 196 -100 278q-94 -86 -94 -278v-231q0 -60 17 -77q10 -11 27 -11v-234q-87 0 -151.5 46.5t-95 118t-30.5 155.5zM1548 905v234 q224 0 347 -42q125 42 285 42v-234h-48q73 -127 73 -329v-254q0 -139 -72.5 -229.5t-206.5 -90.5v233q13 0 22 5.5t13.5 12t6.5 18.5t2.5 18.5t0 19t-0.5 13.5v233q0 206 -90 285q-102 -86 -102 -285v-232q0 -60 17 -77q10 -11 27 -11v-233q-87 0 -151.5 46.5t-95 118 t-30.5 155.5v229q0 217 93 354h-90zM2303 2v903h-18v234h437v-236h-186v-901h-233z" />
<glyph unicode="&#xba4;" horiz-adv-x="1512" d="M96 -586q0 214 93 317.5t288 103.5h593q34 0 55 9t29.5 28t11 35t2.5 43l1 339h234v-339q0 -45 -6 -85.5t-26.5 -91t-55 -86t-97 -60.5t-146.5 -25h-628q-59 0 -81 -40t-22 -148h-245zM75 301h235q6 -31 26.5 -44.5t45 -16t91.5 -1.5h42v-235q-222 0 -331 79t-109 218z M75 406q0 122 65.5 194.5t173.5 100.5v438h310v-234h-75l-2 -189h255v189h-75v234h561v-234h-253v-189h45q58 0 101 -6.5t87 -27t72 -55t45.5 -94t17.5 -141.5h-234q1 4 1 9.5t-2 21t-7.5 27t-21 21t-37.5 9.5h-67v-109q0 -58 -12.5 -109t-43 -99.5t-77.5 -83t-120 -55 t-166 -20.5v235q95 0 140.5 30t45.5 95v116l-346 2h-43t-33.5 -1.5t-29 -4.5t-19 -8t-15.5 -13.5t-7 -20t-3 -28.5h-231z" />
<glyph unicode="&#xba8;" horiz-adv-x="1332" d="M936 484v234q49 0 87 -6.5t79 -27t67.5 -55t44 -94.5t17.5 -141v-346q0 -46 -6 -95.5t-27.5 -115t-55.5 -115.5t-97.5 -85t-146.5 -35h-465q-61 0 -87 -43t-26 -149h-245q0 425 398 425h423q99 0 99 213l2 346q0 64 -10 77t-51 13zM136 0v1139h287v-232h-54v-907h-233z M597 0l2 907h-52v232h554v-232h-266l1 -907h-239z" />
<glyph unicode="&#xba9;" horiz-adv-x="2063" d="M810 295v256q0 218 97 368q-65 5 -162 5v234q246 0 394 -56q136 58 293 58v-234q-37 0 -56 -2q94 -135 94 -348v-281q0 -139 -72.5 -229.5t-206.5 -90.5v234q13 0 22 5.5t13.5 11.5t7 18.5t3 18.5t-0.5 19v13v260q0 198 -101 285q-92 -89 -92 -285v-258q0 -60 17 -77 q10 -11 27 -11v-234q-87 0 -151.5 46.5t-95 118t-30.5 155.5zM77 293v262q0 95 15.5 175t40 137.5t61.5 104t74 76t84 51.5t84 33t81 17.5t69.5 7.5t54.5 1v-234q-40 0 -67 -1.5t-65 -9.5t-63 -22t-53 -41.5t-44.5 -65.5t-27.5 -96.5t-11 -132.5v-260q0 -88 46 -88v-234 q-87 0 -152 46.5t-96 118t-31 155.5zM402 655q-5 55 41 114.5t122 66.5q172 0 172 -281v-260q0 -139 -73 -230.5t-207 -91.5v236q11 0 19.5 3.5t13.5 10.5t8 13t4 16.5t1.5 16t0 15.5t-0.5 11v260q0 29 -7 49t-16 29.5t-25.5 15t-26 6t-26.5 0.5zM1533 924v234h452v-235 h-184v-923h-233v924h-35z" />
<glyph unicode="&#xbaa;" horiz-adv-x="1027" d="M568 2v233h152v904h233v-1137h-385zM75 2v1137h233v-904h153v-233h-386z" />
<glyph unicode="&#xbae;" horiz-adv-x="1268" d="M879 0v235q82 0 82 108v488q0 21 -2 34t-9.5 28.5t-25 23t-45.5 7.5v234q66 0 120.5 -16.5t99.5 -53t70 -102t25 -155.5v-454q0 -100 -27 -175.5t-73 -118t-100 -63t-115 -20.5zM75 0v1139h233v-904h157v596q-1 94 25 161t72 101.5t98 49.5t115 15v-234q-44 0 -60 -25 t-16 -68v-596h76v-235h-700z" />
<glyph unicode="&#xbaf;" horiz-adv-x="1385" d="M1013 0v228h11q28 0 41 14.5t13 35.5v861h235v-1139h-300zM75 268v871h233v-861q0 -20 12 -35t42 -15h11v-228h-11q-53 0 -101 20t-81 50.5t-57.5 67t-36 70.5t-11.5 60zM477 0v228h11q123 0 123 50v861h233v-861q0 -19 13.5 -34.5t42.5 -15.5h11v-228h-300l-10 63 q-16 -63 -113 -63h-11z" />
<glyph unicode="&#xbb0;" horiz-adv-x="1138" d="M289 -339l323 402v842h-93v234h547v-234h-214l-4 -905l-285 -339h-274zM75 0v1139h340v-234h-107v-905h-233z" />
<glyph unicode="&#xbb1;" horiz-adv-x="1435" d="M75 -595q0 212 87 319.5t284 107.5h457q48 0 82 13.5t54 34.5t31.5 56t15 70t3.5 84v790q0 27 -21 36.5t-59 9.5v234q77 0 139.5 -24t99 -62.5t56 -81t19.5 -83.5v-787q0 -266 -97.5 -395t-272.5 -129h-499q-73 0 -109.5 -42t-36.5 -151h-233zM134 0v917q0 39 16.5 79 t49 78t92 62t135.5 24v-236q-60 0 -60 -47l4 -875zM528 924v236q125 0 192 -58q71 58 191 58v-234q-76 0 -76 -47l3 -875l-233 -2l-4 875q0 21 -18.5 34t-54.5 13z" />
<glyph unicode="&#xbb2;" horiz-adv-x="1707" d="M507 0v234q53 0 71.5 30t16.5 82q-1 24 -3.5 39.5t-11 33.5t-26.5 26.5t-47 8.5v233q66 0 128 -26t103.5 -65.5t67 -84t25.5 -82.5v-138q1 -47 -21 -97t-61.5 -93.5t-103 -72t-138.5 -28.5zM75 289v132v12v185q0 61 18 131t57.5 143.5t95 132.5t140 97t182.5 38v-232 q-88 0 -156.5 -67.5t-82.5 -182.5q30 9 73 9v-233q-40 0 -65 -32t-25 -76q0 -49 22.5 -80.5t67.5 -31.5v-234q-70 0 -133 29t-104.5 72.5t-65.5 93.5t-24 94zM672 926v234q93 0 171.5 -31.5t131 -82t90 -115t54.5 -129.5t18 -126v-360q0 -39 21 -60t57 -21v-235 q-79 0 -141 27t-98 73t-54.5 101t-18.5 115l-1 362q-2 99 -63.5 173.5t-166.5 74.5zM1302 1137q172 1 252.5 -78t80.5 -247v-494q0 -131 -84 -224.5t-234 -93.5v235q39 0 60.5 22t21.5 61v490q0 52 -21 73t-75 21z" />
<glyph unicode="&#xbb3;" horiz-adv-x="1868" d="M78 289v132v12v191q0 60 18 129.5t58 142t95.5 130.5t140 95t182.5 37v-232q-89 0 -157 -66.5t-82 -181.5q30 9 73 9v-233q-40 0 -65 -32t-25 -76q0 -49 22.5 -80.5t67.5 -31.5v-234q-70 0 -133 29t-104.5 72.5t-66 93.5t-24.5 94zM511 0v234q53 0 71.5 30t16.5 82 q-1 24 -3.5 39.5t-11 33.5t-26.5 26.5t-47 8.5v233q66 0 128 -26t103.5 -65.5t67 -84t25.5 -82.5v-138q1 -47 -21 -97t-61.5 -93.5t-103 -72t-138.5 -28.5zM676 926v232q185 0 315 -130q88 130 272 130v-235q-40 0 -64 -20.5t-39 -80.5t-17 -167l7 -655h-241l-2 622v23v33 q-2 95 -69 171.5t-162 76.5zM1420 0v923h-53v235h428v-235h-141v-923h-234z" />
<glyph unicode="&#xbb4;" horiz-adv-x="1268" d="M101 -128h234q1 -34 41.5 -48.5t65.5 9.5q11 -49 63 -94t125 -53q-80 -53 -160.5 -73.5t-145.5 -8t-116 47t-79 92.5t-28 128zM879 0v235q82 0 82 108v488q0 21 -2 34t-9.5 28.5t-25 23t-45.5 7.5v234q66 0 120.5 -16.5t99.5 -53t70 -102t25 -155.5v-454 q0 -100 -27 -175.5t-73 -118t-100 -63t-115 -20.5zM75 0v1139h233v-904h157v596q-1 94 25 161t72 101.5t98 49.5t115 15v-234q-44 0 -60 -25t-16 -68v-596h76v-235h-76q1 -32 40.5 -38t182.5 -5q91 1 148 1v-237l-249 1q-356 -2 -356 278h-390z" />
<glyph unicode="&#xbb5;" horiz-adv-x="1670" d="M511 0v234q90 3 90 111q0 109 -90 109v233q66 0 128 -26t103.5 -65.5t67 -84t25.5 -82.5v-138q1 -47 -21 -97t-61.5 -93.5t-103 -72t-138.5 -28.5zM77 289v132v12v151q0 80 13 154.5t47.5 153t88.5 135.5t144 94t206 37v-234q-97 0 -166.5 -65t-72.5 -180q36 8 69 8v-233 q-43 0 -66.5 -27.5t-23.5 -80.5q0 -51 22.5 -81.5t67.5 -30.5v-234q-70 0 -133.5 29t-105 72.5t-66 93.5t-24.5 94zM674 924v234q93 0 174.5 -29.5t138 -78t98 -111t61 -129t20.5 -131.5v-444h90v-235h-385v235q63 10 63 44v399q-2 101 -76.5 173.5t-183.5 72.5zM1361 0 v1139h235v-1139h-235z" />
<glyph unicode="&#xbb6;" horiz-adv-x="1885" d="M80 322v817h234v-817q0 -85 76 -85v-237h-40q-64 0 -114 23.5t-78.5 58.5t-47 81t-24.5 84.5t-6 74.5zM494 0v237q38 0 61 23t23 62v817h1202v-817q0 -37 -8 -77t-28 -84.5t-49 -79.5t-76.5 -58t-106.5 -23h-50v237q38 0 61.5 23t23.5 62v583h-265v-583q0 -85 77 -85 v-237h-42q-64 0 -113.5 23.5t-78 58.5t-46.5 81t-24 84t-6 75v583h-237v-583q0 -37 -8 -77t-28 -84.5t-49 -79.5t-76.5 -58t-106.5 -23h-50z" />
<glyph unicode="&#xbb7;" horiz-adv-x="2409" d="M511 0v234q90 3 90 111q0 109 -90 109v233q66 0 128 -26t103.5 -65.5t67 -84t25.5 -82.5v-138q1 -47 -21 -97t-61.5 -93.5t-103 -72t-138.5 -28.5zM77 289v132v12v151q0 80 13 154.5t47.5 153t88.5 135.5t144 94t206 37v-234q-97 0 -166.5 -65t-72.5 -180q36 8 69 8v-233 q-43 0 -66.5 -27.5t-23.5 -80.5q0 -51 22.5 -81.5t67.5 -30.5v-234q-70 0 -133.5 29t-105 72.5t-66 93.5t-24.5 94zM672 924v234q93 0 174.5 -29.5t138 -78t98 -111t61 -129t20.5 -131.5v-444h463v-235h-758v235q63 10 63 44v399q-2 102 -76.5 174t-183.5 72zM1280 639v190 q0 95 25.5 162t74 103.5t108.5 52t139 15.5v-234q-62 0 -86.5 -28.5t-24.5 -87.5v-161q0 -73 22.5 -95t88.5 -22v-232q-80 0 -139 14.5t-108 50.5t-74.5 104t-25.5 168zM2144 0h-69v-341h-234v343h-113v233h416v67h-416v234h113v254q0 51 -6 80.5t-24 41.5t-32.5 14t-50.5 2 v234q347 0 347 -372v-254h260v-536h-191z" />
<glyph unicode="&#xbb8;" horiz-adv-x="2273" d="M1353 924v236q65 0 116.5 -12t86 -31.5t60 -50.5t40 -61.5t22.5 -74t11 -79t3 -82.5v-447q0 -85 77 -85v-237q-73 0 -129.5 20.5t-90 52.5t-55 76t-29 86t-7.5 87v447q-1 96 -21.5 125.5t-83.5 29.5zM1872 0v237q38 0 60 23t22 62v490q0 52 -20.5 72.5t-74.5 20.5v236 q177 0 254 -80t77 -246v-493q0 -59 -17 -113t-52 -102.5t-99 -77.5t-150 -29zM78 289v132v12v191q0 60 18 129.5t58 142t95.5 130.5t140 95t182.5 37v-232q-89 0 -157 -66.5t-82 -181.5q30 9 73 9v-233q-40 0 -65 -32t-25 -76q0 -49 22.5 -80.5t67.5 -31.5v-234 q-146 0 -237 80t-91 209zM511 0v234q53 0 71.5 30t16.5 82q-1 24 -3.5 39.5t-11 33.5t-26.5 26.5t-47 8.5v233q66 0 128 -26t103.5 -65.5t67 -84t25.5 -82.5v-138q1 -47 -21 -97t-61.5 -93.5t-103 -72t-138.5 -28.5zM676 926v232q181 0 312 -124q83 124 262 124v-235 q-48 0 -68 -16t-29 -67.5t-10 -171.5l7 -668h-241l-2 622v27v29q-2 95 -69 171.5t-162 76.5z" />
<glyph unicode="&#xbb9;" horiz-adv-x="2698" d="M2335 521v356q0 46 -82 46v233q77 0 139.5 -24t99.5 -62.5t56.5 -81t20.5 -83.5v-384h-234zM691 907v234q117 0 212 -38t155 -102.5t92 -147t33 -174.5v-444h90v-235h-385v235q63 10 63 44v399q-1 100 -75 164.5t-185 64.5zM1772 921v235q126 0 192 -57q70 57 189 57 v-233q-76 0 -76 -48l5 -875l-235 -2v877q0 21 -19.5 33.5t-55.5 12.5zM94 289v132v12v107q0 44 4 90t17.5 107t35 115t60 108t88.5 93t124.5 63.5t164.5 24.5v-234q-95 0 -159.5 -60t-74.5 -166v-2q36 8 69 8v-233q-40 0 -65 -32t-25 -76q0 -49 22.5 -80.5t67.5 -31.5v-234 q-70 0 -133.5 29t-105 72.5t-66 93.5t-24.5 94zM528 0v234q53 0 71.5 30t16.5 82q-1 24 -3.5 39.5t-11 33.5t-26.5 26.5t-47 8.5v233q66 0 128 -26t103.5 -65.5t67 -84t25.5 -82.5v-138q1 -47 -21 -97t-61.5 -93.5t-103 -72t-138.5 -28.5zM1376 0v913q0 39 16.5 79t49 78 t92 62t135.5 24v-235q-33 0 -44 -13t-11 -35v-873h-238zM2569 415v-281q0 -278 -84 -407t-286 -129h-1659q-61 0 -86 -43.5t-25 -149.5h-234q0 223 87 315t308 92h1558q72 0 111 26.5t57.5 96t18.5 199.5v281h234z" />
<glyph unicode="&#xbbe;" horiz-adv-x="1087" d="M618 0v905h-99v234h494v-234h-161v-905h-234zM75 0v1139h342v-234h-109v-905h-233z" />
<glyph unicode="&#xbbf;" horiz-adv-x="687" d="M163 1298v233q411 0 411 -417v-982h-233v976q0 190 -178 190zM-337 1110q0 64 10 120.5t37 113t70 97t114.5 65.5t164.5 25v-233q-85 0 -122.5 -48t-37.5 -140h-236z" />
<glyph unicode="&#xbc0;" horiz-adv-x="981" d="M316 785q-87 71 -142 174t-72 209.5t1 213t66 189.5t133 134.5t194 51.5q47 -1 91 -9t90.5 -30t80.5 -55.5t56 -89t22 -126.5q0 -128 -85.5 -212.5t-187.5 -84.5q-81 0 -149.5 50t-76.5 88l136 159q0 -26 16 -44.5t49 -18.5q31 0 48 19t17 42q0 79 -107 79 q-110 -9 -147 -117q-40 -113 17 -271q65 -181 219 -306l26 -20z" />
<glyph unicode="&#xbc1;" horiz-adv-x="1089" d="M75 1099v233h543q70 0 123.5 -6.5t107 -25.5t88 -51t56 -86.5t21.5 -128.5v-20q0 -71 -27.5 -129.5t-70 -93.5t-88.5 -54t-87 -19h-56q-102 0 -185 88.5t-83 207.5h234q0 -29 17 -46t48 -17q32 0 48.5 17.5t16.5 44.5q0 51 -41 68.5t-129 17.5h-536z" />
<glyph unicode="&#xbc2;" horiz-adv-x="1469" d="M109 1099v233h343q5 158 129.5 267.5t308.5 109.5q202 0 324 -110t122 -267v-620q0 -145 -92.5 -216t-250.5 -71h-113v176h113q53 0 80.5 29.5t27.5 81.5v620q0 41 -22 71t-56 44.5t-67.5 21.5t-65.5 7t-63.5 -6t-65.5 -20.5t-55 -45t-21 -72.5q65 -2 115 -10t98.5 -28 t80 -52.5t51 -85t19.5 -122.5v-20q0 -71 -27.5 -129.5t-70 -93.5t-89 -54t-87.5 -19h-55q-102 0 -185 88.5t-83 207.5h233q0 -29 17 -46t48 -17q32 0 48.5 17.5t16.5 44.5q0 51 -41 68.5t-129 17.5h-536z" />
<glyph unicode="&#xbc6;" horiz-adv-x="1211" d="M507 0v234q53 0 71.5 30t16.5 82q-1 24 -3.5 39.5t-11 33.5t-26.5 26.5t-47 8.5v233q66 0 128 -26t103.5 -65.5t67 -84t25.5 -82.5v-138q1 -47 -21 -97t-61.5 -93.5t-103 -72t-138.5 -28.5zM75 289v121v453q0 103 29 193t87 162.5t154.5 114t221.5 41.5v-233 q-134 0 -195.5 -71t-61.5 -207v-189q44 13 92 13v-233q-40 0 -65 -32t-25 -76q0 -49 22.5 -80.5t67.5 -31.5v-234q-70 0 -133 29t-104.5 72.5t-65.5 93.5t-24 94zM670 1141v233q119 0 211 -41.5t147.5 -113.5t83 -162t27.5 -194v-882h-234v882q0 42 -4 76t-18 73.5t-38.5 66 t-69 44.5t-105.5 18z" />
<glyph unicode="&#xbc7;" horiz-adv-x="1188" d="M790 720v233q54 0 72.5 29.5t16.5 81.5q-1 24 -4 39.5t-11 33t-26.5 26t-47.5 8.5v236q66 0 128 -26.5t103.5 -66.5t67 -85t25.5 -83v-135q1 -47 -21 -97t-61.5 -93.5t-103 -72t-138.5 -28.5zM358 1009q0 32 1 37t-1 30q-52 -55 -52 -134v-486q0 -68 52 -123v65 q-1 57 24 104t62.5 76t83.5 49.5t86 28.5t71 8v-235q-40 0 -65 -31.5t-25 -75.5q0 -49 22.5 -80t67.5 -31v-234h-4h-9q-52 0 -108.5 7.5t-127 24.5t-132.5 51.5t-114.5 82t-83.5 122t-31 166.5v518q0 83 26.5 152t68.5 115t99 82t113 56t116 32.5t102.5 16.5t77.5 4h7v-236 q-40 0 -65 -31.5t-25 -75.5q0 -49 22.5 -80t67.5 -31v-233q-70 0 -133 29t-104.5 72.5t-65.5 93.5t-24 94zM790 -23v234q54 0 72.5 29.5t16.5 81.5q-1 24 -4 39.5t-11 33t-26.5 26t-47.5 8.5v235q66 0 128 -26.5t103.5 -66t67 -84.5t25.5 -83v-136q1 -47 -21 -97 t-61.5 -93.5t-103 -72t-138.5 -28.5z" />
<glyph unicode="&#xbc8;" horiz-adv-x="1996" d="M810 301v250q0 218 97 368q-65 5 -162 5v234q246 0 394 -56q136 58 293 58v-234q-37 0 -56 -2q94 -135 94 -348v-275q0 -139 -72.5 -230.5t-206.5 -91.5v235q13 0 22 5.5t13.5 12t7 19t3 18.5t-0.5 19v13v254q0 198 -101 285q-92 -89 -92 -285v-253q0 -60 17 -77 q10 -11 27 -11v-235q-87 0 -151.5 47t-95 119t-30.5 156zM77 299v256q0 95 15.5 175t40 137.5t61.5 104t74 76t84 51.5t84 33t81 17.5t69.5 7.5t54.5 1v-234q-40 0 -67 -1.5t-65 -9.5t-63 -22t-53 -41.5t-44.5 -65.5t-27.5 -96.5t-11 -132.5v-254q0 -89 46 -89v-233 q-87 0 -152 46.5t-96 118t-31 155.5zM402 655q-5 55 41 114.5t122 66.5q172 0 172 -281v-256q0 -139 -73 -229.5t-207 -90.5v235q11 0 19.5 3.5t13.5 10t8 13t4 16.5t1.5 15.5t0 15.5t-0.5 11v256q0 29 -7 49t-16 29.5t-25.5 15t-26 6t-26.5 0.5zM1535 907v234 q70 -4 135.5 -44.5t118 -110t84 -175.5t31.5 -231v-270q0 -140 -75.5 -230t-218.5 -90v234q14 0 25 3.5t17 10.5t10 13t5.5 16.5t2 16t0 15.5t-0.5 11v270q0 126 -37 210.5t-97 116.5z" />
<glyph unicode="&#xbca;" horiz-adv-x="2315" d="M1851 0v905h-100v234h494v-234h-161v-905h-233zM1307 0v1139h343v-234h-109v-905h-234zM542 23v233q53 0 71.5 30.5t16.5 82.5q-1 24 -3.5 39.5t-11 33t-26.5 26.5t-47 9v233q66 0 127.5 -26t103.5 -65.5t67 -84t25 -82.5v-138q1 -47 -20.5 -97t-61 -93.5t-103 -72 t-138.5 -28.5zM109 312v121v453q0 103 29 193t87 162.5t154.5 114t221.5 41.5v-233q-134 0 -195 -70.5t-61 -207.5v-189q44 13 91 13v-233q-40 0 -65 -32t-25 -76q0 -49 22.5 -81t67.5 -32v-233q-70 0 -133 29t-104.5 72.5t-65.5 93.5t-24 94zM704 1164v233q119 0 211 -41.5 t147.5 -113.5t83 -162t27.5 -194v-882h-233v882q0 42 -4 76t-18.5 73.5t-39 66t-69 44.5t-105.5 18z" />
<glyph unicode="&#xbcb;" horiz-adv-x="2277" d="M790 720v233q54 0 72.5 29.5t16.5 81.5q-1 24 -4 39.5t-11 33t-26.5 26t-47.5 8.5v236q66 0 128 -26.5t103.5 -66.5t67 -85t25.5 -83v-135q1 -47 -21 -97t-61.5 -93.5t-103 -72t-138.5 -28.5zM358 1009q0 32 1 37t-1 30q-52 -55 -52 -134v-486q0 -68 52 -123v65 q-1 57 24 104t62.5 76t83.5 49.5t86 28.5t71 8v-235q-40 0 -65 -31.5t-25 -75.5q0 -49 22.5 -80t67.5 -31v-234h-4h-9q-52 0 -108.5 7.5t-127 24.5t-132.5 51.5t-114.5 82t-83.5 122t-31 166.5v518q0 83 26.5 152t68.5 115t99 82t113 56t116 32.5t102.5 16.5t77.5 4h7v-236 q-40 0 -65 -31.5t-25 -75.5q0 -49 22.5 -80t67.5 -31v-233q-70 0 -133 29t-104.5 72.5t-65.5 93.5t-24 94zM790 -23v234q54 0 72.5 29.5t16.5 81.5q-1 24 -4 39.5t-11 33t-26.5 26t-47.5 8.5v235q66 0 128 -26.5t103.5 -66t67 -84.5t25.5 -83v-136q1 -47 -21 -97 t-61.5 -93.5t-103 -72t-138.5 -28.5zM1807 0v905h-100v234h494v-234h-161v-905h-233zM1263 0v1139h343v-234h-109v-905h-234z" />
<glyph unicode="&#xbcc;" horiz-adv-x="3081" d="M1275 293v132v11v192q0 60 18 129.5t58 142t95.5 130.5t140 95t182.5 37v-232q-89 0 -157.5 -67t-82.5 -182q34 10 73 10v-234q-40 0 -65 -31.5t-25 -75.5q0 -49 22.5 -81t67.5 -32v-233q-70 0 -133 29t-104.5 72.5t-65.5 93.5t-24 94zM1707 4v233q53 0 71.5 30.5 t16.5 82.5q-1 24 -3.5 39.5t-11 33t-26.5 26t-47 8.5v234q66 0 128 -26t103.5 -65.5t67 -84t25.5 -82.5v-138q1 -47 -21 -97t-61.5 -93.5t-103 -72t-138.5 -28.5zM1872 930v232q186 0 316 -130q88 130 272 130v-236q-40 0 -64.5 -20.5t-39.5 -80.5t-17 -167l8 -654h-242 l-1 622v23v32q-2 95 -69.5 172t-162.5 77zM2616 4v922h-53v236h429v-236h-142v-922h-234zM528 25v233q53 0 71.5 30.5t16.5 82.5q-1 24 -3.5 39.5t-11 33.5t-26.5 26.5t-47 8.5v233q66 0 128 -26t103.5 -65.5t67 -84t25.5 -82.5v-138q1 -47 -21 -97t-61.5 -93.5t-103 -72 t-138.5 -28.5zM96 314v120v454q0 103 29 193t87 162.5t154.5 114t221.5 41.5v-233q-134 0 -195.5 -71t-61.5 -207v-189q44 13 92 13v-233q-40 0 -65 -32t-25 -76q0 -49 22.5 -81t67.5 -32v-233q-70 0 -133 29t-104.5 72.5t-65.5 93.5t-24 94zM691 1166v233q119 0 211 -41.5 t147.5 -113.5t83 -162t27.5 -194v-882h-234v882q0 42 -4 76t-18 73.5t-38.5 66t-69 44.5t-105.5 18z" />
<glyph unicode="&#xbcd;" horiz-adv-x="0" d="M-142 1393q0 62 43 106t103 44t102.5 -44t42.5 -106t-42.5 -105.5t-102.5 -43.5t-103 44t-43 105z" />
<glyph unicode="&#xbd0;" horiz-adv-x="2335" d="M603 -1192q-165 0 -268 101t-103 293v266q0 90 20 161t53 115.5t78.5 73.5t92 40.5t98.5 11.5v-234q-60 0 -84.5 -40t-24.5 -138v-258q0 -90 38 -124.5t131 -34.5h505v-233h-536zM1267 -959h446q30 0 50.5 2.5t34 11t21 16.5t11 26.5t4 32.5t0.5 43l2 213q0 64 -14 77 t-76 13v233q84 0 139 -12.5t99 -46.5t64.5 -99t20.5 -165v-213q0 -84 -17.5 -145.5t-61 -113.5t-126 -79t-203.5 -27h-394v233zM1026 115q0 37 27 64.5t65 27.5t65 -27.5t27 -64.5t-27 -64.5t-65 -27.5t-65 27.5t-27 64.5zM1267 -850v128q60 0 90.5 38.5t30.5 126.5v201 q0 67 -26 99.5t-83 32.5v138q266 0 266 -270v-167q0 -81 -14.5 -140.5t-38 -95t-61 -56.5t-75.5 -28t-89 -7zM674 -850v726h157v-598h118v309q0 63 4.5 108t19.5 89t41.5 70.5t71.5 43t108 16.5v-138q-21 0 -36.5 -6.5t-24.5 -21t-15 -28.5t-8.5 -39.5t-3 -43.5t-0.5 -50 v-309h77v-128h-509zM545 745q90 0 169 -43.5t122 -105.5t43 -121v-136q0 -96 -100 -189.5t-234 -93.5v235q49 0 75.5 29.5t24.5 81.5q-2 53 -24 80t-76 27v236zM440 745v-236q-42 0 -66 -28t-24 -79q0 -53 23.5 -82t66.5 -29v-235q-69 0 -132.5 30t-104.5 74t-65.5 92 t-24.5 87v140v11v103q0 96 10.5 173t39.5 155t77.5 137.5t127 112.5t185 86.5t255 53t333.5 19.5v-233q-280 0 -441.5 -37t-233.5 -113t-83 -208q32 6 57 6zM2215 316q0 -62 -30 -112.5t-78.5 -81t-111.5 -49.5t-129 -18t-130 14q34 -86 278 -86v-236q-231 0 -373 84.5 t-142 216.5v622h235v-295q0 -32 25 -54.5t60.5 -27.5t71 0t60.5 27t26 55v387q0 58 -17 104.5t-64 91t-123 74t-201 47.5t-292 18v233q935 0 935 -568v-446z" />
<glyph unicode="&#xbd7;" horiz-adv-x="1868" d="M78 289v132v12v191q0 60 18 129.5t58 142t95.5 130.5t140 95t182.5 37v-232q-89 0 -157 -66.5t-82 -181.5q30 9 73 9v-233q-40 0 -65 -32t-25 -76q0 -49 22.5 -80.5t67.5 -31.5v-234q-70 0 -133 29t-104.5 72.5t-66 93.5t-24.5 94zM511 0v234q53 0 71.5 30t16.5 82 q-1 24 -3.5 39.5t-11 33.5t-26.5 26.5t-47 8.5v233q66 0 128 -26t103.5 -65.5t67 -84t25.5 -82.5v-138q1 -47 -21 -97t-61.5 -93.5t-103 -72t-138.5 -28.5zM676 926v232q185 0 315 -130q88 130 272 130v-235q-40 0 -64 -20.5t-39 -80.5t-17 -167l7 -655h-241l-2 622v23v33 q-2 95 -69 171.5t-162 76.5zM1420 0v923h-53v235h428v-235h-141v-923h-234z" />
<glyph unicode="&#xbe6;" horiz-adv-x="1192" d="M632 1254q100 0 183.5 -43.5t137 -111.5t91.5 -154.5t54 -170.5t16 -162q0 -92 -17.5 -182.5t-55.5 -175.5t-93 -149.5t-136.5 -103.5t-179.5 -39v235q69 0 117 30.5t73.5 89t36 129.5t10.5 166q0 35 -1.5 67.5t-7.5 77.5t-16 82.5t-28 76t-42.5 65t-60.5 43.5t-81 17 v213zM540 1254v-213q-52 0 -92.5 -21.5t-65.5 -59.5t-42 -81t-24.5 -95.5t-10.5 -91.5t-3 -80q0 -95 10.5 -166t36.5 -129.5t74 -89t117 -30.5v-235q-121 0 -216.5 57.5t-152 152t-85.5 207t-29 233.5q0 78 16.5 162t54 170.5t91.5 154.5t137.5 111.5t183.5 43.5z" />
<glyph unicode="&#xbe7;" horiz-adv-x="1605" d="M92 433q0 128 63.5 191t175.5 80v435h310v-239h-74l-2 -190h254v190h-74v239h560v-239h-252v-190h101q96 0 158 -13t107.5 -47.5t65 -97t19.5 -160.5h-235q0 94 -100 94h-116v-120q0 -58 -12.5 -111t-43 -104.5t-77 -88.5t-120 -60t-166.5 -23v235q92 0 138.5 38 t46.5 106v128h-381q-28 0 -49.5 -5.5t-32 -13t-17 -15.5t-7.5 -14l-1 -5h-239zM530 -21q-119 0 -205.5 27t-136.5 77.5t-73 114.5t-23 145h231q3 -76 45 -102.5t162 -26.5v-235zM1089 -21l4 218q46 0 80.5 10.5t51.5 25t27.5 29t12.5 24.5l2 11h237q0 -167 -96.5 -242.5 t-318.5 -75.5z" />
<glyph unicode="&#xbe8;" horiz-adv-x="1946" d="M75 903q0 181 137 305t366 124q261 0 410 -137t149 -372h-235q0 276 -324 276q-125 0 -198.5 -60.5t-71.5 -140.5q1 -59 40.5 -89t84.5 -30q69 0 103.5 59.5t12.5 126.5h234q17 -81 -5 -159t-71.5 -134.5t-122 -91.5t-150.5 -35q-68 0 -131 22.5t-114.5 65t-82.5 112.5 t-31 158zM195 0v234q140 -1 258 27.5t199.5 76.5t139 111t84 132t26.5 139h235q0 -135 -68 -259t-181 -227h986v-234h-1679z" />
<glyph unicode="&#xbe9;" horiz-adv-x="1404" d="M488 0v234h369q42 0 63.5 1t31 8t10.5 12t1 23v126v9q0 21 -8 25q-9 4 -67 4h-13v236q65 0 120.5 -13t102 -40t73.5 -75t27 -112v-204h169v-234h-879zM538 339v566h-230v-905h-233v1131v8h905v-234h-209v-566h-233z" />
<glyph unicode="&#xbea;" horiz-adv-x="1737" d="M616 -2v236q96 0 141 29.5t45 94.5v119h-346q-92 0 -121 -22t-29 -95q0 -85 38 -105.5t171 -20.5v-236q-217 1 -328.5 85t-111.5 218v116q0 106 67.5 176t171.5 98v448h312v-239h-77l-2 -190h255v190h-73v239h588v-239h-282v-190h385v222h236l-2 -455h-619v-111 q0 -58 -12.5 -109t-43 -99.5t-77.5 -83t-120 -55.5t-166 -21z" />
<glyph unicode="&#xbeb;" horiz-adv-x="1967" d="M86 56v503q0 90 24.5 161t62.5 115t89.5 73t102 40t102.5 11l2 -234q-41 0 -70 -12.5t-43.5 -29t-22.5 -43.5t-9.5 -45.5t-1.5 -45.5v-495q0 -99 40 -160t126 -61h513v-233l-544 2q-158 0 -264.5 128t-106.5 326zM1106 -167h358q31 0 54 10.5t36 31.5t21.5 40.5t11.5 51 t3.5 48.5t0.5 47v9v287q0 76 -13 99t-66 23v232q163 0 237.5 -63t74.5 -226v-513q0 -50 -23 -103t-65 -100.5t-113 -78t-157 -30.5l-360 2v233zM632 2v1137h371v-234h-138v-903h-233zM1169 2v903h-63v234h517v-234h-214l-4 -903h-236z" />
<glyph unicode="&#xbec;" horiz-adv-x="2063" d="M616 -2v236q96 0 141 29.5t45 94.5v119h-346q-92 0 -121 -22t-29 -95q0 -85 38 -105.5t171 -20.5v-236q-217 1 -328.5 85t-111.5 218v116q0 106 67.5 176t171.5 98v448h312v-239h-77l-2 -190h255v190h-73v239h588v-239h-282v-190h954v-233h-108l-1 -473h-234v473h-157 l-2 -473h-233v473h-219v-111q0 -58 -12.5 -109t-43 -99.5t-77.5 -83t-120 -55.5t-166 -21z" />
<glyph unicode="&#xbed;" horiz-adv-x="1456" d="M111 343v80v15v-2v102q0 49 7.5 102.5t25 113t44 114t67.5 104.5t92 86.5t120.5 58.5t150.5 22v-236q-105 0 -167 -61t-82 -161q36 8 69 8v-233q-42 0 -66 -28.5t-24 -79.5q0 -53 23.5 -83t66.5 -30v-233q-148 0 -237.5 92t-89.5 249zM544 2v233q48 0 74.5 30.5 t24.5 82.5q-2 53 -23.5 80.5t-75.5 27.5v233q164 0 248.5 -69t84.5 -199v-138q0 -96 -99.5 -188.5t-233.5 -92.5zM963 0v903h-240v236h686v-236h-213v-903h-233z" />
<glyph unicode="&#xbee;" horiz-adv-x="1982" d="M781 877q0 -39 38.5 -64.5t85.5 -25.5q72 0 117.5 39.5t45.5 126.5l161 -170q-8 -92 -102.5 -161t-221.5 -69q-69 0 -126 18t-93 46.5t-64 63t-42 69t-23 63t-11 46.5l-2 18h237zM544 986q0 143 142 243.5t346 100.5q259 0 402 -151.5t143 -426.5v-235h96v589h233v-1311 h-233v492h-94v-159q0 -154 -102 -262.5t-275 -108.5h-310v233h289q87 1 125 41t38 97v159h-456v230h456v241q0 162 -72.5 250.5t-239.5 88.5q-57 0 -103.5 -11.5t-72 -27.5t-43 -32.5t-23.5 -27.5l-5 -12h-241zM115 138q0 168 112 274.5t297 106.5h261v-234h-295 q-19 0 -42 -8t-46 -24t-38.5 -46.5t-15.5 -68.5q0 -71 52 -109.5t124 -38.5h263v-233h-284q-164 0 -276 106.5t-112 274.5z" />
<glyph unicode="&#xbef;" horiz-adv-x="1869" d="M616 -2v236q96 0 141 29.5t45 94.5v119h-346q-92 0 -121 -22t-29 -95q0 -85 38 -105.5t171 -20.5v-236q-217 1 -328.5 85t-111.5 218v116q0 106 67.5 176t171.5 98v448h312v-239h-77l-2 -190h255v190h-73v239h588v-239h-282v-190h364q70 0 123.5 -6.5t107 -25.5t88 -51 t56 -86.5t21.5 -128.5v-20q0 -71 -27.5 -129.5t-70 -93.5t-88.5 -54t-87 -19h-54q-102 0 -186 88.5t-84 207.5h234q0 -29 17 -46t48 -17q32 0 48.5 17t16.5 44q0 51 -40.5 69t-128.5 18h-358v-111q0 -58 -12.5 -109t-43 -99.5t-77.5 -83t-120 -55.5t-166 -21z" />
<glyph unicode="&#xbf0;" horiz-adv-x="1424" d="M875 1395h235l193 -256v-861q-1 -31 -8.5 -64.5t-29.5 -73t-54.5 -69.5t-88.5 -50.5t-127 -20.5v228q34 0 54.5 14t20.5 36v861zM100 279v860h233v-860q0 -51 61 -51v-228q-137 0 -215.5 80.5t-78.5 198.5zM498 0v228q86 0 86 50v861h231v-861q0 -21 19 -35.5t58 -14.5 v-228q-91 0 -129 10t-66 53q-22 -30 -54 -44.5t-59 -16.5t-86 -2z" />
<glyph unicode="&#xbf1;" horiz-adv-x="1615" d="M1112 0v924h-159v236h590v-236h-197v-924h-234zM75 0v917q0 39 16 79t48.5 78t91.5 62t135 24v-236q-60 0 -60 -47l6 -877h-237zM469 924v236q124 0 191 -58q71 58 190 58v-234q-75 0 -75 -47l4 -879h-234l-5 877q0 47 -71 47z" />
<glyph unicode="&#xbf2;" horiz-adv-x="2095" d="M1328 -117q-109 0 -175 71.5t-66 177.5q0 44 15 85t43.5 75.5t76 55.5t106.5 21v-176q-27 0 -45 -21t-18 -48q0 -26 19.5 -44.5t41.5 -18.5q87 0 87 130v286h-378v-111q0 -58 -12.5 -109t-43 -99.5t-77.5 -83t-120 -55.5t-166 -21v236q96 0 141 29.5t45 94.5v119h-346 q-92 0 -121 -22t-29 -95q0 -85 38 -105.5t171 -20.5v-236q-217 1 -328.5 85t-111.5 218v116q0 106 67.5 176t171.5 98v448h312v-239h-77l-2 -190h255v190h-73v239h588v-239h-282v-190h799v-233h-245v-293q0 -135 -67 -218t-194 -83zM1206 -494q0 70 14 127.5t45 104.5 t86.5 73t131.5 26h163q87 0 141 53t54 141q0 87 -54 134t-149 47v178q81 0 149.5 -21t122 -63t83.5 -112.5t30 -162.5q0 -101 -30 -175t-83.5 -116t-119 -61.5t-144.5 -19.5h-163q-58 0 -77 -29.5t-22 -123.5h-178z" />
<glyph unicode="&#xbf3;" horiz-adv-x="1860" d="M509 0v234q90 3 90 111q0 109 -90 109v233q137 0 230.5 -75.5t93.5 -182.5v-138q1 -47 -21 -97t-61.5 -93.5t-103 -72t-138.5 -28.5zM75 289v132v12v151q0 80 13 154.5t47.5 153t88.5 135.5t144 94t206 37v-234q-97 0 -166.5 -65t-72.5 -180q36 8 69 8v-233 q-43 0 -66.5 -27.5t-23.5 -80.5q0 -51 22.5 -81.5t67.5 -30.5v-234q-157 0 -243 84t-86 205zM672 924v234q93 0 174.5 -29.5t138 -78t98 -111t61 -129t20.5 -131.5v-444h624v-235h-919v235q63 10 63 44v399q-2 101 -76.5 173.5t-183.5 72.5z" />
<glyph unicode="&#xbf4;" horiz-adv-x="2051" d="M2000 1206q-70 0 -127.5 14t-104.5 45t-73 86.5t-26 131.5v163q0 195 -212 195q-163 0 -163 -203h-197q0 82 21 153t63.5 128t113 90t162.5 33q210 0 309.5 -96t99.5 -300v-163q0 -57 18.5 -67t115.5 -13v-197zM1623 1309q0 -108 -79.5 -174.5t-188.5 -66.5 q-60 0 -116.5 24.5t-98 81.5t-41.5 135h195q0 -27 21 -45t48 -18q26 0 44.5 19.5t18.5 41.5q0 41 -30.5 54t-99.5 13h-421v230h428q55 0 100 -7.5t87 -28t70.5 -53t45.5 -85t17 -121.5zM662 1187l10 -41q49 12 103 12v-234q-44 0 -60 -25t-16 -68v-596h76v-235h-700v1139 h233v-904h157v596q0 148 63 227q-40 41 -61 98t-22.5 118t19.5 121t60 107t105.5 76.5t149.5 29.5v-234q-71 0 -103 -56t-14 -131zM879 0v235q82 0 82 108v488q0 21 -2 34t-9.5 28.5t-25 23t-45.5 7.5v234q66 0 120.5 -16.5t99.5 -53t70 -102t25 -155.5v-454 q0 -100 -27 -175.5t-73 -118t-100 -63t-115 -20.5z" />
<glyph unicode="&#xbf5;" horiz-adv-x="3234" d="M75 17v1059q0 90 24 161.5t62.5 116t90 74t102 41t102.5 11.5h1020v-236h-1019q-41 0 -70 -12.5t-43.5 -29t-22.5 -43.5t-9.5 -45.5t-1.5 -45.5v-1053q0 -90 37 -125t130 -35h999v-234h-1030q-164 0 -267.5 102t-103.5 294zM1011 924v234q93 0 174 -29.5t137.5 -78 t97.5 -111t60.5 -129t20.5 -131.5v-444h178v-235h-471v235q61 9 61 44v399q-2 101 -76 173.5t-182 72.5zM1577 -145h1043q27 0 47.5 4.5t33.5 11t22.5 19.5t14 23t6.5 29.5t2.5 30.5t0.5 33v9v224q0 66 -21.5 88.5t-59.5 22.5v243q39 -4 78.5 -14.5t83 -33t76.5 -53.5 t54.5 -80t21.5 -108v-373q0 -50 -23 -103t-65 -100t-113 -77t-157 -30h-1045v234zM413 289v132v12v151q0 65 9.5 128t30.5 129.5t59.5 122t91.5 100t132.5 69.5t176.5 25v-234q-97 0 -166.5 -65t-72.5 -180q36 8 69 8v-233q-43 0 -67.5 -28t-24.5 -80q0 -51 23 -81.5 t69 -30.5v-234q-70 0 -133.5 29t-105.5 72.5t-66.5 93.5t-24.5 94zM846 0v234q92 3 92 111q0 109 -92 109v233q66 0 127.5 -26t103.5 -65.5t67 -84t25 -82.5v-138q1 -47 -20.5 -97t-61 -93.5t-103 -72t-138.5 -28.5zM1577 1244v236h1164q89 0 154 -29.5t99 -75t59 -103.5 t36.5 -110.5t29 -101t39.5 -70.5h-241q-23 32 -36.5 82.5t-19.5 85t-35 60.5t-85 26h-1164zM1784 0v1139h342v-234h-109v-905h-233zM2327 0v905h-99v234h494v-234h-161v-905h-234z" />
<glyph unicode="&#xbf6;" horiz-adv-x="1351" d="M488 -314q47 0 65 20t23 62h-212q-36 0 -51 -20.5t-0.5 -41t49.5 -20.5h25v-180h-25q-18 0 -36 1t-48 5t-55 11.5t-53.5 21.5t-48 33.5t-33 50t-13.5 67.5v63q0 95 78 141t211 46h212v54h-86v228q86 0 86 50v654h234v-986h233v783h234v-961h-469q-3 -44 -11.5 -78 t-30 -70t-55 -59.5t-90.5 -39t-133 -15.5v180zM92 279v860h233v-860q0 -51 62 -51v-228q-138 0 -216.5 80.5t-78.5 198.5z" />
<glyph unicode="&#xbf7;" horiz-adv-x="2183" d="M1598 513v130q65 0 118 -24.5t85.5 -64t50 -85.5t18.5 -92v-245h52v-130h-215v130q1 0 6.5 1t9.5 2.5t9 4t7.5 6.5t2.5 9v222q-2 56 -43 96t-101 40zM75 285v138v15v-2v102q0 49 7.5 102.5t25 113t44 114t67.5 104.5t92 86.5t120.5 58.5t150.5 22v-236q-105 0 -167 -61 t-82 -161q36 8 69 8v-233q-42 0 -66 -28.5t-24 -79.5q0 -53 23.5 -83t66.5 -30v-233q-69 0 -132.5 30t-104.5 74t-65.5 92t-24.5 87zM507 2v233q48 0 75 30.5t25 82.5q-2 53 -24 80.5t-76 27.5v233q90 0 168.5 -43t121.5 -104.5t43 -120.5v-138q0 -96 -99.5 -188.5 t-233.5 -92.5zM1508 0v130q50 0 50 61q0 62 -50 62v130q71 0 124.5 -49.5t53.5 -96.5v-74q0 -57 -49 -110t-129 -53zM1267 239v14h-107v-253h-234v903h-239v236h666v-236h-193v-522h111q5 50 21.5 94t47 83t83 62t120.5 23v-130q-55 0 -93 -35.5t-39 -98.5q30 4 38 4v-130 q-23 0 -36.5 -16.5t-13.5 -45.5q0 -61 50 -61v-130q-75 0 -128.5 54t-53.5 107v73v5zM1979 2v630h130v-630h-130z" />
<glyph unicode="&#xbf8;" horiz-adv-x="2989" d="M398 77v179q108 0 186 -80.5t78 -162.5v-42q0 -101 -74 -177.5t-190 -76.5v178q34 0 60 22.5t26 71.5q0 40 -25 64t-61 24zM1091 0v234q90 3 90 111q0 109 -90 109v233q66 0 127.5 -26t103.5 -65.5t67 -84t25 -82.5v-138q1 -47 -20.5 -97t-61 -93.5t-103 -72 t-138.5 -28.5zM657 289v132v12v78h-83q-74 0 -129 -11.5t-99.5 -38t-67.5 -74.5t-23 -117v-29q41 15 82 15v-179q-31 0 -56.5 -21.5t-25.5 -66.5q0 -43 26.5 -68.5t55.5 -25.5v-178q-102 0 -182 78t-80 180v297q0 93 30 166.5t78 119.5t114.5 75.5t134.5 41.5t142 12h88 q9 72 28.5 136t58 127t91.5 108t134.5 72.5t181.5 27.5v-234q-97 0 -166.5 -63.5t-72.5 -173.5h67h2v-233q-43 0 -66.5 -27.5t-23.5 -80.5q0 -51 22.5 -81.5t67.5 -30.5v-234q-70 0 -133.5 29t-105 72.5t-66 93.5t-24.5 94zM1252 924v234q93 0 174.5 -29.5t138 -78t98 -111 t61 -129t20.5 -131.5v-444h463v-235h-758v235q63 10 63 44v399q-2 102 -76.5 174t-183.5 72zM1860 639v190q0 95 25.5 162t74 103.5t108.5 52t139 15.5v-234q-62 0 -86.5 -28.5t-24.5 -87.5v-161q0 -73 22.5 -95t88.5 -22v-232q-80 0 -139 14.5t-108 50.5t-74.5 104 t-25.5 168zM2724 0h-69v-341h-234v343h-113v233h416v67h-416v234h113v254q0 51 -6 80.5t-24 41.5t-32.5 14t-50.5 2v234q347 0 347 -372v-254h260v-536h-191z" />
<glyph unicode="&#xbf9;" horiz-adv-x="2216" d="M2167 1531q-56 0 -103 8.5t-90 29t-73 51.5t-47.5 79t-17.5 110v162q0 196 -213 196q-163 0 -163 -203h-197q0 82 21 153t63.5 128t113 90t162.5 33q210 0 310 -96.5t100 -300.5v-162q0 -57 19 -67.5t115 -13.5v-197zM1790 1635q0 -108 -80 -175t-188 -67q-60 0 -117 25 t-98.5 82t-41.5 135h195q0 -27 21 -45.5t48 -18.5q26 0 44.5 20t18.5 42q0 41 -30.5 54t-99.5 13h-421v229h429q70 0 123.5 -13t100 -44.5t71.5 -91t25 -145.5zM75 57v1099q0 177 92 271.5t248 94.5h205q-13 45 -9.5 93t15 93.5t40.5 86.5t66.5 71.5t93 48.5t120.5 18v-233 q-70 0 -103 -55t-16 -123h34l2 -153l14 -60q-23 0 -33 2h-388q-26 0 -47.5 -3.5t-36.5 -12t-26.5 -16t-17.5 -21.5t-10.5 -22.5t-6 -25t-2 -23t0 -23t0.5 -18.5v-1090q0 -91 37.5 -126t129.5 -35h423v-234l-454 2q-165 0 -268 101t-103 293zM1003 -105h360q36 0 61 10.5 t37 23.5t18.5 39.5t7 42.5t0.5 49v13v285q0 122 -78 122v232q41 -4 78 -12.5t81.5 -29t76.5 -51t54 -81t22 -115.5v-452q0 -50 -22.5 -103t-64.5 -100.5t-112.5 -78t-156.5 -30.5l-362 2v234zM1068 2v903h-65v234h517v-234h-213l-4 -903h-235zM528 2v1137h374v-234h-140 v-903h-234z" />
<glyph unicode="&#xbfa;" horiz-adv-x="2172" d="M1763 1252q0 -108 -79.5 -174.5t-188.5 -66.5q-44 0 -88 15t-82.5 43t-62.5 76t-24 107h196q0 -27 21 -45t48 -18q26 0 44.5 19.5t18.5 41.5q0 41 -30.5 54t-99.5 13h-422v230h429q55 0 100 -7.5t87 -28t70.5 -53t45.5 -85t17 -121.5zM2140 1148q-56 0 -103 8.5t-90 29 t-73 51.5t-47.5 79t-17.5 110v163q0 195 -213 195q-162 0 -162 -203h-198q0 82 21 153t63.5 128t113 90t162.5 33q210 0 310 -96t100 -300v-163q0 -57 18.5 -67t115.5 -13v-198zM947 484v234q49 0 87 -6.5t79 -27t67.5 -55t44 -94.5t17.5 -141v-346q0 -46 -6 -95.5 t-27.5 -115t-55.5 -115.5t-97.5 -85t-146.5 -35h-465q-61 0 -87 -43t-26 -149h-245q0 425 398 425h423q33 0 55 23.5t30.5 63t11.5 67.5t3 59l2 346q0 63 -10.5 76.5t-51.5 13.5zM147 0v1139h287v-232h-53v-907h-234zM609 0l2 907h-52v232h34q-13 45 -9.5 93t15 93.5 t40.5 86.5t66.5 71.5t93 48.5t120.5 18v-233q-70 0 -103 -55t-16 -123h312v-232h-266l2 -907h-239z" />
<glyph unicode="&#xd82;" horiz-adv-x="897" d="M496 86h40q67 0 119.5 20.5t84 56.5t53 75.5t31 87t13 81.5t3.5 68v120q0 34 -3.5 68t-13 81.5t-31 87t-53 75.5t-84 56.5t-119.5 20.5h-40v-249q52 0 69 -36t17 -104v-120q0 -68 -17 -104t-69 -36v-249zM360 86h40v249q-51 0 -67.5 36t-16.5 104v120q0 68 16.5 104 t67.5 36v249h-40q-57 0 -104 -16t-78 -41.5t-54 -61t-35.5 -70t-20 -75t-9.5 -68.5t-2 -57v-120q0 -29 2 -57t9.5 -68.5t20 -75t35.5 -70t54 -61t78 -41.5t104 -16z" />
<glyph unicode="&#xd83;" horiz-adv-x="742" d="M419 -13h27q112 0 175.5 78t63.5 184q0 104 -62.5 179t-176.5 75h-27v-193q27 0 43.5 -17.5t16.5 -41.5q0 -25 -16 -42.5t-44 -17.5v-204zM297 -13h26v204q-27 0 -43 17.5t-16 42.5t16 42t43 17v193h-26q-114 0 -177 -75t-63 -179q0 -106 64 -184t176 -78zM419 570h27 q75 0 131 39t82 97.5t26 126.5q0 104 -62.5 179t-176.5 75h-27v-193q27 0 43.5 -17.5t16.5 -41.5q0 -25 -16 -42.5t-44 -17.5v-205zM297 570h26v205q-27 0 -43 17.5t-16 42.5t16 42t43 17v193h-26q-114 0 -177 -75t-63 -179q0 -106 64 -184.5t176 -78.5z" />
<glyph unicode="&#xd85;" horiz-adv-x="1041" d="M597 -323v826h-107q-34 0 -57.5 -4t-49 -15.5t-39 -38t-13.5 -66.5q0 -119 161 -119v-260q-89 0 -165.5 22.5t-138 67t-96.5 119t-35 170.5q0 192 118 291t315 99h109v6q-4 48 -43 74t-91 26q-44 0 -80 -19t-48 -52l-226 75q29 109 126 168t219 59q162 0 275 -92 q73 52 195 94l58 -277q-47 -12 -76 -26t-42 -33t-16.5 -35t-3.5 -44v-425h100v-268h-100v-323h-249z" />
<glyph unicode="&#xd86;" horiz-adv-x="1552" d="M1080 0v270h38q107 0 107 117v287q0 25 -3 44t-12.5 42.5t-33 36.5t-58.5 13h-38v270h38q190 0 283.5 -106.5t93.5 -280.5v-306q0 -174 -93.5 -280.5t-283.5 -106.5h-38zM597 -323v826h-107q-34 0 -57.5 -4t-49 -15.5t-39 -38t-13.5 -66.5q0 -119 161 -119v-260 q-89 0 -165.5 22.5t-138 67t-96.5 119t-35 170.5q0 192 118 291t315 99h109v6q-4 48 -43 74t-91 26q-44 0 -80 -19t-48 -52l-226 75q29 109 126 168t219 59q162 0 275 -92q73 52 195 94l58 -277q-47 -12 -76 -26t-42 -33t-16.5 -35t-3.5 -44v-425h100v-268h-100v-323h-249z " />
<glyph unicode="&#xd87;" horiz-adv-x="1550" d="M1451 0q-166 0 -269.5 97.5t-103.5 300.5v100q0 96 18 147.5t96 189.5h-114v264h415v-253q-22 -41 -54.5 -99t-41.5 -76t-24 -49.5t-17.5 -48.5t-5.5 -40.5t-3 -57.5v-88q0 -63 31 -88t75 -25h40v-274h-42zM597 -323v826h-107q-34 0 -57.5 -4t-49 -15.5t-39 -38 t-13.5 -66.5q0 -119 161 -119v-260q-89 0 -165.5 22.5t-138 67t-96.5 119t-35 170.5q0 192 118 291t315 99h109v6q-4 48 -43 74t-91 26q-44 0 -80 -19t-48 -52l-226 75q29 109 126 168t219 59q162 0 275 -92q73 52 195 94l58 -277q-47 -12 -76 -26t-42 -33t-16.5 -35 t-3.5 -44v-425h100v-268h-100v-323h-249z" />
<glyph unicode="&#xd88;" horiz-adv-x="1552" d="M1080 413q0 55 12.5 83t71.5 82h-84v211l109 99h-109v211h415v-211l-113 -99h113v-211q-21 -16 -48.5 -36.5t-38 -28.5t-25 -20.5t-18.5 -18t-9.5 -16.5t-6 -20.5t-0.5 -24.5v-26q0 -63 31 -88t75 -25h40v-274h-42q-107 0 -188.5 33t-133 111.5t-51.5 196.5v72zM597 -323 v826h-107q-34 0 -57.5 -4t-49 -15.5t-39 -38t-13.5 -66.5q0 -119 161 -119v-260q-89 0 -165.5 22.5t-138 67t-96.5 119t-35 170.5q0 192 118 291t315 99h109v6q-4 48 -43 74t-91 26q-44 0 -80 -19t-48 -52l-226 75q29 109 126 168t219 59q162 0 275 -92q73 52 195 94 l58 -277q-47 -12 -76 -26t-42 -33t-16.5 -35t-3.5 -44v-425h100v-268h-100v-323h-249z" />
<glyph unicode="&#xd89;" horiz-adv-x="1089" d="M375 0v245h56q159 0 248.5 70t89.5 217v111q0 98 -44 137t-128 39v270h31q101 0 192.5 -43t151.5 -127.5t60 -191.5v-250q0 -113 -41.5 -205.5t-110.5 -150.5t-154.5 -89.5t-176.5 -31.5h-174zM124 -155l255 65q7 -27 35.5 -43t60.5 -16q40 0 66.5 19.5t26.5 43.5h263 q0 -134 -94.5 -219t-261.5 -85q-143 0 -229.5 65t-121.5 170zM57 609v120q0 106 60 190t151.5 127t192.5 43h31v-270h-31q-62 0 -100.5 -32.5t-38.5 -89.5v-35q0 -12 1.5 -20t6 -17.5t16 -14.5t29.5 -5q23 0 36 10t15.5 21t2.5 28v35h249v-169q0 -31 -6.5 -56t-26 -51.5 t-52 -44.5t-88 -29.5t-130.5 -11.5q-84 0 -148 24t-99.5 64t-53 86.5t-17.5 97.5z" />
<glyph unicode="&#xd8a;" horiz-adv-x="1165" d="M886 1261q0 58 41 99t99 41t99 -41t41 -99q0 -56 -41 -96.5t-99 -40.5t-99 40.5t-41 96.5zM96 1472q0 58 40.5 99t98.5 41t99 -41t41 -99q0 -56 -41 -97t-99 -41q-57 0 -98 41t-41 97zM57 450v367q0 40 1.5 66t11 73t27 84.5t53 84.5t85.5 88l374 305l315 -84l-470 -383 q-87 -69 -108 -100.5t-21 -89.5v-411q0 -101 29.5 -142.5t112.5 -41.5v-277q-51 0 -98.5 10t-94.5 31t-85.5 57.5t-68.5 86t-46.5 120.5t-16.5 156zM400 873l255 207h44q159 0 223 -106t64 -346v-178q0 -460 -412 -460v276q85 0 114.5 41t29.5 143v166q0 38 -0.5 55.5 t-3 44.5t-8 38t-15.5 26t-25.5 20.5t-38 10t-53.5 4.5h-174v58z" />
<glyph unicode="&#xd8b;" horiz-adv-x="1089" d="M620 -54v-268q61 0 116.5 8.5t114 31.5t104 59t82 95t52.5 136l-258 72q-35 -134 -211 -134zM245 888l220 -84q21 65 132 65q17 0 36.5 -4t44.5 -14.5t41 -34t16 -56.5l-230 2q-448 0 -448 -507v-92q0 -115 43 -210.5t111 -154t146.5 -90t155.5 -31.5v269 q-19 2 -36.5 5.5t-47 17.5t-50 35.5t-36.5 62.5t-16 96v92q0 119 39.5 178t146.5 59h469v245q0 94 -30.5 165.5t-84.5 114t-122 63.5t-148 21q-122 0 -223.5 -55.5t-128.5 -157.5z" />
<glyph unicode="&#xd8c;" horiz-adv-x="1852" d="M1439 -15q68 0 131 22t113.5 62.5t81 105t30.5 143.5v518q-3 121 -73.5 189t-165.5 68q-91 0 -156.5 -55t-65.5 -154v-36q0 -15 -9 -24t-20 -9q-12 0 -21 9t-9 24v232h-176v-305q0 -108 62.5 -166t147.5 -58q75 0 129.5 45t54.5 122v92q0 18 9.5 28t21.5 10 q11 0 19.5 -10t8.5 -28v-492q0 -50 -29.5 -78t-71.5 -28q-44 0 -76.5 28.5t-32.5 77.5v69h-243v-69q0 -81 29 -146t77.5 -105t108.5 -61t125 -21zM620 -54v-268q61 0 116.5 8.5t114 31.5t104 59t82 95t52.5 136l-258 72q-35 -134 -211 -134zM245 888l220 -84q21 65 132 65 q17 0 36.5 -4t44.5 -14.5t41 -34t16 -56.5l-230 2q-448 0 -448 -507v-92q0 -115 43 -210.5t111 -154t146.5 -90t155.5 -31.5v269q-19 2 -36.5 5.5t-47 17.5t-50 35.5t-36.5 62.5t-16 96v92q0 119 39.5 178t146.5 59h469v245q0 94 -30.5 165.5t-84.5 114t-122 63.5t-148 21 q-122 0 -223.5 -55.5t-128.5 -157.5z" />
<glyph unicode="&#xd8d;" horiz-adv-x="1961" d="M57 306v81h266v-60q0 -35 26.5 -55.5t62.5 -20.5t62 21t26 59v56h245v-56q0 -38 26 -59t62 -21t62 20.5t26 55.5v60h266v-81q0 -155 -93.5 -238t-255.5 -83q-144 0 -222 84q-77 -84 -208 -84q-158 0 -254.5 87.5t-96.5 233.5zM78 880q33 106 119 163.5t193 57.5 q128 0 232 -75q104 75 232 75q107 0 193 -57.5t119 -163.5l-226 -74q-7 24 -29.5 40.5t-60.5 16.5q-13 0 -27.5 -4t-32 -13t-30 -29t-15.5 -48h147q43 0 77 -3.5t77.5 -17.5t72 -38t48.5 -69t20 -107v-54h-266q0 10 -2 14q-8 48 -69 48h-456q-61 0 -69 -48q-2 -4 -2 -14 h-266v54q0 62 20 107t48.5 69t72 38t77.5 17.5t77 3.5h148q-3 28 -16 48t-30.5 29t-32 13t-27.5 4q-38 0 -60.5 -16.5t-29.5 -40.5zM1642 0q-123 0 -212.5 80.5t-89.5 220.5q0 59 17 110t51.5 92.5t94.5 65.5t139 24v-218q-36 0 -57 -19t-21 -55q0 -30 22.5 -52.5 t55.5 -22.5q30 0 50.5 21t20.5 54v430q-1 25 -4 41.5t-13 36.5t-33.5 30.5t-58.5 10.5h-172v249h206q129 0 217 -97t88 -240v-461q0 -98 -45.5 -168t-112 -101.5t-143.5 -31.5z" />
<glyph unicode="&#xd8e;" horiz-adv-x="2683" d="M2362 0q-123 0 -213 80.5t-90 220.5q0 59 17 110t52 92.5t95 65.5t139 24v-218q-36 0 -57.5 -19t-21.5 -55q0 -29 22.5 -52t56.5 -23q30 0 50.5 21t20.5 54v430q-1 25 -4 41.5t-13 36.5t-33.5 30.5t-58.5 10.5h-173v249h207q129 0 216.5 -97t87.5 -240v-461 q0 -98 -45 -168t-111.5 -101.5t-143.5 -31.5zM57 306v81h266v-60q0 -35 26.5 -55.5t62.5 -20.5t62 21t26 59v56h245v-56q0 -38 26 -59t62 -21t62 20.5t26 55.5v60h266v-81q0 -155 -93.5 -238t-255.5 -83q-144 0 -222 84q-77 -84 -208 -84q-158 0 -254.5 87.5t-96.5 233.5z M78 880q33 106 119 163.5t193 57.5q128 0 232 -75q104 75 232 75q107 0 193 -57.5t119 -163.5l-226 -74q-7 24 -29.5 40.5t-60.5 16.5q-13 0 -27.5 -4t-32 -13t-30 -29t-15.5 -48h147q43 0 77 -3.5t77.5 -17.5t72 -38t48.5 -69t20 -107v-54h-266q0 10 -2 14q-8 48 -69 48 h-456q-61 0 -69 -48q-2 -4 -2 -14h-266v54q0 62 20 107t48.5 69t72 38t77.5 17.5t77 3.5h148q-3 28 -16 48t-30.5 29t-32 13t-27.5 4q-38 0 -60.5 -16.5t-29.5 -40.5zM1642 0q-123 0 -212.5 80.5t-89.5 220.5q0 59 17 110t51.5 92.5t94.5 65.5t139 24v-218q-36 0 -57 -19 t-21 -55q0 -30 22.5 -52.5t55.5 -22.5q30 0 50.5 21t20.5 54v430q-1 25 -4 41.5t-13 36.5t-33.5 30.5t-58.5 10.5h-172v249h206q129 0 217 -97t88 -240v-461q0 -98 -45.5 -168t-112 -101.5t-143.5 -31.5z" />
<glyph unicode="&#xd8f;" horiz-adv-x="1871" d="M1426 168v8q-106 -199 -436 -199h-102q-342 0 -442 191q0 -75 -52.5 -127t-127.5 -52q-54 0 -98.5 29.5t-66.5 77.5q-1 1 -1 5q-43 104 -43 286h251q0 -31 2 -44q63 -16 100 -65q-10 55 -10 109h268q0 -74 53 -113t146 -39h138q94 0 146.5 39.5t52.5 112.5h268 q0 -60 -12 -111q39 51 102 67q2 13 2 44h250q0 -185 -42 -286q-21 -51 -65 -81.5t-101 -30.5q-75 0 -127.5 52t-52.5 127zM402 480q0 85 22 143.5t65 89.5t97 43.5t128 12.5h99q-3 28 -15.5 48t-30 29t-32 13t-27.5 4q-38 0 -60.5 -16.5t-29.5 -40.5l-74 25q-21 5 -58 5 q-34 0 -63 -10.5t-56.5 -36t-43 -77t-15.5 -124.5v-108h-251v155q0 194 115 327t285 133q57 0 119 -17q61 23 128 23q128 0 232 -75q104 75 232 75q67 0 128 -23q62 17 118 17q170 0 285 -133t115 -327v-155h-250v108q0 73 -15.5 124.5t-43 77t-56.5 36t-63 10.5 q-37 0 -58 -5l-74 -25q-7 24 -29.5 40.5t-60.5 16.5q-13 0 -27.5 -4t-32 -13t-30.5 -29t-16 -48h87q83 0 139 -11.5t101 -42.5t66 -88.5t21 -146.5h-266q0 12 -1 20t-5.5 19t-17 17t-32.5 6h-415q-67 0 -67 -62h-266z" />
<glyph unicode="&#xd90;" horiz-adv-x="2675" d="M2260 -15q-65 0 -125 21t-108.5 61t-77.5 105t-29 146v69h243v-69q0 -49 32.5 -77.5t76.5 -28.5q42 0 71.5 28t29.5 78v492q0 18 -8.5 28t-19.5 10q-12 0 -21.5 -10t-9.5 -28v-92q0 -77 -54.5 -122t-129.5 -45q-85 0 -147.5 58t-62.5 166v305h176v-232q0 -15 9 -24t21 -9 q11 0 20 9t9 24v36q0 99 65.5 154t156.5 55q95 0 165.5 -68t73.5 -189v-518q0 -79 -30.5 -143.5t-81 -105t-113.5 -62.5t-131 -22zM1426 168v8q-106 -199 -436 -199h-102q-342 0 -442 191q0 -75 -52.5 -127t-127.5 -52q-54 0 -98.5 29.5t-66.5 77.5q-1 1 -1 5 q-43 104 -43 286h251q0 -31 2 -44q63 -16 100 -65q-10 55 -10 109h268q0 -74 53 -113t146 -39h138q94 0 146.5 39.5t52.5 112.5h268q0 -60 -12 -111q39 51 102 67q2 13 2 44h250q0 -185 -42 -286q-21 -51 -65 -81.5t-101 -30.5q-75 0 -127.5 52t-52.5 127zM402 480 q0 85 22 143.5t65 89.5t97 43.5t128 12.5h99q-3 28 -15.5 48t-30 29t-32 13t-27.5 4q-38 0 -60.5 -16.5t-29.5 -40.5l-74 25q-21 5 -58 5q-34 0 -63 -10.5t-56.5 -36t-43 -77t-15.5 -124.5v-108h-251v155q0 194 115 327t285 133q57 0 119 -17q61 23 128 23q128 0 232 -75 q104 75 232 75q67 0 128 -23q62 17 118 17q170 0 285 -133t115 -327v-155h-250v108q0 73 -15.5 124.5t-43 77t-56.5 36t-63 10.5q-37 0 -58 -5l-74 -25q-7 24 -29.5 40.5t-60.5 16.5q-13 0 -27.5 -4t-32 -13t-30.5 -29t-16 -48h87q83 0 139 -11.5t101 -42.5t66 -88.5 t21 -146.5h-266q0 12 -1 20t-5.5 19t-17 17t-32.5 6h-415q-67 0 -67 -62h-266z" />
<glyph unicode="&#xd91;" horiz-adv-x="1156" d="M126 769q18 59 52 100.5t75 60t74 26t65 7.5q64 0 123 -23t92 -61q34 -40 48.5 -85.5t14.5 -123.5v-188h-161q-113 0 -113 -109q0 -43 37.5 -74t108.5 -31v-278q-178 0 -294 111t-116 266q0 73 21 115h-96v196h416v11q0 39 -23.5 58t-57.5 19q-64 0 -76 -46zM762 869 q-138 27 -202 111.5t-64 200.5v264h153q101 0 179 -22.5t141 -73t96.5 -141.5t33.5 -218v-511q0 -489 -450 -489v278q35 0 63 7.5t57 28t45.5 65.5t16.5 110v474q0 120 -37.5 173t-144.5 53q0 -70 29.5 -102t83.5 -43v-165z" />
<glyph unicode="&#xd92;" horiz-adv-x="1156" d="M57 482v196h416v11q0 39 -23.5 58t-57.5 19q-64 0 -76 -46l-190 49q18 59 52 100.5t75 60t74 26t65 7.5q64 0 123 -23t92 -61q34 -40 48.5 -85.5t14.5 -123.5v-188h-161q-113 0 -113 -109q0 -43 37.5 -74t108.5 -31v-278q-178 0 -294 111t-116 266q0 73 21 115h-96z M496 1181v264h153q103 0 187 -25v148h261v-521q2 -17 2 -57v-511q0 -489 -450 -489v278q35 0 63 7.5t57 28t45.5 65.5t16.5 110v474q0 120 -37.5 173t-144.5 53q0 -70 29.5 -102t83.5 -43v-165q-138 27 -202 111.5t-64 200.5z" />
<glyph unicode="&#xd93;" horiz-adv-x="2011" d="M982 769q18 59 52 100.5t75 60t74 26t65 7.5q64 0 122.5 -22.5t91.5 -61.5q34 -40 48.5 -85.5t14.5 -123.5v-188h-160q-113 0 -113 -109q0 -43 37 -74t108 -31v-278q-178 0 -293.5 111t-115.5 266q0 73 21 115h-96v196h415v11q0 39 -23 58t-57 19q-13 0 -26.5 -2.5 t-29.5 -14t-21 -29.5zM1617 869q-138 27 -202 111.5t-64 200.5v264h153q101 0 179 -22.5t141 -73t96.5 -141.5t33.5 -218v-511q0 -489 -450 -489v278q35 0 63 7.5t57 28t45.5 65.5t16.5 110v474q0 120 -37.5 173t-144.5 53q0 -70 29.5 -102t83.5 -43v-165zM477 831h-58 q-43 0 -73 -33t-30 -88v-331q0 -68 16.5 -104t67.5 -36v-249h-40q-57 0 -104 16t-78 41.5t-54 61t-35.5 70t-20 75t-9.5 68.5t-2 57v331q0 49 8.5 96t32 98t60 89t98.5 62.5t142 24.5h119q66 0 122 -24.5t91 -63.5t56 -82t26 -85l-234 -59q-12 65 -101 65zM446 429v249h166 q96 0 150.5 -42t54.5 -148v-187q0 -130 -73 -220.5t-193 -90.5h-59v249q67 0 67 75v63q0 34 -19 43t-65 9h-29z" />
<glyph unicode="&#xd94;" horiz-adv-x="1159" d="M385 -15q-146 0 -237 88t-91 233v349q0 116 77.5 183t179.5 67q93 0 158.5 -54.5t65.5 -153.5v-31q0 -15 9 -23.5t20 -8.5q12 0 21 8.5t9 23.5v232h176v-247q0 -101 -62.5 -157t-145.5 -56q-77 0 -131.5 46t-54.5 128v16q0 18 -9.5 28t-21.5 10q-11 0 -19.5 -10t-8.5 -28 v-305q0 -36 25 -57t59 -21q33 0 56.5 20t23.5 58v64h192v-64q0 -37 23.5 -56.5t56.5 -19.5q34 0 59 20.5t25 55.5v649q0 34 -4 61.5t-9 48t-16.5 36t-20.5 26t-28 17.5t-31 10.5t-36.5 5t-39 2t-44.5 0.5v266q258 0 374.5 -102t116.5 -348v-689q0 -145 -90.5 -233 t-236.5 -88q-122 0 -195 82q-75 -82 -195 -82zM329 1014l-262 69q0 103 63.5 187.5t162.5 129.5t208 45v-264q-80 0 -126 -36t-46 -131z" />
<glyph unicode="&#xd95;" horiz-adv-x="1159" d="M385 -15q-146 0 -237 88t-91 233v349q0 116 77.5 183t179.5 67q93 0 158.5 -54.5t65.5 -153.5v-31q0 -15 9 -23.5t20 -8.5q12 0 21 8.5t9 23.5v232h176v-247q0 -103 -59.5 -158t-141.5 -55q-78 0 -135.5 47.5t-57.5 126.5v16q0 18 -9.5 28t-21.5 10q-11 0 -19.5 -10 t-8.5 -28v-305q0 -36 25 -57t59 -21q33 0 56.5 20t23.5 58v64h192v-64q0 -37 23.5 -56.5t56.5 -19.5q34 0 59 20.5t25 55.5v548q0 77 -44.5 102.5t-129.5 25.5h-536v249h67q-55 48 -55 113q0 77 69 142t158 65h175v-222h-87q-67 0 -67 -52q0 -21 18 -33.5t49 -12.5h209 q225 0 330.5 -85.5t105.5 -255.5v-601q0 -145 -90.5 -233t-236.5 -88q-122 0 -195 82q-75 -82 -195 -82zM825 1288q0 36 -31 47t-103 11h-38v222h99q83 0 143 -14.5t96 -38t57 -61t28 -76t7 -90.5h-258z" />
<glyph unicode="&#xd96;" horiz-adv-x="1973" d="M1560 -15q-88 0 -164 35.5t-126.5 113t-50.5 184.5v69h243v-69q0 -49 32.5 -77.5t76.5 -28.5q42 0 72 28t30 78v492q0 17 -9 27.5t-20 10.5q-12 0 -21 -10t-9 -28v-92q0 -77 -54.5 -122t-129.5 -45q-85 0 -148 58t-63 166v305h176v-232q0 -15 9.5 -24t21.5 -9q11 0 20 9 t9 24v36q0 99 65.5 154t156.5 55q95 0 165.5 -68t73.5 -189v-518q0 -79 -30.5 -143.5t-81 -105t-113.5 -62.5t-131 -22zM385 -15q-146 0 -237 88t-91 233v349q0 116 77.5 183t179.5 67q93 0 158.5 -54.5t65.5 -153.5v-31q0 -15 9 -23.5t20 -8.5q12 0 21 8.5t9 23.5v232h176 v-247q0 -101 -62.5 -157t-145.5 -56q-77 0 -131.5 46t-54.5 128v16q0 18 -9.5 28t-21.5 10q-11 0 -19.5 -10t-8.5 -28v-305q0 -36 25 -57t59 -21q33 0 56.5 20t23.5 58v64h192v-64q0 -37 23.5 -56.5t56.5 -19.5q34 0 59 20.5t25 55.5v649q0 34 -4 61.5t-9 48t-16.5 36 t-20.5 26t-28 17.5t-31 10.5t-36.5 5t-39 2t-44.5 0.5v266q258 0 374.5 -102t116.5 -348v-689q0 -145 -90.5 -233t-236.5 -88q-122 0 -195 82q-75 -82 -195 -82zM329 1014l-262 69q0 103 63.5 187.5t162.5 129.5t208 45v-264q-80 0 -126 -36t-46 -131z" />
<glyph unicode="&#xd9a;" horiz-adv-x="1531" d="M57 840q10 67 44.5 117t83.5 76.5t97.5 39t96.5 12.5q91 0 158.5 -32.5t99.5 -78.5q163 125 368 125q93 0 176 -30t149 -88t105 -153t39 -214v-222q0 -85 -21.5 -155.5t-65.5 -124.5t-117.5 -84t-170.5 -30v274q35 0 58.5 11.5t33 32t12.5 37.5t3 39v196q0 105 -69 174 t-163 69q-87 0 -161 -65l-467 -379v-81q0 -25 17 -39t41 -14q22 0 38.5 14t16.5 39v81h192v-77q0 -27 17 -42t40 -15q24 0 41 15t17 42v77q0 51 -18.5 84.5t-75.5 56.5l185 150q87 -37 121.5 -101t34.5 -160v-157q0 -121 -84.5 -197t-191.5 -76q-116 0 -182 82 q-55 -82 -166 -82q-99 0 -182 64t-83 152v31q0 24 -2 37.5t-12 26t-30 12.5l-23 -4v190l397 323q-25 35 -75 35q-46 0 -72 -26t-26 -59z" />
<glyph unicode="&#xd9b;" horiz-adv-x="1196" d="M842 -13q-46 0 -86 11v-122h-258v624q0 47 -26.5 73t-63.5 26t-64.5 -26.5t-27.5 -72.5v-113q0 -61 17.5 -90t76.5 -29v-268q-84 0 -148 20.5t-102.5 53t-62 81t-32 98t-8.5 109.5v161q0 84 31 151.5t82.5 108t114.5 61.5t132 21q88 0 164 -32.5t125.5 -100t49.5 -158.5 v-237q0 -28 16.5 -43.5t40.5 -15.5t41 15.5t17 43.5v620q0 120 -37.5 171t-144.5 51h-59v266h59q80 0 145.5 -14t123.5 -48.5t97 -89t61.5 -139.5t22.5 -197v-576q0 -104 -24.5 -182.5t-67.5 -123.5t-94.5 -66.5t-110.5 -21.5zM350 1014l-262 69q0 103 64 187.5t163 129.5 t208 45v-266q-80 0 -126.5 -35t-46.5 -130z" />
<glyph unicode="&#xd9c;" horiz-adv-x="1372" d="M434 -15q-190 0 -283.5 108.5t-93.5 285.5v306q0 177 93.5 286t283.5 109v-274q-35 0 -58.5 -13.5t-33 -37.5t-12.5 -43.5t-3 -45.5v-287q0 -121 107 -121v-273zM938 -15v273q107 0 107 121v287q0 26 -3 45.5t-12.5 43.5t-33 37.5t-58.5 13.5v274q190 0 283.5 -109 t93.5 -286v-306q0 -177 -93.5 -285.5t-283.5 -108.5zM486 461v209q0 72 9 130t33 111.5t62 89.5t99 57.5t142 21.5v-274q-14 0 -25.5 -2.5t-19.5 -9t-14.5 -12t-10 -17t-5.5 -18t-3 -20.5t-1 -19.5v-20.5v-17v-12q130 -35 130 -245v-95q0 -172 -85 -252.5t-255 -80.5v273 q35 0 58 10.5t31.5 29t11 31.5t2.5 31t-2.5 30.5t-11 31.5t-31.5 29t-58 10h-56z" />
<glyph unicode="&#xd9d;" horiz-adv-x="1314" d="M440 -21q-140 0 -226 88t-86 234v80h266v-63q0 -23 18.5 -44t56.5 -21t55.5 20.5t17.5 44.5q0 28 15 50t50 22h172q35 0 50 -22t15 -50q0 -24 17.5 -44.5t55.5 -20.5t56 21t18 44v63h267v-80q0 -146 -86 -234t-226 -88q-104 0 -154.5 40t-50.5 111q0 30 -14.5 46.5 t-33.5 16.5q-20 0 -34 -16.5t-14 -46.5q0 -71 -50.5 -111t-154.5 -40zM149 880q33 106 119 163.5t193 57.5q129 0 232 -75q103 75 231 75q107 0 193 -57.5t119 -163.5l-225 -74q-7 24 -29.5 40.5t-60.5 16.5q-13 0 -27.5 -4t-32 -13t-30.5 -29t-16 -48h148q43 0 77 -3.5 t77.5 -17.5t72 -38t48.5 -69t20 -107v-54h-267q0 26 -16.5 44t-53.5 18h-450q-42 0 -59.5 -19.5t-17.5 -42.5h-266q0 2 1 18t1 25q3 16 6 19h-79v227h513q-3 28 -15.5 48t-30 29t-32 13t-27.5 4q-38 0 -60.5 -16.5t-29.5 -40.5z" />
<glyph unicode="&#xd9e;" d="M406 -15q-155 0 -252 88t-97 233v71q0 42 1 66.5t6 60t15 56t29.5 45t47.5 37t70 21.5t96 9h116q20 0 32 13.5t12 30.5q0 19 -11 31.5t-33 12.5h-105q-22 0 -33 -13t-11 -31h-188q0 96 60.5 165.5t169.5 69.5h125q108 0 168.5 -70t60.5 -165q0 -97 -60.5 -166.5 t-168.5 -69.5h-71q-63 0 -63 -65v-97q0 -23 18 -44t56 -21t55.5 20.5t17.5 44.5v69h191v-69q0 -24 17.5 -44.5t55.5 -20.5t56.5 21t18.5 44v631q0 53 -3.5 86.5t-14 63t-31 44.5t-53 23.5t-80.5 8.5v266q85 0 151 -12.5t124 -43.5t96 -81.5t59.5 -129t21.5 -183.5v-685 q0 -145 -85.5 -233t-219.5 -88q-124 0 -199 82q-62 -82 -168 -82zM69 1080q0 103 68 187.5t170.5 129t211.5 44.5v-264q-188 0 -188 -166z" />
<glyph unicode="&#xd9f;" horiz-adv-x="1743" d="M57 400v149q0 73 4.5 129.5t16.5 113.5t33 99t55 79t81 60.5t112.5 36.5t147.5 13h299v-274q-35 0 -58.5 -13.5t-33 -37.5t-12.5 -43.5t-3 -45.5v-287q0 -121 107 -121v-273q-190 0 -283.5 108.5t-93.5 285.5v306q0 69 11 121h-11q-68 0 -89.5 -59t-21.5 -198v-149 q0 -90 6 -138t34.5 -109t87.5 -132l-249 -77q-81 104 -110.5 209t-29.5 247zM1309 -15v273q107 0 107 121v287q0 26 -3 45.5t-12.5 43.5t-33 37.5t-58.5 13.5v274q190 0 283.5 -109t93.5 -286v-306q0 -177 -93.5 -285.5t-283.5 -108.5zM857 461v209q0 72 9 130t33 111.5 t62 89.5t99 57.5t142 21.5v-274q-16 0 -28.5 -4.5t-21 -9.5t-14 -16.5t-8.5 -18t-4.5 -23t-1.5 -22v-23v-19.5v-12q130 -35 130 -245v-95q0 -172 -85 -252.5t-256 -80.5v273q35 0 58 10.5t31.5 29t11 31.5t2.5 31t-2.5 30.5t-11 31.5t-31.5 29t-58 10h-56z" />
<glyph unicode="&#xda0;" horiz-adv-x="1156" d="M542 -10v268q-70 0 -107 35t-37 82q0 43 30 75t81 32h161v188q0 78 -14.5 123.5t-48.5 85.5q-33 38 -92 61t-123 23q-32 0 -65 -7.5t-74 -26t-75 -60t-52 -100.5l190 -49q12 46 76 46q34 0 57.5 -19t23.5 -58v-11h-416v-196h96q-21 -44 -21 -115q0 -155 116 -266 t294 -111zM649 -10q450 0 450 489v516q0 126 -33.5 215.5t-96.5 139.5t-141 72.5t-179 22.5v-266q107 0 144.5 -53t37.5 -173v-474q0 -69 -16.5 -115.5t-45.5 -68t-57 -29.5t-63 -8v-268zM389 1014q0 87 44 127t109 40v264q-102 0 -198 -47.5t-157 -132t-61 -182.5z" />
<glyph unicode="&#xda1;" horiz-adv-x="1253" d="M553 -23q-252 0 -370 101t-118 309h268q0 -74 53 -113t146 -39h138q94 0 146.5 39.5t52.5 112.5v65l-71 -2q-141 0 -231 92h-167q-67 0 -67 -62h-266q0 85 22 143.5t65 89.5t97 43.5t128 12.5h100q0 50 -36 72t-70 22q-38 0 -60.5 -16.5t-29.5 -40.5l-226 74 q33 106 119 163.5t193 57.5q143 0 230 -81l377 498l278 -73l-301 -394q76 -43 121.5 -118t45.5 -164h-238q0 33 -23.5 57t-56.5 24t-56.5 -24t-23.5 -57t23.5 -56.5t56.5 -23.5h147q188 0 188 -188v-114q0 -200 -121 -305t-361 -105h-102z" />
<glyph unicode="&#xda2;" horiz-adv-x="1249" d="M57 880q33 106 119 163.5t193 57.5q128 0 230 -73l373 490l278 -73l-282 -371q132 -54 177 -194l-226 -74q-7 24 -29.5 40.5t-60.5 16.5q-13 0 -27.5 -4t-32 -13t-30.5 -29t-16 -48h87q83 0 139 -11.5t101 -42.5t66 -88.5t21 -146.5h-266q0 12 -1 20t-5.5 19t-17 17 t-32.5 6h-415q-67 0 -67 -62h-266q0 85 22 143.5t65 89.5t97 43.5t128 12.5h100q-3 28 -16 48t-30.5 29t-32 13t-27.5 4q-38 0 -60.5 -16.5t-29.5 -40.5zM553 -23q-252 0 -370 101t-118 309h268q0 -74 53 -113t146 -39h138q94 0 146.5 39.5t52.5 112.5h268q0 -200 -121 -305 t-361 -105h-102z" />
<glyph unicode="&#xda3;" horiz-adv-x="2180" d="M57 306v190l397 323q-27 35 -75 35q-46 0 -72 -26t-26 -59l-224 71q10 67 44.5 117t83.5 76.5t97.5 39t96.5 12.5q91 0 159.5 -33.5t98.5 -79.5l4 2q177 132 414 132q79 0 150 -16t134.5 -52t109 -89t72 -131t26.5 -175h-43q-65 0 -102 -31t-37 -111v-183q0 -23 18 -44 t56 -21t55.5 20.5t17.5 44.5v69h191v-69q0 -24 17.5 -44.5t55.5 -20.5t56.5 21t18.5 44v635q0 127 -40 176.5t-157 49.5v266q85 0 152.5 -12.5t128 -43.5t100.5 -81.5t63 -129.5t23 -183v-689q0 -145 -85.5 -233t-219.5 -88q-124 0 -199 82q-62 -82 -168 -82 q-155 0 -251.5 88t-96.5 233v195q0 96 23 171.5t93 125.5q-64 50 -168 50q-138 0 -236 -82l-467 -379v-81q0 -25 17 -39t41 -14q22 0 38.5 14t16.5 39v81h192v-77q0 -27 17 -42t40 -15q24 0 41 15t17 42v77q0 51 -18.5 84.5t-75.5 56.5l185 150q87 -37 121.5 -101t34.5 -160 v-157q0 -121 -84.5 -197t-191.5 -76q-116 0 -182 82q-55 -82 -166 -82q-99 0 -182 64t-83 152v31q0 24 -2 37.5t-12 26t-30 12.5zM1145 1219q52 105 162 165.5t240 60.5v-264q-101 0 -142 -56z" />
<glyph unicode="&#xda4;" horiz-adv-x="2237" d="M400 306v190l396 323q-25 35 -74 35q-46 0 -72 -26t-26 -59q-117 35 -145 35q-31 0 -57 -11t-51 -37.5t-39 -79t-14 -127.5v-172q0 -121 27 -196.5t116 -182.5l-249 -76q-84 108 -119.5 214.5t-35.5 240.5v172q0 125 35 225t94 161t130.5 93t148.5 32q54 0 90 -11 q75 36 167 36t161 -34t99 -81q106 85 201 125t235 40v-251q-42 0 -78.5 -9t-73 -30.5t-54 -34.5t-56.5 -44l-467 -379v-81q0 -25 16.5 -39t40.5 -14q22 0 39 14t17 39v81h191v-77q0 -27 17 -42t41 -15q23 0 40 15t17 42v77q0 51 -18.5 84.5t-75.5 56.5l186 150 q68 -28 103 -75q109 157 370 157h84q0 29 -10 50.5t-29.5 34.5t-40 21.5t-51 12t-51.5 4.5t-51 1v249q507 0 507 -373v-259h-358q-34 0 -57.5 -4t-49 -15.5t-39 -38t-13.5 -66.5q0 -119 161 -119h71q56 0 91 13.5t52 55.5l245 -65q-35 -121 -143.5 -192.5t-244.5 -71.5h-71 q-233 0 -350 134q-37 -68 -104 -106.5t-141 -38.5q-116 0 -182 82q-55 -82 -167 -82q-99 0 -181.5 64t-82.5 152v31q0 24 -2 37.5t-12 26t-30 12.5zM1885 -392q-167 0 -261.5 85t-94.5 219h263q0 -24 26.5 -43.5t66.5 -19.5q32 0 60.5 16t35.5 43l255 -65 q-35 -105 -121.5 -170t-229.5 -65z" />
<glyph unicode="&#xda5;" horiz-adv-x="2072" d="M1512 -15q-195 0 -308 126q-79 -126 -291 -126v273q35 0 58 10.5t31.5 29t11 31.5t2.5 31t-2.5 30.5t-11 31.5t-31.5 29t-58 10h-56v209q0 72 9 130t33 111.5t62 89.5t99 57.5t142 21.5h54v-274h-54q-16 0 -28.5 -4.5t-21 -9.5t-14 -16.5t-8.5 -18t-4.5 -23t-1.5 -22v-23 v-19.5v-15q43 -18 78 -69q104 120 297 120h95q0 30 -16 51.5t-38 31t-53.5 14t-53.5 4.5t-47 -1l-25 -2v276q40 0 62 -0.5t68.5 -3.5t76 -9.5t73 -19.5t72 -31t60.5 -46.5t51 -65t31.5 -87t12.5 -111.5v-258h-358q-65 0 -99.5 -29.5t-34.5 -70.5q0 -42 36 -72.5t100 -30.5 h71q56 0 91 13.5t52 55.5l245 -65q-35 -121 -143 -192.5t-245 -71.5h-71zM57 377v172q0 73 4.5 129.5t16.5 113.5t33 99t55 79t81 60.5t112.5 36.5t147.5 13h299v-274q-35 0 -58.5 -13.5t-33 -37.5t-12.5 -43.5t-3 -45.5v-287q0 -121 107 -121v-273q-190 0 -283.5 108.5 t-93.5 285.5v306q0 69 11 121h-11q-68 0 -89.5 -59t-21.5 -198v-172q0 -121 27 -196.5t116 -182.5l-249 -76q-84 108 -119.5 214.5t-35.5 240.5zM1723 -406q-167 0 -261.5 85.5t-94.5 219.5h262q0 -25 27 -44.5t67 -19.5q32 0 60 16.5t35 43.5l255 -65q-35 -106 -121 -171 t-229 -65z" />
<glyph unicode="&#xda6;" horiz-adv-x="1584" d="M203 -78q-83 106 -114.5 207t-31.5 238v268q0 194 119 327t293 133q85 0 130 -10q54 16 105 16q128 0 230 -73l373 490l278 -73l-282 -371q132 -54 177 -194l-226 -74q-7 24 -29.5 40.5t-60.5 16.5q-13 0 -27.5 -4t-32 -13t-30.5 -29t-16 -48h87q83 0 139 -11.5 t101 -42.5t66 -88.5t21 -146.5h-266q0 12 -1 20t-5.5 19t-17 17t-32.5 6h-415q-67 0 -67 -62h-266q0 85 22 143.5t65 89.5t97 43.5t128 12.5h99q-3 28 -15.5 48t-30 29t-32 13t-27.5 4q-38 0 -60.5 -16.5t-29.5 -40.5l-61 19q-32 11 -71 11q-34 0 -63 -10.5t-56.5 -36 t-43 -77t-15.5 -124.5v-211q0 -120 27.5 -196t116.5 -183zM888 -23q-252 0 -370 101t-118 309h268q0 -74 53 -113t146 -39h138q94 0 146.5 39.5t52.5 112.5h268q0 -200 -121 -305t-361 -105h-102z" />
<glyph unicode="&#xda7;" horiz-adv-x="1068" d="M57 501v-103q0 -68 25 -137.5t72.5 -131t127.5 -100.5t179 -39v268q-69 0 -104 51t-35 116v76q0 80 37 111t102 31v264q-78 0 -140.5 -14.5t-104 -38t-72 -58.5t-47 -69t-26 -77.5t-12 -76t-2.5 -72.5zM568 -10q108 0 190 31t128.5 77.5t76 111.5t39 122.5t9.5 121.5v541 q0 228 -108 339t-335 111v-266q41 0 69 -7t54 -27.5t39 -63.5t13 -109v-497q0 -68 -13 -113t-39 -66.5t-54.5 -29.5t-68.5 -8v-268zM57 1083l263 -69q0 88 40 127.5t101 39.5v264q-99 0 -192 -47.5t-152.5 -132t-59.5 -182.5z" />
<glyph unicode="&#xda8;" d="M406 -15q-155 0 -252 88t-97 233v195q0 40 2.5 72.5t12 76t26 77.5t47 69t72 58.5t104 38t140.5 14.5h42v-264h-42q-65 0 -102 -31t-37 -111v-183q0 -23 18 -44t56 -21t55.5 20.5t17.5 44.5v69h191v-69q0 -24 17.5 -44.5t55.5 -20.5q39 0 58 21t19 44v635 q0 120 -37.5 173t-144.5 53q0 -70 29.5 -102t83.5 -43v-165q-138 27 -202 111.5t-64 200.5v264h153q101 0 179 -22.5t141 -73t96.5 -141.5t33.5 -218v-684q0 -145 -85.5 -233t-219.5 -88q-124 0 -199 82q-62 -82 -168 -82z" />
<glyph unicode="&#xda9;" horiz-adv-x="1209" d="M480 -15q-152 0 -247 88t-95 233v113q0 51 15 61h-96v196h481q0 46 -23.5 67t-57.5 21q-13 0 -26.5 -2.5t-29 -14t-20.5 -29.5l-190 50q14 48 40.5 84.5t54.5 56.5t62 32.5t59.5 16t49.5 3.5q64 0 123 -23t92 -61q34 -40 48.5 -85.5t14.5 -123.5v-188h-272q-67 0 -67 -61 v-101q0 -23 18.5 -44t56.5 -21t55.5 20.5t17.5 44.5v69h191v-69q0 -24 17.5 -44.5t55.5 -20.5t56 21t18 44v635q0 67 -5.5 105t-24.5 68t-55 41.5t-96 11.5v266q85 0 151 -12.5t124 -43.5t95.5 -81.5t59 -129t21.5 -183.5v-689q0 -145 -85 -233t-219 -88q-124 0 -199 82 q-62 -82 -169 -82zM144 1083q0 103 67.5 187.5t170 129.5t211.5 45v-264q-187 0 -187 -167z" />
<glyph unicode="&#xdaa;" horiz-adv-x="1209" d="M480 -15q-152 0 -247 88t-95 233v113q0 51 15 61h-96v196h481q0 46 -23.5 67t-57.5 21q-13 0 -26.5 -2.5t-29 -14t-20.5 -29.5l-190 50q14 48 40.5 84.5t54.5 56.5t62 32.5t59.5 16t49.5 3.5q64 0 123 -23t92 -61q34 -40 48.5 -85.5t14.5 -123.5v-188h-272q-67 0 -67 -61 v-101q0 -23 18.5 -44t56.5 -21t55.5 20.5t17.5 44.5v69h191v-69q0 -24 17.5 -44.5t55.5 -20.5q39 0 57.5 21t18.5 44v635q0 120 -37.5 173t-144.5 53q0 -70 29.5 -102t83.5 -43v-165q-138 27 -202 111.5t-64 200.5v264h153q101 0 179 -22.5t141 -73t96.5 -141.5t33.5 -218 v-684q0 -145 -85 -233t-219 -88q-124 0 -199 82q-62 -82 -169 -82z" />
<glyph unicode="&#xdab;" horiz-adv-x="1946" d="M0 50q14 40 40 81t64.5 81.5t94.5 66t119 25.5q55 0 150.5 -18t130.5 -18q34 0 56.5 7t42 27t28.5 60t9 103v192q0 41 -2.5 70t-13.5 66t-30.5 59.5t-57 38.5t-89.5 16q-78 0 -120.5 -42.5t-42.5 -100.5q0 -49 32.5 -85t89.5 -36h108v-256h-148q-145 0 -244.5 102 t-99.5 273q0 95 36.5 172.5t97 125.5t135.5 74t156 26q65 0 128 -10l279 368l278 -73l-325 -427q50 -67 67 -156t17 -205v-192q0 -219 -83 -342t-248 -123q-41 0 -143 26t-146 26q-24 0 -44 -7t-32 -16.5t-20 -19.5t-11 -17l-3 -7zM1225 480l2 190q0 72 -21.5 104t-53.5 32 q-12 0 -21.5 -1.5t-15 -3t-10.5 -5.5t-7 -5.5t-5 -6t-4 -5.5l-76 239q6 9 23 21t58.5 25.5t90.5 13.5q109 0 180 -79q79 79 208 79q146 0 230.5 -76t85.5 -227v-295h-266v232q0 44 -13 68t-56 24q-71 0 -71 -92v-232h-258zM1053 314v73h268v-29q0 -60 45 -88.5t102 -28.5 q39 0 71 8t58 34.5t26 70.5v33h266v-41q0 -87 -33.5 -156t-92 -112.5t-133.5 -66t-160 -22.5q-201 0 -309 91t-108 234z" />
<glyph unicode="&#xdac;" horiz-adv-x="1510" d="M781 -15q-152 0 -247.5 88t-95.5 233v75q0 50 16 61h-58v195h414q0 47 -30.5 73.5t-67.5 26.5q-77 0 -107 -46l-15 6q-68 28 -115 28q-34 0 -62.5 -11.5t-54.5 -38t-41 -78t-15 -124.5v-71q0 -120 27.5 -196t116.5 -183l-249 -77q-81 104 -110.5 209t-29.5 247v128 q0 192 119 314.5t285 122.5q67 0 138 -23q58 17 113 17q86 0 150.5 -28.5t101 -77t54 -105t17.5 -120.5v-188h-271q-67 0 -67 -61v-63q0 -23 18 -44t56 -21t55.5 20.5t17.5 44.5v69h191v-69q0 -24 17.5 -44.5t55.5 -20.5t56.5 21t18.5 44v635q0 53 -3.5 86.5t-14 63 t-31 44.5t-53 23.5t-80.5 8.5v266q85 0 151 -12.5t124 -43.5t96 -81.5t59.5 -129t21.5 -183.5v-689q0 -145 -85.5 -233t-219.5 -88q-124 0 -199 82q-62 -82 -168 -82zM444 1083q0 103 68 187.5t170.5 129.5t211.5 45v-264q-188 0 -188 -167z" />
<glyph unicode="&#xdad;" horiz-adv-x="1475" d="M57 295v201l404 329q-26 29 -69 29q-46 0 -71.5 -26t-25.5 -59l-224 71q10 67 44.5 117t83 76.5t97 39t96.5 12.5q83 0 159.5 -36t101.5 -71q74 54 144 81.5t164 27.5q89 0 170 -30.5t145 -87.5t102 -149t38 -206v-222q0 -178 -92 -286t-283 -108v274q35 0 58.5 11.5 t33 32t12.5 37.5t3 39v196q0 104 -58.5 164.5t-140.5 60.5q-79 0 -136 -45l-457 -362q11 -13 31.5 -43t34 -46t35 -36t46.5 -29t56 -9q64 0 109.5 36t45.5 92q0 87 -94 127l186 149q159 -70 159 -293q0 -153 -108.5 -261t-289.5 -108q-95 0 -189 52t-166 156 q-4 6 -16.5 24.5t-17.5 25.5t-16.5 21t-20.5 19.5t-22.5 10.5t-28.5 5q-11 0 -33 -4z" />
<glyph unicode="&#xdae;" horiz-adv-x="1073" d="M413 1181v264h154q101 0 179 -22.5t140.5 -73t96 -141.5t33.5 -218v-511q0 -489 -449 -489v278q27 0 50 4t48 17.5t42.5 35.5t29 61.5t11.5 92.5v474q0 121 -37.5 173.5t-143.5 52.5q0 -70 29 -102t83 -43v-165q-138 27 -202 111.5t-64 200.5zM57 501q0 40 2.5 72.5 t12 76t26 77.5t47 69t72 58.5t104 38t140.5 14.5v-264q-65 0 -102 -31t-37 -111v-76q0 -61 35 -109t104 -48v-278q-99 0 -179 39t-127.5 100.5t-72.5 131t-25 137.5v103z" />
<glyph unicode="&#xdaf;" horiz-adv-x="1056" d="M706 -390q143 0 229.5 65t121.5 170l-255 65q-7 -27 -35.5 -43t-60.5 -16q-40 0 -67 19.5t-27 43.5h-262q0 -134 94.5 -219t261.5 -85zM57 379q0 -96 35 -170.5t96.5 -119t138 -67t165.5 -22.5h71q137 0 245 71.5t143 192.5l-245 65q-17 -42 -52 -55.5t-91 -13.5h-71 q-161 0 -161 119q0 40 13.5 66.5t39 38t49 15.5t57.5 4h356v261q0 82 -33.5 149t-89.5 108t-124.5 63t-141.5 22q-123 0 -220 -58.5t-126 -168.5l226 -75q9 33 47 52t83 19q55 0 93.5 -27t38.5 -79h-109q-198 0 -315.5 -100t-117.5 -290z" />
<glyph unicode="&#xdb0;" d="M406 -15q-155 0 -252 88t-97 233v195q0 40 2.5 72.5t12 76t26 77.5t47 69t72 58.5t104 38t140.5 14.5h42v-264h-42q-65 0 -102 -31t-37 -111v-183q0 -23 18 -44t56 -21t55.5 20.5t17.5 44.5v69h191v-69q0 -24 17.5 -44.5t55.5 -20.5t56.5 21t18.5 44v635q0 53 -3.5 86.5 t-14 63t-31 44.5t-53 23.5t-80.5 8.5v266q85 0 151 -12.5t124 -43.5t96 -81.5t59.5 -129t21.5 -183.5v-689q0 -145 -85.5 -233t-219.5 -88q-124 0 -199 82q-62 -82 -168 -82zM69 1083q0 103 68 187.5t170.5 129.5t211.5 45v-264q-188 0 -188 -167z" />
<glyph unicode="&#xdb1;" horiz-adv-x="1450" d="M1018 -15v273q107 0 107 121v228q0 102 -67 165t-156 63q-113 0 -188 -100l-149 -197q-75 -100 -127 -151.5t-105 -64.5q58 -79 199 -79q72 0 116.5 45t44.5 101q0 60 -50 91l146 198q85 -44 128.5 -124t43.5 -175q0 -74 -27.5 -143.5t-78.5 -126t-133 -90.5t-182 -34 q-218 0 -350.5 132.5t-132.5 372.5v168h226v-76h4q30 0 123 136q9 15 28 43.5t29 42.5q-12 26 -36.5 38t-47.5 12q-46 0 -72 -26t-26 -59l-224 71q10 67 44.5 117t83.5 76.5t97.5 39t96.5 12.5q69 0 133.5 -27.5t97.5 -60.5q121 102 297 102q72 0 141 -18.5t131 -56.5 t108.5 -91t74 -127.5t27.5 -160.5v-266q0 -85 -21.5 -155.5t-65.5 -124.5t-117.5 -84t-170.5 -30z" />
<glyph unicode="&#xdb3;" horiz-adv-x="1420" d="M859 0q-89 0 -165.5 22.5t-137.5 67t-96 119t-35 170.5q0 189 117 286t315 97h110q0 32 -16 55t-40.5 33.5t-44.5 14.5t-37 4q-111 0 -132 -65q-72 27 -138 27q-48 0 -88.5 -13.5t-76 -43t-56 -83.5t-20.5 -128v-163q0 -90 6 -138t34.5 -109t87.5 -132l-249 -77 q-81 104 -110.5 209t-29.5 247v163q0 125 37 226t100.5 165t145 97.5t173.5 33.5q61 0 126 -17q85 33 190 33q81 0 149 -21t122 -63.5t84.5 -114t30.5 -165.5l-2 -234h-356q-33 0 -57 -4t-49.5 -15.5t-38.5 -38t-13 -66.5q0 -119 160 -119h71q56 0 91.5 13.5t52.5 55.5 l245 -65q-35 -121 -143.5 -192.5t-245.5 -71.5h-71zM1070 -390q-167 0 -261.5 85t-94.5 219h262q0 -24 27 -43.5t67 -19.5q32 0 60.5 16t35.5 43l254 -65q-35 -105 -121 -170t-229 -65z" />
<glyph unicode="&#xdb4;" horiz-adv-x="1202" d="M57 880q33 106 119 163.5t193 57.5q128 0 232 -75q103 75 232 75q107 0 193 -57.5t119 -163.5l-226 -74q-7 24 -29.5 40.5t-60.5 16.5q-13 0 -27.5 -4t-32 -13t-30.5 -29t-16 -48h87q83 0 139 -11.5t101 -42.5t66 -88.5t21 -146.5h-266q0 12 -1 20t-5.5 19t-17 17 t-32.5 6h-415q-67 0 -67 -62h-266q0 85 22 143.5t65 89.5t97 43.5t128 12.5h100q-3 28 -16 48t-30.5 29t-32 13t-27.5 4q-38 0 -60.5 -16.5t-29.5 -40.5zM553 -23q-252 0 -370 101t-118 309h268q0 -74 53 -113t146 -39h138q94 0 146.5 39.5t52.5 112.5h268q0 -200 -121 -305 t-361 -105h-102z" />
<glyph unicode="&#xdb5;" horiz-adv-x="1087" d="M473 -10q-178 0 -294 111t-116 266q0 46 2.5 73t12 65.5t33.5 70.5t63 61q94 69 230 69q0 27 -22 42.5t-57 15.5q-67 0 -78 -46l-190 50q33 104 106 148.5t162 44.5q120 0 198 -70t78 -185v-224h-161q-113 0 -113 -109q0 -43 37.5 -74t108.5 -31v-278zM427 1181v264h153 q101 0 179 -22.5t141 -73t96.5 -141.5t33.5 -218v-511q0 -489 -450 -489v278q35 0 63 7.5t57 28t45.5 65.5t16.5 110v474q0 120 -37.5 173t-144.5 53q0 -70 29.5 -102t83.5 -43v-165q-138 27 -202 111.5t-64 200.5z" />
<glyph unicode="&#xdb6;" horiz-adv-x="1165" d="M57 358v184q0 99 52 174.5t130.5 112t166.5 36.5q64 0 121 -21t103 -61.5t73.5 -108t27.5 -153.5v-188q0 -33 16 -51t38 -18q23 0 39 18t16 51v582q0 61 -7.5 105.5t-27 82t-56 57t-89.5 19.5h-40v266h40q98 0 178 -28.5t141.5 -86t95 -152.5t33.5 -221v-624 q0 -112 -51 -193t-126.5 -118t-162.5 -37q-122 0 -208.5 73.5t-86.5 205.5v247q0 42 -24.5 65t-58.5 23q-33 0 -56.5 -23t-23.5 -65v-142q0 -57 23.5 -79t70.5 -22v-268q-175 0 -261 85.5t-86 272.5zM78 1083q0 103 64 187.5t163 129.5t208 45v-264q-80 0 -126 -36t-46 -131 z" />
<glyph unicode="&#xdb7;" horiz-adv-x="1443" d="M823 658q54 -9 92 -68.5t38 -176.5v-95q0 -172 -85 -252.5t-256 -80.5v273q35 0 58 10.5t32 29t11.5 31.5t2.5 31q0 97 -94 101h-65v107h-50q-35 0 -58.5 -10t-33 -27.5t-12.5 -32t-3 -33.5v-84q0 -123 107 -123v-273q-190 0 -283.5 108.5t-93.5 285.5v107q0 44 14 82 h-87v226h404q0 45 -19.5 67.5t-62.5 22.5q-27 0 -48 -12t-27 -36l-189 50q32 95 106 144.5t164 49.5q73 0 137.5 -33t101.5 -92q84 125 278 125v-274q-29 0 -47 -13t-24 -33t-8 -43.5t0 -44.5v-14zM1009 -15v273q107 0 107 121v297q0 25 -3 43.5t-12.5 40.5t-33 34t-58.5 12 v274q191 0 284 -109.5t93 -294.5v-297q0 -177 -93.5 -285.5t-283.5 -108.5z" />
<glyph unicode="&#xdb8;" horiz-adv-x="1148" d="M57 482q0 -70 9.5 -132t39 -130.5t76.5 -117t128.5 -80.5t189.5 -32v268q-47 0 -80 9t-61.5 32t-42.5 69t-14 114v146q0 17 9 27.5t20 10.5q12 0 21.5 -10t9.5 -28v-16q0 -79 57.5 -126.5t135.5 -47.5q82 0 141.5 55t59.5 158v247h-176v-232q0 -15 -9.5 -23.5t-21.5 -8.5 q-11 0 -19.5 8.5t-8.5 23.5v31q0 96 -58 150.5t-141 54.5q-48 0 -94 -20.5t-85 -60t-62.5 -104t-23.5 -145.5v-90zM607 -10q117 0 205 29t140 75t84.5 112.5t43.5 132t11 143.5v471q0 490 -484 490v-266q55 0 89.5 -7t66 -29t46 -68.5t14.5 -119.5v-471q0 -73 -14.5 -119.5 t-46 -68.5t-66 -29t-89.5 -7v-268zM65 1081l262 -68q0 95 46.5 130.5t126.5 35.5v264q-109 0 -208 -45t-163 -129.5t-64 -187.5z" />
<glyph unicode="&#xdb9;" horiz-adv-x="1161" d="M364 -21q84 0 126 42q40 37 40 107q0 30 14 46.5t34 16.5q19 0 33.5 -16.5t14.5 -46.5q0 -70 40 -107q42 -42 126 -42q140 0 226 88t86 234v679q0 244 -120 354.5t-352 110.5v-266q36 0 60.5 -3t54 -15.5t47 -35.5t30 -65.5t12.5 -102.5v-637q0 -30 -16 -46t-39 -16 q-22 0 -38 16t-16 44t-15 50t-50 22h-170q-35 0 -50 -22t-15 -50t-16 -44t-38 -16q-23 0 -39 15.5t-16 44.5v310q0 18 8.5 28t19.5 10q12 0 21.5 -10t9.5 -28v-16q0 -79 57.5 -126.5t135.5 -47.5q82 0 141.5 55t59.5 158v247h-176v-232q0 -15 -9 -23.5t-21 -8.5 q-11 0 -20 8.5t-9 23.5v31q0 99 -65 153.5t-157 54.5q-102 0 -179.5 -68t-77.5 -188v-348q0 -146 85 -234t222 -88zM350 1014q0 95 46.5 131t126.5 36v264q-109 0 -208 -45t-163 -129.5t-64 -187.5z" />
<glyph unicode="&#xdba;" horiz-adv-x="1253" d="M57 306q0 -146 96.5 -233.5t254.5 -87.5q131 0 208 84q78 -84 222 -84q162 0 255.5 83t93.5 238v81h-266v-60q0 -35 -26 -55.5t-62 -20.5t-62 21t-26 59v56h-245v-56q0 -38 -26 -59t-62 -21t-62.5 20.5t-26.5 55.5v60h-266v-81zM561 542h275q36 0 55.5 -9t23.5 -19.5 t4 -27.5v-6h268v35q0 113 -63 183.5t-207 70.5h-107q0 42 23.5 63.5t60.5 21.5q64 0 92 -48l210 71q-25 59 -60.5 100.5t-77 64t-81.5 32t-83 9.5q-175 0 -254 -98.5t-79 -283.5v-159zM57 480h266v127q0 222 146 222h38v249h-32q-85 0 -159 -26t-132.5 -77t-92.5 -134.5 t-34 -189.5v-171z" />
<glyph unicode="&#xdbb;" horiz-adv-x="1043" d="M57 450v367q0 40 1.5 66t11 73t27 84.5t53 84.5t85.5 88l374 305l315 -84l-470 -383q-87 -69 -108 -100.5t-21 -89.5v-411q0 -101 29.5 -142.5t112.5 -41.5v-277q-51 0 -98.5 10t-94.5 31t-85.5 57.5t-68.5 86t-46.5 120.5t-16.5 156zM400 873l255 207h44q159 0 223 -106 t64 -346v-178q0 -460 -412 -460v276q85 0 114.5 41t29.5 143v166q0 38 -0.5 55.5t-3 44.5t-8 38t-15.5 26t-25.5 20.5t-38 10t-53.5 4.5h-174v58z" />
<glyph unicode="&#xdbd;" horiz-adv-x="1198" d="M475 412v68h-81v219h406v-219h-80v-30q0 -79 78 -79q79 0 79 88v157q0 103 -59.5 151t-159.5 48v268q71 0 134.5 -11.5t129 -43t112.5 -82t77 -135.5t30 -195v-157q0 -169 -90.5 -262.5t-252.5 -93.5q-323 0 -323 309zM542 -327q-69 0 -132 12t-129 45t-114.5 83.5 t-79 135t-30.5 193.5v474q0 110 30 195t77 135.5t113 82t129.5 43t135.5 11.5v-268q-100 0 -159.5 -48t-59.5 -151v-474q0 -103 59.5 -152t159.5 -49v-268zM658 -63q176 0 211 134l258 -73q-16 -77 -52.5 -136t-82 -95t-104 -58.5t-114 -31t-116.5 -8.5v268z" />
<glyph unicode="&#xdc0;" horiz-adv-x="1087" d="M473 -10v268q-71 0 -108.5 34t-37.5 81q0 109 113 109h161v224q0 115 -78 185t-198 70q-89 0 -162 -44.5t-106 -148.5l190 -50q11 46 78 46q35 0 57 -15.5t22 -42.5q-136 0 -230 -69q-39 -29 -63 -61t-33.5 -70.5t-12 -65.5t-2.5 -73q0 -155 116 -266t294 -111zM580 -10 q450 0 450 489v516q0 126 -33.5 215.5t-96.5 139.5t-141 72.5t-179 22.5v-266q107 0 144.5 -53t37.5 -173v-474q0 -69 -16.5 -115.5t-45.5 -68t-57 -29.5t-63 -8v-268zM57 1083l263 -69q0 87 44 127t109 40v264q-102 0 -198 -47.5t-157 -132t-61 -182.5z" />
<glyph unicode="&#xdc1;" horiz-adv-x="1372" d="M938 -15v273q107 0 107 121v71q-163 0 -163 -127q-3 -174 -88 -256t-252 -82v273q35 0 58 10.5t31.5 29t11 31.5t2.5 31q0 56 -24.5 78.5t-69.5 22.5h-65v209q0 72 9 130t33 111.5t62 89.5t99 57.5t142 21.5v-274q-27 0 -44.5 -11.5t-24.5 -33t-9 -42t-1 -49.5v-36 q38 -12 63 -37q71 50 230 50v19q0 26 -3 45.5t-12.5 43.5t-33 37.5t-58.5 13.5v274q190 0 283.5 -109t93.5 -286v-306q0 -177 -93.5 -285.5t-283.5 -108.5zM434 -15q-190 0 -283.5 108.5t-93.5 285.5v306q0 177 93.5 286t283.5 109v-274q-35 0 -58.5 -13.5t-33 -37.5 t-12.5 -43.5t-3 -45.5v-287q0 -121 107 -121v-273z" />
<glyph unicode="&#xdc2;" horiz-adv-x="1263" d="M92 880q33 106 119 163.5t193 57.5q128 0 231 -75q103 75 232 75q107 0 193 -57.5t119 -163.5l-226 -74q-7 24 -29.5 40.5t-60.5 16.5q-12 0 -26.5 -3.5t-31 -11.5t-29 -26t-16.5 -43h119q83 0 139 -12t101 -44t66 -91.5t21 -151.5h-266q0 11 -0.5 18t-3.5 18.5t-8 18 t-16.5 11.5t-27.5 5h-51q-110 -113 -110 -226l-256 -3q0 126 78 229h-153q-67 0 -67 -71h-266q0 88 22 148t65 92.5t97 45.5t128 13h140q-7 46 -39.5 65t-63.5 19q-38 0 -60.5 -16.5t-29.5 -40.5zM545 -23q-252 0 -370 101t-118 309h268q0 -74 53 -113t146 -39h215 q94 0 146.5 39.5t52.5 112.5h268q0 -200 -121.5 -305t-361.5 -105h-178z" />
<glyph unicode="&#xdc3;" horiz-adv-x="1314" d="M128 306v81h266v-60q0 -35 26 -55.5t62 -20.5t62 21t26 59v56h245v-56q0 -38 26 -59t62 -21t62 20.5t26 55.5v60h267v-81q0 -155 -93.5 -238t-255.5 -83q-144 0 -222 84q-77 -84 -208 -84q-158 0 -254.5 87.5t-96.5 233.5zM149 880q33 106 119 163.5t193 57.5 q129 0 232 -75q103 75 231 75q107 0 193 -57.5t119 -163.5l-225 -74q-7 24 -29.5 40.5t-60.5 16.5q-13 0 -27.5 -4t-32 -13t-30.5 -29t-16 -48h148q43 0 77 -3.5t77.5 -17.5t72 -38t48.5 -69t20 -107v-54h-267q0 28 -15 43q-19 19 -55 19h-450q-40 0 -61 -21 q-16 -19 -16 -41h-266q0 20 2 33q4 27 6 29h-79v227h513q-3 28 -15.5 48t-30 29t-32 13t-27.5 4q-38 0 -60.5 -16.5t-29.5 -40.5z" />
<glyph unicode="&#xdc4;" horiz-adv-x="1370" d="M750 658q54 -9 92 -68.5t38 -176.5v-95q0 -172 -85 -252.5t-255 -80.5v273q35 0 58 10.5t31.5 29t11 31.5t2.5 31q0 97 -94 101h-65v77h-50q-35 0 -58.5 -10t-33 -27.5t-12.5 -32t-3 -32.5v-57q0 -121 107 -121v-273q-190 0 -283.5 108.5t-93.5 285.5v77q0 154 87 251 t264 105q0 72 -83 72q-62 0 -74 -48l-190 50q32 95 106 144.5t164 49.5q69 0 130.5 -29t99.5 -81q85 110 268 110v-274q-28 0 -46 -11.5t-24.5 -33.5t-8 -40t-0.5 -45v-18zM936 -15v273q107 0 107 121v287q0 26 -3 45.5t-12.5 43.5t-33 37.5t-58.5 13.5v274 q190 0 283.5 -109t93.5 -286v-306q0 -177 -93.5 -285.5t-283.5 -108.5z" />
<glyph unicode="&#xdc5;" horiz-adv-x="1165" d="M220 806v48q0 113 72 180t194 67q89 0 146 -52q47 52 136 52q125 0 195.5 -73.5t70.5 -191.5h-222q0 24 -14 38t-38 14t-37 -15.5t-13 -36.5h-163q-1 16 -4.5 26.5t-15 19t-31.5 8.5q-54 0 -54 -57zM57 147v224q0 88 33 160.5t85.5 117t114.5 68.5t123 24l622 2v-253 h-560h-14q12 -42 35.5 -71.5t52 -42.5t50 -17.5t40.5 -4.5h39q50 0 89 20t54 51l216 -56q-23 -61 -59 -106.5t-72.5 -70.5t-80 -40t-75.5 -19.5t-65 -4.5h-63q-97 0 -175.5 39.5t-123.5 102.5v-126q0 -201 219 -201v-268q-224 0 -354.5 119.5t-130.5 352.5zM658 -57 q176 0 211 134l258 -73q-16 -77 -52.5 -136t-82 -95t-104 -58.5t-114 -31t-116.5 -8.5v268z" />
<glyph unicode="&#xdc6;" horiz-adv-x="1244" d="M57 480h266v257q0 35 26.5 55.5t62.5 20.5t62 -21t26 -59v-253h245v253q0 38 26 59t62 21t62 -20.5t26 -55.5v-257h266v278q0 146 -97 234t-254 88q-130 0 -208 -85q-79 85 -222 85q-162 0 -255.5 -83.5t-93.5 -238.5v-278zM57 387q0 -177 92 -282t282 -105v274 q-35 0 -58.5 10.5t-33.5 29.5t-13 35t-3 38h-266zM813 0q190 0 282 105t92 282h-266q0 -22 -3 -38t-13 -35t-33.5 -29.5t-58.5 -10.5v-274z" />
<glyph unicode="&#xdca;" horiz-adv-x="375" d="M57 1185h261v383h-261v-383z" />
<glyph unicode="&#xdcf;" horiz-adv-x="530" d="M57 0h39q190 0 283.5 108.5t93.5 285.5v310q0 177 -93.5 286t-283.5 109h-39v-274h39q35 0 58.5 -13.5t33 -37.5t12.5 -43.5t3 -45.5v-291q0 -22 -3 -39t-12.5 -37.5t-33 -32t-58.5 -11.5h-39v-274z" />
<glyph unicode="&#xdd0;" horiz-adv-x="530" d="M431 0q-166 0 -270 97.5t-104 300.5v100q0 96 18 147t97 190h-115v264h416v-253q-22 -41 -54.5 -99t-41.5 -76t-24 -49.5t-17.5 -48.5t-5.5 -40.5t-3 -57.5v-88q0 -63 31 -88t75 -25h40v-274h-42z" />
<glyph unicode="&#xdd1;" horiz-adv-x="530" d="M57 413q0 54 13 82.5t72 82.5h-85v211l110 99h-110v211h416v-211l-113 -99h113v-211q-21 -16 -48.5 -36.5t-38 -28.5t-25 -20.5t-18.5 -18t-9.5 -16.5t-6 -20.5t-0.5 -24.5v-26q0 -63 31 -88t75 -25h40v-274h-42q-79 0 -145 19.5t-118.5 59t-81.5 106.5t-29 156v72z" />
<glyph unicode="&#xdd2;" horiz-adv-x="0" d="M-1097 1152h249q0 35 10.5 58.5t30.5 33.5t36.5 13t41.5 4h266q20 -1 33 -2.5t30.5 -8t28.5 -17.5t18.5 -31.5t7.5 -49.5h249v54q0 132 -97 218t-240 86h-327q-143 0 -240 -86t-97 -218v-54z" />
<glyph unicode="&#xdd3;" horiz-adv-x="0" d="M-322 1058q-87 0 -151 58t-72 145h-253q-24 0 -41.5 -3.5t-37 -13.5t-30 -33t-10.5 -59h-249v54q0 132 97 218t240 86h507h10q81 -3 138 -55l6 -6q1 0 1 -2l4 -2q4 -4 4 -6h2q61 -64 61 -145v-10q0 -93 -66.5 -159.5t-159.5 -66.5z" />
<glyph unicode="&#xdd4;" horiz-adv-x="0" d="M-325 235h268v-627h-402v268h134v359zM-915 -124h348v-268h-348v268z" />
<glyph unicode="&#xdd6;" horiz-adv-x="0" d="M-930 -75q68 -49 136 -49q41 0 114 22t110 22v-268q-37 0 -110 -22t-114 -22q-68 0 -136 49v268zM-329 -392q-65 44 -134 44v268q78 0 134 -37v352h268v-627h-268z" />
<glyph unicode="&#xdd8;" horiz-adv-x="717" d="M360 0q-123 0 -213 80.5t-90 220.5q0 59 17 110t52 92.5t95 65.5t139 24v-218q-36 0 -57.5 -19t-21.5 -55q0 -29 22.5 -52t56.5 -23q30 0 50.5 21t20.5 54v430q-1 25 -4 41.5t-13 36.5t-33.5 30.5t-58.5 10.5h-173v249h207q129 0 216.5 -97t87.5 -240v-461 q0 -98 -45 -168t-111.5 -101.5t-143.5 -31.5z" />
<glyph unicode="&#xdd9;" horiz-adv-x="874" d="M477 831h-58q-43 0 -73 -33t-30 -88v-331q0 -68 16.5 -104t67.5 -36v-249h-40q-57 0 -104 16t-78 41.5t-54 61t-35.5 70t-20 75t-9.5 68.5t-2 57v331q0 49 8.5 96t32 98t60 89t98.5 62.5t142 24.5h119q66 0 122 -24.5t91 -63.5t56 -82t26 -85l-234 -59q-12 65 -101 65z M446 429v249h166q96 0 150.5 -42t54.5 -148v-187q0 -130 -73 -220.5t-193 -90.5h-59v249q67 0 67 75v63q0 34 -19 43t-65 9h-29z" />
<glyph unicode="&#xdda;" horiz-adv-x="1523" d="M1206 1185v383h260v-383h-260zM477 831h-58q-43 0 -73 -33t-30 -88v-331q0 -68 16.5 -104t67.5 -36v-249h-40q-57 0 -104 16t-78 41.5t-54 61t-35.5 70t-20 75t-9.5 68.5t-2 57v331q0 49 8.5 96t32 98t60 89t98.5 62.5t142 24.5h119q66 0 122 -24.5t91 -63.5t56 -82 t26 -85l-234 -59q-12 65 -101 65zM446 429v249h166q96 0 150.5 -42t54.5 -148v-187q0 -130 -73 -220.5t-193 -90.5h-59v249q67 0 67 75v63q0 34 -19 43t-65 9h-29z" />
<glyph unicode="&#xddb;" horiz-adv-x="1699" d="M1302 836h-58q-44 0 -73.5 -32.5t-29.5 -87.5v-331q0 -68 16.5 -104t67.5 -36v-249h-40q-57 0 -104 16t-78 41.5t-54 61t-35.5 70t-20 75t-9.5 68.5t-2 57v331q0 49 8.5 96t32 98t60 88.5t98.5 62t142 24.5h119q66 0 122 -24.5t90.5 -63t55.5 -81.5t26 -85l-233 -60 q-12 65 -101 65zM1271 434v249h166q96 0 150.5 -41.5t54.5 -147.5v-188q0 -130 -73 -220t-193 -90h-59v249q67 0 67 75v63q0 24 -11.5 35.5t-26 13.5t-46.5 2h-29zM477 831h-58q-43 0 -73 -33t-30 -88v-331q0 -68 16.5 -104t67.5 -36v-249h-40q-57 0 -104 16t-78 41.5 t-54 61t-35.5 70t-20 75t-9.5 68.5t-2 57v331q0 49 8.5 96t32 98t60 89t98.5 62.5t142 24.5h119q66 0 122 -24.5t91 -63.5t56 -82t26 -85l-234 -59q-12 65 -101 65zM446 429v249h166q96 0 150.5 -42t54.5 -148v-187q0 -130 -73 -220.5t-193 -90.5h-59v249q67 0 67 75v63 q0 34 -19 43t-65 9h-29z" />
<glyph unicode="&#xddc;" horiz-adv-x="1533" d="M1060 0v274h39q35 0 58.5 11.5t33 32t12.5 37.5t3 39v291q0 26 -3 45.5t-12.5 43.5t-33 37.5t-58.5 13.5h-39v274h39q190 0 283.5 -109t93.5 -286v-310q0 -177 -93.5 -285.5t-283.5 -108.5h-39zM477 831h-58q-43 0 -73 -33t-30 -88v-331q0 -68 16.5 -104t67.5 -36v-249 h-40q-57 0 -104 16t-78 41.5t-54 61t-35.5 70t-20 75t-9.5 68.5t-2 57v331q0 49 8.5 96t32 98t60 89t98.5 62.5t142 24.5h119q66 0 122 -24.5t91 -63.5t56 -82t26 -85l-234 -59q-12 65 -101 65zM446 429v249h166q96 0 150.5 -42t54.5 -148v-187q0 -130 -73 -220.5 t-193 -90.5h-59v249q67 0 67 75v63q0 34 -19 43t-65 9h-29z" />
<glyph unicode="&#xddd;" horiz-adv-x="1533" d="M1058 1185v383h261v-383h-261zM1060 0v274h39q35 0 58.5 11.5t33 32t12.5 37.5t3 39v291q0 26 -3 45.5t-12.5 43.5t-33 37.5t-58.5 13.5h-39v274h39q190 0 283.5 -109t93.5 -286v-310q0 -177 -93.5 -285.5t-283.5 -108.5h-39zM477 831h-58q-43 0 -73 -33t-30 -88v-331 q0 -68 16.5 -104t67.5 -36v-249h-40q-57 0 -104 16t-78 41.5t-54 61t-35.5 70t-20 75t-9.5 68.5t-2 57v331q0 49 8.5 96t32 98t60 89t98.5 62.5t142 24.5h119q66 0 122 -24.5t91 -63.5t56 -82t26 -85l-234 -59q-12 65 -101 65zM446 429v249h166q96 0 150.5 -42t54.5 -148 v-187q0 -130 -73 -220.5t-193 -90.5h-59v249q67 0 67 75v63q0 34 -19 43t-65 9h-29z" />
<glyph unicode="&#xdde;" horiz-adv-x="1959" d="M1547 -15q-88 0 -164 35.5t-126.5 113t-50.5 184.5v69h243v-69q0 -49 32.5 -77.5t76.5 -28.5q42 0 71.5 28t29.5 78v492q0 18 -8.5 28t-19.5 10q-12 0 -21.5 -10t-9.5 -28v-92q0 -77 -54.5 -122t-129.5 -45q-85 0 -147.5 58t-62.5 166v305h176v-232q0 -15 9.5 -24 t21.5 -9q11 0 19.5 9t8.5 24v36q0 99 65.5 154t156.5 55q95 0 166 -68t74 -189v-518q0 -79 -30.5 -143.5t-81 -105t-113.5 -62.5t-131 -22zM477 831h-58q-43 0 -73 -33t-30 -88v-331q0 -68 16.5 -104t67.5 -36v-249h-40q-57 0 -104 16t-78 41.5t-54 61t-35.5 70t-20 75 t-9.5 68.5t-2 57v331q0 49 8.5 96t32 98t60 89t98.5 62.5t142 24.5h119q66 0 122 -24.5t91 -63.5t56 -82t26 -85l-234 -59q-12 65 -101 65zM446 429v249h166q96 0 150.5 -42t54.5 -148v-187q0 -130 -73 -220.5t-193 -90.5h-59v249q67 0 67 75v63q0 34 -19 43t-65 9h-29z" />
<glyph unicode="&#xddf;" horiz-adv-x="1167" d="M360 -15q68 0 131 22t113.5 62.5t81 105t30.5 143.5v518q-3 121 -73.5 189t-165.5 68q-91 0 -156.5 -55t-65.5 -154v-36q0 -15 -9 -24t-20 -9q-12 0 -21.5 9t-9.5 24v232h-176v-305q0 -108 63 -166t148 -58q75 0 129 45t54 122v92q0 18 9.5 28t21.5 10q11 0 20 -10.5 t9 -27.5v-492q0 -50 -30 -78t-72 -28q-44 0 -76.5 28.5t-32.5 77.5v69h-243v-69q0 -107 50.5 -184.5t126.5 -113t164 -35.5z" />
<glyph unicode="&#xdf2;" horiz-adv-x="1378" d="M1020 0q-123 0 -212.5 80.5t-89.5 220.5q0 59 17 110t51.5 92.5t94.5 65.5t139 24v-218q-36 0 -57 -19t-21 -55q0 -30 22.5 -52.5t55.5 -22.5q30 0 50.5 21t20.5 54v430q-1 25 -4 41.5t-13 36.5t-33.5 30.5t-58.5 10.5h-172v249h206q129 0 217 -97t88 -240v-461 q0 -98 -45.5 -168t-112 -101.5t-143.5 -31.5zM360 0q-123 0 -213 80.5t-90 220.5q0 59 17 110t52 92.5t95 65.5t139 24v-218q-36 0 -57.5 -19t-21.5 -55q0 -29 22.5 -52t56.5 -23q30 0 50.5 21t20.5 54v430q-1 25 -4 41.5t-13 36.5t-33.5 30.5t-58.5 10.5h-173v249h207 q129 0 216.5 -97t87.5 -240v-461q0 -98 -45 -168t-111.5 -101.5t-143.5 -31.5z" />
<glyph unicode="&#xdf3;" horiz-adv-x="811" d="M398 -15q68 0 131 22t113.5 62.5t81 105t30.5 143.5v518q-3 121 -73.5 189t-165.5 68q-91 0 -156.5 -55t-65.5 -154v-36q0 -15 -9 -24t-20 -9q-12 0 -21 9t-9 24v232h-177v-305q0 -108 63 -166t148 -58q75 0 129.5 45t54.5 122v92q0 18 9 28t21 10q11 0 20 -10.5t9 -27.5 v-492q0 -50 -29.5 -78t-71.5 -28q-44 0 -76.5 28.5t-32.5 77.5v69h-244v-69q0 -107 50.5 -184.5t126.5 -113t164 -35.5z" />
<glyph unicode="&#xdf4;" horiz-adv-x="3190" d="M1057 936q-23 -47 -65 -133q-183 -376 -263 -482.5t-212 -106.5h-230v-214h230q158 0 250 60q90 60 188 223q63 104 227 427q40 78 62 121zM1418 1001l-442 -896l190 -107l440 896zM1635 758l-326 -653l190 -107l323 655zM1834 -2l113 236q207 -120 373 -177t344 -57h238 v216h-238q-104 0 -194.5 22t-237 92.5t-375.5 209.5l-215 -435z" />
<glyph unicode="&#x2000;" horiz-adv-x="1184" />
<glyph unicode="&#x2001;" horiz-adv-x="2368" />
<glyph unicode="&#x2002;" horiz-adv-x="1184" />
<glyph unicode="&#x2003;" horiz-adv-x="2368" />
<glyph unicode="&#x2004;" horiz-adv-x="789" />
<glyph unicode="&#x2005;" horiz-adv-x="592" />
<glyph unicode="&#x2006;" horiz-adv-x="394" />
<glyph unicode="&#x2007;" horiz-adv-x="394" />
<glyph unicode="&#x2008;" horiz-adv-x="296" />
<glyph unicode="&#x2009;" horiz-adv-x="473" />
<glyph unicode="&#x200a;" horiz-adv-x="131" />
<glyph unicode="&#x200c;" horiz-adv-x="0" d="M-121 -2h234v1405h-234v-1405z" />
<glyph unicode="&#x200d;" horiz-adv-x="0" d="M-115 2v1028l-124 -94l-123 142l209 149l-193 140l116 134l228 -165l230 165l107 -134l-188 -140l205 -149l-103 -142l-134 98v-1032h-230z" />
<glyph unicode="&#x2010;" horiz-adv-x="796" d="M96 440h605v243h-605v-243z" />
<glyph unicode="&#x2011;" horiz-adv-x="796" d="M96 440h605v243h-605v-243z" />
<glyph unicode="&#x2012;" horiz-adv-x="796" d="M96 440h605v243h-605v-243z" />
<glyph unicode="&#x2013;" horiz-adv-x="1018" d="M50 440h918v243h-918v-243z" />
<glyph unicode="&#x2014;" horiz-adv-x="1734" d="M50 440h1634v243h-1634v-243z" />
<glyph unicode="&#x2018;" horiz-adv-x="357" d="M57 890h244v519h-244v-519z" />
<glyph unicode="&#x2019;" horiz-adv-x="357" d="M57 890h244v519h-244v-519z" />
<glyph unicode="&#x201a;" horiz-adv-x="357" d="M57 890h244v519h-244v-519z" />
<glyph unicode="&#x201c;" horiz-adv-x="702" d="M57 890h244v519h-244v-519zM402 890h243v519h-243v-519z" />
<glyph unicode="&#x201d;" horiz-adv-x="702" d="M57 890h244v519h-244v-519zM402 890h243v519h-243v-519z" />
<glyph unicode="&#x201e;" horiz-adv-x="687" d="M360 -44h243l71 291h-243zM13 -44h243l71 291h-243z" />
<glyph unicode="&#x2020;" horiz-adv-x="867" d="M50 861h249v-968h269v968h249v243h-249v358h-269v-358h-249v-243z" />
<glyph unicode="&#x2021;" horiz-adv-x="867" d="M50 251h249v-358h269v358h249v243h-249v367h249v243h-249v358h-269v-358h-249v-243h249v-367h-249v-243z" />
<glyph unicode="&#x2022;" horiz-adv-x="673" d="M50 658q0 -121 83 -204t204 -83t204 83t83 204t-83.5 206t-203.5 85t-203.5 -85t-83.5 -206z" />
<glyph unicode="&#x2026;" horiz-adv-x="1169" d="M57 103q0 -60 42 -101.5t102 -41.5t102 41.5t42 101.5t-42 103t-102 43t-102 -43t-42 -103zM442 103q0 -60 42 -101.5t102 -41.5t101.5 41.5t41.5 101.5t-41.5 103t-101.5 43t-102 -43t-42 -103zM825 103q0 -60 41.5 -101.5t101.5 -41.5t102 41.5t42 101.5t-42 103 t-102 43t-101.5 -43t-41.5 -103z" />
<glyph unicode="&#x202f;" horiz-adv-x="473" />
<glyph unicode="&#x2030;" horiz-adv-x="1716" d="M234 674v147q-36 9 -46 52t-10 126v21q0 40 1.5 63.5t6.5 51.5t17 42.5t31 18.5v148q-27 0 -52.5 -7.5t-54 -30t-49 -58t-34 -97t-13.5 -142.5q0 -99 19.5 -169t52 -104t64.5 -48t67 -14zM285 674q35 0 67 14t64.5 48t52 104t19.5 169q0 81 -13.5 142.5t-34 97t-49 58 t-54 30t-52.5 7.5v-148q36 -7 46 -50.5t10 -125.5v-21q0 -83 -10 -126t-46 -52v-147zM936 0v147q-36 9 -46 52t-10 126v21q0 40 1.5 63.5t6.5 51.5t17 43t31 19v147q-27 0 -52.5 -7.5t-54 -30t-49 -58t-34 -97t-13.5 -142.5q0 -99 19.5 -169t52 -104t64.5 -48t67 -14zM988 0 q35 0 67 14t64.5 48t52 104t19.5 169q0 81 -13.5 142.5t-34 97t-49 58t-54 30t-52.5 7.5v-147q19 -4 31 -18.5t17 -43t6 -51.5t1 -64v-21q0 -42 -1 -64.5t-6 -51t-17 -43t-31 -19.5v-147zM1430 0v147q-36 9 -46 52t-10 126v21q0 40 1.5 63.5t6.5 51.5t17 43t31 19v147 q-27 0 -52.5 -7.5t-54 -30t-49 -58t-34 -97t-13.5 -142.5q0 -99 19.5 -169t52 -104t64.5 -48t67 -14zM1481 0q35 0 67 14t64.5 48t52 104t19.5 169q0 81 -13.5 142.5t-34 97t-49 58t-54 30t-52.5 7.5v-147q36 -7 46 -51t10 -126v-21q0 -83 -10 -126t-46 -52v-147zM124 0h159 l814 1340h-146z" />
<glyph unicode="&#x2039;" horiz-adv-x="646" d="M50 559l251 -408h296l-251 408l251 398h-296z" />
<glyph unicode="&#x203a;" horiz-adv-x="646" d="M50 151h296l251 408l-251 398h-296l251 -398z" />
<glyph unicode="&#x2044;" horiz-adv-x="1071" d="M50 -4h159l813 1348h-145z" />
<glyph unicode="&#x205f;" horiz-adv-x="592" />
<glyph unicode="&#x20ac;" horiz-adv-x="1085" d="M96 494h93v-146q8 -135 104.5 -234.5t238.5 -109.5v266q-80 0 -80 117v107h329v113h-329v113h329v115h-329v137q0 96 80 96v268q-139 -5 -241 -118.5t-102 -268.5v-114h-93v-113h93v-115h-93v-113zM647 4q82 2 163 56.5t130.5 136t49.5 159.5l-261 98v-73 q0 -106 -82 -109v-268zM647 1068q40 0 61 -24t21 -64l-2 -94l263 98q0 150 -94.5 249.5t-248.5 102.5v-268z" />
<glyph unicode="&#x2113;" horiz-adv-x="375" d="M75 366q0 -79 26.5 -145t66.5 -108t89.5 -71.5t94 -42t81.5 -12.5v271q-6 0 -21 5t-35.5 15.5t-35.5 34t-16 53.5v970h-250v-970z" />
<glyph unicode="&#x2122;" horiz-adv-x="771" d="M50 1250h88v-324h92v324h86v90h-266v-90zM360 926h92v67l-86 207h-6v-274zM360 1280l147 -354h63l37 87v204h-8l-61 -137l-107 260h-71v-60zM632 926h90v414h-90v-414z" />
<glyph unicode="&#x2126;" horiz-adv-x="905" d="M57 0h343v230q-48 0 -66 17.5t-18 53.5v400q0 27 18.5 47t65.5 20v225q-76 0 -139 -28t-99.5 -70.5t-56 -87t-19.5 -82.5v-449q0 -74 61 -152h-90v-124zM505 0h343v124h-90q61 78 61 152v449q0 38 -19.5 82.5t-56 87t-99.5 70.5t-139 28v-225q47 0 66 -20t19 -47v-400 q0 -35 -18.5 -53t-66.5 -18v-230z" />
<glyph unicode="&#x212e;" horiz-adv-x="1016" d="M456 -6v268q-52 5 -91.5 49t-39.5 131v67h634v459q0 107 -57.5 196t-148.5 137t-192 48v-268q54 -5 92 -48t38 -131v-125h-366v125q0 88 38.5 131t92.5 48v268q-156 0 -277.5 -110t-121.5 -271v-593q0 -161 121.5 -271t277.5 -110zM561 -6q146 0 264 99.5t132 247.5 l-268 65q-9 -69 -45.5 -104t-82.5 -40v-268z" />
<glyph unicode="&#x2202;" horiz-adv-x="803" d="M54 270q0 -29 11.5 -63.5t37.5 -72t61 -67.5t88.5 -49.5t114.5 -19.5v226q-84 0 -84 71v381q0 33 19 59.5t65 26.5v226q-75 0 -137.5 -28.5t-99 -71t-56.5 -87t-20 -81.5v-450zM134 1238q165 0 277 -71.5t112 -186.5q-25 8 -77 8v-226q80 0 80 -86v-375q0 -31 -18 -54 t-62 -23v-226q73 0 134 29t96.5 72t54.5 88t19 83v576q0 270 -149 395.5t-467 125.5v-129z" />
<glyph unicode="&#x2206;" horiz-adv-x="1236" d="M153 0h930l-346 1340h-234l287 -1101h-344l119 469l-106 394h-19z" />
<glyph unicode="&#x220f;" horiz-adv-x="1022" d="M57 1081h83v-1349h249v1349h245v-1349h248v1349h83v259h-908v-259z" />
<glyph unicode="&#x2211;" horiz-adv-x="1293" d="M597 1072h414v268h-599v-17zM57 -268h954v287h-615l425 569l-553 752h-211v-176l422 -569l-422 -578v-285z" />
<glyph unicode="&#x2212;" horiz-adv-x="796" d="M96 440h605v243h-605v-243z" />
<glyph unicode="&#x2215;" horiz-adv-x="1071" d="M50 -4h159l813 1348h-145z" />
<glyph unicode="&#x2219;" horiz-adv-x="478" d="M57 840q0 -60 42 -101.5t102 -41.5t102 41.5t42 101.5t-42 103t-102 43t-102 -43t-42 -103z" />
<glyph unicode="&#x221a;" horiz-adv-x="1223" d="M11 982l69 -199l163 59l343 -842h271l347 1568h-270l-251 -1120l-277 683z" />
<glyph unicode="&#x221e;" horiz-adv-x="1527" d="M450 0q173 0 260 142l59 114l58 -114q91 -142 260 -142v226q-48 0 -67 25l-126 250l122 240q20 23 71 23v226q-97 0 -168.5 -41t-103.5 -103l-46 -92l-47 92q-32 62 -103.5 103t-168.5 41v-226q51 0 71 -23l122 -240l-126 -250q-16 -25 -67 -25v-226zM371 0v226 q-84 0 -84 71v400q0 26 19 46.5t65 20.5v226q-75 0 -137.5 -28.5t-99.5 -71t-57 -87t-20 -81.5v-450q0 -29 11.5 -63.5t37.5 -71.5t61.5 -67.5t89 -50t114.5 -19.5zM1166 0q73 0 134 29t96.5 72t54.5 88t19 83v450q0 37 -19.5 81.5t-55 87t-96 71t-133.5 28.5v-226 q45 0 62.5 -17t17.5 -50v-404q0 -27 -18 -47t-62 -20v-226z" />
<glyph unicode="&#x222b;" horiz-adv-x="652" d="M57 -268v-124q47 0 104.5 22.5t115.5 66t97 122t39 175.5v1202q0 64 18.5 113t42.5 73t53 39t45 18.5t23 3.5v125q-37 0 -81 -11.5t-92.5 -40t-88 -69.5t-65 -106.5t-25.5 -144.5v-1202q0 -61 -18.5 -110t-44 -76t-54 -45.5t-46 -24.5t-23.5 -6z" />
<glyph unicode="&#x2248;" horiz-adv-x="1087" d="M96 314q106 69 205 69q52 0 108.5 -22t98.5 -48t102 -48t119 -22q117 0 262 88v251q-141 -86 -250 -86q-56 0 -114.5 21.5t-100.5 48t-100 48t-114 21.5q-101 0 -216 -67v-254zM96 769q106 69 205 69q43 0 87 -14.5t82 -35t76.5 -40.5t86.5 -34.5t96 -14.5q117 0 262 88 v250q-141 -86 -250 -86q-56 0 -114.5 22t-100.5 48t-100 48t-114 22q-101 0 -216 -67v-255z" />
<glyph unicode="&#x2260;" horiz-adv-x="800" d="M113 -149l94 400h-111v243h170l29 128h-199v243h258l94 400h241l-94 -400h109v-243h-166l-31 -128h197v-243h-254l-94 -400h-243z" />
<glyph unicode="&#x2264;" horiz-adv-x="907" d="M850 293v243l-417 153l417 153v243l-793 -340v-111zM57 -2h793v205h-793v-205z" />
<glyph unicode="&#x2265;" horiz-adv-x="907" d="M57 295l793 340v111l-793 341v-243l418 -153l-418 -153v-243zM57 0h793v205h-793v-205z" />
<glyph unicode="&#x25ca;" horiz-adv-x="792" d="M-6 674l341 -678h122l343 678l-343 677h-122zM243 674l149 337l165 -337l-165 -337z" />
<glyph unicode="&#x25cc;" horiz-adv-x="1217" d="M283 926q0 -43 30.5 -73t73.5 -30t73 30t30 73t-30 73.5t-73 30.5t-73.5 -30.5t-30.5 -73.5zM119 762q0 -43 30 -73.5t73 -30.5t73 30.5t30 73.5t-30 73t-73 30t-73 -30t-30 -73zM283 138q0 -43 30.5 -73.5t73.5 -30.5t73 30.5t30 73.5t-30 73t-73 30t-73.5 -30 t-30.5 -73zM119 302q0 -43 30 -73t73 -30t73 30t30 73t-30 73.5t-73 30.5t-73 -30.5t-30 -73.5zM743 138q0 -43 30 -73.5t73 -30.5t73 30.5t30 73.5t-30 73t-73 30t-73 -30t-30 -73zM907 302q0 -43 30.5 -73t73.5 -30t73 30t30 73t-30 73.5t-73 30.5t-73.5 -30.5 t-30.5 -73.5zM907 762q0 -43 30.5 -73.5t73.5 -30.5t73 30.5t30 73.5t-30 73t-73 30t-73.5 -30t-30.5 -73zM743 926q0 -43 30 -73t73 -30t73 30t30 73t-30 73.5t-73 30.5t-73 -30.5t-30 -73.5zM968 532q0 -43 30.5 -73t73.5 -30t73 30t30 73t-30 73t-73 30t-73.5 -30 t-30.5 -73zM513 77q0 -43 30 -73.5t73 -30.5t73.5 30.5t30.5 73.5t-30.5 73t-73.5 30t-73 -30t-30 -73zM57 532q0 -43 30.5 -73t73.5 -30t73 30t30 73t-30 73t-73 30t-73.5 -30t-30.5 -73zM513 988q0 -43 30 -73.5t73 -30.5t73.5 30.5t30.5 73.5t-30.5 73t-73.5 30t-73 -30 t-30 -73z" />
<glyph unicode="&#x25fc;" horiz-adv-x="1090" d="M0 1091h1091v-1091h-1091v1091z" />
<glyph unicode="&#x5713;" horiz-adv-x="1613" d="M96 934h80v163h17v78h-17v161h-80v-402zM224 1097h17v-163h82v402h-82v-161h-17v-78zM379 934h82v402h-82v-402zM492 1169l52 -235h80l-52 235l50 167h-80zM655 302q2 -66 61.5 -150t152.5 -127v-115h136v333q-4 2 -11 5t-25 15.5t-32 28t-26 41.5t-13 56zM670 972 q0 -73 17 -130t50.5 -98.5t73 -70.5t94.5 -55q45 -20 100 -40v291q-79 50 -79 113q0 34 24 65.5t55 39.5v349h-136v-136q-85 -45 -142 -126.5t-57 -201.5zM1110 -90h136v113q110 47 181.5 150.5t71.5 226.5q0 56 -15 105t-37 83.5t-57 67.5t-64.5 53t-71.5 45 q-55 31 -144 65v-283q57 -28 88 -62t31 -85q0 -68 -37.5 -104t-81.5 -42v-333zM1110 1087q3 -1 8 -3t19 -10.5t25 -19.5t21 -32t13 -46l249 82q-10 51 -64 128t-135 119v131h-136v-349z" />
<glyph horiz-adv-x="991" d="M440 0l61 258h50q56 0 85.5 17t29.5 70v91q0 45 -15.5 59t-41.5 14h-159l-123 -509h-270l150 599q3 12 8 34.5t7.5 35t5 30t2.5 30.5q0 49 -34 75.5t-119 26.5v249q168 0 277 -83q83 86 243 86q43 0 83.5 -9.5t81.5 -32t77 -64t61 -100.5l-211 -71q-28 48 -92 48 q-37 0 -60.5 -21t-23.5 -62h96q41 0 68 -1.5t64.5 -8t62 -18.5t51.5 -35t42.5 -55.5t26 -81.5t10.5 -112v-153q0 -129 -66 -217.5t-187 -88.5h-241z" />
<glyph horiz-adv-x="991" d="M488 1185v383h260v-383h-260zM440 0l61 258h50q56 0 85.5 17t29.5 70v91q0 45 -15.5 59t-41.5 14h-159l-123 -509h-270l150 599q3 12 8 34.5t7.5 35t5 30t2.5 30.5q0 49 -34 75.5t-119 26.5v249q168 0 277 -83q83 86 243 86q43 0 83.5 -9.5t81.5 -32t77 -64t61 -100.5 l-211 -71q-28 48 -92 48q-37 0 -60.5 -21t-23.5 -62h96q41 0 68 -1.5t64.5 -8t62 -18.5t51.5 -35t42.5 -55.5t26 -81.5t10.5 -112v-153q0 -129 -66 -217.5t-187 -88.5h-241z" />
<glyph horiz-adv-x="991" d="M57 -75q68 -49 136 -49q41 0 88.5 22t84.5 22q34 0 80 -9t75 -28v-275q-65 44 -155 44q-37 0 -84.5 -22t-88.5 -22q-68 0 -136 49v268zM440 0l61 258h50q56 0 85.5 17t29.5 70v91q0 45 -15.5 59t-41.5 14h-159l-123 -509h-270l150 599q3 12 8 34.5t7.5 35t5 30t2.5 30.5 q0 49 -34 75.5t-119 26.5v249q168 0 277 -83q83 86 243 86q43 0 83.5 -9.5t81.5 -32t77 -64t61 -100.5l-211 -71q-28 48 -92 48q-37 0 -60.5 -21t-23.5 -62h96q41 0 68 -1.5t64.5 -8t62 -18.5t51.5 -35t42.5 -55.5t26 -81.5t10.5 -112v-153q0 -98 -36 -170v-528h-268v392 h-190z" />
<glyph horiz-adv-x="991" d="M356 1125q-107 0 -164.5 64t-57.5 153q0 91 57 158.5t155 67.5h213q113 0 173 -61.5t60 -166.5v-157h-187v117q0 27 -6.5 43.5t-23 24t-32 9.5t-47.5 3h-144q-19 0 -32.5 -13.5t-13.5 -32.5t13.5 -32.5t32.5 -13.5t32.5 13.5t13.5 32.5h155q0 -40 -8.5 -74t-28.5 -66 t-61 -50.5t-99 -18.5zM440 0l61 258h50q56 0 85.5 17t29.5 70v91q0 45 -15.5 59t-41.5 14h-159l-123 -509h-270l150 599q3 12 8 34.5t7.5 35t5 30t2.5 30.5q0 49 -34 75.5t-119 26.5v249q168 0 277 -83q83 86 243 86q43 0 83.5 -9.5t81.5 -32t77 -64t61 -100.5l-211 -71 q-28 48 -92 48q-37 0 -60.5 -21t-23.5 -62h96q41 0 68 -1.5t64.5 -8t62 -18.5t51.5 -35t42.5 -55.5t26 -81.5t10.5 -112v-153q0 -129 -66 -217.5t-187 -88.5h-241z" />
<glyph horiz-adv-x="991" d="M356 1125q-107 0 -164.5 64t-57.5 153q0 91 57 158.5t155 67.5h213q113 0 173 -61.5t60 -166.5v-157h-187v117q0 27 -6.5 43.5t-23 24t-32 9.5t-47.5 3h-144q-19 0 -32.5 -13.5t-13.5 -32.5t13.5 -32.5t32.5 -13.5t32.5 13.5t13.5 32.5h155q0 -40 -8.5 -74t-28.5 -66 t-61 -50.5t-99 -18.5zM57 -124h467v-268h-467v268zM440 0l61 258h50q56 0 85.5 17t29.5 70v91q0 45 -15.5 59t-41.5 14h-159l-123 -509h-270l150 599q3 12 8 34.5t7.5 35t5 30t2.5 30.5q0 49 -34 75.5t-119 26.5v249q168 0 277 -83q83 86 243 86q43 0 83.5 -9.5t81.5 -32 t77 -64t61 -100.5l-211 -71q-28 48 -92 48q-37 0 -60.5 -21t-23.5 -62h96q41 0 68 -1.5t64.5 -8t62 -18.5t51.5 -35t42.5 -55.5t26 -81.5t10.5 -112v-153q0 -98 -36 -170v-528h-268v392h-190z" />
<glyph horiz-adv-x="991" d="M356 1125q-107 0 -164.5 64t-57.5 153q0 91 57 158.5t155 67.5h213q113 0 173 -61.5t60 -166.5v-157h-187v117q0 27 -6.5 43.5t-23 24t-32 9.5t-47.5 3h-144q-19 0 -32.5 -13.5t-13.5 -32.5t13.5 -32.5t32.5 -13.5t32.5 13.5t13.5 32.5h155q0 -40 -8.5 -74t-28.5 -66 t-61 -50.5t-99 -18.5zM57 -75q68 -49 136 -49q41 0 88.5 22t84.5 22q34 0 80 -9t75 -28v-275q-65 44 -155 44q-37 0 -84.5 -22t-88.5 -22q-68 0 -136 49v268zM440 0l61 258h50q56 0 85.5 17t29.5 70v91q0 45 -15.5 59t-41.5 14h-159l-123 -509h-270l150 599q3 12 8 34.5 t7.5 35t5 30t2.5 30.5q0 49 -34 75.5t-119 26.5v249q168 0 277 -83q83 86 243 86q43 0 83.5 -9.5t81.5 -32t77 -64t61 -100.5l-211 -71q-28 48 -92 48q-37 0 -60.5 -21t-23.5 -62h96q41 0 68 -1.5t64.5 -8t62 -18.5t51.5 -35t42.5 -55.5t26 -81.5t10.5 -112v-153 q0 -98 -36 -170v-528h-268v392h-190z" />
<glyph horiz-adv-x="953" d="M73 1152v54q0 132 97 218t240 86h168q143 0 240 -86t97 -218v-54h-249q0 35 -10.5 58.5t-30.5 33.5t-36.5 13t-41.5 4h-107q-20 -1 -33 -2.5t-30.5 -8t-28.5 -17.5t-18.5 -31.5t-7.5 -49.5h-249zM440 0l61 258h50q56 0 85.5 17t29.5 70v91q0 45 -15.5 59t-41.5 14h-159 l-123 -509h-270l150 599q3 12 8 34.5t7.5 35t5 30t2.5 30.5q0 49 -34 75.5t-119 26.5v249q168 0 277 -83q83 86 243 86q43 0 83.5 -9.5t81.5 -32t77 -64t61 -100.5l-211 -71q-28 48 -92 48q-37 0 -60.5 -21t-23.5 -62h96q41 0 68 -1.5t64.5 -8t62 -18.5t51.5 -35t42.5 -55.5 t26 -81.5t10.5 -112v-153q0 -129 -66 -217.5t-187 -88.5h-241z" />
<glyph horiz-adv-x="953" d="M77 1152v54q0 132 96.5 218t239.5 86h295h10q81 -3 138 -55q1 -1 2.5 -3t2.5 -3q2 0 2 -2l4 -2q4 -4 4 -6h2q61 -64 61 -145v-10q0 -89 -60.5 -153.5t-148.5 -72.5q118 -46 175 -181l-211 -71q-28 48 -92 48q-37 0 -60.5 -21t-23.5 -62h96q41 0 68 -1.5t64.5 -8t62 -18.5 t51.5 -35t42.5 -55.5t26 -81.5t10.5 -112v-153q0 -129 -66 -217.5t-187 -88.5h-241l61 258h50q56 0 85.5 17t29.5 70v91q0 45 -15.5 59t-41.5 14h-159l-123 -509h-270l150 599q3 12 8 34.5t7.5 35t5 30t2.5 30.5q0 49 -34 75.5t-119 26.5v249q168 0 277 -83q83 86 243 86h8 q-50 26 -82.5 73t-38.5 105h-40q-24 0 -41.5 -3.5t-37 -13.5t-30 -33t-10.5 -59h-248z" />
<glyph horiz-adv-x="0" d="M-507 -448q193 0 316.5 95t123.5 259q0 145 -109 229.5t-331 84.5v-230q101 0 140.5 -14.5t39.5 -65.5q0 -47 -51.5 -77t-128.5 -30v-251zM-614 -448v255q-59 0 -98.5 29.5t-39.5 73.5h-249v-54q0 -88 56 -158.5t144 -108t187 -37.5z" />
<glyph horiz-adv-x="773" d="M279 1125q58 0 99 18.5t61.5 50.5t29 66t8.5 74h-155q0 -19 -13.5 -32.5t-32.5 -13.5t-32.5 13.5t-13.5 32.5t13.5 32.5t32.5 13.5h143q32 -1 47.5 -3t32 -9.5t23 -24t6.5 -43.5v-117h188v157q0 105 -60 166.5t-174 61.5h-212q-98 0 -155.5 -67.5t-57.5 -158.5 q0 -89 57.5 -153t164.5 -64z" />
<glyph horiz-adv-x="2306" d="M389 -13q-99 0 -182 64t-83 152v31q0 24 -2 37.5t-12 26t-30 12.5l-23 -4v190l397 323q-27 35 -75 35q-46 0 -72 -26t-26 -59l-224 71q10 67 44.5 117t83.5 76.5t97.5 39t96.5 12.5q92 0 161 -34t99 -81q128 89 278 132t300 43q133 0 250 -32t194 -87q91 75 247 75 q107 0 193 -57.5t119 -163.5l-226 -74q-7 24 -29.5 40.5t-60.5 16.5q-12 0 -26.5 -3.5t-31 -11.5t-29 -26t-16.5 -43h119q83 0 139 -12t101 -44t66 -91.5t21 -151.5h-266q0 15 -1 23t-5.5 21.5t-16.5 20t-32 6.5h-52q-109 -112 -109 -226l-257 -3q0 124 79 229h-153 q-67 0 -67 -71h-266q0 88 22 148t65 92.5t97 45.5t128 13h137q-41 47 -130 79t-199 32q-251 0 -463 -170l-412 -333v-81q0 -25 17 -39t41 -14q22 0 38.5 14t16.5 39v81h192v-77q0 -27 17 -42t40 -15q24 0 41 15t17 42v77q0 51 -18.5 84.5t-75.5 56.5l185 150 q87 -37 121.5 -101t34.5 -160v-157q0 -121 -84.5 -197t-191.5 -76q-116 0 -182 82q-55 -82 -166 -82zM1587 -23q-252 0 -370 101t-118 309h268q0 -74 53 -113t146 -39h214q94 0 146.5 39.5t52.5 112.5h268q0 -200 -121 -305t-361 -105h-178z" />
<glyph horiz-adv-x="2120" d="M1139 1244q54 90 156 145.5t211 55.5v-264q-54 0 -92 -27zM1614 -10v268q27 0 50 4t48 18t42.5 37.5t29 64.5t11.5 97v474q0 121 -37.5 173.5t-143.5 52.5v266q101 0 179 -22.5t140.5 -72.5t96 -139.5t33.5 -215.5v-516q0 -489 -449 -489zM57 840q10 67 44.5 117 t83.5 76.5t97.5 39t96.5 12.5q91 0 159.5 -33.5t98.5 -79.5l4 2q90 75 209.5 114t244.5 39q138 0 254.5 -45.5t196 -143t89.5 -232.5v-224h-161q-113 0 -113 -109q0 -47 37 -81t108 -34v-268q-178 0 -293.5 111t-115.5 266q0 135 59 221q69 97 213 118q-23 68 -104.5 112.5 t-184.5 44.5q-155 0 -267 -97l-467 -379v-81q0 -25 17 -39t41 -14q22 0 38.5 14t16.5 39v81h192v-77q0 -27 17 -42t40 -15q24 0 41 15t17 42v77q0 51 -18.5 84.5t-75.5 56.5l185 150q87 -37 121.5 -101t34.5 -160v-157q0 -121 -84.5 -197t-191.5 -76q-116 0 -182 82 q-55 -82 -166 -82q-99 0 -182 64t-83 152v31q0 24 -2 37.5t-12 26t-30 12.5l-23 -4v190l397 323q-27 35 -75 35q-46 0 -72 -26t-26 -59z" />
<glyph horiz-adv-x="2070" d="M1457 -10q-179 0 -294.5 109t-115.5 263q0 132 48 212q64 106 218 132q-67 136 -232 136q-82 0 -170 -35t-163 -93l-392 -308q11 -13 31.5 -43t34 -46t35 -36t46.5 -29t56 -9q64 0 109.5 36t45.5 92q0 87 -94 127l186 149q159 -70 159 -293q0 -153 -108.5 -261 t-289.5 -108q-95 0 -189 52t-166 156q-4 6 -16.5 24.5t-17.5 25.5t-16.5 21t-20.5 19.5t-22.5 10.5t-28.5 5q-11 0 -33 -4v201l406 329q-29 29 -71 29q-46 0 -71.5 -26t-25.5 -59l-224 71q10 67 44.5 117t83 76.5t97 39t96.5 12.5q88 0 166.5 -42.5t84.5 -72.5 q179 127 410 127q105 0 200 -29.5t169.5 -84t118.5 -141.5t44 -193v-167h-161q-113 0 -113 -109q0 -47 37.5 -81t108.5 -34v-268zM1564 -10v268q35 0 63 8t57 29.5t45.5 68t16.5 115.5v474q0 120 -37.5 173t-144.5 53v266q101 0 179 -22.5t141 -72.5t96.5 -139.5 t33.5 -215.5v-516q0 -489 -450 -489zM1089 1244q54 90 156.5 145.5t211.5 55.5v-264q-54 0 -92 -27z" />
<glyph horiz-adv-x="2067" d="M567 -15q-95 0 -189 52t-166 156q-4 6 -16.5 24.5t-17.5 25.5t-16.5 21t-20.5 19.5t-22.5 10.5t-28.5 5q-11 0 -33 -4v201l404 329q-26 29 -69 29q-46 0 -71.5 -26t-25.5 -59l-224 71q10 67 44.5 117t83 76.5t97 39t96.5 12.5q83 0 159.5 -36t101.5 -71q82 61 157.5 92.5 t163.5 31.5q73 0 139 -13.5t129.5 -46.5t109.5 -84t74.5 -132t28.5 -183q-65 0 -102.5 -31t-37.5 -111v-76q0 -61 35.5 -109t104.5 -48v-278q-99 0 -179 39t-127.5 100.5t-72.5 131t-25 137.5v103q0 189 76 284q-36 57 -136 57q-40 0 -82 -18.5t-70 -39t-91 -70.5l-392 -308 q11 -13 31.5 -43t34 -46t35 -36t46.5 -29t56 -9q64 0 109.5 36t45.5 92q0 87 -94 127l186 149q159 -70 159 -293q0 -153 -108.5 -261t-289.5 -108zM1742 479v474q0 120 -37.5 173t-144.5 53q0 -70 29.5 -102t83.5 -43v-165q-138 27 -202 111.5t-64 200.5v264h153 q101 0 179 -22.5t141 -73t96.5 -141.5t33.5 -218v-511q0 -489 -450 -489v278q35 0 63 7.5t57 28t45.5 65.5t16.5 110z" />
<glyph horiz-adv-x="1860" d="M1143 1133q507 0 507 -373v-257h-356q-34 0 -57.5 -4t-49 -15.5t-39 -38t-13.5 -66.5q0 -119 161 -119h71q56 0 91 13.5t52 55.5l245 -65q-35 -121 -143.5 -192.5t-244.5 -71.5h-71q-127 0 -230 46.5t-157 137.5q-50 -90 -144.5 -144.5t-224.5 -54.5q-218 0 -350.5 132.5 t-132.5 372.5v168h226v-76h4q30 0 123 136q9 15 28 43.5t29 42.5q-12 26 -36.5 38t-47.5 12q-46 0 -72 -26t-26 -59l-224 71q10 67 44.5 117t83.5 76.5t97.5 39t96.5 12.5q69 0 132.5 -26.5t96.5 -59.5q150 134 425 134v-249q-113 0 -189 -36.5t-134 -112.5l-149 -197 q-75 -100 -127 -151.5t-105 -64.5q58 -79 199 -79q72 0 116.5 45t44.5 101q0 60 -50 91l146 198q68 -37 116 -106q49 94 150 141t239 47h82q0 29 -10 50.5t-29.5 34.5t-40 21.5t-51 12t-51.5 4.5t-51 1v249zM1154 -86h262q0 -24 27 -43.5t67 -19.5q32 0 60.5 16t35.5 43 l254 -65q-35 -105 -121 -170t-229 -65q-167 0 -261.5 85t-94.5 219z" />
<glyph horiz-adv-x="2070" d="M1457 -10q-179 0 -294.5 109t-115.5 263q0 132 48 212q64 106 218 132q-23 53 -60 87.5t-84.5 49.5t-86 19.5t-89.5 4.5q-88 0 -161.5 -36.5t-117.5 -95.5l-149 -197q-75 -100 -127 -151.5t-105 -64.5q58 -79 199 -79q72 0 116.5 45t44.5 101q0 60 -50 91l146 198 q85 -44 128.5 -124t43.5 -175q0 -74 -27.5 -143.5t-78.5 -126t-133 -90.5t-182 -34q-218 0 -350.5 132.5t-132.5 372.5v168h226v-76h4q30 0 123 136q9 15 28 43.5t29 42.5q-12 26 -36.5 38t-47.5 12q-46 0 -72 -26t-26 -59l-224 71q10 67 44.5 117t83.5 76.5t97.5 39 t96.5 12.5q70 0 135 -27.5t98 -60.5q74 61 176.5 93t214.5 32q87 0 170 -18.5t157.5 -57.5t130.5 -94t88.5 -133t31.5 -170v-167h-161q-113 0 -113 -109q0 -47 37.5 -81t108.5 -34v-268zM1564 -10v268q35 0 63 8t57 29.5t45.5 68t16.5 115.5v474q0 120 -37.5 173t-144.5 53 v266q101 0 179 -22.5t141 -72.5t96.5 -139.5t33.5 -215.5v-516q0 -489 -450 -489zM1089 1244q54 90 156.5 145.5t211.5 55.5v-264q-54 0 -92 -27z" />
</font>
</defs>
</svg>
