<?xml version="1.0" standalone="no"?>
<!DOCTYPE svg PUBLIC "-//W3C//DTD SVG 1.1//EN" "http://www.w3.org/Graphics/SVG/1.1/DTD/svg11.dtd" >
<svg xmlns="http://www.w3.org/2000/svg" xmlns:xlink="http://www.w3.org/1999/xlink" version="1.1">
<metadata></metadata>
<defs>
<font id="stick_no_billslight" horiz-adv-x="1186" >
<font-face units-per-em="2048" ascent="1638" descent="-410" />
<missing-glyph horiz-adv-x="459" />
<glyph unicode="fi" horiz-adv-x="945" d="M126 840h121v-840h76v840h203v-840h77v911h-280v146q0 189 134 201q3 1 22 1l17 73h-21q-58 0 -101.5 -21t-67 -50.5t-37.5 -70t-18 -71.5t-4 -62v-144h-121v-73zM511 1116q0 -22 16 -37t38 -15t36.5 15t14.5 37t-14.5 37t-36.5 15t-38 -15t-16 -37z" />
<glyph unicode="fl" horiz-adv-x="601" d="M126 840v73h121v144q0 31 4 62t18 71.5t37.5 70t67 50.5t101.5 21h162v-1332h-76v1259h-90q-43 -1 -74 -22t-44.5 -50.5t-21 -59t-7.5 -49.5l-1 -21v-146l121 2v-73h-121v-840h-76v840h-121z" />
<glyph unicode=" "  horiz-adv-x="459" />
<glyph unicode="&#x09;" horiz-adv-x="459" />
<glyph unicode="&#xa0;" horiz-adv-x="459" />
<glyph unicode="!" horiz-adv-x="252" d="M77 44q0 -20 14.5 -35t34.5 -15t35 15t15 35t-15 35t-35 15t-34.5 -15t-14.5 -35zM88 318h77v1022h-77v-1022z" />
<glyph unicode="&#x22;" horiz-adv-x="407" d="M77 890h76v519h-76v-519zM255 890h76v519h-76v-519z" />
<glyph unicode="#" horiz-adv-x="1435" d="M77 417h342l-67 -375h77l67 375h356l-65 -375h76l65 375l354 -2l10 73h-350l63 366l342 -2l12 74h-341l65 379h-76l-65 -379h-358l67 379h-77l-67 -379h-356l-11 -72h356l-63 -364h-343zM509 490l63 364h356l-63 -366z" />
<glyph unicode="$" horiz-adv-x="997" d="M77 302q1 -37 22.5 -84t59 -92t96 -81t124.5 -47v-88h57v157q-5 0 -13.5 1t-34.5 7.5t-50.5 16t-55.5 29.5t-56 46t-47 68t-32 92zM92 984q0 -65 16 -113t49.5 -81.5t72 -56t97.5 -44.5q17 -6 109 -23v79q-58 13 -101 29t-83.5 42t-62 65.5t-21.5 90.5q0 62 22 114 t54.5 84.5t71 55t69 32t51.5 9.5v169h-57v-104q-47 -11 -94 -36t-92 -65.5t-73 -105t-28 -141.5zM523 -90h57v88q143 23 242 138t99 253q0 75 -19 130t-55 89.5t-76 55t-95 35.5q-12 3 -153 28v-76q52 -9 92 -19.5t85.5 -30.5t75 -45.5t49 -65.5t19.5 -90 q0 -74 -35.5 -139.5t-87.5 -106t-105 -64t-93 -23.5v-157zM523 1267q9 0 23.5 -2t54 -15.5t72.5 -35.5t68.5 -69t52.5 -110l73 23q-5 30 -26.5 70t-56 82.5t-89 77t-115.5 46.5v102h-57v-169z" />
<glyph unicode="%" horiz-adv-x="564" d="M105 1122q0 -20 15 -35t35 -15t35 15t15 35t-15 34.5t-35 14.5t-35 -14.5t-15 -34.5zM77 -25h78l333 1415h-76zM356 239q0 -20 15 -35t35 -15t35 15t15 35t-15 35t-35 15t-35 -15t-15 -35z" />
<glyph unicode="&#x26;" horiz-adv-x="1217" d="M760 184l53 -56q-133 -130 -313 -130q-82 0 -158 29t-135 81t-94.5 130.5t-35.5 169.5q0 188 158 317l54 -53q-136 -106 -136 -264q0 -101 52.5 -179t132 -116t169.5 -38q71 0 138.5 28t114.5 81zM840 1051l75 19q-22 111 -103 189t-192 92v-76q87 -11 148 -79t72 -145z M515 1275v76q-131 -17 -216 -111.5t-85 -221.5q0 -53 17 -97t39.5 -73t70.5 -79l716 -740l84 23l-197 204q64 65 113 177.5t49 226.5h-76q0 -89 -42.5 -189t-99.5 -157l-482 501q-2 2 -19.5 18.5t-25.5 25.5t-24 29.5t-24 37.5t-15 41.5t-7 50.5q0 110 68.5 179.5 t155.5 77.5z" />
<glyph unicode="'" horiz-adv-x="229" d="M77 890h76v519h-76v-519z" />
<glyph unicode="(" horiz-adv-x="405" d="M77 362v614q0 53 7.5 97.5t18 76t30.5 59.5t35.5 44.5t43.5 34.5t44.5 26.5t47.5 23.5q15 7 23 11v-44q-4 -2 -28.5 -16t-31 -18.5t-27.5 -20.5t-29 -28.5t-22 -36t-20 -48.5t-11 -60.5t-5 -77.5l2 -538v-101q0 -74 16.5 -132t47 -96t53.5 -57.5t57 -40.5v-44 q-104 55 -158.5 109t-74 113t-19.5 150z" />
<glyph unicode=")" horiz-adv-x="421" d="M77 -17q62 26 110 62.5t75.5 76.5t45.5 77t25.5 75.5t9.5 59.5t2 41v601q0 139 -60 232.5t-208 148.5v-44q28 -16 35 -20.5t34.5 -24t38 -32t31 -39.5t29 -53t16 -64.5t7.5 -82.5v-599q0 -72 -12.5 -130.5t-28.5 -93t-44 -65t-45.5 -43.5t-47.5 -31q-9 -5 -13 -8v-44z " />
<glyph unicode="*" horiz-adv-x="679" d="M80 1349l205 -136l-208 -135l42 -62l182 123v-224h76v224l182 -130l44 61l-207 142l207 137l-42 62l-184 -121v213h-76v-203l-177 111z" />
<glyph unicode="+" horiz-adv-x="870" d="M77 526h317v-359h77v359h323v73h-323v354h-77v-354h-317v-73z" />
<glyph unicode="," horiz-adv-x="298" d="M77 -44h74l71 291h-75z" />
<glyph unicode="-" horiz-adv-x="757" d="M77 526h604v73h-604v-73z" />
<glyph unicode="." horiz-adv-x="302" d="M77 67q0 -30 22 -52.5t52 -22.5t52.5 22.5t22.5 52.5t-22.5 52.5t-52.5 22.5t-52 -22.5t-22 -52.5z" />
<glyph unicode="/" horiz-adv-x="564" d="M77 -25h78l333 1415h-76z" />
<glyph unicode="0" horiz-adv-x="968" d="M425 0q-35 2 -70 14t-76 39t-75.5 77.5t-64 121.5t-46 180t-16.5 244q0 138 20.5 250t54 186t79 124.5t94.5 73.5t102 26v-73q-39 0 -83 -29.5t-86.5 -87t-71 -158t-31.5 -226.5v-113q0 -134 21 -240t51.5 -166.5t69 -100.5t70 -54t58.5 -15v-73zM544 0v73 q271 39 271 576v113q0 98 -19 183t-48.5 141.5t-66.5 97.5t-72.5 59.5t-66.5 19.5v73q53 -3 102 -26t94.5 -73.5t79 -124.5t54 -186t20.5 -250q0 -135 -16.5 -244t-46 -180t-64 -121.5t-75.5 -77.5t-76 -39t-70 -14z" />
<glyph unicode="1" horiz-adv-x="306" d="M77 1194h76v-1194h77v1340h-77l-76 -63v-83z" />
<glyph unicode="2" horiz-adv-x="976" d="M78 995l71 -15q9 57 29 104t44 76t51 50.5t52 32t45.5 16.5t32.5 7l12 1v73q-97 -8 -172.5 -61t-115.5 -127t-49 -157zM115 0h773v73h-773v-73zM115 153h76q0 52 15.5 100.5t40 85.5t62 72.5t73 60.5t81.5 51t79.5 42t75.5 35.5t61 29.5q106 54 162 128t59 188 q1 63 -11 118.5t-41.5 107t-74.5 88t-114.5 58.5t-157.5 22v-73q322 0 322 -321q0 -40 -9.5 -74.5t-29.5 -61.5t-39.5 -47.5t-51.5 -41t-53 -31.5t-56 -28q-5 -2 -40 -17.5t-64 -29t-75 -40t-82.5 -53.5t-77 -67.5t-67.5 -83.5t-45 -100t-18 -118z" />
<glyph unicode="3" horiz-adv-x="974" d="M521 -8q120 0 207 49.5t128.5 130t41.5 182.5t-34 178t-119 134q84 57 118.5 133.5t34.5 178.5t-41.5 182.5t-128.5 130t-207 49.5v-73q137 0 218.5 -76.5t81.5 -218.5q0 -39 -6.5 -73t-26.5 -72t-52.5 -64.5t-90.5 -44t-134 -17.5v-69q76 0 134 -17.5t90.5 -44.5 t52.5 -65t26.5 -72t6.5 -73q0 -142 -81.5 -218.5t-218.5 -76.5v-73zM78 337q9 -83 49 -157t115.5 -127t172.5 -61v73q-5 0 -13 1t-31.5 7t-46 16t-51.5 32t-51.5 51t-43 76t-29.5 104zM78 995l71 -15q9 57 29 104t44 76t51 50.5t52 32t45.5 16.5t32.5 7l12 1v73 q-97 -8 -172.5 -61t-115.5 -127t-49 -157z" />
<glyph unicode="4" horiz-adv-x="958" d="M57 278h557v72h-474l474 814v132l-557 -946v-72zM701 0h78v278h103v72h-103v992h-78v-1342z" />
<glyph unicode="5" horiz-adv-x="995" d="M77 678l74 -46q113 151 274 151v73q-143 0 -264 -94l40 503l609 2v73h-678zM511 0q77 2 149 30t130.5 80t93.5 134.5t35 182.5q0 82 -24.5 156.5t-72.5 136.5t-128.5 99t-182.5 37v-73q39 0 81.5 -10.5t88.5 -36.5t81.5 -64.5t58.5 -101.5t23 -141q0 -87 -34.5 -158 t-87 -112.5t-107.5 -63.5t-104 -22v-73zM80 205q48 -92 138.5 -148.5t206.5 -56.5v73q-106 8 -168 47t-113 127z" />
<glyph unicode="6" horiz-adv-x="1022" d="M473 -2v73q-66 0 -119 26.5t-84.5 65t-52.5 86t-29 86t-8 69.5q0 141 78 239t215 98v72q-98 0 -185 -46.5t-135 -146.5q0 58 2.5 108.5t10.5 114t21.5 115.5t38 105.5t57.5 92t81.5 67t108.5 38.5v73q-70 -7 -128.5 -36t-98.5 -71t-71 -99t-49 -114.5t-29.5 -122 t-15.5 -117.5t-4 -106q0 -110 9 -198.5t35 -178t68.5 -150t114.5 -100t169 -43.5zM578 -2q149 2 258.5 117.5t109.5 290.5q0 176 -98 291.5t-270 115.5v-68q53 0 103.5 -20.5t93.5 -60.5t69.5 -107.5t26.5 -152.5q0 -75 -33 -150t-102 -129t-158 -54v-73zM831 1095l63 42 q-41 86 -126 142.5t-192 56.5v-73q52 0 96.5 -16t75 -43.5t50 -53.5t33.5 -55z" />
<glyph unicode="7" horiz-adv-x="840" d="M840 1265v75h-763v-77zM421 0h82q13 127 35 256t59 289t97 325.5t137 308.5h-83q-250 -477 -327 -1179z" />
<glyph unicode="8" horiz-adv-x="993" d="M444 0v73q-59 3 -110 22.5t-93 55.5t-66 95t-24 135q0 60 19.5 106t49 73t70.5 43.5t79 22.5t79 6v72q-142 0 -213.5 74.5t-71.5 180.5q0 53 17.5 104t51 95.5t90.5 73t128 31.5v73q-81 0 -151 -33t-116.5 -87t-72.5 -122t-26 -139q0 -85 38.5 -161t114.5 -126 q-91 -52 -125.5 -126t-34.5 -171q0 -95 42 -178.5t127.5 -138t197.5 -54.5zM549 0q112 0 198 54.5t128 138t42 178.5q0 97 -35 171t-126 126q76 50 114.5 126t38.5 161q0 96 -43.5 182t-128.5 142.5t-193 56.5v-73q71 -3 128 -31.5t90.5 -73t51 -95.5t17.5 -104 q0 -106 -72 -180.5t-214 -74.5v-72q41 0 79 -6t79 -22.5t70.5 -43.5t49 -73t19.5 -106q0 -76 -24 -135t-66 -95t-93 -55.5t-110 -22.5v-73z" />
<glyph unicode="9" horiz-adv-x="1016" d="M538 4q70 -1 129 24t99.5 66.5t72 98.5t50 116t30.5 124.5t16.5 118t4.5 101.5q0 82 -4.5 152t-16.5 141.5t-31.5 128.5t-50.5 107.5t-72.5 84.5t-99 53.5t-127.5 19.5v-77q73 -1 132.5 -35t93.5 -85t51.5 -104.5t17.5 -100.5q0 -160 -76 -248.5t-219 -88.5v-77 q59 0 108.5 11t80.5 26.5t57 38.5t38 39.5t25 37t16 24.5q0 -144 -22.5 -257t-56.5 -180t-79.5 -110.5t-86 -59.5t-80.5 -16v-74zM454 524v77q-141 0 -223 88t-82 239q0 39 11 82t35 88t58.5 81t87 59.5t113.5 24.5v77q-150 -2 -263.5 -120t-113.5 -292q0 -185 98 -294.5 t279 -109.5zM109 220q49 -95 143 -156.5t202 -61.5v76q-88 0 -165.5 52t-116.5 130z" />
<glyph unicode=":" horiz-adv-x="292" d="M96 40q0 -20 14.5 -35t34.5 -15t35 15t15 35t-15 35t-35 15t-34.5 -15t-14.5 -35zM98 595q0 -20 14.5 -35t34.5 -15t35 15t15 35t-15 35t-35 15t-34.5 -15t-14.5 -35z" />
<glyph unicode=";" horiz-adv-x="380" d="M96 -44h74l71 291h-74zM186 595q0 -20 14.5 -35t34.5 -15t35 15t15 35t-15 35t-35 15t-34.5 -15t-14.5 -35z" />
<glyph unicode="&#x3c;" horiz-adv-x="830" d="M77 528l677 -377v77l-589 331l589 321v77l-677 -367v-62z" />
<glyph unicode="=" horiz-adv-x="800" d="M96 417h608v77h-608v-77zM96 622h608v77h-608v-77z" />
<glyph unicode="&#x3e;" horiz-adv-x="830" d="M77 151l677 377v62l-677 367v-77l589 -321l-589 -331v-77z" />
<glyph unicode="?" horiz-adv-x="918" d="M77 1169l51 -53q18 25 42 47.5t62 48.5t91 41.5t113 15.5q153 0 243 -93.5t90 -235.5q0 -84 -32.5 -149t-89.5 -104.5t-130 -59.5t-159 -22v-469h73v392q9 1 23.5 3t57.5 13t81.5 27t86 48t81.5 73t57.5 106t23.5 142q-6 186 -114.5 296t-291.5 110q-73 0 -133.5 -16 t-104 -46t-69 -55t-52.5 -60zM346 8q0 -20 15 -35t35 -15t35 15t15 35t-15 34.5t-35 14.5t-35 -14.5t-15 -34.5z" />
<glyph unicode="@" horiz-adv-x="1471" d="M77 591q0 -142 48.5 -267.5t136.5 -219.5t221 -149t292 -55q294 0 536 178l-34 66q-122 -85 -241.5 -128t-260.5 -43q-175 0 -316.5 78t-223.5 219.5t-82 320.5q0 177 92 323.5t246.5 228.5t335.5 82q88 0 175.5 -30.5t159.5 -85t116.5 -138.5t44.5 -182q0 -101 -24 -179 t-58.5 -120.5t-78.5 -69.5t-76.5 -35t-61.5 -8q-52 0 -85.5 50.5t-25.5 81.5q15 65 19 81l79 312h-75l-12 -41l-7 7l-8.5 8.5t-9 8t-11 9t-12 7.5t-15.5 7.5t-17.5 6t-20.5 5t-23 3t-27 1.5q-38 0 -78.5 -13t-81 -41t-72.5 -67t-52 -96.5t-20 -124.5q0 -108 61 -183.5 t146 -75.5q63 0 111.5 31.5t69.5 64.5q9 -33 58.5 -72t97.5 -39q19 0 43 3t62.5 15.5t74 32t73.5 56.5t65.5 86t45.5 123.5t18 165.5q0 98 -34 182.5t-91 143t-131 100.5t-153.5 62t-158.5 20q-156 0 -294.5 -54.5t-238.5 -148t-158.5 -225t-58.5 -279.5z" />
<glyph unicode="A" horiz-adv-x="821" d="M57 0h77l237 1060l-19 86h-32zM276 258h358l53 -258h77l-291 1338h-77l220 -1007h-325z" />
<glyph unicode="B" horiz-adv-x="979" d="M77 0v1340h76v-1340h-76zM239 -2v73h184q90 0 161.5 20t116 52.5t74 75.5t41 85.5t11.5 87.5q0 112 -66 178.5t-214 66.5h-308v73h308q149 0 210.5 64t61.5 177q0 42 -11.5 84.5t-37.5 84.5t-63.5 74.5t-94.5 52.5t-126 20h-247v73h251q84 0 153.5 -24t115.5 -63 t77.5 -90t45.5 -104.5t14 -107.5q0 -93 -37.5 -164t-94.5 -113q44 -35 70 -63.5t47.5 -85.5t21.5 -133q0 -172 -115 -283t-290 -111h-259z" />
<glyph unicode="C" horiz-adv-x="987" d="M77 346q0 -37 12.5 -81.5t42 -93.5t71.5 -89t109.5 -66t148.5 -26v73q-62 0 -114.5 20.5t-87.5 51.5t-59.5 70t-35.5 75t-11 66v645q0 30 10.5 66.5t35.5 75.5t59.5 71t87.5 52.5t115 20.5v72q-80 1 -147.5 -25.5t-110 -66.5t-72 -90t-42 -94.5t-12.5 -81.5v-645z M547 -10q143 0 253.5 104.5t110.5 253.5l-65 16q0 -3 -4 -37q-13 -60 -13 -61q-17 -56 -52 -97.5t-73 -60.5t-74 -30.5t-60 -13.5l-23 -1v-73zM547 1277q8 0 22.5 -1.5t54 -14t73.5 -33.5t72 -67t60 -108q7 -20 11 -50q2 -11 2 -33l69 18q0 138 -112.5 250t-251.5 111v-72z " />
<glyph unicode="D" horiz-adv-x="903" d="M77 0h76v1340h-76v-1340zM239 0q68 0 102 0.5t94.5 3.5t93 9.5t81 19.5t74.5 31.5t57.5 47t47.5 65.5t27 87.5t11 112.5v586q0 62 -11 112.5t-26 87.5t-46 65.5t-56 47t-72 31.5t-77 19.5t-89 9.5t-90 3.5t-95 0.5h-26v-73q190 0 256 -9q165 -23 220 -128q35 -65 35 -167 v-586q0 -63 -15 -111t-37 -80t-64 -54t-77.5 -33.5t-97.5 -17.5t-104 -7t-116 -1v-73z" />
<glyph unicode="E" horiz-adv-x="849" d="M77 0h696v73h-620v559h440v72h-440v563h620v73h-696v-1340z" />
<glyph unicode="F" horiz-adv-x="849" d="M77 2h76v630h440v72h-440v563h620v73h-696v-1338z" />
<glyph unicode="G" horiz-adv-x="985" d="M77 367q0 -79 28 -145t70.5 -107.5t95.5 -71t100.5 -41.5t87.5 -12v73q-25 0 -61.5 10t-79.5 34t-79.5 57.5t-61 87t-24.5 115.5v605q0 124 92.5 214.5t213.5 90.5v72q-92 1 -168.5 -36t-121 -92.5t-68.5 -112.5t-24 -105v-636zM545 -10q81 0 167 54t141.5 135.5 t55.5 157.5v339h-364v-73h288v-239q0 -60 -30.5 -117.5t-75.5 -96.5t-94.5 -63t-87.5 -24v-73zM545 1277q25 0 57.5 -9t71.5 -31t72 -53.5t57.5 -82t29.5 -110.5q2 -10 2 -30l74 27q0 139 -112 250.5t-252 110.5v-72z" />
<glyph unicode="H" horiz-adv-x="907" d="M77 0h76v637h257v73h-257v630h-76v-1340zM498 637h256v-637h77v1340h-77v-630h-256v-73z" />
<glyph unicode="I" horiz-adv-x="237" d="M80 0h77v1340h-77v-1340z" />
<glyph unicode="J" horiz-adv-x="951" d="M38 369q0 -76 27 -141t68.5 -107.5t92 -73t96 -44t82.5 -13.5v73q-39 0 -87 20t-94 57.5t-77 101.5t-31 141v80h-77v-94zM492 -10q37 0 84 12.5t100.5 42t97 71.5t72.5 108t29 145v971h-77v-971q0 -73 -36 -135t-87 -97t-100 -54.5t-83 -19.5v-73z" />
<glyph unicode="K" horiz-adv-x="939" d="M77 0h76v1340h-76v-1340zM239 653l567 -653h96l-567 653l559 687h-96z" />
<glyph unicode="L" horiz-adv-x="834" d="M77 0h719v73h-643v1267h-76v-1340z" />
<glyph unicode="M" horiz-adv-x="1332" d="M80 0h77v903l-59 148h-18v-1051zM80 1298l540 -1298h73l396 898v149h-19l-413 -934l-506 1227h-71v-42zM1175 0h77v1340h-77v-1340z" />
<glyph unicode="N" horiz-adv-x="1012" d="M80 0h77v1041l-61 100h-16v-1141zM80 1294l812 -1294h40v101l-777 1239h-75v-46zM856 362l61 -102h15v1080h-76v-978z" />
<glyph unicode="O" horiz-adv-x="1010" d="M77 373q0 -79 28 -145.5t70.5 -109t94.5 -72.5t98.5 -43t83.5 -13v75q-40 0 -90.5 21.5t-97.5 59t-79 98t-32 129.5v599q0 34 13 74t39 80.5t61.5 73.5t84.5 54t103 21v74q-72 0 -136 -25t-106.5 -63.5t-74 -86t-46 -91.5t-14.5 -80v-630zM557 -10q37 0 83.5 13t99 43 t95 72.5t71 109t28.5 145.5v630q0 35 -14.5 79t-46 91.5t-74.5 86.5t-106.5 64t-135.5 25v-74q67 0 126 -30t95.5 -76t57.5 -98t21 -99v-599q0 -71 -31.5 -132t-78.5 -98t-97.5 -57.5t-92.5 -20.5v-75z" />
<glyph unicode="P" horiz-adv-x="926" d="M80 0h77v1340h-77v-1340zM243 590h327q54 3 97.5 13.5t86 36.5t71 67t46 107t17.5 153q0 86 -18 151.5t-46.5 105.5t-71.5 66t-86 36.5t-96 13.5h-327v-69h285q151 0 216.5 -72.5t65.5 -226.5q0 -165 -67 -238.5t-213 -73.5h-287v-70z" />
<glyph unicode="Q" horiz-adv-x="1010" d="M77 373q0 -79 28 -145.5t70.5 -109t95 -72.5t101 -43t89.5 -13v73q-18 0 -50 7.5t-78 29.5t-85 55t-67 90t-28 128v599q0 48 21.5 101t59 99t97.5 75.5t130 29.5v72q-74 1 -139 -24t-109 -64t-75.5 -86t-46 -91.5t-14.5 -80.5v-630zM549 -10l144 -195l61 44l-111 165 q291 117 291 369v630q0 35 -15 79.5t-47 92t-75.5 86.5t-108.5 64t-139 24v-72q56 0 106.5 -19.5t86 -51.5t62 -72t39.5 -82t13 -80v-599q0 -70 -28.5 -127t-68.5 -89.5t-86 -55t-77.5 -30.5t-46.5 -8v-73z" />
<glyph unicode="R" horiz-adv-x="974" d="M80 0h77v1340h-77v-1340zM243 609h327q70 3 116 -14t71.5 -56t37 -83.5t17.5 -114.5l28 -341h77l-33 415q-13 171 -147 230q132 74 132 322q0 86 -18.5 151.5t-48 105.5t-73.5 66t-88 36.5t-99 13.5h-299v-63h257q156 0 223 -74t67 -231q0 -154 -56.5 -221.5 t-184.5 -67.5h-306v-74z" />
<glyph unicode="S" horiz-adv-x="958" d="M57 302q1 -41 27 -92.5t70.5 -100.5t114.5 -82t148 -33v73q-5 0 -13.5 1t-34.5 7.5t-50.5 16t-55.5 29.5t-56 46t-47 68t-32 92zM73 984q0 -65 16 -113t49.5 -81.5t72 -56t97.5 -44.5q25 -10 80 -19.5t108.5 -17t115 -26t107 -43.5t76 -72.5t30.5 -110.5 q0 -74 -36 -139.5t-87.5 -106t-105 -64t-93.5 -23.5v-73q107 0 200 57t146 148t53 190q0 75 -19 130t-55 89.5t-76 55t-95 35.5q-27 7 -75.5 15.5t-92.5 16.5t-95.5 20t-93 30t-77 42.5t-55 62.5t-19.5 86q0 62 22 114t54.5 84.5t71 55t69 32t51.5 9.5v73q-33 0 -75.5 -12 t-90 -39.5t-87 -67t-65.5 -102t-26 -135.5zM503 1267q9 0 23.5 -2t54 -15.5t73 -35.5t69 -69t52.5 -110l73 23q-5 26 -21 60t-46.5 73.5t-69 72.5t-93.5 54.5t-115 21.5v-73z" />
<glyph unicode="T" horiz-adv-x="905" d="M38 1267h375v-1267h77v1267h377v73h-829v-73z" />
<glyph unicode="U" horiz-adv-x="1008" d="M77 369q0 -79 29 -145t73 -108t97.5 -71.5t100.5 -42t84 -12.5v73q-25 0 -62 11t-80 36t-80 59.5t-61.5 87t-24.5 112.5v971h-76v-971zM549 -10q38 0 85 12t100.5 41.5t97 71.5t72 108.5t28.5 145.5v971h-76v-971q0 -77 -36 -139.5t-87.5 -96.5t-100 -52t-83.5 -18v-73z " />
<glyph unicode="V" horiz-adv-x="911" d="M19 1340l389 -1340h32l25 65l-371 1275h-75zM465 316l27 -96h19l381 1120h-75z" />
<glyph unicode="W" horiz-adv-x="1515" d="M19 1340h75l363 -1256l-21 -84h-28zM450 348l264 992h75l331 -1267l-25 -73h-29l-316 1200l-254 -951h-19zM1129 346l293 994h75l-320 -1091h-19z" />
<glyph unicode="X" horiz-adv-x="903" d="M57 0h75l320 622l319 -622h75l-358 693l335 647h-75l-296 -578l-297 578h-75l335 -647z" />
<glyph unicode="Y" horiz-adv-x="932" d="M57 1340l353 -858v-482h76v484l-350 856h-79zM492 683l36 -88h8l339 745h-79z" />
<glyph unicode="Z" horiz-adv-x="855" d="M77 0h700l2 73h-620l618 1200v67h-700v-73h618l-618 -1200v-67z" />
<glyph unicode="[" horiz-adv-x="344" d="M96 -69h153v73h-81l6 1338h75v72h-153v-1483z" />
<glyph unicode="\" horiz-adv-x="566" d="M77 1370l333 -1414h80l-335 1414h-78z" />
<glyph unicode="]" horiz-adv-x="344" d="M96 -69h153v1483h-153v-72h74l6 -1338h-80v-73z" />
<glyph unicode="^" horiz-adv-x="815" d="M96 880h78l232 466l235 -466h79l-286 567h-53z" />
<glyph unicode="_" horiz-adv-x="1014" d="M77 -320v-72h861v72h-861z" />
<glyph unicode="`" horiz-adv-x="300" d="M77 1449l91 -291h56l-71 291h-76z" />
<glyph unicode="a" horiz-adv-x="888" d="M77 232q0 -88 83 -159t215 -71v73q-41 0 -78 10t-69.5 30t-52 55.5t-20.5 82.5v74q0 54 21 75q28 29 127.5 54.5t216 51t165.5 51.5v-274q0 -210 -224 -210v-73q62 0 126 19.5t98 53.5q16 -24 28 -37t38 -24.5t61 -11.5v75q-20 0 -32 14t-15 27t-3 24v549q0 53 -19 105 t-54.5 96.5t-95 72.5t-132.5 28v-69q80 0 151 -63t71 -166v-31q0 -26 -67 -51.5t-151 -43t-173.5 -39.5t-121.5 -38q-56 -29 -74.5 -71.5t-18.5 -100.5v-88zM90 745l71 -27q0 87 65.5 145t148.5 58v72q-109 0 -197.5 -72.5t-87.5 -175.5z" />
<glyph unicode="b" horiz-adv-x="819" d="M77 0h76v1338h-76v-1338zM239 0h222q72 0 132 28.5t95.5 71.5t54.5 88t19 82v452q0 101 -89.5 183.5t-205.5 82.5h-228v-73h226q80 0 150 -63t70 -138v-440q0 -78 -73 -139.5t-147 -61.5h-226v-73z" />
<glyph unicode="c" horiz-adv-x="826" d="M77 270v442q0 44 19.5 91t56 89t97 69t133.5 27v-73q-95 0 -161.5 -69t-66.5 -140v-436q0 -65 66 -131t160 -66v-73q-82 0 -144.5 29t-95.5 73t-48.5 87t-15.5 81zM467 913v75q116 0 198.5 -81.5t82.5 -194.5l-74 -27q0 21 -2 31q-9 94 -71.5 145.5t-133.5 51.5zM465 -2 v73q82 0 150 60.5t78 146.5q2 10 2 26l74 -28q0 -111 -93.5 -194.5t-210.5 -83.5z" />
<glyph unicode="d" horiz-adv-x="819" d="M57 270q0 -37 19 -82t54.5 -88t95.5 -71.5t132 -28.5h222v73h-226q-74 0 -147 61.5t-73 139.5v440q0 75 70 138t150 63h226v73h-228q-116 0 -205.5 -82.5t-89.5 -183.5v-452zM666 0h77v1338h-77v-1338z" />
<glyph unicode="e" horiz-adv-x="865" d="M77 270q0 -36 21 -81t58 -88t99 -72t135 -29v73q-89 0 -163 69.5t-74 127.5v203h634v250q0 69 -48 131.5t-120 98t-144 35.5v-69q89 0 162 -64.5t73 -148.5v-161h-557v161q0 66 70 137.5t166 71.5v73q-73 0 -134.5 -28.5t-98.5 -70.5t-57.5 -86t-21.5 -81v-452zM475 0 q120 0 202.5 66t111.5 164l-75 26q-15 -62 -80.5 -120t-158.5 -58v-78z" />
<glyph unicode="f" horiz-adv-x="465" d="M57 840h121v-840h77v840h120v73l-120 -2v146q0 31 3 56t12 52.5t24.5 46.5t42.5 32t63 15h10l17 73h-21q-58 0 -101.5 -21t-67 -50.5t-37.5 -70t-18 -71.5t-4 -62v-144h-121v-73z" />
<glyph unicode="g" horiz-adv-x="828" d="M57 -346h402q69 1 128 31t93 74t53 87.5t19 76.5v1065h-76v-98q-22 32 -87 65t-133 33v-73q24 0 52.5 -7.5t58.5 -23.5t54 -39t39.5 -56.5t15.5 -72.5v-450q0 -72 -72 -136.5t-148 -64.5v-67q79 1 139 36.5t81 68.5v-180q0 -67 -71 -130t-182 -67h-345zM75 266 q0 -35 17.5 -78.5t50.5 -86.5t92.5 -72.5t133.5 -30.5v73q-89 0 -153.5 67.5t-64.5 129.5v450q0 64 66 130.5t152 66.5v73q-72 0 -130.5 -28.5t-92.5 -71.5t-52 -86t-19 -79v-457z" />
<glyph unicode="h" horiz-adv-x="851" d="M77 2h76v697q0 77 75.5 141.5t160.5 64.5v73q-86 0 -146.5 -33t-91.5 -76v467h-74v-1334zM475 905q108 0 166 -61.5t58 -144.5v-697h76v714q0 105 -82.5 183.5t-217.5 78.5v-73z" />
<glyph unicode="i" horiz-adv-x="266" d="M80 1116q0 -22 16 -37t38 -15t37 15t15 37t-15 37t-37 15t-38 -15t-16 -37zM96 0h76v988h-76v-988z" />
<glyph unicode="j" horiz-adv-x="333" d="M163 988v-1055q0 -73 -63.5 -138t-141.5 -69h-21l-17 -72h32q56 0 104.5 20.5t81 52t56 69.5t34.5 73.5t11 63.5v1055h-76zM151 1116q0 -22 16 -37t38 -15t36.5 15t14.5 37t-14.5 37t-36.5 15t-38 -15t-16 -37z" />
<glyph unicode="k" horiz-adv-x="876" d="M77 0h76v1336h-76v-1336zM195 492l528 -492h115l-528 492l528 492h-115z" />
<glyph unicode="l" horiz-adv-x="237" d="M80 0h77v1336h-77v-1336z" />
<glyph unicode="m" horiz-adv-x="1339" d="M73 0h76v712q0 88 54 148.5t143 60.5v72q-62 0 -111 -19t-78.5 -47.5t-49 -66t-27 -71.5t-7.5 -67v-722zM431 921q89 0 145 -61t56 -148v-712h76v712q0 87 55 148t144 61v72q-66 0 -113 -18t-72.5 -44.5t-51.5 -69.5q-39 66 -91 99t-148 33v-72zM991 921q89 0 144.5 -60 t55.5 -149v-712h76v722q0 39 -14 82.5t-44 87.5t-87 72.5t-131 28.5v-72z" />
<glyph unicode="n" horiz-adv-x="861" d="M73 0h76v712q0 77 75 141t166 64v76q-60 0 -113.5 -19t-89.5 -48.5t-62.5 -66t-39 -72t-12.5 -65.5v-722zM471 917q55 0 103 -23t77 -56t45 -67t16 -59v-712h77v722q0 37 -21 81.5t-58.5 88t-100.5 72.5t-138 29v-76z" />
<glyph unicode="o" horiz-adv-x="842" d="M73 270q0 -29 11.5 -63.5t37.5 -71.5t61.5 -67.5t89 -50t114.5 -19.5v73q-97 0 -167.5 77t-70.5 147v400q0 77 66 148.5t172 71.5v73q-75 0 -137.5 -28.5t-99.5 -71t-57 -87t-20 -81.5v-450zM465 -2q73 0 134 29t96.5 72t54.5 88t19 83v450q0 37 -19 81.5t-54.5 87 t-96.5 71t-134 28.5v-73q99 0 163.5 -73t64.5 -147v-404q0 -73 -64.5 -146.5t-163.5 -73.5v-73z" />
<glyph unicode="p" horiz-adv-x="849" d="M256 0h209q77 0 140 27t100 68.5t56.5 86t19.5 84.5v452q0 40 -20.5 85t-59.5 87t-105 70t-146 28h-207v-73h207q113 0 183.5 -67.5t70.5 -135.5v-438q0 -79 -64.5 -140t-170.5 -61h-213v-73zM80 -348h77v1336h-77v-1336z" />
<glyph unicode="q" horiz-adv-x="838" d="M389 0h193v73h-197q-106 0 -171 61t-65 140v438q0 70 64 136.5t176 66.5h206v73h-206q-65 0 -119.5 -18.5t-90 -47.5t-60 -65.5t-35.5 -71.5t-11 -67v-452q0 -40 19.5 -84.5t56.5 -86t100 -68.5t140 -27zM681 -348h77v1336h-77v-1336z" />
<glyph unicode="r" horiz-adv-x="445" d="M80 0h77v590q0 118 73 221.5t159 103.5l19 71h-2q-92 0 -159 -51.5t-90 -109.5v163h-77v-988z" />
<glyph unicode="s" horiz-adv-x="794" d="M38 260q0 -100 89 -185t221 -85v73q-81 0 -158 62.5t-77 148.5zM46 699q0 -156 189 -198q35 -8 91.5 -20.5t92 -20.5t81 -20.5t73.5 -25t54.5 -30t39 -40.5t12.5 -51q0 -72 -42.5 -127t-98.5 -80t-111 -25v-71q140 0 234.5 84t94.5 219q0 163 -214 216q-46 11 -106.5 25 t-94.5 22t-75.5 19.5t-63 22t-42.5 25t-29.5 33.5t-8.5 43q0 93 74 155.5t149 62.5v73q-48 0 -98 -17.5t-96 -50.5t-75.5 -91.5t-29.5 -131.5zM425 915q44 0 97 -22t97.5 -72.5t44.5 -116.5l75 12q0 102 -90.5 188t-223.5 86v-75z" />
<glyph unicode="t" horiz-adv-x="482" d="M38 838h121v-516q0 -77 13.5 -133t46 -100t91 -66t144.5 -23h28l-17 73h-2q-128 0 -178 57.5t-50 173.5v534h121v75h-121v427h-76v-427h-121v-75z" />
<glyph unicode="u" horiz-adv-x="861" d="M73 262q0 -39 20 -84t57 -88t100 -71.5t140 -28.5v77q-96 0 -168.5 67.5t-72.5 137.5v712h-76v-722zM471 -10q61 0 115 19.5t90 50t62.5 67t38.5 71.5t12 64v722h-77v-712q0 -73 -71 -139t-170 -66v-77z" />
<glyph unicode="v" horiz-adv-x="773" d="M19 986l341 -986h38l25 59l-318 927h-86zM412 268l30 -92h23l289 810h-86z" />
<glyph unicode="w" horiz-adv-x="1383" d="M19 988h86l318 -927l-21 -59h-38zM412 270l237 718h86l318 -927l-21 -59h-39l-300 859l-228 -683h-23zM1041 270l238 718h86l-270 -810h-23z" />
<glyph unicode="x" horiz-adv-x="725" d="M15 0h75l274 444l271 -444h75l-298 501l290 485h-76l-262 -425l-264 427h-75l293 -487z" />
<glyph unicode="y" horiz-adv-x="746" d="M8 986l323 -774l-186 -560h75l186 560l-324 774h-74zM408 377l32 -78h10l289 687h-75z" />
<glyph unicode="z" horiz-adv-x="681" d="M57 0h567v73h-486l486 850v61h-567v-73h487l-485 -840z" />
<glyph unicode="{" horiz-adv-x="419" d="M29 666q9 -5 31.5 -16t30.5 -15.5t22.5 -14.5t19.5 -17.5t9.5 -20t4.5 -27.5v-291q0 -185 56.5 -261t177.5 -76v65q-30 0 -50 5.5t-42 28.5t-35 65t-21.5 118.5t-8.5 186.5v186q0 33 -11.5 53.5t-45.5 30.5q33 8 45 24t12 43v165q0 110 1.5 177t8.5 121t16 79.5t29 42.5 t42 20.5t60 3.5v65q-64 0 -104.5 -13.5t-71.5 -50t-44.5 -104t-13.5 -173.5v-285q0 -11 -2 -20.5t-4 -16.5t-7.5 -14.5t-8.5 -12t-12 -10.5t-13 -9t-16 -8.5t-16 -7.5t-19 -8z" />
<glyph unicode="|" horiz-adv-x="258" d="M96 -256h67v1699h-67v-1699z" />
<glyph unicode="}" horiz-adv-x="419" d="M38 -73q121 0 177.5 76t56.5 261v291q0 15 4.5 27.5t9.5 20t19.5 17.5t22.5 14.5t30.5 15.5t31.5 16l-20 8t-19 8t-16 7.5t-16 8.5t-13 9t-12 10.5t-8.5 12t-7.5 14.5t-4 16.5t-2 20.5v285q0 106 -13.5 173.5t-44.5 104t-71.5 50t-104.5 13.5v-65q38 0 60 -3.5t42 -20.5 t29 -42.5t16 -79.5t8.5 -121t1.5 -177v-165q0 -27 12.5 -43t45.5 -24q-34 -11 -46 -31t-12 -53v-186q0 -110 -8.5 -186.5t-21.5 -118.5t-35 -65t-42 -28.5t-50 -5.5v-65z" />
<glyph unicode="~" horiz-adv-x="1202" d="M153 612q106 69 205 69q52 0 108.5 -21.5t99 -48t102.5 -48t119 -21.5q117 0 262 88v69q-142 -87 -251 -87q-56 0 -114.5 22t-100.5 48t-100 48t-114 22q-101 0 -216 -67v-73z" />
<glyph unicode="&#xa1;" horiz-adv-x="264" d="M38 936q0 -22 16 -37t38 -15t37 15t15 37t-15 37t-37 15t-38 -15t-16 -37zM54 -180h76v988h-76v-988z" />
<glyph unicode="&#xa2;" horiz-adv-x="803" d="M463 1104h63v-124q94 -20 156.5 -95.5t62.5 -172.5l-75 -27v23q-8 98 -71 151.5t-136 53.5v191zM316 1104h63v-189q-95 0 -161.5 -69t-66.5 -140v-436q0 -65 67 -131t161 -66v-190h-63v123q-64 10 -114 41.5t-76.5 72t-39.5 79t-13 71.5v442q0 85 65 167.5t178 102.5v122 zM463 -117v188q80 0 146 57.5t80 141.5q2 11 2 34l75 -28q0 -95 -70.5 -171.5t-169.5 -98.5v-123h-63z" />
<glyph unicode="&#xa3;" horiz-adv-x="712" d="M38 616h119v-616h517v73h-440v547h279v73h-279v371q0 93 57 150t143 57q104 0 169 -100l67 33q-44 88 -132 122q-53 21 -111 21h-4q-126 0 -196 -85.5t-70 -203.5v-369h-119v-73z" />
<glyph unicode="&#xa4;" horiz-adv-x="1144" d="M77 314l47 -56l142 127q96 -132 260 -132v72q-97 0 -167 77t-70 147v299q0 77 65.5 148.5t171.5 71.5v73q-86 0 -152.5 -35.5t-107.5 -91.5l-142 127l-47 -56l153 -138q-18 -44 -18 -74v-349q0 -33 16 -72zM605 253q160 0 252 132l142 -127l50 56l-155 138q15 40 15 72 v349q0 32 -15 73l155 139l-48 56l-144 -128q-89 128 -252 128v-73q99 0 163.5 -73t64.5 -147v-303q0 -73 -64.5 -146.5t-163.5 -73.5v-72z" />
<glyph unicode="&#xa5;" horiz-adv-x="865" d="M396 0v293h-356v63h356v109h-356v63h356v23l-287 785h79l246 -679l245 679h79l-285 -785v-23h362v-63h-362v-109h362v-63h-362v-293h-77z" />
<glyph unicode="&#xa6;" horiz-adv-x="252" d="M80 -256h77v679h-77v-679zM80 764h77v679h-77v-679z" />
<glyph unicode="&#xa7;" horiz-adv-x="1152" d="M103 681q0 -65 16 -113t50 -81.5t72.5 -55.5t97.5 -44q25 -9 193 -37v77q-41 7 -71 13.5t-69.5 17.5t-67 23t-56.5 31t-47 40.5t-29.5 52t-11.5 65.5q0 142 113 230q50 -50 163 -92q19 -8 76 -19v90q-107 31 -171 84t-64 143q0 127 86 201t258 75h132v73h-187 q-44 0 -90.5 -10t-97 -35.5t-89 -63.5t-64 -101.5t-25.5 -142.5q0 -80 27 -137q-144 -103 -144 -284zM377 -188v-74h182q88 0 161 30.5t118 80t69.5 111t24.5 126.5q0 77 -19 130q64 57 100 133.5t36 157.5q0 75 -19 130t-55 89.5t-76 55t-95 35.5q-21 6 -50.5 12t-70 14 t-65.5 13v-81q40 -6 70 -12t69 -17t67.5 -23.5t58 -32t48 -43t30 -56.5t11.5 -72q0 -127 -101 -226q-57 69 -184 103q-32 10 -69 16v-81q109 -29 173.5 -82.5t64.5 -150.5q0 -138 -96.5 -213t-258.5 -73h-124z" />
<glyph unicode="&#xa8;" horiz-adv-x="509" d="M105 1300q0 -22 16 -37t38 -15t37 15t15 37t-15 36.5t-37 14.5t-38 -15t-16 -36zM299 1300q0 -22 15.5 -37t37.5 -15t37 15t15 37t-15 36.5t-37 14.5t-37.5 -14.5t-15.5 -36.5z" />
<glyph unicode="&#xa9;" horiz-adv-x="1462" d="M67 649q0 131 43 245.5t111.5 192.5t154 134.5t171 82t161.5 24.5v-57q-78 0 -160 -26.5t-158 -80t-136 -126.5t-96 -174.5t-36 -214.5q0 -157 76.5 -298.5t212.5 -229.5t297 -88v-64q-126 0 -243.5 53t-205 143.5t-140 217t-52.5 266.5zM461 473v348q0 43 15.5 87 t44.5 83.5t78.5 64.5t110.5 25v-57q-63 0 -107.5 -36t-62 -81.5t-17.5 -91.5v-342q0 -79 53 -140t134 -61v-56q-56 0 -100.5 18t-71.5 45.5t-45 63.5t-25 68t-7 62zM775 -31v64q115 0 222 52.5t183.5 137.5t122.5 197.5t46 228.5q0 127 -49 243.5t-129 198.5t-184.5 131 t-211.5 49v57q88 0 178 -31t170.5 -91t144 -141t100.5 -189t37 -227q0 -140 -54 -268t-142 -217t-202.5 -142t-231.5 -53zM775 214v58q63 0 112.5 53t52.5 123v17l57 -21q0 -90 -66 -160t-156 -70zM775 1022v59q90 0 154 -68t64 -159l-59 -21v11q0 77 -51 127.5t-108 50.5z " />
<glyph unicode="&#xaa;" horiz-adv-x="440" d="M38 752h360v33h-360v-33zM46 969q0 -44 41.5 -79t107.5 -35v36q-44 0 -76.5 22t-33.5 67v37q0 27 11 38q18 18 122 40.5t132 37.5v-137q0 -105 -112 -105v-36q76 0 112 36q23 -36 63 -36v37q-24 0 -24 32v275q0 57 -40 104t-111 47v-34q40 0 75.5 -31.5t35.5 -83.5v-15 q0 -16 -52 -31.5t-118.5 -30t-85.5 -24.5q-47 -24 -47 -87v-44zM53 1226l35 -13q0 43 32.5 72t74.5 29v36q-55 0 -99 -36.5t-43 -87.5z" />
<glyph unicode="&#xab;" horiz-adv-x="909" d="M52 538l404 -301v96l-299 226l299 216v96l-404 -299v-34zM456 538l403 -301v96l-298 226l298 216v96l-403 -299v-34z" />
<glyph unicode="&#xac;" horiz-adv-x="958" d="M77 704h710v-306h76v379h-786v-73z" />
<glyph unicode="&#xad;" horiz-adv-x="719" d="M38 526h605v73h-605v-73z" />
<glyph unicode="&#xae;" horiz-adv-x="734" d="M318 991q28 0 43 -1t32.5 -4.5t26.5 -11t15.5 -20.5t8.5 -33l8 -94h38l-10 115q-2 20 -13 41t-27 28q40 21 40 80q0 31 -11.5 53t-26.5 32.5t-41 16.5t-41 6.5t-42 0.5v-36h15q56 0 82.5 -16.5t26.5 -56.5q0 -28 -22 -45.5t-66 -17.5h-36v-37zM352 706v46 q-102 6 -172.5 81t-70.5 178t70.5 177.5t172.5 80.5v46q-121 -6 -205 -94t-84 -210t84 -210.5t205 -94.5zM383 706q121 6 205 94.5t84 210.5t-84 210t-205 94v-46q102 -6 172.5 -80.5t70.5 -177.5t-70.5 -178t-172.5 -81v-46zM255 827h40v373h-40v-373z" />
<glyph unicode="&#xaf;" horiz-adv-x="976" d="M77 1436v-73h861v73h-861z" />
<glyph unicode="&#xb0;" horiz-adv-x="400" d="M67 1116q0 -55 38.5 -93.5t93.5 -38.5t94.5 38.5t39.5 93.5t-39.5 93.5t-94.5 38.5t-93.5 -38.5t-38.5 -93.5zM126 1116q0 31 21.5 53t51.5 22q31 0 53 -21.5t22 -53.5q0 -30 -22 -51.5t-53 -21.5q-30 0 -51.5 21.5t-21.5 51.5z" />
<glyph unicode="&#xb1;" horiz-adv-x="832" d="M57 247h718v73h-718v-73zM105 835h318v-360h77v360h323v72h-323v354h-77v-354h-318v-72z" />
<glyph unicode="&#xb2;" horiz-adv-x="442" d="M40 1194l48 -9q7 45 32.5 71t47.5 30l23 4v50q-62 -6 -103.5 -48.5t-47.5 -97.5zM48 741h344v49h-344v-49zM48 827h57q0 27 9.5 50t21.5 38t34.5 30.5t36.5 23t41 20t35 16.5q54 29 87.5 68t33.5 100q0 72 -44 119.5t-130 47.5v-50q66 0 95 -37t29 -78q0 -42 -24.5 -69.5 t-73.5 -54.5q-1 0 -32.5 -14.5t-55.5 -29.5t-54.5 -40t-48 -61t-17.5 -79z" />
<glyph unicode="&#xb3;" horiz-adv-x="430" d="M224 741q76 0 122 49t46 115q0 91 -65 134q65 44 65 138q0 66 -46 114.5t-122 48.5v-50q44 0 80.5 -29.5t36.5 -85.5q0 -41 -32 -76t-89 -35v-48q57 0 89 -34t32 -75q0 -55 -37 -86t-80 -31v-49zM38 886q7 -55 44 -97t98 -48v49q-3 0 -8.5 1t-20 7.5t-26.5 16.5 t-23.5 31.5t-15.5 49.5zM38 1194l48 -9q7 45 30.5 71t43.5 30l20 4v50q-61 -6 -98.5 -48t-43.5 -98z" />
<glyph unicode="&#xb4;" horiz-adv-x="589" d="M220 1158h54l93 291h-76z" />
<glyph unicode="&#xb5;" horiz-adv-x="939" d="M67 0v1336h77v-731q0 -43 74.5 -77t166.5 -34v-73q-24 0 -48 2.5t-43 6.5t-38.5 10t-32.5 11.5t-28 12.5t-22.5 11t-17.5 10t-11 7v-492h-77zM465 421v73q92 0 166.5 33.5t74.5 77.5v735h77v-737q0 -56 14.5 -79.5t65.5 -23.5v-75q-58 0 -88 15.5t-55 51.5 q-41 -31 -108.5 -51t-146.5 -20z" />
<glyph unicode="&#xb6;" horiz-adv-x="694" d="M67 990q0 148 90.5 253.5t232.5 105.5h58v-1359h-58v640q-149 0 -236 98t-87 262zM534 -10v1359h57v-1359h-57z" />
<glyph unicode="&#xb7;" horiz-adv-x="290" d="M124 626q0 -30 22.5 -52.5t52.5 -22.5t52.5 22.5t22.5 52.5t-22.5 52.5t-52.5 22.5t-52.5 -22.5t-22.5 -52.5z" />
<glyph unicode="&#xb8;" horiz-adv-x="763" d="M235 -17q69 0 123 24t85 62.5t46.5 81t15.5 84.5h-76q0 -79 -54.5 -129t-139.5 -50v-73z" />
<glyph unicode="&#xb9;" horiz-adv-x="195" d="M17 1273h35v-534h49v599h-49l-35 -29v-36z" />
<glyph unicode="&#xba;" horiz-adv-x="440" d="M50 790h340v37h-340v-37zM72 1021q0 -38 38 -79t102 -41v32q-43 0 -74.5 34t-31.5 65v178q0 34 29.5 65.5t76.5 31.5v33q-63 0 -101.5 -40.5t-38.5 -78.5v-200zM247 901q62 0 98.5 40.5t36.5 79.5v200q0 39 -36.5 79t-98.5 40v-33q44 0 72.5 -32t28.5 -65v-179 q0 -32 -28.5 -65t-72.5 -33v-32z" />
<glyph unicode="&#xbb;" horiz-adv-x="874" d="M29 276l404 243v72l-404 240v-77l337 -195l-337 -207v-76zM433 276l403 243v72l-403 240v-77l336 -195l-336 -207v-76z" />
<glyph unicode="&#xbc;" horiz-adv-x="953" d="M764 0h59v117h52v57h-52v496h-59v-670zM121 1267h38v-597h57v670h-57l-38 -31v-42zM442 117h280v57h-211l211 362v111l-280 -473v-57zM0 0h69l827 1340h-69z" />
<glyph unicode="&#xbd;" horiz-adv-x="1060" d="M591 0h387v57h-387v-57zM0 0h69l827 1340h-69zM121 1267h38v-597h57v670h-57l-38 -31v-42zM572 500l56 -14q4 36 17.5 62.5t29 38.5t31 18.5t25.5 7.5l10 1v58q-71 -6 -116 -56.5t-53 -115.5zM591 98h58q0 38 15.5 68t44 51t53.5 33.5t61.5 27t49.5 21.5q54 27 82.5 68 t28.5 108q0 86 -47 141.5t-152 55.5v-58q141 0 141 -139q0 -56 -26 -87t-75 -55q-2 -1 -36 -14t-62 -28t-62 -40.5t-54 -65t-20 -87.5z" />
<glyph unicode="&#xbe;" horiz-adv-x="1194" d="M297 660q89 0 139 53.5t50 132.5q0 103 -76 155q76 49 76 153q0 79 -50 132.5t-139 53.5v-58q65 0 98.5 -35t33.5 -95q0 -9 -1 -20t-9 -31.5t-21 -35.5t-40.5 -27t-64.5 -12h-19v-52h19q37 0 64.5 -12t40.5 -27t21 -35.5t9 -31.5t1 -20q0 -60 -33.5 -95t-98.5 -35v-58z M1005 0h59v117h52v57h-52v496h-59v-670zM683 117h280v57h-211l211 362v111l-280 -473v-57zM77 833q6 -65 51 -115.5t117 -57.5v58q-4 0 -10.5 1t-24.5 7.5t-32 18.5t-28 38.5t-18 62.5zM77 1168l55 -14q4 36 17.5 62.5t29 38.5t31 18.5t25.5 7.5l10 1v58q-72 -6 -117 -56.5 t-51 -115.5zM241 0h69l827 1340h-69z" />
<glyph unicode="&#xbf;" horiz-adv-x="851" d="M785 147l-52 54q-18 -25 -42 -47.5t-62 -48.5t-91 -41.5t-113 -15.5q-153 0 -243 93.5t-90 235.5q0 84 32.5 149t89.5 104.5t130 59.5t159 22v469h-72v-392q-9 -1 -23.5 -3t-57.5 -13t-82 -27t-86.5 -48t-81.5 -73t-57.5 -106t-23.5 -142q6 -186 114.5 -296t291.5 -110 q73 0 134 16t104 45.5t69 55t53 59.5zM515 1309q0 20 -15 35t-35 15t-35 -15t-15 -35t15 -35t35 -15t35 15t15 35z" />
<glyph unicode="&#xc0;" horiz-adv-x="821" d="M316 1757l92 -291h55l-71 291h-76zM57 0h77l237 1060l-19 86h-32zM276 258h358l53 -258h77l-291 1338h-77l220 -1007h-325z" />
<glyph unicode="&#xc1;" horiz-adv-x="821" d="M412 1466h53l94 291h-77zM57 0h77l237 1060l-19 86h-32zM276 258h358l53 -258h77l-291 1338h-77l220 -1007h-325z" />
<glyph unicode="&#xc2;" horiz-adv-x="821" d="M264 1466h69l105 216l107 -216h69l-145 291h-61zM57 0h77l237 1060l-19 86h-32zM276 258h358l53 -258h77l-291 1338h-77l220 -1007h-325z" />
<glyph unicode="&#xc3;" horiz-adv-x="821" d="M170 1501q68 42 127 42q45 0 121.5 -38.5t128.5 -38.5q73 0 161 54v72q-88 -53 -153 -53q-49 0 -125.5 39t-125.5 39q-61 0 -134 -42v-74zM57 0h77l237 1060l-19 86h-32zM276 258h358l53 -258h77l-291 1338h-77l220 -1007h-325z" />
<glyph unicode="&#xc4;" horiz-adv-x="821" d="M289 1518q0 -22 16 -37t38 -15t36.5 15t14.5 37t-14.5 36.5t-36.5 14.5t-38 -15t-16 -36zM482 1518q0 -22 16 -37t38 -15t37 15t15 37t-15 36.5t-37 14.5t-38 -15t-16 -36zM57 0h77l237 1060l-19 86h-32zM276 258h358l53 -258h77l-291 1338h-77l220 -1007h-325z" />
<glyph unicode="&#xc5;" horiz-adv-x="987" d="M142 0h76l238 1060l-20 86h-32zM360 258h358l53 -258h77l-289 1332q42 14 68 50t26 82q0 58 -41 98t-99 40t-98 -40t-40 -98q0 -49 30.5 -87.5t76.5 -48.5l219 -997h-326zM440 1464q0 31 21.5 53t51.5 22q31 0 53 -21.5t22 -53.5q0 -30 -22 -51.5t-53 -21.5 q-30 0 -51.5 21.5t-21.5 51.5z" />
<glyph unicode="&#xc6;" horiz-adv-x="1391" d="M155 0h84l322 1265h180v-829h-305l-19 -76h324v-360h601v73h-525v557h345v72h-345v563h525v75h-842z" />
<glyph unicode="&#xc7;" horiz-adv-x="987" d="M270 -333q69 0 123 24t85 62.5t46.5 81.5t15.5 85h-77q0 -79 -54 -129.5t-139 -50.5v-73zM77 346q0 -37 12.5 -81.5t42 -93.5t71.5 -89t109.5 -66t148.5 -26v73q-62 0 -114.5 20.5t-87.5 51.5t-59.5 70t-35.5 75t-11 66v645q0 30 10.5 66.5t35.5 75.5t59.5 71t87.5 52.5 t115 20.5v72q-80 1 -147.5 -25.5t-110 -66.5t-72 -90t-42 -94.5t-12.5 -81.5v-645zM547 -10q143 0 253.5 104.5t110.5 253.5l-65 16q0 -3 -4 -37q-13 -60 -13 -61q-17 -56 -52 -97.5t-73 -60.5t-74 -30.5t-60 -13.5l-23 -1v-73zM547 1277q8 0 22.5 -1.5t54 -14t73.5 -33.5 t72 -67t60 -108q7 -20 11 -50q2 -11 2 -33l69 18q0 138 -112.5 250t-251.5 111v-72z" />
<glyph unicode="&#xc8;" horiz-adv-x="849" d="M306 1757l92 -291h56l-71 291h-77zM77 0h696v73h-620v559h440v72h-440v563h620v73h-696v-1340z" />
<glyph unicode="&#xc9;" horiz-adv-x="849" d="M457 1466h54l94 291h-77zM77 0h696v73h-620v559h440v72h-440v563h620v73h-696v-1340z" />
<glyph unicode="&#xca;" horiz-adv-x="849" d="M253 1466h69l105 216l107 -216h69l-146 291h-61zM77 0h696v73h-620v559h440v72h-440v563h620v73h-696v-1340z" />
<glyph unicode="&#xcb;" horiz-adv-x="849" d="M279 1518q0 -22 16 -37t38 -15t37 15t15 37t-15 36.5t-37 14.5t-38 -15t-16 -36zM473 1518q0 -22 15.5 -37t37.5 -15t37 15t15 37t-15 36.5t-37 14.5t-37.5 -14.5t-15.5 -36.5zM77 0h696v73h-620v559h440v72h-440v563h620v73h-696v-1340z" />
<glyph unicode="&#xcc;" horiz-adv-x="237" d="M-6 1757l92 -291h56l-71 291h-77zM80 0h77v1340h-77v-1340z" />
<glyph unicode="&#xcd;" horiz-adv-x="237" d="M92 1466h53l94 291h-76zM80 0h77v1340h-77v-1340z" />
<glyph unicode="&#xce;" horiz-adv-x="237" d="M-56 1466h69l106 216l107 -216h69l-146 291h-61zM80 0h77v1340h-77v-1340z" />
<glyph unicode="&#xcf;" horiz-adv-x="237" d="M-31 1518q0 -22 16 -37t38 -15t37 15t15 37t-15 36.5t-37 14.5t-38 -15t-16 -36zM163 1518q0 -22 15.5 -37t37.5 -15t37 15t15 37t-15 36.5t-37 14.5t-37.5 -14.5t-15.5 -36.5zM80 0h77v1340h-77v-1340z" />
<glyph unicode="&#xd0;" horiz-adv-x="865" d="M50 641h107v-641h77v641h107v73h-107v626h-77v-626h-107v-73zM320 0q68 0 102 0.5t94.5 3.5t92.5 9.5t80.5 19.5t74.5 31.5t58 47t47.5 65.5t26.5 87.5t11 112.5v586q0 62 -11 112.5t-26 87.5t-46 65.5t-56 47t-72 31.5t-77 19.5t-88.5 9.5t-89.5 3.5t-95 0.5h-26v-73 q190 0 256 -9q165 -23 220 -128q35 -65 35 -167v-586q0 -63 -15 -111t-37 -80t-64 -54t-77.5 -33.5t-97.5 -17.5t-104 -7t-116 -1v-73z" />
<glyph unicode="&#xd1;" horiz-adv-x="1012" d="M237 1501q68 42 127 42q45 0 121.5 -38.5t128.5 -38.5q73 0 161 54v72q-88 -53 -153 -53q-49 0 -125.5 39t-125.5 39q-61 0 -134 -42v-74zM80 0h77v1041l-61 100h-16v-1141zM80 1294l812 -1294h40v101l-777 1239h-75v-46zM856 362l61 -102h15v1080h-76v-978z" />
<glyph unicode="&#xd2;" horiz-adv-x="1010" d="M379 1757l92 -291h55l-70 291h-77zM77 373q0 -79 28 -145.5t70.5 -109t94.5 -72.5t98.5 -43t83.5 -13v75q-40 0 -90.5 21.5t-97.5 59t-79 98t-32 129.5v599q0 34 13 74t39 80.5t61.5 73.5t84.5 54t103 21v74q-72 0 -136 -25t-106.5 -63.5t-74 -86t-46 -91.5t-14.5 -80 v-630zM557 -10q37 0 83.5 13t99 43t95 72.5t71 109t28.5 145.5v630q0 35 -14.5 79t-46 91.5t-74.5 86.5t-106.5 64t-135.5 25v-74q67 0 126 -30t95.5 -76t57.5 -98t21 -99v-599q0 -71 -31.5 -132t-78.5 -98t-97.5 -57.5t-92.5 -20.5v-75z" />
<glyph unicode="&#xd3;" horiz-adv-x="1010" d="M475 1466h53l94 291h-77zM77 373q0 -79 28 -145.5t70.5 -109t94.5 -72.5t98.5 -43t83.5 -13v75q-40 0 -90.5 21.5t-97.5 59t-79 98t-32 129.5v599q0 34 13 74t39 80.5t61.5 73.5t84.5 54t103 21v74q-72 0 -136 -25t-106.5 -63.5t-74 -86t-46 -91.5t-14.5 -80v-630z M557 -10q37 0 83.5 13t99 43t95 72.5t71 109t28.5 145.5v630q0 35 -14.5 79t-46 91.5t-74.5 86.5t-106.5 64t-135.5 25v-74q67 0 126 -30t95.5 -76t57.5 -98t21 -99v-599q0 -71 -31.5 -132t-78.5 -98t-97.5 -57.5t-92.5 -20.5v-75z" />
<glyph unicode="&#xd4;" horiz-adv-x="1010" d="M327 1466h69l105 216l108 -216h69l-146 291h-61zM77 373q0 -79 28 -145.5t70.5 -109t94.5 -72.5t98.5 -43t83.5 -13v75q-40 0 -90.5 21.5t-97.5 59t-79 98t-32 129.5v599q0 34 13 74t39 80.5t61.5 73.5t84.5 54t103 21v74q-72 0 -136 -25t-106.5 -63.5t-74 -86t-46 -91.5 t-14.5 -80v-630zM557 -10q37 0 83.5 13t99 43t95 72.5t71 109t28.5 145.5v630q0 35 -14.5 79t-46 91.5t-74.5 86.5t-106.5 64t-135.5 25v-74q67 0 126 -30t95.5 -76t57.5 -98t21 -99v-599q0 -71 -31.5 -132t-78.5 -98t-97.5 -57.5t-92.5 -20.5v-75z" />
<glyph unicode="&#xd5;" horiz-adv-x="1010" d="M232 1527q68 42 126 42q45 0 122 -38t129 -38q72 0 160 54v72q-88 -53 -153 -53q-49 0 -125 39t-125 39q-61 0 -134 -42v-75zM77 373q0 -79 28 -145.5t70.5 -109t94.5 -72.5t98.5 -43t83.5 -13v75q-40 0 -90.5 21.5t-97.5 59t-79 98t-32 129.5v599q0 34 13 74t39 80.5 t61.5 73.5t84.5 54t103 21v74q-72 0 -136 -25t-106.5 -63.5t-74 -86t-46 -91.5t-14.5 -80v-630zM557 -10q37 0 83.5 13t99 43t95 72.5t71 109t28.5 145.5v630q0 35 -14.5 79t-46 91.5t-74.5 86.5t-106.5 64t-135.5 25v-74q67 0 126 -30t95.5 -76t57.5 -98t21 -99v-599 q0 -71 -31.5 -132t-78.5 -98t-97.5 -57.5t-92.5 -20.5v-75z" />
<glyph unicode="&#xd6;" horiz-adv-x="1010" d="M352 1518q0 -22 16 -37t38 -15t36.5 15t14.5 37t-14.5 36.5t-36.5 14.5t-38 -15t-16 -36zM545 1518q0 -22 16 -37t38 -15t37 15t15 37t-15 36.5t-37 14.5t-38 -15t-16 -36zM77 373q0 -79 28 -145.5t70.5 -109t94.5 -72.5t98.5 -43t83.5 -13v75q-40 0 -90.5 21.5t-97.5 59 t-79 98t-32 129.5v599q0 34 13 74t39 80.5t61.5 73.5t84.5 54t103 21v74q-72 0 -136 -25t-106.5 -63.5t-74 -86t-46 -91.5t-14.5 -80v-630zM557 -10q37 0 83.5 13t99 43t95 72.5t71 109t28.5 145.5v630q0 35 -14.5 79t-46 91.5t-74.5 86.5t-106.5 64t-135.5 25v-74 q67 0 126 -30t95.5 -76t57.5 -98t21 -99v-599q0 -71 -31.5 -132t-78.5 -98t-97.5 -57.5t-92.5 -20.5v-75z" />
<glyph unicode="&#xd7;" horiz-adv-x="943" d="M270 381l362 362l363 -366l56 57l-362 364l362 362l-56 57l-363 -361l-360 359l-56 -57l358 -360l-360 -360z" />
<glyph unicode="&#xd8;" horiz-adv-x="1290" d="M46 191l52 -49l126 114q28 -88 98 -151.5t137.5 -89t122.5 -25.5v75q-49 0 -109 28t-114 87.5t-70 133.5l699 628v-569q0 -71 -31.5 -132t-79 -98t-98 -57.5t-92.5 -20.5v-75q37 0 83.5 13t99 43t95 72.5t71 109t28.5 145.5v638l153 137l-49 52l-123 -109 q-18 47 -48 90.5t-73.5 82t-105 62t-131.5 23.5v-74q112 0 190 -73.5t103 -169.5l-697 -626v566q0 34 13 74t39 80.5t61.5 73.5t84.5 54t103 21v74q-72 0 -136 -25t-106.5 -63.5t-74 -86t-46 -91.5t-14.5 -80v-664z" />
<glyph unicode="&#xd9;" horiz-adv-x="1008" d="M366 1757l91 -291h56l-71 291h-76zM77 369q0 -79 29 -145t73 -108t97.5 -71.5t100.5 -42t84 -12.5v73q-25 0 -62 11t-80 36t-80 59.5t-61.5 87t-24.5 112.5v971h-76v-971zM549 -10q38 0 85 12t100.5 41.5t97 71.5t72 108.5t28.5 145.5v971h-76v-971q0 -77 -36 -139.5 t-87.5 -96.5t-100 -52t-83.5 -18v-73z" />
<glyph unicode="&#xda;" horiz-adv-x="1008" d="M463 1466h54l94 291h-77zM77 369q0 -79 29 -145t73 -108t97.5 -71.5t100.5 -42t84 -12.5v73q-25 0 -62 11t-80 36t-80 59.5t-61.5 87t-24.5 112.5v971h-76v-971zM549 -10q38 0 85 12t100.5 41.5t97 71.5t72 108.5t28.5 145.5v971h-76v-971q0 -77 -36 -139.5t-87.5 -96.5 t-100 -52t-83.5 -18v-73z" />
<glyph unicode="&#xdb;" horiz-adv-x="1008" d="M314 1466h69l105 216l107 -216h69l-145 291h-62zM77 369q0 -79 29 -145t73 -108t97.5 -71.5t100.5 -42t84 -12.5v73q-25 0 -62 11t-80 36t-80 59.5t-61.5 87t-24.5 112.5v971h-76v-971zM549 -10q38 0 85 12t100.5 41.5t97 71.5t72 108.5t28.5 145.5v971h-76v-971 q0 -77 -36 -139.5t-87.5 -96.5t-100 -52t-83.5 -18v-73z" />
<glyph unicode="&#xdc;" horiz-adv-x="1008" d="M341 1518q0 -22 15.5 -37t37.5 -15t37 15t15 37t-15 36.5t-37 14.5t-37.5 -14.5t-15.5 -36.5zM534 1518q0 -22 16 -37t38 -15t36.5 15t14.5 37t-14.5 36.5t-36.5 14.5t-38 -15t-16 -36zM77 369q0 -79 29 -145t73 -108t97.5 -71.5t100.5 -42t84 -12.5v73q-25 0 -62 11 t-80 36t-80 59.5t-61.5 87t-24.5 112.5v971h-76v-971zM549 -10q38 0 85 12t100.5 41.5t97 71.5t72 108.5t28.5 145.5v971h-76v-971q0 -77 -36 -139.5t-87.5 -96.5t-100 -52t-83.5 -18v-73z" />
<glyph unicode="&#xdd;" horiz-adv-x="932" d="M406 1466h53l94 291h-76zM57 1340l353 -858v-482h76v484l-350 856h-79zM492 683l36 -88h8l339 745h-79z" />
<glyph unicode="&#xde;" horiz-adv-x="907" d="M145 0h77v1340h-77v-1340zM320 398q132 -8 228 5.5t168 53.5t107 116t34 189q-2 146 -53.5 226.5t-166 114t-317.5 26.5v-72h78q64 0 114 -6t102.5 -24.5t87.5 -50t57 -86t22 -128.5t-23 -128.5t-58 -85t-87.5 -48.5t-101 -23.5t-109.5 -5.5h-82v-73z" />
<glyph unicode="&#xdf;" horiz-adv-x="999" d="M50 0h76v953q0 40 4.5 75.5t22.5 84t49 82t90.5 58t140.5 24.5q66 0 115 -14t77 -39t46 -59t23 -73.5t7.5 -83t-0.5 -86.5v-49v-23q-35 2 -67.5 -3.5t-62 -20t-47 -44.5t-17.5 -72q0 -41 14 -72t42.5 -51.5t53 -33t64.5 -28.5t58 -25q46 -24 67 -37t40.5 -36.5t25 -53.5 t5.5 -80q0 -61 -26.5 -105.5t-71.5 -68.5t-96.5 -35t-110.5 -11h-191v-73h245q137 0 230 81t93 212q0 64 -17 114t-48 81.5t-63 50.5t-73 33q-55 19 -90.5 37t-50 36.5t-19 32t-4.5 32.5q0 25 25.5 46.5t69.5 20.5h98v214q0 29 -2 54.5t-9.5 63.5t-21 69t-39.5 64 t-61.5 55.5t-89.5 37t-121 14.5q-79 0 -141 -17.5t-101.5 -44t-67.5 -68t-42 -78.5t-21 -87t-8.5 -81.5t-1.5 -73.5v-24v-875z" />
<glyph unicode="&#xe0;" horiz-adv-x="888" d="M266 1401l92 -291h55l-70 291h-77zM77 232q0 -88 83 -159t215 -71v73q-41 0 -78 10t-69.5 30t-52 55.5t-20.5 82.5v74q0 54 21 75q28 29 127.5 54.5t216 51t165.5 51.5v-274q0 -210 -224 -210v-73q62 0 126 19.5t98 53.5q16 -24 28 -37t38 -24.5t61 -11.5v75 q-20 0 -32 14t-15 27t-3 24v549q0 53 -19 105t-54.5 96.5t-95 72.5t-132.5 28v-69q80 0 151 -63t71 -166v-31q0 -26 -67 -51.5t-151 -43t-173.5 -39.5t-121.5 -38q-56 -29 -74.5 -71.5t-18.5 -100.5v-88zM90 745l71 -27q0 87 65.5 145t148.5 58v72q-109 0 -197.5 -72.5 t-87.5 -175.5z" />
<glyph unicode="&#xe1;" horiz-adv-x="888" d="M364 1110h53l94 291h-77zM77 232q0 -88 83 -159t215 -71v73q-41 0 -78 10t-69.5 30t-52 55.5t-20.5 82.5v74q0 54 21 75q28 29 127.5 54.5t216 51t165.5 51.5v-274q0 -210 -224 -210v-73q62 0 126 19.5t98 53.5q16 -24 28 -37t38 -24.5t61 -11.5v75q-20 0 -32 14t-15 27 t-3 24v549q0 53 -19 105t-54.5 96.5t-95 72.5t-132.5 28v-69q80 0 151 -63t71 -166v-31q0 -26 -67 -51.5t-151 -43t-173.5 -39.5t-121.5 -38q-56 -29 -74.5 -71.5t-18.5 -100.5v-88zM90 745l71 -27q0 87 65.5 145t148.5 58v72q-109 0 -197.5 -72.5t-87.5 -175.5z" />
<glyph unicode="&#xe2;" horiz-adv-x="888" d="M214 1110h69l106 216l107 -216h69l-146 291h-61zM77 232q0 -88 83 -159t215 -71v73q-41 0 -78 10t-69.5 30t-52 55.5t-20.5 82.5v74q0 54 21 75q28 29 127.5 54.5t216 51t165.5 51.5v-274q0 -210 -224 -210v-73q62 0 126 19.5t98 53.5q16 -24 28 -37t38 -24.5t61 -11.5 v75q-20 0 -32 14t-15 27t-3 24v549q0 53 -19 105t-54.5 96.5t-95 72.5t-132.5 28v-69q80 0 151 -63t71 -166v-31q0 -26 -67 -51.5t-151 -43t-173.5 -39.5t-121.5 -38q-56 -29 -74.5 -71.5t-18.5 -100.5v-88zM90 745l71 -27q0 87 65.5 145t148.5 58v72q-109 0 -197.5 -72.5 t-87.5 -175.5z" />
<glyph unicode="&#xe3;" horiz-adv-x="888" d="M140 1145q68 42 126 42q45 0 122 -38.5t129 -38.5q73 0 161 54v72q-88 -53 -154 -53q-49 0 -125 39t-125 39q-61 0 -134 -42v-74zM77 232q0 -88 83 -159t215 -71v73q-41 0 -78 10t-69.5 30t-52 55.5t-20.5 82.5v74q0 54 21 75q28 29 127.5 54.5t216 51t165.5 51.5v-274 q0 -210 -224 -210v-73q62 0 126 19.5t98 53.5q16 -24 28 -37t38 -24.5t61 -11.5v75q-20 0 -32 14t-15 27t-3 24v549q0 53 -19 105t-54.5 96.5t-95 72.5t-132.5 28v-69q80 0 151 -63t71 -166v-31q0 -26 -67 -51.5t-151 -43t-173.5 -39.5t-121.5 -38q-56 -29 -74.5 -71.5 t-18.5 -100.5v-88zM90 745l71 -27q0 87 65.5 145t148.5 58v72q-109 0 -197.5 -72.5t-87.5 -175.5z" />
<glyph unicode="&#xe4;" horiz-adv-x="888" d="M241 1162q0 -22 16 -37t38 -15t36.5 15t14.5 37t-14.5 36.5t-36.5 14.5t-38 -15t-16 -36zM434 1162q0 -22 16 -37t38 -15t37 15t15 37t-15 36.5t-37 14.5t-38 -15t-16 -36zM77 232q0 -88 83 -159t215 -71v73q-41 0 -78 10t-69.5 30t-52 55.5t-20.5 82.5v74q0 54 21 75 q28 29 127.5 54.5t216 51t165.5 51.5v-274q0 -210 -224 -210v-73q62 0 126 19.5t98 53.5q16 -24 28 -37t38 -24.5t61 -11.5v75q-20 0 -32 14t-15 27t-3 24v549q0 53 -19 105t-54.5 96.5t-95 72.5t-132.5 28v-69q80 0 151 -63t71 -166v-31q0 -26 -67 -51.5t-151 -43 t-173.5 -39.5t-121.5 -38q-56 -29 -74.5 -71.5t-18.5 -100.5v-88zM90 745l71 -27q0 87 65.5 145t148.5 58v72q-109 0 -197.5 -72.5t-87.5 -175.5z" />
<glyph unicode="&#xe5;" horiz-adv-x="888" d="M285 1294q0 -53 37.5 -90.5t90.5 -37.5t91 37.5t38 90.5t-38 90.5t-91 37.5t-90.5 -37.5t-37.5 -90.5zM352 1294q0 26 18 43.5t43 17.5q26 0 44 -18t18 -43t-18 -43t-44 -18q-25 0 -43 17.5t-18 43.5zM77 232q0 -88 83 -159t215 -71v73q-41 0 -78 10t-69.5 30t-52 55.5 t-20.5 82.5v74q0 54 21 75q28 29 127.5 54.5t216 51t165.5 51.5v-274q0 -210 -224 -210v-73q62 0 126 19.5t98 53.5q16 -24 28 -37t38 -24.5t61 -11.5v75q-20 0 -32 14t-15 27t-3 24v549q0 53 -19 105t-54.5 96.5t-95 72.5t-132.5 28v-69q80 0 151 -63t71 -166v-31 q0 -26 -67 -51.5t-151 -43t-173.5 -39.5t-121.5 -38q-56 -29 -74.5 -71.5t-18.5 -100.5v-88zM90 745l71 -27q0 87 65.5 145t148.5 58v72q-109 0 -197.5 -72.5t-87.5 -175.5z" />
<glyph unicode="&#xe6;" horiz-adv-x="832" d="M50 232v69q0 62 33.5 110t87 77t118 51t129.5 37.5t118.5 30.5t87 37t33.5 51v36q0 77 -80 135t-188 58q-107 0 -181 -51t-74 -155l-71 27q-1 119 97.5 184.5t231.5 65.5q102 0 182 -39.5t125 -117.5q40 65 109.5 107.5t161.5 42.5v-73q-99 0 -167 -72t-68 -156v-142h557 v161q0 84 -73 148.5t-162 64.5v69q72 0 144 -35.5t120 -98t48 -131.5v-250h-634v-203q0 -82 88 -141.5t195 -59.5q102 0 179.5 51.5t102.5 134.5l70 -25q-32 -110 -121.5 -170t-234.5 -60q-107 0 -186.5 37.5t-117.5 102.5q-81 -141 -276 -138v73q37 0 65.5 4t59.5 16.5 t51.5 35t33.5 61.5t13 93v305q-20 -22 -83.5 -41.5t-136.5 -37t-144.5 -40.5t-118.5 -64t-46 -97v-38q0 -101 64 -149t156 -48v-73q-132 0 -215 71t-83 159z" />
<glyph unicode="&#xe7;" horiz-adv-x="826" d="M199 -329v73q85 0 139 50t54 129h77q0 -42 -15.5 -84.5t-46.5 -81t-85 -62.5t-123 -24zM77 270v442q0 44 19.5 91t56 89t97 69t133.5 27v-73q-95 0 -161.5 -69t-66.5 -140v-436q0 -65 66 -131t160 -66v-73q-82 0 -144.5 29t-95.5 73t-48.5 87t-15.5 81zM467 913v75 q116 0 198.5 -81.5t82.5 -194.5l-74 -27q0 21 -2 31q-9 94 -71.5 145.5t-133.5 51.5zM465 -2v73q82 0 150 60.5t78 146.5q2 10 2 26l74 -28q0 -111 -93.5 -194.5t-210.5 -83.5z" />
<glyph unicode="&#xe8;" horiz-adv-x="865" d="M304 1395l92 -291h56l-71 291h-77zM77 270q0 -36 21 -81t58 -88t99 -72t135 -29v73q-89 0 -163 69.5t-74 127.5v203h634v250q0 69 -48 131.5t-120 98t-144 35.5v-69q89 0 162 -64.5t73 -148.5v-161h-557v161q0 66 70 137.5t166 71.5v73q-73 0 -134.5 -28.5t-98.5 -70.5 t-57.5 -86t-21.5 -81v-452zM475 0q120 0 202.5 66t111.5 164l-75 26q-15 -62 -80.5 -120t-158.5 -58v-78z" />
<glyph unicode="&#xe9;" horiz-adv-x="865" d="M402 1104h54l93 291h-76zM77 270q0 -36 21 -81t58 -88t99 -72t135 -29v73q-89 0 -163 69.5t-74 127.5v203h634v250q0 69 -48 131.5t-120 98t-144 35.5v-69q89 0 162 -64.5t73 -148.5v-161h-557v161q0 66 70 137.5t166 71.5v73q-73 0 -134.5 -28.5t-98.5 -70.5t-57.5 -86 t-21.5 -81v-452zM475 0q120 0 202.5 66t111.5 164l-75 26q-15 -62 -80.5 -120t-158.5 -58v-78z" />
<glyph unicode="&#xea;" horiz-adv-x="865" d="M253 1104h69l105 217l107 -217h69l-146 291h-61zM77 270q0 -36 21 -81t58 -88t99 -72t135 -29v73q-89 0 -163 69.5t-74 127.5v203h634v250q0 69 -48 131.5t-120 98t-144 35.5v-69q89 0 162 -64.5t73 -148.5v-161h-557v161q0 66 70 137.5t166 71.5v73q-73 0 -134.5 -28.5 t-98.5 -70.5t-57.5 -86t-21.5 -81v-452zM475 0q120 0 202.5 66t111.5 164l-75 26q-15 -62 -80.5 -120t-158.5 -58v-78z" />
<glyph unicode="&#xeb;" horiz-adv-x="865" d="M279 1156q0 -22 16 -37t38 -15t37 15t15 37t-15 37t-37 15t-38 -15t-16 -37zM473 1156q0 -22 15.5 -37t37.5 -15t37 15t15 37t-15 37t-37 15t-37.5 -15t-15.5 -37zM77 270q0 -36 21 -81t58 -88t99 -72t135 -29v73q-89 0 -163 69.5t-74 127.5v203h634v250q0 69 -48 131.5 t-120 98t-144 35.5v-69q89 0 162 -64.5t73 -148.5v-161h-557v161q0 66 70 137.5t166 71.5v73q-73 0 -134.5 -28.5t-98.5 -70.5t-57.5 -86t-21.5 -81v-452zM475 0q120 0 202.5 66t111.5 164l-75 26q-15 -62 -80.5 -120t-158.5 -58v-78z" />
<glyph unicode="&#xec;" horiz-adv-x="333" d="M44 1395l92 -291h55l-70 291h-77zM130 0h77v988h-77v-988z" />
<glyph unicode="&#xed;" horiz-adv-x="333" d="M142 1104h53l94 291h-77zM130 0h77v988h-77v-988z" />
<glyph unicode="&#xee;" horiz-adv-x="333" d="M-8 1104h69l106 217l107 -217h69l-146 291h-61zM130 0h77v988h-77v-988z" />
<glyph unicode="&#xef;" horiz-adv-x="333" d="M19 1156q0 -22 16 -37t38 -15t36.5 15t14.5 37t-14.5 37t-36.5 15t-38 -15t-16 -37zM212 1156q0 -22 16 -37t38 -15t37 15t15 37t-15 37t-37 15t-38 -15t-16 -37zM130 0h77v988h-77v-988z" />
<glyph unicode="&#xf0;" horiz-adv-x="803" d="M54 270q0 -29 11.5 -63.5t37.5 -72t61 -67.5t88.5 -49.5t114.5 -19.5v73q-97 0 -167 77t-70 147v400q0 77 65.5 148.5t171.5 71.5v73q-75 0 -137.5 -28.5t-99 -71t-56.5 -87t-20 -81.5v-450zM367 1313q139 -52 203 -126l-103 -31l21 -71l124 39q52 -94 52 -222 q-86 86 -218 86v-73q95 0 160.5 -65.5t65.5 -135.5l2 -423q0 -73 -64.5 -146.5t-163.5 -73.5v-73q73 0 134 29t96.5 72t54.5 88t19 83v565q0 189 -63 310l94 28l-21 69l-113 -32q-98 125 -280 157v-54z" />
<glyph unicode="&#xf1;" horiz-adv-x="861" d="M163 1145q68 42 126 42q45 0 122 -38.5t129 -38.5q73 0 161 54v72q-88 -53 -154 -53q-49 0 -125 39t-125 39q-61 0 -134 -42v-74zM73 0h76v712q0 77 75 141t166 64v76q-60 0 -113.5 -19t-89.5 -48.5t-62.5 -66t-39 -72t-12.5 -65.5v-722zM471 917q55 0 103 -23t77 -56 t45 -67t16 -59v-712h77v722q0 37 -21 81.5t-58.5 88t-100.5 72.5t-138 29v-76z" />
<glyph unicode="&#xf2;" horiz-adv-x="842" d="M302 1395l92 -291h56l-71 291h-77zM73 270q0 -29 11.5 -63.5t37.5 -71.5t61.5 -67.5t89 -50t114.5 -19.5v73q-97 0 -167.5 77t-70.5 147v400q0 77 66 148.5t172 71.5v73q-75 0 -137.5 -28.5t-99.5 -71t-57 -87t-20 -81.5v-450zM465 -2q73 0 134 29t96.5 72t54.5 88t19 83 v450q0 37 -19 81.5t-54.5 87t-96.5 71t-134 28.5v-73q99 0 163.5 -73t64.5 -147v-404q0 -73 -64.5 -146.5t-163.5 -73.5v-73z" />
<glyph unicode="&#xf3;" horiz-adv-x="842" d="M400 1104h54l93 291h-76zM73 270q0 -29 11.5 -63.5t37.5 -71.5t61.5 -67.5t89 -50t114.5 -19.5v73q-97 0 -167.5 77t-70.5 147v400q0 77 66 148.5t172 71.5v73q-75 0 -137.5 -28.5t-99.5 -71t-57 -87t-20 -81.5v-450zM465 -2q73 0 134 29t96.5 72t54.5 88t19 83v450 q0 37 -19 81.5t-54.5 87t-96.5 71t-134 28.5v-73q99 0 163.5 -73t64.5 -147v-404q0 -73 -64.5 -146.5t-163.5 -73.5v-73z" />
<glyph unicode="&#xf4;" horiz-adv-x="842" d="M251 1104h69l105 217l107 -217h69l-145 291h-62zM73 270q0 -29 11.5 -63.5t37.5 -71.5t61.5 -67.5t89 -50t114.5 -19.5v73q-97 0 -167.5 77t-70.5 147v400q0 77 66 148.5t172 71.5v73q-75 0 -137.5 -28.5t-99.5 -71t-57 -87t-20 -81.5v-450zM465 -2q73 0 134 29t96.5 72 t54.5 88t19 83v450q0 37 -19 81.5t-54.5 87t-96.5 71t-134 28.5v-73q99 0 163.5 -73t64.5 -147v-404q0 -73 -64.5 -146.5t-163.5 -73.5v-73z" />
<glyph unicode="&#xf5;" horiz-adv-x="842" d="M157 1139q68 42 126 42q45 0 122 -38.5t129 -38.5q73 0 161 54v73q-90 -54 -153 -54q-49 0 -125.5 39.5t-125.5 39.5q-59 0 -134 -43v-74zM73 270q0 -29 11.5 -63.5t37.5 -71.5t61.5 -67.5t89 -50t114.5 -19.5v73q-97 0 -167.5 77t-70.5 147v400q0 77 66 148.5t172 71.5 v73q-75 0 -137.5 -28.5t-99.5 -71t-57 -87t-20 -81.5v-450zM465 -2q73 0 134 29t96.5 72t54.5 88t19 83v450q0 37 -19 81.5t-54.5 87t-96.5 71t-134 28.5v-73q99 0 163.5 -73t64.5 -147v-404q0 -73 -64.5 -146.5t-163.5 -73.5v-73z" />
<glyph unicode="&#xf6;" horiz-adv-x="842" d="M278 1156q0 -22 15.5 -37t37.5 -15t37 15t15 37t-15 37t-37 15t-37.5 -15t-15.5 -37zM471 1156q0 -22 15.5 -37t37.5 -15t37 15t15 37t-15 37t-37 15t-37.5 -15t-15.5 -37zM73 270q0 -29 11.5 -63.5t37.5 -71.5t61.5 -67.5t89 -50t114.5 -19.5v73q-97 0 -167.5 77 t-70.5 147v400q0 77 66 148.5t172 71.5v73q-75 0 -137.5 -28.5t-99.5 -71t-57 -87t-20 -81.5v-450zM465 -2q73 0 134 29t96.5 72t54.5 88t19 83v450q0 37 -19 81.5t-54.5 87t-96.5 71t-134 28.5v-73q99 0 163.5 -73t64.5 -147v-404q0 -73 -64.5 -146.5t-163.5 -73.5v-73z " />
<glyph unicode="&#xf7;" horiz-adv-x="1244" d="M191 523h862v72h-862v-72zM565 787q0 -30 22 -52.5t52 -22.5t52.5 22.5t22.5 52.5t-22.5 52t-52.5 22t-52 -22t-22 -52zM565 333q0 -30 22 -52.5t52 -22.5t52.5 22.5t22.5 52.5t-22.5 52.5t-52.5 22.5t-52 -22.5t-22 -52.5z" />
<glyph unicode="&#xf8;" horiz-adv-x="803" d="M27 130l51 -57l87 78q39 -66 109 -109.5t166 -43.5v73q-69 0 -124.5 40.5t-87.5 99.5l518 474v-394q0 -73 -64 -146.5t-163 -73.5v-73q73 0 134 29t96.5 72t54.5 88t19 83v450q0 10 -4 32l111 102l-51 55l-89 -78q-37 67 -106 112t-165 45v-73q72 0 126 -41t82 -101 l-524 -482v404q0 77 65.5 148.5t171.5 71.5v73q-75 0 -137.5 -28.5t-99.5 -71t-57 -87t-20 -81.5v-450q0 -22 6 -44z" />
<glyph unicode="&#xf9;" horiz-adv-x="861" d="M308 1395l92 -291h56l-71 291h-77zM73 262q0 -39 20 -84t57 -88t100 -71.5t140 -28.5v77q-96 0 -168.5 67.5t-72.5 137.5v712h-76v-722zM471 -10q61 0 115 19.5t90 50t62.5 67t38.5 71.5t12 64v722h-77v-712q0 -73 -71 -139t-170 -66v-77z" />
<glyph unicode="&#xfa;" horiz-adv-x="861" d="M404 1104h53l94 291h-76zM73 262q0 -39 20 -84t57 -88t100 -71.5t140 -28.5v77q-96 0 -168.5 67.5t-72.5 137.5v712h-76v-722zM471 -10q61 0 115 19.5t90 50t62.5 67t38.5 71.5t12 64v722h-77v-712q0 -73 -71 -139t-170 -66v-77z" />
<glyph unicode="&#xfb;" horiz-adv-x="861" d="M256 1104h69l106 217l107 -217h69l-146 291h-61zM73 262q0 -39 20 -84t57 -88t100 -71.5t140 -28.5v77q-96 0 -168.5 67.5t-72.5 137.5v712h-76v-722zM471 -10q61 0 115 19.5t90 50t62.5 67t38.5 71.5t12 64v722h-77v-712q0 -73 -71 -139t-170 -66v-77z" />
<glyph unicode="&#xfc;" horiz-adv-x="861" d="M281 1156q0 -22 16 -37t38 -15t37 15t15 37t-15 37t-37 15t-38 -15t-16 -37zM475 1156q0 -22 15.5 -37t37.5 -15t37 15t15 37t-15 37t-37 15t-37.5 -15t-15.5 -37zM73 262q0 -39 20 -84t57 -88t100 -71.5t140 -28.5v77q-96 0 -168.5 67.5t-72.5 137.5v712h-76v-722z M471 -10q61 0 115 19.5t90 50t62.5 67t38.5 71.5t12 64v722h-77v-712q0 -73 -71 -139t-170 -66v-77z" />
<glyph unicode="&#xfd;" horiz-adv-x="746" d="M346 1104h54l94 291h-77zM8 986l323 -774l-186 -560h75l186 560l-324 774h-74zM408 377l32 -78h10l289 687h-75z" />
<glyph unicode="&#xfe;" horiz-adv-x="807" d="M57 -348h77v1688h-77v-1688zM220 915h216q106 0 175.5 -59.5t69.5 -158.5v-395q0 -110 -69 -169.5t-164 -59.5h-214v-73h210q77 0 139.5 27t99 68.5t56 86t19.5 84.5v452q0 41 -22 87.5t-61.5 87.5t-102.5 68t-136 27h-216v-73z" />
<glyph unicode="&#xff;" horiz-adv-x="746" d="M224 1156q0 -22 16 -37t38 -15t36.5 15t14.5 37t-14.5 37t-36.5 15t-38 -15t-16 -37zM417 1156q0 -22 16 -37t38 -15t37 15t15 37t-15 37t-37 15t-38 -15t-16 -37zM8 986l323 -774l-186 -560h75l186 560l-324 774h-74zM408 377l32 -78h10l289 687h-75z" />
<glyph unicode="&#x100;" horiz-adv-x="821" d="M136 1466h605v58h-605v-58zM57 0h77l237 1060l-19 86h-32zM276 258h358l53 -258h77l-291 1338h-77l220 -1007h-325z" />
<glyph unicode="&#x101;" horiz-adv-x="888" d="M126 1110h605v58h-605v-58zM77 232q0 -88 83 -159t215 -71v73q-41 0 -78 10t-69.5 30t-52 55.5t-20.5 82.5v74q0 54 21 75q28 29 127.5 54.5t216 51t165.5 51.5v-274q0 -210 -224 -210v-73q62 0 126 19.5t98 53.5q16 -24 28 -37t38 -24.5t61 -11.5v75q-20 0 -32 14 t-15 27t-3 24v549q0 53 -19 105t-54.5 96.5t-95 72.5t-132.5 28v-69q80 0 151 -63t71 -166v-31q0 -26 -67 -51.5t-151 -43t-173.5 -39.5t-121.5 -38q-56 -29 -74.5 -71.5t-18.5 -100.5v-88zM90 745l71 -27q0 87 65.5 145t148.5 58v72q-109 0 -197.5 -72.5t-87.5 -175.5z" />
<glyph unicode="&#x102;" horiz-adv-x="821" d="M316 1585q0 -38 32.5 -78.5t89.5 -40.5t90 40.5t33 78.5h-61q0 -25 -18 -43t-44 -18t-43.5 18t-17.5 43h-61zM57 0h77l237 1060l-19 86h-32zM276 258h358l53 -258h77l-291 1338h-77l220 -1007h-325z" />
<glyph unicode="&#x103;" horiz-adv-x="888" d="M268 1229q0 -38 32.5 -78.5t89.5 -40.5t90 40.5t33 78.5h-61q0 -25 -18 -43t-44 -18t-43.5 18t-17.5 43h-61zM77 232q0 -88 83 -159t215 -71v73q-41 0 -78 10t-69.5 30t-52 55.5t-20.5 82.5v74q0 54 21 75q28 29 127.5 54.5t216 51t165.5 51.5v-274q0 -210 -224 -210v-73 q62 0 126 19.5t98 53.5q16 -24 28 -37t38 -24.5t61 -11.5v75q-20 0 -32 14t-15 27t-3 24v549q0 53 -19 105t-54.5 96.5t-95 72.5t-132.5 28v-69q80 0 151 -63t71 -166v-31q0 -26 -67 -51.5t-151 -43t-173.5 -39.5t-121.5 -38q-56 -29 -74.5 -71.5t-18.5 -100.5v-88zM90 745 l71 -27q0 87 65.5 145t148.5 58v72q-109 0 -197.5 -72.5t-87.5 -175.5z" />
<glyph unicode="&#x104;" horiz-adv-x="821" d="M974 -329v73q-85 0 -139 50t-54 129h-77q0 -42 15.5 -84.5t46.5 -81t85 -62.5t123 -24zM57 0h77l237 1060l-19 86h-32zM276 258h358l53 -258h77l-291 1338h-77l220 -1007h-325z" />
<glyph unicode="&#x105;" horiz-adv-x="888" d="M926 -329v73q-85 0 -139 50t-54 129h-76q0 -42 15.5 -84.5t46 -81t84.5 -62.5t123 -24zM77 232q0 -88 83 -159t215 -71v73q-41 0 -78 10t-69.5 30t-52 55.5t-20.5 82.5v74q0 54 21 75q28 29 127.5 54.5t216 51t165.5 51.5v-274q0 -210 -224 -210v-73q62 0 126 19.5 t98 53.5q16 -24 28 -37t38 -24.5t61 -11.5v75q-20 0 -32 14t-15 27t-3 24v549q0 53 -19 105t-54.5 96.5t-95 72.5t-132.5 28v-69q80 0 151 -63t71 -166v-31q0 -26 -67 -51.5t-151 -43t-173.5 -39.5t-121.5 -38q-56 -29 -74.5 -71.5t-18.5 -100.5v-88zM90 745l71 -27 q0 87 65.5 145t148.5 58v72q-109 0 -197.5 -72.5t-87.5 -175.5z" />
<glyph unicode="&#x106;" horiz-adv-x="987" d="M528 1466h54l94 291h-77zM77 346q0 -37 12.5 -81.5t42 -93.5t71.5 -89t109.5 -66t148.5 -26v73q-62 0 -114.5 20.5t-87.5 51.5t-59.5 70t-35.5 75t-11 66v645q0 30 10.5 66.5t35.5 75.5t59.5 71t87.5 52.5t115 20.5v72q-80 1 -147.5 -25.5t-110 -66.5t-72 -90t-42 -94.5 t-12.5 -81.5v-645zM547 -10q143 0 253.5 104.5t110.5 253.5l-65 16q0 -3 -4 -37q-13 -60 -13 -61q-17 -56 -52 -97.5t-73 -60.5t-74 -30.5t-60 -13.5l-23 -1v-73zM547 1277q8 0 22.5 -1.5t54 -14t73.5 -33.5t72 -67t60 -108q7 -20 11 -50q2 -11 2 -33l69 18 q0 138 -112.5 250t-251.5 111v-72z" />
<glyph unicode="&#x107;" horiz-adv-x="826" d="M394 1104l71 291h77l-94 -291h-54zM77 270v442q0 44 19.5 91t56 89t97 69t133.5 27v-73q-95 0 -161.5 -69t-66.5 -140v-436q0 -65 66 -131t160 -66v-73q-82 0 -144.5 29t-95.5 73t-48.5 87t-15.5 81zM467 913v75q116 0 198.5 -81.5t82.5 -194.5l-74 -27q0 21 -2 31 q-9 94 -71.5 145.5t-133.5 51.5zM465 -2v73q82 0 150 60.5t78 146.5q2 10 2 26l74 -28q0 -111 -93.5 -194.5t-210.5 -83.5z" />
<glyph unicode="&#x10c;" horiz-adv-x="987" d="M325 1757l146 -291h61l144 291h-69l-106 -216l-107 216h-69zM77 346q0 -37 12.5 -81.5t42 -93.5t71.5 -89t109.5 -66t148.5 -26v73q-62 0 -114.5 20.5t-87.5 51.5t-59.5 70t-35.5 75t-11 66v645q0 30 10.5 66.5t35.5 75.5t59.5 71t87.5 52.5t115 20.5v72 q-80 1 -147.5 -25.5t-110 -66.5t-72 -90t-42 -94.5t-12.5 -81.5v-645zM547 -10q143 0 253.5 104.5t110.5 253.5l-65 16q0 -3 -4 -37q-13 -60 -13 -61q-17 -56 -52 -97.5t-73 -60.5t-74 -30.5t-60 -13.5l-23 -1v-73zM547 1277q8 0 22.5 -1.5t54 -14t73.5 -33.5t72 -67 t60 -108q7 -20 11 -50q2 -11 2 -33l69 18q0 138 -112.5 250t-251.5 111v-72z" />
<glyph unicode="&#x10d;" horiz-adv-x="826" d="M247 1395h69l107 -216l105 216h69l-143 -291h-62zM77 270v442q0 44 19.5 91t56 89t97 69t133.5 27v-73q-95 0 -161.5 -69t-66.5 -140v-436q0 -65 66 -131t160 -66v-73q-82 0 -144.5 29t-95.5 73t-48.5 87t-15.5 81zM467 913v75q116 0 198.5 -81.5t82.5 -194.5l-74 -27 q0 21 -2 31q-9 94 -71.5 145.5t-133.5 51.5zM465 -2v73q82 0 150 60.5t78 146.5q2 10 2 26l74 -28q0 -111 -93.5 -194.5t-210.5 -83.5z" />
<glyph unicode="&#x10e;" horiz-adv-x="903" d="M281 1757l146 -291h61l144 291h-69l-106 -216l-107 216h-69zM77 0h76v1340h-76v-1340zM239 0q68 0 102 0.5t94.5 3.5t93 9.5t81 19.5t74.5 31.5t57.5 47t47.5 65.5t27 87.5t11 112.5v586q0 62 -11 112.5t-26 87.5t-46 65.5t-56 47t-72 31.5t-77 19.5t-89 9.5t-90 3.5 t-95 0.5h-26v-73q190 0 256 -9q165 -23 220 -128q35 -65 35 -167v-586q0 -63 -15 -111t-37 -80t-64 -54t-77.5 -33.5t-97.5 -17.5t-104 -7t-116 -1v-73z" />
<glyph unicode="&#x10f;" horiz-adv-x="819" d="M886 1047h75l71 291h-75zM57 270q0 -37 19 -82t54.5 -88t95.5 -71.5t132 -28.5h222v73h-226q-74 0 -147 61.5t-73 139.5v440q0 75 70 138t150 63h226v73h-228q-116 0 -205.5 -82.5t-89.5 -183.5v-452zM666 0h77v1338h-77v-1338z" />
<glyph unicode="&#x110;" horiz-adv-x="865" d="M50 641h107v-641h77v641h107v73h-107v626h-77v-626h-107v-73zM320 0q68 0 102 0.5t94.5 3.5t92.5 9.5t80.5 19.5t74.5 31.5t58 47t47.5 65.5t26.5 87.5t11 112.5v586q0 62 -11 112.5t-26 87.5t-46 65.5t-56 47t-72 31.5t-77 19.5t-88.5 9.5t-89.5 3.5t-95 0.5h-26v-73 q190 0 256 -9q165 -23 220 -128q35 -65 35 -167v-586q0 -63 -15 -111t-37 -80t-64 -54t-77.5 -33.5t-97.5 -17.5t-104 -7t-116 -1v-73z" />
<glyph unicode="&#x111;" horiz-adv-x="792" d="M50 270q0 -29 11.5 -64t36 -71.5t58.5 -66.5t85 -49t109 -19h222v73h-226q-74 0 -147 61.5t-73 139.5v440q0 75 70 138t150 63h226v73h-227q-116 0 -205.5 -82.5t-89.5 -183.5v-452zM536 1124h122v-1124h77v1124h122v72h-122v142h-77v-142h-122v-72z" />
<glyph unicode="&#x112;" horiz-adv-x="849" d="M126 1466h605v58h-605v-58zM77 0h696v73h-620v559h440v72h-440v563h620v73h-696v-1340z" />
<glyph unicode="&#x113;" horiz-adv-x="865" d="M126 1104h605v58h-605v-58zM77 270q0 -36 21 -81t58 -88t99 -72t135 -29v73q-89 0 -163 69.5t-74 127.5v203h634v250q0 69 -48 131.5t-120 98t-144 35.5v-69q89 0 162 -64.5t73 -148.5v-161h-557v161q0 66 70 137.5t166 71.5v73q-73 0 -134.5 -28.5t-98.5 -70.5 t-57.5 -86t-21.5 -81v-452zM475 0q120 0 202.5 66t111.5 164l-75 26q-15 -62 -80.5 -120t-158.5 -58v-78z" />
<glyph unicode="&#x116;" horiz-adv-x="849" d="M371 1524q0 -25 16.5 -41.5t41.5 -16.5t41 16.5t16 41.5t-16 42t-41 17t-41.5 -17t-16.5 -42zM77 0h696v73h-620v559h440v72h-440v563h620v73h-696v-1340z" />
<glyph unicode="&#x117;" horiz-adv-x="865" d="M371 1162q0 -25 16.5 -41.5t41.5 -16.5t41 16.5t16 41.5t-16 42t-41 17t-41.5 -17t-16.5 -42zM77 270q0 -36 21 -81t58 -88t99 -72t135 -29v73q-89 0 -163 69.5t-74 127.5v203h634v250q0 69 -48 131.5t-120 98t-144 35.5v-69q89 0 162 -64.5t73 -148.5v-161h-557v161 q0 66 70 137.5t166 71.5v73q-73 0 -134.5 -28.5t-98.5 -70.5t-57.5 -86t-21.5 -81v-452zM475 0q120 0 202.5 66t111.5 164l-75 26q-15 -62 -80.5 -120t-158.5 -58v-78z" />
<glyph unicode="&#x118;" horiz-adv-x="849" d="M785 -329q-69 0 -123 24t-85 62.5t-46.5 81t-15.5 84.5h76q0 -79 54.5 -129t139.5 -50v-73zM77 0h696v73h-620v559h440v72h-440v563h620v73h-696v-1340z" />
<glyph unicode="&#x119;" horiz-adv-x="865" d="M666 -329q-69 0 -123 24t-85 62.5t-46.5 81t-15.5 84.5h77q0 -79 54 -129t139 -50v-73zM77 270q0 -36 21 -81t58 -88t99 -72t135 -29v73q-89 0 -163 69.5t-74 127.5v203h634v250q0 69 -48 131.5t-120 98t-144 35.5v-69q89 0 162 -64.5t73 -148.5v-161h-557v161 q0 66 70 137.5t166 71.5v73q-73 0 -134.5 -28.5t-98.5 -70.5t-57.5 -86t-21.5 -81v-452zM475 0q120 0 202.5 66t111.5 164l-75 26q-15 -62 -80.5 -120t-158.5 -58v-78z" />
<glyph unicode="&#x11a;" horiz-adv-x="849" d="M253 1757l145 -291h61l144 291h-69l-105 -216l-107 216h-69zM77 0h696v73h-620v559h440v72h-440v563h620v73h-696v-1340z" />
<glyph unicode="&#x11b;" horiz-adv-x="865" d="M253 1395l145 -291h61l144 291h-69l-105 -216l-107 216h-69zM77 270q0 -36 21 -81t58 -88t99 -72t135 -29v73q-89 0 -163 69.5t-74 127.5v203h634v250q0 69 -48 131.5t-120 98t-144 35.5v-69q89 0 162 -64.5t73 -148.5v-161h-557v161q0 66 70 137.5t166 71.5v73 q-73 0 -134.5 -28.5t-98.5 -70.5t-57.5 -86t-21.5 -81v-452zM475 0q120 0 202.5 66t111.5 164l-75 26q-15 -62 -80.5 -120t-158.5 -58v-78z" />
<glyph unicode="&#x11e;" horiz-adv-x="985" d="M375 1585q0 -38 33 -78.5t90 -40.5t89.5 40.5t32.5 78.5h-61q0 -25 -17.5 -43t-43.5 -18t-44 18t-18 43h-61zM77 367q0 -79 28 -145t70.5 -107.5t95.5 -71t100.5 -41.5t87.5 -12v73q-25 0 -61.5 10t-79.5 34t-79.5 57.5t-61 87t-24.5 115.5v605q0 124 92.5 214.5 t213.5 90.5v72q-92 1 -168.5 -36t-121 -92.5t-68.5 -112.5t-24 -105v-636zM545 -10q81 0 167 54t141.5 135.5t55.5 157.5v339h-364v-73h288v-239q0 -60 -30.5 -117.5t-75.5 -96.5t-94.5 -63t-87.5 -24v-73zM545 1277q25 0 57.5 -9t71.5 -31t72 -53.5t57.5 -82t29.5 -110.5 q2 -10 2 -30l74 27q0 139 -112 250.5t-252 110.5v-72z" />
<glyph unicode="&#x11f;" horiz-adv-x="828" d="M279 1223q0 -38 33 -78.5t90 -40.5t89.5 40.5t32.5 78.5h-61q0 -25 -17.5 -43t-43.5 -18t-43.5 18t-17.5 43h-62zM57 -346h402q69 1 128 31t93 74t53 87.5t19 76.5v1065h-76v-98q-22 32 -87 65t-133 33v-73q24 0 52.5 -7.5t58.5 -23.5t54 -39t39.5 -56.5t15.5 -72.5v-450 q0 -72 -72 -136.5t-148 -64.5v-67q79 1 139 36.5t81 68.5v-180q0 -67 -71 -130t-182 -67h-345zM75 266q0 -35 17.5 -78.5t50.5 -86.5t92.5 -72.5t133.5 -30.5v73q-89 0 -153.5 67.5t-64.5 129.5v450q0 64 66 130.5t152 66.5v73q-72 0 -130.5 -28.5t-92.5 -71.5t-52 -86 t-19 -79v-457z" />
<glyph unicode="&#x122;" horiz-adv-x="985" d="M383 -417h74l71 291h-74zM77 367q0 -79 28 -145t70.5 -107.5t95.5 -71t100.5 -41.5t87.5 -12v73q-25 0 -61.5 10t-79.5 34t-79.5 57.5t-61 87t-24.5 115.5v605q0 124 92.5 214.5t213.5 90.5v72q-92 1 -168.5 -36t-121 -92.5t-68.5 -112.5t-24 -105v-636zM545 -10 q81 0 167 54t141.5 135.5t55.5 157.5v339h-364v-73h288v-239q0 -60 -30.5 -117.5t-75.5 -96.5t-94.5 -63t-87.5 -24v-73zM545 1277q25 0 57.5 -9t71.5 -31t72 -53.5t57.5 -82t29.5 -110.5q2 -10 2 -30l74 27q0 139 -112 250.5t-252 110.5v-72z" />
<glyph unicode="&#x123;" horiz-adv-x="828" d="M389 1104h53l94 291h-77zM57 -346h402q69 1 128 31t93 74t53 87.5t19 76.5v1065h-76v-98q-22 32 -87 65t-133 33v-73q24 0 52.5 -7.5t58.5 -23.5t54 -39t39.5 -56.5t15.5 -72.5v-450q0 -72 -72 -136.5t-148 -64.5v-67q79 1 139 36.5t81 68.5v-180q0 -67 -71 -130 t-182 -67h-345zM75 266q0 -35 17.5 -78.5t50.5 -86.5t92.5 -72.5t133.5 -30.5v73q-89 0 -153.5 67.5t-64.5 129.5v450q0 64 66 130.5t152 66.5v73q-72 0 -130.5 -28.5t-92.5 -71.5t-52 -86t-19 -79v-457z" />
<glyph unicode="&#x12a;" horiz-adv-x="237" d="M-184 1466h605v58h-605v-58zM80 0h77v1340h-77v-1340z" />
<glyph unicode="&#x12b;" horiz-adv-x="333" d="M-134 1104h605v58h-605v-58zM130 0h77v988h-77v-988z" />
<glyph unicode="&#x12e;" horiz-adv-x="237" d="M350 -329v73q-85 0 -139 50t-54 129h-77q0 -42 15.5 -84.5t46.5 -81t85 -62.5t123 -24zM80 0h77v1340h-77v-1340z" />
<glyph unicode="&#x12f;" horiz-adv-x="266" d="M366 -325v72q-85 0 -139.5 50.5t-54.5 129.5h-76q0 -42 15.5 -84.5t46.5 -81t85 -62.5t123 -24zM80 1116q0 -22 16 -37t38 -15t37 15t15 37t-15 37t-37 15t-38 -15t-16 -37zM96 0h76v988h-76v-988z" />
<glyph unicode="&#x130;" horiz-adv-x="237" d="M61 1524q0 -25 16.5 -41.5t41.5 -16.5t41 16.5t16 41.5t-16 42t-41 17t-41.5 -17t-16.5 -42zM80 0h77v1340h-77v-1340z" />
<glyph unicode="&#x131;" horiz-adv-x="333" d="M130 0h77v988h-77v-988z" />
<glyph unicode="&#x136;" horiz-adv-x="939" d="M314 -408h75l70 291h-74zM77 0h76v1340h-76v-1340zM239 653l567 -653h96l-567 653l559 687h-96z" />
<glyph unicode="&#x137;" horiz-adv-x="876" d="M283 -408h75l71 291h-75zM77 0h76v1336h-76v-1336zM195 492l528 -492h115l-528 492l528 492h-115z" />
<glyph unicode="&#x139;" horiz-adv-x="834" d="M92 1466h53l94 291h-76zM77 0h719v73h-643v1267h-76v-1340z" />
<glyph unicode="&#x13a;" horiz-adv-x="237" d="M92 1453h53l94 291h-76zM80 0h77v1336h-77v-1336z" />
<glyph unicode="&#x13b;" horiz-adv-x="834" d="M346 -408h75l71 291h-75zM77 0h719v73h-643v1267h-76v-1340z" />
<glyph unicode="&#x13c;" horiz-adv-x="237" d="M-8 -408h75l71 291h-75zM80 0h77v1336h-77v-1336z" />
<glyph unicode="&#x13d;" horiz-adv-x="834" d="M274 1058h74l71 291h-74zM77 0h719v73h-643v1267h-76v-1340z" />
<glyph unicode="&#x13e;" horiz-adv-x="237" d="M272 1045h74l71 291h-74zM80 0h77v1336h-77v-1336z" />
<glyph unicode="&#x141;" horiz-adv-x="819" d="M98 519l47 -62l102 79v-536h720v73h-644v522l178 136l-47 61l-131 -101v649h-76v-706z" />
<glyph unicode="&#x142;" horiz-adv-x="811" d="M366 0v632l-113 -87l-48 62l161 124v605h76v-547l119 91l48 -61l-167 -128v-691h-76z" />
<glyph unicode="&#x143;" horiz-adv-x="1012" d="M480 1466h54l94 291h-77zM80 0h77v1041l-61 100h-16v-1141zM80 1294l812 -1294h40v101l-777 1239h-75v-46zM856 362l61 -102h15v1080h-76v-978z" />
<glyph unicode="&#x144;" horiz-adv-x="861" d="M404 1110h53l94 291h-76zM73 0h76v712q0 77 75 141t166 64v76q-60 0 -113.5 -19t-89.5 -48.5t-62.5 -66t-39 -72t-12.5 -65.5v-722zM471 917q55 0 103 -23t77 -56t45 -67t16 -59v-712h77v722q0 37 -21 81.5t-58.5 88t-100.5 72.5t-138 29v-76z" />
<glyph unicode="&#x145;" horiz-adv-x="1012" d="M413 -408h75l71 291h-75zM80 0h77v1041l-61 100h-16v-1141zM80 1294l812 -1294h40v101l-777 1239h-75v-46zM856 362l61 -102h15v1080h-76v-978z" />
<glyph unicode="&#x146;" horiz-adv-x="861" d="M337 -408h75l70 291h-74zM73 0h76v712q0 77 75 141t166 64v76q-60 0 -113.5 -19t-89.5 -48.5t-62.5 -66t-39 -72t-12.5 -65.5v-722zM471 917q55 0 103 -23t77 -56t45 -67t16 -59v-712h77v722q0 37 -21 81.5t-58.5 88t-100.5 72.5t-138 29v-76z" />
<glyph unicode="&#x147;" horiz-adv-x="1012" d="M331 1757l146 -291h61l143 291h-69l-105 -216l-107 216h-69zM80 0h77v1041l-61 100h-16v-1141zM80 1294l812 -1294h40v101l-777 1239h-75v-46zM856 362l61 -102h15v1080h-76v-978z" />
<glyph unicode="&#x148;" horiz-adv-x="861" d="M255 1401l145 -291h61l144 291h-69l-105 -216l-108 216h-68zM73 0h76v712q0 77 75 141t166 64v76q-60 0 -113.5 -19t-89.5 -48.5t-62.5 -66t-39 -72t-12.5 -65.5v-722zM471 917q55 0 103 -23t77 -56t45 -67t16 -59v-712h77v722q0 37 -21 81.5t-58.5 88t-100.5 72.5 t-138 29v-76z" />
<glyph unicode="&#x14c;" horiz-adv-x="1010" d="M199 1466h605v58h-605v-58zM77 373q0 -79 28 -145.5t70.5 -109t94.5 -72.5t98.5 -43t83.5 -13v75q-40 0 -90.5 21.5t-97.5 59t-79 98t-32 129.5v599q0 34 13 74t39 80.5t61.5 73.5t84.5 54t103 21v74q-72 0 -136 -25t-106.5 -63.5t-74 -86t-46 -91.5t-14.5 -80v-630z M557 -10q37 0 83.5 13t99 43t95 72.5t71 109t28.5 145.5v630q0 35 -14.5 79t-46 91.5t-74.5 86.5t-106.5 64t-135.5 25v-74q67 0 126 -30t95.5 -76t57.5 -98t21 -99v-599q0 -71 -31.5 -132t-78.5 -98t-97.5 -57.5t-92.5 -20.5v-75z" />
<glyph unicode="&#x14d;" horiz-adv-x="842" d="M124 1104h605v58h-605v-58zM73 270q0 -29 11.5 -63.5t37.5 -71.5t61.5 -67.5t89 -50t114.5 -19.5v73q-97 0 -167.5 77t-70.5 147v400q0 77 66 148.5t172 71.5v73q-75 0 -137.5 -28.5t-99.5 -71t-57 -87t-20 -81.5v-450zM465 -2q73 0 134 29t96.5 72t54.5 88t19 83v450 q0 37 -19 81.5t-54.5 87t-96.5 71t-134 28.5v-73q99 0 163.5 -73t64.5 -147v-404q0 -73 -64.5 -146.5t-163.5 -73.5v-73z" />
<glyph unicode="&#x150;" horiz-adv-x="1010" d="M559 1466h53l94 291h-76zM390 1466h54l94 291h-77zM77 373q0 -79 28 -145.5t70.5 -109t94.5 -72.5t98.5 -43t83.5 -13v75q-40 0 -90.5 21.5t-97.5 59t-79 98t-32 129.5v599q0 34 13 74t39 80.5t61.5 73.5t84.5 54t103 21v74q-72 0 -136 -25t-106.5 -63.5t-74 -86 t-46 -91.5t-14.5 -80v-630zM557 -10q37 0 83.5 13t99 43t95 72.5t71 109t28.5 145.5v630q0 35 -14.5 79t-46 91.5t-74.5 86.5t-106.5 64t-135.5 25v-74q67 0 126 -30t95.5 -76t57.5 -98t21 -99v-599q0 -71 -31.5 -132t-78.5 -98t-97.5 -57.5t-92.5 -20.5v-75z" />
<glyph unicode="&#x151;" horiz-adv-x="842" d="M484 1104h54l94 291h-77zM316 1104h53l94 291h-76zM73 270q0 -29 11.5 -63.5t37.5 -71.5t61.5 -67.5t89 -50t114.5 -19.5v73q-97 0 -167.5 77t-70.5 147v400q0 77 66 148.5t172 71.5v73q-75 0 -137.5 -28.5t-99.5 -71t-57 -87t-20 -81.5v-450zM465 -2q73 0 134 29 t96.5 72t54.5 88t19 83v450q0 37 -19 81.5t-54.5 87t-96.5 71t-134 28.5v-73q99 0 163.5 -73t64.5 -147v-404q0 -73 -64.5 -146.5t-163.5 -73.5v-73z" />
<glyph unicode="&#x152;" horiz-adv-x="807" d="M-52 377q0 -62 9.5 -112t23 -87.5t42 -66t51.5 -47t67.5 -31.5t74 -19.5t87.5 -9.5t91 -3.5t100 -0.5v73q-73 0 -113.5 1t-98.5 7t-89 17.5t-68.5 33.5t-55.5 54t-31 80t-13 111v586q0 64 13 113t29.5 81t54 54t64.5 33t84 16.5t89.5 6t102.5 0.5h32v73q-197 0 -269 -11 q-162 -24 -226 -130q-51 -86 -51 -236v-586zM580 0h756v73h-620v559h440v72h-440v563h620v73h-756v-73h59v-1194h-59v-73z" />
<glyph unicode="&#x153;" horiz-adv-x="1448" d="M718 151q-39 -66 -107 -109.5t-161 -43.5v73q99 0 163.5 73.5t64.5 146.5v404q0 74 -64.5 147t-163.5 73v73q93 0 161 -43t109 -107q40 65 109.5 107.5t161.5 42.5v-73q-99 0 -167 -72t-68 -156v-142h557v161q0 84 -73 148.5t-162 64.5v69q72 0 144 -35.5t120 -98 t48 -131.5v-250h-634v-203q0 -82 88 -141.5t195 -59.5q102 0 179.5 51.5t102.5 134.5l70 -25q-32 -110 -121.5 -170t-234.5 -60q-106 0 -192.5 42.5t-124.5 108.5zM57 270v450q0 37 20 81.5t57 87t99.5 71t137.5 28.5v-73q-106 0 -171.5 -71.5t-65.5 -148.5v-400 q0 -70 70 -147t167 -77v-73q-61 0 -114.5 19.5t-89 50t-61.5 67.5t-37.5 71.5t-11.5 63.5z" />
<glyph unicode="&#x154;" horiz-adv-x="974" d="M385 1466h53l94 291h-76zM80 0h77v1340h-77v-1340zM243 609h327q70 3 116 -14t71.5 -56t37 -83.5t17.5 -114.5l28 -341h77l-33 415q-13 171 -147 230q132 74 132 322q0 86 -18.5 151.5t-48 105.5t-73.5 66t-88 36.5t-99 13.5h-299v-63h257q156 0 223 -74t67 -231 q0 -154 -56.5 -221.5t-184.5 -67.5h-306v-74z" />
<glyph unicode="&#x155;" horiz-adv-x="445" d="M203 1104h53l94 291h-76zM80 0h77v590q0 118 73 221.5t159 103.5l19 71h-2q-92 0 -159 -51.5t-90 -109.5v163h-77v-988z" />
<glyph unicode="&#x156;" horiz-adv-x="974" d="M406 -408h74l71 291h-74zM80 0h77v1340h-77v-1340zM243 609h327q70 3 116 -14t71.5 -56t37 -83.5t17.5 -114.5l28 -341h77l-33 415q-13 171 -147 230q132 74 132 322q0 86 -18.5 151.5t-48 105.5t-73.5 66t-88 36.5t-99 13.5h-299v-63h257q156 0 223 -74t67 -231 q0 -154 -56.5 -221.5t-184.5 -67.5h-306v-74z" />
<glyph unicode="&#x157;" horiz-adv-x="445" d="M6 -408h74l71 291h-74zM80 0h77v590q0 118 73 221.5t159 103.5l19 71h-2q-92 0 -159 -51.5t-90 -109.5v163h-77v-988z" />
<glyph unicode="&#x158;" horiz-adv-x="974" d="M237 1757l146 -291h61l144 291h-69l-106 -216l-107 216h-69zM80 0h77v1340h-77v-1340zM243 609h327q70 3 116 -14t71.5 -56t37 -83.5t17.5 -114.5l28 -341h77l-33 415q-13 171 -147 230q132 74 132 322q0 86 -18.5 151.5t-48 105.5t-73.5 66t-88 36.5t-99 13.5h-299v-63 h257q156 0 223 -74t67 -231q0 -154 -56.5 -221.5t-184.5 -67.5h-306v-74z" />
<glyph unicode="&#x159;" horiz-adv-x="445" d="M69 1395l145 -291h62l143 291h-69l-105 -216l-107 216h-69zM80 0h77v590q0 118 73 221.5t159 103.5l19 71h-2q-92 0 -159 -51.5t-90 -109.5v163h-77v-988z" />
<glyph unicode="&#x15a;" horiz-adv-x="958" d="M415 1466h54l94 291h-77zM57 302q1 -41 27 -92.5t70.5 -100.5t114.5 -82t148 -33v73q-5 0 -13.5 1t-34.5 7.5t-50.5 16t-55.5 29.5t-56 46t-47 68t-32 92zM73 984q0 -65 16 -113t49.5 -81.5t72 -56t97.5 -44.5q25 -10 80 -19.5t108.5 -17t115 -26t107 -43.5t76 -72.5 t30.5 -110.5q0 -74 -36 -139.5t-87.5 -106t-105 -64t-93.5 -23.5v-73q107 0 200 57t146 148t53 190q0 75 -19 130t-55 89.5t-76 55t-95 35.5q-27 7 -75.5 15.5t-92.5 16.5t-95.5 20t-93 30t-77 42.5t-55 62.5t-19.5 86q0 62 22 114t54.5 84.5t71 55t69 32t51.5 9.5v73 q-33 0 -75.5 -12t-90 -39.5t-87 -67t-65.5 -102t-26 -135.5zM503 1267q9 0 23.5 -2t54 -15.5t73 -35.5t69 -69t52.5 -110l73 23q-5 26 -21 60t-46.5 73.5t-69 72.5t-93.5 54.5t-115 21.5v-73z" />
<glyph unicode="&#x15b;" horiz-adv-x="794" d="M358 1106h54l93 291h-76zM38 260q0 -100 89 -185t221 -85v73q-81 0 -158 62.5t-77 148.5zM46 699q0 -156 189 -198q35 -8 91.5 -20.5t92 -20.5t81 -20.5t73.5 -25t54.5 -30t39 -40.5t12.5 -51q0 -72 -42.5 -127t-98.5 -80t-111 -25v-71q140 0 234.5 84t94.5 219 q0 163 -214 216q-46 11 -106.5 25t-94.5 22t-75.5 19.5t-63 22t-42.5 25t-29.5 33.5t-8.5 43q0 93 74 155.5t149 62.5v73q-48 0 -98 -17.5t-96 -50.5t-75.5 -91.5t-29.5 -131.5zM425 915q44 0 97 -22t97.5 -72.5t44.5 -116.5l75 12q0 102 -90.5 188t-223.5 86v-75z" />
<glyph unicode="&#x15e;" horiz-adv-x="958" d="M209 -329q69 0 123 24t85 62.5t46.5 81t15.5 84.5h-77q0 -79 -54 -129t-139 -50v-73zM57 302q1 -41 27 -92.5t70.5 -100.5t114.5 -82t148 -33v73q-5 0 -13.5 1t-34.5 7.5t-50.5 16t-55.5 29.5t-56 46t-47 68t-32 92zM73 984q0 -65 16 -113t49.5 -81.5t72 -56t97.5 -44.5 q25 -10 80 -19.5t108.5 -17t115 -26t107 -43.5t76 -72.5t30.5 -110.5q0 -74 -36 -139.5t-87.5 -106t-105 -64t-93.5 -23.5v-73q107 0 200 57t146 148t53 190q0 75 -19 130t-55 89.5t-76 55t-95 35.5q-27 7 -75.5 15.5t-92.5 16.5t-95.5 20t-93 30t-77 42.5t-55 62.5 t-19.5 86q0 62 22 114t54.5 84.5t71 55t69 32t51.5 9.5v73q-33 0 -75.5 -12t-90 -39.5t-87 -67t-65.5 -102t-26 -135.5zM503 1267q9 0 23.5 -2t54 -15.5t73 -35.5t69 -69t52.5 -110l73 23q-5 26 -21 60t-46.5 73.5t-69 72.5t-93.5 54.5t-115 21.5v-73z" />
<glyph unicode="&#x15f;" horiz-adv-x="794" d="M343 -329q69 0 123 24t84.5 62.5t46 81t15.5 84.5h-76q0 -79 -54 -129t-139 -50v-73zM38 260q0 -100 89 -185t221 -85v73q-81 0 -158 62.5t-77 148.5zM46 699q0 -156 189 -198q35 -8 91.5 -20.5t92 -20.5t81 -20.5t73.5 -25t54.5 -30t39 -40.5t12.5 -51q0 -72 -42.5 -127 t-98.5 -80t-111 -25v-71q140 0 234.5 84t94.5 219q0 163 -214 216q-46 11 -106.5 25t-94.5 22t-75.5 19.5t-63 22t-42.5 25t-29.5 33.5t-8.5 43q0 93 74 155.5t149 62.5v73q-48 0 -98 -17.5t-96 -50.5t-75.5 -91.5t-29.5 -131.5zM425 915q44 0 97 -22t97.5 -72.5 t44.5 -116.5l75 12q0 102 -90.5 188t-223.5 86v-75z" />
<glyph unicode="&#x160;" horiz-adv-x="958" d="M249 1757l145 -291h62l143 291h-69l-105 -216l-107 216h-69zM44 302q1 -41 27 -92.5t70.5 -100.5t114.5 -82t148 -33v73q-5 0 -13.5 1t-34.5 7.5t-50.5 16t-55.5 29.5t-56 46t-47 68t-32 92zM59 984q0 -65 16 -113t49.5 -81.5t72.5 -56t98 -44.5q25 -10 80 -19.5 t108.5 -17t115 -26t107 -43.5t76 -72.5t30.5 -110.5q0 -74 -36 -139.5t-87.5 -106t-105 -64t-93.5 -23.5v-73q107 0 199.5 57t145.5 148t53 190q0 75 -19 130t-55 89.5t-76 55t-95 35.5q-27 7 -75.5 15.5t-92.5 16.5t-95.5 20t-92.5 30t-76.5 42.5t-55 62.5t-19.5 86 q0 62 22 114t54.5 84.5t71 55t69 32t51.5 9.5v73q-33 0 -75.5 -12t-90.5 -39.5t-87.5 -67t-65.5 -102t-26 -135.5zM490 1267q9 0 23.5 -2t54 -15.5t73 -35.5t69 -69t52.5 -110l73 23q-5 26 -21 60t-46.5 73.5t-69 72.5t-93.5 54.5t-115 21.5v-73z" />
<glyph unicode="&#x161;" horiz-adv-x="794" d="M214 1397l146 -291h61l144 291h-69l-106 -216l-107 216h-69zM48 260q0 -100 89 -185t221 -85v73q-81 0 -158.5 62.5t-77.5 148.5zM56 699q0 -156 189 -198q35 -8 91.5 -20.5t92 -20.5t81 -20.5t73.5 -25t54.5 -30t39 -40.5t12.5 -51q0 -72 -42.5 -127t-99 -80t-111.5 -25 v-71q140 0 235 84t95 219q0 163 -215 216q-45 11 -106 25t-94.5 22t-75 19.5t-63.5 22t-42.5 25t-29 33.5t-8.5 43q0 93 73.5 155.5t148.5 62.5v73q-38 0 -77.5 -10.5t-79.5 -33.5t-71 -56t-50.5 -82.5t-19.5 -108.5zM434 915q24 0 54.5 -8t63.5 -25.5t60 -41.5t44.5 -59.5 t17.5 -76.5l74 12q0 102 -90.5 188t-223.5 86v-75z" />
<glyph unicode="&#x162;" horiz-adv-x="905" d="M211 -329q69 0 123 24t84.5 62.5t46 81t15.5 84.5h-76q0 -79 -54 -129t-139 -50v-73zM38 1267h375v-1267h77v1267h377v73h-829v-73z" />
<glyph unicode="&#x163;" horiz-adv-x="482" d="M205 -323q69 0 123 24t85 62.5t46.5 81t15.5 84.5h-77q0 -79 -54 -129.5t-139 -50.5v-72zM38 838h121v-516q0 -77 13.5 -133t46 -100t91 -66t144.5 -23h28l-17 73h-2q-128 0 -178 57.5t-50 173.5v534h121v75h-121v427h-76v-427h-121v-75z" />
<glyph unicode="&#x164;" horiz-adv-x="905" d="M268 1757l145 -291h62l143 291h-69l-105 -216l-107 216h-69zM38 1267h375v-1267h77v1267h377v73h-829v-73z" />
<glyph unicode="&#x165;" horiz-adv-x="482" d="M343 1049h74l71 291h-75zM38 838h121v-516q0 -77 13.5 -133t46 -100t91 -66t144.5 -23h28l-17 73h-2q-128 0 -178 57.5t-50 173.5v534h121v75h-121v427h-76v-427h-121v-75z" />
<glyph unicode="&#x16a;" horiz-adv-x="1008" d="M188 1466h604v58h-604v-58zM77 369q0 -79 29 -145t73 -108t97.5 -71.5t100.5 -42t84 -12.5v73q-25 0 -62 11t-80 36t-80 59.5t-61.5 87t-24.5 112.5v971h-76v-971zM549 -10q38 0 85 12t100.5 41.5t97 71.5t72 108.5t28.5 145.5v971h-76v-971q0 -77 -36 -139.5 t-87.5 -96.5t-100 -52t-83.5 -18v-73z" />
<glyph unicode="&#x16b;" horiz-adv-x="861" d="M128 1104h605v58h-605v-58zM73 262q0 -39 20 -84t57 -88t100 -71.5t140 -28.5v77q-96 0 -168.5 67.5t-72.5 137.5v712h-76v-722zM471 -10q61 0 115 19.5t90 50t62.5 67t38.5 71.5t12 64v722h-77v-712q0 -73 -71 -139t-170 -66v-77z" />
<glyph unicode="&#x16e;" horiz-adv-x="1008" d="M362 1650q0 -53 37.5 -90.5t90.5 -37.5t90.5 37.5t37.5 90.5t-37.5 90.5t-90.5 37.5t-90.5 -37.5t-37.5 -90.5zM429 1650q0 26 17.5 43.5t43.5 17.5t43.5 -17.5t17.5 -43.5t-17.5 -43.5t-43.5 -17.5t-43.5 17.5t-17.5 43.5zM77 369q0 -79 29 -145t73 -108t97.5 -71.5 t100.5 -42t84 -12.5v73q-25 0 -62 11t-80 36t-80 59.5t-61.5 87t-24.5 112.5v971h-76v-971zM549 -10q38 0 85 12t100.5 41.5t97 71.5t72 108.5t28.5 145.5v971h-76v-971q0 -77 -36 -139.5t-87.5 -96.5t-100 -52t-83.5 -18v-73z" />
<glyph unicode="&#x16f;" horiz-adv-x="861" d="M302 1288q0 -53 38 -90.5t91 -37.5t90.5 37.5t37.5 90.5t-37.5 90.5t-90.5 37.5t-91 -37.5t-38 -90.5zM369 1288q0 25 18 43t44 18q25 0 43 -17.5t18 -43.5t-18 -43.5t-43 -17.5q-26 0 -44 18t-18 43zM73 262q0 -39 20 -84t57 -88t100 -71.5t140 -28.5v77 q-96 0 -168.5 67.5t-72.5 137.5v712h-76v-722zM471 -10q61 0 115 19.5t90 50t62.5 67t38.5 71.5t12 64v722h-77v-712q0 -73 -71 -139t-170 -66v-77z" />
<glyph unicode="&#x170;" horiz-adv-x="1008" d="M603 1466h54l93 291h-76zM434 1466h54l94 291h-77zM77 369q0 -79 29 -145t73 -108t97.5 -71.5t100.5 -42t84 -12.5v73q-25 0 -62 11t-80 36t-80 59.5t-61.5 87t-24.5 112.5v971h-76v-971zM549 -10q38 0 85 12t100.5 41.5t97 71.5t72 108.5t28.5 145.5v971h-76v-971 q0 -77 -36 -139.5t-87.5 -96.5t-100 -52t-83.5 -18v-73z" />
<glyph unicode="&#x171;" horiz-adv-x="861" d="M469 1104h54l93 291h-76zM301 1104h53l94 291h-77zM73 262q0 -39 20 -84t57 -88t100 -71.5t140 -28.5v77q-96 0 -168.5 67.5t-72.5 137.5v712h-76v-722zM471 -10q61 0 115 19.5t90 50t62.5 67t38.5 71.5t12 64v722h-77v-712q0 -73 -71 -139t-170 -66v-77z" />
<glyph unicode="&#x172;" horiz-adv-x="1008" d="M722 -329v73q-85 0 -139.5 50t-54.5 129h-76q0 -42 15.5 -84.5t46.5 -81t85 -62.5t123 -24zM77 369q0 -79 29 -145t73 -108t97.5 -71.5t100.5 -42t84 -12.5v73q-25 0 -62 11t-80 36t-80 59.5t-61.5 87t-24.5 112.5v971h-76v-971zM549 -10q38 0 85 12t100.5 41.5t97 71.5 t72 108.5t28.5 145.5v971h-76v-971q0 -77 -36 -139.5t-87.5 -96.5t-100 -52t-83.5 -18v-73z" />
<glyph unicode="&#x173;" horiz-adv-x="861" d="M666 -331v73q-85 0 -139 50.5t-54 129.5h-77q0 -42 15.5 -85t46.5 -81.5t85 -62.5t123 -24zM73 262q0 -39 20 -84t57 -88t100 -71.5t140 -28.5v77q-96 0 -168.5 67.5t-72.5 137.5v712h-76v-722zM471 -10q61 0 115 19.5t90 50t62.5 67t38.5 71.5t12 64v722h-77v-712 q0 -73 -71 -139t-170 -66v-77z" />
<glyph unicode="&#x178;" horiz-adv-x="932" d="M283 1518q0 -22 16 -37t38 -15t37 15t15 37t-15 36.5t-37 14.5t-38 -15t-16 -36zM477 1518q0 -22 15.5 -37t37.5 -15t37 15t15 37t-15 36.5t-37 14.5t-37.5 -14.5t-15.5 -36.5zM57 1340l353 -858v-482h76v484l-350 856h-79zM492 683l36 -88h8l339 745h-79z" />
<glyph unicode="&#x179;" horiz-adv-x="855" d="M381 1466h53l94 291h-76zM77 0h700l2 73h-620l618 1200v67h-700v-73h618l-618 -1200v-67z" />
<glyph unicode="&#x17a;" horiz-adv-x="681" d="M314 1104h53l94 291h-76zM57 0h567v73h-486l486 850v61h-567v-73h487l-485 -840z" />
<glyph unicode="&#x17b;" horiz-adv-x="855" d="M350 1524q0 -25 16.5 -41.5t41.5 -16.5t41 16.5t16 41.5t-16 42t-41 17t-41.5 -17t-16.5 -42zM77 0h700l2 73h-620l618 1200v67h-700v-73h618l-618 -1200v-67z" />
<glyph unicode="&#x17c;" horiz-adv-x="681" d="M283 1162q0 -25 16.5 -41.5t41.5 -16.5t41 16.5t16 41.5t-16 42t-41 17t-41.5 -17t-16.5 -42zM57 0h567v73h-486l486 850v61h-567v-73h487l-485 -840z" />
<glyph unicode="&#x17d;" horiz-adv-x="855" d="M232 1757l145 -291h61l144 291h-69l-105 -216l-107 216h-69zM77 0h700l2 73h-620l618 1200v67h-700v-73h618l-618 -1200v-67z" />
<glyph unicode="&#x17e;" horiz-adv-x="681" d="M168 1395l146 -291h61l144 291h-69l-105 -216l-108 216h-69zM57 0h567v73h-486l486 850v61h-567v-73h487l-485 -840z" />
<glyph unicode="&#x192;" horiz-adv-x="731" d="M50 -322h59q62 0 107 17t69.5 41.5t38.5 62.5t18 70t4 74v895h127v73l-127 -2v100q0 250 266 250h52l17 73h-116q-71 -1 -129 -29.5t-93 -74.5t-54 -98.5t-19 -105.5v-113h-121v-73h121v-920q0 -167 -146 -167h-55z" />
<glyph unicode="&#x218;" horiz-adv-x="958" d="M352 -413h75l71 291h-75zM57 302q1 -41 27 -92.5t70.5 -100.5t114.5 -82t148 -33v73q-5 0 -13.5 1t-34.5 7.5t-50.5 16t-55.5 29.5t-56 46t-47 68t-32 92zM73 984q0 -65 16 -113t49.5 -81.5t72 -56t97.5 -44.5q25 -10 80 -19.5t108.5 -17t115 -26t107 -43.5t76 -72.5 t30.5 -110.5q0 -74 -36 -139.5t-87.5 -106t-105 -64t-93.5 -23.5v-73q107 0 200 57t146 148t53 190q0 75 -19 130t-55 89.5t-76 55t-95 35.5q-27 7 -75.5 15.5t-92.5 16.5t-95.5 20t-93 30t-77 42.5t-55 62.5t-19.5 86q0 62 22 114t54.5 84.5t71 55t69 32t51.5 9.5v73 q-33 0 -75.5 -12t-90 -39.5t-87 -67t-65.5 -102t-26 -135.5zM503 1267q9 0 23.5 -2t54 -15.5t73 -35.5t69 -69t52.5 -110l73 23q-5 26 -21 60t-46.5 73.5t-69 72.5t-93.5 54.5t-115 21.5v-73z" />
<glyph unicode="&#x219;" horiz-adv-x="794" d="M266 -417h75l71 291h-75zM38 260q0 -100 89 -185t221 -85v73q-81 0 -158 62.5t-77 148.5zM46 699q0 -156 189 -198q35 -8 91.5 -20.5t92 -20.5t81 -20.5t73.5 -25t54.5 -30t39 -40.5t12.5 -51q0 -72 -42.5 -127t-98.5 -80t-111 -25v-71q140 0 234.5 84t94.5 219 q0 163 -214 216q-46 11 -106.5 25t-94.5 22t-75.5 19.5t-63 22t-42.5 25t-29.5 33.5t-8.5 43q0 93 74 155.5t149 62.5v73q-48 0 -98 -17.5t-96 -50.5t-75.5 -91.5t-29.5 -131.5zM425 915q44 0 97 -22t97.5 -72.5t44.5 -116.5l75 12q0 102 -90.5 188t-223.5 86v-75z" />
<glyph unicode="&#x21a;" horiz-adv-x="905" d="M341 -408h74l71 291h-74zM38 1267h375v-1267h77v1267h377v73h-829v-73z" />
<glyph unicode="&#x21b;" horiz-adv-x="482" d="M243 -408h75l71 291h-75zM38 838h121v-516q0 -77 13.5 -133t46 -100t91 -66t144.5 -23h28l-17 73h-2q-128 0 -178 57.5t-50 173.5v534h121v75h-121v427h-76v-427h-121v-75z" />
<glyph unicode="&#x2c6;" horiz-adv-x="516" d="M82 984h69l105 216l108 -216h69l-146 291h-61z" />
<glyph unicode="&#x2c7;" horiz-adv-x="516" d="M82 1275l146 -291h61l144 291h-69l-106 -217l-107 217h-69z" />
<glyph unicode="&#x2c9;" horiz-adv-x="796" d="M96 1034h605v57h-605v-57z" />
<glyph unicode="&#x2d8;" horiz-adv-x="467" d="M111 1007q0 -38 33 -78.5t90 -40.5t89.5 40.5t32.5 78.5h-61q0 -25 -17.5 -43t-43.5 -18t-44 18t-18 43h-61z" />
<glyph unicode="&#x2d9;" horiz-adv-x="386" d="M136 1298q0 -25 16 -41.5t41 -16.5t41.5 16.5t16.5 41.5t-16.5 42t-41.5 17t-41 -17t-16 -42z" />
<glyph unicode="&#x2da;" horiz-adv-x="467" d="M105 1007q0 -53 38 -90.5t91 -37.5t90.5 37.5t37.5 90.5t-37.5 90.5t-90.5 37.5t-91 -37.5t-38 -90.5zM172 1007q0 25 18 43t44 18t43.5 -18t17.5 -43t-17.5 -43t-43.5 -18t-44 18t-18 43z" />
<glyph unicode="&#x2db;" horiz-adv-x="419" d="M203 -329v73q-85 0 -139 50t-54 129h-77q0 -42 15.5 -84.5t46.5 -81t85 -62.5t123 -24z" />
<glyph unicode="&#x2dc;" horiz-adv-x="637" d="M50 260q68 42 126 42q45 0 122 -38t129 -38q75 0 161 53v73q-88 -53 -154 -53q-49 0 -125 39t-125 39q-61 0 -134 -42v-75z" />
<glyph unicode="&#x2dd;" horiz-adv-x="503" d="M379 1158h54l93 291h-76zM211 1158h53l94 291h-77z" />
<glyph unicode="&#x3c0;" horiz-adv-x="805" d="M-54 915h184v-923h77v923h402v-660q0 -263 229 -263v73q-27 0 -44 2t-40 13t-36 32t-23 61.5t-10 98.5v643h180v73h-919v-73z" />
<glyph unicode="&#xb82;" horiz-adv-x="436" d="M126 1629q0 33 24 56.5t57 23.5t56.5 -23.5t23.5 -56.5t-23.5 -57t-56.5 -24t-57 24t-24 57zM73 1629q0 -56 39 -95t95 -39t95 39t39 95t-39 95t-95 39t-95 -39t-39 -95z" />
<glyph unicode="&#xb83;" horiz-adv-x="1251" d="M209 358q-55 0 -93.5 -38.5t-38.5 -93.5q0 -56 38.5 -95t93.5 -39q56 0 95 39t39 95q0 55 -39 93.5t-95 38.5zM622 1108q-55 0 -93.5 -38.5t-38.5 -93.5q0 -56 38.5 -95t93.5 -39t93.5 39t38.5 95q0 55 -38.5 93.5t-93.5 38.5zM1043 364q-56 0 -95 -38.5t-39 -93.5 t39 -93.5t95 -38.5q55 0 93.5 38.5t38.5 93.5t-38.5 93.5t-93.5 38.5z" />
<glyph unicode="&#xb85;" horiz-adv-x="1866" d="M618 880q11 -118 90 -184t197 -66q106 0 184.5 61.5t78.5 156.5l61 -65q-8 -92 -103 -161t-221 -69q-70 0 -128 18t-94.5 47t-64 63.5t-41.5 69.5t-22.5 64t-10.5 47l-2 18h76zM545 988q0 18 3.5 41t16.5 57t33.5 66t58 65t87 57.5t124 40t164.5 15.5q223 0 346 -151.5 t123 -426.5v-308h174v662h76v-1311h-76v572h-174l2 -239q0 -99 -34.5 -182.5t-104.5 -136t-162 -52.5h-310v76h312q95 2 157.5 82t62.5 217v235h-536v77h536v314q0 130 -30 227.5t-84.5 155t-124 85.5t-153.5 28q-178 0 -294 -79t-116 -187h-77zM115 138q0 308 409 308h261 v-80h-295q-299 0 -299 -228q0 -81 31.5 -143.5t80.5 -96t99.5 -49.5t97.5 -16h287v-76h-284q-164 0 -276 106.5t-112 274.5z" />
<glyph unicode="&#xb86;" horiz-adv-x="2338" d="M1307 -341l517 2q52 0 94 6t84.5 24.5t71 49t46.5 82t18 120.5v97q0 75 -14.5 124t-46.5 76.5t-74.5 38t-107.5 10.5v75q58 0 101 -6.5t86.5 -27t71 -55t44.5 -94t17 -141.5v-90q0 -62 -10 -112t-37 -99t-71.5 -82t-117 -53.5t-168.5 -20.5h-504v76zM618 880 q11 -118 90 -184t197 -66q106 0 184.5 61.5t78.5 156.5l61 -65q-8 -92 -103 -161t-221 -69q-70 0 -128 18t-94.5 47t-64 63.5t-41.5 69.5t-22.5 64t-10.5 47l-2 18h76zM545 988q0 18 3.5 41t16.5 57t33.5 66t58 65t87 57.5t124 40t164.5 15.5q223 0 346 -151.5t123 -426.5 v-308h174v662h76v-1311h-76v572h-174l2 -239q0 -99 -34.5 -182.5t-104.5 -136t-162 -52.5h-310v76h312q95 2 157.5 82t62.5 217v235h-536v77h536v314q0 130 -30 227.5t-84.5 155t-124 85.5t-153.5 28q-178 0 -294 -79t-116 -187h-77zM115 138q0 308 409 308h261v-80h-295 q-299 0 -299 -228q0 -81 31.5 -143.5t80.5 -96t99.5 -49.5t97.5 -16h287v-76h-284q-164 0 -276 106.5t-112 274.5z" />
<glyph unicode="&#xb87;" horiz-adv-x="2069" d="M961 -341h-486q-164 0 -276.5 106.5t-112.5 274.5q0 274 326 305q-52 235 -52 367q0 376 198.5 595.5t549.5 229.5v-77q-133 -5 -243 -48t-187 -114t-130.5 -165.5t-78.5 -202t-25 -224.5q0 -128 54 -358h461v-80h-498q-298 0 -298 -228q0 -81 31.5 -143.5t80.5 -95.5 t99 -49t97 -16h291q-116 80 -199.5 204t-122.5 278h90q32 -159 130.5 -283t254.5 -199h46v-77zM1068 -341v77h230q95 2 157.5 81.5t62.5 216.5v236h-454v76h530q191 0 284 -75t93 -202v-65q0 -41 -16.5 -87.5t-53 -94t-86.5 -83.5t-125 -54t-161 -8l37 74q38 -5 80.5 2 t87.5 29t80.5 56.5t58 91t22.5 126.5q0 44 -11.5 78t-41.5 67t-93 51t-155 18l2 -239q0 -99 -34.5 -182.5t-104 -136.5t-161.5 -53h-228zM639 892q0 160 120 251.5t366 91.5q223 0 346 -151.5t123 -426.5v-247h-76v252q0 130 -30.5 227.5t-85 155t-124 85.5t-153.5 28 q-192 0 -300.5 -64.5t-108.5 -201.5h-77zM635 792h73q0 -109 83 -183.5t208 -74.5q55 0 114.5 26.5t103.5 78.5t44 113l62 -65q-8 -92 -103 -161t-221 -69q-70 0 -128 18.5t-94.5 48t-64.5 65t-42 71.5t-22.5 65.5t-10.5 48.5zM1192 1457v76q158 0 281 -49.5t206 -139 t136.5 -223t77 -294.5t23.5 -360h-77q0 170 -19.5 312.5t-66 270.5t-119 216t-185 139.5t-257.5 51.5z" />
<glyph unicode="&#xb88;" horiz-adv-x="1119" d="M808 484q0 36 26 63t62 27t63 -27t27 -63t-27 -62t-63 -26t-62 26t-26 62zM339 486q0 36 26.5 62t63.5 26q36 0 62 -26t26 -62q0 -37 -26 -63.5t-62 -26.5q-37 0 -63.5 26t-26.5 64zM657 0v1062h-182v79h530v-79h-272v-1062h-76zM115 2v1139h256v-79h-180v-1060h-76z" />
<glyph unicode="&#xb89;" horiz-adv-x="1889" d="M153 930h-76q0 168 121 285t313 117q238 0 365 -130.5t127 -397.5h-77q0 102 -22.5 181t-61 129.5t-92.5 83t-112.5 45.5t-126.5 13q-159 0 -254 -93.5t-104 -232.5zM498 0v73h1345v-73h-1345zM111 63v199q0 56 21 72t82 16h431q157 1 219 73.5t62 225.5v71h77v-71 q0 -50 -7 -95.5t-30.5 -99t-61 -92t-105.5 -64.5t-158 -26l-448 -2v-197h201v-73h-170q-72 0 -92.5 11.5t-20.5 51.5zM155 879q2 -44 16 -88.5t41 -86.5t75 -68.5t109 -26.5q122 0 177 60t55 187l76 -33q0 -136 -86 -213.5t-220 -77.5q-80 0 -142.5 29t-101 78t-58 110.5 t-19.5 129.5h78z" />
<glyph unicode="&#xb8a;" horiz-adv-x="2649" d="M1518 285v79q31 0 61 10t59.5 31.5t47.5 63.5t17 99q-1 53 -14 92t-31.5 59.5t-45.5 33t-47 16t-45 4.5v77q122 0 191 -73t69 -193l2 -37q1 -59 -26.5 -117t-90 -101t-147.5 -44zM1160 597v8v189q0 50 14.5 105.5t47 112.5t78 103t114 75t148.5 29h4v-76h-8 q-96 0 -171.5 -56t-113.5 -139.5t-38 -174.5q43 38 97.5 57.5t95.5 19.5v-77q-27 -1 -56.5 -10.5t-62 -30.5t-53 -63.5t-20.5 -100.5q0 -107 55.5 -155.5t136.5 -48.5v-79q-121 0 -194.5 76t-73.5 184v52zM1654 1145v76h2q192 0 271 -157q49 157 194 157h11v-76 q-37 0 -65 -14t-44.5 -40.5t-27 -53.5t-15 -65.5t-6 -64.5t-1.5 -61v-2l8 -559h-78l-2 536v15v6q-1 84 -21 145.5t-55 94.5t-76.5 48t-90.5 15h-4zM2224 1145v76h347v-76h-115v-860h-79v860h-153zM496 0v73h2046v-73h-2046zM153 930h-76q0 168 121 285t313 117 q238 0 365 -130.5t127 -397.5h-77q0 102 -22.5 181t-61 129.5t-92.5 83t-112.5 45.5t-126.5 13q-159 0 -254 -93.5t-104 -232.5zM111 63v199q0 56 21 72t82 16h431q157 1 219 73.5t62 225.5v71h77v-71q0 -50 -7 -95.5t-30.5 -99t-61 -92t-105.5 -64.5t-158 -26l-448 -2v-197 h201v-73h-170q-72 0 -92.5 11.5t-20.5 51.5zM155 879q2 -44 16 -88.5t41 -86.5t75 -68.5t109 -26.5q122 0 177 60t55 187l76 -33q0 -136 -86 -213.5t-220 -77.5q-80 0 -142.5 29t-101 78t-58 110.5t-19.5 129.5h78z" />
<glyph unicode="&#xb8e;" horiz-adv-x="1255" d="M77 329v46v17v-2v188q0 156 52 283.5t152 204.5t230 77v-77q-108 0 -190.5 -67.5t-124 -174t-43.5 -233.5q42 45 98.5 70.5t115.5 25.5v-76q-31 0 -64.5 -11.5t-69.5 -38.5t-59 -82.5t-23 -132.5q0 -121 68 -195t148 -74v-77q-81 0 -149 49t-104.5 124t-36.5 156zM473 0 v77q70 0 125 72.5t55 200.5q0 130 -55 195.5t-125 65.5v76q107 0 183.5 -88.5t76.5 -223.5v-44q1 -139 -76.5 -235t-183.5 -96zM930 0v1062h-314v77h584v-77h-193v-1062h-77z" />
<glyph unicode="&#xb8f;" horiz-adv-x="1255" d="M626 -337l304 366v1033h-314v77h584v-77h-193v-1062l-284 -337h-97zM77 329v46v17v-2v188q0 156 52 283.5t152 204.5t230 77v-77q-108 0 -190.5 -67.5t-124 -174t-43.5 -233.5q42 45 98.5 70.5t115.5 25.5v-76q-31 0 -64.5 -11.5t-69.5 -38.5t-59 -82.5t-23 -132.5 q0 -121 68 -195t148 -74v-77q-81 0 -149 49t-104.5 124t-36.5 156zM473 0v77q70 0 125 72.5t55 200.5q0 130 -55 195.5t-125 65.5v76q107 0 183.5 -88.5t76.5 -223.5v-44q1 -139 -76.5 -235t-183.5 -96z" />
<glyph unicode="&#xb90;" horiz-adv-x="1709" d="M494 -345q-69 0 -130.5 26t-104.5 67.5t-74 93.5t-46 105t-15 101v74q0 57 18 112t54.5 105.5t101.5 81.5t150 31h78v-77h-92q-38 0 -74 -12t-74 -40.5t-61.5 -89t-23.5 -145.5q0 -166 89.5 -261t203.5 -95v-77zM597 -345v77q49 0 85.5 4t81.5 20.5t74 45.5t49 83.5 t20 129.5v209l75 2v-209q0 -84 18.5 -143t49.5 -88.5t62.5 -41.5t66.5 -12v-77q-170 0 -239 144q-85 -144 -343 -144zM31 986q0 10 2.5 27t13.5 51.5t29.5 67t55.5 69.5t86 64t126.5 45t172.5 18q146 0 250 -66.5t159 -193.5q27 109 95.5 171t167.5 70v-76q-28 -5 -48 -11.5 t-52.5 -29.5t-52.5 -57t-36 -98t-16 -149v-178h-75l-2 44q-6 140 -36.5 239t-83.5 154.5t-118.5 80t-151.5 24.5q-183 0 -296.5 -73.5t-113.5 -192.5h-76zM1319 377v79q210 0 210 346v159q0 63 -18.5 112.5t-44 76.5t-61 46.5t-60.5 26t-53 10.5v76q132 -9 223 -100t91 -248 v-220q0 -96 -25 -168.5t-67 -114t-91.5 -61.5t-103.5 -20zM390 551q-70 0 -128 17.5t-94.5 44.5t-64 62.5t-41.5 67.5t-22.5 64.5t-10.5 48.5t-2 23h76q0 -29 9.5 -61t31.5 -66t53.5 -61.5t82 -45t110.5 -17.5q106 0 184.5 61.5t78.5 156.5l61 -65q-8 -92 -103 -161 t-221 -69zM1282 -345v77q91 0 155 73.5t64 188.5v232h76v-232q0 -83 -33 -159t-102 -128t-160 -52zM664 375v77h528v-77h-528z" />
<glyph unicode="&#xb92;" horiz-adv-x="1567" d="M846 1254v76q130 0 241 -41.5t183 -105.5t124 -142t74.5 -149.5t22.5 -129.5v-446q0 -79 -42 -138.5t-108 -87t-140.5 -34t-148 16t-122.5 67.5v-88q0 -60 42 -106.5t109 -72.5t141 -38.5t147 -10.5v-77q-231 0 -373 84.5t-142 216.5v622h76v-360q0 -45 26 -82.5t68 -58 t93 -31t102 -2.5t94 27t71 58.5t30 92.5v448q0 54 -21.5 117.5t-68.5 130t-111.5 121t-160.5 89t-206 34.5zM77 387v46v3v157q0 97 18.5 193t67 196t121.5 175.5t192 124t269 48.5v-76q-116 0 -211 -32t-161 -87t-113 -132t-71 -164t-30 -186q84 92 208 92v-77q-24 0 -50 -6 t-56.5 -24.5t-54 -46.5t-39.5 -76.5t-16 -110.5q0 -121 68 -195.5t148 -74.5v-77q-81 0 -149 49t-104.5 124.5t-36.5 156.5zM473 57v77q70 0 125 73t55 201q0 130 -55 195t-125 65v77q107 0 183.5 -88.5t76.5 -223.5v-44q1 -139 -77 -235.5t-183 -96.5zM354 -237l79 19 q31 -72 81.5 -120.5t109 -65t118 -8t113 49t89.5 106.5l70 -41q-44 -80 -113.5 -130.5t-147 -61.5t-154 9.5t-142 84t-103.5 158.5z" />
<glyph unicode="&#xb93;" horiz-adv-x="1567" d="M846 1254v76q130 0 241 -41.5t183 -105.5t124 -142t74.5 -149.5t22.5 -129.5v-446q0 -79 -42 -138.5t-108 -87t-140.5 -34t-148 16t-122.5 67.5v-88q0 -60 42 -106.5t109 -72.5t141 -38.5t147 -10.5v-77q-231 0 -373 84.5t-142 216.5v622h76v-360q0 -45 26 -82.5t68 -58 t93 -31t102 -2.5t94 27t71 58.5t30 92.5v448q0 54 -21.5 117.5t-68.5 130t-111.5 121t-160.5 89t-206 34.5zM348 -270q0 59 16 110.5t51.5 97t100 72t152.5 26.5v-76q-57 0 -101 -15t-70 -38t-43 -55t-23 -62.5t-6 -63.5q0 -62 27 -110t70 -75.5t99 -35.5t112 4t111.5 48 t95.5 93q16 22 44 76l67 -38q-52 -111 -153 -188t-238 -76q-140 1 -226 90t-86 216zM77 387v46v3v157q0 97 18.5 193t67 196t121.5 175.5t192 124t269 48.5v-76q-116 0 -211 -32t-161 -87t-113 -132t-71 -164t-30 -186q84 92 208 92v-77q-24 0 -50 -6t-56.5 -24.5t-54 -46.5 t-39.5 -76.5t-16 -110.5q0 -121 68 -195.5t148 -74.5v-77q-81 0 -149 49t-104.5 124.5t-36.5 156.5zM473 57v77q70 0 125 73t55 201q0 130 -55 195t-125 65v77q107 0 183.5 -88.5t76.5 -223.5v-44q1 -139 -77 -235.5t-183 -96.5z" />
<glyph unicode="&#xb94;" horiz-adv-x="3288" d="M846 1254v76q130 0 241 -41.5t183 -105.5t124 -142t74.5 -149.5t22.5 -129.5v-446q0 -79 -42 -138.5t-108 -87t-140.5 -34t-148 16t-122.5 67.5v-88q0 -60 42 -106.5t109 -72.5t141 -38.5t147 -10.5v-77q-231 0 -373 84.5t-142 216.5v622h76v-360q0 -45 26 -82.5t68 -58 t93 -31t102 -2.5t94 27t71 58.5t30 92.5v448q0 54 -21.5 117.5t-68.5 130t-111.5 121t-160.5 89t-206 34.5zM77 387v46v3v157q0 97 18.5 193t67 196t121.5 175.5t192 124t269 48.5v-76q-116 0 -211 -32t-161 -87t-113 -132t-71 -164t-30 -186q84 92 208 92v-77q-24 0 -50 -6 t-56.5 -24.5t-54 -46.5t-39.5 -76.5t-16 -110.5q0 -121 68 -195.5t148 -74.5v-77q-81 0 -149 49t-104.5 124.5t-36.5 156.5zM473 57v77q70 0 125 73t55 201q0 130 -55 195t-125 65v77q107 0 183.5 -88.5t76.5 -223.5v-44q1 -139 -77 -235.5t-183 -96.5zM354 -237l79 19 q31 -72 81.5 -120.5t109 -65t118 -8t113 49t89.5 106.5l70 -41q-44 -80 -113.5 -130.5t-147 -61.5t-154 9.5t-142 84t-103.5 158.5zM1644 329v46v17v-2v188q0 161 50.5 292t147.5 209.5t225 78.5v-77q-104 0 -183.5 -70t-120 -180t-42.5 -240q42 45 98.5 70.5t115.5 25.5 v-76q-31 0 -64.5 -11.5t-69.5 -38.5t-59 -82.5t-23 -132.5q0 -121 68 -195t148 -74v-77q-81 0 -149 49t-105 124t-37 156zM2040 0v77q70 0 125 72.5t55 200.5q0 130 -55 195.5t-125 65.5v76q107 0 184 -88.5t77 -223.5v-44q1 -138 -77 -234.5t-184 -96.5zM2170 1081v77 q245 0 341 -228q60 228 247 228v-77q-60 0 -101 -35.5t-61.5 -102.5t-28.5 -142.5t-8 -176.5v-624h-77v678q0 117 -32 205.5t-104 143t-176 54.5zM2994 0v1081h-133v77h351v-77h-142v-1081h-76z" />
<glyph unicode="&#xb95;" horiz-adv-x="1489" d="M115 398q0 70 16 124t40.5 86.5t58.5 54t63 30.5t61 13v433h234v-77h-155l-2 -352h415v352h-155v77h484v-77h-252v-352h135q164 0 240 -77t76 -258h-76q0 143 -59.5 201t-203.5 58h-112v-268q0 -74 -17.5 -139t-55.5 -122.5t-107.5 -91.5t-162.5 -34v77q117 0 191.5 76.5 t74.5 233.5v268h-434q-64 0 -108.5 -18t-68.5 -52t-34 -74t-10 -92h-76zM477 -21q-113 0 -196 50t-123 127.5t-43 172.5h78q8 -132 85.5 -202.5t198.5 -70.5v-77zM961 -21v77q130 0 226 69.5t103 182.5l82 -2q-8 -136 -123.5 -231.5t-287.5 -95.5z" />
<glyph unicode="&#xb99;" horiz-adv-x="1609" d="M1437 0v1139h77v-1139h-77zM480 0v77h322q92 0 143.5 41.5t51.5 116.5v194q0 172 -247 172v77q65 0 121 -13t102.5 -40t73.5 -75t27 -112v-212q0 -89 -60 -149h322v-77h-856zM570 153v909h-384v-1062h-77v1131v8h747v-77h-209v-909h-77z" />
<glyph unicode="&#xb9a;" horiz-adv-x="1278" d="M440 -2q-86 1 -153 24t-105 56.5t-63 77t-33 79t-8 67.5h79q0 -98 85 -162.5t198 -64.5v-77zM542 -2v77q133 0 200.5 75.5t67.5 207.5v276h-353q-139 0 -220.5 -60.5t-81.5 -183.5h-78q0 114 62 192.5t177 108.5v448h235v-77h-157l-2 -356q50 4 79 4h339v352h-155v77h513 v-77h-282v-352h195v-76h-195v-268q0 -73 -17.5 -135.5t-55.5 -116.5t-107.5 -85t-163.5 -31z" />
<glyph unicode="&#xb9c;" horiz-adv-x="1695" d="M507 -345q-86 0 -158.5 39t-117 99t-69 127t-24.5 128v74q0 57 18 112t54 105.5t101 81.5t150 31h798q64 0 109.5 8t76.5 29t49 45t28.5 69t14.5 87t6 112v159q0 63 -18.5 112.5t-44 76.5t-61.5 46.5t-61 26t-53 10.5v76q132 -9 223 -100t91 -248v-220q-1 -93 -22 -161.5 t-52 -107t-77.5 -61.5t-88 -29.5t-93.5 -6.5h-838q-29 0 -57.5 -6.5t-61.5 -25.5t-57.5 -49.5t-41 -83.5t-16.5 -122q0 -166 89.5 -261t203.5 -95v-77zM90 902v1v20q0 27 2 44q1 4 2 11.5t2 11.5q8 45 23 87t48.5 90t79.5 83t121 58.5t168 23.5q158 0 262 -60t153 -166 q66 186 251 203v-76q-28 -5 -48 -11.5t-52.5 -29.5t-52.5 -57t-36 -98t-16 -149v-276h-74v309q0 34 -9 72.5t-33.5 84t-61 83t-98 65.5t-137.5 35q69 -45 105 -125t36 -181v-53q0 -60 -36 -132.5t-100 -127t-132 -54.5v70q19 0 50.5 19t65.5 53.5t58 94.5t24 130 q0 62 -16 112.5t-41.5 82t-58.5 53t-65 30.5t-64 9q-34 0 -74.5 -20t-78.5 -57t-63.5 -101.5t-25.5 -142.5q0 -67 22.5 -121.5t55 -83.5t61.5 -44t47 -15v-69q-73 0 -135 49t-95.5 121t-33.5 144zM624 -268q61 0 103.5 8t82.5 30.5t62 69t26 116.5q9 158 25 209q24 78 96 96 q27 7 62 7h67v-77h-63q-19 0 -33 -2.5t-24.5 -9t-17.5 -14t-12 -23.5t-7.5 -30.5t-5 -41t-4 -49.5t-4 -61.5t-5.5 -72.5q-10 -109 -102 -170.5t-246 -61.5v77zM1062 -262h52.5t61 2t70 6t69 12t68.5 19.5t58 29.5t49 40.5t30 55t11 70.5q-1 56 -25.5 98.5t-56 64t-75 35 t-69.5 16.5t-53 4v77q66 0 126.5 -17t113.5 -51t84.5 -93.5t31.5 -137.5q0 -63 -19.5 -112.5t-57 -82.5t-85 -55.5t-111.5 -35t-129 -17.5t-144 -5v77z" />
<glyph unicode="&#xb9e;" horiz-adv-x="1973" d="M473 -312q-164 0 -268 81.5t-104 234.5v788q-1 65 21 125.5t66 111.5t120 81.5t174 30.5v-77q-78 0 -138.5 -23t-95.5 -61t-52.5 -82.5t-17.5 -91.5v-810q0 -96 74.5 -163.5t212.5 -67.5h494v-77h-486zM1064 -239h450q60 0 110 14.5t92.5 46.5t66.5 90.5t24 137.5v245 q0 74 -16 123t-50 76t-76.5 37.5t-104.5 10.5v76q68 0 120.5 -13t101 -46t75 -99.5t26.5 -164.5v-245q0 -165 -92 -265.5t-277 -100.5h-450v77zM524 329v46v17v-2v188q0 156 52 283.5t152.5 204.5t230.5 77v-77q-108 0 -190.5 -67.5t-124 -174t-43.5 -233.5q42 45 98.5 70.5 t115.5 25.5v-76q-31 0 -64.5 -11.5t-69.5 -38.5t-59 -82.5t-23 -132.5q0 -121 68 -195t148 -74v-77q-81 0 -149 49t-105 124t-37 156zM921 0v77q70 0 125 72.5t55 200.5q0 130 -55 195.5t-125 65.5v76q107 0 183.5 -88.5t76.5 -223.5v-44q1 -139 -76.5 -235t-183.5 -96z M1378 0v1062h-314v77h584v-77h-193v-1062h-77z" />
<glyph unicode="&#xb9f;" horiz-adv-x="1228" d="M178 0v77h915v-77h-915zM178 182v959h78v-959h-78z" />
<glyph unicode="&#xba3;" horiz-adv-x="2413" d="M77 299v256q0 111 19.5 202t51 152.5t75 108.5t87 73t93 42.5t86 21.5t72.5 5v-77q-83 0 -149.5 -24t-109.5 -66t-74 -93t-46.5 -113t-22.5 -117.5t-6 -114.5l2 -254q-1 -125 34.5 -186t84.5 -61v-77q-63 0 -109 47.5t-67 119t-21 155.5zM331 766q-4 18 21.5 36.5 t53.5 18.5q172 0 172 -262v-260q0 -143 -52 -232.5t-145 -89.5v77q51 0 85.5 59.5t34.5 185.5v260q0 29 -0.5 45.5t-4 41.5t-10 39.5t-18.5 32t-30 26.5t-45 15.5t-62 6.5zM735 301v250q0 323 189 481q-107 51 -260 51v77q190 0 327 -80q133 78 301 78v-77q-139 0 -234 -47 q180 -151 180 -458v-275q0 -91 -21.5 -162t-67.5 -115.5t-112 -44.5v77q59 0 92 64t33 181v285q0 279 -172 407q-178 -132 -178 -438v-253q0 -114 34 -180t90 -66v-77q-95 0 -148 95t-53 227zM1395 1081v77q155 0 272 -69q128 71 283 71v-77q-124 0 -218 -42 q165 -151 165 -467v-273q0 -136 -54.5 -228t-146.5 -92v76q54 0 89 66.5t35 177.5v283q0 297 -157 419q-193 -133 -193 -450v-251q0 -117 35.5 -181t86.5 -64v-76q-62 0 -108.5 46.5t-68.5 118t-22 155.5v248q0 335 201 494q-89 38 -199 38zM2073 2v1081h-17v77h279v-77 h-186v-1081h-76z" />
<glyph unicode="&#xba4;" horiz-adv-x="1330" d="M136 -490q0 81 11 140t29.5 94.5t47.5 56.5t59.5 28.5t70.5 7.5h452q175 0 273 79.5t98 196.5v176h77v-180q0 -68 -29 -129.5t-83.5 -111t-141 -78.5t-192.5 -29h-469q-67 0 -97 -54.5t-30 -196.5h-76zM77 316h76q12 -236 289 -236v-76q-183 0 -274 85.5t-91 226.5z M77 392q0 122 66 199t173 108v440h235v-77h-157v-350q38 4 58 4h358v346h-155v77h484v-77h-253v-346h44q57 0 100.5 -6.5t87.5 -27t72 -55t46 -94t18 -141.5h-77q0 51 -8.5 91t-20 66t-32.5 44t-37.5 26.5t-43.5 13.5t-41.5 5.5t-40.5 0.5h-67v-268q0 -73 -17.5 -135.5 t-55.5 -116t-106.5 -84.5t-162.5 -31v76q128 0 197 71t69 213v275h-377q-29 0 -63 -6.5t-74 -23.5t-72 -43.5t-53.5 -71.5t-21.5 -102h-72z" />
<glyph unicode="&#xba8;" horiz-adv-x="1184" d="M789 641v77q48 0 86.5 -6.5t79 -27t67.5 -55t44 -94.5t17 -141v-346q0 -44 -6 -85t-27 -91.5t-55.5 -86.5t-97.5 -61t-147 -25h-520q-42 0 -60.5 -43t-18.5 -148h-76q0 75 11.5 127.5t26.5 79.5t43.5 41.5t49.5 17t56 2.5h486q121 0 189 62.5t68 209.5l2 346 q1 68 -12 115.5t-31.5 72.5t-51 39t-58 17t-65.5 3zM142 0v1139h243v-77h-167v-1062h-76zM607 0l2 1062h-104v77h454v-77h-276l2 -1062h-78z" />
<glyph unicode="&#xba9;" horiz-adv-x="1749" d="M735 297v273q0 314 184 467q-109 44 -249 44v77q197 0 323 -69q128 69 284 69v-77q-118 0 -211 -40q172 -144 172 -446v-298q0 -141 -50.5 -231.5t-148.5 -90.5v77q59 0 91 64t32 181v308q0 275 -171 392q-179 -128 -179 -423v-275q0 -114 35 -180.5t89 -66.5v-77 q-94 0 -147.5 95.5t-53.5 226.5zM77 295v279q0 111 20 201t51.5 149.5t76.5 104t88 68.5t94 38.5t87 18.5t73 4v-77q-84 0 -151 -22.5t-111 -62t-75 -88t-47.5 -108t-23.5 -114t-6 -112.5l2 -277q-1 -125 37.5 -186t88.5 -61v-77q-65 0 -112.5 47.5t-69.5 119t-22 155.5z M339 781q-4 18 21 36.5t53 18.5q175 0 175 -262v-279q0 -143 -53.5 -232.5t-151.5 -89.5v77q54 0 91 59.5t37 185.5v279q0 40 -1.5 63.5t-11 54.5t-27 48t-51 29t-81.5 12zM1378 1083v75h295v-77l-184 2v-1083h-76v1083h-35z" />
<glyph unicode="&#xbaa;" horiz-adv-x="1031" d="M570 0v77h249v1062h79v-1139h-328zM134 0v1139h77v-1062h252v-77h-329z" />
<glyph unicode="&#xbae;" horiz-adv-x="1150" d="M800 0v77q37 0 66 17t45.5 47.5t27.5 61.5t15.5 69.5t5.5 59.5t1 43v456q0 214 -121 245q-19 5 -40 5v77q45 0 84.5 -15.5t75 -50.5t56.5 -102t21 -159v-454q0 -198 -67 -287.5t-170 -89.5zM77 0v1139h76v-1062h318v754q-1 91 19 158t54 102t72 51t81 16v-77 q-32 0 -57 -12t-40 -31.5t-27 -43.5t-16 -49t-7.5 -47.5t-2.5 -39t0 -24.5v-3v-754h150v-77h-620z" />
<glyph unicode="&#xbaf;" horiz-adv-x="1234" d="M934 0v77h57q46 0 68 13.5t22 56.5v992h77v-1139h-224zM77 268v871h76v-861q0 -80 50 -140.5t105 -60.5h10v-77h-12q-36 0 -75.5 20t-74 54t-57 85.5t-22.5 108.5zM421 0v77h12q74 0 125 40t51 126v896h76v-982q0 -49 16.5 -64.5t48.5 -15.5h85l-2 -77h-217v69 q-25 -30 -75 -49.5t-108 -19.5h-12z" />
<glyph unicode="&#xbb0;" horiz-adv-x="991" d="M295 -339l325 375v1026h-182v77h477v-77h-214l-4 -1062l-297 -339h-105zM77 0v1139h258v-77h-182v-1062h-76z" />
<glyph unicode="&#xbb1;" horiz-adv-x="1251" d="M77 -490q0 74 10.5 132t30 94.5t42.5 61t53.5 36.5t57 16.5t58.5 4.5h551q98 0 158.5 73.5t60.5 193.5v758q0 54 -15 94t-34.5 60t-45.5 32t-41.5 14.5t-28.5 2.5v77q60 0 108 -24t76 -62.5t42.5 -81t14.5 -83.5v-787q0 -65 -16.5 -123.5t-50.5 -108.5t-93 -80.5 t-136 -31.5h-563q-82 0 -122.5 -58.5t-40.5 -209.5h-76zM134 0v917q0 39 12 79t36.5 78t69 62t100.5 24v-77q-42 0 -72 -19t-43.5 -49t-19.5 -56.5t-6 -51.5l3 -907h-80zM454 1083v77q67 0 112 -20t79 -66q38 49 84 67.5t107 18.5v-77q-72 0 -113.5 -49.5t-41.5 -172.5 l4 -861h-76l-4 859q0 128 -36 176t-115 48z" />
<glyph unicode="&#xbb2;" horiz-adv-x="1598" d="M473 0v77q70 0 125 72.5t55 200.5q0 130 -55 195.5t-125 65.5v76q107 0 183.5 -88.5t76.5 -223.5v-44q1 -139 -76.5 -235t-183.5 -96zM77 329v46v17v-2v188q0 161 46 292t135 209.5t205 78.5v-77q-93 0 -164.5 -69.5t-108 -180t-37.5 -240.5q42 45 98.5 70.5t115.5 25.5 v-76q-31 0 -64.5 -11.5t-69.5 -38.5t-59 -82.5t-23 -132.5q0 -121 68 -195t148 -74v-77q-81 0 -149 49t-104.5 124t-36.5 156zM567 1083v77q91 0 160.5 -27t110 -68t66 -97.5t34.5 -108t9 -107.5v-480q0 -77 61 -135.5t137 -58.5v-78q-108 0 -192 80t-84 188v500 q0 28 -3 54.5t-12 66t-30 71t-52.5 61t-84 46t-120.5 16.5zM1191 1137q172 1 252.5 -78t80.5 -247v-533q0 -116 -73.5 -197.5t-204.5 -81.5v78q44 0 80 13.5t58 34t36.5 48t20.5 53.5t6 52v529q0 45 -3.5 75.5t-18 67t-41 58t-75.5 36.5t-118 15v77z" />
<glyph unicode="&#xbb3;" horiz-adv-x="1718" d="M77 329v46v17v-2v188q0 161 50.5 292t147.5 209.5t225 78.5v-77q-104 0 -184 -70t-120.5 -180t-42.5 -240q42 45 98.5 70.5t115.5 25.5v-76q-31 0 -64.5 -11.5t-69.5 -38.5t-59 -82.5t-23 -132.5q0 -121 68 -195t148 -74v-77q-81 0 -149 49t-104.5 124t-36.5 156zM473 0 v77q70 0 125 72.5t55 200.5q0 130 -55 195.5t-125 65.5v76q107 0 183.5 -88.5t76.5 -223.5v-44q1 -139 -76.5 -235t-183.5 -96zM603 1081v77q245 0 341 -228q60 228 247 228v-77q-60 0 -101 -35.5t-62 -102.5t-29 -142.5t-8 -176.5v-624h-76v678q0 117 -32 205.5t-104 143 t-176 54.5zM1426 0v1081h-132v77h350v-77h-141v-1081h-77z" />
<glyph unicode="&#xbb4;" horiz-adv-x="1150" d="M167 -128h76q0 -80 37 -128.5t87 -59t100 0.5t78 41q13 -14 38.5 -25t48.5 -13q-71 -53 -142 -73.5t-128 -8.5t-101.5 46.5t-69 92t-24.5 127.5zM802 2v76q37 0 66 17.5t45.5 48t27.5 61t15.5 69.5t5.5 59.5t1 43.5v456q0 214 -121 245q-19 5 -40 5v77q45 0 84.5 -15.5 t75 -50.5t56.5 -102t21 -159v-454q0 -198 -67 -287.5t-170 -89.5zM78 2v1139h77v-1063h318v755q-1 91 19 158t54 102t72 51t81 16v-77q-32 0 -57 -12t-40 -31.5t-27 -43.5t-16 -49t-7.5 -47.5t-2.5 -39t0 -24.5v-3v-755h150v-76h-150q1 -60 21.5 -100.5t46.5 -61t82 -30.5 t92.5 -11.5t112.5 -1.5h8.5h7h8.5v-76l-99 1q-356 -2 -356 280h-395z" />
<glyph unicode="&#xbb5;" horiz-adv-x="1517" d="M473 0v77q70 0 125 72.5t55 200.5q0 130 -55 195.5t-125 65.5v76q107 0 183.5 -88.5t76.5 -223.5v-44q1 -139 -76.5 -235t-183.5 -96zM77 329v46v17v-2v188q0 161 50.5 292t149 209.5t226.5 78.5v-77q-105 0 -185.5 -70t-121.5 -180t-43 -240q42 45 98.5 70.5t115.5 25.5 v-76q-31 0 -64.5 -11.5t-69.5 -38.5t-59 -82.5t-23 -132.5q0 -121 68 -195t148 -74v-77q-81 0 -149 49t-104.5 124t-36.5 156zM601 1081v77q89 0 161.5 -29.5t118.5 -77.5t77 -112t44 -128.5t14 -131.5v-602h242v-77h-460v77q100 0 120 9t20 59v533q-2 179 -88.5 291 t-248.5 112zM1363 0v1139h78v-1139h-78z" />
<glyph unicode="&#xbb6;" horiz-adv-x="1630" d="M111 253v886h77v-879q0 -99 42 -141t118 -42v-77h-9q-112 0 -170 72t-58 181zM452 0v77q71 0 116.5 45t45.5 127v890h890v-894q0 -98 -64.5 -171.5t-168.5 -73.5h-6v77q70 0 116.5 47t46.5 129v809h-423v-802q0 -183 157 -183v-77h-8q-105 0 -165.5 67t-60.5 186v809 h-237v-821q0 -36 -13 -75.5t-39 -77.5t-72.5 -63t-105.5 -25h-9z" />
<glyph unicode="&#xbb7;" horiz-adv-x="2409" d="M473 0v77q70 0 125 72.5t55 200.5q0 130 -55 195.5t-125 65.5v76q107 0 183.5 -88.5t76.5 -223.5v-44q1 -139 -76.5 -235t-183.5 -96zM77 329v46v17v-2v188q0 161 50.5 292t149 209.5t226.5 78.5v-77q-105 0 -185.5 -70t-121.5 -180t-43 -240q42 45 98.5 70.5t115.5 25.5 v-76q-31 0 -64.5 -11.5t-69.5 -38.5t-59 -82.5t-23 -132.5q0 -121 68 -195t148 -74v-77q-81 0 -149 49t-104.5 124t-36.5 156zM601 1081v77q89 0 161.5 -29.5t118.5 -77.5t77 -112t44 -128.5t14 -131.5v-602h519v-77h-737v77q100 0 120 9t20 59v533q-2 179 -88.5 291 t-248.5 112zM1265 639v190q0 95 20 162t58 103.5t85 52t109 15.5v-77h-24t-25.5 -2t-29.5 -6t-28 -12.5t-28 -20.5t-23 -31t-20 -44t-12 -59.5t-5 -76.5v-226q0 -63 14.5 -108.5t33.5 -68.5t49 -35.5t50 -15t48 -2.5v-75q-63 0 -109.5 14.5t-85 50.5t-58 104t-19.5 168z M2090 0h-184v-341h-76v343h-192v76h192v81h76v-81h184v224h-184v-67h-76v67h-192v77h192v411q0 79 -13 136.5t-31.5 87t-47 46.5t-50.5 21t-50 4v77q268 0 268 -372v-411h261v-379h-77z" />
<glyph unicode="&#xbb8;" horiz-adv-x="2235" d="M1353 1083v77q261 0 261 -385v-566q0 -53 47 -92.5t108 -39.5v-77q-92 0 -163 61.5t-71 143.5v555q0 37 -0.5 55.5t-3.5 58.5t-9.5 63t-20 54.5t-32 49t-48.5 30t-68 12.5zM1872 0v77q53 0 96 16t69.5 41t44 58t24.5 65t7 63v492q0 45 -3.5 75.5t-17.5 67t-40 58 t-75 36.5t-118 15v77q172 1 251.5 -78t79.5 -248v-495q0 -131 -84 -225.5t-234 -94.5zM145 329v46v17v-2v188q0 161 51 292t149.5 209.5t226.5 78.5v-77q-105 0 -185.5 -70t-121.5 -180t-43 -240q42 45 98.5 70.5t115.5 25.5v-76q-31 0 -64.5 -11.5t-69.5 -38.5t-59 -82.5 t-23 -132.5q0 -121 68 -195t148 -74v-77q-81 0 -149 49t-105 124t-37 156zM542 0v77q70 0 125 72.5t55 200.5q0 130 -55 195.5t-125 65.5v76q107 0 183.5 -88.5t76.5 -223.5v-44q1 -139 -76.5 -235t-183.5 -96zM676 1081v77q239 0 338 -222q56 222 236 222v-77 q-39 0 -69.5 -16.5t-50.5 -48.5t-33.5 -71.5t-20.5 -94t-9.5 -107t-2.5 -119.5v-624h-76v678q0 117 -32 205.5t-104 143t-176 54.5z" />
<glyph unicode="&#xbb9;" horiz-adv-x="2511" d="M2316 597l-2 280q0 66 -19.5 111t-49.5 63t-50 23.5t-38 5.5v76q67 0 116 -24t74 -63t36 -80t11 -84v-308h-78zM601 1081v77q89 0 161.5 -29.5t118.5 -77.5t77 -112t44 -128.5t14 -131.5v-602h240v-77h-458v77q100 0 120 9t20 59v533q-2 179 -88.5 291t-248.5 112z M1677 1080v76q67 0 112 -19.5t79 -64.5q38 47 84 65.5t107 18.5v-76q-28 0 -53.5 -9.5t-49.5 -31.5t-38 -64t-14 -100l4 -875h-76l-4 873q0 207 -151 207zM77 329v46v17v-2v188q0 161 50.5 292t149 209.5t226.5 78.5v-77q-105 0 -185.5 -70t-121.5 -180t-43 -240 q42 45 98.5 70.5t115.5 25.5v-76q-31 0 -64.5 -11.5t-69.5 -38.5t-59 -82.5t-23 -132.5q0 -121 68 -195t148 -74v-77q-81 0 -149 49t-104.5 124t-36.5 156zM473 0v77q70 0 125 72.5t55 200.5q0 130 -55 195.5t-125 65.5v76q107 0 183.5 -88.5t76.5 -223.5v-44 q1 -139 -76.5 -235t-183.5 -96zM1355 0v913q0 39 12 79t36.5 78t69 62t100.5 24v-76q-42 0 -72 -19t-44.5 -49t-20.5 -57t-6 -52l4 -903h-79zM2396 509v-388q0 -150 -77 -253.5t-215 -106.5h-1698q-69 0 -101.5 -55.5t-32.5 -195.5h-77q0 172 53.5 249.5t168.5 77.5h1685 q95 0 158.5 86.5t61.5 208.5l-4 377h78z" />
<glyph unicode="&#xbbe;" horiz-adv-x="937" d="M658 0v1062h-181v77h419v-77h-161v-1062h-77zM117 0v1139h258v-77h-182v-1062h-76z" />
<glyph unicode="&#xbbf;" horiz-adv-x="518" d="M82 1372v77q166 0 249.5 -91.5t83.5 -243.5v-982h-76v976q0 61 -15 108.5t-39 76.5t-58.5 47t-69.5 25t-75 7zM-337 1110q0 73 17 133t53 107.5t98.5 74t147.5 26.5v-77q-239 0 -239 -264h-77z" />
<glyph unicode="&#xbc0;" horiz-adv-x="195" d="M61 792q-81 66 -135 161t-75 192.5t-12 195t44.5 173t103.5 123t157 47.5q114 0 189 -62t75 -175q0 -85 -60.5 -155.5t-150.5 -70.5q-62 0 -114.5 38t-59.5 73l50 59q0 -30 33 -61.5t95 -31.5q57 0 93.5 44.5t36.5 102.5q0 65 -43 113t-144 48q-78 -5 -132.5 -50.5 t-78 -114.5t-21.5 -156t30 -173.5t85 -169.5t134 -140z" />
<glyph unicode="&#xbc1;" horiz-adv-x="1012" d="M75 1177v77h543q158 0 237 -62t79 -164v-14q0 -84 -63 -150t-142 -66h-23q-93 0 -152.5 68.5t-59.5 147.5h76q0 -17 7.5 -38.5t23 -45t45.5 -39.5t70 -16q37 0 66 16.5t44.5 40t23 45t7.5 36.5q0 83 -56 123.5t-190 40.5h-536z" />
<glyph unicode="&#xbc2;" horiz-adv-x="1339" d="M86 1177v77h414q1 193 98.5 285t268.5 92q101 0 183 -32t133.5 -101t51.5 -166v-620q0 -117 -62.5 -178t-202.5 -61h-113v76h113q33 0 54 1.5t49.5 10.5t44.5 25.5t28 48.5t12 77v620q0 92 -72 157t-219 65q-291 0 -291 -300h54q158 0 237 -62t79 -164v-14 q0 -84 -63 -150t-142 -66h-23q-93 0 -153 68.5t-60 147.5h77q0 -24 11.5 -53.5t46.5 -57.5t87 -28q48 0 82.5 28.5t47 58.5t12.5 51q0 82 -56.5 123t-190.5 41h-536z" />
<glyph unicode="&#xbc6;" horiz-adv-x="1211" d="M542 0v77q70 0 125 72.5t55 200.5q0 130 -55 195.5t-125 65.5v76q107 0 183.5 -88.5t76.5 -223.5v-44q1 -139 -76.5 -235t-183.5 -96zM145 329v534q0 70 15.5 133t48.5 118t81.5 95.5t119.5 63.5t157 23v-77q-80 0 -142.5 -24t-99.5 -60.5t-61.5 -85.5t-33 -94t-8.5 -92 v-272q42 45 98.5 70.5t115.5 25.5v-76q-31 0 -64.5 -11.5t-69.5 -38.5t-59 -82.5t-23 -132.5q0 -121 68 -195t148 -74v-77q-81 0 -149 49t-105 124t-37 156zM670 1219v77q100 0 177 -35t123 -96.5t69 -137.5t23 -164v-882h-76v882q0 39 -6 79.5t-26.5 92.5t-53 91t-92 66 t-138.5 27z" />
<glyph unicode="&#xbc7;" horiz-adv-x="1188" d="M790 720v76q70 0 125 73t55 201q0 130 -55 195t-125 65v77q107 0 184 -88.5t77 -223.5v-44q1 -138 -77 -234.5t-184 -96.5zM394 1049v46q0 105 56 187q-224 -97 -224 -340v-486q0 -272 243 -366q-75 99 -75 216v46q0 142 87.5 227t203.5 85v-76q-31 0 -64.5 -11.5 t-69.5 -38.5t-59 -82.5t-23 -132.5q0 -121 68 -195t148 -74v-77h-4h-9q-55 0 -115.5 10t-134.5 40.5t-131.5 78t-96.5 132t-39 193.5v518q0 83 23 152t59.5 115t86 82t98 56t100.5 32.5t88.5 16.5t67.5 4h7v-77q-24 0 -50 -6t-56.5 -24.5t-54 -46.5t-39.5 -76.5t-16 -110.5 q0 -121 68 -195.5t148 -74.5v-76q-81 0 -149 49t-105 124t-37 156zM790 -23v77q70 0 125 72.5t55 200.5q0 130 -55 195.5t-125 65.5v76q107 0 184 -88.5t77 -223.5v-44q1 -138 -77 -234.5t-184 -96.5z" />
<glyph unicode="&#xbc8;" horiz-adv-x="1996" d="M810 302v249q0 338 229 494q-128 36 -294 36v77q216 0 379 -65q144 65 308 65v-77q-127 0 -220 -30q258 -145 258 -475v-274q0 -140 -71 -230.5t-208 -90.5v76q97 0 149.5 63.5t52.5 181.5v284q0 142 -64.5 254t-206.5 174q-236 -124 -236 -459v-251q0 -114 56 -180.5 t145 -66.5v-76q-88 0 -152.5 47t-94.5 118.5t-30 155.5zM77 301v254q0 111 23 202t59.5 152t87.5 108t101.5 73t108 42t100.5 21t84 5v-77q-118 -1 -208 -35.5t-142 -87.5t-84.5 -126t-43.5 -139t-10 -138l2 -253q-1 -125 59.5 -185.5t141.5 -60.5v-77q-89 0 -154 47.5 t-95 119t-30 155.5zM492 781q-4 18 20.5 36.5t52.5 18.5q63 0 103 -43.5t54.5 -105.5t14.5 -143v-243q0 -143 -73.5 -232.5t-206.5 -89.5v77q86 0 144.5 59.5t58.5 185.5v243q0 30 -0.5 47t-3.5 46t-9.5 46t-18.5 38t-29.5 32.5t-44.5 19.5t-62 8zM1535 1064v77 q70 -4 135.5 -44.5t118 -110t84 -175.5t31.5 -231v-270q0 -138 -78 -229t-216 -91v77q103 0 160.5 66t57.5 177v270q0 93 -19 173.5t-50 135.5t-69.5 95t-78 59.5t-76.5 20.5z" />
<glyph unicode="&#xbca;" horiz-adv-x="1996" d="M1715 0v1062h-182v77h419v-77h-160v-1062h-77zM1173 0v1139h259v-77h-182v-1062h-77zM515 10v76q70 0 125 73t55 201q0 130 -55 195t-125 65v77q107 0 183.5 -88.5t76.5 -223.5v-44q1 -139 -76.5 -235t-183.5 -96zM119 339v534q0 88 25 164t74.5 137t132 96t189.5 35v-76 q-80 0 -142.5 -24t-99.5 -60.5t-61.5 -85.5t-33 -94t-8.5 -92v-272q42 45 99 70.5t116 25.5v-77q-24 0 -50 -6t-57 -24.5t-54.5 -46t-39.5 -76.5t-16 -111q0 -121 68.5 -195.5t148.5 -74.5v-76q-81 0 -149 49t-105 124t-37 156zM643 1229v76q100 0 177 -35t123 -96t69 -137 t23 -164v-883h-76v883q0 39 -6 79.5t-26.5 92.5t-53 91t-92 66t-138.5 27z" />
<glyph unicode="&#xbcb;" horiz-adv-x="2126" d="M790 720v76q70 0 125 73t55 201q0 130 -55 195t-125 65v77q107 0 184 -88.5t77 -223.5v-44q1 -138 -77 -234.5t-184 -96.5zM394 1049v46q0 105 56 187q-224 -97 -224 -340v-486q0 -272 243 -366q-75 99 -75 216v46q0 142 87.5 227t203.5 85v-76q-31 0 -64.5 -11.5 t-69.5 -38.5t-59 -82.5t-23 -132.5q0 -121 68 -195t148 -74v-77h-4h-9q-55 0 -115.5 10t-134.5 40.5t-131.5 78t-96.5 132t-39 193.5v518q0 83 23 152t59.5 115t86 82t98 56t100.5 32.5t88.5 16.5t67.5 4h7v-77q-24 0 -50 -6t-56.5 -24.5t-54 -46.5t-39.5 -76.5t-16 -110.5 q0 -121 68 -195.5t148 -74.5v-76q-81 0 -149 49t-105 124t-37 156zM790 -23v77q70 0 125 72.5t55 200.5q0 130 -55 195.5t-125 65.5v76q107 0 184 -88.5t77 -223.5v-44q1 -138 -77 -234.5t-184 -96.5zM1847 0v1062h-182v77h419v-77h-160v-1062h-77zM1305 0v1139h259v-77 h-182v-1062h-77z" />
<glyph unicode="&#xbcc;" horiz-adv-x="2872" d="M1244 333v46v17v-2v188q0 161 50.5 292t147.5 209.5t225 78.5v-77q-104 0 -183.5 -70t-120 -180t-42.5 -240q42 45 98.5 70.5t115.5 25.5v-77q-24 0 -50 -6t-56.5 -24.5t-54 -46.5t-39.5 -76.5t-16 -110.5q0 -121 68 -195.5t148 -74.5v-76q-81 0 -149 49t-105 124 t-37 156zM1640 4v76q70 0 125 73t55 201q0 130 -55 195t-125 65v77q107 0 184 -88.5t77 -223.5v-44q1 -138 -77 -234.5t-184 -96.5zM1770 1085v77q245 0 341 -228q60 228 247 228v-77q-60 0 -101 -35.5t-61.5 -102.5t-28.5 -142.5t-8 -176.5v-624h-77v677q0 87 -18.5 159 t-56 127.5t-98 86.5t-139.5 31zM2593 4v1081h-132v77h351v-77h-142v-1081h-77zM538 19v77q70 0 125 72.5t55 200.5q0 130 -55 195.5t-125 65.5v76q107 0 183.5 -88.5t76.5 -223.5v-44q1 -139 -76.5 -235t-183.5 -96zM142 348v534q0 88 25 164.5t74.5 137.5t132 96t189.5 35 v-77q-80 0 -142.5 -24t-99.5 -60.5t-61.5 -85.5t-33 -94t-8.5 -92v-271q42 45 99 70t116 25v-76q-24 0 -50 -6t-57 -24.5t-54.5 -46t-39.5 -76.5t-16 -111q0 -121 68.5 -195.5t148.5 -74.5v-77q-81 0 -149 49t-105 124t-37 156zM666 1238v77q100 0 177 -35t123 -96.5 t69 -137.5t23 -164v-882h-76v882q0 39 -6 79.5t-26.5 92.5t-53 91t-92 66t-138.5 27z" />
<glyph unicode="&#xbcd;" horiz-adv-x="0" d="M-65 1388q0 29 19.5 49t47.5 20q27 0 47 -20.5t20 -48.5t-20 -48.5t-47 -20.5q-28 0 -47.5 20t-19.5 49z" />
<glyph unicode="&#xbd0;" horiz-adv-x="2181" d="M588 -982q-159 0 -246 79.5t-87 236.5v195q-1 42 0.5 72.5t7.5 69.5t17.5 66t32.5 55.5t51 46t74.5 28.5t101.5 11v-77q-34 0 -62 -5t-48.5 -12t-36.5 -21t-26.5 -25.5t-17.5 -32.5t-10.5 -34t-5.5 -38.5t-2 -38.5v-40v-11v-217q0 -48 12 -87t39 -72.5t77.5 -52.5 t120.5 -19h475v-77h-467zM1160 -909h450q60 0 110 14.5t92.5 46.5t66.5 90.5t24 137.5v73q0 37 -4.5 64t-12 44.5t-21.5 27.5t-27 14.5t-36 5.5t-41.5 -0.5t-49.5 -3t-55 -1.5v76q21 0 60 1.5t60 1.5t53.5 -3t50 -11t39.5 -24.5t33 -41t19 -62.5t8 -88v-73 q0 -165 -92 -265.5t-277 -100.5h-450v77zM947 59q0 23 16.5 39.5t39.5 16.5t39 -16.5t16 -39.5t-16 -39t-39 -16t-39.5 16t-16.5 39zM1212 -779v77q25 0 46 5t35 16.5t25 22.5t17.5 30t10.5 31t5.5 34t2 30.5t0 29.5t-0.5 23v53q0 148 -25.5 199.5t-108.5 51.5v76 q113 0 162 -70t49 -257v-52q0 -83 -12 -140.5t-29 -88.5t-48.5 -47.5t-58 -20t-70.5 -3.5zM641 -779v660h77v-583h241v294q0 168 40.5 238t154.5 70v-76q-29 0 -49.5 -5t-33.5 -19.5t-20.5 -28.5t-11 -46.5t-4 -57.5t-0.5 -75v-294h111v-77h-505zM503 745q107 0 184 -88.5 t77 -223.5v-44q1 -138 -77 -235t-184 -97v77q70 0 125 73t55 201q0 130 -55 195t-125 65v77zM398 745v-77q-24 0 -50 -6t-56.5 -24.5t-54 -46.5t-39.5 -76.5t-16 -110.5q0 -121 68 -195.5t148 -74.5v-77q-81 0 -149 49t-105 124.5t-37 156.5v46v3v157q0 97 10 174.5 t36.5 156t70.5 137.5t115.5 111.5t168.5 86t232 52.5t303 19v-76q-437 -11 -643 -151.5t-212 -449.5q87 92 210 92zM2077 316q0 -79 -42 -138.5t-108 -87t-140.5 -34t-148 16t-122.5 67.5v-88q0 -60 42 -106.5t108.5 -72.5t140.5 -38.5t147 -10.5v-77q-231 0 -373 84.5 t-142 216.5v622h77v-360q0 -45 26 -82.5t68 -58t93 -31t102 -2.5t94 27t71 58.5t30 92.5v448q0 492 -855 492v76q170 0 308.5 -18t234 -48t167 -75t113 -92.5t67 -107t34 -112.5t8.5 -115v-446z" />
<glyph unicode="&#xbd7;" horiz-adv-x="1718" d="M77 329v46v17v-2v188q0 161 50.5 292t147.5 209.5t225 78.5v-77q-104 0 -184 -70t-120.5 -180t-42.5 -240q42 45 98.5 70.5t115.5 25.5v-76q-31 0 -64.5 -11.5t-69.5 -38.5t-59 -82.5t-23 -132.5q0 -121 68 -195t148 -74v-77q-81 0 -149 49t-104.5 124t-36.5 156zM473 0 v77q70 0 125 72.5t55 200.5q0 130 -55 195.5t-125 65.5v76q107 0 183.5 -88.5t76.5 -223.5v-44q1 -139 -76.5 -235t-183.5 -96zM603 1081v77q245 0 341 -228q60 228 247 228v-77q-60 0 -101 -35.5t-62 -102.5t-29 -142.5t-8 -176.5v-624h-76v678q0 117 -32 205.5t-104 143 t-176 54.5zM1426 0v1081h-132v77h350v-77h-141v-1081h-77z" />
<glyph unicode="&#xbe6;" horiz-adv-x="1002" d="M538 1187q80 0 138 -16t106 -56t77 -109t44.5 -175t15.5 -253q0 -162 -28 -280t-80.5 -186.5t-119.5 -100.5t-153 -32v75q100 0 167.5 71.5t96.5 186t29 266.5q0 114 -7 193t-25.5 145.5t-51.5 105t-84.5 59.5t-124.5 21v85zM469 1187v-85q-73 0 -124.5 -21t-84.5 -59.5 t-51.5 -105t-25.5 -145.5t-7 -193q0 -152 29 -266.5t96.5 -186t167.5 -71.5v-75q-86 0 -153 32t-119.5 100.5t-80.5 186.5t-28 280q0 147 15.5 253t44.5 175t77 109t106 56t138 16z" />
<glyph unicode="&#xbe7;" horiz-adv-x="1489" d="M115 398q0 70 16 124t40.5 86.5t58.5 54t63 30.5t61 13v433h234v-77h-155l-2 -352h415v352h-155v77h484v-77h-252v-352h135q164 0 240 -77t76 -258h-76q0 143 -59.5 201t-203.5 58h-112v-268q0 -74 -17.5 -139t-55.5 -122.5t-107.5 -91.5t-162.5 -34v77q117 0 191.5 76.5 t74.5 233.5v268h-434q-64 0 -108.5 -18t-68.5 -52t-34 -74t-10 -92h-76zM477 -21q-113 0 -196 50t-123 127.5t-43 172.5h78q8 -132 85.5 -202.5t198.5 -70.5v-77zM961 -21v77q130 0 226 69.5t103 182.5l82 -2q-8 -136 -123.5 -231.5t-287.5 -95.5z" />
<glyph unicode="&#xbe8;" horiz-adv-x="1722" d="M77 903q0 117 51 214t151 156t232 59q140 0 250.5 -59t176 -176t65.5 -274h-77q0 111 -38.5 197.5t-100.5 136t-132.5 74.5t-143.5 25q-167 0 -262.5 -102t-95.5 -249q0 -123 74.5 -203t206.5 -80q78 0 133.5 58.5t74.5 137t3 147.5h78q18 -108 -18 -206t-109.5 -156 t-159.5 -58q-68 0 -131 22.5t-114.5 65t-82.5 112.5t-31 158zM147 0v77q129 -1 251.5 39t216 106.5t165 150t109 174t37.5 173.5h77q0 -104 -41 -204.5t-110.5 -182t-155.5 -146.5t-183 -110h1133v-77h-1499z" />
<glyph unicode="&#xbe9;" horiz-adv-x="1404" d="M488 0v77h312q35 0 59.5 1.5t55.5 6t51.5 15t39.5 26.5t28 42.5t9 61.5v210q0 154 -247 161v77q56 0 108 -10.5t103 -35.5t82 -74t31 -118v-226q0 -83 -56 -137h161v-77h-737zM614 339v723h-380v-1062h-77v1131v8h743v-77h-209v-723h-77z" />
<glyph unicode="&#xbea;" horiz-adv-x="1580" d="M542 -2v77q133 0 200.5 75.5t67.5 207.5v276h-353q-37 0 -72.5 -5t-79.5 -23t-76 -46t-54 -80t-22 -120q0 -285 287 -285v-77q-68 0 -124 14.5t-93 37t-65 53.5t-43 61t-24 63.5t-11.5 56.5t-2.5 45v46q0 33 5.5 66t21.5 72t41.5 71.5t69.5 61.5t101 45v448h235v-77h-157 l-2 -356q50 4 79 4h339v352h-155v77h513v-77h-282v-352h532v222h79l-2 -298h-609v-268q0 -73 -17.5 -135.5t-55.5 -116.5t-107.5 -85t-163.5 -31z" />
<glyph unicode="&#xbeb;" horiz-adv-x="1726" d="M96 132v427q0 90 24.5 161t62.5 115t89.5 73t102 40t102.5 11v-77q-59 0 -111 -17.5t-97 -55t-71 -104t-26 -156.5v-419q0 -81 23.5 -143.5t64 -100t91.5 -56t110 -18.5h389v-76h-383q-164 0 -267.5 102t-103.5 294zM955 -188h308q106 0 195 69t89 165v299q0 54 -19 95.5 t-46 64t-62 37t-61 19t-48 4.5v76q41 -4 78 -12.5t81.5 -29t76.5 -51t54 -81t22 -115.5v-306q0 -50 -23 -103t-65 -100t-113 -77t-157 -30h-310v76zM584 2v1137h268v-77h-192v-1060h-76zM1127 2v1060h-172v77h467v-77h-214l-4 -1060h-77z" />
<glyph unicode="&#xbec;" horiz-adv-x="1984" d="M542 -2v77q133 0 200.5 75.5t67.5 207.5v276h-353q-37 0 -72.5 -5t-79.5 -23t-76 -46t-54 -80t-22 -120q0 -285 287 -285v-77q-68 0 -124 14.5t-93 37t-65 53.5t-43 61t-24 63.5t-11.5 56.5t-2.5 45v46q0 33 5.5 66t21.5 72t41.5 71.5t69.5 61.5t101 45v448h235v-77h-157 l-2 -356q50 4 79 4h339v352h-155v77h513v-77h-282v-352h1022v-76h-107l-2 -630h-76v630h-314l-2 -630h-77v630h-444v-268q0 -73 -17.5 -135.5t-55.5 -116.5t-107.5 -85t-163.5 -31z" />
<glyph unicode="&#xbed;" horiz-adv-x="1255" d="M78 329v46v17v-2v188q0 156 52 283.5t152.5 204.5t230.5 77v-77q-108 0 -190.5 -67.5t-124 -174t-43.5 -233.5q42 45 98.5 70.5t115.5 25.5v-76q-31 0 -64.5 -11.5t-69.5 -38.5t-59 -82.5t-23 -132.5q0 -121 68 -195t148 -74v-77q-81 0 -149 49t-105 124t-37 156zM475 0 v77q70 0 125 72.5t55 200.5q0 130 -55 195.5t-125 65.5v76q107 0 183.5 -88.5t76.5 -223.5v-44q1 -139 -76.5 -235t-183.5 -96zM932 0v1062h-314v77h584v-77h-193v-1062h-77z" />
<glyph unicode="&#xbee;" horiz-adv-x="1866" d="M618 880q11 -118 90 -184t197 -66q106 0 184.5 61.5t78.5 156.5l61 -65q-8 -92 -103 -161t-221 -69q-70 0 -128 18t-94.5 47t-64 63.5t-41.5 69.5t-22.5 64t-10.5 47l-2 18h76zM545 988q0 18 3.5 41t16.5 57t33.5 66t58 65t87 57.5t124 40t164.5 15.5q223 0 346 -151.5 t123 -426.5v-308h174v662h76v-1311h-76v572h-174l2 -239q0 -99 -34.5 -182.5t-104.5 -136t-162 -52.5h-310v76h312q95 2 157.5 82t62.5 217v235h-536v77h536v314q0 130 -30 227.5t-84.5 155t-124 85.5t-153.5 28q-178 0 -294 -79t-116 -187h-77zM115 138q0 308 409 308h261 v-80h-295q-299 0 -299 -228q0 -81 31.5 -143.5t80.5 -96t99.5 -49.5t97.5 -16h287v-76h-284q-164 0 -276 106.5t-112 274.5z" />
<glyph unicode="&#xbef;" horiz-adv-x="1808" d="M542 -2v77q133 0 200.5 75.5t67.5 207.5v276h-353q-37 0 -72.5 -5t-79.5 -23t-76 -46t-54 -80t-22 -120q0 -285 287 -285v-77q-68 0 -124 14.5t-93 37t-65 53.5t-43 61t-24 63.5t-11.5 56.5t-2.5 45v46q0 33 5.5 66t21.5 72t41.5 71.5t69.5 61.5t101 45v448h235v-77h-157 l-2 -356q50 4 79 4h339v352h-155v77h513v-77h-282v-352h431q396 0 396 -298v-29q0 -68 -28 -125t-71 -91t-89.5 -52.5t-87.5 -18.5h-26q-127 0 -211 86t-84 210h76q0 -53 18.5 -94.5t45 -64.5t60.5 -37.5t59.5 -19t46.5 -4.5q16 0 39 4.5t55 19.5t57.5 37.5t44 63.5t18.5 93 q0 36 -5.5 66.5t-16 53.5t-24.5 41.5t-31 31t-36 22t-39.5 14.5t-41 9t-41 4.5t-39.5 1.5t-35 0h-16h-425v-268q0 -73 -17.5 -135.5t-55.5 -116.5t-107.5 -85t-163.5 -31z" />
<glyph unicode="&#xbf0;" horiz-adv-x="1205" d="M898 0v77q76 0 115.5 61.5t39.5 158.5v813l-211 285h94l193 -256v-861q0 -40 -10.5 -83t-34 -89.5t-72 -76t-114.5 -29.5zM77 279v860h76v-860q0 -50 12 -89t28.5 -59.5t37.5 -33.5t36.5 -16.5t29.5 -3.5v-77q-89 0 -154.5 74.5t-65.5 204.5zM400 0v77h18.5t21 1.5 t24.5 5t23.5 10.5t23.5 17t20 26.5t17.5 37t10 50t4.5 64.5v850h76v-850q0 -62 13 -105.5t28 -63.5t41.5 -30.5t38 -11.5t34.5 -1v-77q-43 0 -67.5 2.5t-62 21.5t-65.5 56q-23 -29 -46 -46t-50.5 -24t-46.5 -8.5t-56 -1.5z" />
<glyph unicode="&#xbf1;" horiz-adv-x="1464" d="M1114 0v1083h-235v77h509v-77h-197v-1083h-77zM77 0v917q0 108 54.5 175.5t157.5 67.5v-77q-16 0 -31.5 -2.5t-36 -13t-35 -28t-25 -49.5t-10.5 -75l6 -915h-80zM394 1083v77q67 0 108.5 -16.5t83.5 -60.5q25 37 58.5 54.5t57.5 20t73 2.5v-77q-77 0 -115 -31.5 t-38 -127.5l4 -924h-77l-5 923q0 160 -150 160z" />
<glyph unicode="&#xbf2;" horiz-adv-x="2025" d="M1254 -117q-109 0 -175 71.5t-66 177.5q0 44 15 85t43.5 75.5t76 55.5t106.5 21v-76q-17 0 -36.5 -3.5t-43 -15t-42 -29.5t-31 -49.5t-12.5 -71.5q0 -41 14.5 -73t34.5 -48.5t45 -27t41 -13t28 -2.5q185 0 185 231v443h-551v-268q0 -73 -17.5 -135.5t-55.5 -116.5 t-107.5 -85t-163.5 -31v77q133 0 200.5 75.5t67.5 207.5v276h-353q-37 0 -72.5 -5t-79.5 -23t-76 -46t-54 -80t-22 -120q0 -285 287 -285v-77q-68 0 -124 14.5t-93 37t-65 53.5t-43 61t-24 63.5t-11.5 56.5t-2.5 45v46q0 33 5.5 66t21.5 72t41.5 71.5t69.5 61.5t101 45v448 h235v-77h-157l-2 -356q50 4 79 4h339v352h-155v77h513v-77h-282v-352h873v-76h-245v-450q0 -135 -66.5 -218t-193.5 -83zM1131 -494q0 130 50 180t165 50h225q301 0 301 295q0 68 -20.5 120t-51.5 82t-73.5 49t-81.5 25.5t-81 6.5v76q81 0 149 -21t121.5 -63t83.5 -112.5 t30 -162.5q0 -101 -30 -175t-83.5 -116t-119 -61.5t-144.5 -19.5h-231q-83 0 -106 -28.5t-26 -124.5h-77z" />
<glyph unicode="&#xbf3;" horiz-adv-x="1772" d="M473 0v77q70 0 125 72.5t55 200.5q0 130 -55 195.5t-125 65.5v76q107 0 183.5 -88.5t76.5 -223.5v-44q1 -139 -76.5 -235t-183.5 -96zM77 329v46v17v-2v188q0 161 50.5 292t149 209.5t226.5 78.5v-77q-105 0 -185.5 -70t-121.5 -180t-43 -240q42 45 98.5 70.5t115.5 25.5 v-76q-31 0 -64.5 -11.5t-69.5 -38.5t-59 -82.5t-23 -132.5q0 -121 68 -195t148 -74v-77q-81 0 -149 49t-104.5 124t-36.5 156zM601 1081v77q89 0 161.5 -29.5t118.5 -77.5t77 -112t44 -128.5t14 -131.5v-602h680v-77h-898v77q100 0 120 9t20 59v533q-2 179 -88.5 291 t-248.5 112z" />
<glyph unicode="&#xbf4;" horiz-adv-x="1919" d="M1880 1233q-130 0 -180 49.5t-50 164.5v226q0 300 -295 300q-68 0 -120 -20.5t-82 -51.5t-49 -73.5t-25.5 -81.5t-6.5 -81h-77q0 81 21 149.5t63.5 122t113 83.5t162.5 30q101 0 175 -30t115.5 -83.5t61 -119t19.5 -144.5v-232q0 -83 29 -106t125 -26v-76zM1503 1355 q0 -109 -71.5 -175t-177.5 -66q-94 0 -166 63t-72 178h77q0 -23 7 -47.5t23.5 -52.5t52 -46t85.5 -18q41 0 73 14.5t49 34.5t27 44.5t13 41t3 27.5q0 25 -4 47t-18.5 48.5t-39 45.5t-68 32t-102.5 13h-478v76h486q135 0 218 -66.5t83 -193.5zM798 0v77q37 0 66 17t45.5 47.5 t27.5 61.5t15.5 69.5t5.5 59.5t1 43v456q0 214 -121 245q-19 5 -40 5v77q45 0 84.5 -15.5t75 -50.5t56.5 -102t21 -159v-454q0 -198 -67 -287.5t-170 -89.5zM75 0v1139h76v-1062h318v754q-3 202 96 283q-34 22 -63.5 64.5t-48.5 94t-19 107.5t20 103.5t75 83.5t139 47v-75 q-82 -25 -118.5 -72.5t-28 -104t37 -111t73.5 -103.5q26 10 63 10v-77q-32 0 -57 -12t-40 -31.5t-27 -43.5t-16 -49t-7.5 -47.5t-2.5 -39t0 -24.5v-3v-754h150v-77h-620z" />
<glyph unicode="&#xbf5;" horiz-adv-x="3234" d="M151 69v1007q0 74 19.5 133t50.5 95.5t72 61t81 34t82 9.5h934v-77h-933q-102 0 -165.5 -66t-63.5 -198v-1001q0 -151 64.5 -222t166.5 -71h931v-76h-944q-131 0 -213 95.5t-82 275.5zM938 1081v77q89 0 161.5 -29.5t118.5 -77.5t77 -112t44 -128.5t14 -131.5v-602h239 v-77h-457v77q100 0 120 9t20 59v533q-2 179 -88.5 291t-248.5 112zM1491 -226h903q88 0 140 55t52 173v220q0 54 -18.5 97t-46 66.5t-54 35.5t-46.5 12v76q39 -5 77.5 -21.5t77 -48.5t62.5 -89t24 -130v-212q0 -141 -68 -225.5t-198 -84.5h-905v76zM413 329v46v17v-2v188 q0 161 51 292t149.5 209.5t226.5 78.5v-77q-105 0 -185.5 -70t-121.5 -180t-43 -240q42 45 98.5 70.5t115.5 25.5v-76q-31 0 -64.5 -11.5t-69.5 -38.5t-59 -82.5t-23 -132.5q0 -121 68 -195t148 -74v-77q-81 0 -149 49t-105 124t-37 156zM810 0v77q70 0 125 72.5t55 200.5 q0 130 -55 195.5t-125 65.5v76q107 0 183.5 -88.5t76.5 -223.5v-44q1 -139 -76.5 -235t-183.5 -96zM1491 1332v77h875q89 0 154 -25.5t99 -64t59 -88.5t36.5 -95t29 -86.5t39.5 -59.5h-80q-21 20 -38 56t-27 72t-29.5 75.5t-45 69.5t-75 49.5t-118.5 19.5h-879zM1698 0v1139 h258v-77h-182v-1062h-76zM2239 0v1062h-181v77h419v-77h-161v-1062h-77z" />
<glyph unicode="&#xbf6;" horiz-adv-x="1127" d="M413 -417q86 0 127.5 52t41.5 168v15h-293q-37 0 -66.5 -13t-44.5 -33.5t-22 -45.5t0 -50.5t22 -46t43.5 -33.5t65.5 -13h25v-77h-25q-30 0 -62.5 9t-67 29t-57 61t-23.5 96v12q0 77 55.5 128.5t156.5 51.5h293v149q-13 -12 -29.5 -21t-29.5 -13t-31 -6.5t-27.5 -2.5 t-27.5 0.5t-22 0.5v77q25 0 41 2t37.5 8.5t35.5 22t27 40.5t19.5 65.5t6.5 94.5v622h76v-1039h316v836h77v-911h-393q-1 -50 -5.5 -89t-19.5 -83t-40.5 -72.5t-71.5 -48t-108 -19.5v77zM94 279v860h76v-860q0 -105 43.5 -153.5t98.5 -48.5v-77q-102 0 -160 80.5t-58 198.5z " />
<glyph unicode="&#xbf7;" horiz-adv-x="1963" d="M1436 586v57q58 0 101 -24t66 -65t33.5 -84.5t11.5 -92.5v-318h126v-57h-252v57q1 0 13.5 1.5t24 3.5t21.5 6.5t10 11.5v295q-1 33 -7.5 64.5t-21.5 66.5t-47.5 56.5t-78.5 21.5zM77 329v46v17v-2v188q0 156 52 283.5t152 204.5t230 77v-77q-108 0 -190.5 -67.5 t-124 -174t-43.5 -233.5q42 45 98.5 70.5t115.5 25.5v-76q-31 0 -64.5 -11.5t-69.5 -38.5t-59 -82.5t-23 -132.5q0 -121 68 -195t148 -74v-77q-81 0 -149 49t-104.5 124t-36.5 156zM473 0v77q70 0 125 72.5t55 200.5q0 130 -55 195.5t-125 65.5v76q107 0 183.5 -88.5 t76.5 -223.5v-44q1 -139 -76.5 -235t-183.5 -96zM1346 0v57q33 0 65 30t32 104q0 70 -33 102t-64 32v58q64 0 109.5 -54t45.5 -118v-35q0 -65 -42.5 -120.5t-112.5 -55.5zM1133 239v48h-126v-287h-77v1062h-314v77h584v-77h-193v-717h126q2 55 15 103.5t39.5 94.5t76 73 t116.5 27v-57q-28 0 -56.5 -10t-59.5 -34t-51 -73.5t-21 -118.5q47 33 94 33v-58q-29 0 -62 -31t-33 -103q0 -71 32 -102.5t63 -31.5v-57q-63 0 -108 54t-45 107v73v5zM1832 2v630h55v-630h-55z" />
<glyph unicode="&#xbf8;" horiz-adv-x="2746" d="M362 180v76q59 0 111 -39t80.5 -95.5t28.5 -110.5v-40q0 -101 -61.5 -177.5t-158.5 -76.5v76q10 0 24 3t36 15t39.5 31.5t30.5 58t13 88.5q0 54 -17.5 94.5t-43 60t-46.5 28t-36 8.5zM974 0v77q70 0 125 72.5t55 200.5q0 130 -55 195.5t-125 65.5v76q107 0 184 -88.5 t77 -223.5v-44q1 -138 -77 -234.5t-184 -96.5zM578 329v46v17v-2v188v33q-219 0 -322 -94t-103 -247v-82q65 68 148 68v-76q-9 0 -24.5 -4t-37.5 -17t-40.5 -33t-32 -56t-13.5 -81q0 -55 19 -96.5t45.5 -61t48.5 -29t35 -9.5v-76q-87 0 -155.5 77.5t-68.5 180.5v297 q0 93 30 166.5t79 119.5t116 75.5t135 41.5t143 12h4q17 136 71.5 241t145 167.5t204.5 62.5v-77q-137 0 -228 -111.5t-115 -282.5h207v-76q-31 0 -64.5 -11.5t-69.5 -38.5t-59 -82.5t-23 -132.5q0 -121 68 -195t148 -74v-77q-81 0 -149 49t-105 124t-37 156zM1102 1081v77 q89 0 161.5 -29.5t118.5 -77.5t77.5 -112t44.5 -128.5t14 -131.5v-602h519v-77h-737v77q99 0 119 9t20 59v533q-2 179 -88.5 291t-248.5 112zM1767 639v190q0 95 19.5 162t57.5 103.5t85 52t109 15.5v-77h-24t-25.5 -2t-29.5 -6t-28 -12.5t-28 -20.5t-23 -31t-20 -44 t-12 -59.5t-5 -76.5v-226q0 -63 14.5 -108.5t33.5 -68.5t49 -35.5t50 -15t48 -2.5v-75q-63 0 -109 14.5t-84.5 50.5t-58 104t-19.5 168zM2592 0h-184v-341h-77v343h-191v76h191v81h77v-81h184v224h-184v-67h-77v67h-191v77h191v411q0 57 -7 103t-17.5 76.5t-27 52.5t-32 34 t-36 19t-36 8.5t-35.5 1.5v77q268 0 268 -372v-411h260v-379h-76zM655 591q3 3 9.5 10t9.5 10h-19v-20z" />
<glyph unicode="&#xbf9;" horiz-adv-x="1946" d="M1901 1359q-130 0 -180 49.5t-50 164.5v226q0 301 -295 301q-68 0 -120 -20.5t-82 -51.5t-49 -73.5t-25.5 -81.5t-6.5 -81h-77q0 81 21 149.5t63.5 121.5t113 83t162.5 30q101 0 175 -30t115.5 -83.5t61 -119t19.5 -144.5v-231q0 -83 29 -106t125 -26v-77zM1524 1481 q0 -109 -71.5 -175t-177.5 -66q-94 0 -166 63t-72 178h77q0 -23 7 -47.5t23.5 -52.5t52 -46t85.5 -18q51 0 87 21t51 51.5t21 52.5t6 38q0 25 -4 47t-18.5 48.5t-39 45t-68 31.5t-102.5 13h-478v77h486q135 0 218 -67t83 -194zM77 57v965q0 71 16 120.5t42 78.5t70 45t88 21 t109 5h130q-32 41 -53 93.5t-23.5 110.5t17 108t75 87.5t141.5 48.5v-75q-78 -23 -114.5 -67.5t-32 -97.5t29 -105.5t65.5 -102.5h23l2 -77h-264q-55 0 -88 -3t-67 -14t-51 -32t-28 -57t-11 -89v-964q3 -157 84.5 -237.5t225.5 -80.5h360v-77h-375q-164 0 -267.5 102 t-103.5 294zM926 -262h301q104 0 183 71t79 162v454q0 52 -21 92.5t-50 62t-64.5 35t-59 17t-40.5 3.5v77q41 -4 78 -12.5t81.5 -29t76.5 -51t54 -81t22 -115.5v-452q0 -51 -22.5 -104t-64.5 -100t-112.5 -76.5t-156.5 -29.5h-284v77zM1070 0v1041h-144v98h439v-98h-213 l-4 -1039zM530 2v1137h4h291v-98h-207v-1041z" />
<glyph unicode="&#xbfa;" horiz-adv-x="1868" d="M1443 1342q0 -109 -71.5 -175t-177.5 -66q-44 0 -85 15t-75.5 43.5t-55.5 76t-21 106.5h77q0 -23 7 -47.5t23.5 -53t52 -46.5t85.5 -18q51 0 87 21t51 51.5t21 52.5t6 38q0 25 -4 47t-18.5 48.5t-39 45t-68 31.5t-102.5 13h-478v77h486q135 0 217.5 -66.5t82.5 -193.5z M1820 1219q-130 0 -179.5 50t-49.5 165v225q0 301 -295 301q-68 0 -120 -20.5t-82 -51.5t-49 -73.5t-25.5 -81.5t-6.5 -81h-77q0 81 21 149.5t63.5 122t113 83.5t162.5 30q101 0 175 -30t115.5 -84t61 -119.5t19.5 -144.5v-231q0 -83 28.5 -106t124.5 -26v-77zM718 641v77 q49 0 87 -6.5t79 -27t67.5 -55t44 -94.5t17.5 -141v-346q0 -44 -6 -85t-27.5 -91.5t-56 -86.5t-97.5 -61t-147 -25h-520q-42 0 -60.5 -43t-18.5 -148h-76q0 75 11.5 127.5t26.5 79.5t43.5 41.5t49.5 17t56 2.5h487q121 0 188.5 62.5t67.5 209.5l2 346q1 68 -12 115.5 t-31.5 72.5t-51 39t-58 17t-65.5 3zM71 0v1139h243v-77h-167v-1062h-76zM536 0l2 1062h-104v77h29q-35 39 -59 92.5t-28 113t14 112t74 92.5t145 51v-75q-67 -20 -103.5 -55.5t-42.5 -76.5t7 -87.5t38.5 -88t59.5 -78.5h320v-77h-276l2 -1062h-78z" />
<glyph unicode="&#xd82;" horiz-adv-x="859" d="M477 86h40q57 0 103 16.5t75.5 40.5t50.5 61.5t31.5 70t16.5 75.5t7 67.5t1 57.5v120q0 33 -1 57.5t-7 67.5t-16.5 75.5t-31.5 70t-50.5 61.5t-75.5 40.5t-103 16.5h-40v-77q75 0 125.5 -21.5t76.5 -65.5t36 -96.5t10 -128.5v-120q0 -76 -9.5 -128t-35 -96.5t-76 -66 t-127.5 -21.5v-77zM341 86h40v77q-61 0 -105.5 15t-71.5 40.5t-43 66.5t-21.5 85.5t-5.5 104.5v120q0 60 6 104.5t22 85t43.5 66.5t71.5 41t104 15v77h-40q-57 0 -103 -16.5t-75 -40.5t-50.5 -61.5t-31.5 -70t-16 -75.5t-7 -67.5t-1 -57.5v-120q0 -33 1 -57.5t7 -67.5 t16 -75.5t31.5 -70t50.5 -61.5t75 -40.5t103 -16.5z" />
<glyph unicode="&#xd83;" horiz-adv-x="734" d="M415 -13h27q110 0 172 76.5t62 181.5q0 104 -62 181t-172 77h-27v-76q82 0 128.5 -54.5t46.5 -127.5q0 -74 -46.5 -128t-128.5 -54v-76zM293 -13h27v76q-82 0 -128.5 54t-46.5 128q0 73 46.5 127.5t128.5 54.5v76h-27q-110 0 -172 -77t-62 -181q0 -105 62 -181.5 t172 -76.5zM415 570h27q110 0 172 77t62 182q0 104 -62 181t-172 77h-27v-76q82 0 128.5 -54.5t46.5 -127.5q0 -74 -46.5 -128t-128.5 -54v-77zM293 570h27v77q-82 0 -128.5 54t-46.5 128q0 73 46.5 127.5t128.5 54.5v76h-27q-110 0 -172 -77t-62 -181q0 -105 62 -182 t172 -77z" />
<glyph unicode="&#xd85;" horiz-adv-x="1035" d="M750 -323v1016h-279q-161 0 -247 -86t-86 -226q0 -136 91 -220t263 -84h153v-77h-153q-89 0 -165.5 22.5t-138 67.5t-96.5 120t-35 171q0 189 118.5 288.5t314.5 99.5h260q0 124 -83.5 192.5t-201.5 68.5q-91 0 -163.5 -48t-96.5 -134l-75 25q29 111 121.5 173t209.5 62 q97 0 180.5 -40t131.5 -117q26 66 77.5 109t112.5 56l15 -73q-76 -17 -113.5 -81t-37.5 -133v-751h119v-78h-119v-323h-77z" />
<glyph unicode="&#xd86;" horiz-adv-x="1519" d="M1080 0v75h38q27 0 46.5 1.5t49.5 7.5t51.5 17.5t45 33.5t38.5 52.5t25 77.5t10 106v320q0 81 -19 139t-45 87.5t-66.5 46t-68.5 19.5t-67 3h-38v74h38q182 0 263 -91.5t81 -277.5v-320q0 -187 -81 -279t-263 -92h-38zM750 -323v1016h-279q-161 0 -247 -86t-86 -226 q0 -136 91 -220t263 -84h153v-77h-153q-89 0 -165.5 22.5t-138 67.5t-96.5 120t-35 171q0 189 118.5 288.5t314.5 99.5h260q0 124 -83.5 192.5t-201.5 68.5q-91 0 -163.5 -48t-96.5 -134l-75 25q29 111 121.5 173t209.5 62q97 0 180.5 -40t131.5 -117q26 66 77.5 109 t112.5 56l15 -73q-76 -17 -113.5 -81t-37.5 -133v-751h119v-78h-119v-323h-77z" />
<glyph unicode="&#xd87;" horiz-adv-x="1512" d="M1395 0q-146 0 -231.5 87t-85.5 263v241q0 75 8 120t39 95t77 94.5t138 121.5h-262v77h377v-77q-75 -62 -124 -104.5t-84 -81.5t-52.5 -63.5t-27.5 -57.5t-11.5 -56.5t-1.5 -67.5v-241q0 -39 2 -66t15 -69.5t36.5 -69.5t71 -47.5t114.5 -20.5h62v-77h-60zM750 -323v1016 h-279q-161 0 -247 -86t-86 -226q0 -136 91 -220t263 -84h153v-77h-153q-89 0 -165.5 22.5t-138 67.5t-96.5 120t-35 171q0 189 118.5 288.5t314.5 99.5h260q0 124 -83.5 192.5t-201.5 68.5q-91 0 -163.5 -48t-96.5 -134l-75 25q29 111 121.5 173t209.5 62q97 0 180.5 -40 t131.5 -117q26 66 77.5 109t112.5 56l15 -73q-76 -17 -113.5 -81t-37.5 -133v-751h119v-78h-119v-323h-77z" />
<glyph unicode="&#xd88;" horiz-adv-x="1513" d="M1080 394q0 50 7.5 84t33 74t74.5 82.5t131 98.5h-246v77l256 212h-256v77h377v-77l-259 -212h259v-77q-74 -51 -125.5 -90.5t-84.5 -71t-52 -53t-27.5 -45t-10 -38t-1.5 -41.5v-88q0 -26 1 -43t5.5 -43.5t13.5 -44t26.5 -37.5t42.5 -32.5t63 -20.5t87 -8h62v-77h-60 q-74 0 -128.5 14t-99 47.5t-67 94.5t-22.5 150v88zM750 -323v1016h-279q-161 0 -247 -86t-86 -226q0 -136 91 -220t263 -84h153v-77h-153q-89 0 -165.5 22.5t-138 67.5t-96.5 120t-35 171q0 189 118.5 288.5t314.5 99.5h260q0 124 -83.5 192.5t-201.5 68.5q-91 0 -163.5 -48 t-96.5 -134l-75 25q29 111 121.5 173t209.5 62q97 0 180.5 -40t131.5 -117q26 66 77.5 109t112.5 56l15 -73q-76 -17 -113.5 -81t-37.5 -133v-751h119v-78h-119v-323h-77z" />
<glyph unicode="&#xd89;" horiz-adv-x="1062" d="M367 0v77h117q52 0 109 12.5t117.5 44t108 77.5t78.5 120t31 165v231q0 65 -25.5 117.5t-63.5 83t-86 50.5t-88 27.5t-75 7.5v76h30q101 0 188 -43.5t142 -127.5t55 -191v-231q0 -221 -142.5 -358.5t-378.5 -137.5h-117zM136 -145l75 19q22 -92 90.5 -140t154.5 -48 q101 0 176.5 62t75.5 166h77q0 -97 -47.5 -168t-119 -103.5t-155.5 -32.5q-116 0 -209.5 64.5t-117.5 180.5zM57 559v182q0 97 58 178t148.5 125.5t190.5 44.5h30v-76h-30q-26 0 -63.5 -9t-82 -30.5t-82 -51.5t-63 -77t-25.5 -102v-184q0 -68 53.5 -106t126.5 -38t126.5 38 t53.5 106v140h76v-140q0 -106 -76.5 -166t-181.5 -60q-104 0 -181.5 60t-77.5 166z" />
<glyph unicode="&#xd8a;" horiz-adv-x="1006" d="M670 1277q0 58 41 98.5t99 40.5t98.5 -40.5t40.5 -98.5q0 -57 -40.5 -97.5t-98.5 -40.5t-99 41t-41 97zM96 1472q0 58 40.5 99t98.5 41t99 -41t41 -99q0 -56 -41 -97t-99 -41q-57 0 -98 41t-41 97zM57 450v367q0 40 1.5 66t11 73t27 84.5t53 84.5t85.5 88l374 305l97 -25 l-425 -347q-35 -28 -60.5 -55.5t-41.5 -56.5t-25.5 -53t-13.5 -58t-5 -56.5t-1 -62.5v-354q0 -196 82.5 -290.5t231.5 -94.5v-76q-61 0 -115.5 14t-106 47.5t-88.5 85t-59 132t-22 182.5zM268 1003l78 77h238q183 0 263.5 -101t80.5 -288v-241q0 -108 -18.5 -188.5 t-50.5 -132t-80 -83t-102 -44t-122 -12.5v77q156 0 226.5 94.5t70.5 288.5v239q0 92 -22 156.5t-62 97.5t-85 46.5t-101 13.5h-314z" />
<glyph unicode="&#xd8b;" horiz-adv-x="1041" d="M620 -245v-77q61 0 116.5 8.5t114 31.5t104 59t82 95t52.5 136l-75 21q-15 -72 -52.5 -125.5t-79 -81t-95.5 -43.5t-91 -20t-76 -4zM245 888l73 -27q21 69 105.5 114t185.5 45q72 0 132.5 -24.5t106 -85t54.5 -150.5h-389q-456 0 -456 -505v-92q0 -115 43 -210.5 t111 -154t146.5 -90t155.5 -31.5v76q-20 0 -57.5 8.5t-95 36.5t-106.5 70.5t-84.5 120t-35.5 174.5v92q0 82 13.5 147.5t35 109.5t53.5 76.5t64 50t72.5 28t71.5 13.5t69 3h469v73q-5 87 -38.5 154.5t-87 107.5t-117.5 60.5t-134 20.5q-124 0 -226.5 -57.5t-133.5 -153.5z " />
<glyph unicode="&#xd8c;" horiz-adv-x="1785" d="M1405 -15q132 0 227.5 79t95.5 221v605q0 91 -54 142t-127 51q-75 0 -128.5 -50.5t-53.5 -142.5v-100q0 -52 -31 -80.5t-75 -28.5q-42 0 -73.5 28.5t-31.5 80.5v290h-76v-288q0 -92 53 -142.5t128 -50.5q73 0 127.5 51t54.5 142v100q0 52 31.5 80.5t74.5 28.5 q44 0 74.5 -28.5t30.5 -80.5v-609q0 -102 -72.5 -157t-172.5 -55q-102 0 -177.5 56.5t-75.5 155.5v104h-76v-102q0 -95 48.5 -165t121.5 -102.5t157 -32.5zM620 -245v-77q61 0 116.5 8.5t114 31.5t104 59t82 95t52.5 136l-75 21q-15 -72 -52.5 -125.5t-79 -81t-95.5 -43.5 t-91 -20t-76 -4zM245 888l73 -27q21 69 105.5 114t185.5 45q72 0 132.5 -24.5t106 -85t54.5 -150.5h-389q-456 0 -456 -505v-92q0 -115 43 -210.5t111 -154t146.5 -90t155.5 -31.5v76q-20 0 -57.5 8.5t-95 36.5t-106.5 70.5t-84.5 120t-35.5 174.5v92q0 82 13.5 147.5 t35 109.5t53.5 76.5t64 50t72.5 28t71.5 13.5t69 3h469v73q-5 87 -38.5 154.5t-87 107.5t-117.5 60.5t-134 20.5q-124 0 -226.5 -57.5t-133.5 -153.5z" />
<glyph unicode="&#xd8d;" horiz-adv-x="1847" d="M57 268v99h77v-97q0 -93 59.5 -143t154.5 -50q96 0 156.5 50t60.5 143v97h76v-97q0 -93 60.5 -143t155.5 -50t155 50t60 143v97h76v-99q0 -119 -84 -193.5t-207 -74.5q-82 0 -149 34t-105 94q-37 -60 -105 -94t-150 -34q-123 0 -207 74.5t-84 193.5zM69 913q24 60 70 98 t99.5 53.5t117.5 15.5q67 0 137 -29.5t110 -97.5q40 68 110 97.5t137 29.5q64 0 117.5 -15.5t99.5 -53.5t70 -98l-75 -25q-42 115 -212 115q-104 0 -156.5 -61.5t-52.5 -147.5v-25h285q61 0 104.5 -14.5t65.5 -34.5t34.5 -52.5t15 -57t2.5 -59.5v-90h-76v90q0 46 -12 76 t-35 43.5t-45 18t-52 4.5h-650q-30 0 -52 -4.5t-45 -18t-35 -43.5t-12 -76v-90h-77v90q0 35 2.5 59.5t15 57t34.5 52.5t65.5 34.5t104.5 14.5h286v25q0 86 -52.5 147.5t-156.5 61.5q-170 0 -212 -115zM1525 0q-108 0 -185 77t-77 185t77 185t185 77h79v-76h-79 q-76 0 -130.5 -55t-54.5 -131t54.5 -130.5t130.5 -54.5t131 54.5t55 130.5v502q0 112 -43.5 175.5t-119.5 63.5h-172v77h169q124 0 183.5 -84t59.5 -232v-502q0 -108 -77.5 -185t-185.5 -77z" />
<glyph unicode="&#xd8e;" horiz-adv-x="2488" d="M2165 0q-108 0 -185 77t-77 185t77 185t185 77h78v-76h-78q-76 0 -131 -55t-55 -131t55 -130.5t131 -54.5t130.5 54.5t54.5 130.5v502q0 113 -43.5 176t-118.5 63h-173v77h169q124 0 183.5 -84t59.5 -232v-502q0 -108 -77 -185t-185 -77zM57 268v99h77v-97 q0 -93 59.5 -143t154.5 -50q96 0 156.5 50t60.5 143v97h76v-97q0 -93 60.5 -143t155.5 -50t155 50t60 143v97h76v-99q0 -119 -84 -193.5t-207 -74.5q-82 0 -149 34t-105 94q-37 -60 -105 -94t-150 -34q-123 0 -207 74.5t-84 193.5zM69 913q24 60 70 98t99.5 53.5t117.5 15.5 q67 0 137 -29.5t110 -97.5q40 68 110 97.5t137 29.5q64 0 117.5 -15.5t99.5 -53.5t70 -98l-75 -25q-42 115 -212 115q-104 0 -156.5 -61.5t-52.5 -147.5v-25h285q61 0 104.5 -14.5t65.5 -34.5t34.5 -52.5t15 -57t2.5 -59.5v-90h-76v90q0 46 -12 76t-35 43.5t-45 18t-52 4.5 h-650q-30 0 -52 -4.5t-45 -18t-35 -43.5t-12 -76v-90h-77v90q0 35 2.5 59.5t15 57t34.5 52.5t65.5 34.5t104.5 14.5h286v25q0 86 -52.5 147.5t-156.5 61.5q-170 0 -212 -115zM1525 0q-108 0 -185 77t-77 185t77 185t185 77h79v-76h-79q-76 0 -130.5 -55t-54.5 -131 t54.5 -130.5t130.5 -54.5t131 54.5t55 130.5v502q0 112 -43.5 175.5t-119.5 63.5h-172v77h169q124 0 183.5 -84t59.5 -232v-502q0 -108 -77.5 -185t-185.5 -77z" />
<glyph unicode="&#xd8f;" horiz-adv-x="1691" d="M57 387h77q0 -76 15 -148q43 37 98 37q35 0 73 -20q-10 57 -10 113h77q0 -75 17.5 -129t49 -87.5t83 -53t110.5 -27t140 -7.5h118q102 0 171 12.5t123.5 45t80 93.5t25.5 153h77q0 -56 -10 -113q38 20 73 20q55 0 98 -37q15 72 15 148h77q0 -204 -62 -320 q-18 -35 -52 -56.5t-76 -21.5q-55 0 -94.5 33t-47.5 85q-105 -118 -398 -118h-118q-293 0 -398 118q-8 -52 -47.5 -85t-94.5 -33q-43 0 -78 22t-52 60q-60 117 -60 316zM310 463q0 166 82 236t232 70h184v25q0 86 -52.5 147.5t-156.5 61.5q-170 0 -212 -115l-46 15 q-32 10 -62 10q-61 0 -103 -45.5t-42 -153.5v-234h-77v230q0 133 59 207t160 74q39 0 76 -11q78 100 247 100q67 0 137 -29.5t110 -97.5q40 68 110 97.5t137 29.5q169 0 247 -100q37 11 76 11q101 0 160 -74t59 -207v-230h-77v234q0 108 -42 153.5t-103 45.5q-30 0 -62 -10 l-46 -15q-42 115 -212 115q-104 0 -156.5 -61.5t-52.5 -147.5v-25h171q166 0 246.5 -67t80.5 -239h-77q0 60 -9.5 99.5t-35.5 71t-75.5 45.5t-126.5 14h-432q-61 0 -105 -12.5t-69.5 -32t-40.5 -50.5t-19.5 -62t-4.5 -73h-77z" />
<glyph unicode="&#xd90;" horiz-adv-x="2455" d="M2073 -15q-84 0 -157 32.5t-121.5 102.5t-48.5 165v102h76v-104q0 -99 75.5 -155.5t177.5 -56.5q100 0 172.5 55t72.5 157v609q0 52 -30.5 80.5t-74.5 28.5q-43 0 -74.5 -28.5t-31.5 -80.5v-100q0 -91 -54.5 -142t-127.5 -51q-75 0 -128 50.5t-53 142.5v288h76v-290 q0 -52 31.5 -80.5t73.5 -28.5q44 0 75 28.5t31 80.5v100q0 92 53.5 142.5t128.5 50.5q73 0 127 -51t54 -142v-605q0 -142 -95.5 -221t-227.5 -79zM57 387h77q0 -76 15 -148q43 37 98 37q35 0 73 -20q-10 57 -10 113h77q0 -75 17.5 -129t49 -87.5t83 -53t110.5 -27t140 -7.5 h118q102 0 171 12.5t123.5 45t80 93.5t25.5 153h77q0 -56 -10 -113q38 20 73 20q55 0 98 -37q15 72 15 148h77q0 -204 -62 -320q-18 -35 -52 -56.5t-76 -21.5q-55 0 -94.5 33t-47.5 85q-105 -118 -398 -118h-118q-293 0 -398 118q-8 -52 -47.5 -85t-94.5 -33q-43 0 -78 22 t-52 60q-60 117 -60 316zM310 463q0 166 82 236t232 70h184v25q0 86 -52.5 147.5t-156.5 61.5q-170 0 -212 -115l-46 15q-32 10 -62 10q-61 0 -103 -45.5t-42 -153.5v-234h-77v230q0 133 59 207t160 74q39 0 76 -11q78 100 247 100q67 0 137 -29.5t110 -97.5q40 68 110 97.5 t137 29.5q169 0 247 -100q37 11 76 11q101 0 160 -74t59 -207v-230h-77v234q0 108 -42 153.5t-103 45.5q-30 0 -62 -10l-46 -15q-42 115 -212 115q-104 0 -156.5 -61.5t-52.5 -147.5v-25h171q166 0 246.5 -67t80.5 -239h-77q0 60 -9.5 99.5t-35.5 71t-75.5 45.5t-126.5 14 h-432q-61 0 -105 -12.5t-69.5 -32t-40.5 -50.5t-19.5 -62t-4.5 -73h-77z" />
<glyph unicode="&#xd91;" horiz-adv-x="1127" d="M147 764q19 73 85 113t149 40q103 0 178 -60q82 -66 82 -179v-87h-241q-81 0 -130.5 -66.5t-49.5 -158.5q0 -54 18.5 -104t55.5 -92t99 -67.5t141 -25.5v-77q-99 0 -176.5 32t-124 85.5t-70 117t-23.5 131.5q0 137 80 225h-163v77h508q0 80 -55.5 125t-130.5 45 q-51 0 -94.5 -24t-62.5 -69zM884 888q-160 0 -242.5 92.5t-82.5 238.5v226h76q78 0 141.5 -13.5t119 -46t93.5 -84t59.5 -130t21.5 -181.5v-529q0 -230 -103.5 -345.5t-327.5 -115.5v77q170 0 260.5 91t90.5 293v492q0 214 -81.5 315t-273.5 101v-150q0 -69 21.5 -120 t58 -79t79 -41.5t90.5 -13.5v-77z" />
<glyph unicode="&#xd92;" horiz-adv-x="1127" d="M57 591v77h508q0 80 -55.5 125t-130.5 45q-51 0 -94.5 -24t-62.5 -69l-75 19q19 73 85 113t149 40q103 0 178 -60q82 -66 82 -179v-87h-241q-81 0 -130.5 -66.5t-49.5 -158.5q0 -54 18.5 -104t55.5 -92t99 -67.5t141 -25.5v-77q-99 0 -176.5 32t-124 85.5t-70 117 t-23.5 131.5q0 137 80 225h-163zM559 1219v226h76q251 0 355 -145v268h80v-577v-1v-529q0 -230 -103.5 -345.5t-327.5 -115.5v77q170 0 260.5 91t90.5 293v492q0 214 -81.5 315t-273.5 101v-150q0 -69 21.5 -120t58 -79t79 -41.5t90.5 -13.5v-77q-160 0 -242.5 92.5 t-82.5 238.5z" />
<glyph unicode="&#xd93;" horiz-adv-x="1982" d="M1003 764q19 73 84.5 113t148.5 40q103 0 178 -60q83 -66 83 -179v-87h-241q-81 0 -130.5 -66.5t-49.5 -158.5q0 -54 18.5 -104t55.5 -92t99 -67.5t141 -25.5v-77q-99 0 -177 32t-124 85.5t-70 117t-24 131.5q0 136 81 225h-163v77h507q0 80 -55 125t-130 45 q-51 0 -94.5 -24t-62.5 -69zM1740 888q-161 0 -243.5 92.5t-82.5 238.5v226h77q78 0 141.5 -13.5t119 -46t93.5 -84t59.5 -130t21.5 -181.5v-529q0 -230 -103.5 -345.5t-327.5 -115.5v77q170 0 260 91t90 293v492q0 214 -81 315t-273 101v-150q0 -69 21.5 -120t58 -79 t79 -41.5t90.5 -13.5v-77zM477 1003h-77q-75 0 -129 -24t-83 -66.5t-41.5 -92t-12.5 -110.5v-331q0 -153 59.5 -232.5t206.5 -79.5v-77h-40q-57 0 -104 16t-78 41.5t-54 61t-35.5 70t-20 75t-9.5 68.5t-2 57v331q0 49 8.5 96t32 98t60 89t98.5 62.5t142 24.5h119 q66 0 122 -24.5t91 -63.5t56 -82t26 -85l-79 -19q-28 197 -256 197zM446 601v77h166q96 0 150.5 -42t54.5 -148v-187q0 -65 -16.5 -119.5t-49.5 -98t-89 -68.5t-130 -25h-40v77q249 0 249 228v189q0 39 -12 64.5t-34 36t-40 13.5t-43 3h-166z" />
<glyph unicode="&#xd94;" horiz-adv-x="1110" d="M327 0q-120 0 -195 70t-75 185v446q0 102 64 160t151 58q81 0 140 -55.5t59 -155.5v-105q0 -35 23.5 -55t54.5 -20q33 0 57 20t24 55v295h76v-305q0 -72 -47 -112.5t-110 -40.5q-62 0 -108.5 40.5t-46.5 112.5v115q0 62 -37.5 97t-88.5 35q-53 0 -91.5 -36.5 t-38.5 -102.5v-435q0 -28 9.5 -58.5t30 -61t59.5 -50t90 -19.5t89.5 19.5t59 50t30 61t9.5 58.5v101h80v-101q0 -28 9.5 -58.5t30 -61t59 -50t89.5 -19.5t90 19.5t59.5 50t30 61t9.5 58.5v718q0 211 -93 298t-278 87v76q238 0 345 -111.5t107 -349.5v-729q0 -115 -75 -185 t-195 -70q-75 0 -134 29t-94 82q-35 -53 -94 -82t-134 -29zM142 1058l-75 20q0 108 65.5 194t161.5 129.5t198 43.5v-76q-90 0 -169.5 -37.5t-130 -110t-50.5 -163.5z" />
<glyph unicode="&#xd95;" horiz-adv-x="1110" d="M327 0q-120 0 -195 70t-75 185v446q0 102 64 160t149 58q82 0 141.5 -55.5t59.5 -155.5v-105q0 -35 23.5 -55t54.5 -20q33 0 57 20t24 55v295h76v-305q0 -72 -47 -112.5t-110 -40.5q-62 0 -108.5 40.5t-46.5 112.5v115q0 62 -37.5 97t-88.5 35q-53 0 -91.5 -36.5 t-38.5 -102.5v-435q0 -28 9.5 -58.5t30 -61t59.5 -50t90 -19.5t89.5 19.5t59 50t30 61t9.5 58.5v101h80v-101q0 -28 9.5 -58.5t30 -61t59 -50t89.5 -19.5t90 19.5t59.5 50t30 61t9.5 58.5v624q0 86 -16 140t-54.5 85.5t-93.5 43.5t-142 12h-553v77h67q-52 49 -52 126 q0 78 64 136t160 58h165v-77h-172q-65 0 -100.5 -36t-35.5 -85q0 -50 35.5 -86t100.5 -36h321q113 0 189 -21.5t119.5 -66.5t61 -105.5t17.5 -147.5v-652q0 -115 -75 -185t-195 -70q-75 0 -134 29t-94 82q-35 -53 -94 -82t-134 -29zM968 1288q0 42 -6.5 74.5t-16 54t-28 36 t-33.5 22t-42 11.5t-44.5 4.5t-49.5 0.5h-124v77h124q82 0 139.5 -17.5t87.5 -42t46.5 -66t20 -73.5t3.5 -81h-77z" />
<glyph unicode="&#xd96;" horiz-adv-x="1906" d="M1525 -15q-84 0 -157 32.5t-121.5 102.5t-48.5 165v102h77v-104q0 -99 75 -155.5t177 -56.5q100 0 172.5 55t72.5 157v609q0 52 -30.5 80.5t-74.5 28.5q-42 0 -73.5 -28.5t-31.5 -80.5v-100q0 -91 -54.5 -142t-127.5 -51q-75 0 -128.5 50.5t-53.5 142.5v288h77v-290 q0 -52 31.5 -80.5t73.5 -28.5q44 0 74.5 28.5t30.5 80.5v100q0 92 53.5 142.5t128.5 50.5q73 0 127.5 -51t54.5 -142v-605q0 -142 -96 -221t-228 -79zM327 0q-120 0 -195 70t-75 185v446q0 102 64 160t151 58q81 0 140 -55.5t59 -155.5v-105q0 -35 23.5 -55t54.5 -20 q33 0 57 20t24 55v295h76v-305q0 -72 -47 -112.5t-110 -40.5q-62 0 -108.5 40.5t-46.5 112.5v115q0 62 -37.5 97t-88.5 35q-53 0 -91.5 -36.5t-38.5 -102.5v-435q0 -28 9.5 -58.5t30 -61t59.5 -50t90 -19.5t89.5 19.5t59 50t30 61t9.5 58.5v101h80v-101q0 -28 9.5 -58.5 t30 -61t59 -50t89.5 -19.5t90 19.5t59.5 50t30 61t9.5 58.5v718q0 211 -93 298t-278 87v76q238 0 345 -111.5t107 -349.5v-729q0 -115 -75 -185t-195 -70q-75 0 -134 29t-94 82q-35 -53 -94 -82t-134 -29zM142 1058l-75 20q0 108 65.5 194t161.5 129.5t198 43.5v-76 q-90 0 -169.5 -37.5t-130 -110t-50.5 -163.5z" />
<glyph unicode="&#xd9a;" horiz-adv-x="1454" d="M63 865q42 110 118.5 163t166.5 53q82 0 152.5 -40.5t100.5 -104.5l11 10q78 61 172 93.5t188 32.5q86 0 160.5 -28.5t134.5 -84t95 -147.5t35 -211v-234q0 -95 -15.5 -160t-53 -114t-104 -72t-164.5 -23v77q30 0 52 1.5t51 8t50 18.5t42.5 33.5t35 52t22 76t8.5 102.5 v234q0 97 -30.5 174.5t-82 125t-116.5 72t-137 24.5q-162 0 -287 -105l-524 -452q59 -39 59 -122v-100q0 -67 45.5 -106t105.5 -39q57 0 96.5 37t39.5 108v149h77v-149q0 -71 44 -108t107 -37q66 0 117 39t51 106v241q0 65 -13.5 108t-46.5 71t-79 43t-121 27l73 63 q61 -10 103.5 -26.5t81.5 -49.5t59 -92t20 -144v-241q0 -108 -67.5 -167t-164.5 -59q-115 0 -203 77q-73 -79 -176 -79q-93 0 -160.5 62.5t-67.5 165.5v61q0 102 -40 102q-3 0 -27 -6v96l483 413q-25 51 -78.5 82t-115.5 31q-65 0 -121 -38t-87 -117z" />
<glyph unicode="&#xd9b;" horiz-adv-x="1121" d="M789 -8q-121 0 -198 77v-193h-78v668q0 103 -56 160.5t-132 57.5q-78 0 -133.5 -57.5t-55.5 -160.5v-205q0 -79 17.5 -131t54 -80.5t83 -39.5t113.5 -11v-77q-178 0 -262.5 77.5t-84.5 261.5v205q0 144 79.5 224t188.5 80t187.5 -79.5t78.5 -224.5v-272q0 -91 59 -141.5 t139 -50.5q79 0 137 50.5t58 141.5v712q0 204 -90 294.5t-260 90.5h-22v76h22q224 0 327 -115t103 -346v-712q0 -133 -81.5 -206.5t-193.5 -73.5zM155 1058l-75 20q0 108 65.5 194t161.5 129.5t198 43.5v-76q-90 0 -169.5 -37.5t-130 -110t-50.5 -163.5z" />
<glyph unicode="&#xd9c;" horiz-adv-x="1345" d="M413 -15q-169 0 -262.5 115t-93.5 313v238q0 198 93.5 313.5t262.5 115.5v-77q-136 0 -207.5 -91t-71.5 -261v-238q0 -169 73 -260.5t206 -91.5v-76zM932 -15v76q133 0 206.5 91.5t73.5 260.5v238q0 170 -72 261t-208 91v77q169 0 262.5 -115.5t93.5 -313.5v-238 q0 -198 -93.5 -313t-262.5 -115zM482 519v170q0 177 87 284t256 107v-77q-74 0 -127.5 -26t-82 -72t-41.5 -98.5t-13 -115.5v-96h25q70 0 121.5 -24.5t79 -67t40.5 -89.5t13 -100v-36q0 -143 -86 -218t-233 -75v76q119 0 181 55t62 175q0 43 -5.5 76t-22 71t-54.5 59.5 t-96 21.5h-104z" />
<glyph unicode="&#xd9d;" horiz-adv-x="1295" d="M392 0q-99 0 -172 70.5t-73 195.5v101h77v-101q0 -92 50 -143.5t118 -51.5q89 0 128 48.5t39 150.5q0 63 29.5 91.5t106.5 28.5q74 0 103 -28.5t29 -89.5q0 -104 38 -152.5t128 -48.5q68 0 118.5 52t50.5 143v101h76v-101q0 -125 -73 -195.5t-172 -70.5q-243 0 -243 272 q0 26 -11.5 37t-45.5 11t-46 -11.5t-12 -38.5q0 -270 -243 -270zM161 913q24 60 70 98t99.5 53.5t117.5 15.5q67 0 137 -29.5t110 -97.5q40 68 110 97.5t137 29.5q64 0 117.5 -15.5t99.5 -53.5t70 -98l-75 -25q-42 115 -212 115q-104 0 -156.5 -61.5t-52.5 -147.5v-25h283 q61 0 104.5 -14.5t65.5 -34.5t34.5 -52.5t15 -57t2.5 -59.5v-90h-76v90q0 46 -12 76t-35 43.5t-45 18t-52 4.5h-651q-30 0 -52 -4.5t-44.5 -18t-34.5 -43.5t-12 -76v-90h-77v90q0 114 54 142h-144v76h600v25q0 86 -52.5 147.5t-156.5 61.5q-171 0 -213 -115z" />
<glyph unicode="&#xd9e;" horiz-adv-x="1110" d="M327 0q-120 0 -195 70t-75 185v179q0 118 61 177t190 59h188q52 0 81.5 31.5t29.5 73.5q0 39 -28 68.5t-78 29.5h-168q-42 0 -73 -9t-46 -20.5t-24 -28t-10.5 -25.5t-1.5 -19h-77q0 178 230 178h163q88 0 136.5 -52t48.5 -124q0 -73 -49 -126.5t-136 -53.5h-90 q-88 0 -142.5 -9.5t-81 -32t-34.5 -48t-8 -67.5v-170q0 -28 9.5 -58.5t30 -61t59.5 -50t90 -19.5t89.5 19.5t59 50t30 61t9.5 58.5v101h80v-101q0 -28 9.5 -58.5t30 -61t59 -50t89.5 -19.5t90 19.5t59.5 50t30 61t9.5 58.5v718q0 211 -93 298t-278 87v76q238 0 345 -111.5 t107 -349.5v-729q0 -115 -75 -185t-195 -70q-75 0 -134 29t-94 82q-35 -53 -94 -82t-134 -29zM67 1078q0 108 65.5 194t161.5 129.5t198 43.5v-76q-90 0 -169.5 -37.5t-130 -110t-50.5 -163.5z" />
<glyph unicode="&#xd9f;" horiz-adv-x="1613" d="M681 -15q-169 0 -262.5 115t-93.5 313v238q0 240 132 352h-1q-67 0 -119.5 -17t-85.5 -41t-56.5 -66.5t-35 -75.5t-17.5 -87t-7 -82.5t-1 -79.5v-5v-149q0 -70 2.5 -107t14.5 -86t38 -93.5t71 -98.5l-80 -30q-80 103 -101.5 186t-21.5 229v149q0 73 4.5 129.5t16.5 113.5 t33 99t55 79t81 60.5t112.5 36.5t147.5 13h174v-77q-136 0 -207.5 -91t-71.5 -261v-238q0 -169 73 -260.5t206 -91.5v-76zM1200 -15v76q133 0 206.5 91.5t73.5 260.5v238q0 170 -72 261t-208 91v77q169 0 262.5 -115.5t93.5 -313.5v-238q0 -198 -93.5 -313t-262.5 -115z M750 519v170q0 177 87 284t256 107v-77q-74 0 -127.5 -26t-82 -72t-41.5 -98.5t-13 -115.5v-96h25q70 0 121.5 -24.5t79 -67t40.5 -89.5t13 -100v-36q0 -143 -86 -218t-233 -75v76q119 0 181 55t62 175q0 43 -5.5 76t-22 71t-54.5 59.5t-96 21.5h-104z" />
<glyph unicode="&#xda0;" horiz-adv-x="1129" d="M534 0q-99 0 -176.5 32t-124 85.5t-70 117t-23.5 131.5q0 137 80 225h-163v77h508q0 80 -55.5 125t-130.5 45q-51 0 -94.5 -24t-62.5 -69l-75 19q19 73 85 113t149 40q103 0 178 -60q82 -66 82 -179v-87h-241q-81 0 -130.5 -66.5t-49.5 -158.5q0 -54 18.5 -104t55.5 -92 t99 -67.5t141 -25.5v-77zM641 0v77q170 0 261 91.5t91 292.5v523q0 204 -91 294.5t-261 90.5v76q224 0 327.5 -115.5t103.5 -345.5v-523q0 -230 -103.5 -345.5t-327.5 -115.5zM207 1058l-75 20q0 101 62.5 187.5t154.5 133t185 46.5v-76q-125 0 -226 -92t-101 -219z" />
<glyph unicode="&#xda1;" d="M538 -11q-255 0 -366 87.5t-111 292.5h77q0 -75 17.5 -129t49 -87.5t83 -53t110.5 -27t140 -7.5h119q102 0 171 12.5t123.5 45t80 93.5t25.5 153v136h-209q-91 0 -167.5 53t-108.5 135h-195q-61 0 -105 -12.5t-69.5 -32t-40.5 -50.5t-19.5 -62t-4.5 -73h-77q0 166 82 236 t232 70h178q0 104 -51 169t-157 65q-171 0 -213 -115l-75 25q24 59 70 97.5t100 54t118 15.5q69 0 140.5 -31.5t111.5 -104.5v2l6 7q15 20 19 25l398 525l75 -22l-308 -403q24 5 61 5q88 0 160 -49t106 -127l-69 -23q-26 57 -79 92t-118 35q-89 0 -152.5 -64t-63.5 -153 t63.5 -152.5t152.5 -63.5h207q43 0 60.5 -18t17.5 -53v-138q0 -205 -110.5 -292.5t-365.5 -87.5h-119z" />
<glyph unicode="&#xda2;" d="M59 913q24 60 70 98t99.5 53.5t117.5 15.5q67 0 137 -29.5t110 -97.5q13 22 35 44l383 506l74 -22l-310 -407q34 6 65 6q64 0 117.5 -15.5t99.5 -53.5t70 -98l-74 -25q-42 115 -213 115q-104 0 -156 -61.5t-52 -147.5v-25h170q166 0 246.5 -67t80.5 -239h-76 q0 60 -9.5 99.5t-35.5 71t-75.5 45.5t-126.5 14h-433q-61 0 -105 -12.5t-69.5 -32t-40.5 -50.5t-19.5 -62t-4.5 -73h-77q0 166 82 236t232 70h184v25q0 86 -52.5 147.5t-156.5 61.5q-170 0 -212 -115zM534 -11q-255 0 -366 87.5t-111 292.5h77q0 -75 17.5 -129t49 -87.5 t83 -53t110.5 -27t140 -7.5h119q102 0 171 12.5t123.5 45t80 93.5t25.5 153h76q0 -205 -110.5 -292.5t-365.5 -87.5h-119z" />
<glyph unicode="&#xda3;" horiz-adv-x="2111" d="M57 375v96l483 413q-25 51 -78.5 82t-115.5 31q-65 0 -121 -38t-87 -117l-75 23q42 110 118.5 163t166.5 53q82 0 152.5 -40.5t100.5 -104.5l11 10q100 77 213 117.5t222 40.5q138 0 242.5 -66t151.5 -196h-36q-68 0 -119.5 -22t-78.5 -52t-43.5 -70t-20.5 -68t-4 -54 v-310q0 -28 9.5 -58.5t30 -61t59.5 -50t90 -19.5t89.5 19.5t59 50t30 61t9.5 58.5v101h80v-101q0 -28 9.5 -58.5t30 -61t59 -50t89.5 -19.5t90 19.5t59.5 50t30 61t9.5 58.5v718q0 211 -93 298t-278 87v76q238 0 345 -111.5t107 -349.5v-729q0 -115 -75 -185t-195 -70 q-75 0 -134 29t-94 82q-35 -53 -94 -82t-134 -29q-120 0 -195 70t-75 185v333q0 115 63.5 208t189.5 117q-95 117 -277 117q-93 0 -189 -35t-177 -103l-524 -452q59 -39 59 -122v-100q0 -67 45.5 -106t105.5 -39q57 0 96.5 37t39.5 108v149h77v-149q0 -71 44 -108t107 -37 q66 0 117 39t51 106v241q0 65 -13.5 108t-46.5 71t-79 43t-121 27l73 63q61 -10 103.5 -26.5t81.5 -49.5t59 -92t20 -144v-241q0 -108 -67.5 -167t-164.5 -59q-115 0 -203 77q-73 -79 -176 -79q-93 0 -160.5 62.5t-67.5 165.5v61q0 102 -40 102q-3 0 -27 -6zM1116 1231 q27 71 89 121t135.5 71.5t152.5 21.5v-76q-104 0 -189.5 -42.5t-112.5 -124.5z" />
<glyph unicode="&#xda4;" horiz-adv-x="2132" d="M322 375v96l482 413q-25 51 -78 82t-115 31q-65 0 -121.5 -38t-87.5 -117l-56 17q-26 6 -49 6q-85 0 -124 -68t-39 -179v-249q0 -69 2.5 -106.5t14.5 -86.5t38 -93t71 -98l-80 -31q-80 103 -101.5 186t-21.5 229v249q0 88 19.5 153t54.5 101.5t76 53t90 16.5q31 0 65 -6 q45 74 111 109.5t139 35.5q82 0 152.5 -40.5t100.5 -104.5l12 10q240 187 461 187v-80q-212 0 -406 -161l-524 -452q59 -39 59 -122v-100q0 -67 45.5 -106t105.5 -39q57 0 96.5 37t39.5 108v149h77v-149q0 -71 44 -108t107 -37q66 0 117 39t51 106v241q0 65 -13.5 108 t-46.5 71t-79 43t-121 27l73 63q49 -8 84.5 -19.5t70.5 -33t59 -57t36 -85.5q51 95 152.5 144t236.5 49h260q0 72 -30 125.5t-73.5 83t-104.5 47.5t-109.5 23t-101.5 5v80q44 0 87 -4.5t93.5 -16t94 -29.5t85 -49t71 -70t47.5 -95.5t18 -123.5v-52h-356q-161 0 -247 -86 t-86 -226q0 -136 91 -220t263 -84h75q104 0 185.5 51.5t129.5 154.5l71 -19q-23 -64 -60.5 -112.5t-78 -76.5t-88 -45.5t-85 -23.5t-74.5 -6h-75q-125 0 -225 44t-156 132q-14 -88 -78 -136t-150 -48q-115 0 -203 77q-73 -79 -176 -79q-93 0 -160 62t-67 166v61 q0 102 -41 102q-2 0 -26 -6zM1803 -390q-84 0 -155.5 32.5t-119 103.5t-47.5 168h77q0 -104 76 -166t177 -62q86 0 154.5 48t90.5 140l74 -19q-24 -116 -117.5 -180.5t-209.5 -64.5z" />
<glyph unicode="&#xda5;" horiz-adv-x="2011" d="M1485 0q-128 0 -231 47t-157 141q-24 -100 -105 -151.5t-203 -51.5v76q119 0 181 55t62 175q0 43 -5.5 76t-22 71t-54.5 59.5t-96 21.5h-104v170q0 87 25.5 157t68.5 116t102.5 77t124.5 45t137 15h9v-77h-9q-78 -2 -144.5 -22t-120 -58.5t-84 -103t-30.5 -147.5v-96h25 q145 0 210 -105q32 130 142 192.5t277 62.5h261q0 50 -15.5 91.5t-41 69.5t-62 49t-73 33t-79.5 19.5t-77.5 10t-70.5 2.5v79q495 0 495 -379v-52h-356q-164 0 -248.5 -75t-84.5 -212q0 -136 91 -220t263 -84h75q105 0 186.5 51.5t129.5 154.5l71 -19q-28 -78 -77.5 -134 t-106.5 -82t-106 -37t-97 -11h-75zM57 398v151q0 73 4.5 129.5t16.5 113.5t33 99t55 79t81 60.5t112.5 36.5t147.5 13h174v-77q-136 0 -207.5 -91t-71.5 -261v-238q0 -169 73 -260.5t206 -91.5v-76q-169 0 -262.5 115t-93.5 313v238q0 240 132 352h-1q-67 0 -119.5 -17 t-85.5 -41t-56.5 -66.5t-35 -75.5t-17.5 -87t-7 -82.5t-1 -79.5v-5v-151q0 -70 2.5 -107t14.5 -86t38 -93.5t71 -98.5l-80 -30q-80 103 -101.5 186t-21.5 229zM1684 -390q-84 0 -155.5 32.5t-118.5 103.5t-47 168h76q0 -104 76 -166t177 -62q86 0 154.5 48t90.5 140l75 -19 q-24 -116 -118 -180.5t-210 -64.5z" />
<glyph unicode="&#xda6;" horiz-adv-x="1464" d="M180 -15q-80 103 -101.5 186t-21.5 229v268q0 88 19.5 153t54.5 101t76 52.5t90 16.5q39 0 80 -9q81 98 247 98q67 0 137 -29.5t110 -97.5q14 24 34 44l383 506l75 -22l-310 -407q35 6 65 6q64 0 117.5 -15.5t99.5 -53.5t70 -98l-75 -25q-42 115 -212 115 q-104 0 -156.5 -61.5t-52.5 -147.5v-25h171q166 0 246.5 -67t80.5 -239h-77q0 60 -9.5 99.5t-35.5 71t-75.5 45.5t-126.5 14h-432q-61 0 -105 -12.5t-69.5 -32t-40.5 -50.5t-19.5 -62t-4.5 -73h-77q0 166 82 236t232 70h184v25q0 86 -52.5 147.5t-156.5 61.5 q-170 0 -212 -115l-56 19q-28 8 -59 8q-85 0 -124 -68t-39 -179v-268q0 -70 2.5 -107t14.5 -86t38 -93.5t71 -98.5zM812 -11q-255 0 -366 87.5t-111 292.5h77q0 -75 17.5 -129t49 -87.5t83 -53t110.5 -27t140 -7.5h118q102 0 171 12.5t123.5 45t80 93.5t25.5 153h77 q0 -205 -111 -292.5t-366 -87.5h-118z" />
<glyph unicode="&#xda7;" horiz-adv-x="1054" d="M71 517v-134q0 -65 21 -128.5t64.5 -122.5t122 -95.5t180.5 -36.5v77q-141 0 -225.5 88t-84.5 218v134q0 134 78.5 220t231.5 86v77q-88 0 -157.5 -24.5t-111.5 -63t-70 -90.5t-38.5 -102t-10.5 -103zM567 0q224 0 327 115t103 346v523q0 231 -103 346t-327 115v-76 q170 0 261 -90.5t91 -294.5v-523q0 -201 -91 -292.5t-261 -91.5v-77zM57 1078l75 -20q0 127 101 219t226 92v76q-93 0 -185 -46.5t-154.5 -133t-62.5 -187.5z" />
<glyph unicode="&#xda8;" horiz-adv-x="1135" d="M352 0q-120 0 -195 70t-75 185v333q0 61 19 117.5t58 105.5t109 78.5t161 29.5h74v-77h-74q-68 0 -119.5 -22t-78.5 -52t-43.5 -70t-20.5 -68t-4 -54v-310q0 -28 9.5 -58.5t30 -61t59.5 -50t90 -19.5t89.5 19.5t59 50t30 61t9.5 58.5v101h80v-101q0 -28 9.5 -58.5t30 -61 t59 -50t89.5 -19.5t90 19.5t59.5 50t30 61t9.5 58.5v687q0 214 -81 315t-273 101v-150q0 -69 21.5 -120t58 -79t79 -41.5t90.5 -13.5v-77q-160 0 -242.5 92.5t-82.5 238.5v226h76q78 0 141.5 -13.5t119 -46t93.5 -84t59.5 -130t21.5 -181.5v-735q0 -115 -75 -185t-195 -70 q-75 0 -134 29t-94 82q-35 -53 -94 -82t-134 -29z" />
<glyph unicode="&#xda9;" horiz-adv-x="1194" d="M412 0q-120 0 -195 70t-75 185v195q0 113 53 141h-138v77h546q0 80 -55.5 125t-130.5 45q-51 0 -94.5 -24t-62.5 -69l-74 19q19 73 84.5 113t148.5 40q103 0 178 -60q82 -66 82 -179v-87h-313q-31 0 -52.5 -4.5t-44.5 -17.5t-35 -43t-12 -76v-184q0 -28 10 -58.5 t30.5 -61t59.5 -50t90 -19.5t89.5 19.5t58.5 50t29.5 61t9.5 58.5v101h80v-101q0 -28 9.5 -58.5t30 -61t59 -50t89.5 -19.5t90 19.5t59.5 50t30.5 61t10 58.5v718q0 209 -92.5 297t-271.5 88v76q232 0 338 -113.5t106 -347.5v-729q0 -115 -75 -185t-195 -70q-75 0 -134 29 t-94 82q-72 -111 -227 -111zM161 1078q0 108 65.5 194t161.5 129.5t198 43.5v-76q-90 0 -169.5 -37.5t-130.5 -110t-51 -163.5z" />
<glyph unicode="&#xdaa;" horiz-adv-x="1194" d="M412 0q-120 0 -195 70t-75 185v195q0 113 53 141h-138v77h546q0 80 -55.5 125t-130.5 45q-51 0 -94.5 -24t-62.5 -69l-74 19q19 73 84.5 113t148.5 40q103 0 178 -60q82 -66 82 -179v-87h-313q-31 0 -52.5 -4.5t-44.5 -17.5t-35 -43t-12 -76v-184q0 -28 10 -58.5 t30.5 -61t59.5 -50t90 -19.5t89.5 19.5t58.5 50t29.5 61t9.5 58.5v101h80v-101q0 -28 9.5 -58.5t30 -61t59 -50t89.5 -19.5t90 19.5t59.5 50t30.5 61t10 58.5v687q0 214 -81.5 315t-273.5 101v-150q0 -69 21.5 -120t58 -79t79 -41.5t90.5 -13.5v-77q-160 0 -242.5 92.5 t-82.5 238.5v226h76q78 0 141.5 -13.5t119 -46t93.5 -84t59.5 -130t21.5 -181.5v-735q0 -115 -75 -185t-195 -70q-75 0 -134 29t-94 82q-72 -111 -227 -111z" />
<glyph unicode="&#xdab;" horiz-adv-x="1843" d="M19 10q76 153 249 153q64 0 124 -21.5t113.5 -42.5t101.5 -21q34 0 71.5 13t75 41t62 81.5t24.5 123.5v396q0 176 -90.5 263t-236.5 87q-61 0 -111 -14.5t-83.5 -37t-59 -53.5t-39 -60.5t-22.5 -62t-11.5 -54t-2.5 -39.5q0 -28 4 -58t22 -79.5t48.5 -86.5t91 -64.5 t142.5 -27.5h88v-77q-6 0 -52.5 -1t-75.5 -1q-143 0 -244 111.5t-101 283.5q0 126 58.5 218.5t149 136t198.5 43.5q109 0 191 -33l284 374l88 -23l-297 -393q140 -105 140 -352v-396q0 -75 -22 -135.5t-56 -97t-77 -61t-81.5 -34t-73.5 -9.5q-71 0 -176 41t-165 41 q-134 0 -174 -92zM1302 463v364q0 81 -49.5 126.5t-117.5 45.5q-72 0 -122 -52l-37 75q65 59 159 59q62 0 117 -28t88 -81q33 53 87.5 81t115.5 28q99 0 171 -67.5t72 -186.5v-364h-77v364q0 82 -49 127t-117 45q-67 0 -116 -45.5t-49 -126.5v-364h-76zM1024 306v63h77v-63 q0 -77 45.5 -133t113 -82t145.5 -26q124 0 214 63.5t90 177.5v63h77v-63q0 -77 -32.5 -139t-86.5 -100.5t-121.5 -59t-140.5 -20.5q-72 0 -139.5 20.5t-122 59t-87 100.5t-32.5 139z" />
<glyph unicode="&#xdac;" horiz-adv-x="1393" d="M611 0q-120 0 -195 70t-75 185v195q0 113 53 141h-138v77h546q0 80 -55.5 125t-130.5 45q-51 0 -94.5 -24t-62.5 -69l-74 19q-27 7 -65 7q-43 0 -76.5 -14t-53.5 -35.5t-33 -51t-18 -57.5t-5 -58v-251q0 -87 19.5 -149t85.5 -140l-80 -30q-65 84 -83.5 153t-18.5 174v243 q0 143 72 220t189 77q53 0 105 -16q69 81 195 81q105 0 183 -63t78 -176v-87h-314q-31 0 -52.5 -4.5t-44.5 -17.5t-35 -43t-12 -76v-184q0 -28 10 -58.5t30.5 -61t59.5 -50t90 -19.5t89.5 19.5t58.5 50t29.5 61t9.5 58.5v101h81v-101q0 -28 9.5 -58.5t29.5 -61t58.5 -50 t89.5 -19.5t90 19.5t59.5 50t30.5 61t10 58.5v718q0 209 -92.5 297t-271.5 88v76q232 0 338 -113.5t106 -347.5v-729q0 -115 -75 -185t-195 -70q-75 0 -134 29t-94 82q-72 -111 -227 -111zM360 1078q0 108 65.5 194t161.5 129.5t198 43.5v-76q-90 0 -169.5 -37.5 t-130.5 -110t-51 -163.5z" />
<glyph unicode="&#xdad;" horiz-adv-x="1454" d="M57 375v96l523 446q-30 37 -76 58.5t-96 21.5q-65 0 -121.5 -38t-87.5 -117l-75 23q42 110 119 163t167 53q71 0 134 -30.5t99 -82.5q155 104 329 104q86 0 160.5 -28.5t134.5 -84t95 -147.5t35 -211v-234q0 -95 -15.5 -160t-53 -114t-104 -72t-164.5 -23v77q30 0 52 1.5 t51 8t50 18.5t42.5 33.5t35 52t22 76t8.5 102.5v234q0 97 -30.5 174.5t-82 125t-116.5 72t-137 24.5q-162 0 -287 -105l-521 -448q25 -9 44.5 -35t34.5 -59.5t32.5 -72.5t44 -75.5t63.5 -66.5t97 -48t138 -18q142 0 218.5 83t76.5 210q0 41 -1.5 69t-7.5 62t-17.5 58 t-31.5 50t-49 44.5t-71 35.5t-96 29l71 61q73 -16 126 -48.5t82 -69.5t45.5 -89.5t21 -97t4.5 -104.5q0 -164 -94.5 -267t-276.5 -103q-83 0 -148.5 16t-109 45t-71 60.5t-50.5 72.5q-16 27 -35 69t-30 65t-30.5 41t-44.5 18q-9 0 -25 -4z" />
<glyph unicode="&#xdae;" horiz-adv-x="1041" d="M473 1219v226h76q78 0 141.5 -13.5t119 -46t93.5 -84t59.5 -130t21.5 -181.5v-529q0 -230 -103.5 -345.5t-327.5 -115.5v77q170 0 260 91t90 293v492q0 214 -81 315t-273 101v-150q0 -69 21.5 -120t58 -79t79 -41.5t90.5 -13.5v-77q-160 0 -242.5 92.5t-82.5 238.5z M57 517q0 53 10.5 103t38.5 102t70.5 90.5t112 63t157.5 24.5v-77q-153 0 -231.5 -86t-78.5 -220v-134q0 -130 84.5 -218t225.5 -88v-77q-82 0 -149.5 24.5t-111 64t-73.5 90.5t-42.5 102t-12.5 102v134z" />
<glyph unicode="&#xdaf;" horiz-adv-x="1018" d="M691 -390q116 0 209.5 64.5t117.5 180.5l-74 19q-22 -92 -90.5 -140t-154.5 -48q-101 0 -177 62t-76 166h-77q0 -97 47.5 -168t119 -103.5t155.5 -32.5zM57 381q0 -96 35 -171t96.5 -120t138 -67.5t165.5 -22.5h75q37 0 74.5 6t85 23.5t88 45.5t78 76.5t60.5 112.5 l-71 19q-48 -103 -129.5 -154.5t-185.5 -51.5h-75q-172 0 -263 84t-91 220q0 140 86 226t247 86h356v52q0 90 -30.5 161t-82.5 114.5t-116.5 65.5t-136.5 22q-117 0 -209.5 -62t-121.5 -173l75 -25q24 86 96.5 134t163.5 48q118 0 201.5 -68.5t83.5 -192.5h-260 q-196 0 -314.5 -99.5t-118.5 -288.5z" />
<glyph unicode="&#xdb0;" horiz-adv-x="1110" d="M327 0q-120 0 -195 70t-75 185v333q0 61 19 117.5t58 105.5t109 78.5t161 29.5h75v-77h-75q-68 0 -119.5 -22t-78.5 -52t-43.5 -70t-20.5 -68t-4 -54v-310q0 -28 9.5 -58.5t30 -61t59.5 -50t90 -19.5t89.5 19.5t59 50t30 61t9.5 58.5v101h80v-101q0 -28 9.5 -58.5t30 -61 t59 -50t89.5 -19.5t90 19.5t59.5 50t30 61t9.5 58.5v718q0 209 -92 297t-271 88v76q232 0 338 -113.5t106 -347.5v-729q0 -115 -75 -185t-195 -70q-75 0 -134 29t-94 82q-35 -53 -94 -82t-134 -29zM77 1078q0 108 65 194t161 129.5t198 43.5v-76q-90 0 -169.5 -37.5 t-130 -110t-50.5 -163.5z" />
<glyph unicode="&#xdb1;" horiz-adv-x="1393" d="M999 -2v77q44 0 74 3.5t68 20t61.5 46t40 86.5t16.5 136v276q0 82 -31 150.5t-82.5 112.5t-116 68.5t-133.5 24.5q-80 0 -153 -34t-123 -100l-149 -197q-40 -53 -72.5 -90t-76 -78t-88.5 -64.5t-89 -27.5q30 -163 138.5 -250t242.5 -87q135 0 233 88t98 239 q0 226 -225 310l47 63q130 -42 196.5 -146t66.5 -227q0 -96 -35 -175t-94.5 -129t-134 -77t-155.5 -27q-88 0 -169.5 31.5t-148.5 91t-107.5 157.5t-40.5 220v168h79v-141v-25q98 12 241 189l159 211q-27 48 -79 76.5t-111 28.5q-65 0 -121 -38t-87 -117l-75 23 q42 110 118.5 163t166.5 53q75 0 140.5 -33t101.5 -89q56 57 139.5 89t175.5 32q82 0 157 -26.5t137.5 -77.5t99.5 -137t37 -196v-276q0 -95 -15.5 -160t-53 -114t-104 -72t-164.5 -23z" />
<glyph unicode="&#xdb3;" horiz-adv-x="1286" d="M760 0q-89 0 -165.5 22.5t-138 67.5t-96.5 120t-35 171q0 189 118.5 288.5t314.5 99.5h260q0 124 -83.5 192.5t-201.5 68.5q-91 0 -163.5 -48t-96.5 -134l-17 6q-53 17 -94 17q-56 0 -100.5 -27t-72 -71t-41.5 -96.5t-14 -108.5v-168q0 -70 2.5 -107t14.5 -86t38 -93.5 t71 -98.5l-80 -30q-80 103 -101.5 186t-21.5 229v168q0 95 26 170t70 120.5t98 69t113 23.5q38 0 63 -7q43 78 124.5 121t177.5 43q72 0 136.5 -22t116.5 -65.5t82.5 -114.5t30.5 -161v-52h-356q-161 0 -247 -86t-86 -226q0 -136 91 -220t263 -84h75q104 0 185.5 51.5 t129.5 154.5l71 -19q-23 -64 -60.5 -112.5t-78 -76.5t-88 -45.5t-85 -23.5t-74.5 -6h-75zM959 -390q-84 0 -155.5 32.5t-119 103.5t-47.5 168h77q0 -104 76 -166t177 -62q86 0 154.5 48t90.5 140l74 -19q-24 -116 -117.5 -180.5t-209.5 -64.5z" />
<glyph unicode="&#xdb4;" d="M59 913q24 60 70 98t99.5 53.5t117.5 15.5q67 0 137 -29.5t110 -97.5q40 68 110 97.5t137 29.5q64 0 117.5 -15.5t99.5 -53.5t70 -98l-74 -25q-42 115 -213 115q-104 0 -156 -61.5t-52 -147.5v-25h170q166 0 246.5 -67t80.5 -239h-76q0 60 -9.5 99.5t-35.5 71t-75.5 45.5 t-126.5 14h-433q-61 0 -105 -12.5t-69.5 -32t-40.5 -50.5t-19.5 -62t-4.5 -73h-77q0 166 82 236t232 70h184v25q0 86 -52.5 147.5t-156.5 61.5q-170 0 -212 -115zM534 -11q-255 0 -366 87.5t-111 292.5h77q0 -75 17.5 -129t49 -87.5t83 -53t110.5 -27t140 -7.5h119 q102 0 171 12.5t123.5 45t80 93.5t25.5 153h76q0 -205 -110.5 -292.5t-365.5 -87.5h-119z" />
<glyph unicode="&#xdb5;" horiz-adv-x="1048" d="M454 0q-168 0 -282.5 103.5t-114.5 242.5q0 144 71 221q57 61 147.5 81t243.5 20q0 80 -55.5 125t-130.5 45q-51 0 -94.5 -24t-62.5 -69l-75 19q19 73 85 113t149 40q67 0 124.5 -25.5t96.5 -81t39 -132.5v-87h-94q-206 0 -286.5 -49.5t-80.5 -195.5q0 -106 87 -187.5 t233 -81.5v-77zM480 1219v226h77q98 0 173.5 -22.5t136 -73t92.5 -141t32 -218.5v-529q0 -231 -103 -346t-327 -115v77q170 0 260 91t90 293v492q0 214 -81 315t-273 101v-150q0 -69 21.5 -120t58 -79t79 -41.5t90.5 -13.5v-77q-161 0 -243.5 92.5t-82.5 238.5z" />
<glyph unicode="&#xdb6;" horiz-adv-x="1121" d="M57 339v205q0 144 79.5 224t188.5 80t187.5 -79.5t78.5 -224.5v-274q0 -91 59 -141.5t139 -50.5q79 0 137 50.5t58 141.5v714q0 204 -90 294.5t-260 90.5h-22v76h22q224 0 327 -115t103 -346v-708q0 -133 -82.5 -208.5t-194.5 -75.5t-193 73t-81 205v274q0 103 -56 160.5 t-132 57.5q-78 0 -133.5 -57.5t-55.5 -160.5v-205q0 -79 17.5 -131t54 -80.5t83 -39.5t113.5 -11v-77q-178 0 -262.5 77.5t-84.5 261.5zM78 1078q0 108 65.5 194t161.5 129.5t198 43.5v-76q-90 0 -169.5 -37.5t-130 -110t-50.5 -163.5z" />
<glyph unicode="&#xdb7;" horiz-adv-x="1422" d="M637 595q79 0 136 -24.5t87 -67t43.5 -89t13.5 -100.5v-36q0 -143 -86.5 -218t-233.5 -75v76q119 0 181 55t62 175q0 43 -5.5 76t-22 71t-54.5 59.5t-96 21.5h-103v170q0 23 4 65h-73q-142 0 -210.5 -62.5t-68.5 -212.5v-104q0 -143 74.5 -228.5t204.5 -85.5v-76 q-167 0 -261.5 109t-94.5 281v104q0 187 103 275h-180v77h508q0 80 -55.5 125t-130.5 45q-51 0 -94.5 -24.5t-62.5 -69.5l-75 19q19 73 85 113.5t149 40.5q78 0 144.5 -36t96.5 -104q88 140 280 140v-77q-74 0 -127.5 -26t-82.5 -72t-42 -98.5t-13 -115.5v-96zM1009 -15v76 q133 0 206 91.5t73 260.5v238q0 170 -71.5 261t-207.5 91v77q169 0 262.5 -115.5t93.5 -313.5v-238q0 -198 -93.5 -313t-262.5 -115z" />
<glyph unicode="&#xdb8;" horiz-adv-x="1090" d="M57 482q0 -69 9.5 -131t37.5 -128.5t71.5 -114t118 -78t171.5 -30.5v77q-21 0 -43 2.5t-56 12t-64 25.5t-62 47t-54.5 72t-37 104.5t-14.5 141.5v161q0 97 38.5 146t91.5 49q44 0 75.5 -31t31.5 -80v-134q0 -72 46.5 -112.5t108.5 -40.5q63 0 110 40.5t47 112.5v305h-76 v-295q0 -35 -24 -55t-57 -20q-31 0 -54.5 20t-23.5 55v124q0 87 -52 138.5t-124 51.5q-86 0 -150.5 -71t-64.5 -203v-161zM572 0q228 0 345 117.5t117 343.5v523q0 226 -117 343.5t-345 117.5v-76q84 0 151.5 -21t120.5 -65t82 -120t29 -179v-523q0 -198 -104.5 -291 t-278.5 -93v-77zM57 1078l75 -20q0 84 49.5 157t126.5 113.5t157 40.5v76q-93 0 -186.5 -46.5t-157.5 -133t-64 -187.5z" />
<glyph unicode="&#xdb9;" horiz-adv-x="1115" d="M354 -21q76 0 111.5 35t35.5 97q0 19 -6.5 77t-6.5 76q0 22 5.5 35.5t17 19t21 7t25.5 1.5q17 0 26 -1t21.5 -6.5t18 -19.5t5.5 -36q0 -18 -7 -76t-7 -77q0 -62 36 -97t112 -35q134 0 215 96t81 245v664q0 226 -117 343.5t-344 117.5v-76q84 0 152 -21t121 -65t82.5 -120 t29.5 -179v-664q0 -64 -25.5 -123.5t-77 -100t-117.5 -40.5q-43 0 -58 17.5t-15 58.5q0 11 5.5 48.5t7 69t-4.5 66t-31.5 54.5t-70.5 20h-74q-44 0 -69.5 -20t-31.5 -54.5t-5 -66t6.5 -69t5.5 -48.5q0 -41 -15 -58.5t-58 -17.5q-66 0 -117 40.5t-76 100t-25 123.5v381 q0 66 38.5 102.5t91.5 36.5t90.5 -35t37.5 -97v-115q0 -72 46.5 -112.5t108.5 -40.5q63 0 110 40.5t47 112.5v305h-76v-295q0 -35 -24 -55t-57 -20q-31 0 -54.5 20t-23.5 55v105q0 100 -59 155.5t-140 55.5q-87 0 -151 -58t-64 -160v-381q0 -149 81.5 -245t215.5 -96z M142 1058q0 91 50.5 163.5t130 110t169.5 37.5v76q-102 0 -198 -43.5t-161.5 -129.5t-65.5 -194z" />
<glyph unicode="&#xdba;" horiz-adv-x="1205" d="M57 268v99h77v-97q0 -93 59.5 -143t154.5 -50q96 0 156.5 50t60.5 143v97h76v-97q0 -93 60.5 -143t155.5 -50t155 50t60 143v97h76v-99q0 -119 -84 -193.5t-207 -74.5q-82 0 -149 34t-105 94q-37 -60 -105 -94t-150 -34q-123 0 -207 74.5t-84 193.5zM565 693v101 q0 68 20.5 120.5t51 83t71 50t75 26t67.5 6.5q64 0 117.5 -15.5t99.5 -53.5t70 -98l-75 -25q-42 115 -212 115q-118 0 -163.5 -57.5t-45.5 -176.5h276q61 0 105 -12t68 -30t37.5 -46.5t17 -53t3.5 -57.5v-107h-76v107q0 42 -11.5 69t-34.5 37.5t-42 13.5t-50 3h-369zM57 463 v188q0 106 34 189.5t92.5 134.5t132.5 77t159 26h32v-77h-36q-160 0 -248.5 -94t-88.5 -254v-190h-77z" />
<glyph unicode="&#xdbb;" horiz-adv-x="985" d="M57 450v367q0 40 1.5 66t11 73t27 84.5t53 84.5t85.5 88l374 305l97 -25l-425 -347q-35 -28 -60.5 -55.5t-41.5 -56.5t-25.5 -53t-13.5 -58t-5 -56.5t-1 -62.5v-354q0 -196 82.5 -290.5t231.5 -94.5v-76q-61 0 -115.5 14t-106 47.5t-88.5 85t-59 132t-22 182.5zM268 1003 l78 77h238q183 0 263.5 -101t80.5 -288v-241q0 -108 -18.5 -188.5t-50.5 -132t-80 -83t-102 -44t-122 -12.5v77q156 0 226.5 94.5t70.5 288.5v239q0 92 -22 156.5t-62 97.5t-85 46.5t-101 13.5h-314z" />
<glyph unicode="&#xdbd;" horiz-adv-x="1159" d="M528 450v107h-139v77h363v-77h-141v-107q0 -87 56 -136.5t135 -49.5q88 0 154 62t66 177v140q0 88 -20.5 154t-54.5 107t-85 66t-106 34.5t-124 9.5v77q50 0 92 -3.5t92 -15t89 -31t77.5 -53.5t63.5 -80t40.5 -113.5t15.5 -151.5v-140q0 -79 -25.5 -142t-68.5 -101 t-95 -58t-109 -20q-113 0 -194.5 71.5t-81.5 196.5zM517 -323q-67 0 -126.5 11t-122.5 43t-108 82.5t-74 135.5t-29 196v479q0 110 29 195t74 135.5t108 82t123 43t126 11.5v-77q-81 0 -147.5 -22t-119 -67t-81.5 -122t-29 -179v-479q0 -103 29 -180t81.5 -122.5t119 -67.5 t147.5 -22v-76zM632 -247q143 0 233.5 59.5t137.5 187.5l75 -21q-30 -88 -77.5 -149t-108 -93.5t-123 -46t-137.5 -13.5v76z" />
<glyph unicode="&#xdc0;" horiz-adv-x="1054" d="M459 0v77q-74 0 -136 23.5t-101 62t-60.5 86t-21.5 97.5q0 146 80.5 195.5t286.5 49.5h94v87q0 77 -39 132.5t-96.5 81t-124.5 25.5q-83 0 -149 -40t-85 -113l75 -19q19 45 62.5 69t94.5 24q75 0 130 -45t55 -125q-153 0 -243 -20t-147 -81q-71 -77 -71 -221 q0 -140 114 -243t282 -103zM567 0q224 0 327 115t103 346v523q0 231 -103 346t-327 115v-76q170 0 261 -90.5t91 -294.5v-523q0 -201 -91 -292.5t-261 -91.5v-77zM57 1078l75 -20q0 127 101 219t226 92v76q-93 0 -185 -46.5t-154.5 -133t-62.5 -187.5z" />
<glyph unicode="&#xdc1;" horiz-adv-x="1345" d="M932 -15v76q133 0 206.5 91.5t73.5 260.5v238q0 170 -72 261t-208 91v77q169 0 262.5 -115.5t93.5 -313.5v-238q0 -198 -93.5 -313t-262.5 -115zM413 -15q-169 0 -262.5 115t-93.5 313v238q0 198 93.5 313.5t262.5 115.5v-77q-136 0 -207.5 -91t-71.5 -261v-238 q0 -169 73 -260.5t206 -91.5v-76zM482 519v170q0 177 87 284t256 107v-77q-74 0 -127.5 -26t-82 -72t-41.5 -98.5t-13 -115.5v-96h25q185 0 237 -166q83 97 278 97v-76q-60 0 -106.5 -12t-73.5 -30.5t-45.5 -44t-25.5 -47.5t-10 -46q0 -23 -2 -33q-12 -123 -96 -187.5 t-221 -64.5v76q119 0 181 55t62 175q0 43 -5.5 76t-22 71t-54.5 59.5t-96 21.5h-104z" />
<glyph unicode="&#xdc2;" d="M59 913q24 60 70 98t99.5 53.5t117.5 15.5q67 0 137 -29.5t110 -97.5q40 68 110 97.5t137 29.5q64 0 117.5 -15.5t99.5 -53.5t70 -98l-74 -25q-42 115 -213 115q-104 0 -156 -61.5t-52 -147.5v-25h170q166 0 246.5 -67t80.5 -239h-76q0 93 -27 144t-100 72 q-77 -36 -126.5 -65.5t-95 -71.5t-67 -96.5t-21.5 -123.5h-76q0 125 73 225t206 146h-13h-433q-61 0 -105 -12.5t-69.5 -32t-40.5 -50.5t-19.5 -62t-4.5 -73h-77q0 166 82 236t232 70h184v25q0 86 -52.5 147.5t-156.5 61.5q-170 0 -212 -115zM534 -11q-255 0 -366 87.5 t-111 292.5h77q0 -75 17.5 -129t49 -87.5t83 -53t110.5 -27t140 -7.5h119q102 0 171 12.5t123.5 45t80 93.5t25.5 153h76q0 -205 -110.5 -292.5t-365.5 -87.5h-119z" />
<glyph unicode="&#xdc3;" horiz-adv-x="1295" d="M147 268v101h77v-99q0 -93 59.5 -143t154.5 -50q96 0 156.5 50t60.5 143v99h76v-99q0 -93 60.5 -143t155.5 -50t155 50t60 143v99h76v-101q0 -119 -84 -193.5t-207 -74.5q-82 0 -149 34t-105 94q-37 -60 -105 -94t-150 -34q-123 0 -207 74.5t-84 193.5zM161 913 q24 60 70 98t99.5 53.5t117.5 15.5q67 0 137 -29.5t110 -97.5q40 68 110 97.5t137 29.5q64 0 117.5 -15.5t99.5 -53.5t70 -98l-75 -25q-42 115 -212 115q-104 0 -156.5 -61.5t-52.5 -147.5v-25h283q61 0 104.5 -14.5t65.5 -34.5t34.5 -52.5t15 -57t2.5 -59.5v-88h-76v88 q0 46 -12 76t-35 43.5t-45 18t-52 4.5h-651q-30 0 -52 -4.5t-44.5 -18t-34.5 -43.5t-12 -76v-88h-77v88q0 114 54 142h-144v76h600v25q0 86 -52.5 147.5t-156.5 61.5q-171 0 -213 -115z" />
<glyph unicode="&#xdc4;" horiz-adv-x="1345" d="M561 595q64 0 113.5 -17t80 -44t50.5 -64.5t27.5 -75.5t7.5 -80v-36q0 -143 -86 -218t-233 -75v76q119 0 181 55t62 175q0 43 -5.5 76t-22 71t-54.5 59.5t-96 21.5h-104v170q0 23 4 65h-73q-142 0 -210.5 -62.5t-68.5 -212.5v-104q0 -143 74.5 -228.5t204.5 -85.5v-76 q-167 0 -261.5 109t-94.5 281v104q0 180 85 266t270 86h76q0 80 -55.5 125t-130.5 45q-51 0 -94.5 -24.5t-62.5 -69.5l-74 19q19 73 84.5 113.5t148.5 40.5q78 0 144.5 -36t96.5 -104q88 140 280 140v-77q-123 0 -185 -68t-75 -177v-4q-4 -42 -4 -63v-96zM932 -15v76 q133 0 206.5 91.5t73.5 260.5v238q0 170 -72 261t-208 91v77q169 0 262.5 -115.5t93.5 -313.5v-238q0 -198 -93.5 -313t-262.5 -115z" />
<glyph unicode="&#xdc5;" horiz-adv-x="1165" d="M207 794v42q0 116 63.5 180t173.5 64q48 0 97.5 -23t80.5 -69q29 46 79 69t99 23q112 0 173 -63.5t61 -180.5h-77q0 82 -40.5 122.5t-110.5 40.5q-62 0 -104 -43.5t-42 -120.5h-76q0 77 -42.5 120.5t-105.5 43.5q-75 0 -114 -44t-39 -142zM57 147v224q0 88 33 161 t85.5 117.5t114 69t122.5 24.5h622v-77h-617q-58 0 -118 -27q2 -44 7 -83.5t24.5 -95.5t50 -96t88 -69t134.5 -29h99q92 0 157.5 38.5t95.5 108.5l79 -21q-86 -203 -332 -203h-99q-68 0 -125 17t-95 44t-67.5 64.5t-46.5 73t-28 76.5t-15 68.5t-6 53.5q-82 -82 -82 -213 v-226q0 -90 24 -160t63 -113t93.5 -71t109 -39t114.5 -11v-78q-224 0 -354.5 119.5t-130.5 352.5zM658 -249q330 0 393 268l76 -21q-16 -77 -52.5 -135.5t-82 -93.5t-104.5 -56.5t-113.5 -29.5t-116.5 -8v76z" />
<glyph unicode="&#xdc6;" horiz-adv-x="1205" d="M57 463h77v347q0 93 59.5 143t154.5 50q96 0 156.5 -50t60.5 -143v-347h76v347q0 93 60.5 143t155.5 50t155 -50t60 -143v-347h76v349q0 119 -84 193.5t-207 74.5q-81 0 -148.5 -34.5t-105.5 -94.5q-38 60 -105.5 94.5t-149.5 34.5q-123 0 -207 -74.5t-84 -193.5v-349z M57 367q0 -74 21.5 -138.5t65 -116.5t117.5 -82t170 -30v77q-67 0 -120.5 18.5t-85.5 48t-53.5 69t-29.5 77.5t-8 77h-77zM775 0q96 0 170 30t117 82t64.5 116.5t21.5 138.5h-76q0 -39 -8 -77t-29.5 -77.5t-53.5 -69t-85.5 -48t-120.5 -18.5v-77z" />
<glyph unicode="&#xdca;" horiz-adv-x="191" d="M57 1185h77v383h-77v-383z" />
<glyph unicode="&#xdcf;" horiz-adv-x="497" d="M57 0h39q182 0 263 93.5t81 283.5v325q0 190 -81 284t-263 94h-39v-77h39q39 0 67 -3t68.5 -20t66.5 -47t45 -89t19 -142v-325q0 -60 -10 -107.5t-25 -78.5t-38.5 -53.5t-45 -33.5t-51.5 -17.5t-49.5 -8t-46.5 -1.5h-39v-77z" />
<glyph unicode="&#xdd0;" horiz-adv-x="491" d="M375 0q-146 0 -232 87.5t-86 262.5v241q0 99 20 157.5t71 115t172 158.5h-263v77h377v-77q-75 -62 -124 -105t-84 -81.5t-52.5 -63t-27 -57.5t-11 -56.5t-1.5 -67.5v-241q0 -39 2 -66t15 -69.5t36.5 -69.5t71 -47.5t114.5 -20.5h61v-77h-59z" />
<glyph unicode="&#xdd1;" horiz-adv-x="530" d="M96 394q0 67 15.5 110.5t69 99t162.5 129.5h-247v77l256 212h-256v77h377v-77l-259 -212h259v-77q-74 -51 -125.5 -90.5t-84.5 -71t-52 -53t-27.5 -45t-10 -38t-1.5 -41.5v-88q0 -26 1 -43t6 -43t14 -44t26.5 -38t42.5 -32.5t63 -20.5t87 -8h61v-77h-60q-74 0 -128.5 14 t-99 47.5t-67 94.5t-22.5 150v88z" />
<glyph unicode="&#xdd2;" horiz-adv-x="0" d="M-1118 1152h77q0 38 3.5 68.5t20.5 73t46 71t86 49t135 20.5h266q78 0 135 -20.5t86 -49t46 -71t20.5 -73t3.5 -68.5h76v54q0 133 -96.5 218.5t-240.5 85.5h-327q-144 0 -240.5 -85.5t-96.5 -218.5v-54z" />
<glyph unicode="&#xdd3;" horiz-adv-x="0" d="M-289 1099q-72 0 -122 50t-50 122q0 51 26.5 92.5t70.5 62.5q-45 8 -93 8h-286q-78 0 -135 -20.5t-86 -49t-46 -71t-20.5 -73t-3.5 -68.5h-76v54q0 133 96.5 218.5t240.5 85.5h346q65 0 118 -12t97.5 -38t69.5 -74.5t25 -114.5q0 -72 -50 -122t-122 -50z" />
<glyph unicode="&#xdd4;" horiz-adv-x="0" d="M-191 255h76v-647h-402v76h326v571zM-972 -316h348v-76h-348v76z" />
<glyph unicode="&#xdd6;" horiz-adv-x="0" d="M-988 -234q77 -68 146 -68q37 0 108 34t120 34v-80q-48 0 -120 -33.5t-110 -33.5q-71 0 -144 67v80zM-191 -392q-24 13 -49 23.5t-45.5 18t-42.5 13.5t-38 9.5t-34.5 6.5t-30 4.5t-26.5 2t-21 0.5h-18h-11v80h8h15t20.5 -0.5t26 -1.5t31 -3.5t36 -6t39.5 -9.5t43.5 -13 t46.5 -17.5t50 -22.5v543h76v-627h-76z" />
<glyph unicode="&#xdd8;" horiz-adv-x="601" d="M279 0q108 0 185.5 77t77.5 185v502q0 148 -59.5 232t-183.5 84h-169v-77h172q76 0 119.5 -63.5t43.5 -175.5v-502q0 -76 -55 -130.5t-131 -54.5t-130.5 54.5t-54.5 130.5t54.5 131t130.5 55h79v76h-79q-108 0 -185 -77t-77 -185t77 -185t185 -77z" />
<glyph unicode="&#xdd9;" horiz-adv-x="874" d="M477 1003h-77q-75 0 -129 -24t-83 -66.5t-41.5 -92t-12.5 -110.5v-331q0 -153 59.5 -232.5t206.5 -79.5v-77h-40q-57 0 -104 16t-78 41.5t-54 61t-35.5 70t-20 75t-9.5 68.5t-2 57v331q0 49 8.5 96t32 98t60 89t98.5 62.5t142 24.5h119q66 0 122 -24.5t91 -63.5t56 -82 t26 -85l-79 -19q-28 197 -256 197zM446 601v77h166q96 0 150.5 -42t54.5 -148v-187q0 -65 -16.5 -119.5t-49.5 -98t-89 -68.5t-130 -25h-40v77q249 0 249 228v189q0 39 -12 64.5t-34 36t-40 13.5t-43 3h-166z" />
<glyph unicode="&#xdda;" horiz-adv-x="1339" d="M1206 1185v383h76v-383h-76zM477 1003h-77q-75 0 -129 -24t-83 -66.5t-41.5 -92t-12.5 -110.5v-331q0 -153 59.5 -232.5t206.5 -79.5v-77h-40q-57 0 -104 16t-78 41.5t-54 61t-35.5 70t-20 75t-9.5 68.5t-2 57v331q0 49 8.5 96t32 98t60 89t98.5 62.5t142 24.5h119 q66 0 122 -24.5t91 -63.5t56 -82t26 -85l-79 -19q-28 197 -256 197zM446 601v77h166q96 0 150.5 -42t54.5 -148v-187q0 -65 -16.5 -119.5t-49.5 -98t-89 -68.5t-130 -25h-40v77q249 0 249 228v189q0 39 -12 64.5t-34 36t-40 13.5t-43 3h-166z" />
<glyph unicode="&#xddb;" horiz-adv-x="1699" d="M1302 1009h-77q-75 0 -129 -24t-83 -66.5t-41.5 -92t-12.5 -110.5v-331q0 -153 59.5 -232.5t206.5 -79.5v-77h-40q-57 0 -104 16t-78 41.5t-54 61t-35.5 70t-20 75t-9.5 68.5t-2 57v331q0 49 8.5 96t32 98t60 88.5t98.5 62t142 24.5h119q66 0 122 -24.5t90.5 -63 t55.5 -81.5t26 -85l-78 -19q-28 197 -256 197zM1271 607v76h166q96 0 150.5 -41.5t54.5 -147.5v-188q0 -65 -16.5 -119.5t-49.5 -98t-89 -68t-130 -24.5h-40v77q249 0 249 228v189q0 39 -12 64.5t-34 36t-40 13.5t-43 3h-166zM477 1003h-77q-75 0 -129 -24t-83 -66.5 t-41.5 -92t-12.5 -110.5v-331q0 -153 59.5 -232.5t206.5 -79.5v-77h-40q-57 0 -104 16t-78 41.5t-54 61t-35.5 70t-20 75t-9.5 68.5t-2 57v331q0 49 8.5 96t32 98t60 89t98.5 62.5t142 24.5h119q66 0 122 -24.5t91 -63.5t56 -82t26 -85l-79 -19q-28 197 -256 197zM446 601 v77h166q96 0 150.5 -42t54.5 -148v-187q0 -65 -16.5 -119.5t-49.5 -98t-89 -68.5t-130 -25h-40v77q249 0 249 228v189q0 39 -12 64.5t-34 36t-40 13.5t-43 3h-166z" />
<glyph unicode="&#xddc;" horiz-adv-x="1500" d="M1060 0v77h39q27 0 46.5 1.5t49.5 8t51.5 17.5t45 33.5t38.5 53.5t25 78.5t10 107.5v325q0 83 -19 142t-45 89t-66.5 47t-68.5 20t-67 3h-39v77h39q182 0 263 -94t81 -284v-325q0 -190 -81 -283.5t-263 -93.5h-39zM477 1003h-77q-75 0 -129 -24t-83 -66.5t-41.5 -92 t-12.5 -110.5v-331q0 -153 59.5 -232.5t206.5 -79.5v-77h-40q-57 0 -104 16t-78 41.5t-54 61t-35.5 70t-20 75t-9.5 68.5t-2 57v331q0 49 8.5 96t32 98t60 89t98.5 62.5t142 24.5h119q66 0 122 -24.5t91 -63.5t56 -82t26 -85l-79 -19q-28 197 -256 197zM446 601v77h166 q96 0 150.5 -42t54.5 -148v-187q0 -65 -16.5 -119.5t-49.5 -98t-89 -68.5t-130 -25h-40v77q249 0 249 228v189q0 39 -12 64.5t-34 36t-40 13.5t-43 3h-166z" />
<glyph unicode="&#xddd;" horiz-adv-x="1500" d="M1058 1185v383h77v-383h-77zM1060 0v77h39q27 0 46.5 1.5t49.5 8t51.5 17.5t45 33.5t38.5 53.5t25 78.5t10 107.5v325q0 83 -19 142t-45 89t-66.5 47t-68.5 20t-67 3h-39v77h39q182 0 263 -94t81 -284v-325q0 -190 -81 -283.5t-263 -93.5h-39zM477 1003h-77 q-75 0 -129 -24t-83 -66.5t-41.5 -92t-12.5 -110.5v-331q0 -153 59.5 -232.5t206.5 -79.5v-77h-40q-57 0 -104 16t-78 41.5t-54 61t-35.5 70t-20 75t-9.5 68.5t-2 57v331q0 49 8.5 96t32 98t60 89t98.5 62.5t142 24.5h119q66 0 122 -24.5t91 -63.5t56 -82t26 -85l-79 -19 q-28 197 -256 197zM446 601v77h166q96 0 150.5 -42t54.5 -148v-187q0 -65 -16.5 -119.5t-49.5 -98t-89 -68.5t-130 -25h-40v77q249 0 249 228v189q0 39 -12 64.5t-34 36t-40 13.5t-43 3h-166z" />
<glyph unicode="&#xdde;" horiz-adv-x="1914" d="M1533 -15q-84 0 -157 32.5t-121.5 102.5t-48.5 165v102h76v-104q0 -99 75.5 -155.5t177.5 -56.5q100 0 172.5 55t72.5 157v609q0 52 -30.5 80.5t-74.5 28.5q-43 0 -74.5 -28.5t-31.5 -80.5v-100q0 -91 -54 -142t-127 -51q-75 0 -128.5 50.5t-53.5 142.5v288h76v-290 q0 -52 31.5 -80.5t74.5 -28.5q44 0 74.5 28.5t30.5 80.5v100q0 92 53.5 142.5t128.5 50.5q73 0 127.5 -51t54.5 -142v-605q0 -142 -96 -221t-228 -79zM477 1003h-77q-75 0 -129 -24t-83 -66.5t-41.5 -92t-12.5 -110.5v-331q0 -153 59.5 -232.5t206.5 -79.5v-77h-40 q-57 0 -104 16t-78 41.5t-54 61t-35.5 70t-20 75t-9.5 68.5t-2 57v331q0 49 8.5 96t32 98t60 89t98.5 62.5t142 24.5h119q66 0 122 -24.5t91 -63.5t56 -82t26 -85l-79 -19q-28 197 -256 197zM446 601v77h166q96 0 150.5 -42t54.5 -148v-187q0 -65 -16.5 -119.5t-49.5 -98 t-89 -68.5t-130 -25h-40v77q249 0 249 228v189q0 39 -12 64.5t-34 36t-40 13.5t-43 3h-166z" />
<glyph unicode="&#xddf;" horiz-adv-x="727" d="M346 -15q132 0 228 79t96 221v605q0 91 -54.5 142t-127.5 51q-75 0 -128.5 -50.5t-53.5 -142.5v-100q0 -52 -30.5 -80.5t-74.5 -28.5q-42 0 -73.5 28.5t-31.5 80.5v290h-77v-288q0 -92 53.5 -142.5t128.5 -50.5q73 0 127.5 51t54.5 142v100q0 52 31.5 80.5t73.5 28.5 q44 0 74.5 -28.5t30.5 -80.5v-609q0 -102 -72.5 -157t-172.5 -55q-102 0 -177 56.5t-75 155.5v104h-77v-102q0 -95 48.5 -165t121.5 -102.5t157 -32.5z" />
<glyph unicode="&#xdf2;" horiz-adv-x="1284" d="M963 0q108 0 185 77t77 185v502q0 148 -59.5 232t-183.5 84h-169v-77h173q75 0 118.5 -63t43.5 -176v-502q0 -76 -54.5 -130.5t-130.5 -54.5t-131 54.5t-55 130.5t55 131t131 55h78v76h-78q-108 0 -185 -77t-77 -185t77 -185t185 -77zM322 0q108 0 185 77t77 185v502 q0 148 -59.5 232t-183.5 84h-169v-77h173q75 0 118.5 -63t43.5 -176v-502q0 -76 -54.5 -130.5t-130.5 -54.5t-131 54.5t-55 130.5t55 131t131 55h78v76h-78q-108 0 -185.5 -77t-77.5 -185t77.5 -185t185.5 -77z" />
<glyph unicode="&#xdf3;" horiz-adv-x="727" d="M346 -15q132 0 228 79t96 221v605q0 91 -54.5 142t-127.5 51q-75 0 -128.5 -50.5t-53.5 -142.5v-100q0 -52 -30.5 -80.5t-74.5 -28.5q-42 0 -73.5 28.5t-31.5 80.5v290h-77v-288q0 -92 53.5 -142.5t128.5 -50.5q73 0 127.5 51t54.5 142v100q0 52 31.5 80.5t73.5 28.5 q44 0 74.5 -28.5t30.5 -80.5v-609q0 -102 -72.5 -157t-172.5 -55q-102 0 -177 56.5t-75 155.5v104h-77v-102q0 -95 48.5 -165t121.5 -102.5t157 -32.5z" />
<glyph unicode="&#xdf4;" horiz-adv-x="2805" d="M1173 867q-209 -417 -280 -534q-94 -157 -175 -209q-75 -47 -201 -47h-230v-77h230q158 0 250 60q90 60 188 223q63 104 227 427q40 78 62 121zM1399 873l-413 -835l72 -38l412 836zM1533 691l-325 -653l72 -38l324 655zM1506 0l190 390q194 -156 254 -199 q224 -161 409 -186q40 -5 79 -5h194v77h-190q-55 0 -111 13t-114.5 41t-108 56.5t-112.5 75t-107 80.5t-112.5 89t-107.5 85l-233 -477z" />
<glyph unicode="&#x2000;" horiz-adv-x="1088" />
<glyph unicode="&#x2001;" horiz-adv-x="2176" />
<glyph unicode="&#x2002;" horiz-adv-x="1088" />
<glyph unicode="&#x2003;" horiz-adv-x="2176" />
<glyph unicode="&#x2004;" horiz-adv-x="725" />
<glyph unicode="&#x2005;" horiz-adv-x="544" />
<glyph unicode="&#x2006;" horiz-adv-x="362" />
<glyph unicode="&#x2007;" horiz-adv-x="362" />
<glyph unicode="&#x2008;" horiz-adv-x="272" />
<glyph unicode="&#x2009;" horiz-adv-x="435" />
<glyph unicode="&#x200a;" horiz-adv-x="120" />
<glyph unicode="&#x200c;" horiz-adv-x="0" d="M-38 17h76v1440h-76v-1440z" />
<glyph unicode="&#x200d;" horiz-adv-x="0" d="M-38 17v1084l-240 -165l-42 63l253 174l-274 190l44 63l299 -205l297 205l44 -63l-274 -190l253 -174l-44 -63l-240 165v-1084h-76z" />
<glyph unicode="&#x2010;" horiz-adv-x="757" d="M77 526h604v73h-604v-73z" />
<glyph unicode="&#x2011;" horiz-adv-x="757" d="M77 526h604v73h-604v-73z" />
<glyph unicode="&#x2012;" horiz-adv-x="757" d="M77 526h604v73h-604v-73z" />
<glyph unicode="&#x2013;" horiz-adv-x="1018" d="M50 526h918v73h-918v-73z" />
<glyph unicode="&#x2014;" horiz-adv-x="1734" d="M50 524h1634v73h-1634v-73z" />
<glyph unicode="&#x2018;" horiz-adv-x="229" d="M77 890h76v519h-76v-519z" />
<glyph unicode="&#x2019;" horiz-adv-x="229" d="M77 890h76v519h-76v-519z" />
<glyph unicode="&#x201a;" horiz-adv-x="229" d="M77 890h76v519h-76v-519z" />
<glyph unicode="&#x201c;" horiz-adv-x="407" d="M77 890h76v519h-76v-519zM255 890h76v519h-76v-519z" />
<glyph unicode="&#x201d;" horiz-adv-x="407" d="M77 890h76v519h-76v-519zM255 890h76v519h-76v-519z" />
<glyph unicode="&#x201e;" horiz-adv-x="436" d="M203 -44h75l70 291h-74zM50 -44h74l71 291h-74z" />
<glyph unicode="&#x2020;" horiz-adv-x="867" d="M50 944h344v-1051h77v1051h346v72h-346v446h-77v-446h-344v-72z" />
<glyph unicode="&#x2021;" horiz-adv-x="867" d="M50 333h346v-440h77v440h344v73h-344v543h344v73h-344v440h-77v-440h-346v-73h346v-543h-346v-73z" />
<glyph unicode="&#x2022;" horiz-adv-x="673" d="M222 660q0 -49 33 -82t82 -33t82 33t33 82t-33 82t-82 33t-82 -33t-33 -82z" />
<glyph unicode="&#x2026;" horiz-adv-x="1255" d="M96 8q0 -20 14.5 -35t34.5 -15t35 15t15 35t-15 34.5t-35 14.5t-34.5 -14.5t-14.5 -34.5zM578 8q0 -20 15 -35t35 -15t35 15t15 35t-15 34.5t-35 14.5t-35 -14.5t-15 -34.5zM1060 8q0 -20 15 -35t35 -15t35 15t15 35t-15 34.5t-35 14.5t-35 -14.5t-15 -34.5z" />
<glyph unicode="&#x202f;" horiz-adv-x="435" />
<glyph unicode="&#x2030;" horiz-adv-x="1716" d="M230 674q-23 1 -45 8.5t-50 30t-49 57t-35.5 98t-14.5 145.5q0 89 18 155.5t48 102t62.5 52.5t67.5 19v-56q-47 0 -91 -57.5t-45 -173.5v-56q0 -66 10.5 -116.5t25.5 -78.5t34.5 -45.5t34.5 -23t29 -6.5v-55zM289 674v55q15 1 30 6.5t35 23t35 45.5t25.5 78.5t10.5 116.5 v56q-1 115 -45.5 173t-90.5 58v56q34 -2 66 -19t61.5 -52.5t47.5 -102t18 -155.5q0 -82 -14.5 -145.5t-35 -98t-48.5 -57t-50 -30t-45 -8.5zM932 0q-23 1 -45 8.5t-50 30t-48.5 57t-35 98t-14.5 145.5q0 72 12 129.5t31.5 93.5t46 60.5t52 34.5t53.5 11v-56q-47 0 -91 -57.5 t-45 -173.5v-56q0 -66 10.5 -116.5t25.5 -78t34.5 -45.5t34.5 -23t29 -6v-56zM991 0v56q15 1 30 6t35 23t35 45.5t25.5 78t10.5 116.5v56q-1 115 -45.5 173t-90.5 58v56q27 -1 52.5 -11t52 -34.5t45.5 -60t31.5 -93.5t12.5 -130q0 -82 -14.5 -145.5t-35.5 -98t-49 -57 t-50 -30t-45 -8.5zM1428 0q-23 1 -45 8.5t-50 30t-48.5 57t-35 98t-14.5 145.5q0 72 12 129.5t31.5 93.5t46 60.5t52 34.5t53.5 11v-56q-47 0 -91 -57.5t-45 -173.5v-56q0 -66 10.5 -116.5t25.5 -78t34.5 -45.5t34.5 -23t29 -6v-56zM1487 0v56q15 1 30 6t35 23t35 45.5 t25.5 78t10.5 116.5v56q-1 115 -45.5 173t-90.5 58v56q27 -1 52.5 -11t52 -34.5t45.5 -60t31.5 -93.5t12.5 -130q0 -82 -14.5 -145.5t-35.5 -98t-49 -57t-50 -30t-45 -8.5zM170 0l827 1340h69l-827 -1340h-69z" />
<glyph unicode="&#x2039;" horiz-adv-x="646" d="M145 559l251 -408h96l-251 408l251 398h-96z" />
<glyph unicode="&#x203a;" horiz-adv-x="646" d="M149 151h96l251 408l-251 398h-96l251 -398z" />
<glyph unicode="&#x2044;" horiz-adv-x="895" d="M0 0h69l827 1340h-69z" />
<glyph unicode="&#x205f;" horiz-adv-x="544" />
<glyph unicode="&#x20ac;" horiz-adv-x="945" d="M98 540h72v-194q0 -37 12.5 -81.5t42 -93.5t72 -89t110 -66t148.5 -26v73q-62 0 -114.5 20.5t-87.5 51.5t-59.5 70t-35.5 75t-11 66v194h536v67h-536v115h536v67h-536v202q0 30 10.5 66.5t35.5 75.5t59.5 71t87.5 52.5t115 20.5v72q-80 1 -147.5 -25.5t-110 -66.5 t-72.5 -90t-42.5 -94.5t-12.5 -81.5v-202h-72v-67h72v-115h-72v-67zM641 -10q143 0 253.5 104.5t110.5 253.5l-65 16q0 -39 -17 -98q-17 -56 -52 -97.5t-73 -60.5t-74 -30.5t-60 -13.5l-23 -1v-73zM641 1277q8 0 22.5 -1.5t54 -14t73.5 -33.5t72 -67t60 -108q13 -37 13 -83 l69 18q0 138 -112.5 250t-251.5 111v-72z" />
<glyph unicode="&#x2113;" horiz-adv-x="352" d="M136 325q0 -79 17.5 -140.5t44 -97t64 -58.5t72 -31t72.5 -8v73q-22 0 -41.5 3t-49.5 18.5t-51 41.5t-36.5 77.5t-15.5 121.5v1015h-76v-1015z" />
<glyph unicode="&#x2122;" horiz-adv-x="886" d="M50 1300h105v-372h42v372h105v38h-252v-38zM345 928h42v228l-33 77h-9v-305zM346 1325l165 -397h23l121 276v65h-14l-118 -260l-136 329h-41v-13zM679 928h43v410h-43v-410z" />
<glyph unicode="&#x2126;" horiz-adv-x="803" d="M38 -2h343v73q-97 0 -167 77t-70 147v400q0 77 65.5 148.5t171.5 71.5v73q-75 0 -137.5 -28.5t-99.5 -71t-57 -87t-20 -81.5v-450q0 -49 33 -110t93 -104h-155v-58zM459 -2h333v58h-151q58 43 90.5 104.5t32.5 109.5v450q0 37 -19.5 81.5t-55 87t-96.5 71t-134 28.5v-73 q99 0 163.5 -73t64.5 -147v-404q0 -73 -64.5 -146.5t-163.5 -73.5v-73z" />
<glyph unicode="&#x212e;" horiz-adv-x="1016" d="M410 2v73q-121 0 -198.5 88.5t-77.5 255.5v149h731v383q0 71 -23 140.5t-65 127.5t-110.5 94t-151.5 36v-72q118 0 196 -94t78 -249v-293h-655v293q0 155 79 249t197 94v72q-83 0 -151.5 -36t-111.5 -94t-66.5 -128t-23.5 -142v-545q0 -79 23.5 -151t66.5 -128t111 -89.5 t152 -33.5zM517 0q123 0 222.5 68t127.5 162l-75 26q-14 -64 -96 -121t-179 -57v-78z" />
<glyph unicode="&#x2202;" horiz-adv-x="803" d="M54 270q0 -29 11.5 -63.5t37.5 -72t61 -67.5t88.5 -49.5t114.5 -19.5v73q-97 0 -167 77t-70 147v400q0 77 65.5 148.5t171.5 71.5v73q-75 0 -137.5 -28.5t-99 -71t-56.5 -87t-20 -81.5v-450zM134 1313q530 0 530 -411q-86 86 -218 86v-73q95 0 160.5 -65.5t65.5 -135.5 l2 -423q0 -73 -64.5 -146.5t-163.5 -73.5v-73q73 0 134 29t96.5 72t54.5 88t19 83v591q0 142 -36.5 239t-114.5 156t-190.5 85t-274.5 26v-54z" />
<glyph unicode="&#x2206;" horiz-adv-x="911" d="M57 0h797l-372 1351h-72l338 -1274h-597l264 983l-25 117h-15z" />
<glyph unicode="&#x220f;" horiz-adv-x="876" d="M4 1261h117v-1529h70v1529h492v-1529h71v1529h119v67h-869v-67z" />
<glyph unicode="&#x2211;" horiz-adv-x="1068" d="M264 1269h747v77h-797v-18zM57 -268h954v77l-858 -2l557 742l-614 797h-39v-77l555 -718l-555 -742v-77z" />
<glyph unicode="&#x2212;" horiz-adv-x="796" d="M77 526h604v73h-604v-73z" />
<glyph unicode="&#x2215;" horiz-adv-x="895" d="M0 0h69l827 1340h-69z" />
<glyph unicode="&#x2219;" horiz-adv-x="478" d="M77 773q0 -30 22 -52t52 -22t52.5 22t22.5 52t-22.5 52.5t-52.5 22.5t-52 -22.5t-22 -52.5z" />
<glyph unicode="&#x221a;" horiz-adv-x="1069" d="M11 982l22 -69l237 82l406 -999h90l285 1572h-77l-270 -1430l-382 951z" />
<glyph unicode="&#x221e;" horiz-adv-x="1527" d="M450 -2q73 0 138 43t90 110l91 238l90 -236q25 -67 90 -110t138 -43v73q-49 0 -94.5 28.5t-64.5 80.5l-118 312l118 310q19 52 64.5 80.5t94.5 28.5v73q-73 0 -138 -43t-90 -110l-90 -236l-91 238q-25 67 -90 110t-138 43v-73q49 0 94.5 -28.5t64.5 -80.5l120 -312 l-120 -314q-19 -52 -64.5 -80.5t-94.5 -28.5v-73zM371 -2v73q-97 0 -167 77t-70 147v400q0 77 65.5 148.5t171.5 71.5v73q-75 0 -137.5 -28.5t-99.5 -71t-57 -87t-20 -81.5v-450q0 -29 11.5 -63.5t37.5 -71.5t61.5 -67.5t89 -50t114.5 -19.5zM1166 -4q61 0 114.5 19.5t89 50 t61.5 67.5t37.5 71.5t11.5 63.5v450q0 37 -20 81.5t-57 87t-99.5 71t-137.5 28.5v-73q106 0 171.5 -71.5t65.5 -148.5v-400q0 -70 -70 -147t-167 -77v-73z" />
<glyph unicode="&#x222b;" horiz-adv-x="545" d="M2 -276v-51q32 -12 67 -8.5t68.5 13.5t63.5 37.5t53 64t36.5 92t13.5 122.5v1202q0 73 15.5 129t40 86.5t56 49.5t63 18t61.5 -9v52q-25 8 -52.5 8.5t-56.5 -8.5t-56 -25.5t-51 -44.5t-42 -64t-28.5 -85.5t-10.5 -106.5v-1202q0 -58 -8.5 -104t-23 -76t-35 -51t-42 -31 t-45.5 -14t-45 -2t-42 8z" />
<glyph unicode="&#x2248;" horiz-adv-x="1087" d="M96 500q105 68 205 68q43 0 87 -14.5t82 -35t76.5 -40.5t86.5 -34.5t96 -14.5q117 0 262 88v65q-141 -86 -250 -86q-56 0 -114.5 21.5t-100.5 48t-100 48t-114 21.5q-101 0 -216 -67v-68zM96 769q106 69 205 69q43 0 87 -14.5t82 -35t76.5 -40.5t86.5 -34.5t96 -14.5 q117 0 262 88v67q-141 -86 -250 -86q-56 0 -114.5 21.5t-100.5 48t-100 48t-114 21.5q-101 0 -216 -67v-71z" />
<glyph unicode="&#x2260;" horiz-adv-x="800" d="M159 -130l130 547h-193v77h210l31 128h-241v77h260l138 585h76l-137 -585h271v-77h-289l-30 -128h319v-77h-338l-129 -547h-78z" />
<glyph unicode="&#x2264;" horiz-adv-x="792" d="M708 278v76l-589 331l589 322v76l-677 -367v-61zM52 101h683v73h-683v-73z" />
<glyph unicode="&#x2265;" horiz-adv-x="792" d="M57 278l678 377v61l-678 367v-76l590 -322l-590 -331v-76zM52 101h683v73h-683v-73z" />
<glyph unicode="&#x25ca;" horiz-adv-x="817" d="M-6 674l368 -678h61l377 678l-367 677h-62zM71 674l331 589l321 -589l-331 -590z" />
<glyph unicode="&#x25cc;" horiz-adv-x="1217" d="M322 926q0 -27 19 -46t46 -19t46 19t19 46t-19 46t-46 19t-46 -19t-19 -46zM157 762q0 -27 19 -46t46 -19t46 19t19 46t-19 46t-46 19t-46 -19t-19 -46zM322 138q0 -27 19 -46t46 -19t46 19t19 46t-19 46t-46 19t-46 -19t-19 -46zM157 302q0 -27 19 -46t46 -19t46 19 t19 46t-19 46t-46 19t-46 -19t-19 -46zM781 138q0 -27 19 -46t46 -19t46 19t19 46t-19 46t-46 19t-46 -19t-19 -46zM946 302q0 -27 19 -46t46 -19t46 19t19 46t-19 46t-46 19t-46 -19t-19 -46zM946 762q0 -27 19 -46t46 -19t46 19t19 46t-19 46t-46 19t-46 -19t-19 -46z M781 926q0 -27 19 -46t46 -19t46 19t19 46t-19 46t-46 19t-46 -19t-19 -46zM1007 532q0 -27 19 -46t46 -19t46 19t19 46t-19 46t-46 19t-46 -19t-19 -46zM551 77q0 -27 19 -46.5t46 -19.5t46 19.5t19 46.5t-19 46t-46 19t-46 -19t-19 -46zM96 532q0 -27 19 -46t46 -19t46 19 t19 46t-19 46t-46 19t-46 -19t-19 -46zM551 988q0 -27 19 -46t46 -19t46 19t19 46t-19 46t-46 19t-46 -19t-19 -46z" />
<glyph unicode="&#x25fc;" horiz-adv-x="985" d="M0 986h986v-986h-986v986z" />
<glyph unicode="&#x5713;" horiz-adv-x="1613" d="M96 934h57v172h40v58h-40v172h-57v-402zM224 1106h42v-172h57v402h-57v-172h-42v-58zM379 934h57v402h-57v-402zM459 1150l104 -216h59l-103 216l101 186h-59zM693 302q1 -37 22.5 -84t59 -92t96 -81t124.5 -47v-88h58v157q-5 0 -13.5 1t-34.5 7.5t-50.5 16t-55.5 29.5 t-56 46t-47 68t-32 92zM708 984q0 -65 16 -113t49.5 -81.5t72.5 -56t98 -44.5q17 -6 109 -23v79q-58 13 -101 29t-83.5 42t-62 65.5t-21.5 90.5q0 62 22 114t54.5 84.5t71 55t69 32t51.5 9.5v169h-58v-104q-47 -11 -94 -36t-92 -65.5t-73 -105t-28 -141.5zM1139 -90h57v88 q143 23 242 138t99 253q0 75 -19 130t-55 89.5t-76 55t-95 35.5q-12 3 -153 28v-76q52 -9 92 -19.5t85.5 -30.5t75 -45.5t49 -65.5t19.5 -90q0 -74 -35.5 -139.5t-87.5 -106t-105 -64t-93 -23.5v-157zM1139 1267q9 0 23.5 -2t54 -15.5t73 -35.5t69 -69t52.5 -110l72 23 q-5 30 -26.5 70t-56 82.5t-89 77t-115.5 46.5v102h-57v-169z" />
<glyph horiz-adv-x="953" d="M239 0l19 77h370q86 0 138.5 64.5t52.5 155.5v229q0 169 -249 169h-264l-172 -695h-77l150 599q40 167 40 237q0 86 -44 126.5t-146 40.5v77q192 0 245 -134q77 137 240 137q202 0 287 -178l-73 -26q-9 19 -15.5 30t-25 32.5t-39 33.5t-56 22t-78.5 10q-45 0 -81.5 -16.5 t-58.5 -39.5t-39.5 -58.5t-25 -61.5t-14.5 -60h247q41 0 68 -1.5t64.5 -8t62 -18.5t52 -35t43 -55.5t26 -81.5t10.5 -112v-153q0 -129 -66 -217.5t-187 -88.5h-404z" />
<glyph horiz-adv-x="953" d="M507 1185v383h77v-383h-77zM239 0l19 77h370q86 0 138.5 64.5t52.5 155.5v229q0 169 -249 169h-264l-172 -695h-77l150 599q40 167 40 237q0 86 -44 126.5t-146 40.5v77q192 0 245 -134q77 137 240 137q202 0 287 -178l-73 -26q-9 19 -15.5 30t-25 32.5t-39 33.5t-56 22 t-78.5 10q-45 0 -81.5 -16.5t-58.5 -39.5t-39.5 -58.5t-25 -61.5t-14.5 -60h247q41 0 68 -1.5t64.5 -8t62 -18.5t52 -35t43 -55.5t26 -81.5t10.5 -112v-153q0 -129 -66 -217.5t-187 -88.5h-404z" />
</font>
</defs>
</svg>
