<?xml version="1.0" standalone="no"?>
<!DOCTYPE svg PUBLIC "-//W3C//DTD SVG 1.1//EN" "http://www.w3.org/Graphics/SVG/1.1/DTD/svg11.dtd" >
<svg xmlns="http://www.w3.org/2000/svg" xmlns:xlink="http://www.w3.org/1999/xlink" version="1.1">
<metadata></metadata>
<defs>
<font id="stick_no_billsmedium" horiz-adv-x="1353" >
<font-face units-per-em="2048" ascent="1638" descent="-410" />
<missing-glyph horiz-adv-x="453" />
<glyph unicode="fi" horiz-adv-x="945" d="M105 819v115h121v123q0 29 6 61.5t23 72t43 70t71.5 51t103.5 20.5h48l-27 -115h-35q-113 -12 -113 -160v-125h333v-932h-120v819h-213v-819h-120v819h-121zM540 1141q0 31 23 53.5t55 22.5t54.5 -22.5t22.5 -53.5t-22.5 -53t-54.5 -22t-55 22t-23 53z" />
<glyph unicode="fl" horiz-adv-x="690" d="M105 819v115h121v123q0 29 6 61.5t23 72t43 70t71.5 51t103.5 20.5h231v-1332h-122v1217h-113q-35 -1 -60.5 -18t-37 -38t-18 -48.5t-7 -38t-0.5 -17.5v-125l123 2v-115h-123v-819h-120v819h-121z" />
<glyph unicode=" "  horiz-adv-x="453" />
<glyph unicode="&#x09;" horiz-adv-x="453" />
<glyph unicode="&#xa0;" horiz-adv-x="453" />
<glyph unicode="!" horiz-adv-x="311" d="M80 59q0 -30 23 -52t54 -22t53 22t22 52q0 32 -22 54.5t-53 22.5t-54 -23t-23 -54zM96 318h124v1022h-124v-1022z" />
<glyph unicode="&#x22;" horiz-adv-x="503" d="M78 890h123v519h-123v-519zM302 890h125v519h-125v-519z" />
<glyph unicode="#" horiz-adv-x="1437" d="M71 394h321l-63 -352h121l61 352h314l-61 -352h118l62 352l333 -2l17 117h-329l55 322l322 -2l19 118h-320l63 358h-120l-61 -358h-316l65 358h-121l-63 -358h-335l-19 -116h335l-56 -320h-319zM532 511l56 320h314l-56 -322z" />
<glyph unicode="$" horiz-adv-x="976" d="M65 302q1 -35 21 -80t54.5 -88t89 -78.5t115.5 -49.5v-96h78v207q-4 0 -11.5 1.5t-29 7.5t-41.5 15t-46 27t-46.5 40.5t-38 58t-24.5 78.5zM80 980q0 -67 16.5 -117.5t50 -86t72.5 -59.5t97 -47q25 -9 107 -29v138q-99 27 -156.5 71.5t-57.5 123.5q0 60 25 108.5t61.5 76 t70 42t57.5 16.5v219h-78v-113q-46 -14 -89 -39.5t-84.5 -66t-66.5 -102t-25 -135.5zM515 -90h78v96q134 28 225 140t91 246q0 73 -19.5 128.5t-56 92t-76 59.5t-93.5 42q-49 18 -149 38v-134q44 -10 76.5 -20.5t70 -28.5t61.5 -40.5t40 -56.5t16 -76q0 -63 -29 -118 t-71 -88.5t-86 -52.5t-78 -20v-207zM515 1217q7 0 19 -2t44 -14t59.5 -31.5t56 -59t41.5 -92.5l121 40q-4 27 -24 64.5t-51.5 78t-81.5 75.5t-106 50v110h-78v-219z" />
<glyph unicode="%" horiz-adv-x="744" d="M90 1116q0 -39 27.5 -66.5t66.5 -27.5t66.5 27.5t27.5 66.5t-27.5 66.5t-66.5 27.5t-66.5 -27.5t-27.5 -66.5zM142 -31h124l333 1415h-122zM463 235q0 -39 27.5 -66t66.5 -27t66.5 27t27.5 66t-27.5 66.5t-66.5 27.5t-66.5 -27.5t-27.5 -66.5z" />
<glyph unicode="&#x26;" horiz-adv-x="1228" d="M701 214l88 -97q-131 -119 -299 -119q-110 0 -205.5 51t-154.5 146t-59 213q0 188 155 314l88 -98q-111 -86 -111 -218q0 -124 87.5 -202t203.5 -78q57 0 112 23t95 65zM789 1039l122 31q-23 111 -104.5 189t-192.5 92v-124q72 -12 119.5 -69t55.5 -119zM509 1225v126 q-130 -17 -215 -111t-85 -222q0 -75 27 -127t93 -127l693 -743l136 36l-203 221q61 68 105 170t48 212h-132q-1 -73 -35.5 -154t-79.5 -127l-432 463q-3 4 -17.5 18.5t-22 23t-20 26t-19 32t-12 35t-5.5 41.5q0 88 54 144t122 63z" />
<glyph unicode="'" horiz-adv-x="279" d="M78 890h123v519h-123v-519z" />
<glyph unicode="(" horiz-adv-x="411" d="M77 362v614q0 57 8.5 104.5t20 81t35 63.5t41.5 47.5t51.5 37t53.5 29t58 26.5v-79q-66 -39 -90 -64q-67 -70 -67 -223v-632q0 -73 14 -128.5t41 -91.5t49 -55.5t54 -39.5v-79q-112 54 -171.5 112.5t-78.5 120t-19 156.5z" />
<glyph unicode=")" horiz-adv-x="422" d="M65 -33q281 116 281 404v605q0 152 -65 245t-214 149l-2 -78q29 -17 47 -29.5t44.5 -38t41 -54t26 -73.5t11.5 -100v-603q0 -51 -6 -94.5t-14 -73.5t-24.5 -57.5t-27.5 -43t-33 -33.5t-32 -25t-33 -21v-79z" />
<glyph unicode="*" horiz-adv-x="662" d="M65 1342l195 -129l-197 -130l54 -74l166 113v-207h94v209l168 -121l54 75l-195 134l195 130l-52 74l-170 -111v198h-94v-190l-162 103z" />
<glyph unicode="+" horiz-adv-x="844" d="M63 501h295v-334h122v334h301v121h-301v331h-122v-331h-295v-121z" />
<glyph unicode="," horiz-adv-x="357" d="M82 -44h123l71 291h-123z" />
<glyph unicode="-" horiz-adv-x="769" d="M82 501h605v121h-605v-121z" />
<glyph unicode="." horiz-adv-x="331" d="M71 86q0 -39 27.5 -66.5t66.5 -27.5t66 27.5t27 66.5t-27 66.5t-66 27.5t-66.5 -27.5t-27.5 -66.5z" />
<glyph unicode="/" horiz-adv-x="622" d="M82 -31h125l333 1415h-123z" />
<glyph unicode="0" horiz-adv-x="964" d="M425 0q-32 1 -63 9t-67 28.5t-67 52.5t-60.5 85t-50.5 120.5t-33.5 165t-12.5 213.5q0 145 21 260t55.5 188t82 122t96 70t101.5 24v-125q-84 -7 -153.5 -133t-72.5 -337q-1 -17 -1 -33t0.5 -34t0.5 -27q0 -112 15 -203t38.5 -148t54.5 -97t59.5 -57t56.5 -20v-124z M540 0v124q34 5 64 23t60.5 57t52.5 95.5t35.5 146.5t13.5 203v94q0 206 -71.5 334t-156.5 136v125q53 -3 101.5 -24t96 -70t82 -122t55.5 -188t21 -260q0 -116 -12.5 -213.5t-33.5 -165t-50.5 -120.5t-60.5 -85t-67 -52.5t-67 -28.5t-63 -9z" />
<glyph unicode="1" horiz-adv-x="369" d="M71 1135h96v-1135h132v1340h-132l-96 -79v-126z" />
<glyph unicode="2" horiz-adv-x="968" d="M73 995l115 -23q10 66 36 115t54.5 72.5t61.5 38t48.5 17t24.5 2.5v123q-143 -8 -237 -111t-103 -234zM109 0h773v126h-773v-126zM109 212h140q0 55 23.5 105.5t55.5 85.5t83 71.5t90 57t94.5 49t78.5 41.5q112 66 166.5 140.5t57.5 188.5q1 78 -20 145.5t-66 123.5 t-123.5 88t-183.5 32v-123q141 0 203.5 -73.5t62.5 -192.5q0 -30 -8.5 -58t-18.5 -48t-33.5 -43.5t-37 -35.5t-46 -33t-44.5 -27.5t-47 -26.5q-11 -6 -60 -31.5t-89 -47.5t-95 -64t-92 -85t-64 -106.5t-27 -132.5z" />
<glyph unicode="3" horiz-adv-x="970" d="M519 -6q168 0 273.5 101.5t105.5 266.5q0 203 -146 306q146 97 146 304q0 165 -105.5 266.5t-273.5 101.5v-123q114 -2 185 -65.5t71 -183.5q0 -241 -293 -241v-120q293 0 293 -241q0 -119 -71 -183t-185 -66v-123zM73 339q6 -84 48 -159.5t119 -127.5t173 -58v123 q-9 0 -24.5 2.5t-48.5 17t-61.5 38t-54.5 72.5t-36 115zM73 995l115 -23q10 66 36 115t54.5 72.5t61.5 38t48.5 17t24.5 2.5v123q-143 -8 -237 -111t-103 -234z" />
<glyph unicode="4" horiz-adv-x="953" d="M52 276h503v122h-367l367 626v230l-503 -856v-122zM647 0h132v276h103v122h-103v944h-132v-1342z" />
<glyph unicode="5" horiz-adv-x="995" d="M78 678l117 -69q88 125 234 128v119q-116 0 -215 -71l35 432h566v123h-681zM519 0q77 2 148.5 30.5t129 80.5t92.5 134t35 182q0 82 -24.5 156.5t-72 136t-127.5 98.5t-181 38v-119q44 -1 90.5 -18t91 -51t73 -96.5t28.5 -142.5q0 -58 -18.5 -109t-48 -86t-67 -61 t-75.5 -38.5t-74 -13.5v-121zM75 241q34 -102 131.5 -171.5t220.5 -69.5v121q-87 8 -147 46.5t-96 117.5z" />
<glyph unicode="6" horiz-adv-x="1006" d="M465 -2q-81 2 -144.5 29.5t-106 76.5t-71.5 109.5t-44 139.5t-21.5 154.5t-6.5 166.5q0 54 3.5 106.5t14.5 118t28.5 122.5t48.5 114t71 98.5t98.5 69.5t129.5 33v-123q-70 -11 -121 -54t-78 -97t-43 -130t-20 -134.5t-4 -129.5q40 75 112.5 110t153.5 35v-122 q-114 -4 -177.5 -87t-63.5 -200q0 -36 12 -79.5t37.5 -90.5t75.5 -79t116 -34v-123zM570 -2v123q73 3 130.5 49t84.5 108t27 126q0 134 -72.5 210t-169.5 81v118q172 0 269 -115.5t97 -291.5q0 -175 -108.5 -290.5t-257.5 -117.5zM783 1068q-25 60 -81 103.5t-134 43.5v123 q105 0 190.5 -57t127.5 -144z" />
<glyph unicode="7" horiz-adv-x="845" d="M835 1217v123h-764v-125zM379 0h136q18 264 93.5 565t214.5 560h-136q-132 -249 -209.5 -552.5t-98.5 -572.5z" />
<glyph unicode="8" horiz-adv-x="978" d="M436 -2v123q-105 8 -174 75.5t-69 188.5q0 60 22 104.5t59.5 68.5t78 35.5t85.5 13.5v122q-117 3 -176 68t-59 158q0 98 61 175.5t176 84.5v123q-152 0 -257.5 -115t-105.5 -268q0 -93 38 -168t107 -119q-151 -87 -151 -293q0 -153 104 -265t261 -112zM544 -2 q103 0 187 52.5t130 139t46 185.5q0 207 -149 293q68 45 106 120t38 167q0 153 -106 268t-258 115v-123q115 -7 177 -84.5t62 -175.5q0 -93 -59.5 -158t-177.5 -68v-122q45 -2 85.5 -13.5t78 -35.5t59.5 -68.5t22 -104.5q0 -121 -69 -188.5t-172 -75.5v-123z" />
<glyph unicode="9" horiz-adv-x="1002" d="M534 2v124q50 1 96 30.5t86 89.5t64 166.5t24 245.5q-3 -3 -20 -24.5t-34 -36t-46.5 -33.5t-73 -29.5t-96.5 -10.5v125q117 4 180 80.5t63 206.5q0 41 -15 86.5t-43 88.5t-76.5 72t-108.5 32v125q70 0 127.5 -20t98 -54.5t71.5 -85.5t50 -108.5t30.5 -129t16 -140 t4.5 -149.5q0 -51 -3.5 -103t-14.5 -118.5t-28.5 -124.5t-48.5 -115.5t-71.5 -98.5t-100 -66t-131.5 -25zM444 524q-179 0 -276 111.5t-97 294.5q0 174 112 291t261 119v-125q-62 -3 -112 -32.5t-79 -73t-44.5 -90t-15.5 -89.5q0 -125 67 -201t184 -80v-125zM107 214l104 69 q32 -69 96.5 -113t136.5 -44v-126q-110 0 -199.5 60t-137.5 154z" />
<glyph unicode=":" horiz-adv-x="344" d="M96 103q0 -31 22 -52.5t54 -21.5t53.5 21.5t21.5 52.5q0 32 -22 54.5t-53 22.5t-53.5 -22.5t-22.5 -54.5zM98 658q0 -31 22 -52.5t52 -21.5q32 0 54.5 21.5t22.5 52.5q0 32 -22.5 54.5t-54.5 22.5q-30 0 -52 -23t-22 -54z" />
<glyph unicode=";" horiz-adv-x="430" d="M96 -44h122l71 291h-122zM182 622q0 -32 22.5 -54.5t53.5 -22.5q32 0 54.5 22.5t22.5 54.5t-22.5 54.5t-54.5 22.5q-31 0 -53.5 -22.5t-22.5 -54.5z" />
<glyph unicode="&#x3c;" horiz-adv-x="819" d="M71 519l677 -368v123l-518 285l518 274v124l-677 -360v-78z" />
<glyph unicode="=" horiz-adv-x="800" d="M96 371h608v123h-608v-123zM96 622h608v123h-608v-123z" />
<glyph unicode="&#x3e;" horiz-adv-x="819" d="M71 151l677 368v78l-677 360v-124l519 -274l-519 -285v-123z" />
<glyph unicode="?" horiz-adv-x="907" d="M71 1169l82 -84q40 53 108.5 94.5t165.5 41.5q130 0 209.5 -79t79.5 -200q0 -292 -387 -299v-455h123v340q8 1 22 3t53.5 13t76 27t81 48t76 73t53.5 106t22 142q-6 186 -114 296t-291 110q-59 0 -111.5 -12t-88 -29t-69 -43t-52 -46t-39.5 -47zM314 34q0 -32 22 -54 t54 -22t54.5 22.5t22.5 53.5q0 32 -22.5 54.5t-54.5 22.5q-31 0 -53.5 -22.5t-22.5 -54.5z" />
<glyph unicode="@" horiz-adv-x="1491" d="M63 591q0 -205 89 -366t254 -252.5t379 -91.5q158 0 298.5 50t244.5 132l-51 96q-239 -167 -496 -167q-168 0 -303.5 73.5t-214.5 211.5t-79 316q0 171 89.5 312t238.5 220t324 79q83 0 166.5 -29t152 -81t111.5 -132t43 -173t-21 -165.5t-52 -113t-70 -67t-70 -35 t-57 -8.5q-44 0 -70 39.5t-20 69.5q6 37 18 81l84 329h-100l-11 -42q-20 20 -32 30t-49 23.5t-84 13.5q-52 0 -107.5 -23.5t-105.5 -67.5t-82 -117t-32 -162q0 -116 65.5 -197.5t156.5 -81.5q68 0 118.5 30t70.5 64q13 -35 59.5 -70.5t95.5 -35.5q41 0 87.5 10.5t106.5 44 t106.5 86t79 148t32.5 218.5q0 101 -35 188.5t-93.5 148.5t-135 104.5t-160 64.5t-167.5 21q-217 0 -394 -95.5t-277.5 -262t-100.5 -368.5z" />
<glyph unicode="A" horiz-adv-x="874" d="M59 0h129l206 924l-46 213h-32zM329 232h314l50 -232h130l-299 1338h-130l217 -980h-255z" />
<glyph unicode="B" horiz-adv-x="966" d="M71 0v1340h130v-1340h-130zM293 -2v119h136q91 0 159.5 25.5t105.5 67t54.5 87.5t17.5 95q0 99 -60 160.5t-187 61.5h-226v117h226q241 0 241 218q0 47 -16.5 93t-49.5 87t-90.5 66.5t-130.5 25.5h-180v119h193q103 0 183.5 -35t127 -92t70 -123t23.5 -135 q0 -92 -37 -166t-95 -117q65 -48 101.5 -114.5t36.5 -170.5q0 -166 -112 -277.5t-292 -111.5h-199z" />
<glyph unicode="C" horiz-adv-x="976" d="M75 346q0 -37 12.5 -81.5t42 -93.5t72 -89t109 -66t146.5 -26v129q-63 0 -114 25t-79 62.5t-42.5 74t-14.5 65.5v645q0 30 14 66.5t42 74.5t79 63.5t115 25.5v128q-80 1 -146.5 -25.5t-109 -66.5t-72 -90t-42 -94.5t-12.5 -81.5v-645zM549 -10q91 0 173.5 46.5t134.5 130 t52 181.5l-120 29q0 -19 -2 -32q-4 -40 -14 -64q-13 -44 -41 -77t-58.5 -48.5t-59 -24.5t-46.5 -11l-19 -1v-129zM549 1221q7 0 18 -1.5t42.5 -12t59 -27.5t57.5 -53t47 -84q12 -29 12 -55q2 -8 2 -33l122 33q0 138 -112 250t-248 111v-128z" />
<glyph unicode="D" horiz-adv-x="903" d="M78 0h131v1340h-131v-1340zM299 0q63 0 110 2.5t105 11.5t100.5 24.5t85 43.5t69.5 67t43.5 97t16.5 131v586q0 77 -18.5 137t-55 100.5t-82.5 68.5t-108.5 43t-125.5 21.5t-140 6.5v-128q53 0 90 -1.5t82 -7.5t75 -16t61 -28.5t49 -44.5t29.5 -64t11.5 -87v-586 q0 -44 -8.5 -79.5t-26 -61t-37.5 -44t-52 -30.5t-59 -19t-68.5 -10t-71 -4t-75.5 -1v-128z" />
<glyph unicode="E" horiz-adv-x="849" d="M78 0h697v128h-566v475h386v128h-386v481h566v128h-697v-1340z" />
<glyph unicode="F" horiz-adv-x="844" d="M78 2h131v601h386v128h-386v481h566v128h-697v-1338z" />
<glyph unicode="G" horiz-adv-x="981" d="M75 367q0 -79 28 -145t71 -107.5t96 -71t100 -41.5t86 -12v129q-19 0 -48 8t-64.5 27t-65.5 46t-50.5 71t-20.5 96v605q-2 99 72.5 174t176.5 75v128q-74 1 -138 -23.5t-106.5 -62.5t-73.5 -85.5t-46 -92t-17 -82.5v-636zM547 -10q79 0 164 54t140.5 136t55.5 157v339 h-360v-123h230v-189q0 -96 -81.5 -170.5t-148.5 -74.5v-129zM547 1221q27 0 62.5 -13t73 -39.5t65 -75t31.5 -109.5q2 -8 2 -42l126 46q0 138 -111 250t-249 111v-128z" />
<glyph unicode="H" horiz-adv-x="918" d="M77 0h130v611h206v126h-206v603h-130v-1340zM505 611h207v-611h130v1340h-130v-603h-207v-126z" />
<glyph unicode="I" horiz-adv-x="290" d="M80 0h131v1340h-131v-1340z" />
<glyph unicode="J" horiz-adv-x="943" d="M36 369q0 -76 26.5 -141t67.5 -107.5t91 -73t95 -44t82 -13.5v129q-30 0 -67.5 15.5t-75 45.5t-63 82.5t-25.5 116.5v84h-131v-94zM492 -10q37 0 84 12.5t100 42t96.5 71.5t72 108t28.5 145v971h-130v-971q-1 -49 -21.5 -92.5t-50.5 -71t-65 -48t-64.5 -29.5t-49.5 -9 v-129z" />
<glyph unicode="K" horiz-adv-x="937" d="M78 0h131v1340h-131v-1340zM291 653l469 -653h143l-467 653l460 687h-144z" />
<glyph unicode="L" horiz-adv-x="832" d="M78 0h720v128h-589v1212h-131v-1340z" />
<glyph unicode="M" horiz-adv-x="1332" d="M80 0h131v718l-113 277h-18v-995zM80 1259l525 -1259h103l322 727v282h-19l-354 -800l-468 1131h-109v-81zM1122 0h130v1340h-130v-1340z" />
<glyph unicode="N" horiz-adv-x="1012" d="M80 0h131v900l-115 185h-16v-1085zM80 1258l787 -1258h65v163l-737 1177h-115v-82zM802 528l115 -189h15v1001h-130v-812z" />
<glyph unicode="O" horiz-adv-x="1008" d="M75 373q0 -79 28 -145.5t70.5 -109t94.5 -72.5t98.5 -43t83.5 -13v131q-31 0 -71 17t-79 46.5t-66 80t-27 108.5v599q0 32 16.5 73.5t46 80.5t78 66t104.5 27v130q-72 0 -136 -25t-106.5 -63.5t-74 -86t-46 -91.5t-14.5 -80v-630zM555 -10q37 0 83.5 13t99 43t95 72.5 t71 109t28.5 145.5v630q0 35 -14.5 79t-46 91.5t-74.5 86.5t-106.5 64t-135.5 25v-130q58 0 107 -25.5t78.5 -64.5t45.5 -80.5t16 -76.5v-599q0 -59 -27 -109.5t-67 -80t-80.5 -46t-72.5 -16.5v-131z" />
<glyph unicode="P" horiz-adv-x="924" d="M80 0v1340h131v-1340h-131zM302 595v125h224q113 0 170.5 58.5t57.5 193.5q0 127 -56.5 185t-173.5 58h-222v125h255q158 -5 244.5 -91t86.5 -279q0 -202 -85.5 -287t-245.5 -88h-255z" />
<glyph unicode="Q" horiz-adv-x="1008" d="M75 373q0 -79 28 -145.5t70.5 -109t95.5 -72.5t100.5 -43t87.5 -13v129q-11 0 -31 5t-49.5 15t-58.5 30t-54 46.5t-41 67.5t-16 90v599q0 37 16.5 79t46 80.5t79 64t108.5 25.5v128q-74 1 -138.5 -24t-108 -64t-75 -86t-46 -91.5t-14.5 -80.5v-630zM551 -10l140 -195 l105 73l-109 161q47 23 84 49t76.5 66.5t62 99t22.5 129.5v630q0 35 -14.5 79.5t-46.5 92t-75.5 86.5t-107.5 64t-137 24v-128q59 0 108 -25.5t79 -64t46 -80.5t16 -79v-599q0 -57 -23.5 -104t-56 -73.5t-69.5 -45t-62.5 -25t-37.5 -6.5v-129z" />
<glyph unicode="R" horiz-adv-x="972" d="M80 0h131v1340h-131v-1340zM302 591h242q62 2 104 -13t66 -50t35.5 -78.5t16.5 -108.5l28 -341h125l-33 415q-7 89 -45 150.5t-96 87.5q132 85 132 315q0 98 -26.5 170.5t-75.5 114.5t-110 63t-137 24h-226v-117h192q133 0 193.5 -64t60.5 -196q0 -128 -52.5 -189.5 t-165.5 -61.5h-228v-121z" />
<glyph unicode="S" horiz-adv-x="947" d="M52 302q1 -32 17 -72t47.5 -81.5t73.5 -76t100 -56.5t120 -22v123q-8 1 -22 3.5t-51 17t-67.5 36.5t-60 67t-39.5 104zM67 980q0 -67 16 -117.5t49.5 -86t73 -59.5t96.5 -47q25 -10 75.5 -21.5t98.5 -20t102 -27t94.5 -42.5t67 -66t26.5 -97q0 -63 -29.5 -118t-72 -88.5 t-86.5 -52.5t-77 -20v-123q105 0 197 56.5t145 148.5t53 193q0 73 -19.5 128.5t-56 92t-76 59.5t-93.5 42q-33 12 -101.5 27t-123 30t-111 39t-88.5 65.5t-32 98.5q0 60 25 108.5t62 76t70.5 42t57.5 16.5v123q-33 0 -74.5 -12t-89.5 -40.5t-87.5 -68t-65.5 -102.5t-26 -137 zM501 1217q7 0 19 -2t44.5 -14t60 -31.5t55.5 -59t40 -92.5l122 40q-4 34 -29.5 80t-66.5 92t-106.5 78t-138.5 32v-123z" />
<glyph unicode="T" horiz-adv-x="899" d="M36 1213h349v-1213h130v1213h350v127h-829v-127z" />
<glyph unicode="U" horiz-adv-x="1001" d="M73 369q0 -79 29 -145t72.5 -108t97 -71.5t100.5 -42t84 -12.5v129q-19 0 -49 9t-65.5 29t-66.5 47.5t-51.5 71t-20.5 93.5v971h-130v-971zM547 -10q38 0 85 12t100 41.5t96 71.5t71.5 108.5t28.5 145.5v971h-130v-971q-1 -64 -31 -115.5t-73 -79t-82 -41.5t-65 -14v-129 z" />
<glyph unicode="V" horiz-adv-x="909" d="M17 1340l389 -1340h50l45 132l-352 1208h-132zM477 503l55 -189h19q11 41 170.5 518t168.5 508h-130z" />
<glyph unicode="W" horiz-adv-x="1515" d="M19 1340h130l349 -1195l-44 -145h-46zM467 526l220 814h130l324 -1202l-46 -138h-46l-297 1102q-32 -117 -83 -303.5t-86 -314t-41 -149.5h-19zM1125 524l242 816h130l-297 -1005h-19z" />
<glyph unicode="X" horiz-adv-x="888" d="M50 0h130l264 538l262 -538h132l-331 693l308 647h-128l-243 -498l-245 498h-126l308 -647z" />
<glyph unicode="Y" horiz-adv-x="912" d="M48 1340l323 -858v-482h134v484l-321 856h-136zM490 794l63 -187h10l302 733h-134z" />
<glyph unicode="Z" horiz-adv-x="844" d="M71 0h700l2 130h-559l557 1087v123h-700v-128h559l-559 -1088v-124z" />
<glyph unicode="[" horiz-adv-x="386" d="M96 -69h214v111h-92l6 1261h86v111h-214v-1483z" />
<glyph unicode="\" horiz-adv-x="614" d="M78 1370l334 -1414h124l-335 1414h-123z" />
<glyph unicode="]" horiz-adv-x="382" d="M77 -69h214v1483h-214v-111h86l5 -1261h-91v-111z" />
<glyph unicode="^" horiz-adv-x="857" d="M101 880h121l205 412l208 -412h123l-285 567h-86z" />
<glyph unicode="_" horiz-adv-x="1002" d="M71 -283v-109h861v109h-861z" />
<glyph unicode="`" horiz-adv-x="401" d="M78 1449l106 -291h88l-71 291h-123z" />
<glyph unicode="a" horiz-adv-x="891" d="M69 237v90q0 59 19.5 103.5t76.5 74.5q36 19 162.5 49.5t223.5 63.5t96 67v35q0 84 -56.5 134.5t-125.5 50.5v115q75 0 136 -28t97 -72.5t55.5 -95.5t19.5 -102v-536q0 -11 3 -23.5t15 -26.5t32 -14v-120q-53 0 -85 18t-57 51q-36 -33 -95.5 -51t-120.5 -18v119 q79 0 131.5 39.5t52.5 132.5v241q-45 -24 -146 -48.5t-186.5 -46.5t-109.5 -45q-23 -19 -23 -65v-61q1 -75 54 -111t135 -36v-119q-135 0 -219.5 72t-84.5 163zM82 766q-1 105 90 179.5t203 74.5v-118q-72 0 -126 -50t-54 -130z" />
<glyph unicode="b" horiz-adv-x="840" d="M78 0h129v1347h-129v-1347zM297 0h180q73 0 134.5 30t97 74.5t55 90t19.5 83.5v465q-2 98 -91 185.5t-212 87.5h-183v-122h183q66 0 121.5 -51t55.5 -108v-454q0 -58 -58 -108.5t-120 -50.5h-182v-122z" />
<glyph unicode="c" horiz-adv-x="840" d="M75 278v459q1 43 21 90t57 90t99.5 71t137.5 28v-120q-81 0 -134 -54t-53 -111v-453q0 -56 53 -106.5t134 -50.5v-121q-68 0 -123.5 20t-90 51t-58.5 69.5t-33.5 73t-9.5 64.5zM477 894v122q119 0 204 -83.5t85 -199.5l-119 -44q0 32 -2 40q-7 80 -57 122.5t-111 42.5z M475 -2v121q74 0 129.5 48t63.5 124v38l121 -46q0 -75 -45.5 -142t-118 -105.5t-150.5 -37.5z" />
<glyph unicode="d" horiz-adv-x="836" d="M57 278q0 -38 19.5 -83.5t55.5 -90t97.5 -74.5t134.5 -30h176v122h-180q-63 0 -120.5 50t-57.5 109v452q0 57 55 108.5t123 52.5h180v120h-182q-123 0 -212 -87t-89 -184v-465zM630 0h130v1347h-130v-1347z" />
<glyph unicode="e" horiz-adv-x="882" d="M75 278q0 -37 21 -83.5t59.5 -90.5t102 -74t138.5 -30v119q-76 0 -134.5 55.5t-58.5 103.5v185h603v282q0 73 -49.5 137t-123 99t-147.5 35v-116q76 0 136.5 -50.5t60.5 -122.5v-141h-480v141q0 55 56 112t135 57v120q-74 0 -137 -29t-101 -72.5t-59 -89t-22 -82.5v-465z M486 0q122 0 208.5 68.5t113.5 166.5l-113 43q-13 -57 -69.5 -106.5t-139.5 -49.5v-122z" />
<glyph unicode="f" horiz-adv-x="507" d="M50 813h124v-813h127v813h126v123l-126 -2v126q0 156 124 161h27l27 123h-50q-59 -1 -105.5 -22.5t-74 -53t-45 -71.5t-24 -73.5t-6.5 -63.5v-124h-124v-123z" />
<glyph unicode="g" horiz-adv-x="840" d="M52 -352h413q72 1 132 32t95 76t54.5 90t19.5 79v1095h-123v-73q-25 25 -77.5 49t-106.5 24v-118q63 0 123.5 -45.5t60.5 -115.5v-462q0 -59 -58.5 -110.5t-125.5 -51.5v-113q101 0 184 76v-155q0 -51 -57 -103t-148 -56h-354zM69 278q0 -36 18.5 -80.5t53.5 -89 t97 -74.5t137 -30v118q-77 0 -129.5 53t-52.5 104v464q0 50 53.5 104.5t128.5 54.5v118q-74 0 -135 -29.5t-96.5 -73.5t-54.5 -88.5t-20 -80.5v-470z" />
<glyph unicode="h" horiz-adv-x="867" d="M77 -4h124v718q0 60 61.5 114t135.5 54v119q-124 0 -199 -82v427h-122v-1350zM486 882q91 0 139.5 -51.5t48.5 -116.5v-718h122v735q0 108 -85 189t-225 81v-119z" />
<glyph unicode="i" horiz-adv-x="323" d="M84 1152q0 -31 23.5 -52.5t55.5 -21.5q31 0 52.5 21t21.5 53t-21.5 54.5t-52.5 22.5q-32 0 -55.5 -23t-23.5 -54zM100 0h126v1001h-126v-1001z" />
<glyph unicode="j" horiz-adv-x="369" d="M145 1001v-1072q0 -56 -49.5 -108t-116.5 -56h-31l-28 -121h57q57 0 107.5 21t84 53t58.5 71t36 75t11 65v1072h-129zM134 1152q0 -31 23 -52.5t55 -21.5q30 0 52.5 21.5t22.5 52.5t-22.5 54t-52.5 23q-32 0 -55 -23t-23 -54z" />
<glyph unicode="k" horiz-adv-x="899" d="M78 0h129v1346h-129v-1346zM253 507l448 -507h160l-449 507l447 507h-160z" />
<glyph unicode="l" horiz-adv-x="292" d="M80 0h132v1346h-132v-1346z" />
<glyph unicode="m" horiz-adv-x="1372" d="M73 0h128v725q0 73 44.5 123t121.5 50v122q-63 0 -114.5 -19t-84 -49t-55 -68t-31.5 -73.5t-9 -67.5v-743zM452 898q78 0 124 -50t46 -123v-725h128v725q0 73 45.5 123t123.5 50v122q-88 0 -140 -28.5t-92 -84.5q-42 56 -94.5 84.5t-140.5 28.5v-122zM1005 898 q77 0 121.5 -48.5t44.5 -124.5v-725h129v743q0 31 -10 66t-33 73t-55.5 68.5t-84 50t-112.5 19.5v-122z" />
<glyph unicode="n" horiz-adv-x="880" d="M73 0h128v727q0 63 60 115t139 52v126q-77 0 -142 -29t-104 -72.5t-60 -90t-21 -85.5v-743zM482 894q89 0 143 -57t54 -110v-727h129v743q0 37 -21.5 83t-60 90.5t-103.5 74t-141 29.5v-126z" />
<glyph unicode="o" horiz-adv-x="861" d="M73 278q0 -38 20.5 -84t58 -91t102 -75t142.5 -30v123q-84 0 -140.5 59.5t-56.5 121.5v414q0 63 52.5 120.5t142.5 57.5v122q-62 0 -116 -19.5t-90.5 -50t-63 -67.5t-39 -72.5t-12.5 -65.5v-463zM477 -2q75 0 137.5 30t99 74.5t56 91t19.5 84.5v463q0 39 -20 84.5 t-56.5 89t-98.5 72.5t-137 29v-122q85 0 136 -57t51 -121v-417q0 -60 -51.5 -119t-135.5 -59v-123z" />
<glyph unicode="p" horiz-adv-x="868" d="M308 0h169q62 0 116.5 19t90.5 49t62 67.5t38 73.5t12 67v463q0 31 -12.5 66.5t-39.5 73t-64.5 68t-93.5 50t-121 19.5h-166v-122h166q94 0 149.5 -53.5t55.5 -107.5v-452q0 -60 -51.5 -109.5t-139.5 -49.5h-171v-122zM78 -358h131v1374h-131v-1374z" />
<glyph unicode="q" horiz-adv-x="859" d="M392 0h159v122h-161q-88 0 -139.5 49.5t-51.5 109.5v452q0 55 50.5 108t142.5 53h169v122h-169q-79 0 -143 -29t-100 -73t-55 -89.5t-19 -85.5v-463q0 -31 11.5 -67t37.5 -73.5t62 -67.5t90 -49t116 -19zM649 -358h130v1374h-130v-1374z" />
<glyph unicode="r" horiz-adv-x="514" d="M80 0h129v588q0 73 35 144.5t92 117t116 46.5l30 122h-21q-88 0 -155.5 -48.5t-96.5 -104.5v151h-129v-1016z" />
<glyph unicode="s" horiz-adv-x="815" d="M38 268q0 -105 88.5 -191.5t231.5 -86.5v121q-70 0 -134.5 52.5t-64.5 125.5zM48 725q0 -44 13 -80.5t31 -59t46.5 -41.5t48 -27.5t47.5 -18.5q37 -10 96 -24t98 -23t85.5 -24.5t74 -31t46.5 -40t19 -54.5q0 -60 -37 -105.5t-85 -66t-93 -20.5v-119q145 0 242 86.5 t97 227.5q0 57 -22 102t-57.5 72t-68.5 41.5t-66 22.5q-234 55 -288 75q-89 33 -103 82q-4 12 -4 26q0 73 58.5 125t127.5 52v118q-48 0 -99 -17.5t-98.5 -51t-78 -93t-30.5 -133.5zM436 900q25 0 57.5 -10.5t66 -31t56.5 -57t23 -81.5l121 19q0 105 -93.5 193t-230.5 88 v-120z" />
<glyph unicode="t" horiz-adv-x="520" d="M34 840h125v-509q0 -80 14 -137t47.5 -102.5t94 -68t148.5 -23.5h52l-27 126h-17q-104 0 -144 47t-40 139v528h121v123h-121v384h-128v-384h-125v-123z" />
<glyph unicode="u" horiz-adv-x="880" d="M73 270q0 -40 20.5 -86.5t59 -91t103.5 -73.5t144 -29v127q-83 0 -141 54t-58 114v729h-128v-744zM482 -10q77 0 142 30t103.5 75t59.5 91.5t21 83.5v744h-129v-729q0 -62 -56 -115t-141 -53v-127z" />
<glyph unicode="v" horiz-adv-x="794" d="M17 1014l339 -1014h69l42 117l-308 897h-142zM427 425l61 -176h23l266 765h-142z" />
<glyph unicode="w" horiz-adv-x="1383" d="M17 1016h142l308 -897l-40 -117h-67zM427 427l193 589h144l306 -897l-38 -117h-69l-270 800l-182 -551h-23zM1032 427l193 589h142l-253 -765h-23z" />
<glyph unicode="x" horiz-adv-x="744" d="M15 0h127l231 394l230 -394h126l-281 515l275 499h-130l-220 -375l-222 377h-128l278 -501z" />
<glyph unicode="y" horiz-adv-x="767" d="M10 1014l302 -792l-188 -580h129l191 578l-304 794h-130zM423 505l56 -166h13l270 675h-132z" />
<glyph unicode="z" horiz-adv-x="696" d="M57 0h582v122h-440l440 778v114h-582v-122h443l-441 -771z" />
<glyph unicode="{" horiz-adv-x="457" d="M29 666q9 -5 31.5 -16t30.5 -15.5t22.5 -14.5t19.5 -17.5t9.5 -20t4.5 -27.5v-262q0 -113 18 -187t56 -112t84 -52.5t114 -14.5v100q-31 0 -50.5 6t-40 27t-32 60.5t-19 108t-7.5 167.5v186q0 64 -65 84q65 16 65 67v165q1 99 2.5 157t7.5 109t14.5 75t27 41.5t40 22 t57.5 4.5v100q-71 0 -116.5 -13t-83 -51.5t-55 -113.5t-17.5 -192v-256q0 -11 -2 -20.5t-4 -16.5t-7.5 -14.5t-8.5 -12t-12 -10.5t-13 -9t-16 -8.5t-16 -7.5t-19 -8z" />
<glyph unicode="|" horiz-adv-x="296" d="M96 -256h105v1699h-105v-1699z" />
<glyph unicode="}" horiz-adv-x="457" d="M38 -73q67 0 113.5 15t84 54t56 112.5t18.5 184.5v262q0 15 4.5 27.5t10 20t20 17.5t22.5 14.5t30 15.5l32 16q-4 2 -21.5 9t-21.5 9t-17.5 8.5t-17 9.5t-13 10t-12.5 13t-8 15t-6.5 19t-1.5 22v256q0 117 -17.5 192t-55 113.5t-83 51.5t-116.5 13v-100q36 0 58.5 -4.5 t40.5 -22t27 -41.5t15 -75t7.5 -109t1.5 -157v-165q0 -51 65 -67q-65 -20 -65 -84v-186q0 -122 -9.5 -198.5t-31.5 -112.5t-46 -47t-63 -11v-100z" />
<glyph unicode="~" horiz-adv-x="1202" d="M153 588q106 69 205 69q52 0 108.5 -22t99 -48t102.5 -48t119 -22q117 0 262 88v118q-141 -86 -251 -86q-56 0 -114.5 22t-100.5 48t-100 48t-114 22q-101 0 -216 -67v-122z" />
<glyph unicode="&#xa1;" horiz-adv-x="321" d="M38 940q0 -33 25 -57t58 -24t56.5 24t23.5 57t-23.5 56.5t-56.5 23.5t-58 -23.5t-25 -56.5zM57 -235h129v1014h-129v-1014z" />
<glyph unicode="&#xa2;" horiz-adv-x="823" d="M473 1150h72v-145q94 -24 156.5 -100t62.5 -174l-119 -44q0 3 -1 18t-1 18q-6 81 -57 125t-113 44v258zM316 1150h73v-256q-82 0 -136 -55t-54 -116v-440q0 -54 55 -107.5t135 -54.5v-255h-73v140q-52 10 -95 33.5t-69.5 53t-45 64t-26 65t-7.5 56.5v457q0 82 65 165.5 t178 106.5v143zM473 -134v253q70 0 126 47t65 121q0 4 1 20.5t1 21.5l119 -46q0 -95 -70 -173t-170 -102v-142h-72z" />
<glyph unicode="&#xa3;" horiz-adv-x="759" d="M38 597h115v-597h563v111h-437v490h276v111h-276v331q0 86 50.5 136t126.5 50q103 0 160 -107l102 49q-18 51 -56.5 92t-94.5 62q-50 22 -119 22h-4q-140 0 -215.5 -90t-75.5 -220v-329h-115v-111z" />
<glyph unicode="&#xa4;" horiz-adv-x="1169" d="M77 327l72 -82l142 126q97 -118 249 -118v116q-81 0 -138 59.5t-57 118.5v301q0 63 53 119.5t142 56.5v117q-154 0 -247 -113l-144 126l-72 -84l160 -144q-11 -26 -11 -61v-333q0 -38 11 -59zM618 253q149 0 241 116l142 -124l73 82l-163 146q12 28 12 59v333 q0 31 -12 59l163 146l-73 84l-144 -128q-88 115 -239 115v-117q84 0 135 -57.5t51 -120.5v-301q0 -60 -51.5 -119t-134.5 -59v-114z" />
<glyph unicode="&#xa5;" horiz-adv-x="863" d="M373 0v339h-335v78h335v106h-335v76h310l-250 737h130l210 -603l209 603h130l-249 -737h308v-76h-335v-106h335v-78h-335v-339h-128z" />
<glyph unicode="&#xa6;" horiz-adv-x="296" d="M80 -260h121v681h-121v-681zM80 768h121v681h-121v-681z" />
<glyph unicode="&#xa7;" horiz-adv-x="1152" d="M103 679q0 -54 12.5 -98t32.5 -75t52 -57.5t64.5 -44.5t76.5 -37q39 -16 189 -47v134q-51 11 -85.5 21t-78 28t-69.5 39.5t-44.5 55.5t-18.5 76q0 121 91 187q36 -33 131 -72q27 -11 74 -21v147q-184 62 -184 189q0 104 69.5 165t206.5 61h151v125h-195q-43 0 -89 -10.5 t-95 -36.5t-87 -64.5t-62.5 -101.5t-24.5 -141t25 -138q-142 -105 -142 -284zM377 -138v-124h191q158 0 261 101.5t103 250.5q0 79 -19 132q64 55 100 131t36 158q0 73 -19.5 129t-56 92.5t-76 59.5t-93.5 41q-27 10 -184 49v-136q51 -11 85.5 -20t78.5 -27.5t70.5 -41 t45.5 -59t19 -81.5q0 -107 -83 -186q-50 56 -147 81q-30 13 -69 19v-140q87 -27 137.5 -72t50.5 -123q0 -111 -77.5 -172.5t-207.5 -61.5h-146z" />
<glyph unicode="&#xa8;" horiz-adv-x="597" d="M105 1300q0 -33 23.5 -56t55.5 -23q33 0 55.5 23t22.5 56q0 32 -22.5 54t-55.5 22q-32 0 -55.5 -22.5t-23.5 -53.5zM335 1300q0 -33 23 -56t55 -23q33 0 56 23t23 56q0 32 -23 54t-56 22q-32 0 -55 -22.5t-23 -53.5z" />
<glyph unicode="&#xa9;" horiz-adv-x="1494" d="M67 649q0 133 43.5 249t113 196.5t157 139t175.5 86t167 26.5v-90q-97 0 -197 -43t-183 -118.5t-135.5 -192.5t-52.5 -253q0 -155 75 -292.5t206.5 -222t286.5 -86.5v-96q-126 1 -245.5 54.5t-210 145t-145.5 222t-55 275.5zM479 465v366q0 40 15 82t43 80.5t77 63 t109 24.5v-90q-52 0 -88.5 -29.5t-50.5 -65t-14 -69.5v-362q0 -61 42.5 -111t110.5 -50v-88q-54 0 -97.5 17.5t-70 44.5t-44.5 61.5t-25 65.5t-7 60zM790 -48v96q148 2 277.5 86.5t205.5 221.5t76 289q0 102 -31 197t-85.5 169t-125 130t-152.5 85.5t-165 29.5v90 q88 0 179.5 -31t175 -93t149 -145t104.5 -196t39 -238q-1 -144 -58 -274t-147.5 -220t-206.5 -143t-235 -54zM790 214v90q52 0 91.5 44t42.5 104v25l89 -33q0 -90 -68 -160t-155 -70zM790 991v90q89 0 155 -68.5t66 -158.5l-90 -33v17q0 67 -42 110t-89 43z" />
<glyph unicode="&#xaa;" horiz-adv-x="449" d="M38 716v59h370v-59h-370zM40 957v46q0 64 48 88q18 10 81.5 25.5t112 31.5t47.5 33v17q0 42 -28 68t-62 26v57q71 0 112 -47t41 -102v-268q0 -10 5.5 -21t19.5 -11v-60q-43 0 -71 35q-38 -35 -107 -35v60q92 0 92 86v120q-27 -15 -117 -36t-105 -35q-11 -11 -11 -32v-31 q3 -72 95 -72v-60q-68 0 -110.5 36t-42.5 81zM103 1200l-55 21q-1 53 44 90.5t101 37.5v-59q-36 0 -63 -25t-27 -65z" />
<glyph unicode="&#xab;" horiz-adv-x="899" d="M48 526l404 -300v134l-263 199l263 187v136l-404 -298v-58zM452 526l404 -300v134l-263 199l263 187v136l-404 -298v-58z" />
<glyph unicode="&#xac;" horiz-adv-x="979" d="M77 683h689v-285h118v398h-807v-113z" />
<glyph unicode="&#xad;" horiz-adv-x="719" d="M44 501h605v121h-605v-121z" />
<glyph unicode="&#xae;" horiz-adv-x="746" d="M335 988q56 0 79.5 -12t27.5 -55l6 -94h48l-10 115q-4 53 -38 71q38 20 38 78q0 35 -13.5 58t-38 33.5t-47 14t-52.5 3.5v-46h13q92 0 92 -65q0 -55 -76 -55h-29v-46zM356 699v55q-100 6 -169.5 80t-69.5 175q0 107 71 181t170 79v54q-118 -5 -207.5 -92.5t-89.5 -221.5 q0 -124 87.5 -214.5t207.5 -95.5zM389 699q121 6 207.5 95.5t86.5 216.5q0 130 -88.5 218.5t-205.5 93.5v-54q99 -5 170 -79t71 -179q0 -103 -70.5 -177t-170.5 -80v-55zM260 825h50v375h-50v-375z" />
<glyph unicode="&#xaf;" horiz-adv-x="976" d="M71 1472v-109h861v109h-861z" />
<glyph unicode="&#xb0;" horiz-adv-x="449" d="M67 1116q0 -64 46.5 -110.5t110.5 -46.5q65 0 112 46.5t47 110.5t-47 110.5t-112 46.5q-64 0 -110.5 -46.5t-46.5 -110.5zM151 1116q0 31 21.5 53t51.5 22q32 0 53.5 -21.5t21.5 -53.5q0 -30 -22 -51.5t-53 -21.5q-30 0 -51.5 21.5t-21.5 51.5z" />
<glyph unicode="&#xb1;" horiz-adv-x="828" d="M56 199h717v121h-717v-121zM90 810h295v-335h122v335h301v120h-301v331h-122v-331h-295v-120z" />
<glyph unicode="&#xb2;" horiz-adv-x="438" d="M33 1194l65 -13q3 25 13 43.5t21 27.5t24 15t20 7t10 1v67q-61 -3 -104.5 -47.5t-48.5 -100.5zM44 743h346v69h-346v-69zM44 850h78q0 26 10 47.5t30 38.5t37 27.5t45 25t39 20.5q55 31 86 69.5t31 96.5q0 72 -43 119.5t-129 47.5v-67q53 0 79 -31t26 -69 q0 -37 -24.5 -62.5t-74.5 -55.5q-4 -3 -43.5 -24.5t-67 -40.5t-53.5 -58t-26 -84z" />
<glyph unicode="&#xb3;" horiz-adv-x="434" d="M226 741q72 0 121 47t49 119q0 90 -61 132q61 45 61 136q0 73 -48.5 119t-121.5 46v-67q39 0 71 -24.5t32 -73.5q0 -41 -29 -71t-89 -30v-67q59 0 88.5 -29.5t29.5 -68.5q0 -49 -32 -74t-71 -27v-67zM36 888q3 -56 43.5 -99.5t102.5 -47.5v67q-3 0 -9 1.5t-18 7t-22.5 15 t-20 28t-12.5 42.5zM36 1192l64 -11q3 24 12 42.5t19.5 27.5t23 14.5t18.5 6.5t9 1v67q-62 -3 -102.5 -47.5t-43.5 -100.5z" />
<glyph unicode="&#xb4;" horiz-adv-x="635" d="M220 1158h88l105 291h-122z" />
<glyph unicode="&#xb5;" horiz-adv-x="945" d="M75 0v1336h120v-725q0 -37 59 -65.5t138 -28.5v-117q-30 0 -57.5 4t-51 11.5t-37.5 13t-32 14t-19 9.5v-452h-120zM473 400v117q77 0 136 28.5t59 65.5v729h122v-729q0 -47 15.5 -68.5t65.5 -21.5v-117q-60 0 -95 15.5t-64 49.5q-93 -69 -239 -69z" />
<glyph unicode="&#xb6;" horiz-adv-x="757" d="M67 990q0 148 90.5 253.5t232.5 105.5h87v-1359h-87v640q-149 0 -236 98t-87 262zM568 -10v1359h87v-1359h-87z" />
<glyph unicode="&#xb7;" horiz-adv-x="342" d="M119 645q0 -39 27 -66.5t66 -27.5t66.5 27.5t27.5 66.5t-27.5 66.5t-66.5 27.5t-66 -27.5t-27 -66.5z" />
<glyph unicode="&#xb8;" horiz-adv-x="779" d="M235 -33q60 0 109 16.5t81.5 43.5t54.5 62.5t31.5 72t9.5 73.5h-106q0 -77 -51 -121.5t-129 -44.5v-102z" />
<glyph unicode="&#xb9;" horiz-adv-x="222" d="M19 1246h42v-507h71v599h-71l-42 -35v-57z" />
<glyph unicode="&#xba;" horiz-adv-x="440" d="M50 762h340v65h-340v-65zM65 1014q0 -40 39 -82.5t105 -42.5v55q-38 0 -63 27t-25 54v184q0 28 23.5 53.5t63.5 25.5v55q-65 0 -104 -41.5t-39 -81.5v-206zM245 889q64 0 101.5 42.5t37.5 82.5v206q0 40 -37.5 81.5t-101.5 41.5v-55q38 0 60.5 -25.5t22.5 -53.5v-186 q0 -27 -22.5 -53t-60.5 -26v-55z" />
<glyph unicode="&#xbb;" horiz-adv-x="874" d="M29 253l404 260v84l-404 257v-123l291 -172l-291 -186v-120zM433 253l403 260v84l-403 257v-123l290 -172l-290 -186v-120z" />
<glyph unicode="&#xbc;" horiz-adv-x="958" d="M750 0h85v117h51v78h-51v475h-85v-670zM113 1238h48v-568h84v670h-84l-48 -38v-64zM444 117h258v78h-162l162 284v158l-258 -442v-78zM0 0h94l823 1340h-90z" />
<glyph unicode="&#xbd;" horiz-adv-x="1075" d="M590 0h405v82h-405v-82zM0 0h94l823 1340h-90zM113 1238h48v-568h84v670h-84l-48 -38v-64zM576 492l79 -15q2 22 8 40t15 29t18 19.5t19.5 13t18 7t14.5 3.5l6 1v82q-74 -6 -123.5 -58t-54.5 -122zM590 124h93q0 29 13 53t38.5 41.5t47 28t55.5 24.5t47 20q57 29 88 70 t31 108q0 89 -50 146t-153 57v-82q121 -3 121 -121q0 -26 -9 -46.5t-28.5 -36.5t-36 -25.5t-45.5 -23.5q-2 -1 -30.5 -13t-46 -20t-46 -27t-45.5 -38.5t-30.5 -50t-13.5 -64.5z" />
<glyph unicode="&#xbe;" horiz-adv-x="1167" d="M302 664q83 0 136.5 52.5t53.5 133.5q0 103 -73 153q73 48 73 149q0 81 -53.5 134.5t-136.5 53.5v-82q53 0 81.5 -31t28.5 -79q0 -12 -4 -26.5t-14.5 -35t-36.5 -34t-64 -13.5h-23v-74h23q38 0 64 -13.5t36.5 -34t14.5 -35t4 -26.5q0 -49 -28.5 -79.5t-81.5 -30.5v-82z M959 0h84v117h52v78h-52v475h-84v-670zM655 117h258v78h-165l165 284v158l-258 -442v-78zM71 842q6 -70 55.5 -122t122.5 -58v84q-5 0 -12 1t-22.5 7.5t-27.5 17t-23.5 33t-14.5 52.5zM71 1162l78 -17q3 30 14 52.5t24 33.5t28 17.5t22.5 8t11.5 1.5v82q-73 -4 -122.5 -56 t-55.5 -122zM209 0h95l823 1340h-92z" />
<glyph unicode="&#xbf;" horiz-adv-x="851" d="M792 149l-82 85q-40 -53 -108.5 -94.5t-165.5 -41.5q-130 0 -209.5 79t-79.5 200q0 292 387 299v455h-122v-341q-8 -1 -22 -3t-54 -12.5t-76 -26.5t-80.5 -48.5t-76.5 -73.5t-54 -105.5t-22 -141.5q6 -186 114.5 -296t291.5 -110q73 0 133.5 16t104 45.5t69 55t52.5 59.5 zM549 1284q0 32 -22.5 54.5t-53.5 22.5t-54 -22.5t-23 -54.5q0 -31 22.5 -53.5t54.5 -22.5q31 0 53.5 22t22.5 54z" />
<glyph unicode="&#xc0;" horiz-adv-x="874" d="M308 1757l105 -291h88l-70 291h-123zM59 0h129l206 924l-46 213h-32zM329 232h314l50 -232h130l-299 1338h-130l217 -980h-255z" />
<glyph unicode="&#xc1;" horiz-adv-x="874" d="M419 1466h88l105 291h-122zM59 0h129l206 924l-46 213h-32zM329 232h314l50 -232h130l-299 1338h-130l217 -980h-255z" />
<glyph unicode="&#xc2;" horiz-adv-x="874" d="M279 1466h94l90 186l92 -186h94l-146 291h-80zM59 0h129l206 924l-46 213h-32zM329 232h314l50 -232h130l-299 1338h-130l217 -980h-255z" />
<glyph unicode="&#xc3;" horiz-adv-x="874" d="M193 1491q68 42 127 42q45 0 121.5 -38t128.5 -38q75 0 161 53v107q-88 -53 -153 -53q-49 0 -125.5 39t-125.5 39q-61 0 -134 -42v-109zM59 0h129l206 924l-46 213h-32zM329 232h314l50 -232h130l-299 1338h-130l217 -980h-255z" />
<glyph unicode="&#xc4;" horiz-adv-x="874" d="M270 1545q0 -33 23 -56t55 -23q33 0 56 23t23 56q0 32 -23 54t-56 22q-32 0 -55 -22.5t-23 -53.5zM500 1545q0 -33 23 -56t55 -23q33 0 56 23t23 56q0 32 -23 54t-56 22q-32 0 -55 -22.5t-23 -53.5zM59 0h129l206 924l-46 213h-32zM329 232h314l50 -232h130l-299 1338 h-130l217 -980h-255z" />
<glyph unicode="&#xc5;" horiz-adv-x="987" d="M117 0h128l207 924l-46 213h-33zM387 232h308l50 -232h128l-289 1334q38 17 60 52t22 78q0 63 -45 107t-108 44q-62 0 -105.5 -44t-43.5 -107q0 -45 25.5 -82.5t64.5 -51.5l214 -972h-255zM444 1464q0 30 20 50.5t49 20.5q30 0 50.5 -20.5t20.5 -50.5q0 -29 -20.5 -49 t-50.5 -20q-29 0 -49 20.5t-20 48.5z" />
<glyph unicode="&#xc6;" horiz-adv-x="1391" d="M126 0h144l306 1212h138v-755h-239l-29 -118h268v-339h628v128h-498v473h318v128h-318v483h498v128h-871z" />
<glyph unicode="&#xc7;" horiz-adv-x="976" d="M268 -346q60 0 109 16.5t81 43.5t54 62.5t31.5 72t9.5 73.5h-105q0 -77 -51 -122t-129 -45v-101zM75 346q0 -37 12.5 -81.5t42 -93.5t72 -89t109 -66t146.5 -26v129q-63 0 -114 25t-79 62.5t-42.5 74t-14.5 65.5v645q0 30 14 66.5t42 74.5t79 63.5t115 25.5v128 q-80 1 -146.5 -25.5t-109 -66.5t-72 -90t-42 -94.5t-12.5 -81.5v-645zM549 -10q91 0 173.5 46.5t134.5 130t52 181.5l-120 29q0 -19 -2 -32q-4 -40 -14 -64q-13 -44 -41 -77t-58.5 -48.5t-59 -24.5t-46.5 -11l-19 -1v-129zM549 1221q7 0 18 -1.5t42.5 -12t59 -27.5t57.5 -53 t47 -84q12 -29 12 -55q2 -8 2 -33l122 33q0 138 -112 250t-248 111v-128z" />
<glyph unicode="&#xc8;" horiz-adv-x="849" d="M274 1757l105 -291h88l-71 291h-122zM78 0h697v128h-566v475h386v128h-386v481h566v128h-697v-1340z" />
<glyph unicode="&#xc9;" horiz-adv-x="849" d="M459 1466h88l106 291h-123zM78 0h697v128h-566v475h386v128h-386v481h566v128h-697v-1340z" />
<glyph unicode="&#xca;" horiz-adv-x="849" d="M243 1466h94l90 186l92 -186h93l-145 291h-80zM78 0h697v128h-566v475h386v128h-386v481h566v128h-697v-1340z" />
<glyph unicode="&#xcb;" horiz-adv-x="849" d="M235 1545q0 -33 23.5 -56t55.5 -23q33 0 55.5 23t22.5 56q0 32 -22.5 54t-55.5 22q-32 0 -55.5 -22.5t-23.5 -53.5zM465 1545q0 -33 23.5 -56t55.5 -23q33 0 55.5 23t22.5 56q0 32 -22.5 54t-55.5 22q-32 0 -55.5 -22.5t-23.5 -53.5zM78 0h697v128h-566v475h386v128h-386 v481h566v128h-697v-1340z" />
<glyph unicode="&#xcc;" horiz-adv-x="290" d="M-6 1757l106 -291h88l-71 291h-123zM80 0h131v1340h-131v-1340z" />
<glyph unicode="&#xcd;" horiz-adv-x="290" d="M101 1466h88l106 291h-123zM80 0h131v1340h-131v-1340z" />
<glyph unicode="&#xce;" horiz-adv-x="290" d="M-38 1466h94l89 186l92 -186h94l-145 291h-81zM80 0h131v1340h-131v-1340z" />
<glyph unicode="&#xcf;" horiz-adv-x="290" d="M-48 1545q0 -33 23.5 -56t55.5 -23q33 0 55.5 23t22.5 56q0 32 -22.5 54t-55.5 22q-32 0 -55.5 -22.5t-23.5 -53.5zM182 1545q0 -33 23 -56t55 -23q33 0 56 23t23 56q0 32 -23 54t-56 22q-32 0 -55 -22.5t-23 -53.5zM80 0h131v1340h-131v-1340z" />
<glyph unicode="&#xd0;" horiz-adv-x="891" d="M50 618h107v-618h132v618h107v121h-107v601h-132v-601h-107v-121zM379 0q54 0 95.5 2t93 7.5t90 17.5t79.5 30t70 47t52.5 66.5t35.5 90t12 116.5v586q0 92 -28 160t-74 109t-116 65.5t-143.5 33.5t-166.5 9v-128q52 0 89 -1.5t82 -7.5t75.5 -16t61 -28.5t49 -44.5 t30 -64t11.5 -87v-586q0 -44 -8.5 -79.5t-26 -61t-37.5 -44t-52 -30.5t-59 -19t-68.5 -10t-71 -4t-75.5 -1v-128z" />
<glyph unicode="&#xd1;" horiz-adv-x="1012" d="M237 1501q68 42 127 42q45 0 121.5 -38.5t128.5 -38.5q73 0 161 54v107q-90 -54 -153 -54q-49 0 -125.5 39.5t-125.5 39.5q-61 0 -134 -42v-109zM80 0h131v900l-115 185h-16v-1085zM80 1258l787 -1258h65v163l-737 1177h-115v-82zM802 528l115 -189h15v1001h-130v-812z " />
<glyph unicode="&#xd2;" horiz-adv-x="1008" d="M346 1757l106 -291h88l-71 291h-123zM75 373q0 -79 28 -145.5t70.5 -109t94.5 -72.5t98.5 -43t83.5 -13v131q-31 0 -71 17t-79 46.5t-66 80t-27 108.5v599q0 32 16.5 73.5t46 80.5t78 66t104.5 27v130q-72 0 -136 -25t-106.5 -63.5t-74 -86t-46 -91.5t-14.5 -80v-630z M555 -10q37 0 83.5 13t99 43t95 72.5t71 109t28.5 145.5v630q0 35 -14.5 79t-46 91.5t-74.5 86.5t-106.5 64t-135.5 25v-130q58 0 107 -25.5t78.5 -64.5t45.5 -80.5t16 -76.5v-599q0 -59 -27 -109.5t-67 -80t-80.5 -46t-72.5 -16.5v-131z" />
<glyph unicode="&#xd3;" horiz-adv-x="1008" d="M457 1466h88l106 291h-123zM75 373q0 -79 28 -145.5t70.5 -109t94.5 -72.5t98.5 -43t83.5 -13v131q-31 0 -71 17t-79 46.5t-66 80t-27 108.5v599q0 32 16.5 73.5t46 80.5t78 66t104.5 27v130q-72 0 -136 -25t-106.5 -63.5t-74 -86t-46 -91.5t-14.5 -80v-630zM555 -10 q37 0 83.5 13t99 43t95 72.5t71 109t28.5 145.5v630q0 35 -14.5 79t-46 91.5t-74.5 86.5t-106.5 64t-135.5 25v-130q58 0 107 -25.5t78.5 -64.5t45.5 -80.5t16 -76.5v-599q0 -59 -27 -109.5t-67 -80t-80.5 -46t-72.5 -16.5v-131z" />
<glyph unicode="&#xd4;" horiz-adv-x="1008" d="M316 1466h94l90 186l91 -186h94l-145 291h-81zM75 373q0 -79 28 -145.5t70.5 -109t94.5 -72.5t98.5 -43t83.5 -13v131q-31 0 -71 17t-79 46.5t-66 80t-27 108.5v599q0 32 16.5 73.5t46 80.5t78 66t104.5 27v130q-72 0 -136 -25t-106.5 -63.5t-74 -86t-46 -91.5t-14.5 -80 v-630zM555 -10q37 0 83.5 13t99 43t95 72.5t71 109t28.5 145.5v630q0 35 -14.5 79t-46 91.5t-74.5 86.5t-106.5 64t-135.5 25v-130q58 0 107 -25.5t78.5 -64.5t45.5 -80.5t16 -76.5v-599q0 -59 -27 -109.5t-67 -80t-80.5 -46t-72.5 -16.5v-131z" />
<glyph unicode="&#xd5;" horiz-adv-x="1008" d="M232 1510q68 42 126 42q45 0 122 -38t129 -38q74 0 160 53v107q-88 -53 -153 -53q-49 0 -125 39t-125 39q-61 0 -134 -42v-109zM75 373q0 -79 28 -145.5t70.5 -109t94.5 -72.5t98.5 -43t83.5 -13v131q-31 0 -71 17t-79 46.5t-66 80t-27 108.5v599q0 32 16.5 73.5t46 80.5 t78 66t104.5 27v130q-72 0 -136 -25t-106.5 -63.5t-74 -86t-46 -91.5t-14.5 -80v-630zM555 -10q37 0 83.5 13t99 43t95 72.5t71 109t28.5 145.5v630q0 35 -14.5 79t-46 91.5t-74.5 86.5t-106.5 64t-135.5 25v-130q58 0 107 -25.5t78.5 -64.5t45.5 -80.5t16 -76.5v-599 q0 -59 -27 -109.5t-67 -80t-80.5 -46t-72.5 -16.5v-131z" />
<glyph unicode="&#xd6;" horiz-adv-x="1008" d="M308 1545q0 -33 23.5 -56t55.5 -23q33 0 55.5 23t22.5 56q0 32 -22.5 54t-55.5 22q-32 0 -55.5 -22.5t-23.5 -53.5zM538 1545q0 -33 23 -56t55 -23q33 0 56 23t23 56q0 32 -23 54t-56 22q-32 0 -55 -22.5t-23 -53.5zM75 373q0 -79 28 -145.5t70.5 -109t94.5 -72.5 t98.5 -43t83.5 -13v131q-31 0 -71 17t-79 46.5t-66 80t-27 108.5v599q0 32 16.5 73.5t46 80.5t78 66t104.5 27v130q-72 0 -136 -25t-106.5 -63.5t-74 -86t-46 -91.5t-14.5 -80v-630zM555 -10q37 0 83.5 13t99 43t95 72.5t71 109t28.5 145.5v630q0 35 -14.5 79t-46 91.5 t-74.5 86.5t-106.5 64t-135.5 25v-130q58 0 107 -25.5t78.5 -64.5t45.5 -80.5t16 -76.5v-599q0 -59 -27 -109.5t-67 -80t-80.5 -46t-72.5 -16.5v-131z" />
<glyph unicode="&#xd7;" horiz-adv-x="1052" d="M297 364l344 346l347 -348l88 90l-345 346l345 347l-86 88l-349 -345l-344 345l-88 -90l344 -345l-344 -344z" />
<glyph unicode="&#xd8;" horiz-adv-x="1284" d="M33 209l80 -85l121 111q31 -81 99 -139.5t132.5 -82t116.5 -23.5v131q-27 0 -63.5 13.5t-73.5 38.5t-66 66.5t-38 91.5l593 532v-490q-1 -59 -28 -109.5t-66.5 -80t-80 -46t-72.5 -16.5v-131q37 0 83.5 13t99 43t95 72.5t71 109t28.5 145.5v609l167 151l-77 84l-119 -107 q-42 98 -131.5 168.5t-216.5 70.5v-130q51 0 94 -19t72 -50t48 -65.5t27 -71.5l-591 -531v486q0 35 17 77.5t46.5 81.5t78.5 65.5t105 26.5v130q-72 0 -136 -25t-106.5 -63.5t-74 -86t-46 -91.5t-14.5 -80v-637z" />
<glyph unicode="&#xd9;" horiz-adv-x="1001" d="M333 1757l105 -291h88l-70 291h-123zM73 369q0 -79 29 -145t72.5 -108t97 -71.5t100.5 -42t84 -12.5v129q-19 0 -49 9t-65.5 29t-66.5 47.5t-51.5 71t-20.5 93.5v971h-130v-971zM547 -10q38 0 85 12t100 41.5t96 71.5t71.5 108.5t28.5 145.5v971h-130v-971 q-1 -64 -31 -115.5t-73 -79t-82 -41.5t-65 -14v-129z" />
<glyph unicode="&#xda;" horiz-adv-x="1001" d="M446 1466h88l105 291h-122zM73 369q0 -79 29 -145t72.5 -108t97 -71.5t100.5 -42t84 -12.5v129q-19 0 -49 9t-65.5 29t-66.5 47.5t-51.5 71t-20.5 93.5v971h-130v-971zM547 -10q38 0 85 12t100 41.5t96 71.5t71.5 108.5t28.5 145.5v971h-130v-971q-1 -64 -31 -115.5 t-73 -79t-82 -41.5t-65 -14v-129z" />
<glyph unicode="&#xdb;" horiz-adv-x="1001" d="M304 1466h94l90 186l92 -186h94l-146 291h-80zM73 369q0 -79 29 -145t72.5 -108t97 -71.5t100.5 -42t84 -12.5v129q-19 0 -49 9t-65.5 29t-66.5 47.5t-51.5 71t-20.5 93.5v971h-130v-971zM547 -10q38 0 85 12t100 41.5t96 71.5t71.5 108.5t28.5 145.5v971h-130v-971 q-1 -64 -31 -115.5t-73 -79t-82 -41.5t-65 -14v-129z" />
<glyph unicode="&#xdc;" horiz-adv-x="1001" d="M297 1545q0 -33 23 -56t55 -23q33 0 56 23t23 56q0 32 -23 54t-56 22q-32 0 -55 -22.5t-23 -53.5zM526 1545q0 -33 23.5 -56t55.5 -23q33 0 55.5 23t22.5 56q0 32 -22.5 54t-55.5 22q-32 0 -55.5 -22.5t-23.5 -53.5zM73 369q0 -79 29 -145t72.5 -108t97 -71.5t100.5 -42 t84 -12.5v129q-19 0 -49 9t-65.5 29t-66.5 47.5t-51.5 71t-20.5 93.5v971h-130v-971zM547 -10q38 0 85 12t100 41.5t96 71.5t71.5 108.5t28.5 145.5v971h-130v-971q-1 -64 -31 -115.5t-73 -79t-82 -41.5t-65 -14v-129z" />
<glyph unicode="&#xdd;" horiz-adv-x="912" d="M389 1466h88l105 291h-123zM48 1340l323 -858v-482h134v484l-321 856h-136zM490 794l63 -187h10l302 733h-134z" />
<glyph unicode="&#xde;" horiz-adv-x="907" d="M119 0h130v1340h-130v-1340zM348 398q259 -12 384.5 70t124.5 296q-1 103 -26.5 172t-84.5 114.5t-156 64t-242 14.5v-126h75q48 0 86.5 -4.5t80.5 -19.5t70 -40.5t46.5 -70.5t18.5 -106t-19 -105.5t-47.5 -69.5t-71 -39.5t-79.5 -19t-83 -4.5h-77v-126z" />
<glyph unicode="&#xdf;" horiz-adv-x="999" d="M50 0h124v953q0 280 259 280q37 0 68 -6t53.5 -15t40 -26t28.5 -31.5t19 -40.5t12 -43.5t5.5 -50t2 -50t0.5 -53.5v-10v-23q-36 -2 -68.5 -12.5t-62 -30t-47 -53.5t-17.5 -78q0 -36 10.5 -66t22.5 -48.5t40 -38.5t42 -28t50.5 -25t46.5 -22q8 -4 23 -12q76 -38 98 -62 q35 -38 35 -115q0 -50 -22 -87t-59.5 -57t-78.5 -29t-87 -9h-207v-111h245q138 0 230.5 81.5t92.5 215.5q0 206 -201 275q-55 19 -90.5 37t-50 35.5t-19 30t-4.5 29.5q0 24 23 48t65 25h105v214q0 29 -2 54.5t-9.5 63.5t-21 69t-39.5 64t-61.5 55.5t-89.5 37t-121 14.5 q-79 0 -141 -17.5t-101.5 -44t-67.5 -68t-42 -78.5t-21 -87t-8.5 -81.5t-1.5 -73.5v-24v-875z" />
<glyph unicode="&#xe0;" horiz-adv-x="891" d="M247 1428h122l71 -291h-88zM69 237v90q0 59 19.5 103.5t76.5 74.5q36 19 162.5 49.5t223.5 63.5t96 67v35q0 84 -56.5 134.5t-125.5 50.5v115q75 0 136 -28t97 -72.5t55.5 -95.5t19.5 -102v-536q0 -11 3 -23.5t15 -26.5t32 -14v-120q-53 0 -85 18t-57 51 q-36 -33 -95.5 -51t-120.5 -18v119q79 0 131.5 39.5t52.5 132.5v241q-45 -24 -146 -48.5t-186.5 -46.5t-109.5 -45q-23 -19 -23 -65v-61q1 -75 54 -111t135 -36v-119q-135 0 -219.5 72t-84.5 163zM82 766q-1 105 90 179.5t203 74.5v-118q-72 0 -126 -50t-54 -130z" />
<glyph unicode="&#xe1;" horiz-adv-x="891" d="M356 1137l71 291h122l-105 -291h-88zM69 237v90q0 59 19.5 103.5t76.5 74.5q36 19 162.5 49.5t223.5 63.5t96 67v35q0 84 -56.5 134.5t-125.5 50.5v115q75 0 136 -28t97 -72.5t55.5 -95.5t19.5 -102v-536q0 -11 3 -23.5t15 -26.5t32 -14v-120q-53 0 -85 18t-57 51 q-36 -33 -95.5 -51t-120.5 -18v119q79 0 131.5 39.5t52.5 132.5v241q-45 -24 -146 -48.5t-186.5 -46.5t-109.5 -45q-23 -19 -23 -65v-61q1 -75 54 -111t135 -36v-119q-135 0 -219.5 72t-84.5 163zM82 766q-1 105 90 179.5t203 74.5v-118q-72 0 -126 -50t-54 -130z" />
<glyph unicode="&#xe2;" horiz-adv-x="891" d="M214 1137l144 291h80l146 -291h-94l-92 186l-90 -186h-94zM69 237v90q0 59 19.5 103.5t76.5 74.5q36 19 162.5 49.5t223.5 63.5t96 67v35q0 84 -56.5 134.5t-125.5 50.5v115q75 0 136 -28t97 -72.5t55.5 -95.5t19.5 -102v-536q0 -11 3 -23.5t15 -26.5t32 -14v-120 q-53 0 -85 18t-57 51q-36 -33 -95.5 -51t-120.5 -18v119q79 0 131.5 39.5t52.5 132.5v241q-45 -24 -146 -48.5t-186.5 -46.5t-109.5 -45q-23 -19 -23 -65v-61q1 -75 54 -111t135 -36v-119q-135 0 -219.5 72t-84.5 163zM82 766q-1 105 90 179.5t203 74.5v-118q-72 0 -126 -50 t-54 -130z" />
<glyph unicode="&#xe3;" horiz-adv-x="891" d="M144 1171v109q75 43 134 43q49 0 125 -39.5t125 -39.5q63 0 153 54v-107q-88 -54 -160 -54q-52 0 -129 38t-122 38q-58 0 -126 -42zM69 237v90q0 59 19.5 103.5t76.5 74.5q36 19 162.5 49.5t223.5 63.5t96 67v35q0 84 -56.5 134.5t-125.5 50.5v115q75 0 136 -28t97 -72.5 t55.5 -95.5t19.5 -102v-536q0 -11 3 -23.5t15 -26.5t32 -14v-120q-53 0 -85 18t-57 51q-36 -33 -95.5 -51t-120.5 -18v119q79 0 131.5 39.5t52.5 132.5v241q-45 -24 -146 -48.5t-186.5 -46.5t-109.5 -45q-23 -19 -23 -65v-61q1 -75 54 -111t135 -36v-119q-135 0 -219.5 72 t-84.5 163zM82 766q-1 105 90 179.5t203 74.5v-118q-72 0 -126 -50t-54 -130z" />
<glyph unicode="&#xe4;" horiz-adv-x="891" d="M205 1215q0 31 23 54t55 23q33 0 56 -22.5t23 -54.5q0 -33 -23 -55.5t-56 -22.5q-32 0 -55 22.5t-23 55.5zM434 1215q0 31 23.5 54t55.5 23q33 0 55.5 -22.5t22.5 -54.5q0 -33 -22.5 -55.5t-55.5 -22.5q-32 0 -55.5 22.5t-23.5 55.5zM69 237v90q0 59 19.5 103.5 t76.5 74.5q36 19 162.5 49.5t223.5 63.5t96 67v35q0 84 -56.5 134.5t-125.5 50.5v115q75 0 136 -28t97 -72.5t55.5 -95.5t19.5 -102v-536q0 -11 3 -23.5t15 -26.5t32 -14v-120q-53 0 -85 18t-57 51q-36 -33 -95.5 -51t-120.5 -18v119q79 0 131.5 39.5t52.5 132.5v241 q-45 -24 -146 -48.5t-186.5 -46.5t-109.5 -45q-23 -19 -23 -65v-61q1 -75 54 -111t135 -36v-119q-135 0 -219.5 72t-84.5 163zM82 766q-1 105 90 179.5t203 74.5v-118q-72 0 -126 -50t-54 -130z" />
<glyph unicode="&#xe5;" horiz-adv-x="891" d="M272 1321q0 59 42 101t101 42t101.5 -42.5t42.5 -100.5q0 -59 -42.5 -101.5t-101.5 -42.5q-58 0 -100.5 42.5t-42.5 101.5zM354 1321q0 -26 18 -44t43 -18t43.5 18.5t18.5 43.5t-18 43t-44 18q-25 0 -43 -18t-18 -43zM69 237v90q0 59 19.5 103.5t76.5 74.5 q36 19 162.5 49.5t223.5 63.5t96 67v35q0 84 -56.5 134.5t-125.5 50.5v115q75 0 136 -28t97 -72.5t55.5 -95.5t19.5 -102v-536q0 -11 3 -23.5t15 -26.5t32 -14v-120q-53 0 -85 18t-57 51q-36 -33 -95.5 -51t-120.5 -18v119q79 0 131.5 39.5t52.5 132.5v241 q-45 -24 -146 -48.5t-186.5 -46.5t-109.5 -45q-23 -19 -23 -65v-61q1 -75 54 -111t135 -36v-119q-135 0 -219.5 72t-84.5 163zM82 766q-1 105 90 179.5t203 74.5v-118q-72 0 -126 -50t-54 -130z" />
<glyph unicode="&#xe6;" horiz-adv-x="957" d="M50 226v86q0 57 31 101t81 71.5t110.5 48.5t121 37t110.5 31.5t81 37.5t31 50v36q0 66 -66.5 113.5t-157.5 47.5q-92 0 -157 -45.5t-65 -136.5l-101 33q-1 118 96.5 188t228.5 70q196 0 285 -132q40 54 103.5 89.5t145.5 35.5v-115q-81 0 -137 -58t-56 -126v-122h477v134 q0 70 -61 123t-135 53v111q72 0 144 -35.5t120 -98t48 -131.5v-271h-593v-173q0 -73 73 -122.5t166 -49.5q95 0 163 43t88 118l105 -38q-32 -110 -123 -170t-233 -60q-101 0 -176.5 32t-114.5 90q-76 -123 -247 -120v113q180 0 180 170v260q-21 -20 -77 -37t-118 -31.5 t-122.5 -34t-99.5 -53t-38 -79.5v-34q0 -84 52 -122.5t133 -38.5v-113q-133 0 -214.5 68t-81.5 156z" />
<glyph unicode="&#xe7;" horiz-adv-x="840" d="M207 -345v102q78 0 129 44.5t51 121.5h105q0 -37 -9.5 -73.5t-31.5 -72t-54 -62.5t-81 -43.5t-109 -16.5zM75 278v459q1 43 21 90t57 90t99.5 71t137.5 28v-120q-81 0 -134 -54t-53 -111v-453q0 -56 53 -106.5t134 -50.5v-121q-68 0 -123.5 20t-90 51t-58.5 69.5 t-33.5 73t-9.5 64.5zM477 894v122q119 0 204 -83.5t85 -199.5l-119 -44q0 32 -2 40q-7 80 -57 122.5t-111 42.5zM475 -2v121q74 0 129.5 48t63.5 124v38l121 -46q0 -75 -45.5 -142t-118 -105.5t-150.5 -37.5z" />
<glyph unicode="&#xe8;" horiz-adv-x="882" d="M287 1422l105 -291h88l-70 291h-123zM75 278q0 -37 21 -83.5t59.5 -90.5t102 -74t138.5 -30v119q-76 0 -134.5 55.5t-58.5 103.5v185h603v282q0 73 -49.5 137t-123 99t-147.5 35v-116q76 0 136.5 -50.5t60.5 -122.5v-141h-480v141q0 55 56 112t135 57v120q-74 0 -137 -29 t-101 -72.5t-59 -89t-22 -82.5v-465zM486 0q122 0 208.5 68.5t113.5 166.5l-113 43q-13 -57 -69.5 -106.5t-139.5 -49.5v-122z" />
<glyph unicode="&#xe9;" horiz-adv-x="882" d="M394 1131h88l106 291h-123zM75 278q0 -37 21 -83.5t59.5 -90.5t102 -74t138.5 -30v119q-76 0 -134.5 55.5t-58.5 103.5v185h603v282q0 73 -49.5 137t-123 99t-147.5 35v-116q76 0 136.5 -50.5t60.5 -122.5v-141h-480v141q0 55 56 112t135 57v120q-74 0 -137 -29 t-101 -72.5t-59 -89t-22 -82.5v-465zM486 0q122 0 208.5 68.5t113.5 166.5l-113 43q-13 -57 -69.5 -106.5t-139.5 -49.5v-122z" />
<glyph unicode="&#xea;" horiz-adv-x="882" d="M253 1131h93l90 186l92 -186h94l-145 291h-81zM75 278q0 -37 21 -83.5t59.5 -90.5t102 -74t138.5 -30v119q-76 0 -134.5 55.5t-58.5 103.5v185h603v282q0 73 -49.5 137t-123 99t-147.5 35v-116q76 0 136.5 -50.5t60.5 -122.5v-141h-480v141q0 55 56 112t135 57v120 q-74 0 -137 -29t-101 -72.5t-59 -89t-22 -82.5v-465zM486 0q122 0 208.5 68.5t113.5 166.5l-113 43q-13 -57 -69.5 -106.5t-139.5 -49.5v-122z" />
<glyph unicode="&#xeb;" horiz-adv-x="882" d="M245 1210q0 -33 23 -56t55 -23q33 0 56 23t23 56q0 32 -23 54t-56 22q-32 0 -55 -22.5t-23 -53.5zM475 1210q0 -33 23 -56t55 -23q33 0 56 23t23 56q0 32 -23 54t-56 22q-32 0 -55 -22.5t-23 -53.5zM75 278q0 -37 21 -83.5t59.5 -90.5t102 -74t138.5 -30v119 q-76 0 -134.5 55.5t-58.5 103.5v185h603v282q0 73 -49.5 137t-123 99t-147.5 35v-116q76 0 136.5 -50.5t60.5 -122.5v-141h-480v141q0 55 56 112t135 57v120q-74 0 -137 -29t-101 -72.5t-59 -89t-22 -82.5v-465zM486 0q122 0 208.5 68.5t113.5 166.5l-113 43 q-13 -57 -69.5 -106.5t-139.5 -49.5v-122z" />
<glyph unicode="&#xec;" horiz-adv-x="333" d="M17 1422l105 -291h89l-71 291h-123zM107 0h121v988h-121v-988z" />
<glyph unicode="&#xed;" horiz-adv-x="333" d="M124 1131h88l106 291h-123zM107 0h121v988h-121v-988z" />
<glyph unicode="&#xee;" horiz-adv-x="333" d="M-17 1131h94l90 186l91 -186h94l-145 291h-81zM107 0h121v988h-121v-988z" />
<glyph unicode="&#xef;" horiz-adv-x="333" d="M-25 1210q0 -33 23.5 -56t55.5 -23q33 0 55.5 23t22.5 56q0 32 -22.5 54t-55.5 22q-32 0 -55.5 -22.5t-23.5 -53.5zM205 1210q0 -33 23 -56t55 -23q33 0 56 23t23 56q0 32 -23 54t-56 22q-32 0 -55 -22.5t-23 -53.5zM107 0h121v988h-121v-988z" />
<glyph unicode="&#xf0;" horiz-adv-x="803" d="M54 270q0 -29 11.5 -63.5t37.5 -72t61 -67.5t88.5 -49.5t114.5 -19.5v115q-83 0 -139 61t-56 121v400q0 63 52.5 120.5t142.5 57.5v115q-75 0 -137.5 -28.5t-99 -71t-56.5 -87t-20 -81.5v-450zM367 1292q119 -48 173 -109l-102 -31l25 -80l121 36q40 -77 40 -185 q-72 65 -178 65v-115q81 0 133.5 -52.5t52.5 -112.5v-417q0 -61 -51 -119.5t-135 -58.5v-115q73 0 134 29t96.5 72t54.5 88t19 83v568q0 184 -61 301l86 27l-25 80l-107 -31q-95 118 -276 152v-75z" />
<glyph unicode="&#xf1;" horiz-adv-x="880" d="M172 1171q68 42 127 42q45 0 121.5 -38t128.5 -38q73 0 161 54v107q-90 -54 -153 -54q-49 0 -125.5 39.5t-125.5 39.5q-59 0 -134 -43v-109zM73 0h128v727q0 63 60 115t139 52v126q-77 0 -142 -29t-104 -72.5t-60 -90t-21 -85.5v-743zM482 894q89 0 143 -57t54 -110v-727 h129v743q0 37 -21.5 83t-60 90.5t-103.5 74t-141 29.5v-126z" />
<glyph unicode="&#xf2;" horiz-adv-x="861" d="M283 1422l106 -291h88l-71 291h-123zM73 278q0 -38 20.5 -84t58 -91t102 -75t142.5 -30v123q-84 0 -140.5 59.5t-56.5 121.5v414q0 63 52.5 120.5t142.5 57.5v122q-62 0 -116 -19.5t-90.5 -50t-63 -67.5t-39 -72.5t-12.5 -65.5v-463zM477 -2q75 0 137.5 30t99 74.5t56 91 t19.5 84.5v463q0 39 -20 84.5t-56.5 89t-98.5 72.5t-137 29v-122q85 0 136 -57t51 -121v-417q0 -60 -51.5 -119t-135.5 -59v-123z" />
<glyph unicode="&#xf3;" horiz-adv-x="861" d="M392 1131h88l106 291h-123zM73 278q0 -38 20.5 -84t58 -91t102 -75t142.5 -30v123q-84 0 -140.5 59.5t-56.5 121.5v414q0 63 52.5 120.5t142.5 57.5v122q-62 0 -116 -19.5t-90.5 -50t-63 -67.5t-39 -72.5t-12.5 -65.5v-463zM477 -2q75 0 137.5 30t99 74.5t56 91 t19.5 84.5v463q0 39 -20 84.5t-56.5 89t-98.5 72.5t-137 29v-122q85 0 136 -57t51 -121v-417q0 -60 -51.5 -119t-135.5 -59v-123z" />
<glyph unicode="&#xf4;" horiz-adv-x="861" d="M251 1131h94l89 186l92 -186h94l-145 291h-81zM73 278q0 -38 20.5 -84t58 -91t102 -75t142.5 -30v123q-84 0 -140.5 59.5t-56.5 121.5v414q0 63 52.5 120.5t142.5 57.5v122q-62 0 -116 -19.5t-90.5 -50t-63 -67.5t-39 -72.5t-12.5 -65.5v-463zM477 -2q75 0 137.5 30 t99 74.5t56 91t19.5 84.5v463q0 39 -20 84.5t-56.5 89t-98.5 72.5t-137 29v-122q85 0 136 -57t51 -121v-417q0 -60 -51.5 -119t-135.5 -59v-123z" />
<glyph unicode="&#xf5;" horiz-adv-x="861" d="M167 1166q68 42 126 42q45 0 122 -38.5t129 -38.5q72 0 160 54v107q-90 -54 -153 -54q-49 0 -125 39.5t-125 39.5q-61 0 -134 -42v-109zM73 278q0 -38 20.5 -84t58 -91t102 -75t142.5 -30v123q-84 0 -140.5 59.5t-56.5 121.5v414q0 63 52.5 120.5t142.5 57.5v122 q-62 0 -116 -19.5t-90.5 -50t-63 -67.5t-39 -72.5t-12.5 -65.5v-463zM477 -2q75 0 137.5 30t99 74.5t56 91t19.5 84.5v463q0 39 -20 84.5t-56.5 89t-98.5 72.5t-137 29v-122q85 0 136 -57t51 -121v-417q0 -60 -51.5 -119t-135.5 -59v-123z" />
<glyph unicode="&#xf6;" horiz-adv-x="861" d="M243 1210q0 -33 23.5 -56t55.5 -23q33 0 55.5 23t22.5 56q0 32 -22.5 54t-55.5 22q-32 0 -55.5 -22.5t-23.5 -53.5zM473 1210q0 -33 23 -56t55 -23q33 0 56 23t23 56q0 32 -23 54t-56 22q-32 0 -55 -22.5t-23 -53.5zM73 278q0 -38 20.5 -84t58 -91t102 -75t142.5 -30v123 q-84 0 -140.5 59.5t-56.5 121.5v414q0 63 52.5 120.5t142.5 57.5v122q-62 0 -116 -19.5t-90.5 -50t-63 -67.5t-39 -72.5t-12.5 -65.5v-463zM477 -2q75 0 137.5 30t99 74.5t56 91t19.5 84.5v463q0 39 -20 84.5t-56.5 89t-98.5 72.5t-137 29v-122q85 0 136 -57t51 -121v-417 q0 -60 -51.5 -119t-135.5 -59v-123z" />
<glyph unicode="&#xf7;" horiz-adv-x="1244" d="M174 498h861v120h-861v-120zM526 827q0 -39 27.5 -66.5t66.5 -27.5t66.5 27.5t27.5 66.5t-27.5 66.5t-66.5 27.5t-66.5 -27.5t-27.5 -66.5zM526 310q0 -39 27.5 -66.5t66.5 -27.5t66.5 27.5t27.5 66.5t-27.5 66.5t-66.5 27.5t-66.5 -27.5t-27.5 -66.5z" />
<glyph unicode="&#xf8;" horiz-adv-x="845" d="M19 138l65 -73l86 79q40 -64 108 -105t162 -41v115q-59 0 -105.5 33.5t-70.5 83.5l442 404v-343q0 -60 -51.5 -119t-135.5 -59v-115q73 0 134 29t96.5 72t54.5 88t19 83v440q0 21 -2 29l115 107l-65 71l-86 -77q-39 65 -106 106.5t-160 41.5v-115q63 0 108 -34t66 -85 l-446 -409v350q0 63 52.5 120.5t140.5 57.5v115q-75 0 -137.5 -28.5t-99.5 -71t-57 -87t-20 -81.5v-444q0 -15 4 -37z" />
<glyph unicode="&#xf9;" horiz-adv-x="880" d="M289 1422l105 -291h88l-70 291h-123zM73 270q0 -40 20.5 -86.5t59 -91t103.5 -73.5t144 -29v127q-83 0 -141 54t-58 114v729h-128v-744zM482 -10q77 0 142 30t103.5 75t59.5 91.5t21 83.5v744h-129v-729q0 -62 -56 -115t-141 -53v-127z" />
<glyph unicode="&#xfa;" horiz-adv-x="880" d="M433 1131h88l105 291h-123zM73 270q0 -40 20.5 -86.5t59 -91t103.5 -73.5t144 -29v127q-83 0 -141 54t-58 114v729h-128v-744zM482 -10q77 0 142 30t103.5 75t59.5 91.5t21 83.5v744h-129v-729q0 -62 -56 -115t-141 -53v-127z" />
<glyph unicode="&#xfb;" horiz-adv-x="880" d="M255 1131h93l90 186l92 -186h94l-145 291h-81zM73 270q0 -40 20.5 -86.5t59 -91t103.5 -73.5t144 -29v127q-83 0 -141 54t-58 114v729h-128v-744zM482 -10q77 0 142 30t103.5 75t59.5 91.5t21 83.5v744h-129v-729q0 -62 -56 -115t-141 -53v-127z" />
<glyph unicode="&#xfc;" horiz-adv-x="880" d="M247 1210q0 -33 23 -56t55 -23q33 0 56 23t23 56q0 32 -23 54t-56 22q-32 0 -55 -22.5t-23 -53.5zM477 1210q0 -33 23 -56t55 -23q33 0 56 23t23 56q0 32 -23 54t-56 22q-32 0 -55 -22.5t-23 -53.5zM73 270q0 -40 20.5 -86.5t59 -91t103.5 -73.5t144 -29v127 q-83 0 -141 54t-58 114v729h-128v-744zM482 -10q77 0 142 30t103.5 75t59.5 91.5t21 83.5v744h-129v-729q0 -62 -56 -115t-141 -53v-127z" />
<glyph unicode="&#xfd;" horiz-adv-x="767" d="M375 1137h88l105 291h-122zM10 1014l302 -792l-188 -580h129l191 578l-304 794h-130zM423 505l56 -166h13l270 675h-132z" />
<glyph unicode="&#xfe;" horiz-adv-x="807" d="M57 -348h123v1688h-123v-1688zM264 873h172q88 0 145.5 -47.5t57.5 -123.5v-407q0 -85 -54.5 -131.5t-136.5 -48.5h-170v-115h166q77 0 139.5 27t99 68.5t56 86t19.5 84.5v454q0 41 -22 87.5t-61.5 87.5t-102.5 68t-136 27h-172v-117z" />
<glyph unicode="&#xff;" horiz-adv-x="767" d="M191 1213q0 -33 23.5 -55.5t55.5 -22.5q33 0 55.5 22.5t22.5 55.5q0 32 -22.5 54.5t-55.5 22.5q-32 0 -55.5 -23t-23.5 -54zM421 1213q0 -33 23.5 -55.5t55.5 -22.5q33 0 55.5 22.5t22.5 55.5q0 32 -22.5 54.5t-55.5 22.5q-32 0 -55.5 -23t-23.5 -54zM10 1014l302 -792 l-188 -580h129l191 578l-304 794h-130zM423 505l56 -166h13l270 675h-132z" />
<glyph unicode="&#x100;" horiz-adv-x="874" d="M161 1466h605v84h-605v-84zM59 0h129l206 924l-46 213h-32zM329 232h314l50 -232h130l-299 1338h-130l217 -980h-255z" />
<glyph unicode="&#x101;" horiz-adv-x="891" d="M124 1139v84h605v-84h-605zM69 237v90q0 59 19.5 103.5t76.5 74.5q36 19 162.5 49.5t223.5 63.5t96 67v35q0 84 -56.5 134.5t-125.5 50.5v115q75 0 136 -28t97 -72.5t55.5 -95.5t19.5 -102v-536q0 -11 3 -23.5t15 -26.5t32 -14v-120q-53 0 -85 18t-57 51 q-36 -33 -95.5 -51t-120.5 -18v119q79 0 131.5 39.5t52.5 132.5v241q-45 -24 -146 -48.5t-186.5 -46.5t-109.5 -45q-23 -19 -23 -65v-61q1 -75 54 -111t135 -36v-119q-135 0 -219.5 72t-84.5 163zM82 766q-1 105 90 179.5t203 74.5v-118q-72 0 -126 -50t-54 -130z" />
<glyph unicode="&#x102;" horiz-adv-x="874" d="M323 1604q0 -49 39 -93.5t101 -44.5t101 44.5t39 93.5h-79q0 -26 -18 -43.5t-43 -17.5t-43 17.5t-18 43.5h-79zM59 0h129l206 924l-46 213h-32zM329 232h314l50 -232h130l-299 1338h-130l217 -980h-255z" />
<glyph unicode="&#x103;" horiz-adv-x="891" d="M258 1275h79q0 -26 18 -44t43 -18t43 18t18 44h79q0 -49 -39 -93.5t-101 -44.5t-101 44.5t-39 93.5zM69 237v90q0 59 19.5 103.5t76.5 74.5q36 19 162.5 49.5t223.5 63.5t96 67v35q0 84 -56.5 134.5t-125.5 50.5v115q75 0 136 -28t97 -72.5t55.5 -95.5t19.5 -102v-536 q0 -11 3 -23.5t15 -26.5t32 -14v-120q-53 0 -85 18t-57 51q-36 -33 -95.5 -51t-120.5 -18v119q79 0 131.5 39.5t52.5 132.5v241q-45 -24 -146 -48.5t-186.5 -46.5t-109.5 -45q-23 -19 -23 -65v-61q1 -75 54 -111t135 -36v-119q-135 0 -219.5 72t-84.5 163zM82 766 q-1 105 90 179.5t203 74.5v-118q-72 0 -126 -50t-54 -130z" />
<glyph unicode="&#x104;" horiz-adv-x="874" d="M1001 -345v102q-78 0 -129 44.5t-51 121.5h-105q0 -37 9.5 -73.5t31.5 -72t54 -62.5t81 -43.5t109 -16.5zM59 0h129l206 924l-46 213h-32zM329 232h314l50 -232h130l-299 1338h-130l217 -980h-255z" />
<glyph unicode="&#x105;" horiz-adv-x="891" d="M923 -345q-60 0 -109 16.5t-81.5 43.5t-54.5 62.5t-31.5 72t-9.5 73.5h106q0 -77 51 -121.5t129 -44.5v-102zM69 237v90q0 59 19.5 103.5t76.5 74.5q36 19 162.5 49.5t223.5 63.5t96 67v35q0 84 -56.5 134.5t-125.5 50.5v115q75 0 136 -28t97 -72.5t55.5 -95.5t19.5 -102 v-536q0 -11 3 -23.5t15 -26.5t32 -14v-120q-53 0 -85 18t-57 51q-36 -33 -95.5 -51t-120.5 -18v119q79 0 131.5 39.5t52.5 132.5v241q-45 -24 -146 -48.5t-186.5 -46.5t-109.5 -45q-23 -19 -23 -65v-61q1 -75 54 -111t135 -36v-119q-135 0 -219.5 72t-84.5 163zM82 766 q-1 105 90 179.5t203 74.5v-118q-72 0 -126 -50t-54 -130z" />
<glyph unicode="&#x106;" horiz-adv-x="976" d="M498 1466h88l105 291h-123zM75 346q0 -37 12.5 -81.5t42 -93.5t72 -89t109 -66t146.5 -26v129q-63 0 -114 25t-79 62.5t-42.5 74t-14.5 65.5v645q0 30 14 66.5t42 74.5t79 63.5t115 25.5v128q-80 1 -146.5 -25.5t-109 -66.5t-72 -90t-42 -94.5t-12.5 -81.5v-645zM549 -10 q91 0 173.5 46.5t134.5 130t52 181.5l-120 29q0 -19 -2 -32q-4 -40 -14 -64q-13 -44 -41 -77t-58.5 -48.5t-59 -24.5t-46.5 -11l-19 -1v-129zM549 1221q7 0 18 -1.5t42.5 -12t59 -27.5t57.5 -53t47 -84q12 -29 12 -55q2 -8 2 -33l122 33q0 138 -112 250t-248 111v-128z" />
<glyph unicode="&#x107;" horiz-adv-x="840" d="M387 1131l70 291h123l-105 -291h-88zM75 278v459q1 43 21 90t57 90t99.5 71t137.5 28v-120q-81 0 -134 -54t-53 -111v-453q0 -56 53 -106.5t134 -50.5v-121q-68 0 -123.5 20t-90 51t-58.5 69.5t-33.5 73t-9.5 64.5zM477 894v122q119 0 204 -83.5t85 -199.5l-119 -44 q0 32 -2 40q-7 80 -57 122.5t-111 42.5zM475 -2v121q74 0 129.5 48t63.5 124v38l121 -46q0 -75 -45.5 -142t-118 -105.5t-150.5 -37.5z" />
<glyph unicode="&#x10c;" horiz-adv-x="976" d="M316 1757l145 -291h79l145 291h-94l-90 -186l-91 186h-94zM75 346q0 -37 12.5 -81.5t42 -93.5t72 -89t109 -66t146.5 -26v129q-63 0 -114 25t-79 62.5t-42.5 74t-14.5 65.5v645q0 30 14 66.5t42 74.5t79 63.5t115 25.5v128q-80 1 -146.5 -25.5t-109 -66.5t-72 -90 t-42 -94.5t-12.5 -81.5v-645zM549 -10q91 0 173.5 46.5t134.5 130t52 181.5l-120 29q0 -19 -2 -32q-4 -40 -14 -64q-13 -44 -41 -77t-58.5 -48.5t-59 -24.5t-46.5 -11l-19 -1v-129zM549 1221q7 0 18 -1.5t42.5 -12t59 -27.5t57.5 -53t47 -84q12 -29 12 -55q2 -8 2 -33 l122 33q0 138 -112 250t-248 111v-128z" />
<glyph unicode="&#x10d;" horiz-adv-x="840" d="M245 1422h94l92 -186l90 186h93l-145 -291h-79zM75 278v459q1 43 21 90t57 90t99.5 71t137.5 28v-120q-81 0 -134 -54t-53 -111v-453q0 -56 53 -106.5t134 -50.5v-121q-68 0 -123.5 20t-90 51t-58.5 69.5t-33.5 73t-9.5 64.5zM477 894v122q119 0 204 -83.5t85 -199.5 l-119 -44q0 32 -2 40q-7 80 -57 122.5t-111 42.5zM475 -2v121q74 0 129.5 48t63.5 124v38l121 -46q0 -75 -45.5 -142t-118 -105.5t-150.5 -37.5z" />
<glyph unicode="&#x10e;" horiz-adv-x="903" d="M270 1757l145 -291h79l145 291h-94l-89 -186l-92 186h-94zM78 0h131v1340h-131v-1340zM299 0q63 0 110 2.5t105 11.5t100.5 24.5t85 43.5t69.5 67t43.5 97t16.5 131v586q0 77 -18.5 137t-55 100.5t-82.5 68.5t-108.5 43t-125.5 21.5t-140 6.5v-128q53 0 90 -1.5t82 -7.5 t75 -16t61 -28.5t49 -44.5t29.5 -64t11.5 -87v-586q0 -44 -8.5 -79.5t-26 -61t-37.5 -44t-52 -30.5t-59 -19t-68.5 -10t-71 -4t-75.5 -1v-128z" />
<glyph unicode="&#x10f;" horiz-adv-x="836" d="M911 1080h123l70 290h-122zM57 278q0 -38 19.5 -83.5t55.5 -90t97.5 -74.5t134.5 -30h176v122h-180q-63 0 -120.5 50t-57.5 109v452q0 57 55 108.5t123 52.5h180v120h-182q-123 0 -212 -87t-89 -184v-465zM630 0h130v1347h-130v-1347z" />
<glyph unicode="&#x110;" horiz-adv-x="891" d="M50 618h107v-618h132v618h107v121h-107v601h-132v-601h-107v-121zM379 0q54 0 95.5 2t93 7.5t90 17.5t79.5 30t70 47t52.5 66.5t35.5 90t12 116.5v586q0 92 -28 160t-74 109t-116 65.5t-143.5 33.5t-166.5 9v-128q52 0 89 -1.5t82 -7.5t75.5 -16t61 -28.5t49 -44.5 t30 -64t11.5 -87v-586q0 -44 -8.5 -79.5t-26 -61t-37.5 -44t-52 -30.5t-59 -19t-68.5 -10t-71 -4t-75.5 -1v-128z" />
<glyph unicode="&#x111;" horiz-adv-x="792" d="M52 270q0 -37 18.5 -81.5t53.5 -87.5t94.5 -72t131.5 -29h174v115h-178q-61 0 -118.5 50t-57.5 109v440q0 57 54.5 107.5t121.5 51.5h178v115h-179q-119 0 -206 -85.5t-87 -180.5v-452zM479 1114h133v-1114h123v1114h122v103h-122v130h-123v-130h-133v-103z" />
<glyph unicode="&#x112;" horiz-adv-x="849" d="M126 1466h605v84h-605v-84zM78 0h697v128h-566v475h386v128h-386v481h566v128h-697v-1340z" />
<glyph unicode="&#x113;" horiz-adv-x="882" d="M136 1133h605v84h-605v-84zM75 278q0 -37 21 -83.5t59.5 -90.5t102 -74t138.5 -30v119q-76 0 -134.5 55.5t-58.5 103.5v185h603v282q0 73 -49.5 137t-123 99t-147.5 35v-116q76 0 136.5 -50.5t60.5 -122.5v-141h-480v141q0 55 56 112t135 57v120q-74 0 -137 -29 t-101 -72.5t-59 -89t-22 -82.5v-465zM486 0q122 0 208.5 68.5t113.5 166.5l-113 43q-13 -57 -69.5 -106.5t-139.5 -49.5v-122z" />
<glyph unicode="&#x116;" horiz-adv-x="849" d="M346 1548q0 -34 24 -58t59 -24t58.5 24t23.5 58q0 35 -24 60t-58 25t-58.5 -25t-24.5 -60zM78 0h697v128h-566v475h386v128h-386v481h566v128h-697v-1340z" />
<glyph unicode="&#x117;" horiz-adv-x="882" d="M356 1213q0 -35 24 -58.5t58 -23.5q35 0 59 24t24 58q0 35 -24.5 60t-58.5 25t-58 -25t-24 -60zM75 278q0 -37 21 -83.5t59.5 -90.5t102 -74t138.5 -30v119q-76 0 -134.5 55.5t-58.5 103.5v185h603v282q0 73 -49.5 137t-123 99t-147.5 35v-116q76 0 136.5 -50.5 t60.5 -122.5v-141h-480v141q0 55 56 112t135 57v120q-74 0 -137 -29t-101 -72.5t-59 -89t-22 -82.5v-465zM486 0q122 0 208.5 68.5t113.5 166.5l-113 43q-13 -57 -69.5 -106.5t-139.5 -49.5v-122z" />
<glyph unicode="&#x118;" horiz-adv-x="849" d="M792 -345q-60 0 -109 16.5t-81 43.5t-54 62.5t-31.5 72t-9.5 73.5h105q0 -77 51 -121.5t129 -44.5v-102zM78 0h697v128h-566v475h386v128h-386v481h566v128h-697v-1340z" />
<glyph unicode="&#x119;" horiz-adv-x="882" d="M678 -345q-60 0 -109 16.5t-81.5 43.5t-54.5 62.5t-31.5 72t-9.5 73.5h106q0 -77 51 -121.5t129 -44.5v-102zM75 278q0 -37 21 -83.5t59.5 -90.5t102 -74t138.5 -30v119q-76 0 -134.5 55.5t-58.5 103.5v185h603v282q0 73 -49.5 137t-123 99t-147.5 35v-116 q76 0 136.5 -50.5t60.5 -122.5v-141h-480v141q0 55 56 112t135 57v120q-74 0 -137 -29t-101 -72.5t-59 -89t-22 -82.5v-465zM486 0q122 0 208.5 68.5t113.5 166.5l-113 43q-13 -57 -69.5 -106.5t-139.5 -49.5v-122z" />
<glyph unicode="&#x11a;" horiz-adv-x="849" d="M243 1757l146 -291h78l145 291h-93l-90 -186l-92 186h-94zM78 0h697v128h-566v475h386v128h-386v481h566v128h-697v-1340z" />
<glyph unicode="&#x11b;" horiz-adv-x="882" d="M253 1422l145 -291h79l145 291h-94l-90 -186l-92 186h-93zM75 278q0 -37 21 -83.5t59.5 -90.5t102 -74t138.5 -30v119q-76 0 -134.5 55.5t-58.5 103.5v185h603v282q0 73 -49.5 137t-123 99t-147.5 35v-116q76 0 136.5 -50.5t60.5 -122.5v-141h-480v141q0 55 56 112 t135 57v120q-74 0 -137 -29t-101 -72.5t-59 -89t-22 -82.5v-465zM486 0q122 0 208.5 68.5t113.5 166.5l-113 43q-13 -57 -69.5 -106.5t-139.5 -49.5v-122z" />
<glyph unicode="&#x11e;" horiz-adv-x="981" d="M360 1604q0 -49 39 -93.5t101 -44.5t100.5 44.5t38.5 93.5h-78q0 -26 -17.5 -43.5t-43.5 -17.5t-44 18t-18 43h-78zM75 367q0 -79 28 -145t71 -107.5t96 -71t100 -41.5t86 -12v129q-19 0 -48 8t-64.5 27t-65.5 46t-50.5 71t-20.5 96v605q-2 99 72.5 174t176.5 75v128 q-74 1 -138 -23.5t-106.5 -62.5t-73.5 -85.5t-46 -92t-17 -82.5v-636zM547 -10q79 0 164 54t140.5 136t55.5 157v339h-360v-123h230v-189q0 -96 -81.5 -170.5t-148.5 -74.5v-129zM547 1221q27 0 62.5 -13t73 -39.5t65 -75t31.5 -109.5q2 -8 2 -42l126 46q0 138 -111 250 t-249 111v-128z" />
<glyph unicode="&#x11f;" horiz-adv-x="840" d="M268 1273q0 -49 39 -93.5t101 -44.5t100.5 44.5t38.5 93.5h-78q0 -25 -17.5 -43t-43.5 -18t-44 18t-18 43h-78zM52 -352h413q72 1 132 32t95 76t54.5 90t19.5 79v1095h-123v-73q-25 25 -77.5 49t-106.5 24v-118q63 0 123.5 -45.5t60.5 -115.5v-462q0 -59 -58.5 -110.5 t-125.5 -51.5v-113q101 0 184 76v-155q0 -51 -57 -103t-148 -56h-354zM69 278q0 -36 18.5 -80.5t53.5 -89t97 -74.5t137 -30v118q-77 0 -129.5 53t-52.5 104v464q0 50 53.5 104.5t128.5 54.5v118q-74 0 -135 -29.5t-96.5 -73.5t-54.5 -88.5t-20 -80.5v-470z" />
<glyph unicode="&#x122;" horiz-adv-x="981" d="M371 -417h123l71 291h-123zM75 367q0 -79 28 -145t71 -107.5t96 -71t100 -41.5t86 -12v129q-19 0 -48 8t-64.5 27t-65.5 46t-50.5 71t-20.5 96v605q-2 99 72.5 174t176.5 75v128q-74 1 -138 -23.5t-106.5 -62.5t-73.5 -85.5t-46 -92t-17 -82.5v-636zM547 -10q79 0 164 54 t140.5 136t55.5 157v339h-360v-123h230v-189q0 -96 -81.5 -170.5t-148.5 -74.5v-129zM547 1221q27 0 62.5 -13t73 -39.5t65 -75t31.5 -109.5q2 -8 2 -42l126 46q0 138 -111 250t-249 111v-128z" />
<glyph unicode="&#x123;" horiz-adv-x="840" d="M410 1137h88l105 291h-123zM52 -352h413q72 1 132 32t95 76t54.5 90t19.5 79v1095h-123v-73q-25 25 -77.5 49t-106.5 24v-118q63 0 123.5 -45.5t60.5 -115.5v-462q0 -59 -58.5 -110.5t-125.5 -51.5v-113q101 0 184 76v-155q0 -51 -57 -103t-148 -56h-354zM69 278 q0 -36 18.5 -80.5t53.5 -89t97 -74.5t137 -30v118q-77 0 -129.5 53t-52.5 104v464q0 50 53.5 104.5t128.5 54.5v118q-74 0 -135 -29.5t-96.5 -73.5t-54.5 -88.5t-20 -80.5v-470z" />
<glyph unicode="&#x12a;" horiz-adv-x="290" d="M-157 1466h605v84h-605v-84zM80 0h131v1340h-131v-1340z" />
<glyph unicode="&#x12b;" horiz-adv-x="333" d="M-134 1133h605v84h-605v-84zM107 0h121v988h-121v-988z" />
<glyph unicode="&#x12e;" horiz-adv-x="290" d="M377 -343v102q-78 0 -129 44.5t-51 121.5h-105q0 -37 9.5 -73.5t31.5 -72t54 -62.5t81 -43.5t109 -16.5zM80 0h131v1340h-131v-1340z" />
<glyph unicode="&#x12f;" horiz-adv-x="323" d="M394 -341v102q-78 0 -129 44.5t-51 121.5h-105q0 -37 9.5 -73.5t31.5 -72t54 -62.5t81 -43.5t109 -16.5zM84 1152q0 -31 23.5 -52.5t55.5 -21.5q31 0 52.5 21t21.5 53t-21.5 54.5t-52.5 22.5q-32 0 -55.5 -23t-23.5 -54zM100 0h126v1001h-126v-1001z" />
<glyph unicode="&#x130;" horiz-adv-x="290" d="M63 1548q0 -34 23.5 -58t58.5 -24t59 24t24 58q0 35 -24.5 60t-58.5 25t-58 -25t-24 -60zM80 0h131v1340h-131v-1340z" />
<glyph unicode="&#x131;" horiz-adv-x="333" d="M107 0h121v988h-121v-988z" />
<glyph unicode="&#x136;" horiz-adv-x="937" d="M320 -408h122l71 291h-123zM78 0h131v1340h-131v-1340zM291 653l469 -653h143l-467 653l460 687h-144z" />
<glyph unicode="&#x137;" horiz-adv-x="899" d="M301 -408h122l71 291h-123zM78 0h129v1346h-129v-1346zM253 507l448 -507h160l-449 507l447 507h-160z" />
<glyph unicode="&#x139;" horiz-adv-x="832" d="M101 1466h88l106 291h-123zM78 0h720v128h-589v1212h-131v-1340z" />
<glyph unicode="&#x13a;" horiz-adv-x="292" d="M101 1485h88l106 291h-123zM80 0h132v1346h-132v-1346z" />
<glyph unicode="&#x13b;" horiz-adv-x="832" d="M329 -408h123l71 291h-123zM78 0h720v128h-589v1212h-131v-1340z" />
<glyph unicode="&#x13c;" horiz-adv-x="292" d="M11 -413h123l71 291h-123zM88 0h132v1346h-132v-1346z" />
<glyph unicode="&#x13d;" horiz-adv-x="832" d="M343 1058h122l71 291h-123zM78 0h720v128h-589v1212h-131v-1340z" />
<glyph unicode="&#x13e;" horiz-adv-x="388" d="M310 1078h123l70 291h-122zM75 0h132v1346h-132v-1346z" />
<glyph unicode="&#x141;" horiz-adv-x="874" d="M84 536l73 -94l90 69v-511h720v126h-590v486l209 161l-73 94l-136 -105v578h-130v-680z" />
<glyph unicode="&#x142;" horiz-adv-x="811" d="M348 -6v594l-107 -83l-73 94l180 138v603h132v-500l106 81l72 -94l-178 -138v-695h-132z" />
<glyph unicode="&#x143;" horiz-adv-x="1012" d="M463 1466h88l106 291h-123zM80 0h131v900l-115 185h-16v-1085zM80 1258l787 -1258h65v163l-737 1177h-115v-82zM802 528l115 -189h15v1001h-130v-812z" />
<glyph unicode="&#x144;" horiz-adv-x="880" d="M396 1137h88l106 291h-123zM73 0h128v727q0 63 60 115t139 52v126q-77 0 -142 -29t-104 -72.5t-60 -90t-21 -85.5v-743zM482 894q89 0 143 -57t54 -110v-727h129v743q0 37 -21.5 83t-60 90.5t-103.5 74t-141 29.5v-126z" />
<glyph unicode="&#x145;" horiz-adv-x="1012" d="M394 -408h123l71 291h-123zM80 0h131v900l-115 185h-16v-1085zM80 1258l787 -1258h65v163l-737 1177h-115v-82zM802 528l115 -189h15v1001h-130v-812z" />
<glyph unicode="&#x146;" horiz-adv-x="880" d="M329 -408h123l71 291h-123zM73 0h128v727q0 63 60 115t139 52v126q-77 0 -142 -29t-104 -72.5t-60 -90t-21 -85.5v-743zM482 894q89 0 143 -57t54 -110v-727h129v743q0 37 -21.5 83t-60 90.5t-103.5 74t-141 29.5v-126z" />
<glyph unicode="&#x147;" horiz-adv-x="1012" d="M322 1757l145 -291h78l146 291h-94l-90 -186l-92 186h-93zM80 0h131v900l-115 185h-16v-1085zM80 1258l787 -1258h65v163l-737 1177h-115v-82zM802 528l115 -189h15v1001h-130v-812z" />
<glyph unicode="&#x148;" horiz-adv-x="880" d="M255 1428l145 -291h79l145 291h-94l-90 -186l-92 186h-93zM73 0h128v727q0 63 60 115t139 52v126q-77 0 -142 -29t-104 -72.5t-60 -90t-21 -85.5v-743zM482 894q89 0 143 -57t54 -110v-727h129v743q0 37 -21.5 83t-60 90.5t-103.5 74t-141 29.5v-126z" />
<glyph unicode="&#x14c;" horiz-adv-x="1008" d="M199 1466h605v84h-605v-84zM75 373q0 -79 28 -145.5t70.5 -109t94.5 -72.5t98.5 -43t83.5 -13v131q-31 0 -71 17t-79 46.5t-66 80t-27 108.5v599q0 32 16.5 73.5t46 80.5t78 66t104.5 27v130q-72 0 -136 -25t-106.5 -63.5t-74 -86t-46 -91.5t-14.5 -80v-630zM555 -10 q37 0 83.5 13t99 43t95 72.5t71 109t28.5 145.5v630q0 35 -14.5 79t-46 91.5t-74.5 86.5t-106.5 64t-135.5 25v-130q58 0 107 -25.5t78.5 -64.5t45.5 -80.5t16 -76.5v-599q0 -59 -27 -109.5t-67 -80t-80.5 -46t-72.5 -16.5v-131z" />
<glyph unicode="&#x14d;" horiz-adv-x="861" d="M134 1133h605v84h-605v-84zM73 278q0 -38 20.5 -84t58 -91t102 -75t142.5 -30v123q-84 0 -140.5 59.5t-56.5 121.5v414q0 63 52.5 120.5t142.5 57.5v122q-62 0 -116 -19.5t-90.5 -50t-63 -67.5t-39 -72.5t-12.5 -65.5v-463zM477 -2q75 0 137.5 30t99 74.5t56 91 t19.5 84.5v463q0 39 -20 84.5t-56.5 89t-98.5 72.5t-137 29v-122q85 0 136 -57t51 -121v-417q0 -60 -51.5 -119t-135.5 -59v-123z" />
<glyph unicode="&#x150;" horiz-adv-x="1008" d="M567 1466h88l105 291h-123zM360 1466h88l105 291h-122zM75 373q0 -79 28 -145.5t70.5 -109t94.5 -72.5t98.5 -43t83.5 -13v131q-31 0 -71 17t-79 46.5t-66 80t-27 108.5v599q0 32 16.5 73.5t46 80.5t78 66t104.5 27v130q-72 0 -136 -25t-106.5 -63.5t-74 -86t-46 -91.5 t-14.5 -80v-630zM555 -10q37 0 83.5 13t99 43t95 72.5t71 109t28.5 145.5v630q0 35 -14.5 79t-46 91.5t-74.5 86.5t-106.5 64t-135.5 25v-130q58 0 107 -25.5t78.5 -64.5t45.5 -80.5t16 -76.5v-599q0 -59 -27 -109.5t-67 -80t-80.5 -46t-72.5 -16.5v-131z" />
<glyph unicode="&#x151;" horiz-adv-x="861" d="M501 1131h89l105 291h-123zM295 1131h88l105 291h-122zM73 278q0 -38 20.5 -84t58 -91t102 -75t142.5 -30v123q-84 0 -140.5 59.5t-56.5 121.5v414q0 63 52.5 120.5t142.5 57.5v122q-62 0 -116 -19.5t-90.5 -50t-63 -67.5t-39 -72.5t-12.5 -65.5v-463zM477 -2 q75 0 137.5 30t99 74.5t56 91t19.5 84.5v463q0 39 -20 84.5t-56.5 89t-98.5 72.5t-137 29v-122q85 0 136 -57t51 -121v-417q0 -60 -51.5 -119t-135.5 -59v-123z" />
<glyph unicode="&#x152;" horiz-adv-x="970" d="M-23 379q0 -73 15 -130.5t39 -97t63 -68t78.5 -44t94 -25t100.5 -12t108 -2.5v128q-50 0 -83.5 1.5t-76 6.5t-69.5 15t-56 28.5t-45.5 45t-27 65.5t-10.5 89v584q0 57 11.5 99t37.5 69t55 43.5t75.5 24.5t87 10.5t101.5 2.5v128q-92 0 -161.5 -8.5t-135.5 -32.5t-108 -64 t-67.5 -107t-25.5 -158v-591zM567 0h769v128h-567v475h387v128h-387v481h567v128h-769v-128h72v-1084h-72v-128z" />
<glyph unicode="&#x153;" horiz-adv-x="1402" d="M697 126q-92 -128 -249 -128v113q84 0 135.5 58.5t51.5 119.5v406q0 64 -51.5 121t-135.5 57v115q154 0 249 -125q92 125 249 125v-115q-82 0 -138 -57.5t-56 -126.5v-122h477v134q0 70 -60.5 123t-134.5 53v111q72 0 143.5 -35.5t119 -98t47.5 -131.5v-271h-592v-173 q0 -73 73 -122.5t166 -49.5q95 0 163 43t88 118l104 -38q-30 -110 -121.5 -170t-234.5 -60q-97 0 -174.5 35t-118.5 91zM56 270v450q0 37 20 81t56.5 87t99 71.5t137.5 28.5v-115q-89 0 -142 -56.5t-53 -121.5v-402q0 -60 56 -121t139 -61v-113q-62 0 -115.5 19.5t-88.5 50 t-60.5 68t-37 72t-11.5 62.5z" />
<glyph unicode="&#x154;" horiz-adv-x="972" d="M375 1466h88l105 291h-122zM80 0h131v1340h-131v-1340zM302 591h242q62 2 104 -13t66 -50t35.5 -78.5t16.5 -108.5l28 -341h125l-33 415q-7 89 -45 150.5t-96 87.5q132 85 132 315q0 98 -26.5 170.5t-75.5 114.5t-110 63t-137 24h-226v-117h192q133 0 193.5 -64 t60.5 -196q0 -128 -52.5 -189.5t-165.5 -61.5h-228v-121z" />
<glyph unicode="&#x155;" horiz-adv-x="514" d="M241 1131h88l105 291h-122zM80 0h129v588q0 73 35 144.5t92 117t116 46.5l30 122h-21q-88 0 -155.5 -48.5t-96.5 -104.5v151h-129v-1016z" />
<glyph unicode="&#x156;" horiz-adv-x="972" d="M387 -408h122l71 291h-123zM80 0h131v1340h-131v-1340zM302 591h242q62 2 104 -13t66 -50t35.5 -78.5t16.5 -108.5l28 -341h125l-33 415q-7 89 -45 150.5t-96 87.5q132 85 132 315q0 98 -26.5 170.5t-75.5 114.5t-110 63t-137 24h-226v-117h192q133 0 193.5 -64 t60.5 -196q0 -128 -52.5 -189.5t-165.5 -61.5h-228v-121z" />
<glyph unicode="&#x157;" horiz-adv-x="514" d="M10 -408h122l71 291h-123zM80 0h129v588q0 73 35 144.5t92 117t116 46.5l30 122h-21q-88 0 -155.5 -48.5t-96.5 -104.5v151h-129v-1016z" />
<glyph unicode="&#x158;" horiz-adv-x="972" d="M226 1757l145 -291h79l145 291h-94l-89 -186l-92 186h-94zM80 0h131v1340h-131v-1340zM302 591h242q62 2 104 -13t66 -50t35.5 -78.5t16.5 -108.5l28 -341h125l-33 415q-7 89 -45 150.5t-96 87.5q132 85 132 315q0 98 -26.5 170.5t-75.5 114.5t-110 63t-137 24h-226v-117 h192q133 0 193.5 -64t60.5 -196q0 -128 -52.5 -189.5t-165.5 -61.5h-228v-121z" />
<glyph unicode="&#x159;" horiz-adv-x="514" d="M96 1422l145 -291h79l145 291h-94l-90 -186l-92 186h-93zM80 0h129v588q0 73 35 144.5t92 117t116 46.5l30 122h-21q-88 0 -155.5 -48.5t-96.5 -104.5v151h-129v-1016z" />
<glyph unicode="&#x15a;" horiz-adv-x="947" d="M398 1466h88l105 291h-122zM52 302q1 -32 17 -72t47.5 -81.5t73.5 -76t100 -56.5t120 -22v123q-8 1 -22 3.5t-51 17t-67.5 36.5t-60 67t-39.5 104zM67 980q0 -67 16 -117.5t49.5 -86t73 -59.5t96.5 -47q25 -10 75.5 -21.5t98.5 -20t102 -27t94.5 -42.5t67 -66t26.5 -97 q0 -63 -29.5 -118t-72 -88.5t-86.5 -52.5t-77 -20v-123q105 0 197 56.5t145 148.5t53 193q0 73 -19.5 128.5t-56 92t-76 59.5t-93.5 42q-33 12 -101.5 27t-123 30t-111 39t-88.5 65.5t-32 98.5q0 60 25 108.5t62 76t70.5 42t57.5 16.5v123q-33 0 -74.5 -12t-89.5 -40.5 t-87.5 -68t-65.5 -102.5t-26 -137zM501 1217q7 0 19 -2t44.5 -14t60 -31.5t55.5 -59t40 -92.5l122 40q-4 34 -29.5 80t-66.5 92t-106.5 78t-138.5 32v-123z" />
<glyph unicode="&#x15b;" horiz-adv-x="815" d="M352 1135h88l105 291h-122zM38 268q0 -105 88.5 -191.5t231.5 -86.5v121q-70 0 -134.5 52.5t-64.5 125.5zM48 725q0 -44 13 -80.5t31 -59t46.5 -41.5t48 -27.5t47.5 -18.5q37 -10 96 -24t98 -23t85.5 -24.5t74 -31t46.5 -40t19 -54.5q0 -60 -37 -105.5t-85 -66t-93 -20.5 v-119q145 0 242 86.5t97 227.5q0 57 -22 102t-57.5 72t-68.5 41.5t-66 22.5q-234 55 -288 75q-89 33 -103 82q-4 12 -4 26q0 73 58.5 125t127.5 52v118q-48 0 -99 -17.5t-98.5 -51t-78 -93t-30.5 -133.5zM436 900q25 0 57.5 -10.5t66 -31t56.5 -57t23 -81.5l121 19 q0 105 -93.5 193t-230.5 88v-120z" />
<glyph unicode="&#x15e;" horiz-adv-x="947" d="M212 -345q60 0 109 16.5t81.5 43.5t54.5 62.5t31.5 72t9.5 73.5h-106q0 -77 -51 -121.5t-129 -44.5v-102zM52 302q1 -32 17 -72t47.5 -81.5t73.5 -76t100 -56.5t120 -22v123q-8 1 -22 3.5t-51 17t-67.5 36.5t-60 67t-39.5 104zM67 980q0 -67 16 -117.5t49.5 -86t73 -59.5 t96.5 -47q25 -10 75.5 -21.5t98.5 -20t102 -27t94.5 -42.5t67 -66t26.5 -97q0 -63 -29.5 -118t-72 -88.5t-86.5 -52.5t-77 -20v-123q105 0 197 56.5t145 148.5t53 193q0 73 -19.5 128.5t-56 92t-76 59.5t-93.5 42q-33 12 -101.5 27t-123 30t-111 39t-88.5 65.5t-32 98.5 q0 60 25 108.5t62 76t70.5 42t57.5 16.5v123q-33 0 -74.5 -12t-89.5 -40.5t-87.5 -68t-65.5 -102.5t-26 -137zM501 1217q7 0 19 -2t44.5 -14t60 -31.5t55.5 -59t40 -92.5l122 40q-4 34 -29.5 80t-66.5 92t-106.5 78t-138.5 32v-123z" />
<glyph unicode="&#x15f;" horiz-adv-x="815" d="M302 -345q60 0 109 16.5t81.5 43.5t54.5 62.5t31.5 72t9.5 73.5h-106q0 -77 -51 -121.5t-129 -44.5v-102zM38 268q0 -105 88.5 -191.5t231.5 -86.5v121q-70 0 -134.5 52.5t-64.5 125.5zM48 725q0 -44 13 -80.5t31 -59t46.5 -41.5t48 -27.5t47.5 -18.5q37 -10 96 -24 t98 -23t85.5 -24.5t74 -31t46.5 -40t19 -54.5q0 -60 -37 -105.5t-85 -66t-93 -20.5v-119q145 0 242 86.5t97 227.5q0 57 -22 102t-57.5 72t-68.5 41.5t-66 22.5q-234 55 -288 75q-89 33 -103 82q-4 12 -4 26q0 73 58.5 125t127.5 52v118q-48 0 -99 -17.5t-98.5 -51t-78 -93 t-30.5 -133.5zM436 900q25 0 57.5 -10.5t66 -31t56.5 -57t23 -81.5l121 19q0 105 -93.5 193t-230.5 88v-120z" />
<glyph unicode="&#x160;" horiz-adv-x="947" d="M239 1757l146 -291h78l146 291h-94l-90 -186l-92 186h-94zM38 302q1 -32 17 -72t47.5 -81.5t73.5 -76t100 -56.5t120 -22v123q-8 1 -22 3.5t-51 17t-67 36.5t-59.5 67t-39.5 104zM54 980q0 -67 16 -117.5t49.5 -86t73 -59.5t96.5 -47q25 -10 75 -21.5t98 -20t102.5 -27 t94.5 -42.5t66.5 -66t26.5 -97q0 -51 -19.5 -97t-49.5 -78t-66 -56t-69.5 -35.5t-59.5 -12.5v-123q105 0 196.5 56.5t144.5 148.5t53 193q0 73 -19.5 128.5t-56 92t-76 59.5t-93.5 42q-33 12 -101.5 27t-123 30t-110.5 39t-88 65.5t-32 98.5q0 60 25 108.5t61.5 76t70 42 t57.5 16.5v123q-33 0 -74.5 -12t-89.5 -40.5t-87 -68t-65 -102.5t-26 -137zM488 1217q7 0 19 -2t44.5 -14t59.5 -31.5t55 -59t40 -92.5l123 40q-4 34 -29.5 80t-66.5 92t-106.5 78t-138.5 32v-123z" />
<glyph unicode="&#x161;" horiz-adv-x="815" d="M214 1426l146 -291h78l146 291h-94l-90 -186l-92 186h-94zM46 268q0 -105 88.5 -191.5t231.5 -86.5v121q-70 0 -134.5 52.5t-64.5 125.5zM56 725q0 -44 13 -80.5t31 -59t46 -41.5t48 -27.5t47 -18.5q37 -10 96 -24t98 -23t85.5 -24.5t74 -31t46.5 -40t19 -54.5 q0 -60 -37 -105.5t-84.5 -66t-92.5 -20.5v-119q145 0 242 86.5t97 227.5q0 46 -15.5 85t-38.5 64t-53.5 44.5t-56 29t-51.5 15.5q-234 55 -288 75q-89 33 -103 82q-3 12 -3 26q0 73 58.5 125t127.5 52v118q-48 0 -99 -17.5t-98.5 -51t-78 -93t-30.5 -133.5zM444 900 q25 0 57.5 -10.5t66 -31t56.5 -57t23 -81.5l121 19q0 105 -93.5 193t-230.5 88v-120z" />
<glyph unicode="&#x162;" horiz-adv-x="899" d="M211 -345q60 0 109 16.5t81 43.5t54 62.5t31.5 72t9.5 73.5h-106q0 -77 -50.5 -121.5t-128.5 -44.5v-102zM36 1213h349v-1213h130v1213h350v127h-829v-127z" />
<glyph unicode="&#x163;" horiz-adv-x="520" d="M228 -341q60 0 109 16.5t81 43.5t54 62.5t31.5 72t9.5 73.5h-105q0 -77 -51 -121.5t-129 -44.5v-102zM34 840h125v-509q0 -80 14 -137t47.5 -102.5t94 -68t148.5 -23.5h52l-27 126h-17q-104 0 -144 47t-40 139v528h121v123h-121v384h-128v-384h-125v-123z" />
<glyph unicode="&#x164;" horiz-adv-x="899" d="M258 1757l146 -291h78l146 291h-94l-90 -186l-92 186h-94zM36 1213h349v-1213h130v1213h350v127h-829v-127z" />
<glyph unicode="&#x165;" horiz-adv-x="637" d="M385 1081h122l71 291h-122zM34 840h125v-509q0 -80 14 -137t47.5 -102.5t94 -68t148.5 -23.5h52l-27 126h-17q-104 0 -144 47t-40 139v528h121v123h-121v384h-128v-384h-125v-123z" />
<glyph unicode="&#x16a;" horiz-adv-x="1001" d="M188 1466h604v84h-604v-84zM73 369q0 -79 29 -145t72.5 -108t97 -71.5t100.5 -42t84 -12.5v129q-19 0 -49 9t-65.5 29t-66.5 47.5t-51.5 71t-20.5 93.5v971h-130v-971zM547 -10q38 0 85 12t100 41.5t96 71.5t71.5 108.5t28.5 145.5v971h-130v-971q-1 -64 -31 -115.5 t-73 -79t-82 -41.5t-65 -14v-129z" />
<glyph unicode="&#x16b;" horiz-adv-x="880" d="M138 1133h605v84h-605v-84zM73 270q0 -40 20.5 -86.5t59 -91t103.5 -73.5t144 -29v127q-83 0 -141 54t-58 114v729h-128v-744zM482 -10q77 0 142 30t103.5 75t59.5 91.5t21 83.5v744h-129v-729q0 -62 -56 -115t-141 -53v-127z" />
<glyph unicode="&#x16e;" horiz-adv-x="1001" d="M346 1650q0 -58 43 -101t101 -43t101 43t43 101t-42.5 100.5t-101.5 42.5t-101.5 -42.5t-42.5 -100.5zM429 1650q0 26 17.5 43.5t43.5 17.5t43.5 -17.5t17.5 -43.5t-17.5 -43.5t-43.5 -17.5t-43.5 17.5t-17.5 43.5zM73 369q0 -79 29 -145t72.5 -108t97 -71.5t100.5 -42 t84 -12.5v129q-19 0 -49 9t-65.5 29t-66.5 47.5t-51.5 71t-20.5 93.5v971h-130v-971zM547 -10q38 0 85 12t100 41.5t96 71.5t71.5 108.5t28.5 145.5v971h-130v-971q-1 -64 -31 -115.5t-73 -79t-82 -41.5t-65 -14v-129z" />
<glyph unicode="&#x16f;" horiz-adv-x="880" d="M297 1315q0 -59 42.5 -101.5t100.5 -42.5t101 42.5t43 101.5q0 58 -42.5 100.5t-101.5 42.5q-58 0 -100.5 -42t-42.5 -101zM379 1315q0 25 17.5 43t43.5 18t43.5 -18t17.5 -43t-17.5 -43t-43.5 -18t-43.5 18t-17.5 43zM73 270q0 -40 20.5 -86.5t59 -91t103.5 -73.5 t144 -29v127q-83 0 -141 54t-58 114v729h-128v-744zM482 -10q77 0 142 30t103.5 75t59.5 91.5t21 83.5v744h-129v-729q0 -62 -56 -115t-141 -53v-127z" />
<glyph unicode="&#x170;" horiz-adv-x="1001" d="M595 1466h88l106 291h-123zM389 1466h88l105 291h-123zM73 369q0 -79 29 -145t72.5 -108t97 -71.5t100.5 -42t84 -12.5v129q-19 0 -49 9t-65.5 29t-66.5 47.5t-51.5 71t-20.5 93.5v971h-130v-971zM547 -10q38 0 85 12t100 41.5t96 71.5t71.5 108.5t28.5 145.5v971h-130 v-971q-1 -64 -31 -115.5t-73 -79t-82 -41.5t-65 -14v-129z" />
<glyph unicode="&#x171;" horiz-adv-x="880" d="M492 1131h88l105 291h-122zM285 1131h88l106 291h-123zM73 270q0 -40 20.5 -86.5t59 -91t103.5 -73.5t144 -29v127q-83 0 -141 54t-58 114v729h-128v-744zM482 -10q77 0 142 30t103.5 75t59.5 91.5t21 83.5v744h-129v-729q0 -62 -56 -115t-141 -53v-127z" />
<glyph unicode="&#x172;" horiz-adv-x="1001" d="M722 -345v102q-78 0 -129 44.5t-51 121.5h-106q0 -37 9.5 -73.5t31.5 -72t54.5 -62.5t81.5 -43.5t109 -16.5zM73 369q0 -79 29 -145t72.5 -108t97 -71.5t100.5 -42t84 -12.5v129q-19 0 -49 9t-65.5 29t-66.5 47.5t-51.5 71t-20.5 93.5v971h-130v-971zM547 -10q38 0 85 12 t100 41.5t96 71.5t71.5 108.5t28.5 145.5v971h-130v-971q-1 -64 -31 -115.5t-73 -79t-82 -41.5t-65 -14v-129z" />
<glyph unicode="&#x173;" horiz-adv-x="880" d="M676 -345v102q-78 0 -129 44.5t-51 121.5h-106q0 -37 9.5 -73.5t31.5 -72t54.5 -62.5t81.5 -43.5t109 -16.5zM73 270q0 -40 20.5 -86.5t59 -91t103.5 -73.5t144 -29v127q-83 0 -141 54t-58 114v729h-128v-744zM482 -10q77 0 142 30t103.5 75t59.5 91.5t21 83.5v744h-129 v-729q0 -62 -56 -115t-141 -53v-127z" />
<glyph unicode="&#x178;" horiz-adv-x="912" d="M239 1545q0 -33 23.5 -56t55.5 -23q33 0 55.5 23t22.5 56q0 32 -22.5 54t-55.5 22q-32 0 -55.5 -22.5t-23.5 -53.5zM469 1545q0 -33 23 -56t55 -23q33 0 56 23t23 56q0 32 -23 54t-56 22q-32 0 -55 -22.5t-23 -53.5zM48 1340l323 -858v-482h134v484l-321 856h-136z M490 794l63 -187h10l302 733h-134z" />
<glyph unicode="&#x179;" horiz-adv-x="844" d="M364 1466h88l105 291h-123zM71 0h700l2 130h-559l557 1087v123h-700v-128h559l-559 -1088v-124z" />
<glyph unicode="&#x17a;" horiz-adv-x="696" d="M304 1131h88l106 291h-123zM57 0h582v122h-440l440 778v114h-582v-122h443l-441 -771z" />
<glyph unicode="&#x17b;" horiz-adv-x="844" d="M325 1548q0 -34 24 -58t59 -24q34 0 58 24t24 58q0 35 -24 60t-58 25t-58.5 -25t-24.5 -60zM71 0h700l2 130h-559l557 1087v123h-700v-128h559l-559 -1088v-124z" />
<glyph unicode="&#x17c;" horiz-adv-x="696" d="M266 1213q0 -35 24 -58.5t58 -23.5q35 0 59 24t24 58q0 35 -24.5 60t-58.5 25t-58 -25t-24 -60zM57 0h582v122h-440l440 778v114h-582v-122h443l-441 -771z" />
<glyph unicode="&#x17d;" horiz-adv-x="844" d="M222 1757l145 -291h79l145 291h-93l-90 -186l-92 186h-94zM71 0h700l2 130h-559l557 1087v123h-700v-128h559l-559 -1088v-124z" />
<glyph unicode="&#x17e;" horiz-adv-x="696" d="M167 1422l145 -291h78l146 291h-94l-90 -186l-92 186h-93zM57 0h582v122h-440l440 778v114h-582v-122h443l-441 -771z" />
<glyph unicode="&#x192;" horiz-adv-x="731" d="M50 -322h88q252 0 252 265v874h127v115l-127 -2v92q0 91 50 143t159 52h56l26 115h-116q-70 -1 -128.5 -30t-93.5 -74.5t-54 -96t-19 -97.5v-102h-121v-115h121v-895q0 -56 -27.5 -95t-95.5 -39h-69z" />
<glyph unicode="&#x218;" horiz-adv-x="947" d="M333 -413h123l70 291h-122zM52 302q1 -32 17 -72t47.5 -81.5t73.5 -76t100 -56.5t120 -22v123q-8 1 -22 3.5t-51 17t-67.5 36.5t-60 67t-39.5 104zM67 980q0 -67 16 -117.5t49.5 -86t73 -59.5t96.5 -47q25 -10 75.5 -21.5t98.5 -20t102 -27t94.5 -42.5t67 -66t26.5 -97 q0 -63 -29.5 -118t-72 -88.5t-86.5 -52.5t-77 -20v-123q105 0 197 56.5t145 148.5t53 193q0 73 -19.5 128.5t-56 92t-76 59.5t-93.5 42q-33 12 -101.5 27t-123 30t-111 39t-88.5 65.5t-32 98.5q0 60 25 108.5t62 76t70.5 42t57.5 16.5v123q-33 0 -74.5 -12t-89.5 -40.5 t-87.5 -68t-65.5 -102.5t-26 -137zM501 1217q7 0 19 -2t44.5 -14t60 -31.5t55.5 -59t40 -92.5l122 40q-4 34 -29.5 80t-66.5 92t-106.5 78t-138.5 32v-123z" />
<glyph unicode="&#x219;" horiz-adv-x="815" d="M266 -417h123l70 291h-122zM38 268q0 -105 88.5 -191.5t231.5 -86.5v121q-70 0 -134.5 52.5t-64.5 125.5zM48 725q0 -44 13 -80.5t31 -59t46.5 -41.5t48 -27.5t47.5 -18.5q37 -10 96 -24t98 -23t85.5 -24.5t74 -31t46.5 -40t19 -54.5q0 -60 -37 -105.5t-85 -66t-93 -20.5 v-119q145 0 242 86.5t97 227.5q0 57 -22 102t-57.5 72t-68.5 41.5t-66 22.5q-234 55 -288 75q-89 33 -103 82q-4 12 -4 26q0 73 58.5 125t127.5 52v118q-48 0 -99 -17.5t-98.5 -51t-78 -93t-30.5 -133.5zM436 900q25 0 57.5 -10.5t66 -31t56.5 -57t23 -81.5l121 19 q0 105 -93.5 193t-230.5 88v-120z" />
<glyph unicode="&#x21a;" horiz-adv-x="899" d="M316 -408h122l71 291h-122zM36 1213h349v-1213h130v1213h350v127h-829v-127z" />
<glyph unicode="&#x21b;" horiz-adv-x="520" d="M278 -408h122l71 291h-123zM34 840h125v-509q0 -80 14 -137t47.5 -102.5t94 -68t148.5 -23.5h52l-27 126h-17q-104 0 -144 47t-40 139v528h121v123h-121v384h-128v-384h-125v-123z" />
<glyph unicode="&#x2c6;" horiz-adv-x="516" d="M73 984h94l89 185l92 -185h94l-145 291h-81z" />
<glyph unicode="&#x2c7;" horiz-adv-x="516" d="M73 1275l145 -291h79l145 291h-94l-90 -186l-91 186h-94z" />
<glyph unicode="&#x2c9;" horiz-adv-x="796" d="M96 1020h605v84h-605v-84z" />
<glyph unicode="&#x2d8;" horiz-adv-x="467" d="M94 1007q0 -49 39 -93.5t101 -44.5t100.5 44.5t38.5 93.5h-78q0 -25 -17.5 -43t-43.5 -18t-44 18t-18 43h-78z" />
<glyph unicode="&#x2d9;" horiz-adv-x="386" d="M111 1298q0 -35 24 -59t58 -24q35 0 59 24.5t24 58.5q0 35 -24.5 59.5t-58.5 24.5t-58 -24.5t-24 -59.5z" />
<glyph unicode="&#x2da;" horiz-adv-x="467" d="M90 1007q0 -59 43 -101.5t101 -42.5t100.5 42.5t42.5 101.5t-42.5 101t-100.5 42q-59 0 -101.5 -42.5t-42.5 -100.5zM172 1007q0 25 18 43t44 18t43.5 -18t17.5 -43t-17.5 -43t-43.5 -18t-44 18t-18 43z" />
<glyph unicode="&#x2db;" horiz-adv-x="419" d="M203 -345v102q-78 0 -129 44.5t-51 121.5h-105q0 -37 9.5 -73.5t31.5 -72t54 -62.5t81 -43.5t109 -16.5z" />
<glyph unicode="&#x2dc;" horiz-adv-x="637" d="M50 243q68 42 126 42q45 0 122 -38t129 -38q75 0 161 53v107q-88 -53 -154 -53q-49 0 -125 39t-125 39q-61 0 -134 -42v-109z" />
<glyph unicode="&#x2dd;" horiz-adv-x="553" d="M371 1158h88l106 291h-123zM165 1158h88l105 291h-123z" />
<glyph unicode="&#x3c0;" horiz-adv-x="865" d="M-23 867h163v-873h120v873h354v-612q0 -54 13 -99.5t41 -83.5t78.5 -59t118.5 -21v113q-30 0 -50.5 5.5t-41 21t-30.5 51t-10 89.5v595h159v123h-915v-123z" />
<glyph unicode="&#xb82;" horiz-adv-x="436" d="M132 1629q0 33 23.5 56.5t56.5 23.5t57 -23.5t24 -56.5t-24 -57t-57 -24t-56.5 24t-23.5 57zM67 1629q0 -56 44.5 -101t100.5 -45t100 45t44 101t-44 100.5t-100 44.5t-100.5 -44.5t-44.5 -100.5z" />
<glyph unicode="&#xb83;" horiz-adv-x="1343" d="M239 385q-66 0 -113.5 -46.5t-47.5 -112.5q0 -67 47.5 -115t113.5 -48q67 0 114 47.5t47 115.5q0 66 -47 112.5t-114 46.5zM666 1125q-66 0 -112.5 -47t-46.5 -113q0 -67 46.5 -114t112.5 -47t113.5 47t47.5 114q0 66 -47.5 113t-113.5 47zM1101 392q-67 0 -114 -47 t-47 -113t47 -113.5t114 -47.5q66 0 113 47.5t47 113.5t-47 113t-113 47z" />
<glyph unicode="&#xb85;" horiz-adv-x="1898" d="M658 879q8 -95 76 -150t166 -55q96 0 165.5 55.5t69.5 147.5l88 -94q-8 -92 -102.5 -161t-220.5 -69q-70 0 -127.5 18t-94 46.5t-64.5 63.5t-42 70t-23 63.5t-11 46.5l-2 18h122zM540 988q0 35 12.5 75.5t47 89t86.5 87t140.5 64.5t199.5 26q233 0 361.5 -151.5 t128.5 -426.5v-287h153v641h121v-1311h-121v550h-153l2 -217q0 -99 -37 -182.5t-111.5 -136t-173.5 -52.5h-310v121h306q92 2 147.5 70t55.5 182v215h-513v120h513v293q0 228 -98 340t-271 112q-163 0 -263.5 -69.5t-100.5 -152.5h-122zM109 138q0 163 109 246t301 83h260 v-124h-295q-18 0 -35.5 -1.5t-50.5 -7t-59 -19t-52.5 -34.5t-41.5 -58t-15 -85q0 -69 27 -121.5t69 -81.5t87 -43t88 -14h280v-121h-283q-164 0 -276.5 106.5t-112.5 274.5z" />
<glyph unicode="&#xb86;" horiz-adv-x="2354" d="M1307 -318l546 2q60 0 104 10t81.5 34.5t57 73.5t19.5 121v117q0 123 -44.5 164t-154.5 41v119q58 0 101 -6.5t86.5 -27t71 -55t44.5 -94t17 -141.5v-111q0 -79 -17.5 -140.5t-60.5 -115t-126 -82.5t-202 -29h-523v120zM658 879q8 -95 76 -150t166 -55q96 0 165.5 55.5 t69.5 147.5l88 -94q-8 -92 -102.5 -161t-220.5 -69q-70 0 -127.5 18t-94 46.5t-64.5 63.5t-42 70t-23 63.5t-11 46.5l-2 18h122zM540 988q0 35 12.5 75.5t47 89t86.5 87t140.5 64.5t199.5 26q233 0 361.5 -151.5t128.5 -426.5v-287h153v641h121v-1311h-121v550h-153l2 -217 q0 -99 -37 -182.5t-111.5 -136t-173.5 -52.5h-310v121h306q92 2 147.5 70t55.5 182v215h-513v120h513v293q0 228 -98 340t-271 112q-163 0 -263.5 -69.5t-100.5 -152.5h-122zM109 138q0 163 109 246t301 83h260v-124h-295q-18 0 -35.5 -1.5t-50.5 -7t-59 -19t-52.5 -34.5 t-41.5 -58t-15 -85q0 -69 27 -121.5t69 -81.5t87 -43t88 -14h280v-121h-283q-164 0 -276.5 106.5t-112.5 274.5z" />
<glyph unicode="&#xb87;" horiz-adv-x="2132" d="M968 -341h-486q-164 0 -276 106.5t-112 274.5q0 138 78.5 219t221.5 103q-40 203 -40 342q0 266 93 464.5t268.5 308t415.5 114.5v-123q-129 -3 -236 -45t-182 -112.5t-127.5 -166.5t-77 -206t-24.5 -232q0 -140 48 -337h435v-122h-498q-23 0 -45.5 -2t-63.5 -13.5 t-70.5 -31.5t-52.5 -61.5t-23 -98.5q0 -69 27 -121.5t69.5 -81.5t87.5 -43t88 -14h220q-195 157 -266 409l136 2q62 -278 335 -411h57v-121zM1076 -341v121h247q92 2 147 71t55 183v215h-453v118h574q192 0 287.5 -80t95.5 -218v-65q0 -55 -29 -115.5t-82 -113.5t-142 -82 t-195 -16l57 118q45 -2 90 10.5t87 41t68.5 82t26.5 125.5q0 195 -264 195l2 -218q0 -154 -86.5 -263t-233.5 -109h-252zM670 890q0 158 127.5 259t360.5 101q231 0 360.5 -158t129.5 -435v-223h-121v228q0 230 -99 348.5t-270 118.5q-172 0 -269 -66.5t-97 -172.5h-122z M668 789h119q0 -91 70 -151t175 -60q84 0 158.5 57t74.5 146l90 -94q-8 -92 -102.5 -161t-220.5 -69q-70 0 -128 18.5t-94.5 47.5t-64.5 64.5t-42 71t-22.5 64.5t-10.5 47zM1221 1466v121q211 0 359.5 -70t238 -212.5t130 -342t40.5 -474.5l-123 2q0 185 -18.5 329 t-63.5 268.5t-117.5 206t-184.5 127t-261 45.5z" />
<glyph unicode="&#xb88;" horiz-adv-x="1142" d="M831 482q0 39 28.5 68.5t68.5 29.5q39 0 68.5 -29.5t29.5 -68.5q0 -40 -29.5 -68.5t-68.5 -28.5q-40 0 -68.5 28.5t-28.5 68.5zM339 484q0 39 28.5 67.5t68.5 28.5t69 -28.5t29 -67.5q0 -42 -28.5 -70.5t-69.5 -28.5t-69 28.5t-28 70.5zM645 0v1018h-159v123h551v-123 h-271v-1018h-121zM103 2v1139h280v-123h-159v-1016h-121z" />
<glyph unicode="&#xb89;" horiz-adv-x="1927" d="M203 955h-123q0 79 33.5 152t91.5 128.5t143 88.5t182 33q244 0 376.5 -138t132.5 -407h-116q0 192 -105 309t-288 117q-151 0 -235 -81.5t-92 -201.5zM498 0v113h1383v-113h-1383zM111 105v173q0 66 25.5 91t91.5 25h417q160 1 219 59t59 196v76h118v-78 q0 -35 -3.5 -67.5t-14.5 -70t-28.5 -68.5t-47 -61t-68 -51t-95 -33.5t-124.5 -12.5q-419 -2 -425 -2v-168h159v-113h-170q-38 0 -61.5 6.5t-34.5 22t-14 32t-3 44.5zM203 888q2 -53 24 -101t70.5 -83.5t114.5 -35.5q108 0 160 55t52 171l101 -73q-3 -123 -91 -198.5 t-221 -75.5q-73 0 -131.5 19.5t-95.5 51.5t-61.5 76.5t-34.5 92.5t-10 101h123z" />
<glyph unicode="&#xb8a;" horiz-adv-x="2677" d="M1547 285v111q60 0 107 42.5t46 129.5q-1 51 -16 87t-39.5 53.5t-47.5 24.5t-49 8v109q120 0 190.5 -71.5t70.5 -179.5q0 -8 1 -27t1 -38q1 -56 -28 -111.5t-92 -96t-144 -41.5zM1189 607v7v180q0 50 14.5 105.5t47 112.5t78 103t114 75t148.5 29h3v-109h-7 q-119 0 -197.5 -89.5t-87.5 -218.5q79 48 155 48v-109q-24 -1 -49.5 -10t-51 -27.5t-42 -53.5t-16.5 -82q0 -88 45.5 -130t113.5 -42v-111q-120 0 -194 73.5t-74 173.5v75zM1682 1112v109h2q180 0 266 -132q58 132 192 132h19v-109q-38 0 -65.5 -19t-42 -45.5t-22.5 -66.5 t-10 -70.5t-2 -68.5l8 -557h-113l-2 536v12v9q-1 136 -66.5 203t-159.5 67h-4zM2253 1112v109h346v-109h-115v-827h-111v827h-120zM496 0v113h2075v-113h-2075zM203 955h-123q0 79 33.5 152t91.5 128.5t143 88.5t182 33q244 0 376.5 -138t132.5 -407h-116q0 192 -105 309 t-288 117q-151 0 -235 -81.5t-92 -201.5zM111 105v173q0 66 25.5 91t91.5 25h417q160 1 219 59t59 196v76h118v-78q0 -35 -3.5 -67.5t-14.5 -70t-28.5 -68.5t-47 -61t-68 -51t-95 -33.5t-124.5 -12.5q-419 -2 -425 -2v-168h159v-113h-170q-38 0 -61.5 6.5t-34.5 22t-14 32 t-3 44.5zM203 888q2 -53 24 -101t70.5 -83.5t114.5 -35.5q108 0 160 55t52 171l101 -73q-3 -123 -91 -198.5t-221 -75.5q-73 0 -131.5 19.5t-95.5 51.5t-61.5 76.5t-34.5 92.5t-10 101h123z" />
<glyph unicode="&#xb8e;" horiz-adv-x="1311" d="M86 333v56v17v-2v163q0 109 29.5 210.5t84.5 183t144 131t198 49.5v-121q-142 0 -229 -110t-99 -276q79 53 173 53v-120q-28 0 -56.5 -10.5t-57.5 -33.5t-47.5 -69t-18.5 -108q0 -102 55.5 -163.5t124.5 -61.5v-121q-129 0 -215 99.5t-86 233.5zM492 0v121q65 0 112 61 t47 168q-1 109 -47 163t-112 54v120q123 0 202 -82t79 -216v-71q2 -126 -82.5 -222t-198.5 -96zM940 0v1018h-293v121h612v-121h-199v-1018h-120z" />
<glyph unicode="&#xb8f;" horiz-adv-x="1311" d="M630 -337l310 375v980h-293v121h612v-121h-197l-2 -1018l-283 -337h-147zM86 333v56v17v-2v163q0 109 29.5 210.5t84.5 183t144 131t198 49.5v-121q-142 0 -229 -110t-99 -276q79 53 173 53v-120q-28 0 -56.5 -10.5t-57.5 -33.5t-47.5 -69t-18.5 -108q0 -102 55.5 -163.5 t124.5 -61.5v-121q-129 0 -215 99.5t-86 233.5zM492 0v121q65 0 112 61t47 168q-1 109 -47 163t-112 54v120q123 0 202 -82t79 -216v-71q2 -126 -82.5 -222t-198.5 -96z" />
<glyph unicode="&#xb90;" horiz-adv-x="1747" d="M509 -345q-86 0 -161 35.5t-124 91t-77 122t-28 130.5v98q0 46 11 91.5t37 91.5t64.5 81t98.5 57t133 22h69v-121h-82q-38 0 -73 -14t-67 -43.5t-51.5 -83.5t-19.5 -125q0 -147 78.5 -229.5t191.5 -82.5v-121zM612 -345v121q50 0 86.5 4t77 18t65.5 38.5t42 68.5t17 105 v214l118 2v-216q0 -68 16 -116.5t44.5 -72.5t59 -34.5t66.5 -10.5v-121q-50 0 -95 11t-87 41.5t-63 78.5q-73 -131 -347 -131zM44 995q0 28 10.5 65.5t44 88t84 91.5t142 69.5t207.5 28.5q286 0 408 -220q38 89 110 139t162 58v-121q-26 -5 -47.5 -12.5t-50 -28.5t-48 -52 t-33 -86t-13.5 -127v-203h-118l-2 79q-8 242 -102.5 351.5t-269.5 109.5q-169 0 -265 -63.5t-96 -166.5h-123zM1332 356v123q48 0 84 21.5t55.5 52.5t31.5 75.5t15.5 81t3.5 77.5v153q0 55 -14.5 99t-36 71t-50.5 45.5t-54.5 27t-51.5 11.5v121q138 -9 233.5 -107.5 t95.5 -267.5v-199q-1 -104 -29 -182t-74.5 -120.5t-98.5 -62.5t-110 -20zM406 561q-70 0 -128 17.5t-94.5 44.5t-64.5 63t-42 68t-22.5 63.5t-10.5 47t-2 21.5h121q1 -32 16 -66t43 -66t76 -52.5t108 -20.5q95 0 164 55.5t69 147.5l90 -94q-8 -92 -102.5 -160.5 t-220.5 -68.5zM1307 -345v121q82 0 138 60.5t56 157.5v232h120v-232q0 -83 -35 -159t-108.5 -128t-170.5 -52zM658 354v121h552v-121h-552z" />
<glyph unicode="&#xb92;" horiz-adv-x="1607" d="M865 1210v120q112 0 211.5 -29t170.5 -77.5t127.5 -108.5t90 -124.5t51 -122.5t17.5 -106v-446q0 -90 -57.5 -154t-140.5 -88t-177 -15t-165 52v-46q0 -52 37 -92.5t97.5 -62.5t126.5 -32.5t134 -9.5v-121q-231 0 -373 84.5t-142 216.5v622h122v-341q0 -55 42 -94 t102.5 -50t121 -3t104.5 48t46 101v431q0 49 -21 107t-67 118.5t-108 110t-154 81t-196 31.5zM77 373v73v6v141q0 66 9.5 133.5t33 141t58.5 139t90 125.5t124 103.5t164.5 69t207.5 25.5v-120q-107 0 -195.5 -28t-150.5 -75.5t-106.5 -114t-68 -140.5t-31.5 -157 q79 50 165 50v-121q-28 0 -56.5 -10.5t-58 -33t-47.5 -68.5t-18 -108q0 -102 55.5 -164t124.5 -62v-121q-84 0 -154.5 49.5t-108 121.5t-37.5 145zM482 57v121q63 0 110.5 61.5t46.5 166.5q0 108 -46 163t-111 55v121q115 0 198.5 -89t83.5 -212v-69q0 -127 -84 -222.5 t-198 -95.5zM356 -237l121 30q44 -101 131 -143t177 -11t141 126l108 -62q-42 -80 -113.5 -131t-153 -61.5t-161 9.5t-147.5 83.5t-103 159.5z" />
<glyph unicode="&#xb93;" horiz-adv-x="1607" d="M865 1210v120q112 0 211.5 -29t170.5 -77.5t127.5 -108.5t90 -124.5t51 -122.5t17.5 -106v-446q0 -90 -57.5 -154t-140.5 -88t-177 -15t-165 52v-46q0 -52 37 -92.5t97.5 -62.5t126.5 -32.5t134 -9.5v-121q-231 0 -373 84.5t-142 216.5v622h122v-341q0 -55 42 -94 t102.5 -50t121 -3t104.5 48t46 101v431q0 49 -21 107t-67 118.5t-108 110t-154 81t-196 31.5zM367 -270q0 59 16 110.5t51.5 97t100 72t152.5 26.5v-120q-55 0 -96 -17t-62.5 -45.5t-31 -59.5t-9.5 -66q0 -59 30.5 -103t80 -62t106 -15.5t114.5 35.5t100 92q16 22 44 76 l107 -63q-23 -47 -58 -91.5t-83 -84.5t-113.5 -64.5t-136.5 -23.5q-140 1 -226 90t-86 216zM77 373v73v6v141q0 66 9.5 133.5t33 141t58.5 139t90 125.5t124 103.5t164.5 69t207.5 25.5v-120q-107 0 -195.5 -28t-150.5 -75.5t-106.5 -114t-68 -140.5t-31.5 -157 q79 50 165 50v-121q-28 0 -56.5 -10.5t-58 -33t-47.5 -68.5t-18 -108q0 -102 55.5 -164t124.5 -62v-121q-84 0 -154.5 49.5t-108 121.5t-37.5 145zM482 57v121q63 0 110.5 61.5t46.5 166.5q0 108 -46 163t-111 55v121q115 0 198.5 -89t83.5 -212v-69q0 -127 -84 -222.5 t-198 -95.5z" />
<glyph unicode="&#xb94;" horiz-adv-x="3370" d="M865 1210v120q112 0 211.5 -29t170.5 -77.5t127.5 -108.5t90 -124.5t51 -122.5t17.5 -106v-446q0 -90 -57.5 -154t-140.5 -88t-177 -15t-165 52v-46q0 -52 37 -92.5t97.5 -62.5t126.5 -32.5t134 -9.5v-121q-231 0 -373 84.5t-142 216.5v622h122v-341q0 -55 42 -94 t102.5 -50t121 -3t104.5 48t46 101v431q0 49 -21 107t-67 118.5t-108 110t-154 81t-196 31.5zM77 373v73v6v141q0 66 9.5 133.5t33 141t58.5 139t90 125.5t124 103.5t164.5 69t207.5 25.5v-120q-107 0 -195.5 -28t-150.5 -75.5t-106.5 -114t-68 -140.5t-31.5 -157 q79 50 165 50v-121q-28 0 -56.5 -10.5t-58 -33t-47.5 -68.5t-18 -108q0 -102 55.5 -164t124.5 -62v-121q-84 0 -154.5 49.5t-108 121.5t-37.5 145zM482 57v121q63 0 110.5 61.5t46.5 166.5q0 108 -46 163t-111 55v121q115 0 198.5 -89t83.5 -212v-69q0 -127 -84 -222.5 t-198 -95.5zM356 -237l121 30q44 -101 131 -143t177 -11t141 126l108 -62q-42 -80 -113.5 -131t-153 -61.5t-161 9.5t-147.5 83.5t-103 159.5zM1987 0q-84 0 -155.5 49t-109.5 122t-38 147q0 8 0.5 17.5t0.5 21.5t-1 32v13v188q0 107 30 208t84.5 181t140.5 128.5t189 48.5 v-121q-134 0 -220.5 -114.5t-94.5 -288.5q79 53 174 53v-120q-28 0 -57 -11t-58.5 -34t-48 -68.5t-18.5 -105.5q0 -101 55.5 -163t126.5 -62v-121zM2092 0v121q65 0 109 60.5t44 166.5t-44 161.5t-109 55.5v120q113 0 195.5 -88t82.5 -207v-70q2 -128 -80 -224t-198 -96z M2643 0h-122v676q0 155 -75.5 257t-213.5 102v121q117 0 200 -51.5t133 -136.5q70 188 254 188v-121q-50 0 -85.5 -27.5t-55 -81.5t-28 -122t-9.5 -161zM3032 0v1035h-109v121h371v-121h-142v-1035h-120z" />
<glyph unicode="&#xb95;" horiz-adv-x="1521" d="M109 408q0 65 15 116.5t38 83t56 53t64 31.5t66 14v433h255v-123h-132l-2 -306h369v306h-132v123h506v-123h-253v-306h126q172 0 249 -73t77 -256h-121q0 115 -49.5 162.5t-166.5 47.5h-115v-225q0 -74 -18.5 -139t-58.5 -122.5t-113.5 -91.5t-173.5 -34v121 q110 0 176.5 65.5t66.5 198.5v227h-419q-56 0 -94.5 -15t-58.5 -42t-28 -57t-8 -69h-121zM492 -21q-95 0 -169 28.5t-119.5 78t-69 112t-25.5 135.5h121q15 -233 262 -233v-121zM997 -21v117q122 0 201.5 61t85.5 147h125q-5 -145 -115.5 -235t-296.5 -90z" />
<glyph unicode="&#xb99;" horiz-adv-x="1638" d="M1428 0v1139h120v-1139h-120zM494 0v121h323q171 0 171 126v174q0 35 -12.5 61t-31 40t-47 22t-54 10.5t-58.5 2.5v121q65 0 120.5 -13t102 -40t73.5 -75t27 -112v-216q0 -53 -25 -101h243v-121h-832zM561 197v821h-341v-1018h-120v1131v8h790v-121h-209v-821h-120z" />
<glyph unicode="&#xb9a;" horiz-adv-x="1318" d="M465 -2q-91 1 -161.5 22t-112 52.5t-68.5 74t-36.5 80.5t-9.5 77h122q0 -84 75.5 -134.5t190.5 -50.5v-121zM567 -2v121q122 0 181.5 62.5t59.5 176.5v232h-351q-260 0 -260 -194h-120q0 113 63.5 189.5t175.5 105.5v444h256v-119h-134l-2 -306h29h343v306h-132v119h534 v-119h-282v-306h196v-120h-196v-224q0 -74 -18 -136t-57.5 -116t-112.5 -85t-173 -31z" />
<glyph unicode="&#xb9c;" horiz-adv-x="1730" d="M519 -345q-86 0 -161.5 36.5t-124.5 93t-77 124t-28 131.5v92q0 45 12 91.5t39 92.5t66 81.5t98 57.5t130 22h819q42 0 74.5 4.5t57 16.5t41.5 24.5t29 36t19 44t10.5 56t5 63.5t2.5 74v136q0 68 -20.5 119t-54.5 78.5t-65.5 41t-65.5 18.5v120q139 -10 234 -109t95 -268 v-191q-5 -387 -333 -387h-862q-38 0 -73 -14t-67 -43.5t-51 -83.5t-19 -125q0 -146 79 -229t191 -83v-121zM86 902v1v20q0 25 2 42q3 19 6 36q9 44 26 85.5t52 87.5t82.5 80t123.5 56t169 22q290 0 412 -199q41 79 109.5 123.5t152.5 52.5v-120q-26 -6 -47 -13.5 t-49.5 -29.5t-47.5 -53t-33 -86t-14 -127v-268h-119v270q0 102 -64.5 196t-182.5 128q86 -100 86 -251v-53q0 -60 -38.5 -132.5t-106 -127t-136.5 -54.5v118q18 2 44.5 18.5t54 45.5t47 78.5t19.5 106.5q0 63 -20.5 112t-53 77t-69 42t-72.5 14q-72 0 -141 -73.5t-69 -196.5 q0 -45 12.5 -83.5t30.5 -63t40.5 -43t41 -27t32.5 -9.5v-116q-75 0 -141 49.5t-102.5 121.5t-36.5 143zM635 -222q53 0 88.5 6.5t69 25t51.5 58t21 99.5q8 154 59.5 227.5t174.5 73.5h84v-123h-90q-64 1 -80.5 -39t-26.5 -186q-1 -22 -2 -33q-8 -100 -102 -165t-247 -65v121 zM1097 -218h50t56 1.5t64 4.5t61.5 9.5t61.5 15.5t51 24t44.5 33.5t26 44.5t10.5 58q-1 44 -20 77t-44.5 50t-61.5 28t-60 13.5t-50 3.5v123q66 0 126.5 -17t113.5 -51t84.5 -93.5t31.5 -137.5q0 -63 -19 -112.5t-56.5 -82.5t-85 -55.5t-111.5 -35t-129 -17.5t-144 -5v121z " />
<glyph unicode="&#xb9e;" horiz-adv-x="2003" d="M471 -337q-164 0 -267.5 87t-103.5 252v775q-2 160 100.5 262t279.5 102v-121q-70 0 -122.5 -21t-81 -56.5t-42.5 -75t-14 -82.5v-789q0 -95 64 -153.5t189 -58.5h509v-121h-511zM1087 -218h465q245 0 245 245v268q0 120 -47.5 161.5t-155.5 41.5v120q53 0 96.5 -7 t87.5 -28.5t73.5 -56t48 -93.5t18.5 -138v-268q0 -80 -20.5 -145t-64 -115.5t-118 -78t-176.5 -27.5h-452v121zM526 333v56v17v-2v163q0 109 29.5 210.5t84.5 183t144 131t198 49.5v-121q-142 0 -228.5 -110t-98.5 -276q79 53 172 53v-120q-28 0 -56.5 -10.5t-57.5 -33.5 t-47.5 -69t-18.5 -108q0 -102 55.5 -163.5t124.5 -61.5v-121q-129 0 -215 99.5t-86 233.5zM932 0v121q65 0 112 61t47 168q-1 109 -47 163t-112 54v120q123 0 202 -82t79 -216v-71q2 -126 -82.5 -222t-198.5 -96zM1380 0v1018h-293v121h613v-121h-199v-1018h-121z" />
<glyph unicode="&#xb9f;" horiz-adv-x="1219" d="M144 0v121h957v-121h-957zM144 226v915h120v-915h-120z" />
<glyph unicode="&#xba3;" horiz-adv-x="2520" d="M77 304v251q0 113 21 205.5t54 153.5t80 107t92 70.5t97 39.5t88.5 19t72.5 4v-120q-84 -1 -151 -26.5t-110.5 -69t-72 -105.5t-40.5 -130.5t-11 -147.5v-249q0 -98 28 -150.5t70 -52.5v-120q-69 0 -120 47t-74.5 118.5t-23.5 155.5zM350 733q-5 28 27 59.5t73 32.5 q172 0 172 -268v-253q0 -142 -57.5 -231.5t-162.5 -89.5v120q46 0 72.5 51t26.5 150v253q0 44 -5.5 72.5t-20.5 54t-46 37.5t-79 12zM756 306v245q0 293 159 448q-96 35 -230 35v120q207 0 349 -71q134 69 300 69v-120q-106 0 -186 -27q155 -148 155 -429v-270 q0 -139 -58 -230t-165 -91v120q51 0 77 54t26 147v270q0 251 -155 366q-151 -117 -151 -387v-247q0 -92 26 -147.5t75 -55.5v-120q-70 0 -122 47t-76 118.5t-24 155.5zM1437 1032v120q180 0 293 -59q127 61 285 61v-120q-89 0 -172 -23q140 -151 140 -437v-268 q0 -137 -59.5 -228t-162.5 -91v120q48 0 74.5 55t26.5 144v270q0 265 -141 375q-165 -120 -165 -398v-245q0 -92 28.5 -146.5t73.5 -54.5v-120q-103 0 -162.5 94t-59.5 225v243q0 304 170 460q-74 23 -169 23zM2138 2v1032h-17v120h323v-120h-185v-1032h-121z" />
<glyph unicode="&#xba4;" horiz-adv-x="1381" d="M124 -517q0 198 66.5 276t198.5 78h491q143 0 219 66t76 164v222h121v-224q0 -51 -14.5 -99.5t-47 -94t-79.5 -79.5t-117.5 -54.5t-155.5 -20.5h-515q-63 0 -90.5 -50.5t-27.5 -183.5h-125zM77 312h120q3 -50 21.5 -86t42.5 -55.5t61.5 -30.5t68 -13.5t72.5 -2.5v-120 q-194 0 -290 83.5t-96 224.5zM77 396q0 122 66 198t173 105v440h256v-121h-134l-2 -302h16h356v302h-132v121h505v-121h-253v-302h44q57 0 100.5 -6.5t87.5 -27t72 -55t46 -94t18 -141.5h-121q0 51 -11 89t-27.5 59.5t-41.5 34t-48 16.5t-52 4h-67v-224q0 -73 -18.5 -135.5 t-58.5 -116t-113.5 -84.5t-172.5 -31v120q243 0 243 240v231h-370q-40 0 -78 -8.5t-78 -28.5t-64.5 -62t-24.5 -100h-116z" />
<glyph unicode="&#xba8;" horiz-adv-x="1226" d="M831 597v121q48 0 86.5 -6.5t79 -27t67.5 -55t44 -94.5t17 -141v-346q0 -36 -4.5 -72t-16.5 -81t-36 -82.5t-59 -70t-91 -51t-126 -18.5h-505q-47 0 -67.5 -43t-20.5 -149h-124q0 97 17.5 161t53.5 96t76.5 43.5t99.5 11.5h468q100 0 156.5 66.5t56.5 188.5l2 346 q0 56 -10 95t-24 60t-39.5 32t-46.5 13.5t-54 2.5zM140 0v1139h256v-121h-136v-1018h-120zM605 0l2 1018h-90v121h482v-121h-274l2 -1018h-122z" />
<glyph unicode="&#xba9;" horiz-adv-x="1837" d="M756 297v268q0 285 157 442q-96 30 -222 30v121q212 0 344 -65q129 65 286 65v-121q-86 0 -169 -23q151 -144 151 -424v-293q0 -140 -57 -231t-165 -91v121q51 0 76.5 54t25.5 147v294q0 249 -155 358q-151 -119 -151 -381v-269q0 -91 26.5 -147t74.5 -56v-121 q-103 0 -162.5 95.5t-59.5 226.5zM77 295v273q0 113 21.5 205t55 152t81 105t93 69t98.5 38t89 17.5t73 3.5v-121q-106 -1 -184 -37.5t-122.5 -102.5t-65 -147.5t-19.5 -181.5l2 -271q-1 -98 28.5 -150.5t74.5 -52.5v-121q-71 0 -123.5 47t-77 119t-24.5 156zM356 746 q-5 27 27 58t73 32q174 0 174 -268v-273q0 -142 -59.5 -232t-166.5 -90v121q48 0 76.5 51t28.5 150v273q0 89 -30.5 133.5t-122.5 44.5zM1422 1039v119h339v-121l-184 2v-1039h-120v1039h-35z" />
<glyph unicode="&#xbaa;" horiz-adv-x="1029" d="M570 0v121h220v1018h123v-1139h-343zM117 0v1139h120v-1018h226v-121h-346z" />
<glyph unicode="&#xbae;" horiz-adv-x="1182" d="M821 0v121q38 0 66.5 21t42 48.5t21 67t9 61.5t1.5 47v465q0 206 -140 206v121q52 0 95.5 -16t82 -51t60.5 -101.5t22 -158.5v-454q0 -82 -14.5 -147.5t-39 -108t-58.5 -70t-70.5 -39.5t-77.5 -12zM77 0v1139h120v-1018h272v710q-1 92 20.5 158.5t58.5 101.5t79 51t91 16 v-121q-128 0 -128 -206v-710h128v-121h-641z" />
<glyph unicode="&#xbaf;" horiz-adv-x="1276" d="M955 0v119h46q39 0 59 14t20 51v955h122v-1139h-247zM77 268v871h120v-861q0 -63 39 -111t87 -48h10v-119h-11q-90 0 -167.5 83t-77.5 185zM436 0v119h12q66 0 113.5 32.5t47.5 101.5v886h120v-948q0 -40 16 -56t47 -16h64l-2 -119h-240l-2 67q-21 -30 -64.5 -48.5 t-99.5 -18.5h-12z" />
<glyph unicode="&#xbb0;" horiz-adv-x="1033" d="M293 -339l325 383v974h-157v121h496v-121h-214l-4 -1018l-293 -339h-153zM77 0v1139h281v-121h-161v-1018h-120z" />
<glyph unicode="&#xbb1;" horiz-adv-x="1303" d="M77 -519q0 87 15 152t40 106t62.5 66t77.5 34.5t90 9.5h524q102 0 156.5 71.5t54.5 192.5v767q0 42 -12 73.5t-28 47t-38 25t-36 11.5t-28 2v121q64 0 116 -24t83 -62.5t47 -81t16 -83.5v-787q0 -114 -33.5 -200.5t-106 -139.5t-177.5 -54h-546q-79 0 -118 -54t-39 -193 h-120zM134 0v917q0 39 13.5 79t40 78t75 62t110.5 24v-121q-35 0 -60 -14.5t-36.5 -38t-16.5 -44.5t-5 -42l3 -900h-124zM475 1039v121q67 0 112 -18.5t79 -60.5q38 45 84 62t107 17v-121q-62 0 -98 -38t-36 -134l4 -865l-120 -2l-4 865q0 97 -30.5 135.5t-97.5 38.5z" />
<glyph unicode="&#xbb2;" horiz-adv-x="1628" d="M482 0v121q65 0 110 60.5t45 166.5q-1 107 -45.5 163t-109.5 56v120q113 0 195.5 -88t82.5 -209v-70q2 -128 -80 -224t-198 -96zM77 318v71v13v188q0 86 17 168t52 154.5t84 127t116.5 86.5t145.5 32v-119q-122 0 -201.5 -116t-87.5 -291q83 55 174 55v-120 q-28 0 -57 -11t-58 -34.5t-47 -69t-18 -106.5q0 -101 55 -163t125 -62v-121q-84 0 -154.5 49t-108 121.5t-37.5 147.5zM595 1039v121q91 0 163.5 -28t116.5 -72t73.5 -102.5t40.5 -114t12 -112.5v-448q0 -65 49 -113t114 -48v-122q-120 0 -202.5 84t-82.5 197v462 q-1 35 -6.5 69t-23.5 77t-47.5 74.5t-83 53.5t-123.5 22zM1221 1137q172 1 252.5 -78t80.5 -247v-521q0 -120 -76.5 -205.5t-212.5 -85.5v122q86 0 127.5 52t41.5 117v517q0 48 -6.5 80.5t-27 64t-64.5 47.5t-113 16z" />
<glyph unicode="&#xbb3;" horiz-adv-x="1760" d="M77 318q0 8 0.5 17.5t0.5 21.5t-1 32v13v189q0 85 18.5 167.5t56 154.5t89.5 127t124.5 86.5t155.5 31.5v-121q-134 0 -221 -115t-95 -290q82 55 174 55v-120q-28 0 -57 -11t-58.5 -34.5t-48 -69t-18.5 -106.5q0 -101 55.5 -163t126.5 -62v-121q-84 0 -155 49t-109 122 t-38 147zM484 0v121q65 0 109 60.5t44 166.5q0 107 -44 163t-109 56v120q113 0 195.5 -88t82.5 -209v-70q2 -128 -80 -224t-198 -96zM624 1037v121q117 0 200 -51.5t133 -136.5q70 188 255 188v-121q-50 0 -85.5 -27.5t-55 -81.5t-28 -122t-9.5 -161l1 -645h-122v678 q0 155 -75.5 257t-213.5 102zM1424 0v1037h-109v121h371v-121h-141v-1037h-121z" />
<glyph unicode="&#xbb4;" horiz-adv-x="1182" d="M147 -128h121q1 -62 31 -100.5t70.5 -47.5t82 -0.5t65.5 33.5q12 -25 45 -45.5t70 -23.5q-92 -66 -182.5 -81t-156 15t-106 96t-40.5 154zM823 2v120q38 0 66.5 21t42 48.5t21 67t9 61.5t1.5 47v466q0 206 -140 206v121q52 0 95.5 -16t82 -51t60.5 -101.5t22 -158.5v-454 q0 -82 -14.5 -147.5t-39 -108t-58.5 -70t-70.5 -39.5t-77.5 -12zM78 2v1139h121v-1019h272v711q-1 92 20.5 158.5t58.5 101.5t79 51t91 16v-121q-27 0 -49 -11t-35 -25t-22.5 -38t-14 -39.5t-6.5 -41.5t-2 -31v-20v-711h129v-120h-129q0 -39 9 -67t34.5 -45.5t45.5 -27.5 t70 -14t79 -4.5t99 -0.5h40v-122l-141 1q-356 -2 -356 280h-393z" />
<glyph unicode="&#xbb5;" horiz-adv-x="1559" d="M484 0v121q62 0 107.5 60t45.5 167q0 110 -45 164.5t-108 54.5v120q113 0 195.5 -88t82.5 -209v-70q2 -128 -80 -224t-198 -96zM77 318v71v13v178q0 91 17 175t53 157.5t88 128t126 86t163 31.5v-121q-136 0 -223.5 -115t-95.5 -288q82 53 174 53v-120q-28 0 -57 -10.5 t-58.5 -33.5t-48 -69t-18.5 -108q0 -101 55.5 -163t126.5 -62v-121q-84 0 -155 49t-109 122t-38 147zM622 1037v121q91 0 165.5 -29.5t123.5 -77.5t83 -111.5t48.5 -129t15.5 -131.5v-558h200v-121h-439v121q36 1 50 1.5t31.5 3.5t22.5 10t9 18t4 30v494q-2 157 -85 258 t-229 101zM1363 0v1139h122v-1139h-122z" />
<glyph unicode="&#xbb6;" horiz-adv-x="1701" d="M103 272v867h119v-861q0 -156 138 -156v-122h-17q-63 0 -111 24t-75.5 64.5t-40.5 86.5t-13 97zM463 0v122q61 0 101.5 39.5t40.5 108.5v869h976v-873q0 -47 -16 -93t-45 -85t-76.5 -63.5t-105.5 -24.5h-17v122q61 0 100 40t39 110v746h-377v-740q0 -156 134 -156v-122 h-17q-117 0 -177 77.5t-60 194.5v746h-238v-754q0 -39 -13.5 -82t-40 -85.5t-75.5 -69.5t-112 -27h-21z" />
<glyph unicode="&#xbb7;" horiz-adv-x="2409" d="M484 0v121q62 0 107.5 60t45.5 167q0 110 -45 164.5t-108 54.5v120q113 0 195.5 -88t82.5 -209v-70q2 -128 -80 -224t-198 -96zM77 318v71v13v178q0 91 17 175t53 157.5t88 128t126 86t163 31.5v-121q-136 0 -223.5 -115t-95.5 -288q82 53 174 53v-120q-28 0 -57 -10.5 t-58.5 -33.5t-48 -69t-18.5 -108q0 -101 55.5 -163t126.5 -62v-121q-84 0 -155 49t-109 122t-38 147zM620 1037v121q91 0 165.5 -29.5t124 -78t83.5 -111.5t49 -128.5t16 -131.5v-558h502v-121h-743v121q37 1 51 1.5t32 3.5t23 10t9 18t4 30v494q-2 157 -85.5 258 t-230.5 101zM1269 639v190q0 95 21.5 162t62.5 103.5t91.5 52t117.5 15.5v-121q-27 0 -45 -2t-44.5 -14t-42.5 -33t-28 -63.5t-12 -101.5v-209q0 -67 15.5 -109.5t44.5 -60t53 -22.5t59 -5v-119q-68 0 -117.5 14.5t-91 50.5t-63 104t-21.5 168zM2105 0h-151v-341h-120v343 h-171v120h171v58h120v-58h151v180h-151v-47h-120v47h-171v121h171v367q0 68 -11 117t-26.5 74t-40.5 39.5t-45 17.5t-48 3v121q291 0 291 -372v-367h261v-423h-110z" />
<glyph unicode="&#xbb8;" horiz-adv-x="2247" d="M1353 1039v121q70 0 121.5 -22t82 -57t48.5 -88t24 -104.5t6 -115.5v-532q0 -51 39 -85t95 -34v-122q-113 0 -184 71.5t-71 165.5v525q0 38 -1.5 63.5t-6 61.5t-15 59.5t-27.5 46.5t-45.5 34.5t-65.5 11.5zM1872 0v122q69 0 115.5 33t64 75.5t17.5 89.5v492q0 39 -3 65 t-15.5 55.5t-34 47t-61.5 29t-96 11.5v121q174 1 252.5 -78t78.5 -248v-495q0 -82 -33 -153t-107 -119t-178 -48zM126 318v71v13v189q0 107 30 208t85.5 181.5t141.5 129t189 48.5v-121q-134 0 -221.5 -115t-95.5 -290q83 55 174 55v-120q-28 0 -57 -11t-58.5 -34.5t-48 -69 t-18.5 -106.5q0 -101 55.5 -163t126.5 -62v-121q-129 0 -216 95.5t-87 222.5zM534 0v121q65 0 109 60.5t44 166.5q0 107 -44 163t-109 56v120q113 0 195.5 -88t82.5 -209v-70q2 -128 -80 -224t-198 -96zM676 1037v121q220 0 331 -182q62 182 243 182v-121q-50 0 -83 -25.5 t-50 -78t-24 -117t-8 -159.5l4 -657h-122l-2 622v27v29q0 156 -75 257.5t-214 101.5z" />
<glyph unicode="&#xbb9;" horiz-adv-x="2562" d="M2322 576l-2 301q0 42 -11.5 73.5t-26.5 47t-36 24.5t-34.5 11t-27.5 2v121q56 0 101.5 -16t74 -42t47.5 -59.5t27 -67t8 -66.5v-329h-120zM626 1034v118q91 0 165.5 -28t123.5 -74.5t82.5 -109t48.5 -127.5t16 -134v-558h199v-121h-438v121q31 1 43 1.5t30 2.5t23.5 5.5 t12.5 10.5t8.5 17t1.5 26v494q-2 156 -85 256t-231 100zM1703 1035v121q67 0 112.5 -17.5t79.5 -58.5q67 76 191 76v-121q-54 0 -94 -36.5t-40 -123.5l4 -875h-120l-2 873q0 162 -131 162zM82 318v71v13v165q0 87 16 169t51 158t85.5 133t126 91t165.5 34v-118 q-135 0 -220 -114.5t-95 -285.5q79 53 172 53v-120q-28 0 -57 -11t-58 -34.5t-47 -69t-18 -106.5q0 -101 55 -163t125 -62v-121q-64 0 -121 29t-96 75t-61.5 102.5t-22.5 111.5zM488 0v121q65 0 110 60.5t45 166.5q-1 107 -45.5 163t-109.5 56v120q114 0 196 -88t82 -209 v-70q2 -128 -80 -224t-198 -96zM1361 0v913q0 39 13.5 79t40 78t75 62t110.5 24v-121q-35 0 -60.5 -14.5t-37 -38t-16.5 -44.5t-5 -42l2 -896h-122zM2444 482v-358q0 -184 -79 -295t-235 -114h-1686q-68 0 -98 -52t-30 -182h-121q0 186 63 267.5t207 81.5h1650q98 0 155 81 t56 221l-2 350h120z" />
<glyph unicode="&#xbbe;" horiz-adv-x="979" d="M647 0v1018h-159v121h440v-121h-160v-1018h-121zM105 0v1139h282v-121h-161v-1018h-121z" />
<glyph unicode="&#xbbf;" horiz-adv-x="566" d="M105 1351v121q95 0 165.5 -28.5t110.5 -79t59 -113t19 -137.5v-982h-120v976q0 130 -64.5 186.5t-169.5 56.5zM-337 1110q0 76 17.5 138.5t55 114.5t105.5 81.5t161 29.5v-121q-218 0 -218 -243h-121z" />
<glyph unicode="&#xbc0;" horiz-adv-x="415" d="M132 790q-83 68 -137 164.5t-73.5 197t-8.5 200.5t50.5 178t112 126.5t167.5 48.5q56 -1 105.5 -16t90.5 -45t65 -80.5t24 -116.5q0 -97 -68 -171t-161 -74q-67 0 -124 41.5t-64 77.5l75 86q0 -29 28 -56.5t81 -27.5q51 0 82 37.5t31 84.5q0 59 -40.5 98.5t-124.5 39.5 q-63 -4 -110 -37t-70 -85.5t-31 -118t7.5 -139t45.5 -144.5t82.5 -138.5t119.5 -116.5z" />
<glyph unicode="&#xbc1;" horiz-adv-x="1033" d="M75 1156v119h543q165 0 252 -62t87 -183v-16q0 -99 -70.5 -169t-153.5 -70h-32q-95 0 -161.5 74.5t-66.5 164.5h120q0 -39 30.5 -78.5t92.5 -39.5q58 0 89 40.5t31 76.5q0 74 -52 108.5t-173 34.5h-536z" />
<glyph unicode="&#xbc2;" horiz-adv-x="1376" d="M92 1156v119h394q3 183 107.5 280t279.5 97q170 0 280 -86.5t110 -233.5v-620q0 -253 -287 -253h-113v106h113q37 0 62.5 5t51.5 19t39.5 45t13.5 78v620q0 86 -72.5 143.5t-197.5 57.5q-127 0 -196.5 -66t-69.5 -192h28q165 0 252 -62t87 -183v-16q0 -99 -70.5 -169 t-153.5 -70h-32q-95 0 -161.5 74.5t-66.5 164.5h121q0 -39 30.5 -78.5t91.5 -39.5q58 0 89.5 40.5t31.5 76.5q0 74 -52.5 108.5t-173.5 34.5h-536z" />
<glyph unicode="&#xbc6;" horiz-adv-x="1211" d="M532 0v121q65 0 110 60.5t45 166.5q-1 107 -45.5 163t-109.5 56v120q113 0 195.5 -88t82.5 -209v-70q2 -128 -80 -224t-198 -96zM126 318v71v5v469q0 92 26 172t78 144t138.5 101t198.5 37v-119q-73 0 -130 -20.5t-92 -53.5t-58 -78t-31.5 -89.5t-8.5 -93.5v-235 q83 59 180 59v-120q-28 0 -57 -11t-58.5 -34.5t-48 -69t-18.5 -106.5q0 -101 56 -163t126 -62v-121q-64 0 -121 29t-96 75t-61.5 102.5t-22.5 111.5zM670 1198v119q105 0 186.5 -37t130 -101t72.5 -144t24 -172v-882h-120v882q0 40 -5.5 78.5t-24 87.5t-48.5 84.5t-85.5 60 t-129.5 24.5z" />
<glyph unicode="&#xbc7;" horiz-adv-x="1188" d="M790 720v120q65 0 110.5 61t45.5 167q-1 107 -46 162.5t-110 55.5v121q113 0 195.5 -88.5t82.5 -208.5v-71q2 -128 -80 -223.5t-198 -95.5zM385 1037v71q0 61 19 109q-155 -90 -155 -275v-486q0 -197 166 -293q-30 69 -30 132v71q-1 71 27 130t73 94.5t97 54.5t103 19 v-120q-28 0 -57 -11t-58.5 -34.5t-48 -69t-18.5 -106.5q0 -101 56 -163t126 -62v-121h-4h-9q-58 0 -121 10t-140.5 40.5t-137 78t-100.5 132t-41 193.5v518q0 83 24 152t62 115t89.5 82t102.5 56t105 32.5t92.5 16.5t70.5 4h7v-121q-28 0 -57 -11t-58.5 -34t-48 -68.5 t-18.5 -106.5q0 -101 56 -163.5t126 -62.5v-120q-84 0 -154.5 49t-108 121t-37.5 147zM790 -23v121q65 0 110.5 60.5t45.5 166.5q-1 107 -46 163t-110 56v120q113 0 195.5 -88.5t82.5 -208.5v-70q2 -128 -80 -224t-198 -96z" />
<glyph unicode="&#xbc8;" horiz-adv-x="1996" d="M810 302v249q0 302 183 462q-114 24 -248 24v121q224 0 382 -61q137 61 305 61v-121q-85 0 -165 -17q203 -146 203 -444v-274q0 -140 -71.5 -230.5t-207.5 -90.5v120q79 0 118.5 54t39.5 147v276q0 278 -224 389q-195 -114 -195 -412v-251q0 -91 42.5 -147t114.5 -56 v-120q-88 0 -152.5 47t-94.5 118.5t-30 155.5zM77 301v254q0 113 23.5 206t60.5 154t89 107.5t102.5 71.5t108.5 40t99 19.5t81 4.5v-121q-98 -1 -175.5 -27t-127.5 -70t-82.5 -106t-46 -131t-12.5 -148l2 -253q-1 -97 45 -149.5t112 -52.5v-121q-131 0 -205 95.5t-74 226.5 zM467 746q-5 27 26 58t72 32q62 0 102 -42t55 -103.5t15 -143.5v-246q0 -142 -73 -232t-207 -90v121q71 0 115 51.5t44 149.5v246q0 44 -5.5 76t-20 62t-45.5 45.5t-78 15.5zM1535 1020v121q70 -4 135.5 -44.5t118 -110t84 -175.5t31.5 -231v-270q0 -138 -77.5 -229 t-216.5 -91v121q87 0 130.5 55.5t43.5 143.5v270q0 100 -23.5 184.5t-61 137t-80 83t-84.5 35.5z" />
<glyph unicode="&#xbca;" horiz-adv-x="2084" d="M1753 0v1018h-159v121h441v-121h-161v-1018h-121zM1212 0v1139h281v-121h-161v-1018h-120zM523 13v121q65 0 110 61t45 167q-1 107 -45.5 162.5t-109.5 55.5v121q113 0 195 -88t82 -209v-71q2 -128 -79.5 -224t-197.5 -96zM117 331v71v6v469q0 92 26 172t78 144 t138 100.5t198 36.5v-118q-73 0 -130 -20.5t-92 -53.5t-58 -78t-31.5 -89.5t-8.5 -93.5v-236q84 60 180 60v-121q-28 0 -57 -11t-58.5 -34t-48 -68.5t-18.5 -106.5q0 -101 56 -163.5t126 -62.5v-121q-84 0 -154.5 49t-108 121.5t-37.5 147.5zM660 1212v118q106 0 187 -36.5 t129.5 -100.5t73 -144t24.5 -172v-883h-121v883q0 40 -5.5 78.5t-24 87.5t-48.5 84.5t-85.5 60t-129.5 24.5z" />
<glyph unicode="&#xbcb;" horiz-adv-x="2170" d="M790 720v120q65 0 110.5 61t45.5 167q-1 107 -46 162.5t-110 55.5v121q113 0 195.5 -88.5t82.5 -208.5v-71q2 -128 -80 -223.5t-198 -95.5zM385 1037v71q0 61 19 109q-155 -90 -155 -275v-486q0 -197 166 -293q-30 69 -30 132v71q-1 71 27 130t73 94.5t97 54.5t103 19 v-120q-28 0 -57 -11t-58.5 -34.5t-48 -69t-18.5 -106.5q0 -101 56 -163t126 -62v-121h-4h-9q-58 0 -121 10t-140.5 40.5t-137 78t-100.5 132t-41 193.5v518q0 83 24 152t62 115t89.5 82t102.5 56t105 32.5t92.5 16.5t70.5 4h7v-121q-28 0 -57 -11t-58.5 -34t-48 -68.5 t-18.5 -106.5q0 -101 56 -163.5t126 -62.5v-120q-84 0 -154.5 49t-108 121t-37.5 147zM790 -23v121q65 0 110.5 60.5t45.5 166.5q-1 107 -46 163t-110 56v120q113 0 195.5 -88.5t82.5 -208.5v-70q2 -128 -80 -224t-198 -96zM1836 0v1018h-159v121h440v-121h-161v-1018h-120z M1294 0v1139h281v-121h-161v-1018h-120z" />
<glyph unicode="&#xbcc;" horiz-adv-x="2932" d="M1252 322q0 8 0.5 17.5t0.5 21t-1 31.5v14v189q0 85 18.5 167.5t56 154.5t89.5 127t124.5 86.5t155.5 31.5v-121q-134 0 -221 -115.5t-95 -290.5q84 56 174 56v-121q-28 0 -57 -11t-58.5 -34t-48 -68.5t-18.5 -106.5q0 -101 55.5 -163.5t126.5 -62.5v-120q-84 0 -155 49 t-109 122t-38 147zM1659 4v120q65 0 109.5 61t44.5 167q0 107 -44.5 162.5t-109.5 55.5v121q113 0 195.5 -88t82.5 -209v-71q2 -128 -80 -223.5t-198 -95.5zM1799 1041v121q117 0 200 -51.5t133 -136.5q70 188 255 188v-121q-50 0 -85.5 -27.5t-55 -81.5t-28 -122t-9.5 -161 l2 -645h-123v677q0 155 -75.5 257.5t-213.5 102.5zM2599 4v1037h-109v121h371v-121h-141v-1037h-121zM536 21v121q65 0 110 60.5t45 166.5q-1 107 -45.5 163t-109.5 56v120q113 0 195 -87.5t82 -208.5v-71q2 -128 -79.5 -224t-197.5 -96zM130 339v71v5v469q0 92 26 172 t78 144t138 101t198 37v-119q-73 0 -130 -20.5t-92 -53.5t-57.5 -78t-31 -89.5t-8.5 -93.5v-235q83 59 180 59v-120q-28 0 -57 -11t-58.5 -34.5t-48 -69t-18.5 -106.5q0 -101 56 -163t126 -62v-121q-64 0 -121 29t-96 75t-61.5 102.5t-22.5 111.5zM674 1219v119 q105 0 186.5 -37t130 -101t72.5 -144t24 -172v-882h-120v882q0 40 -5.5 78.5t-24 87.5t-48.5 84.5t-85.5 60t-129.5 24.5z" />
<glyph unicode="&#xbcd;" horiz-adv-x="0" d="M-86 1390q0 38 25.5 64.5t62.5 26.5t63.5 -26.5t26.5 -64.5q0 -39 -26 -65.5t-64 -26.5q-37 0 -62.5 26.5t-25.5 65.5z" />
<glyph unicode="&#xbd0;" horiz-adv-x="2224" d="M591 -1041q-161 0 -251.5 86t-90.5 253v214q-1 83 12.5 145t46 113.5t93 78.5t148.5 27v-121q-37 0 -66 -7t-47.5 -17.5t-32 -30.5t-20 -36t-10 -44.5t-4 -47t-0.5 -52.5v-228q0 -100 51 -156.5t175 -56.5h483v-120h-487zM1191 -923h447q245 0 245 245v111q0 36 -3.5 61 t-13.5 40t-19.5 23t-30.5 10.5t-36 2.5t-46.5 -1.5t-52.5 -1.5v121h29h54t48.5 -2t46.5 -6.5t40 -13t36.5 -21t28 -32t23 -44.5t12.5 -59.5t5 -76.5v-111q0 -167 -91 -266t-288 -99h-434v120zM970 75q0 27 19 46t46 19t46.5 -19t19.5 -46t-19.5 -46t-46.5 -19t-46 19t-19 46 zM1227 -798v90q32 0 56.5 9.5t38.5 28t23 36.5t12.5 45.5t4.5 44.5t1 43v93q0 125 -25.5 172t-101.5 47v93q117 0 171.5 -69t54.5 -243v-82q0 -60 -6.5 -107t-17 -79t-28 -55t-35.5 -36t-44 -20t-49 -9t-55 -2zM651 -798v677h99v-587h207v298q0 168 42.5 241t166.5 73v-93 q-23 0 -40.5 -5t-29.5 -12.5t-19.5 -24t-12 -30.5t-6.5 -41.5t-2.5 -48t-0.5 -59.5v-298h101v-90h-505zM515 745q115 0 198 -88.5t83 -212.5v-69q2 -126 -82.5 -222t-198.5 -96v121q63 0 110.5 61.5t46.5 166.5q0 109 -45.5 163.5t-111.5 54.5v121zM410 745v-121 q-28 0 -56.5 -10.5t-58 -33t-47.5 -68.5t-18 -108q0 -102 55.5 -164t124.5 -62v-121q-84 0 -155 49.5t-108.5 121.5t-37.5 145v73v6v141q0 96 10 173.5t37 156t72.5 137.5t119 112t173 86.5t238 52.5t311.5 19v-120q-424 -8 -619 -127.5t-208 -387.5q79 50 167 50zM2115 316 q0 -91 -58 -155t-141 -87.5t-177 -14.5t-164 52v-46q0 -52 37 -92.5t97 -62.5t127 -32.5t135 -9.5v-121q-231 0 -372.5 84.5t-141.5 216.5v622h120v-341q0 -55 42 -94t102.5 -50t121 -3t104.5 48t47 101v431q0 76 -21.5 138.5t-77.5 121.5t-145.5 99t-233.5 64.5t-333 24.5 v120q224 0 393 -32t270 -84t163 -128t84 -153t22 -171v-446z" />
<glyph unicode="&#xbd7;" horiz-adv-x="1760" d="M77 318q0 8 0.5 17.5t0.5 21.5t-1 32v13v189q0 85 18.5 167.5t56 154.5t89.5 127t124.5 86.5t155.5 31.5v-121q-134 0 -221 -115t-95 -290q82 55 174 55v-120q-28 0 -57 -11t-58.5 -34.5t-48 -69t-18.5 -106.5q0 -101 55.5 -163t126.5 -62v-121q-84 0 -155 49t-109 122 t-38 147zM484 0v121q65 0 109 60.5t44 166.5q0 107 -44 163t-109 56v120q113 0 195.5 -88t82.5 -209v-70q2 -128 -80 -224t-198 -96zM624 1037v121q117 0 200 -51.5t133 -136.5q70 188 255 188v-121q-50 0 -85.5 -27.5t-55 -81.5t-28 -122t-9.5 -161l1 -645h-122v678 q0 155 -75.5 257t-213.5 102zM1424 0v1037h-109v121h371v-121h-141v-1037h-121z" />
<glyph unicode="&#xbe6;" horiz-adv-x="1056" d="M565 1206q210 0 309.5 -150t99.5 -468q0 -299 -108 -457t-301 -158v121q97 0 160.5 67t90 174.5t26.5 252.5q0 97 -6 167t-23.5 135.5t-47.5 106t-80 64.5t-120 24v121zM488 1206v-121q-69 0 -119 -24t-80 -64.5t-48 -106t-24 -136t-6 -166.5q0 -145 26.5 -252.5 t90 -174.5t160.5 -67v-121q-193 0 -300.5 157.5t-107.5 457.5q0 318 99 468t309 150z" />
<glyph unicode="&#xbe7;" horiz-adv-x="1521" d="M109 408q0 65 15 116.5t38 83t56 53t64 31.5t66 14v433h255v-123h-132l-2 -306h369v306h-132v123h506v-123h-253v-306h126q172 0 249 -73t77 -256h-121q0 115 -49.5 162.5t-166.5 47.5h-115v-225q0 -74 -18.5 -139t-58.5 -122.5t-113.5 -91.5t-173.5 -34v121 q110 0 176.5 65.5t66.5 198.5v227h-419q-56 0 -94.5 -15t-58.5 -42t-28 -57t-8 -69h-121zM492 -21q-95 0 -169 28.5t-119.5 78t-69 112t-25.5 135.5h121q15 -233 262 -233v-121zM997 -21v117q122 0 201.5 61t85.5 147h125q-5 -145 -115.5 -235t-296.5 -90z" />
<glyph unicode="&#xbe8;" horiz-adv-x="1785" d="M77 903q0 117 53 214t157.5 156t242.5 59q227 0 369 -136.5t142 -372.5h-122q0 101 -34 178.5t-91 122t-124 66.5t-140 22q-155 0 -245 -90.5t-88 -218.5q0 -105 64.5 -171t172.5 -66q68 0 117.5 50t66 118.5t0.5 130.5h123q19 -108 -19.5 -206t-116.5 -156t-169 -58 q-68 0 -131 22.5t-114.5 65t-82.5 112.5t-31 158zM161 0v121q164 -1 309.5 55.5t241.5 144.5t151.5 193.5t55.5 205.5h122q0 -92 -32.5 -182.5t-89.5 -166t-127.5 -138.5t-152.5 -112h1070v-121h-1548z" />
<glyph unicode="&#xbe9;" horiz-adv-x="1404" d="M488 0v121h327q41 0 67 2t55 8.5t45.5 19.5t27 36t10.5 56v188q0 29 -9 50.5t-27 34.5t-36 21.5t-45 12.5t-43.5 5t-42.5 2v121q59 0 112 -11.5t103 -36.5t79.5 -74t29.5 -116v-226q0 -52 -23 -93h147v-121h-777zM593 339v679h-338v-1018h-121v1131v8h789v-121h-209v-679 h-121z" />
<glyph unicode="&#xbea;" horiz-adv-x="1625" d="M563 -2v121q122 0 183.5 63t61.5 176v232h-351q-262 0 -262 -230q0 -61 15.5 -106t39 -70.5t60.5 -40.5t71.5 -19.5t79.5 -4.5v-121q-92 1 -163.5 24.5t-112 58.5t-66 81t-34 84.5t-8.5 75.5v65q0 98 59.5 183.5t179.5 120.5v448h256v-123h-134l-2 -306h29h343v306h-132 v123h534v-123h-282v-306h490v222h123l-2 -342h-611v-224q0 -73 -18.5 -135.5t-59 -116.5t-114 -85t-173.5 -31z" />
<glyph unicode="&#xbeb;" horiz-adv-x="1793" d="M92 111v448q0 90 24.5 161t62.5 115t89.5 73t102 40t102.5 11l2 -121q-116 0 -188.5 -73t-72.5 -216v-440q0 -141 70.5 -216t184.5 -75h423v-120h-429q-162 0 -266.5 109.5t-104.5 303.5zM997 -182h322q99 0 169 72t70 164v294q0 47 -14 83t-34.5 56t-47.5 33t-50 17.5 t-45 4.5v118q47 -3 87.5 -11.5t83 -29t73 -51t49.5 -81.5t19 -116v-363q0 -50 -23 -103t-65 -100t-113 -77t-157 -30h-324v120zM597 2v1137h297v-121h-176v-1016h-121zM1139 2v1016h-142v121h481v-121h-215l-4 -1016h-120z" />
<glyph unicode="&#xbec;" horiz-adv-x="2005" d="M563 -2v121q122 0 183.5 63t61.5 176v232h-351q-262 0 -262 -230q0 -61 15.5 -106t39 -70.5t60.5 -40.5t71.5 -19.5t79.5 -4.5v-121q-92 1 -163.5 24.5t-112 58.5t-66 81t-34 84.5t-8.5 75.5v65q0 98 59.5 183.5t179.5 120.5v448h256v-123h-134l-2 -306h29h343v306h-132 v123h534v-123h-282v-306h1003v-120h-107l-2 -586h-120v586h-270l-2 -586h-121v586h-381v-224q0 -73 -18.5 -135.5t-59 -116.5t-114 -85t-173.5 -31z" />
<glyph unicode="&#xbed;" horiz-adv-x="1311" d="M88 333v56v17v-2v163q0 109 29.5 210.5t84.5 183t144 131t198 49.5v-121q-142 0 -229 -110t-99 -276q80 53 173 53v-120q-28 0 -56.5 -10.5t-57.5 -33.5t-47.5 -69t-18.5 -108q0 -102 55.5 -163.5t124.5 -61.5v-121q-129 0 -215 99.5t-86 233.5zM494 0v121q65 0 112 61 t47 168q-1 109 -47 163t-112 54v120q123 0 202 -82t79 -216v-71q2 -126 -82.5 -222t-198.5 -96zM942 0v1018h-293v121h612v-121h-199v-1018h-120z" />
<glyph unicode="&#xbee;" horiz-adv-x="1898" d="M664 879q8 -95 76 -150t165 -55q96 0 166 55.5t70 147.5l88 -94q-8 -92 -103 -161t-221 -69q-70 0 -127.5 18t-94 46.5t-64.5 63.5t-42 70t-22.5 63.5t-10.5 46.5l-2 18h122zM545 988q0 35 12.5 75.5t47 89t86.5 87t141 64.5t200 26q233 0 361.5 -151.5t128.5 -426.5 v-287h153v641h120v-1311h-120v550h-153l2 -217q0 -99 -37 -182.5t-111.5 -136t-173.5 -52.5h-310v121h306q92 2 147.5 70t55.5 182v215h-513v120h513v293q0 228 -98 340t-271 112q-163 0 -263.5 -69.5t-100.5 -152.5h-123zM115 138q0 163 108.5 246t300.5 83h261v-124h-295 q-18 0 -35.5 -1.5t-50.5 -7t-59.5 -19t-53 -34.5t-41.5 -58t-15 -85q0 -69 27 -121.5t69.5 -81.5t87.5 -43t88 -14h280v-121h-284q-164 0 -276 106.5t-112 274.5z" />
<glyph unicode="&#xbef;" horiz-adv-x="1825" d="M563 -2v121q122 0 183.5 63t61.5 176v232h-351q-262 0 -262 -230q0 -61 15.5 -106t39 -70.5t60.5 -40.5t71.5 -19.5t79.5 -4.5v-121q-92 1 -163.5 24.5t-112 58.5t-66 81t-34 84.5t-8.5 75.5v65q0 98 59.5 183.5t179.5 120.5v448h256v-123h-134l-2 -306h29h343v306h-132 v123h534v-123h-282v-306h412q396 0 396 -298v-27q0 -69 -28 -126t-71 -91.5t-89.5 -53t-87.5 -18.5h-34q-120 0 -203.5 86.5t-83.5 209.5h120q0 -41 14 -73.5t34.5 -51t47 -31t48 -16.5t40.5 -4q20 0 46 8t56 25.5t50 54t20 86.5q0 42 -10 74.5t-24 53t-39.5 35.5t-45 22 t-52.5 10.5t-50.5 4t-49.5 0.5h-10h-406v-224q0 -73 -18.5 -135.5t-59 -116.5t-114 -85t-173.5 -31z" />
<glyph unicode="&#xbf0;" horiz-adv-x="1267" d="M924 0v119q65 0 99.5 48.5t34.5 123.5v827l-206 277h132l193 -256v-861q0 -31 -6.5 -64.5t-24 -73t-44.5 -69.5t-73.5 -50.5t-104.5 -20.5zM82 279v860h121v-860q0 -48 12.5 -82t33 -49.5t38.5 -22t36 -6.5v-119q-102 0 -171.5 76.5t-69.5 202.5zM427 0v119q21 0 33.5 1 t36 9.5t36.5 24.5t24 49.5t11 81.5v854h121v-854q0 -46 10 -79.5t22.5 -49.5t33.5 -25t34 -10.5t32 -1.5v-119q-49 0 -74 2.5t-60 20t-61 52.5q-28 -36 -62 -53t-59.5 -19.5t-77.5 -2.5z" />
<glyph unicode="&#xbf1;" horiz-adv-x="1506" d="M1114 0v1039h-214v121h532v-121h-197v-1039h-121zM77 0v917q0 103 59.5 173t173.5 70v-121q-19 0 -37 -5t-36.5 -18.5t-30 -42.5t-11.5 -70l6 -903h-124zM415 1039v121q67 0 109.5 -15.5t82.5 -55.5q37 47 78 59t111 12v-121q-65 0 -98.5 -25.5t-33.5 -102.5l4 -911h-121 l-5 909q0 130 -127 130z" />
<glyph unicode="&#xbf2;" horiz-adv-x="2044" d="M1275 -117q-109 0 -175 71.5t-66 177.5q0 44 15 85t43.5 75.5t76 55.5t106.5 21v-105q-20 0 -41 -6.5t-43.5 -21.5t-37 -44t-14.5 -68q0 -41 16.5 -70t41 -42t43.5 -18t33 -5q29 0 53.5 8t49.5 28.5t39.5 63t14.5 102.5v399h-502v-224q0 -73 -18.5 -135.5t-59 -116.5 t-114 -85t-173.5 -31v121q122 0 183.5 63t61.5 176v232h-351q-262 0 -262 -230q0 -61 15.5 -106t39 -70.5t60.5 -40.5t71.5 -19.5t79.5 -4.5v-121q-92 1 -163.5 24.5t-112 58.5t-66 81t-34 84.5t-8.5 75.5v65q0 98 59.5 183.5t179.5 120.5v448h256v-123h-134l-2 -306h29h343 v306h-132v123h534v-123h-282v-306h852v-120h-245v-406q0 -135 -66.5 -218t-193.5 -83zM1152 -494q0 135 54 197t178 62h208q39 0 73.5 6t72 24t64.5 46.5t44.5 77t17.5 112.5q0 72 -25 124.5t-68 79t-88.5 38.5t-97.5 12v105q81 0 149.5 -21t122 -63t83.5 -112.5t30 -162.5 q0 -101 -30 -175t-84 -116t-119.5 -61.5t-144.5 -19.5h-212q-76 0 -97.5 -29t-24.5 -124h-106z" />
<glyph unicode="&#xbf3;" horiz-adv-x="1797" d="M482 0v121q63 0 109 60t46 167q0 109 -46 164t-109 55v120q116 0 198 -85t82 -212v-70q2 -128 -80 -224t-200 -96zM77 318v71v13v178q0 115 28 217t81.5 183.5t140.5 129.5t196 48v-121q-136 0 -223 -114.5t-95 -288.5q79 53 172 53v-120q-28 0 -56.5 -10.5t-57.5 -33.5 t-47.5 -69t-18.5 -108q0 -101 55 -163t125 -62v-121q-131 0 -215.5 97t-84.5 221zM620 1037v121q91 0 165.5 -29.5t124 -78t83.5 -111.5t49 -128.5t16 -131.5v-558h663v-121h-904v121q37 1 51 1.5t32 3.5t23 10t9 18t4 30v494q-2 157 -85.5 258t-230.5 101z" />
<glyph unicode="&#xbf4;" horiz-adv-x="1956" d="M1914 1225q-135 0 -196.5 54t-61.5 178v208q0 42 -6.5 78t-25.5 72.5t-48.5 62.5t-78.5 42.5t-113 16.5q-59 0 -104.5 -17t-72.5 -44.5t-44.5 -65.5t-23.5 -74.5t-6 -77.5h-109q0 81 21 150t63.5 123.5t113 85.5t162.5 31q102 0 177 -28.5t118.5 -81t64.5 -120.5t21 -153 v-212q0 -75 26.5 -94.5t122.5 -22.5v-111zM1537 1342q0 -109 -74 -175t-181 -66q-95 0 -169 63t-74 178h109q0 -20 7 -41.5t22 -43.5t44.5 -36.5t68.5 -14.5q41 0 70 16.5t42 41t18.5 43.5t5.5 33q0 153 -203 153h-463v119h471q138 0 222 -66t84 -204zM643 1156v-8 q42 10 75 10v-121q-32 0 -56 -12.5t-37.5 -36t-21.5 -44t-11 -50t-3.5 -38.5t-0.5 -25v-710h130v-121h-643v1139h120v-1018h272v710q-3 184 88 268q-38 29 -65.5 76t-41.5 101t-7 111t33 104t84 80.5t141 40.5v-119q-69 -18 -102.5 -57t-31.5 -87t22 -97t56 -96zM821 0v121 q38 0 65.5 21t41 48.5t21 67t9 61.5t1.5 47v465q0 206 -138 206v121q51 0 94.5 -16t82 -51t60.5 -101.5t22 -158.5v-454q0 -197 -74 -287t-185 -90z" />
<glyph unicode="&#xbf5;" horiz-adv-x="3234" d="M130 54v1022q0 78 20.5 140.5t53.5 101t77 64.5t87 36t88 10h958v-121h-957q-99 0 -152.5 -62.5t-53.5 -176.5v-1016q0 -255 214 -255h949v-120h-968q-140 0 -228 97t-88 280zM959 1037v121q91 0 165.5 -29.5t123.5 -77.5t83 -111.5t48.5 -129t15.5 -131.5v-558h222v-121 h-461v121q36 1 50 1.5t31.5 3.5t22.5 10t9 18t4 30v494q-2 157 -85 258t-229 101zM1516 -203h942q174 0 174 209v222q0 48 -15.5 85.5t-38.5 57t-46 29.5t-42 10v122q42 -5 83.5 -21.5t83 -48.5t67.5 -89t26 -130v-256q0 -134 -74.5 -222t-215.5 -88h-944v120zM413 318v71 v13v178q0 115 28 217t81.5 183.5t141 129.5t197.5 48v-121q-136 0 -223.5 -115t-95.5 -288q82 53 174 53v-120q-28 0 -57 -10.5t-58.5 -33.5t-48 -69t-18.5 -108q0 -101 55.5 -163t126.5 -62v-121q-84 0 -155.5 49t-109.5 122t-38 147zM819 0v121q63 0 109 60t46 167 q0 109 -46 164t-109 55v120q115 0 197.5 -88t82.5 -209v-70q2 -128 -80 -224t-200 -96zM1516 1307v121h955q89 0 154 -26.5t99 -67t59 -92.5t36.5 -99t29 -90.5t39.5 -62.5h-126q-23 24 -39.5 68.5t-29 84.5t-34 78.5t-68 62t-118.5 23.5h-957zM1723 0v1139h281v-121h-161 v-1018h-120zM2264 0v1018h-159v121h441v-121h-161v-1018h-121z" />
<glyph unicode="&#xbf6;" horiz-adv-x="1190" d="M434 -389q79 0 112.5 48t33.5 146h-270q-44 0 -73.5 -20t-36.5 -48.5t0 -57t36.5 -48.5t71.5 -20h25v-105h-25q-31 0 -65 8t-74 27t-65.5 60t-26.5 98v27q0 82 62.5 132t170.5 50h270v105q-14 -5 -28.5 -8t-31.5 -4t-27 -1.5t-31 0t-26 0.5v119q25 0 42.5 2.5t38.5 13 t33.5 29t21 53.5t8.5 84v631h121v-1024h292v821h121v-924h-413q-1 -49 -7 -86.5t-23 -79.5t-44.5 -69.5t-77 -45.5t-115.5 -18v105zM94 279v860h120v-860q0 -82 35 -121t84 -39v-119q-112 0 -175.5 80.5t-63.5 198.5z" />
<glyph unicode="&#xbf7;" horiz-adv-x="2025" d="M1481 565v78q60 0 105.5 -24.5t71 -64.5t38 -84.5t13.5 -92.5v-297h107v-78h-243v78q1 0 12.5 1.5t21 3.5t18 6.5t8.5 11.5v274q-1 31 -8.5 61t-24 60t-47.5 48.5t-72 18.5zM77 318v71v15v163q0 109 29 210t84 183.5t143 131.5t197 49v-121q-94 0 -166.5 -53.5t-112 -140 t-48.5 -194.5q83 55 174 55v-120q-28 0 -57 -10.5t-58 -33.5t-47 -69t-18 -108q0 -102 55.5 -163.5t124.5 -61.5v-121q-84 0 -154.5 49.5t-108 122t-37.5 146.5zM482 0v121q64 0 111 61t46 168q0 108 -46 162.5t-111 54.5v120q115 0 198.5 -87.5t83.5 -210.5v-71 q0 -127 -84 -222.5t-198 -95.5zM1391 0v78q31 0 58 26t27 87q0 59 -28 86t-57 27v79q66 0 113.5 -52.5t47.5 -112.5v-46q0 -63 -44.5 -117.5t-116.5 -54.5zM1171 239v39h-122v-278h-121v1018h-293v121h607v-121h-193v-664h122q3 54 17 101.5t41.5 91.5t78 70t118.5 26v-78 q-27 0 -54.5 -9.5t-55 -30.5t-44.5 -63t-18 -100q41 21 78 21v-79q-27 0 -54.5 -27t-27.5 -86t26.5 -86t55.5 -27v-78q-67 0 -114 54t-47 107v73v5zM1874 2v630h74v-630h-74z" />
<glyph unicode="&#xbf8;" horiz-adv-x="2815" d="M371 151v105q95 0 164.5 -80t69.5 -165v-40q0 -101 -66 -177.5t-168 -76.5v105q15 0 33 6t41.5 21.5t39 52t15.5 87.5q0 36 -10 65t-25 46.5t-33 29.5t-33.5 16.5t-27.5 4.5zM1007 0v121q62 0 107.5 60t45.5 167q0 110 -45 164.5t-108 54.5v120q113 0 195 -88t82 -209 v-70q2 -128 -79.5 -224t-197.5 -96zM599 318v71v13v178v2h-21q-200 0 -298 -82.5t-98 -229.5v-59q59 45 128 45v-105q-12 0 -31 -7t-42 -23t-39 -50.5t-16 -81.5q0 -45 15.5 -80t38 -52.5t42 -26t32.5 -8.5v-105q-90 0 -161.5 78t-71.5 180v297q0 93 30 166.5t78.5 119.5 t115 75.5t134.5 41.5t143 12h27q12 98 45 181.5t86.5 149t133.5 103t177 37.5v-121q-124 0 -208.5 -98t-105.5 -252h169v-120q-28 0 -57 -10.5t-58.5 -33.5t-48 -69t-18.5 -108q0 -101 55.5 -163t126.5 -62v-121q-84 0 -155.5 49t-109.5 122t-38 147zM1143 1037v121 q91 0 165.5 -29.5t124 -78t83.5 -111.5t49 -128.5t16 -131.5v-558h501v-121h-742v121q37 1 51 1.5t32 3.5t22.5 10t8.5 18t4 30v494q-2 157 -85 258t-230 101zM1792 639v190q0 95 21.5 162t62 103.5t91 52t117.5 15.5v-121q-27 0 -45 -2t-44.5 -14t-42.5 -33t-28 -63.5 t-12 -101.5v-209q0 -67 15.5 -109.5t44.5 -60t53 -22.5t59 -5v-119q-54 0 -95.5 8.5t-79.5 31.5t-63 60t-39.5 97t-14.5 140zM2628 0h-151v-341h-121v343h-170v120h170v58h121v-58h151v180h-151v-47h-121v47h-170v121h170v367q0 68 -11 117t-26 74t-40.5 39.5t-45 17.5 t-47.5 3v121q291 0 291 -372v-367h260v-423h-109z" />
<glyph unicode="&#xbf9;" horiz-adv-x="2021" d="M1975 1407q-135 0 -196.5 53.5t-61.5 177.5v209q0 42 -6.5 78t-25.5 72.5t-48.5 62.5t-78.5 42.5t-113 16.5q-72 0 -123.5 -25t-77.5 -68.5t-37 -89t-11 -97.5h-111q0 81 21 150.5t63.5 124t113 85.5t162.5 31q199 0 291 -102.5t92 -280.5v-212q0 -75 25.5 -94.5 t121.5 -22.5v-111zM1598 1524q0 -109 -73.5 -175.5t-180.5 -66.5q-95 0 -169 63.5t-74 178.5h111q0 -20 6.5 -41t21 -43.5t43.5 -37t68 -14.5q41 0 70 16.5t42 41t18.5 43.5t5.5 33q0 153 -203 153h-461v118h469q138 0 222 -66t84 -203zM77 57v1003q0 88 23 147.5t69 91.5 t102.5 45t134.5 13h143q-35 60 -44.5 130t8.5 135.5t82 113.5t167 57v-118q-66 -17 -100 -53t-34.5 -81.5t16 -91.5t47.5 -92h25l2 -115h-305q-122 0 -169 -40t-47 -147v-999q3 -274 270 -274h377v-121h-396q-164 0 -267.5 102t-103.5 294zM947 -218h318q99 0 161.5 65.5 t62.5 152.5v406q0 56 -23.5 96t-58 57.5t-61.5 24.5t-48 7v121q41 -4 78 -12.5t81.5 -29t76.5 -51t54 -81t22 -115.5v-452q0 -51 -22.5 -103.5t-64.5 -99.5t-112.5 -77t-156.5 -30h-307v121zM1070 0v1003h-123v136h462v-136h-213l-4 -1001zM530 2v1137h4h312v-136h-188 v-1003z" />
<glyph unicode="&#xbfa;" horiz-adv-x="1952" d="M1533 1317q0 -109 -73.5 -175t-180.5 -66q-95 0 -169.5 63t-74.5 178h111q0 -20 6.5 -41t21.5 -43.5t44 -37t68 -14.5q41 0 70 16.5t42 41t18.5 43.5t5.5 33q0 28 -8.5 52t-29 48t-62.5 37.5t-103 13.5h-463v121h471q138 0 222 -66t84 -204zM1910 1200q-135 0 -196.5 54 t-61.5 178v208q0 41 -6.5 77t-25.5 72.5t-48.5 62t-78.5 42t-113 16.5q-72 0 -123.5 -24.5t-77.5 -67.5t-37 -88t-11 -97h-111q0 81 21 150t63.5 123t113 84.5t162.5 30.5q199 0 291 -102.5t92 -278.5v-212q0 -76 26 -96t121 -23v-109zM783 597v121q49 0 87 -6.5t79 -27 t67.5 -55t44 -94.5t17.5 -141v-346q0 -36 -4.5 -72t-16.5 -81t-36 -82.5t-59 -70t-91 -51t-126 -18.5h-506q-47 0 -67.5 -43t-20.5 -149h-124q0 97 17.5 161t53.5 96t76.5 43.5t99.5 11.5h469q100 0 156 66t56 189l2 346q0 56 -10 95t-24 60t-39.5 32t-46.5 13.5t-54 2.5z M92 0v1139h256v-121h-136v-1018h-120zM557 0l2 1018h-90v121h21q-30 46 -45 102t-9.5 113.5t31.5 106.5t84.5 83.5t143.5 42.5v-121q-69 -17 -102.5 -55.5t-32 -86t20.5 -94.5t53 -91h317v-121h-273l1 -1018h-122z" />
<glyph unicode="&#xd82;" horiz-adv-x="870" d="M482 86h41q289 0 289 389v120q0 389 -289 389h-41v-125q62 0 103 -18.5t62.5 -56t29.5 -82t8 -107.5v-120q0 -64 -8 -108t-29 -81.5t-62 -56t-104 -18.5v-125zM346 86h41v125q-63 0 -104 18.5t-61.5 56.5t-28 81.5t-7.5 107.5v120q0 130 42 197t159 67v125h-41 q-289 0 -289 -389v-120q0 -389 289 -389z" />
<glyph unicode="&#xd83;" horiz-adv-x="736" d="M417 -13h25q111 0 173.5 76.5t62.5 181.5q0 68 -25 125t-80 95t-131 38h-25v-109q66 0 103 -43.5t37 -103.5q0 -61 -36.5 -105t-103.5 -44v-111zM295 -13h27v111q-68 0 -105 44t-37 105q0 60 37 103.5t105 43.5v109h-27q-111 0 -173.5 -76.5t-62.5 -181.5t62.5 -181.5 t173.5 -76.5zM417 570h25q111 0 173.5 77t62.5 182q0 68 -25 125t-80 95t-131 38h-25v-109q66 0 103 -43.5t37 -103.5q0 -61 -36.5 -105.5t-103.5 -44.5v-111zM295 570h27v111q-68 0 -105 44.5t-37 105.5q0 60 37 103.5t105 43.5v109h-27q-111 0 -173.5 -76.5t-62.5 -181.5 t62.5 -182t173.5 -77z" />
<glyph unicode="&#xd85;" horiz-adv-x="1037" d="M708 -323v962h-231q-136 0 -211 -68.5t-75 -189.5q0 -116 79.5 -184.5t221.5 -68.5h111v-128h-111q-89 0 -165.5 22.5t-138 67.5t-96.5 120t-35 171q0 190 118.5 289t314.5 99h218q0 103 -71 160t-172 57q-78 0 -140.5 -39.5t-83.5 -110.5l-117 39q30 110 124 171.5 t211 61.5q89 0 167 -32.5t130 -95.5q62 96 197 134l27 -130q-42 -10 -72 -31t-45.5 -48.5t-22.5 -55.5t-7 -59v-658h113v-132h-113v-323h-125z" />
<glyph unicode="&#xd86;" horiz-adv-x="1529" d="M1080 0v130h38q34 0 62 4.5t59 20t52 41t35 72t14 109.5v308q0 78 -19.5 131t-55 77.5t-69.5 33.5t-78 9h-38v130h38q185 0 269.5 -96t84.5 -279v-316q0 -183 -84.5 -279t-269.5 -96h-38zM708 -323v962h-231q-136 0 -211 -68.5t-75 -189.5q0 -116 79.5 -184.5 t221.5 -68.5h111v-128h-111q-89 0 -165.5 22.5t-138 67.5t-96.5 120t-35 171q0 190 118.5 289t314.5 99h218q0 103 -71 160t-172 57q-78 0 -140.5 -39.5t-83.5 -110.5l-117 39q30 110 124 171.5t211 61.5q89 0 167 -32.5t130 -95.5q62 96 197 134l27 -130q-42 -10 -72 -31 t-45.5 -48.5t-22.5 -55.5t-7 -59v-658h113v-132h-113v-323h-125z" />
<glyph unicode="&#xd87;" horiz-adv-x="1523" d="M1411 0q-150 0 -241.5 90.5t-91.5 273.5v201q0 127 37 194.5t183 210.5h-220v129h388v-127q-98 -95 -145.5 -145t-75.5 -97.5t-32.5 -78.5t-4.5 -92v-199q0 -228 203 -228h55v-132h-55zM708 -323v962h-231q-136 0 -211 -68.5t-75 -189.5q0 -116 79.5 -184.5t221.5 -68.5 h111v-128h-111q-89 0 -165.5 22.5t-138 67.5t-96.5 120t-35 171q0 190 118.5 289t314.5 99h218q0 103 -71 160t-172 57q-78 0 -140.5 -39.5t-83.5 -110.5l-117 39q30 110 124 171.5t211 61.5q89 0 167 -32.5t130 -95.5q62 96 197 134l27 -130q-42 -10 -72 -31t-45.5 -48.5 t-22.5 -55.5t-7 -59v-658h113v-132h-113v-323h-125z" />
<glyph unicode="&#xd88;" horiz-adv-x="1525" d="M1080 400q0 58 12 94.5t55.5 83.5t134.5 111h-202v115l216 180h-216v115h388v-115l-218 -180h218v-115q-94 -66 -146 -107.5t-76 -74t-29 -52t-5 -55.5v-71q0 -33 3 -57.5t15.5 -52t33 -45.5t58.5 -30t91 -12h55v-132h-54q-75 0 -133 15.5t-105 51t-71.5 98t-24.5 151.5 v84zM708 -323v962h-231q-136 0 -211 -68.5t-75 -189.5q0 -116 79.5 -184.5t221.5 -68.5h111v-128h-111q-89 0 -165.5 22.5t-138 67.5t-96.5 120t-35 171q0 190 118.5 289t314.5 99h218q0 103 -71 160t-172 57q-78 0 -140.5 -39.5t-83.5 -110.5l-117 39q30 110 124 171.5 t211 61.5q89 0 167 -32.5t130 -95.5q62 96 197 134l27 -130q-42 -10 -72 -31t-45.5 -48.5t-22.5 -55.5t-7 -59v-658h113v-132h-113v-323h-125z" />
<glyph unicode="&#xd89;" horiz-adv-x="1069" d="M369 0v124h100q55 0 110 12t111 40.5t98.5 71t69 109t26.5 148.5v199q0 58 -21 104t-52.5 73.5t-72 46t-77 25t-70.5 6.5v130h31q75 0 145 -26t125 -71.5t88 -114.5t33 -150v-237q0 -221 -143.5 -355.5t-366.5 -134.5h-134zM132 -147l126 30q18 -73 75 -112t128 -39 q83 0 146 50.5t63 131.5h128q0 -141 -95 -222.5t-236 -81.5q-125 0 -217 64.5t-118 178.5zM57 572v165q0 100 58.5 182t149.5 126t191 44h30v-130h-30q-33 0 -76 -13.5t-87 -39.5t-74 -73t-30 -104v-141q0 -54 41.5 -86.5t102.5 -32.5q62 0 104 32t42 87v111h124v-148 q0 -100 -73 -158t-197 -58q-121 0 -198.5 65t-77.5 172z" />
<glyph unicode="&#xd8a;" horiz-adv-x="1050" d="M731 1273q0 58 41 99t99 41t99 -41t41 -99q0 -56 -41 -97t-99 -41t-99 41t-41 97zM96 1472q0 58 40.5 99t98.5 41t99 -41t41 -99q0 -56 -41 -97t-99 -41q-57 0 -98 41t-41 97zM57 450v367q0 40 1.5 66t11 73t27 84.5t53 84.5t85.5 88l374 305l159 -42l-439 -356 q-49 -40 -79 -75.5t-43 -74.5t-16 -69t-3 -82v-369q0 -329 266 -329v-132q-62 0 -117 14t-107.5 47.5t-90 85t-60 132t-22.5 182.5zM304 967l129 113h183q176 0 252 -102.5t76 -303.5v-224q0 -107 -19.5 -188.5t-53 -132.5t-83.5 -82.5t-104.5 -44t-122.5 -12.5v132 q135 0 193.5 80t58.5 248v218q0 82 -16 138.5t-48.5 87.5t-73 44t-95.5 13h-276v16z" />
<glyph unicode="&#xd8b;" horiz-adv-x="1054" d="M620 -191v-131q61 0 116.5 8.5t114 31.5t104 59t82 95t52.5 136l-126 34q-13 -59 -44 -103.5t-66.5 -68.5t-81 -38.5t-80 -18.5t-71.5 -4zM245 888l115 -42q18 60 90.5 96t154.5 36q43 0 83.5 -11.5t77 -36t61 -68.5t29.5 -102h-345q-454 0 -454 -505v-92 q0 -115 43 -210.5t111 -154t146.5 -90t155.5 -31.5v130q-20 1 -52 8t-82 31t-90.5 60.5t-70.5 103.5t-30 153v92q0 94 20 163.5t50.5 109t75.5 63.5t86.5 31.5t92.5 7.5h469v120q-3 72 -25 131t-58 99.5t-84 68t-101 40t-111 12.5q-123 0 -225.5 -57.5t-132.5 -155.5z" />
<glyph unicode="&#xd8c;" horiz-adv-x="1804" d="M1414 -15q64 0 122.5 20t106 57t76 97.5t28.5 135.5v580q-1 101 -59.5 156.5t-139.5 55.5q-79 0 -136 -52.5t-57 -146.5v-82q0 -41 -24 -63.5t-58 -22.5t-59 23t-25 63v274h-106v-293q0 -96 56.5 -148.5t133.5 -52.5q74 0 128 49t54 136v98q0 41 25.5 64.5t58.5 23.5 q34 0 59 -23t25 -65v-576q0 -86 -60.5 -134t-144.5 -48q-85 0 -148.5 48t-63.5 134v94h-123v-92q0 -75 28 -135.5t75 -97.5t105.5 -57t122.5 -20zM620 -191v-131q61 0 116.5 8.5t114 31.5t104 59t82 95t52.5 136l-126 34q-13 -59 -44 -103.5t-66.5 -68.5t-81 -38.5 t-80 -18.5t-71.5 -4zM245 888l115 -42q18 60 90.5 96t154.5 36q43 0 83.5 -11.5t77 -36t61 -68.5t29.5 -102h-345q-454 0 -454 -505v-92q0 -115 43 -210.5t111 -154t146.5 -90t155.5 -31.5v130q-20 1 -52 8t-82 31t-90.5 60.5t-70.5 103.5t-30 153v92q0 94 20 163.5 t50.5 109t75.5 63.5t86.5 31.5t92.5 7.5h469v120q-3 72 -25 131t-58 99.5t-84 68t-101 40t-111 12.5q-123 0 -225.5 -57.5t-132.5 -155.5z" />
<glyph unicode="&#xd8d;" horiz-adv-x="1879" d="M57 279v94h131v-88q0 -76 50 -117.5t128 -41.5q79 0 129 42t50 119v86h125v-86q0 -77 50.5 -119t129.5 -42t129.5 41.5t50.5 117.5v88h130v-94q0 -129 -86.5 -206t-221.5 -77q-77 0 -142 30t-103 87q-39 -57 -101.5 -87t-139.5 -30q-134 0 -221.5 78t-87.5 205zM71 903 q36 93 115 137.5t180 44.5q65 0 132.5 -26t110.5 -85q43 59 109.5 85t131.5 26q102 0 181.5 -45t113.5 -137l-117 -38q-37 100 -178 100q-85 0 -132.5 -51t-47.5 -129v-16h247q243 0 243 -224v-78h-130v69q-1 35 -11 59t-28.5 35.5t-38 16t-45.5 4.5h-597q-56 0 -88.5 -24 t-33.5 -91v-69h-131v78q0 105 56 164.5t188 59.5h244v16q0 78 -47.5 129t-130.5 51q-73 0 -118 -27.5t-60 -72.5zM1558 0q-112 0 -193 78.5t-81 195.5q0 112 76.5 191t197.5 79h56v-117h-56q-65 0 -110 -44.5t-45 -108.5q0 -63 45.5 -109t109.5 -46q62 0 107.5 45.5 t45.5 109.5v480q0 95 -37 151t-110 56h-173v124h178q126 0 194.5 -87.5t68.5 -233.5v-490q0 -118 -81 -196t-193 -78z" />
<glyph unicode="&#xd8e;" horiz-adv-x="2543" d="M2220 0q-112 0 -192.5 78.5t-80.5 195.5q0 112 76 191t197 79h56v-117h-56q-65 0 -110 -44.5t-45 -108.5q0 -63 45.5 -109t109.5 -46q62 0 107.5 45.5t45.5 109.5v480q0 95 -37 151t-110 56h-172v124h178q126 0 194 -87.5t68 -233.5v-490q0 -118 -81 -196t-193 -78z M57 279v94h131v-88q0 -76 50 -117.5t128 -41.5q79 0 129 42t50 119v86h125v-86q0 -77 50.5 -119t129.5 -42t129.5 41.5t50.5 117.5v88h130v-94q0 -129 -86.5 -206t-221.5 -77q-77 0 -142 30t-103 87q-39 -57 -101.5 -87t-139.5 -30q-134 0 -221.5 78t-87.5 205zM71 903 q36 93 115 137.5t180 44.5q65 0 132.5 -26t110.5 -85q43 59 109.5 85t131.5 26q102 0 181.5 -45t113.5 -137l-117 -38q-37 100 -178 100q-85 0 -132.5 -51t-47.5 -129v-16h247q243 0 243 -224v-78h-130v69q-1 35 -11 59t-28.5 35.5t-38 16t-45.5 4.5h-597q-56 0 -88.5 -24 t-33.5 -91v-69h-131v78q0 105 56 164.5t188 59.5h244v16q0 78 -47.5 129t-130.5 51q-73 0 -118 -27.5t-60 -72.5zM1558 0q-112 0 -193 78.5t-81 195.5q0 112 76.5 191t197.5 79h56v-117h-56q-65 0 -110 -44.5t-45 -108.5q0 -63 45.5 -109t109.5 -46q62 0 107.5 45.5 t45.5 109.5v480q0 95 -37 151t-110 56h-173v124h178q126 0 194.5 -87.5t68.5 -233.5v-490q0 -118 -81 -196t-193 -78z" />
<glyph unicode="&#xd8f;" horiz-adv-x="1741" d="M57 387h125q0 -45 7 -104q27 14 64 14q48 0 92 -31q-10 41 -10 107h130q0 -77 22.5 -128.5t69 -80t107 -40t146.5 -11.5h124q174 0 258.5 56.5t84.5 203.5h130q0 -52 -10 -107q44 31 94 31q34 0 61 -14q8 68 8 104h124q0 -186 -49 -297q-16 -45 -56 -73t-88 -28 q-59 0 -102 38t-51 95q-109 -137 -410 -137h-113q-305 0 -411 136q-8 -56 -50.5 -94t-100.5 -38q-50 0 -90 28t-56 71q-50 115 -50 299zM335 469q0 86 22.5 145.5t65.5 92.5t98 47.5t128 14.5h161v16q0 78 -47.5 129t-132.5 51q-141 0 -178 -100h-2l-31 12l-19 5 q-32 10 -63 10q-65 0 -110 -48.5t-45 -164.5v-199h-125v209q0 150 75 240.5t195 90.5q39 0 79 -9q84 74 222 74q65 0 132.5 -26t110.5 -85q43 59 110.5 85t132.5 26q138 0 222 -74q41 9 80 9q119 0 193.5 -91t74.5 -240v-209h-124v199q0 116 -45 164.5t-110 48.5 q-29 0 -67 -12l-46 -15h-2q-37 100 -178 100q-84 0 -132 -51t-48 -129v-16h148q82 0 139 -13.5t101.5 -46t65.5 -92t21 -148.5h-130q0 46 -7 76.5t-27 56t-59.5 37.5t-100.5 12h-426q-60 0 -100 -14t-59 -41.5t-26 -56.5t-7 -70h-130z" />
<glyph unicode="&#xd90;" horiz-adv-x="2516" d="M2125 -15q-64 0 -122.5 20t-106 57t-75.5 97.5t-28 135.5v92h123v-94q0 -86 63.5 -134t148.5 -48q84 0 144.5 48t60.5 134v576q0 42 -25 65t-59 23q-33 0 -58.5 -23.5t-25.5 -64.5v-98q0 -87 -54 -136t-128 -49q-77 0 -133.5 52.5t-56.5 148.5v293h106v-274q0 -40 25 -63 t59 -23t58 22.5t24 63.5v82q0 94 57.5 146.5t136.5 52.5q81 0 139.5 -55.5t59.5 -156.5v-580q0 -75 -28.5 -135.5t-76 -97.5t-106 -57t-122.5 -20zM57 387h125q0 -45 7 -104q27 14 64 14q48 0 92 -31q-10 41 -10 107h130q0 -77 22.5 -128.5t69 -80t107 -40t146.5 -11.5h124 q174 0 258.5 56.5t84.5 203.5h130q0 -52 -10 -107q44 31 94 31q34 0 61 -14q8 68 8 104h124q0 -186 -49 -297q-16 -45 -56 -73t-88 -28q-59 0 -102 38t-51 95q-109 -137 -410 -137h-113q-305 0 -411 136q-8 -56 -50.5 -94t-100.5 -38q-50 0 -90 28t-56 71q-50 115 -50 299z M335 469q0 86 22.5 145.5t65.5 92.5t98 47.5t128 14.5h161v16q0 78 -47.5 129t-132.5 51q-141 0 -178 -100h-2l-31 12l-19 5q-32 10 -63 10q-65 0 -110 -48.5t-45 -164.5v-199h-125v209q0 150 75 240.5t195 90.5q39 0 79 -9q84 74 222 74q65 0 132.5 -26t110.5 -85 q43 59 110.5 85t132.5 26q138 0 222 -74q41 9 80 9q119 0 193.5 -91t74.5 -240v-209h-124v199q0 116 -45 164.5t-110 48.5q-29 0 -67 -12l-46 -15h-2q-37 100 -178 100q-84 0 -132 -51t-48 -129v-16h148q82 0 139 -13.5t101.5 -46t65.5 -92t21 -148.5h-130q0 46 -7 76.5 t-27 56t-59.5 37.5t-100.5 12h-426q-60 0 -100 -14t-59 -41.5t-26 -56.5t-7 -70h-130z" />
<glyph unicode="&#xd91;" horiz-adv-x="1135" d="M142 766q16 57 56.5 95.5t87 53.5t97.5 15q116 0 189 -67q77 -67 77 -187v-115h-218q-72 0 -116.5 -55.5t-44.5 -138.5q0 -95 67.5 -166t198.5 -71v-132q-95 0 -172.5 31.5t-126 84t-74 117.5t-25.5 135q0 118 65 195h-146v109h364l119 4q-1 69 -47.5 106t-109.5 37 q-43 0 -81 -20t-53 -60zM850 882q-154 8 -231 98.5t-77 227.5v237h97q99 0 175.5 -22.5t137.5 -73t93.5 -141.5t32.5 -218v-523q0 -236 -106 -352.5t-331 -116.5v132q145 0 225 78.5t80 258.5v486q0 188 -69 275t-238 87v-107q0 -60 18 -104.5t49.5 -69t67 -36.5t76.5 -14 v-102z" />
<glyph unicode="&#xd92;" horiz-adv-x="1135" d="M57 561v109h364l119 4q-1 69 -47.5 106t-109.5 37q-43 0 -81 -20t-53 -60l-107 29q16 57 56.5 95.5t87 53.5t97.5 15q116 0 189 -67q77 -67 77 -187v-115h-218q-72 0 -116.5 -55.5t-44.5 -138.5q0 -95 67.5 -166t198.5 -71v-132q-95 0 -172.5 31.5t-126 84t-74 117.5 t-25.5 135q0 118 65 195h-146zM542 1208v237h97q201 0 308 -92v215h131v-577v-1v-523q0 -236 -106 -352.5t-331 -116.5v132q145 0 225 78.5t80 258.5v486q0 188 -69 275t-238 87v-107q0 -60 18 -104.5t49.5 -69t67 -36.5t76.5 -14v-102q-154 8 -231 98.5t-77 227.5z" />
<glyph unicode="&#xd93;" horiz-adv-x="1990" d="M997 766q16 57 56.5 95.5t87 53.5t97.5 15q117 0 190 -67q76 -67 76 -187v-115h-218q-72 0 -116.5 -55.5t-44.5 -138.5q0 -95 67.5 -166t198.5 -71v-132q-95 0 -172.5 31.5t-126 84t-74 117.5t-25.5 135q0 118 65 195h-145v109h364l118 4q-1 69 -47.5 106t-109.5 37 q-43 0 -81 -20t-53 -60zM1705 882q-154 8 -231 98.5t-77 227.5v237h98q99 0 175 -22.5t137 -73t93.5 -141t32.5 -218.5v-523q0 -236 -105.5 -352.5t-330.5 -116.5v132q145 0 224.5 78.5t79.5 258.5v486q0 189 -68.5 275.5t-237.5 86.5v-107q0 -115 60.5 -168t149.5 -56v-102 zM477 955h-71q-60 0 -104.5 -19.5t-68.5 -54.5t-35.5 -77.5t-11.5 -93.5v-331q0 -130 47 -197t167 -67v-125h-40q-57 0 -104 16t-78 41.5t-54 61t-35.5 70t-20 75t-9.5 68.5t-2 57v331q0 49 8.5 96t32 98t60 89t98.5 62.5t142 24.5h119q66 0 122 -24.5t91 -63.5t56 -82 t26 -85l-121 -31q-31 161 -214 161zM446 553v125h166q96 0 150.5 -42t54.5 -148v-187q0 -134 -71.5 -222.5t-207.5 -88.5h-46v125q197 0 197 186v155q0 27 -7.5 46t-17.5 29t-27.5 15t-30 6t-32.5 1h-128z" />
<glyph unicode="&#xd94;" horiz-adv-x="1123" d="M343 -4q-127 0 -206.5 75t-79.5 199v417q0 106 68 167t158 61q85 0 146 -55t61 -156v-84q0 -30 19 -46.5t46 -16.5t46 16.5t19 46.5v278h105v-289q0 -80 -51 -124.5t-121 -44.5q-66 0 -114.5 42t-48.5 117v86q0 50 -29 77.5t-70 27.5q-42 0 -72 -29t-30 -82v-398 q0 -57 40 -107t119 -50q78 0 118.5 50.5t40.5 106.5v92h111v-92q0 -56 39.5 -106.5t117.5 -50.5q79 0 120 50.5t41 106.5v699q0 99 -22.5 166t-68 103.5t-103 51t-139.5 14.5v130q244 0 353.5 -108.5t109.5 -348.5v-718q0 -124 -79 -199t-206 -75q-146 0 -218 104 q-75 -104 -220 -104zM195 1047l-128 33q0 106 65 191.5t162 129.5t200 44v-130q-122 0 -210.5 -72.5t-88.5 -195.5z" />
<glyph unicode="&#xd95;" horiz-adv-x="1123" d="M343 -4q-127 0 -206.5 75t-79.5 199v417q0 106 68 167t158 61q85 0 146 -55t61 -156v-84q0 -30 19 -46.5t46 -16.5t46 16.5t19 46.5v278h105v-289q0 -80 -50 -124.5t-118 -44.5t-117.5 42t-49.5 117v86q0 50 -29 77.5t-70 27.5q-42 0 -72 -29t-30 -82v-398q0 -57 40 -107 t119 -50q78 0 118.5 50.5t40.5 106.5v92h111v-92q0 -56 39.5 -106.5t117.5 -50.5q79 0 120 50.5t41 106.5v603q0 141 -61.5 190.5t-208.5 49.5h-547v124h67q-54 49 -54 122q0 77 65 137.5t159 60.5h168v-117h-149q-56 0 -86.5 -30.5t-30.5 -71.5q0 -42 31 -71.5t86 -29.5 h291q113 0 191 -21.5t124 -66t65.5 -106t19.5 -147.5v-637q0 -124 -79 -199t-206 -75q-146 0 -218 104q-75 -104 -220 -104zM928 1288q0 46 -11 78t-26 48.5t-44 25t-51.5 10t-62.5 1.5h-101v117h118q82 0 140.5 -16.5t90 -41t49.5 -64.5t22.5 -74.5t4.5 -83.5h-129z" />
<glyph unicode="&#xd96;" horiz-adv-x="1925" d="M1535 -15q-64 0 -122.5 20t-105.5 57t-75 97.5t-28 135.5v92h122v-94q0 -86 63.5 -134t149.5 -48q84 0 144.5 48t60.5 134v576q0 42 -25.5 65t-59.5 23q-33 0 -58.5 -23.5t-25.5 -64.5v-98q0 -87 -54 -136t-128 -49q-77 0 -133 52.5t-56 148.5v293h105v-274q0 -40 25 -63 t59 -23t58.5 23t24.5 63v82q0 94 57 146.5t136 52.5q81 0 139.5 -55.5t59.5 -156.5v-580q0 -75 -28.5 -135.5t-76 -97.5t-106 -57t-122.5 -20zM343 -4q-127 0 -206.5 75t-79.5 199v417q0 106 68 167t158 61q85 0 146 -55t61 -156v-84q0 -30 19 -46.5t46 -16.5t46 16.5 t19 46.5v278h105v-289q0 -80 -51 -124.5t-121 -44.5q-66 0 -114.5 42t-48.5 117v86q0 50 -29 77.5t-70 27.5q-42 0 -72 -29t-30 -82v-398q0 -57 40 -107t119 -50q78 0 118.5 50.5t40.5 106.5v92h111v-92q0 -56 39.5 -106.5t117.5 -50.5q79 0 120 50.5t41 106.5v699 q0 99 -22.5 166t-68 103.5t-103 51t-139.5 14.5v130q244 0 353.5 -108.5t109.5 -348.5v-718q0 -124 -79 -199t-206 -75q-146 0 -218 104q-75 -104 -220 -104zM195 1047l-128 33q0 106 65 191.5t162 129.5t200 44v-130q-122 0 -210.5 -72.5t-88.5 -195.5z" />
<glyph unicode="&#xd9a;" horiz-adv-x="1475" d="M61 857q35 115 118 170.5t177 55.5q84 0 154 -38.5t102 -98.5q78 64 174.5 99t193.5 35q88 0 165.5 -29t139.5 -85.5t97.5 -149t35.5 -211.5v-230q0 -188 -77.5 -282.5t-268.5 -94.5v132q48 0 82.5 9t67 33.5t49.5 75.5t17 127v222q0 167 -95.5 259.5t-231.5 92.5 q-140 0 -253 -92l-501 -424q36 -38 36 -96v-94q0 -55 37.5 -88t86.5 -33q47 0 81 31.5t34 89.5v130h108v-130q0 -58 36.5 -89.5t89.5 -31.5q54 0 95 33t41 88v195q0 106 -45.5 151t-167.5 69l104 87q56 -12 96 -31.5t72.5 -53t48.5 -86.5t16 -126v-218q0 -112 -72 -176 t-171 -64q-115 0 -197 79q-67 -79 -174 -79q-94 0 -166 62.5t-72 161.5v52q0 20 -1 33.5t-5 29.5t-13 24.5t-23 8.5q-1 0 -25 -6v123l460 386q-23 43 -67.5 67.5t-93.5 24.5q-60 0 -107 -34.5t-71 -101.5z" />
<glyph unicode="&#xd9b;" horiz-adv-x="1142" d="M804 -10q-90 0 -167 48v-162h-128v656q0 86 -48 135t-113 49t-113.5 -49t-48.5 -135v-180q0 -125 53 -173.5t167 -48.5v-130q-183 0 -266 84t-83 261v193q0 149 87.5 232.5t207.5 83.5q116 0 200.5 -80t84.5 -223v-260q0 -73 48 -115t111 -42t109 41.5t46 115.5v685 q0 180 -75 259.5t-227 79.5h-31v130h31q220 0 328 -114.5t108 -354.5v-674q0 -152 -82 -232t-199 -80zM211 1047l-129 33q0 106 65 191.5t162.5 129.5t201.5 44v-130q-123 0 -211.5 -72.5t-88.5 -195.5z" />
<glyph unicode="&#xd9c;" d="M419 -15q-175 0 -268.5 113t-93.5 306v256q0 193 93.5 306.5t268.5 113.5v-133q-116 0 -173.5 -77t-57.5 -215v-251q0 -135 58.5 -211t172.5 -76v-132zM934 -15v132q114 0 173 76t59 211v251q0 138 -58 215t-174 77v133q175 0 268.5 -113.5t93.5 -306.5v-256 q0 -193 -93.5 -306t-268.5 -113zM484 503v180q0 87 19.5 157.5t59.5 125t107.5 84.5t156.5 30v-133q-62 0 -105.5 -22.5t-66 -62t-32 -82.5t-9.5 -95v-71h6q116 0 174 -75t58 -196v-54q0 -151 -86 -227.5t-240 -76.5v132q205 0 205 193q0 25 -1.5 45.5t-9 47.5t-20.5 45.5 t-38 33.5t-59 19z" />
<glyph unicode="&#xd9d;" horiz-adv-x="1301" d="M406 -6q-111 0 -187.5 75.5t-76.5 206.5v95h130v-90q0 -73 40.5 -116t100.5 -43q75 0 107.5 40.5t32.5 120.5q0 52 26.5 79.5t90.5 27.5h48q64 0 89.5 -26.5t25.5 -78.5q0 -82 32 -122.5t107 -40.5q60 0 101 43t41 116v90h130v-95q0 -131 -76.5 -206.5t-187.5 -75.5 q-232 0 -232 238q0 28 -12 40.5t-43 12.5q-56 0 -56 -53q0 -238 -231 -238zM157 903q36 93 115 137.5t180 44.5q65 0 132.5 -26t110.5 -85q42 59 108.5 85t132.5 26q102 0 181.5 -45t113.5 -137l-117 -38q-37 100 -178 100q-85 0 -132.5 -51t-47.5 -129v-16h245 q243 0 243 -224v-78h-130v65q0 69 -33 94t-90 25h-595q-58 0 -91 -25.5t-33 -93.5v-65h-130q0 71 2 77q0 85 38 107h-125v118h575v16q0 78 -47.5 129t-130.5 51q-72 0 -117.5 -27.5t-62.5 -72.5z" />
<glyph unicode="&#xd9e;" horiz-adv-x="1117" d="M348 -4q-129 0 -210 75t-81 199v149q0 125 56.5 188t198.5 63h168q43 0 67.5 26t24.5 62q0 34 -23 58t-65 24h-151q-40 0 -67.5 -9.5t-38.5 -25t-14.5 -27t-3.5 -22.5h-108q0 90 59 141.5t171 51.5h151q95 0 147 -56.5t52 -134.5q0 -80 -52.5 -138.5t-146.5 -58.5h-84 q-68 0 -110 -8t-63.5 -26t-28.5 -39.5t-7 -56.5v-150q0 -23 8 -48t24.5 -50t49 -41t75.5 -16t75 16t48.5 41t24 49.5t7.5 48.5v92h113v-92q0 -24 7.5 -48.5t24 -49.5t48.5 -41t75 -16t75.5 16t49 41t24.5 50t8 48v693q0 188 -76.5 264.5t-240.5 76.5v128q231 0 341 -108 t110 -349v-716q0 -124 -77.5 -199t-201.5 -75q-148 0 -220 104q-34 -51 -90 -77.5t-123 -26.5zM69 1078q0 106 65.5 191.5t163 129.5t202.5 44v-128q-123 0 -214 -73t-91 -197z" />
<glyph unicode="&#xd9f;" horiz-adv-x="1649" d="M57 400v149q0 73 4.5 129.5t16.5 113.5t33 99t55 79t81 60.5t112.5 36.5t147.5 13h209v-133q-116 0 -174 -77t-58 -215v-251q0 -135 59 -211t173 -76v-132q-175 0 -267.5 112.5t-94.5 306.5v256q0 176 79 287q-51 -2 -91 -17.5t-65.5 -36t-43.5 -56t-27 -64t-14 -75 t-5.5 -74t-0.5 -75.5v-149q0 -70 2.5 -107t14.5 -86t38 -93t71 -97l-126 -44q-81 103 -105 193t-24 234zM1231 -15v132q114 0 172.5 76t58.5 211v251q0 138 -57.5 215t-173.5 77v133q175 0 268 -113.5t93 -306.5v-256q0 -193 -93 -306t-268 -113zM781 503v180 q0 87 19.5 157.5t59.5 125t107.5 84.5t156.5 30v-133q-62 0 -105.5 -22.5t-66 -62t-32 -82.5t-9.5 -95v-71h6q115 0 173 -74.5t58 -196.5v-54q0 -151 -85.5 -227.5t-239.5 -76.5v132q205 0 205 193q0 25 -1.5 45.5t-9 47.5t-20.5 45.5t-38 33.5t-59 19z" />
<glyph unicode="&#xda0;" horiz-adv-x="1136" d="M536 -2v130q-130 0 -198 71.5t-68 169.5q0 79 44 135.5t117 56.5h218v115q0 120 -77 187q-73 67 -189 67q-51 0 -97.5 -15t-87 -53.5t-56.5 -95.5l107 -29q15 40 53 60t81 20q63 0 109.5 -37t47.5 -106l-119 -4h-364v-109h146q-65 -77 -65 -195q0 -70 25.5 -135 t74 -117.5t126 -84t172.5 -31.5zM643 -2q224 0 330.5 117t106.5 352v521q0 233 -108.5 345t-328.5 112v-130q152 0 228 -80t76 -259v-509q0 -182 -80 -260.5t-224 -78.5v-130zM258 1047q0 116 84.5 192t193.5 76v130q-95 0 -187.5 -46.5t-154.5 -132.5t-62 -186z" />
<glyph unicode="&#xda1;" horiz-adv-x="1205" d="M542 -15q-254 0 -366.5 91t-112.5 297h130q0 -77 22.5 -128.5t69 -80t106 -40t145.5 -11.5h124q175 0 260 56.5t85 205.5v115h-170q-88 0 -160 44t-110 117h-182q-60 0 -99.5 -14t-58.5 -41.5t-25.5 -56.5t-6.5 -70h-130q0 86 22.5 145.5t65.5 92.5t98 47.5t128 14.5h155 q0 87 -47.5 141.5t-132.5 54.5q-141 0 -178 -100l-117 38q34 92 113.5 137t181.5 45q69 0 135.5 -27t105.5 -91q12 15 27 30l387 509l132 -34l-295 -387q96 -4 171.5 -65t100.5 -151l-117 -17q-19 51 -63 83t-101 32q-74 0 -126 -52.5t-52 -127.5q0 -73 52.5 -125.5 t125.5 -52.5h191q61 0 85 -27t24 -77v-130q0 -204 -114 -297t-364 -93h-115z" />
<glyph unicode="&#xda2;" horiz-adv-x="1203" d="M59 903q34 93 113 137.5t180 44.5q65 0 132.5 -26t110.5 -85l404 532l132 -34l-293 -387q101 0 180 -44.5t115 -137.5l-119 -38q-37 100 -178 100q-74 0 -122 -42l-23 -31l-2 2q-32 -47 -32 -109v-16h147q82 0 139 -13.5t101.5 -46t65.5 -92t21 -148.5h-130 q0 95 -38 138.5t-155 43.5h-427q-60 0 -100 -14t-59 -41.5t-26 -56.5t-7 -70h-130q0 86 22.5 145.5t65.5 92.5t98 47.5t128 14.5h161v16q0 78 -47.5 129t-132.5 51q-141 0 -178 -100zM540 -15q-254 0 -367.5 91.5t-113.5 296.5h130q0 -77 22.5 -128.5t69 -80t107 -40 t146.5 -11.5h124q174 0 258.5 56.5t84.5 203.5h130q0 -203 -113.5 -295.5t-364.5 -92.5h-113z" />
<glyph unicode="&#xda3;" horiz-adv-x="2132" d="M57 356v123l460 386q-24 43 -68 67.5t-93 24.5q-60 0 -107 -34.5t-71 -101.5l-117 36q35 115 118 170.5t177 55.5q85 0 155 -38t100 -99l9 7q96 74 207.5 112.5t221.5 38.5q159 0 273.5 -79t147.5 -238h-38q-56 0 -98.5 -17t-67 -41.5t-39.5 -57.5t-20 -60.5t-5 -55.5 v-274q0 -23 8 -48t24.5 -50t49 -41t75.5 -16t75 16t48.5 41t24 49.5t7.5 48.5v92h113v-92q0 -24 7.5 -48.5t24 -49.5t48.5 -41t75 -16t75.5 16t49 41t24.5 50t8 48v695q0 186 -78.5 262.5t-243.5 76.5v130q232 0 344 -109t112 -348v-718q0 -124 -78 -199t-202 -75 q-69 0 -127 26.5t-93 77.5q-34 -51 -89 -77.5t-121 -26.5q-130 0 -211.5 75t-81.5 199v293q0 50 11.5 97.5t35.5 91.5t67 77.5t100 50.5q-81 98 -245 98q-180 0 -331 -121l-501 -424q36 -38 36 -96v-94q0 -55 37.5 -88t86.5 -33q47 0 81 31.5t34 89.5v130h108v-130 q0 -58 36.5 -89.5t89.5 -31.5q54 0 95 33t41 88v195q0 106 -45.5 151t-167.5 69l104 87q56 -12 96 -31.5t72.5 -53t48.5 -86.5t16 -126v-218q0 -112 -72 -176t-171 -64q-115 0 -197 79q-67 -79 -174 -79q-94 0 -166 62.5t-72 161.5v52q0 20 -1 33.5t-5 29.5t-13 24.5 t-23 8.5q-1 0 -25 -6zM1124 1227q42 106 149.5 162t234.5 56v-130q-89 0 -160 -32.5t-98 -101.5z" />
<glyph unicode="&#xda4;" horiz-adv-x="2160" d="M343 356v123l459 386q-21 43 -66 67.5t-95 24.5q-60 0 -107 -34.5t-71 -101.5l-59 19q-28 8 -56 8q-80 0 -121 -64.5t-41 -184.5v-228q0 -129 22.5 -204t107.5 -178l-127 -45q-81 104 -106.5 195t-25.5 232v228q0 191 82.5 283t203.5 92q29 0 61 -6q46 58 109.5 86.5 t129.5 28.5q85 0 155.5 -38.5t99.5 -98.5l7 5q230 182 456 182v-126q-187 -3 -366 -150l-501 -426q34 -36 34 -94v-94q0 -55 38.5 -88t88.5 -33q46 0 79.5 31.5t33.5 89.5v130h109v-130q0 -58 36.5 -89.5t87.5 -31.5q54 0 96 33t42 88v195q0 106 -46.5 151t-168.5 69l106 87 q80 -17 133 -53t77 -102q54 89 152 133.5t229 44.5h213q0 61 -26 106.5t-64 70t-91.5 39.5t-96 19t-90.5 4v126q69 0 132.5 -9t132.5 -35t118.5 -67.5t82 -112t32.5 -161.5v-109h-356q-135 0 -210 -69t-75 -191q0 -115 80 -183t220 -68h75q188 0 268 167l118 -31 q-25 -74 -71 -128t-101.5 -82t-108.5 -41t-105 -13h-75q-118 0 -215 40t-154 119q-22 -80 -88.5 -124.5t-147.5 -44.5q-112 0 -197 79q-67 -79 -172 -79q-95 0 -167 62.5t-72 161.5l2 52q0 96 -43 96q-5 0 -14 -2.5t-12 -3.5zM1826 -390q-141 0 -236 81.5t-95 222.5h128 q0 -83 62 -132.5t147 -49.5q71 0 128 39t75 112l124 -32q-26 -113 -118 -177t-215 -64z" />
<glyph unicode="&#xda5;" horiz-adv-x="2028" d="M1493 -4q-119 0 -214.5 43.5t-149.5 125.5q-31 -90 -109.5 -135t-196.5 -45v132q205 0 205 193q0 25 -1.5 45.5t-9 47.5t-20.5 45.5t-38 33.5t-59 19l-119 2v180q0 201 117 304.5t308 105.5h23v-132h-23q-131 -2 -213 -73.5t-82 -202.5v-71h6q122 0 180 -90 q42 102 143.5 155.5t246.5 53.5h215q0 44 -14.5 79.5t-37.5 58.5t-57 40.5t-65.5 26.5t-70.5 14.5t-66 7t-57 1.5v132q47 0 86 -2t92.5 -11t95.5 -24.5t86 -44t73.5 -67t48 -97t18.5 -131.5v-109h-356q-137 0 -208.5 -62.5t-71.5 -173.5q0 -108 77 -177.5t218 -69.5h73 q191 0 268 167l120 -31q-26 -74 -72.5 -128t-102 -82t-108.5 -41t-105 -13h-73zM57 392v157q0 73 4.5 129.5t16.5 113.5t33 99t55 79t81 60.5t112.5 36.5t147.5 13h209v-133q-116 0 -174 -77t-58 -215v-251q0 -135 59 -211t173 -76v-132q-175 0 -267.5 112.5t-94.5 306.5 v256q0 176 79 287q-51 -2 -91 -17.5t-65.5 -36t-43.5 -56t-27 -64t-14 -75t-5.5 -74t-0.5 -75.5v-157q0 -130 22.5 -205.5t107.5 -176.5l-127 -44q-81 104 -106.5 194t-25.5 232zM1696 -394q-142 0 -236.5 81.5t-94.5 222.5h128q0 -81 62.5 -131.5t146.5 -50.5q69 0 126 39 t76 112l125 -32q-26 -113 -118 -177t-215 -64z" />
<glyph unicode="&#xda6;" horiz-adv-x="1498" d="M186 -33q-80 104 -104.5 193.5t-24.5 229.5v268q0 178 82 270t206 92q53 0 82 -7q79 72 218 72q65 0 132.5 -26t110.5 -85l404 532l132 -34l-293 -387q101 0 180 -44.5t115 -137.5l-119 -38q-37 100 -178 100q-74 0 -122 -42l-23 -31l-2 2q-33 -49 -33 -109v-16h148 q82 0 139 -13.5t101.5 -46t65.5 -92t21 -148.5h-130q0 95 -38 138.5t-155 43.5h-427q-60 0 -100 -14t-59 -41.5t-26 -56.5t-7 -70h-130q0 86 22.5 145.5t65.5 92.5t98 47.5t128 14.5h161v16q0 78 -47.5 129t-132.5 51q-141 0 -178 -100l-59 19q-31 8 -62 8 q-81 0 -123.5 -64.5t-42.5 -182.5v-251q0 -129 23 -205t109 -179zM833 -15q-254 0 -367.5 91.5t-113.5 296.5h130q0 -77 22.5 -128.5t69 -80t107 -40t146.5 -11.5h124q174 0 258.5 56.5t84.5 203.5h130q0 -203 -113.5 -295.5t-364.5 -92.5h-113z" />
<glyph unicode="&#xda7;" horiz-adv-x="1058" d="M67 513v-126q0 -52 13 -104t43.5 -104t74.5 -92t111.5 -64.5t149.5 -24.5v130q-121 0 -191.5 77t-70.5 189v119q0 118 67 189t195 71v129q-93 0 -165 -25.5t-114 -64.5t-68.5 -93t-35.5 -103.5t-9 -102.5zM567 -2q434 0 434 461v529q0 230 -104 343.5t-330 113.5v-130 q147 0 224.5 -76.5t77.5 -258.5v-515q0 -182 -77.5 -259.5t-224.5 -77.5v-130zM57 1080l129 -33q0 116 83 192t190 76v130q-70 0 -142 -28t-129.5 -75.5t-94 -116.5t-36.5 -145z" />
<glyph unicode="&#xda8;" horiz-adv-x="1135" d="M367 -4q-130 0 -211 75t-81 199v293q0 50 9.5 96.5t35 94t65 82.5t104 57t147.5 22h67v-128h-67q-55 0 -97.5 -17t-66.5 -41.5t-39.5 -57.5t-20.5 -61t-5 -55v-274q0 -23 8 -48t24.5 -50t49 -41t75.5 -16t75.5 16t49 41t24.5 50t8 48v92h111v-92q0 -23 8 -48t24.5 -50 t48.5 -41t74 -16q43 0 76 16t50 41t25 50t8 48v672q0 188 -69 275t-238 87v-107q0 -60 18 -104.5t49 -69t66.5 -36.5t77.5 -14v-102q-154 8 -231 98.5t-77 227.5v237h97q99 0 175.5 -22.5t137.5 -73t93.5 -141.5t32.5 -218v-720q0 -124 -77.5 -199t-202.5 -75 q-69 0 -127 26.5t-93 77.5q-34 -51 -89.5 -77.5t-121.5 -26.5z" />
<glyph unicode="&#xda9;" horiz-adv-x="1198" d="M431 -4q-129 0 -210 75t-81 199v172q0 94 44 119h-127v109h527q0 71 -46 109t-109 38q-43 0 -81 -20t-53 -60l-107 29q23 82 92 122t149 40q115 0 189 -65q77 -71 77 -187v-115h-303q-56 0 -89 -25.5t-33 -93.5v-161q0 -23 8 -48t25 -50t50 -41t76 -16q42 0 74 16 t48.5 41t24.5 50t8 48v92h111v-92q0 -23 8 -48t24.5 -50t48.5 -41t74 -16q43 0 76 16t50 41t25 50t8 48v695q0 186 -76 262.5t-238 76.5v130q229 0 337.5 -109t108.5 -348v-718q0 -124 -77.5 -199t-202.5 -75q-145 0 -220 104q-69 -104 -210 -104zM157 1080q0 106 66 191.5 t163.5 129.5t201.5 44v-130q-78 0 -146.5 -30.5t-113.5 -93t-45 -144.5z" />
<glyph unicode="&#xdaa;" horiz-adv-x="1198" d="M431 -4q-129 0 -210 75t-81 199v172q0 94 44 119h-127v109h527q0 71 -46 109t-109 38q-43 0 -81 -20t-53 -60l-107 29q23 82 92 122t149 40q115 0 189 -65q77 -71 77 -187v-115h-303q-56 0 -89 -25.5t-33 -93.5v-161q0 -23 8 -48t25 -50t50 -41t76 -16q42 0 74 16 t48.5 41t24.5 50t8 48v92h111v-92q0 -23 8 -48t24.5 -50t48.5 -41t74 -16q43 0 76 16t50 41t25 50t8 48v672q0 188 -69 275t-238 87v-107q0 -60 18 -104.5t49.5 -69t67 -36.5t76.5 -14v-102q-154 8 -231 98.5t-77 227.5v237h97q99 0 175.5 -22.5t137.5 -73t93.5 -141.5 t32.5 -218v-720q0 -124 -77.5 -199t-202.5 -75q-145 0 -220 104q-69 -104 -210 -104z" />
<glyph unicode="&#xdab;" horiz-adv-x="1871" d="M13 21q44 92 118 136t150 44q73 0 174.5 -35.5t149.5 -35.5q27 0 53.5 6.5t55 23.5t49.5 43.5t35 70.5t14 99v339q0 156 -76 239t-215 83q-69 0 -122.5 -22t-83 -53t-48 -71t-24.5 -70t-6 -56q0 -24 4 -51.5t20.5 -67t42.5 -69.5t75.5 -52t114.5 -22h94v-127h-132 q-144 0 -245.5 108.5t-101.5 280.5q0 95 34.5 172t92.5 125.5t131.5 74.5t153.5 26q93 0 176 -25l279 371l142 -38l-305 -400q125 -108 125 -356v-339q0 -97 -29 -171.5t-77 -117t-101.5 -63.5t-108.5 -21q-62 0 -166 37.5t-161 37.5q-55 0 -96.5 -23t-58.5 -63zM1280 467 v316q0 79 -40.5 121t-98.5 42q-66 0 -106 -46l-49 122q64 58 164 58q60 0 112 -26.5t85 -73.5q33 47 87 73.5t118 26.5q112 0 187 -69.5t75 -198.5v-345h-130v327q0 70 -38.5 110t-98.5 40t-100 -40t-40 -110v-327h-127zM1032 308v65h130v-51q0 -67 39.5 -115.5t97 -70 t123.5 -21.5q67 0 125 21t97.5 68.5t39.5 115.5v53h130v-55q0 -80 -32.5 -144t-88 -103.5t-124.5 -60.5t-145 -21q-168 0 -280 85.5t-112 233.5z" />
<glyph unicode="&#xdac;" horiz-adv-x="1425" d="M658 -4q-129 0 -210 75t-81 199v161q0 95 45 118h-117v111h509q0 70 -48.5 110t-112.5 40q-45 0 -84.5 -20.5t-58.5 -60.5l-16 6v-2q-66 25 -120 25q-93 0 -137.5 -63t-44.5 -163q0 -61 -0.5 -106t-1 -67t-0.5 -28q0 -95 22.5 -161.5t94.5 -152.5l-127 -44 q-70 89 -91.5 169t-21.5 195v210q0 157 85 247t216 90q58 0 105 -13q74 57 182 57q121 0 199.5 -72.5t78.5 -191.5v-115h-303q-58 0 -90 -25t-32 -93v-150q0 -23 8 -48t25 -50t50 -41t76 -16q42 0 74 16t48.5 41t24.5 50t8 48v92h111v-92q0 -23 8 -48t24.5 -50t48.5 -41 t74 -16q43 0 75.5 16t49 41t24.5 50t8 48v695q0 186 -75 262.5t-237 76.5v130q229 0 337.5 -109t108.5 -348v-718q0 -124 -77.5 -199t-202.5 -75q-145 0 -220 104q-34 -51 -89.5 -77.5t-121.5 -26.5zM385 1080q0 106 65.5 191.5t163 129.5t201.5 44v-130q-78 0 -146.5 -30.5 t-113 -93t-44.5 -144.5z" />
<glyph unicode="&#xdad;" horiz-adv-x="1460" d="M57 352v127l490 413q-53 65 -143 65q-60 0 -107 -34.5t-71 -101.5l-117 36q35 115 118 170.5t177 55.5q73 0 139.5 -32t103.5 -81q152 106 321 106q87 0 163.5 -29t138 -85t97.5 -148t36 -209v-230q-1 -93 -18 -159.5t-56 -117t-107 -75.5t-167 -25v132q48 0 83 9 t68 33.5t50 75.5t17 127v222q0 166 -93.5 257.5t-226.5 91.5q-131 0 -245 -89l-499 -419q21 -17 41 -50t35 -67t41.5 -71t57.5 -65.5t84 -47t122 -18.5q120 0 187 69.5t67 175.5q0 47 -3 77.5t-15.5 66.5t-36 60t-65.5 46t-102 37l103 86q64 -17 110 -48t71.5 -65.5 t40.5 -82.5t19 -88t4 -93q0 -161 -98.5 -265.5t-280.5 -104.5q-253 0 -373 198q-12 21 -30.5 60t-29 57.5t-30.5 34.5t-44 16q-17 0 -27 -4z" />
<glyph unicode="&#xdae;" horiz-adv-x="1050" d="M456 1208v237h99q99 0 175 -22.5t137 -73t93.5 -141t32.5 -218.5v-523q0 -235 -106 -352t-330 -117v132q143 0 222.5 78.5t79.5 258.5v486q0 188 -68 275t-236 87l-2 -107q1 -60 19 -104.5t49.5 -69t67 -36.5t77.5 -14v-102q-155 8 -232.5 98.5t-77.5 227.5zM57 513 q0 53 9 102.5t36 103.5t69 93t114 64.5t165 25.5v-129q-127 0 -194.5 -71.5t-67.5 -188.5v-119q0 -111 70.5 -187.5t191.5 -76.5v-132q-82 0 -149.5 24.5t-111.5 64.5t-74.5 92t-44 104t-13.5 104v126z" />
<glyph unicode="&#xdaf;" horiz-adv-x="1029" d="M695 -390q125 0 217 64.5t118 178.5l-127 30q-18 -73 -74.5 -112t-127.5 -39q-83 0 -146 50.5t-63 131.5h-128q0 -141 95 -222.5t236 -81.5zM57 381q0 -96 35 -171t96.5 -120t138 -67.5t165.5 -22.5h73q52 0 105 13t108.5 41.5t102 82.5t72.5 127l-120 33 q-77 -169 -268 -169h-73q-142 0 -221.5 68.5t-79.5 184.5q0 121 75 189.5t211 68.5h356v111q0 87 -31.5 157t-85 113t-119.5 65.5t-138 22.5q-118 0 -212 -61.5t-123 -171.5l117 -39q19 71 82 110.5t142 39.5q101 0 172 -57t71 -160h-218q-197 0 -315 -99.5t-118 -288.5z " />
<glyph unicode="&#xdb0;" horiz-adv-x="1117" d="M348 -4q-129 0 -210 75t-81 199v293q0 64 17 121.5t55.5 111.5t113 86.5t176.5 32.5h67v-128h-67q-56 0 -98.5 -17t-67 -41.5t-39.5 -57.5t-20 -60.5t-5 -55.5v-274q0 -23 8 -48t24.5 -50t49 -41t75.5 -16t75 16t48.5 41t24 49.5t7.5 48.5v92h113v-92q0 -24 7.5 -48.5 t24 -49.5t48.5 -41t75 -16t75.5 16t49 41t24.5 50t8 48v695q0 186 -75.5 262.5t-236.5 76.5v130q228 0 337 -109t109 -348v-718q0 -124 -77.5 -199t-201.5 -75q-148 0 -220 104q-34 -51 -90 -77.5t-123 -26.5zM75 1080q0 106 66 191.5t163.5 129.5t202.5 44v-130 q-124 0 -214 -72.5t-90 -195.5z" />
<glyph unicode="&#xdb1;" horiz-adv-x="1408" d="M1005 -6v132q48 0 82.5 9t67 33.5t49.5 75.5t17 127v263q0 145 -96.5 232t-226.5 87q-73 0 -139 -31.5t-112 -92.5l-149 -197q-56 -73 -96.5 -118t-98 -85.5t-110.5 -45.5q34 -132 126.5 -198t208.5 -66q117 0 200.5 75.5t83.5 199.5q0 179 -177 251l75 100 q117 -42 177 -139.5t60 -213.5q0 -180 -121.5 -291t-299.5 -111q-93 0 -176 31.5t-149 92t-105 158t-39 218.5v168h121v-141v-2q47 7 105.5 61.5t103.5 116.5q1 1 130 176q-24 42 -68 65t-93 23q-60 0 -106.5 -34.5t-69.5 -101.5l-117 36q35 115 117.5 170.5t177.5 55.5 q73 0 138.5 -33t98.5 -82q58 56 140 85.5t172 29.5q85 0 162.5 -27t141.5 -79t102 -138.5t38 -195.5v-272q0 -188 -77.5 -282.5t-268.5 -94.5z" />
<glyph unicode="&#xdb3;" horiz-adv-x="1324" d="M789 0q-89 0 -165.5 22.5t-138 67.5t-96.5 120t-35 171q0 189 118 288t315 99h216q0 72 -37 122.5t-90.5 72t-115.5 21.5q-48 0 -92.5 -15t-81 -49.5t-50.5 -83.5l-13 4q-59 19 -106 19q-106 0 -168.5 -83.5t-62.5 -208.5v-167q0 -70 2.5 -107t14.5 -86t38 -93t71 -97 l-126 -44q-81 103 -105 193t-24 234v167q0 103 29.5 185.5t78.5 133.5t111 77.5t130 26.5q37 0 65 -8q50 61 125 92.5t160 31.5q75 0 141 -22t118.5 -65t83 -114t30.5 -162l-2 -104h-356q-134 0 -208.5 -68.5t-74.5 -189.5q0 -116 79.5 -184.5t221.5 -68.5h72q191 0 268 169 l119 -33q-25 -73 -71.5 -127t-101.5 -82.5t-108.5 -41.5t-105.5 -13h-72zM990 -390q-141 0 -236.5 81.5t-95.5 222.5h129q0 -81 62.5 -131.5t145.5 -50.5q71 0 128 39t75 112l127 -30q-26 -114 -118 -178.5t-217 -64.5z" />
<glyph unicode="&#xdb4;" horiz-adv-x="1190" d="M59 903q34 93 113 137.5t180 44.5q65 0 132.5 -26t110.5 -85q43 59 110.5 85t132.5 26q101 0 180 -44.5t115 -137.5l-119 -38q-37 100 -178 100q-84 0 -131.5 -51t-47.5 -129v-16h147q82 0 139 -13.5t101.5 -46t65.5 -92t21 -148.5h-130q0 95 -38 138.5t-155 43.5h-427 q-60 0 -100 -14t-59 -41.5t-26 -56.5t-7 -70h-130q0 86 22.5 145.5t65.5 92.5t98 47.5t128 14.5h161v16q0 78 -47.5 129t-132.5 51q-141 0 -178 -100zM540 -15q-254 0 -367.5 91.5t-113.5 296.5h130q0 -77 22.5 -128.5t69 -80t107 -40t146.5 -11.5h124q174 0 258.5 56.5 t84.5 203.5h130q0 -203 -113.5 -295.5t-364.5 -92.5h-113z" />
<glyph unicode="&#xdb5;" horiz-adv-x="1060" d="M459 -2q-172 0 -286 105t-114 249q0 79 18 135.5t65 98.5q54 54 134.5 73.5t209.5 19.5q0 64 -46 101t-109 37q-46 0 -83 -20t-53 -60l-105 29q22 81 89.5 121.5t151.5 40.5q110 0 188 -64.5t78 -178.5v-124h-113q-162 0 -229 -42.5t-67 -164.5q0 -89 73 -156.5 t198 -67.5v-132zM465 1208v237h98q78 0 142.5 -13.5t120.5 -46t94.5 -84t60.5 -130t22 -181.5v-523q0 -235 -106 -352t-330 -117v132q143 0 222.5 78.5t79.5 258.5v486q0 189 -68.5 275.5t-237.5 86.5v-107q0 -115 60.5 -168t149.5 -56v-102q-154 8 -231 98.5t-77 227.5z " />
<glyph unicode="&#xdb6;" horiz-adv-x="1133" d="M57 345v199q0 144 87 227t204 83q115 0 198.5 -83t83.5 -233v-251q0 -73 48 -115t111 -42t109 41.5t46 115.5v678q0 181 -76 265.5t-227 84.5h-27v130h27q435 0 435 -469v-685q0 -96 -44.5 -166.5t-110 -102.5t-140.5 -32q-115 0 -197.5 73t-82.5 205v266q0 86 -46.5 134 t-111.5 48q-63 0 -110.5 -48t-48.5 -134v-188q0 -125 54 -170.5t166 -45.5v-130q-177 0 -262 80t-85 265zM78 1080q0 106 65 191.5t162 129.5t200 44v-130q-122 0 -210 -72.5t-88 -195.5z" />
<glyph unicode="&#xdb7;" horiz-adv-x="1427" d="M689 612q84 -1 139 -39.5t76.5 -96t21.5 -133.5v-54q0 -151 -85.5 -227.5t-239.5 -76.5v132q205 0 205 193q0 36 -4.5 63t-18.5 59.5t-47.5 51t-84.5 19.5h-92v180v19h-63q-121 0 -176.5 -54t-55.5 -173v-98q0 -115 60 -187.5t172 -72.5v-132q-174 0 -268 109t-94 283 v103q0 145 77 222h-154v119h479q0 70 -45.5 108.5t-111.5 38.5q-45 0 -82 -20.5t-52 -59.5l-107 27q24 80 91.5 122.5t151.5 42.5q77 0 144 -35.5t97 -100.5q87 136 280 136v-133q-61 0 -104.5 -22.5t-66 -61.5t-32.5 -82.5t-10 -95.5v-73zM1009 -15v132q114 0 172.5 76 t58.5 211v254q0 136 -57.5 212.5t-173.5 76.5v133q175 0 268 -113.5t93 -308.5v-254q0 -193 -93 -306t-268 -113z" />
<glyph unicode="&#xdb8;" horiz-adv-x="1106" d="M57 482q0 -69 10 -131t38 -129t73 -114.5t121 -78.5t176 -31v130q-33 0 -64.5 5t-75.5 26.5t-75.5 57t-54.5 104.5t-23 161v157q0 75 29.5 113t71.5 38q35 0 60.5 -25t25.5 -66v-100q0 -75 49.5 -117t117.5 -42t118 44.5t50 124.5v289h-105v-278q0 -30 -19 -46.5 t-46 -16.5t-46 16.5t-19 46.5v100q0 89 -54 140t-130 51q-91 0 -159.5 -74.5t-68.5 -212.5v-142zM582 -2q241 0 354 123.5t113 345.5v509q0 221 -113.5 345t-353.5 124v-130q337 0 337 -339v-509q0 -339 -337 -339v-130zM59 1080l129 -35q0 79 42.5 142t107.5 95.5t137 32.5 v130q-98 0 -193 -46t-159 -132t-64 -187z" />
<glyph unicode="&#xdb9;" horiz-adv-x="1129" d="M356 -21q130 0 144 107q4 15 4 40.5t-2 56.5t-2 43q0 38 16.5 50.5t46.5 12.5q31 0 48 -12t17 -51q0 -12 -2 -43t-2 -56.5t4 -40.5q14 -107 141 -107q137 0 220 93.5t83 241.5v668q0 232 -118 347.5t-347 115.5v-130q335 0 335 -339v-656q0 -80 -48.5 -143.5 t-125.5 -63.5q-37 0 -52 17t-15 54q0 7 3.5 39.5t2.5 56t-7 51.5t-28 43.5t-58 15.5h-101q-30 0 -50 -12t-28.5 -29.5t-11.5 -43t-1.5 -45.5t3.5 -44t2 -32q0 -37 -15 -54t-52 -17q-76 0 -124 63t-48 144v359q0 53 29.5 82t71.5 29q41 0 70.5 -27.5t29.5 -77.5v-86 q0 -75 50 -117t118 -42q67 0 117.5 44.5t50.5 124.5v289h-105v-278q0 -30 -19 -46.5t-46 -16.5t-46 16.5t-19 46.5v84q0 101 -61 156t-146 55q-90 0 -158 -61.5t-68 -168.5v-371q0 -148 82 -241.5t217 -93.5zM201 1047q0 123 88.5 195.5t210.5 72.5v130q-103 0 -200 -44 t-162 -129.5t-65 -191.5z" />
<glyph unicode="&#xdba;" horiz-adv-x="1219" d="M57 279v94h131v-88q0 -76 50 -117.5t128 -41.5q79 0 129 42t50 119v86h125v-86q0 -77 50.5 -119t129.5 -42t129.5 41.5t50.5 117.5v88h130v-94q0 -129 -86.5 -206t-221.5 -77q-77 0 -142 30t-103 87q-39 -57 -101.5 -87t-139.5 -30q-134 0 -221.5 78t-87.5 205zM563 651 v117q0 69 18 124t47 89.5t68.5 57.5t80 32.5t84.5 9.5q98 0 176 -42t117 -136l-113 -38q-39 96 -180 96q-94 0 -133 -47.5t-39 -144.5h228q61 0 106 -12.5t71 -32t41 -49t20 -57.5t5 -63v-86h-130v78q0 63 -31 83.5t-92 20.5h-344zM57 469v182q0 106 34 189.5t92.5 134.5 t132.5 77t159 26h32v-125h-36q-137 0 -210 -84t-73 -230v-170h-131z" />
<glyph unicode="&#xdbb;" horiz-adv-x="1001" d="M57 450v367q0 40 1.5 66t11 73t27 84.5t53 84.5t85.5 88l374 305l159 -42l-439 -356q-49 -40 -79 -75.5t-43 -74.5t-16 -69t-3 -82v-369q0 -329 266 -329v-132q-62 0 -117 14t-107.5 47.5t-90 85t-60 132t-22.5 182.5zM304 967l129 113h183q176 0 252 -102.5t76 -303.5 v-224q0 -107 -19.5 -188.5t-53 -132.5t-83.5 -82.5t-104.5 -44t-122.5 -12.5v132q135 0 193.5 80t58.5 248v218q0 82 -16 138.5t-48.5 87.5t-73 44t-95.5 13h-276v16z" />
<glyph unicode="&#xdbd;" horiz-adv-x="1171" d="M513 438v96h-123v117h376v-117h-125v-84q0 -71 45.5 -113t113.5 -42q77 0 129.5 52.5t52.5 142.5v145q0 93 -26 158t-74.5 100.5t-107.5 50.5t-135 15v130q50 0 93 -4t93 -16.5t90 -33t78 -55.5t64 -81.5t41.5 -114t15.5 -149.5v-145q0 -158 -89.5 -244.5t-222.5 -86.5 q-131 0 -210 76.5t-79 202.5zM524 -323q-68 0 -128.5 11.5t-124.5 43t-110 82t-75 135.5t-29 195v476q0 111 29 196t74.5 135.5t109.5 82.5t125 43.5t129 11.5v-130q-150 0 -241.5 -82.5t-91.5 -256.5v-476q0 -173 91.5 -255t241.5 -82v-130zM639 -195q251 0 326 214 l126 -34q-93 -310 -452 -310v130z" />
<glyph unicode="&#xdc0;" horiz-adv-x="1064" d="M463 -2v130q-125 0 -198.5 68t-73.5 158q0 122 67.5 164.5t229.5 42.5h113v124q0 114 -78 178.5t-188 64.5q-84 0 -151 -40.5t-90 -121.5l107 -29q15 40 52 60t82 20q63 0 109 -37t46 -101q-129 0 -210 -19.5t-135 -73.5q-47 -41 -64.5 -97.5t-17.5 -136.5 q0 -144 114.5 -249t285.5 -105zM570 -2q224 0 330.5 117t106.5 352v521q0 233 -108.5 345t-328.5 112v-130q152 0 228.5 -80t76.5 -259v-509q0 -182 -80.5 -260.5t-224.5 -78.5v-130zM57 1080l129 -33q0 116 84 192t193 76v130q-95 0 -188 -46.5t-155.5 -132.5t-62.5 -186z " />
<glyph unicode="&#xdc1;" d="M934 -15v132q114 0 173 76t59 211v251q0 138 -58 215t-174 77v133q175 0 268.5 -113.5t93.5 -306.5v-256q0 -193 -93.5 -306t-268.5 -113zM419 -15q-175 0 -268.5 113t-93.5 306v256q0 193 93.5 306.5t268.5 113.5v-133q-116 0 -173.5 -77t-57.5 -215v-251 q0 -135 58.5 -211t172.5 -76v-132zM484 503v180q0 87 19.5 157.5t59.5 125t107.5 84.5t156.5 30v-133q-60 0 -103.5 -22t-66.5 -61t-33 -82.5t-10 -96.5v-80h18q139 -5 193 -128q81 84 260 84v-111q-63 0 -109 -14.5t-70.5 -39t-37 -50t-16.5 -55.5q-1 -153 -87 -229.5 t-239 -76.5v132q205 0 205 193t-155 193h-92z" />
<glyph unicode="&#xdc2;" horiz-adv-x="1207" d="M69 903q34 93 113 137.5t180 44.5q67 0 133.5 -26t109.5 -85q43 59 110.5 85t132.5 26q101 0 180 -44.5t115 -137.5l-119 -38q-15 45 -60 72.5t-118 27.5q-84 0 -132 -51t-48 -129v-14h157q82 0 139 -13.5t101.5 -46.5t65.5 -93t21 -149h-130q0 84 -26.5 127t-105.5 53 q-114 -61 -177.5 -138.5t-63.5 -187.5l-128 -1q0 104 51 190t140 141h-331q-60 0 -100 -14t-59 -42t-25.5 -57t-6.5 -71h-131q0 86 22.5 146t65.5 93.5t98 48t128 14.5h173v14q0 78 -47.5 129t-132.5 51q-141 0 -178 -100zM538 -15q-254 0 -367.5 91.5t-113.5 296.5h131 q0 -77 22.5 -128.5t68.5 -80t106.5 -40t146.5 -11.5h146q175 0 258.5 56t83.5 204h130q0 -203 -113.5 -295.5t-364.5 -92.5h-134z" />
<glyph unicode="&#xdc3;" horiz-adv-x="1301" d="M142 279v94h130v-88q0 -76 50 -117.5t128 -41.5q79 0 130.5 42t51.5 119v86h122v-86q0 -77 51.5 -119t130.5 -42q78 0 128 41.5t50 117.5v88h130v-94q0 -129 -86.5 -206t-221.5 -77q-77 0 -142 30t-103 87q-39 -57 -101.5 -87t-139.5 -30q-133 0 -220.5 78t-87.5 205z M157 903q36 93 115 137.5t180 44.5q65 0 132.5 -26t110.5 -85q42 59 108.5 85t132.5 26q102 0 181.5 -45t113.5 -137l-117 -38q-37 100 -178 100q-85 0 -132.5 -51t-47.5 -129v-16h245q243 0 243 -224v-76h-130q0 67 -4 75q-3 64 -35 85.5t-84 21.5h-595q-54 0 -85.5 -22 t-34.5 -87q-4 -2 -4 -73h-130v71q4 90 40 111h-125v118h575v16q0 78 -47.5 129t-130.5 51q-72 0 -117.5 -27.5t-62.5 -72.5z" />
<glyph unicode="&#xdc4;" d="M614 612q64 -1 111 -22.5t74 -59.5t40 -84.5t13 -102.5v-54q0 -150 -86.5 -227t-239.5 -77v132q203 0 203 193q0 36 -4 63t-18 59.5t-47 51t-84 19.5h-94v180v10h-63q-120 0 -175.5 -53.5t-55.5 -172.5v-90q0 -117 59.5 -188.5t171.5 -71.5v-132q-174 0 -268 109t-94 283 v96q0 349 353 352h55q0 67 -45.5 105t-109.5 38q-45 0 -82 -20.5t-54 -59.5l-105 27q22 80 90 122.5t153 42.5q75 0 139.5 -34t97.5 -97q92 131 278 131v-133q-61 0 -104.5 -22t-66 -60.5t-32.5 -82t-10 -95.5v-75zM934 -15v132q113 0 171.5 76t58.5 211v251q0 138 -57 215 t-173 77v133q174 0 267 -113.5t95 -306.5v-256q-2 -193 -95 -306t-267 -113z" />
<glyph unicode="&#xdc5;" horiz-adv-x="1165" d="M211 798v42q0 116 66 180.5t179 64.5q47 0 93.5 -20t74.5 -60q29 41 75 60.5t91 19.5q117 0 180.5 -65.5t63.5 -183.5h-117q0 65 -34 98.5t-91 33.5q-52 0 -85 -35.5t-33 -97.5h-100q0 62 -33.5 97.5t-86.5 35.5q-127 0 -127 -149zM57 147v224q0 88 33 161t85.5 117.5 t114 69t122.5 24.5h622v-127h-601q-45 0 -90 -17q3 -42 12 -81t29 -81.5t49 -73.5t75 -51.5t104 -20.5h83q81 0 139 33.5t83 92.5l118 -30q-42 -105 -129.5 -160t-208.5 -55h-88q-82 0 -147.5 27t-103.5 65t-65.5 89t-38 90t-15.5 76q-50 -68 -50 -173v-201q0 -93 30 -161.5 t82 -105.5t111.5 -54t129.5 -17v-132q-224 0 -354.5 119.5t-130.5 352.5zM658 -195q288 0 341 229l128 -34q-20 -95 -69 -162t-117 -101t-136.5 -48t-146.5 -14v130z" />
<glyph unicode="&#xdc6;" horiz-adv-x="1217" d="M57 469h131v320q0 77 49.5 118.5t128.5 41.5t129 -41.5t50 -118.5v-320h125v320q0 77 50.5 118.5t129.5 41.5t129.5 -41.5t50.5 -118.5v-320h130v327q0 127 -87.5 205.5t-220.5 78.5q-77 0 -139.5 -30t-101.5 -87q-40 57 -104.5 87t-142.5 30q-133 0 -220 -77.5 t-87 -206.5v-327zM57 373q0 -163 93 -268t281 -105v132q-57 0 -101 15.5t-70 40t-43 57.5t-23 64t-6 64h-131zM787 0q97 0 170 29.5t116 82t64.5 118t22.5 143.5h-130q0 -42 -11 -81t-36.5 -76.5t-76 -60.5t-119.5 -23v-132z" />
<glyph unicode="&#xdca;" horiz-adv-x="243" d="M57 1185h129v383h-129v-383z" />
<glyph unicode="&#xdcf;" horiz-adv-x="507" d="M57 0h39q185 0 269.5 97.5t84.5 283.5v321q0 188 -84.5 285.5t-269.5 97.5h-39v-132h39q34 0 62 -5t59 -21t52 -43t35 -74.5t14 -112.5v-314q0 -64 -14 -111t-35 -73.5t-52 -42t-59 -20t-62 -4.5h-39v-132z" />
<glyph unicode="&#xdd0;" horiz-adv-x="503" d="M390 0q-150 0 -241.5 90.5t-91.5 273.5v201q0 68 6.5 109t33.5 88t64.5 89t116.5 119h-221v129h389v-127q-98 -95 -145.5 -145t-75.5 -97.5t-32.5 -78.5t-4.5 -92v-199q0 -33 3.5 -60.5t15.5 -60t33 -55t59.5 -37.5t90.5 -15h56v-132h-56z" />
<glyph unicode="&#xdd1;" horiz-adv-x="530" d="M84 400q0 58 12 94.5t56 83.5t135 111h-203v115l217 180h-217v115h389v-115l-218 -180h218v-115q-94 -66 -146 -107.5t-76.5 -74t-29.5 -52t-5 -55.5v-71q0 -33 3 -57.5t15.5 -52t33 -45.5t58.5 -30t91 -12h56v-132h-54q-75 0 -133.5 15.5t-105 51t-71.5 98.5t-25 151v84 z" />
<glyph unicode="&#xdd2;" horiz-adv-x="0" d="M-1112 1152h124q0 234 243 234h266q244 0 244 -234h124v54q0 133 -96.5 218.5t-240.5 85.5h-327q-144 0 -240.5 -85.5t-96.5 -218.5v-54z" />
<glyph unicode="&#xdd3;" horiz-adv-x="0" d="M-299 1087q-77 0 -132 55.5t-55 132.5q0 62 36 111h-11h-297q-243 0 -243 -234h-124v54q0 133 96 218.5t240 85.5h391q125 0 206 -58.5t81 -176.5q0 -77 -55.5 -132.5t-132.5 -55.5z" />
<glyph unicode="&#xdd4;" horiz-adv-x="0" d="M-230 249h130v-641h-401v130h271v511zM-957 -262h348v-130h-348v130z" />
<glyph unicode="&#xdd6;" horiz-adv-x="0" d="M-972 -189q76 -64 143 -64q38 0 109.5 31t116.5 31v-132q-44 0 -116.5 -31t-111.5 -31q-66 0 -141 63v133zM-230 -392q-129 69 -266 69v132q140 0 266 -64v490h130v-627h-130z" />
<glyph unicode="&#xdd8;" horiz-adv-x="633" d="M302 0q112 0 193 78t81 196v490q0 146 -68 233.5t-194 87.5h-178v-124h172q73 0 110.5 -56t37.5 -151v-480q0 -64 -46 -109.5t-108 -45.5q-64 0 -109.5 46t-45.5 109q0 64 45 108.5t110 44.5h56v117h-56q-121 0 -197 -79t-76 -191q0 -117 80.5 -195.5t192.5 -78.5z" />
<glyph unicode="&#xdd9;" horiz-adv-x="874" d="M477 955h-71q-60 0 -104.5 -19.5t-68.5 -54.5t-35.5 -77.5t-11.5 -93.5v-331q0 -130 47 -197t167 -67v-125h-40q-57 0 -104 16t-78 41.5t-54 61t-35.5 70t-20 75t-9.5 68.5t-2 57v331q0 49 8.5 96t32 98t60 89t98.5 62.5t142 24.5h119q66 0 122 -24.5t91 -63.5t56 -82 t26 -85l-121 -31q-31 161 -214 161zM446 553v125h166q96 0 150.5 -42t54.5 -148v-187q0 -134 -71.5 -222.5t-207.5 -88.5h-46v125q197 0 197 186v155q0 27 -7.5 46t-17.5 29t-27.5 15t-30 6t-32.5 1h-128z" />
<glyph unicode="&#xdda;" horiz-adv-x="1391" d="M1206 1185v383h128v-383h-128zM477 955h-71q-60 0 -104.5 -19.5t-68.5 -54.5t-35.5 -77.5t-11.5 -93.5v-331q0 -130 47 -197t167 -67v-125h-40q-57 0 -104 16t-78 41.5t-54 61t-35.5 70t-20 75t-9.5 68.5t-2 57v331q0 49 8.5 96t32 98t60 89t98.5 62.5t142 24.5h119 q66 0 122 -24.5t91 -63.5t56 -82t26 -85l-121 -31q-31 161 -214 161zM446 553v125h166q96 0 150.5 -42t54.5 -148v-187q0 -134 -71.5 -222.5t-207.5 -88.5h-46v125q197 0 197 186v155q0 27 -7.5 46t-17.5 29t-27.5 15t-30 6t-32.5 1h-128z" />
<glyph unicode="&#xddb;" horiz-adv-x="1699" d="M1302 961h-71q-60 0 -104.5 -19.5t-68.5 -54.5t-35.5 -77.5t-11.5 -93.5v-331q0 -130 47 -197t167 -67v-125h-40q-57 0 -104 16t-78 41.5t-54 61t-35.5 70t-20 75t-9.5 68.5t-2 57v331q0 49 8.5 96t32 98t60 88.5t98.5 62t142 24.5h119q66 0 122 -24.5t90.5 -63 t55.5 -81.5t26 -85l-120 -31q-31 161 -214 161zM1271 559v124h166q96 0 150.5 -41.5t54.5 -147.5v-188q0 -134 -71.5 -222t-207.5 -88h-46v125q197 0 197 185v155q0 33 -10 54.5t-29 30t-35 11t-41 2.5h-128zM477 955h-71q-60 0 -104.5 -19.5t-68.5 -54.5t-35.5 -77.5 t-11.5 -93.5v-331q0 -130 47 -197t167 -67v-125h-40q-57 0 -104 16t-78 41.5t-54 61t-35.5 70t-20 75t-9.5 68.5t-2 57v331q0 49 8.5 96t32 98t60 89t98.5 62.5t142 24.5h119q66 0 122 -24.5t91 -63.5t56 -82t26 -85l-121 -31q-31 161 -214 161zM446 553v125h166 q96 0 150.5 -42t54.5 -148v-187q0 -134 -71.5 -222.5t-207.5 -88.5h-46v125q197 0 197 186v155q0 27 -7.5 46t-17.5 29t-27.5 15t-30 6t-32.5 1h-128z" />
<glyph unicode="&#xddc;" horiz-adv-x="1510" d="M1060 0v132h39q34 0 62 4.5t59 20t52 42t35 73.5t14 111v314q0 65 -14 112.5t-35 74.5t-52 43t-59 21t-62 5h-39v132h39q185 0 269.5 -97.5t84.5 -285.5v-321q0 -186 -84.5 -283.5t-269.5 -97.5h-39zM477 955h-71q-60 0 -104.5 -19.5t-68.5 -54.5t-35.5 -77.5 t-11.5 -93.5v-331q0 -130 47 -197t167 -67v-125h-40q-57 0 -104 16t-78 41.5t-54 61t-35.5 70t-20 75t-9.5 68.5t-2 57v331q0 49 8.5 96t32 98t60 89t98.5 62.5t142 24.5h119q66 0 122 -24.5t91 -63.5t56 -82t26 -85l-121 -31q-31 161 -214 161zM446 553v125h166 q96 0 150.5 -42t54.5 -148v-187q0 -134 -71.5 -222.5t-207.5 -88.5h-46v125q197 0 197 186v155q0 27 -7.5 46t-17.5 29t-27.5 15t-30 6t-32.5 1h-128z" />
<glyph unicode="&#xddd;" horiz-adv-x="1510" d="M1058 1185v383h129v-383h-129zM1060 0v132h39q34 0 62 4.5t59 20t52 42t35 73.5t14 111v314q0 65 -14 112.5t-35 74.5t-52 43t-59 21t-62 5h-39v132h39q185 0 269.5 -97.5t84.5 -285.5v-321q0 -186 -84.5 -283.5t-269.5 -97.5h-39zM477 955h-71q-60 0 -104.5 -19.5 t-68.5 -54.5t-35.5 -77.5t-11.5 -93.5v-331q0 -130 47 -197t167 -67v-125h-40q-57 0 -104 16t-78 41.5t-54 61t-35.5 70t-20 75t-9.5 68.5t-2 57v331q0 49 8.5 96t32 98t60 89t98.5 62.5t142 24.5h119q66 0 122 -24.5t91 -63.5t56 -82t26 -85l-121 -31q-31 161 -214 161z M446 553v125h166q96 0 150.5 -42t54.5 -148v-187q0 -134 -71.5 -222.5t-207.5 -88.5h-46v125q197 0 197 186v155q0 27 -7.5 46t-17.5 29t-27.5 15t-30 6t-32.5 1h-128z" />
<glyph unicode="&#xdde;" horiz-adv-x="1927" d="M1537 -15q-64 0 -122.5 20t-105.5 57t-75 97.5t-28 135.5v92h122v-94q0 -86 63.5 -134t149.5 -48q84 0 144.5 48t60.5 134v576q0 42 -25.5 65t-59.5 23q-33 0 -58.5 -23.5t-25.5 -64.5v-98q0 -87 -54 -136t-128 -49q-77 0 -133 52.5t-56 148.5v293h105v-274q0 -40 25 -63 t59 -23t58.5 23t24.5 63v82q0 94 57 146.5t136 52.5q81 0 139.5 -55.5t59.5 -156.5v-580q0 -75 -28.5 -135.5t-76 -97.5t-106 -57t-122.5 -20zM477 955h-71q-60 0 -104.5 -19.5t-68.5 -54.5t-35.5 -77.5t-11.5 -93.5v-331q0 -130 47 -197t167 -67v-125h-40q-57 0 -104 16 t-78 41.5t-54 61t-35.5 70t-20 75t-9.5 68.5t-2 57v331q0 49 8.5 96t32 98t60 89t98.5 62.5t142 24.5h119q66 0 122 -24.5t91 -63.5t56 -82t26 -85l-121 -31q-31 161 -214 161zM446 553v125h166q96 0 150.5 -42t54.5 -148v-187q0 -134 -71.5 -222.5t-207.5 -88.5h-46v125 q197 0 197 186v155q0 27 -7.5 46t-17.5 29t-27.5 15t-30 6t-32.5 1h-128z" />
<glyph unicode="&#xddf;" horiz-adv-x="849" d="M350 -15q64 0 122.5 20t106 57t76 97.5t28.5 135.5v580q-1 101 -59.5 156.5t-139.5 55.5q-79 0 -136 -52.5t-57 -146.5v-82q0 -41 -24 -63.5t-58 -22.5t-59.5 23t-25.5 63v274h-105v-293q0 -96 56.5 -148.5t133.5 -52.5q74 0 127.5 49t53.5 136v98q0 41 26 64.5t59 23.5 q34 0 59 -23t25 -65v-576q0 -86 -60.5 -134t-144.5 -48q-85 0 -148.5 48t-63.5 134v94h-123v-92q0 -75 28 -135.5t75 -97.5t105.5 -57t122.5 -20z" />
<glyph unicode="&#xdf2;" horiz-adv-x="1311" d="M980 0q112 0 193 78t81 196v490q0 146 -68.5 233.5t-194.5 87.5h-178v-124h173q73 0 110 -56t37 -151v-480q0 -64 -45.5 -109.5t-107.5 -45.5q-64 0 -109.5 46t-45.5 109q0 64 45 108.5t110 44.5h55v117h-55q-121 0 -197.5 -79t-76.5 -191q0 -117 81 -195.5t193 -78.5z M333 0q112 0 193 78t81 196v490q0 146 -68 233.5t-194 87.5h-178v-124h172q73 0 110 -56t37 -151v-480q0 -64 -45.5 -109.5t-107.5 -45.5q-64 0 -109.5 46t-45.5 109q0 64 45 108.5t110 44.5h56v117h-56q-121 0 -197.5 -79t-76.5 -191q0 -117 81 -195.5t193 -78.5z" />
<glyph unicode="&#xdf3;" horiz-adv-x="750" d="M362 -15q64 0 122.5 20t106 57t76 97.5t28.5 135.5v580q-1 101 -59.5 156.5t-139.5 55.5q-79 0 -136.5 -52.5t-57.5 -146.5v-82q0 -41 -24 -63.5t-58 -22.5t-59 23t-25 63v274h-105v-293q0 -96 56 -148.5t133 -52.5q74 0 128 49t54 136v98q0 41 25.5 64.5t58.5 23.5 q34 0 59 -23t25 -65v-576q0 -86 -60 -134t-144 -48q-86 0 -149.5 48t-63.5 134v94h-122v-92q0 -75 28 -135.5t75 -97.5t105.5 -57t122.5 -20z" />
<glyph unicode="&#xdf4;" horiz-adv-x="2913" d="M1141 886q-202 -406 -266 -515q-93 -158 -172 -210q-70 -46 -186 -46h-230v-115h230q158 0 250 60q90 60 188 223q63 104 227 427q40 78 62 121zM1405 909l-421 -852l105 -57l419 854zM1562 710l-326 -653l106 -57l323 653zM1598 0l169 346q72 -53 104 -76.5t98.5 -69 t104.5 -67t99.5 -52.5t108.5 -45t105.5 -25t114.5 -11h204v115h-202q-45 0 -92 9.5t-87.5 22.5t-93.5 40t-91 49t-98.5 62.5t-98.5 67t-109 77.5t-113 80l-228 -466z" />
<glyph unicode="&#x2000;" horiz-adv-x="1115" />
<glyph unicode="&#x2001;" horiz-adv-x="2230" />
<glyph unicode="&#x2002;" horiz-adv-x="1115" />
<glyph unicode="&#x2003;" horiz-adv-x="2230" />
<glyph unicode="&#x2004;" horiz-adv-x="743" />
<glyph unicode="&#x2005;" horiz-adv-x="557" />
<glyph unicode="&#x2006;" horiz-adv-x="371" />
<glyph unicode="&#x2007;" horiz-adv-x="371" />
<glyph unicode="&#x2008;" horiz-adv-x="278" />
<glyph unicode="&#x2009;" horiz-adv-x="446" />
<glyph unicode="&#x200a;" horiz-adv-x="123" />
<glyph unicode="&#x200c;" horiz-adv-x="0" d="M-61 11h120v1430h-120v-1430z" />
<glyph unicode="&#x200d;" horiz-adv-x="0" d="M-59 13v1068l-207 -145l-65 84l241 169l-253 176l64 82l279 -195l279 195l62 -84l-249 -176l239 -167l-61 -84l-211 147v-1070h-118z" />
<glyph unicode="&#x2010;" horiz-adv-x="769" d="M82 501h605v121h-605v-121z" />
<glyph unicode="&#x2011;" horiz-adv-x="769" d="M82 501h605v121h-605v-121z" />
<glyph unicode="&#x2012;" horiz-adv-x="769" d="M82 501h605v121h-605v-121z" />
<glyph unicode="&#x2013;" horiz-adv-x="1018" d="M50 501h918v121h-918v-121z" />
<glyph unicode="&#x2014;" horiz-adv-x="1734" d="M50 501h1634v121h-1634v-121z" />
<glyph unicode="&#x2018;" horiz-adv-x="266" d="M71 890h122v519h-122v-519z" />
<glyph unicode="&#x2019;" horiz-adv-x="266" d="M71 890h122v519h-122v-519z" />
<glyph unicode="&#x201a;" horiz-adv-x="266" d="M71 890h122v519h-122v-519z" />
<glyph unicode="&#x201c;" horiz-adv-x="489" d="M71 890h122v519h-122v-519zM295 890h124v519h-124v-519z" />
<glyph unicode="&#x201d;" horiz-adv-x="489" d="M71 890h122v519h-122v-519zM295 890h124v519h-124v-519z" />
<glyph unicode="&#x201e;" horiz-adv-x="507" d="M247 -44h122l71 291h-122zM40 -44h123l71 291h-123z" />
<glyph unicode="&#x2020;" horiz-adv-x="867" d="M50 921h317v-1028h131v1028h319v120h-319v421h-131v-421h-317v-120z" />
<glyph unicode="&#x2021;" horiz-adv-x="867" d="M50 310h319v-417h131v417h317v121h-317v493h317v121h-317v417h-131v-417h-319v-121h319v-493h-319v-121z" />
<glyph unicode="&#x2022;" horiz-adv-x="673" d="M174 660q0 -69 47 -115.5t116 -46.5t116 46.5t47 115.5t-47 116t-116 47t-116 -47t-47 -116z" />
<glyph unicode="&#x2026;" horiz-adv-x="1230" d="M84 34q0 -31 22.5 -53.5t54.5 -22.5q31 0 53.5 22t22.5 54t-22.5 54.5t-53.5 22.5t-54 -22.5t-23 -54.5zM540 34q0 -32 22 -54t54 -22t54.5 22.5t22.5 53.5q0 32 -22.5 54.5t-54.5 22.5q-31 0 -53.5 -22.5t-22.5 -54.5zM995 34q0 -32 22 -54t53 -22q32 0 54 22t22 54 t-22.5 54.5t-53.5 22.5t-53 -22.5t-22 -54.5z" />
<glyph unicode="&#x202f;" horiz-adv-x="446" />
<glyph unicode="&#x2030;" horiz-adv-x="1716" d="M230 674q-23 1 -46.5 8t-51.5 29.5t-48.5 58t-35 98t-14.5 143.5q0 75 12.5 133.5t32.5 94.5t47 59.5t53 33t53 10.5v-81q-43 -3 -78 -59t-35 -157v-46q0 -127 34.5 -183t76.5 -62v-80zM289 674v80q42 6 76.5 62t34.5 183v46q0 101 -35 157t-78 59v81q35 -2 67 -18 t62.5 -51t49 -102.5t18.5 -159.5q0 -81 -14 -143.5t-35 -98t-49 -58t-51 -29.5t-46 -8zM932 0q-23 1 -46 8t-51 29.5t-49 58t-35 98t-14 143.5q0 92 18.5 159.5t49 102.5t62.5 51t67 18v-80q-43 -3 -78 -59.5t-35 -157.5v-46q0 -127 34.5 -183t76.5 -62v-80zM991 0v80 q42 6 76.5 62t34.5 183v46q0 102 -34.5 158t-77.5 59v80q35 -2 67 -18t62.5 -51t49 -102.5t18.5 -159.5q0 -81 -14.5 -143.5t-35 -98t-48.5 -58t-51.5 -29.5t-46.5 -8zM1428 0q-24 1 -47 8t-51 29.5t-48.5 58t-34.5 98t-14 143.5q0 93 18 160t48.5 102t62.5 51t68 18v-80 q-43 -3 -78.5 -59t-36.5 -158v-46q0 -127 35 -183t78 -62v-80zM1485 0v80q44 6 78.5 62t34.5 183v46q-1 102 -35.5 158t-77.5 59v80q35 -2 67 -18t62.5 -51t49 -102.5t18.5 -159.5q0 -81 -14 -143.5t-35 -98t-49 -58t-51.5 -29.5t-47.5 -8zM157 0l827 1340h90l-823 -1340 h-94z" />
<glyph unicode="&#x2039;" horiz-adv-x="646" d="M119 559l250 -408h152l-251 408l251 398h-152z" />
<glyph unicode="&#x203a;" horiz-adv-x="646" d="M121 151h153l250 408l-250 398h-153l250 -398z" />
<glyph unicode="&#x2044;" horiz-adv-x="945" d="M13 -2h94l823 1344h-90z" />
<glyph unicode="&#x205f;" horiz-adv-x="557" />
<glyph unicode="&#x20ac;" horiz-adv-x="983" d="M98 526h78v-180q1 -53 24 -111t66 -112.5t117 -91t166 -37.5v127q-60 0 -108.5 23.5t-77.5 60t-44 76.5t-15 77v168h479v81h-479v115h479v80h-479v184q0 27 8.5 57t28.5 61.5t47.5 56t69.5 40.5t91 16v129q-91 0 -165 -37t-117.5 -94t-67 -118.5t-23.5 -116.5v-178h-78 v-80h78v-115h-78v-81zM643 -6q137 0 247.5 108t110.5 248l-121 39q0 -53 -11 -90q-15 -56 -50.5 -95.5t-75 -55t-63.5 -21t-37 -5.5v-128zM643 1217q9 0 24 -2t45.5 -13t57 -28.5t55 -55t44.5 -86.5q8 -21 8 -85l124 39q0 142 -107.5 251t-250.5 109v-129z" />
<glyph unicode="&#x2113;" horiz-adv-x="357" d="M119 337q0 -79 20 -141.5t50.5 -100.5t71 -62.5t78 -34t74.5 -9.5v130q-17 0 -34 3t-43 16t-44.5 34.5t-32.5 64t-14 100.5v1001h-126v-1001z" />
<glyph unicode="&#x2122;" horiz-adv-x="853" d="M50 1284h99v-356h58v356h99v54h-256v-54zM348 928h58v182l-48 113h-10v-295zM350 1313l161 -385h33l97 222v104h-11l-104 -226l-126 310h-50v-25zM666 928h56v410h-56v-410z" />
<glyph unicode="&#x2126;" horiz-adv-x="832" d="M44 -2h343v117q-84 0 -140 60.5t-56 121.5v400q0 63 53 119.5t143 56.5v117q-75 0 -137.5 -28.5t-99.5 -71t-57 -87t-20 -81.5v-450q0 -45 28 -100.5t79 -96.5h-136v-77zM473 -2h335v77h-134q50 42 77.5 97.5t27.5 99.5v450q0 38 -19 82t-54.5 86.5t-97 71t-135.5 28.5 v-117q84 0 135.5 -58t51.5 -118v-404q0 -63 -51.5 -120.5t-135.5 -57.5v-117z" />
<glyph unicode="&#x212e;" horiz-adv-x="1016" d="M423 0v126q-101 2 -168 78t-67 221v126h704v406q0 73 -26.5 143.5t-72.5 125.5t-115.5 89t-149.5 34v-128q99 0 166.5 -80.5t67.5 -216.5v-245h-574v245q0 136 67.5 216.5t167.5 80.5v128q-107 0 -192.5 -58t-129.5 -147t-44 -189v-559q0 -164 102 -280t264 -116zM528 -2 q131 0 236 76t128 186l-128 39q-11 -65 -81.5 -116.5t-154.5 -52.5v-132z" />
<glyph unicode="&#x2202;" horiz-adv-x="803" d="M54 270q0 -29 11.5 -63.5t37.5 -72t61 -67.5t88.5 -49.5t114.5 -19.5v115q-83 0 -139 61t-56 121v394q0 65 52.5 124.5t142.5 59.5v115q-75 0 -137.5 -28.5t-99 -71t-56.5 -87t-20 -81.5v-450zM134 1292q77 0 144.5 -10t132.5 -36t111 -67t74 -106.5t28 -149.5 q-72 65 -178 65v-115q81 0 133.5 -54t52.5 -117v-409q0 -61 -51 -120.5t-135 -59.5v-115q73 0 134 29t96.5 72t54.5 88t19 83v587q0 275 -147 392.5t-469 117.5v-75z" />
<glyph unicode="&#x2206;" horiz-adv-x="1002" d="M84 0h835l-366 1347h-117l324 -1225h-526l223 839l-47 195h-16z" />
<glyph unicode="&#x220f;" horiz-adv-x="916" d="M19 1212h107v-1480h121v1480h423v-1480h120v1480h108v120h-879v-120z" />
<glyph unicode="&#x2211;" horiz-adv-x="1131" d="M358 1213h653v131h-741v-18zM57 -268h954v136l-789 -2l519 695l-597 783h-87v-104l517 -677l-517 -695v-136z" />
<glyph unicode="&#x2212;" horiz-adv-x="796" d="M82 501h605v121h-605v-121z" />
<glyph unicode="&#x2215;" horiz-adv-x="945" d="M13 -2h94l823 1344h-90z" />
<glyph unicode="&#x2219;" horiz-adv-x="478" d="M71 792q0 -39 27.5 -66t66.5 -27t66 27t27 66t-27 66.5t-66 27.5t-66.5 -27.5t-27.5 -66.5z" />
<glyph unicode="&#x221a;" horiz-adv-x="1112" d="M11 982l35 -105l216 76l389 -955h139l303 1570h-130l-264 -1344l-354 877z" />
<glyph unicode="&#x221e;" horiz-adv-x="1527" d="M450 -2q78 0 143 42t94 109l82 203l81 -203q29 -65 94 -107t143 -42v115q-43 0 -80 22.5t-54 63.5l-120 295l120 291q17 40 54 62t80 22v117q-79 0 -146 -43.5t-93 -108.5l-79 -195l-80 197q-26 65 -92.5 107.5t-146.5 42.5v-115q43 0 80 -22.5t54 -63.5l120 -291 l-120 -297q-16 -41 -53.5 -62.5t-80.5 -21.5v-117zM371 -2v117q-83 0 -139 60t-56 120v400q0 63 52.5 120.5t142.5 57.5v115q-75 0 -137.5 -28.5t-99.5 -71t-57 -87t-20 -81.5v-450q0 -29 11.5 -63.5t37.5 -71.5t61.5 -67.5t89 -50t114.5 -19.5zM1166 -2q75 0 137.5 29 t99 72t56 88t19.5 83v450q0 37 -20 81.5t-57 87t-99 71t-136 28.5v-117q89 0 141 -56t52 -120v-402q0 -58 -55.5 -119t-137.5 -61v-115z" />
<glyph unicode="&#x222b;" horiz-adv-x="576" d="M17 -274v-72q49 -11 102.5 3.5t102.5 52t81 112t32 172.5v1202q0 59 11.5 106.5t30 77t42 51t48 28t47.5 9.5t41 -6v73q-29 9 -63 3.5t-69 -18t-67.5 -41.5t-57.5 -66.5t-40 -94t-15 -122.5v-1202q0 -62 -12 -111t-31.5 -77.5t-44.5 -49.5t-50 -26t-48 -8t-40 4z" />
<glyph unicode="&#x2248;" horiz-adv-x="1087" d="M96 448q106 69 205 69q52 0 108.5 -22t98.5 -48t102 -48t119 -22q117 0 262 88v117q-141 -86 -250 -86q-56 0 -114.5 21.5t-100.5 48t-100 48t-114 21.5q-101 0 -216 -67v-120zM96 769q106 69 205 69q43 0 87 -14.5t82 -35t76.5 -40.5t86.5 -34.5t96 -14.5q117 0 262 88 v118q-141 -86 -250 -86q-56 0 -114.5 22t-100.5 48t-100 48t-114 22q-101 0 -216 -67v-123z" />
<glyph unicode="&#x2260;" horiz-adv-x="800" d="M145 -136l121 507h-170v123h199l30 128h-229v123h258l126 534h123l-126 -534h227v-123h-256l-31 -128h287v-123h-315l-119 -507h-125z" />
<glyph unicode="&#x2264;" horiz-adv-x="824" d="M748 281v125l-541 281l541 274v122l-710 -360v-74zM54 73h714v109h-714v-109z" />
<glyph unicode="&#x2265;" horiz-adv-x="824" d="M57 283l711 366v74l-711 362v-124l542 -274l-542 -281v-123zM54 73h714v109h-714v-109z" />
<glyph unicode="&#x25ca;" horiz-adv-x="809" d="M-6 674l360 -678h79l367 678l-360 677h-78zM119 674l281 518l278 -518l-286 -519z" />
<glyph unicode="&#x25cc;" horiz-adv-x="1217" d="M310 926q0 -31 22.5 -53.5t54.5 -22.5q31 0 53.5 22t22.5 54q0 31 -22 53t-54 22t-54.5 -22t-22.5 -53zM147 762q0 -32 22 -54.5t53 -22.5q32 0 54.5 22.5t22.5 54.5q0 31 -22.5 53.5t-54.5 22.5q-31 0 -53 -22t-22 -54zM310 138q0 -31 22.5 -53t54.5 -22t54 22t22 53 q0 32 -22.5 54t-53.5 22q-32 0 -54.5 -22.5t-22.5 -53.5zM147 302q0 -32 22 -54t53 -22q32 0 54.5 22.5t22.5 53.5q0 32 -22.5 54.5t-54.5 22.5q-31 0 -53 -22.5t-22 -54.5zM769 138q0 -31 22.5 -53t54.5 -22t54.5 22t22.5 53t-22.5 53.5t-54.5 22.5t-54.5 -22.5 t-22.5 -53.5zM934 302q0 -31 22.5 -53.5t54.5 -22.5q31 0 52.5 22t21.5 54t-21.5 54.5t-52.5 22.5t-54 -22.5t-23 -54.5zM934 762q0 -32 23 -54.5t54 -22.5t52.5 22.5t21.5 54.5t-21.5 54t-52.5 22q-32 0 -54.5 -22.5t-22.5 -53.5zM769 926q0 -31 22.5 -53.5t54.5 -22.5 t54.5 22.5t22.5 53.5t-22.5 53t-54.5 22t-54.5 -22t-22.5 -53zM995 532q0 -31 22.5 -53.5t54.5 -22.5t54 22t22 54t-22.5 54.5t-53.5 22.5q-32 0 -54.5 -22.5t-22.5 -54.5zM540 77q0 -32 22.5 -54.5t53.5 -22.5q32 0 54.5 23t22.5 54t-22.5 53.5t-54.5 22.5t-54 -22.5 t-22 -53.5zM84 532q0 -31 22.5 -53.5t54.5 -22.5q31 0 53.5 22t22.5 54t-22.5 54.5t-53.5 22.5t-54 -22.5t-23 -54.5zM540 988q0 -32 22.5 -54.5t53.5 -22.5q32 0 54.5 22.5t22.5 54.5q0 31 -22.5 53.5t-54.5 22.5t-54 -22t-22 -54z" />
<glyph unicode="&#x25fc;" horiz-adv-x="1014" d="M0 1014h1014v-1014h-1014v1014z" />
<glyph unicode="&#x5713;" horiz-adv-x="1613" d="M96 934h63v170h34v64h-34v168h-63v-402zM224 1104h34v-170h65v402h-65v-168h-34v-64zM379 934h65v402h-65v-402zM469 1156l88 -222h65l-88 222l86 180h-65zM681 302q1 -35 21 -80t54.5 -88t89 -78.5t115.5 -49.5v-96h78v207q-4 0 -11.5 1.5t-29 7.5t-41.5 15t-46 27 t-46.5 40.5t-38 58t-24.5 78.5zM697 980q0 -67 16 -117.5t49.5 -86t73 -59.5t96.5 -47q25 -9 107 -29v138q-99 27 -156.5 71.5t-57.5 123.5q0 60 25 108.5t61.5 76t70 42t57.5 16.5v219h-78v-113q-46 -14 -89 -39.5t-84 -66t-66 -102t-25 -135.5zM1131 -90h79v96 q134 28 224.5 140t90.5 246q0 73 -19.5 128.5t-56 92t-76 59.5t-93.5 42q-49 18 -149 38v-134q44 -10 76.5 -20.5t70 -28.5t61.5 -40.5t40 -56.5t16 -76q0 -63 -29 -118t-71 -88.5t-86 -52.5t-78 -20v-207zM1131 1217q7 0 19 -2t44 -14t59.5 -31.5t56 -59t41.5 -92.5l121 40 q-6 38 -36 89.5t-91.5 105.5t-134.5 73v110h-79v-219z" />
<glyph horiz-adv-x="964" d="M295 0l32 128h280q76 0 123 51t47 131v191q0 142 -195 142h-236l-158 -643h-131l150 599q34 147 34 207q0 76 -40.5 112.5t-137.5 36.5v125q181 0 259 -112q78 115 235 115q205 0 291 -185l-111 -41q-10 20 -21 35t-31.5 34t-53 29t-74.5 10q-144 0 -182 -194h207 q41 0 67.5 -1.5t64 -8t62 -18.5t51.5 -35t43 -55.5t26.5 -81.5t10.5 -112v-153q0 -129 -65.5 -217.5t-186.5 -88.5h-360z" />
<glyph horiz-adv-x="964" d="M501 1185v383h129v-383h-129zM295 0l32 128h280q76 0 123 51t47 131v191q0 142 -195 142h-236l-158 -643h-131l150 599q34 147 34 207q0 76 -40.5 112.5t-137.5 36.5v125q181 0 259 -112q78 115 235 115q205 0 291 -185l-111 -41q-10 20 -21 35t-31.5 34t-53 29t-74.5 10 q-144 0 -182 -194h207q41 0 67.5 -1.5t64 -8t62 -18.5t51.5 -35t43 -55.5t26.5 -81.5t10.5 -112v-153q0 -129 -65.5 -217.5t-186.5 -88.5h-360z" />
<glyph horiz-adv-x="964" d="M71 -218q60 -50 157 -50q39 0 109.5 22t123.5 22q91 0 171 -36v-132q-77 44 -171 44q-53 0 -123.5 -22t-109.5 -22q-98 0 -157 49v125zM295 0l32 128h280q76 0 123 51t47 131v191q0 142 -195 142h-236l-158 -643h-131l150 599q34 147 34 207q0 76 -40.5 112.5 t-137.5 36.5v125q181 0 259 -112q78 115 235 115q205 0 291 -185l-111 -41q-10 20 -21 35t-31.5 34t-53 29t-74.5 10q-144 0 -182 -194h207q41 0 67.5 -1.5t64 -8t62 -18.5t51.5 -35t43 -55.5t26.5 -81.5t10.5 -112v-153q0 -98 -36 -170v-528h-132v405q-41 -13 -84 -13h-360 z" />
<glyph horiz-adv-x="964" d="M318 1137q-98 0 -154.5 63t-56.5 149q0 93 65.5 161.5t183.5 68.5h142q116 0 187 -63t71 -165v-157h-107v148q0 125 -169 130h-122q-72 0 -111.5 -37.5t-39.5 -87.5q0 -45 30.5 -78t78.5 -33q33 0 56 13t32 33.5t12 35t3 28.5h98q0 -31 -5 -58.5t-18.5 -56t-35 -48.5 t-57.5 -33t-83 -13zM295 0l32 128h280q76 0 123 51t47 131v191q0 142 -195 142h-236l-158 -643h-131l150 599q34 147 34 207q0 76 -40.5 112.5t-137.5 36.5v125q181 0 259 -112q78 115 235 115q205 0 291 -185l-111 -41q-10 20 -21 35t-31.5 34t-53 29t-74.5 10 q-144 0 -182 -194h207q41 0 67.5 -1.5t64 -8t62 -18.5t51.5 -35t43 -55.5t26.5 -81.5t10.5 -112v-153q0 -129 -65.5 -217.5t-186.5 -88.5h-360z" />
<glyph horiz-adv-x="964" d="M318 1125q-98 0 -154.5 63.5t-56.5 149.5q0 93 65.5 161.5t183.5 68.5h142q116 0 187 -63t71 -165v-157h-107v147q0 125 -169 130h-122q-72 0 -111.5 -37t-39.5 -87q0 -45 30.5 -78t78.5 -33q33 0 56 13t32 33t12 34.5t3 28.5h98q0 -31 -5 -58.5t-18.5 -56t-35 -48.5 t-57.5 -33t-83 -13zM65 -262h569v-130h-569v130zM295 0l32 128h280q76 0 123 51t47 131v191q0 142 -195 142h-236l-158 -643h-131l150 599q34 147 34 207q0 76 -40.5 112.5t-137.5 36.5v125q181 0 259 -112q78 115 235 115q205 0 291 -185l-111 -41q-10 20 -21 35t-31.5 34 t-53 29t-74.5 10q-144 0 -182 -194h207q41 0 67.5 -1.5t64 -8t62 -18.5t51.5 -35t43 -55.5t26.5 -81.5t10.5 -112v-153q0 -98 -36 -170v-528h-132v405q-41 -13 -84 -13h-360z" />
<glyph horiz-adv-x="964" d="M318 1125q-98 0 -154.5 63.5t-56.5 149.5q0 93 65.5 161.5t183.5 68.5h142q116 0 187 -63t71 -165v-157h-107v147q0 125 -169 130h-122q-72 0 -111.5 -37t-39.5 -87q0 -45 30.5 -78t78.5 -33q33 0 56 13t32 33t12 34.5t3 28.5h98q0 -31 -5 -58.5t-18.5 -56t-35 -48.5 t-57.5 -33t-83 -13zM71 -218q60 -50 157 -50q39 0 109.5 22t123.5 22q91 0 171 -36v-132q-77 44 -171 44q-53 0 -123.5 -22t-109.5 -22q-98 0 -157 49v125zM295 0l32 128h280q76 0 123 51t47 131v191q0 142 -195 142h-236l-158 -643h-131l150 599q34 147 34 207 q0 76 -40.5 112.5t-137.5 36.5v125q181 0 259 -112q78 115 235 115q205 0 291 -185l-111 -41q-10 20 -21 35t-31.5 34t-53 29t-74.5 10q-144 0 -182 -194h207q41 0 67.5 -1.5t64 -8t62 -18.5t51.5 -35t43 -55.5t26.5 -81.5t10.5 -112v-153q0 -98 -36 -170v-528h-132v405 q-41 -13 -84 -13h-360z" />
</font>
</defs>
</svg>
