<?xml version="1.0" standalone="no"?>
<!DOCTYPE svg PUBLIC "-//W3C//DTD SVG 1.1//EN" "http://www.w3.org/Graphics/SVG/1.1/DTD/svg11.dtd" >
<svg xmlns="http://www.w3.org/2000/svg" xmlns:xlink="http://www.w3.org/1999/xlink" version="1.1">
<metadata></metadata>
<defs>
<font id="stick_no_billsbold" horiz-adv-x="1309" >
<font-face units-per-em="2048" ascent="1638" descent="-410" />
<missing-glyph horiz-adv-x="445" />
<glyph unicode="fi" horiz-adv-x="945" d="M73 787v180h120v90q0 35 16 79.5t46.5 89t86.5 75t125 31.5h90l-42 -180h-50q-48 -4 -66 -33t-18 -62v-92h415v-965h-187v787h-228v-787h-188v787h-120zM586 1179q0 47 34 81t81 34t80.5 -34t33.5 -81q0 -46 -33.5 -79.5t-80.5 -33.5t-81 33.5t-34 79.5z" />
<glyph unicode="fl" horiz-adv-x="830" d="M73 787v180h120v90q0 35 16 79.5t46.5 89t86.5 75t125 31.5h339v-1332h-194v1152h-143q-23 -1 -40.5 -10.5t-26 -22.5t-14 -28t-6.5 -22.5t-1 -11.5v-92l124 2v-180h-124v-787h-188v787h-120z" />
<glyph unicode=" "  horiz-adv-x="445" />
<glyph unicode="&#x09;" horiz-adv-x="445" />
<glyph unicode="&#xa0;" horiz-adv-x="445" />
<glyph unicode="!" horiz-adv-x="405" d="M86 84q0 -49 34 -82t83 -33t83 33t34 82t-34 84t-83 35t-83 -35t-34 -84zM105 318h197v1022h-197v-1022z" />
<glyph unicode="&#x22;" horiz-adv-x="650" d="M80 890h196v519h-196v-519zM377 890h195v519h-195v-519z" />
<glyph unicode="#" horiz-adv-x="1439" d="M59 360h291l-57 -318h187l56 318h247l-56 -318h186l55 318l301 -2l29 186h-297l44 252l289 -2l31 186h-287l57 325h-188l-55 -325h-247l57 325h-187l-56 -323h-302l-33 -186h303l-44 -251h-285zM568 545l44 251h247l-44 -252z" />
<glyph unicode="$" horiz-adv-x="943" d="M50 302q2 -71 69.5 -160t169.5 -125v-107h113v281q-6 1 -15.5 4.5t-35 17t-46 31.5t-39 52t-23.5 75zM65 976q0 -136 60 -211t176 -126q43 -19 101 -36v230q-62 25 -97 59t-35 88q0 65 44 108t88 51v297h-113v-127q-41 -18 -78 -45t-71.5 -67t-54.5 -97.5t-20 -123.5z M501 -90h113v105q121 41 200.5 148t79.5 233q0 58 -14.5 106.5t-36.5 83t-56 65t-65.5 49.5t-72.5 39q-60 28 -148 53v-224q83 -28 130.5 -67.5t47.5 -108.5q0 -89 -59.5 -143t-118.5 -58v-281zM501 1139q5 -1 13 -3t29.5 -12t39 -24.5t35 -42.5t23.5 -64l199 65 q-6 33 -31.5 79t-78 98.5t-116.5 77.5v123h-113v-297z" />
<glyph unicode="%" horiz-adv-x="1018" d="M65 1106q0 -66 48 -113t115 -47q66 0 113.5 47t47.5 113q0 67 -47.5 114t-113.5 47q-68 0 -115.5 -47t-47.5 -114zM239 -38h195l334 1414h-194zM630 228q0 -66 46.5 -113.5t113.5 -47.5t114 47.5t47 113.5q0 68 -47 115t-114 47t-113.5 -47t-46.5 -115z" />
<glyph unicode="&#x26;" horiz-adv-x="1247" d="M611 262l137 -161q-117 -101 -271 -101q-170 0 -292 118t-122 290q0 90 38 169t108 137l141 -163q-74 -64 -74 -149q0 -82 60 -137.5t141 -55.5q75 0 134 53zM710 1020l192 50q-22 111 -103 189t-192 92v-201q47 -10 73 -50t30 -80zM501 1150v201q-130 -17 -215 -111 t-85 -222q0 -74 24.5 -130t84.5 -130l658 -750l217 57l-215 245q126 159 140 350h-216q-3 -49 -24.5 -99t-48.5 -81l-356 406q-22 25 -32 37.5t-22.5 40.5t-12.5 56q0 53 31 88t72 42z" />
<glyph unicode="'" horiz-adv-x="354" d="M80 890h196v519h-196v-519z" />
<glyph unicode="(" horiz-adv-x="421" d="M77 362v614q0 79 15 141t38.5 102t64.5 74t78.5 53.5t95.5 43.5l2 -131q-32 -19 -53 -37t-40.5 -47.5t-29 -73.5t-9.5 -104v-618q0 -70 10.5 -122.5t31 -86.5t41 -54t49.5 -38v-132q-75 33 -128 69.5t-85 73t-50.5 82t-24.5 89.5t-6 102z" />
<glyph unicode=")" horiz-adv-x="424" d="M50 -56q77 32 133.5 73t87.5 81t49 89.5t23 89t5 89.5v610q0 90 -18.5 156.5t-58 114.5t-91 81t-128.5 63l-2 -130q66 -38 101 -96.5t35 -167.5v-607q0 -76 -10.5 -131t-32.5 -89.5t-42 -53.5t-51 -39v-133z" />
<glyph unicode="*" horiz-adv-x="637" d="M44 1330l178 -118l-178 -119l67 -96l145 100v-182h119v184l149 -108l69 96l-178 123l180 120l-69 96l-151 -98v175h-119v-169l-143 92z" />
<glyph unicode="+" horiz-adv-x="803" d="M42 465h260v-298h194v298h264v193h-264v295h-194v-295h-260v-193z" />
<glyph unicode="," horiz-adv-x="445" d="M92 -44h193l71 291h-193z" />
<glyph unicode="-" horiz-adv-x="784" d="M90 465h605v193h-605v-193z" />
<glyph unicode="." horiz-adv-x="373" d="M63 115q0 -52 36.5 -88.5t86.5 -36.5q52 0 88 36.5t36 88.5t-36 88t-88 36q-50 0 -86.5 -36.5t-36.5 -87.5z" />
<glyph unicode="/" horiz-adv-x="708" d="M90 -38h195l333 1414h-193z" />
<glyph unicode="0" horiz-adv-x="958" d="M425 0q-35 0 -68 8t-70.5 28.5t-68.5 52t-60.5 84t-50 121t-32.5 165t-12 213.5q0 155 22 274.5t57 191.5t84 118.5t97 63.5t102 18v-203q-74 -12 -113.5 -128.5t-41.5 -294.5v-63q0 -196 41 -314t114 -132v-203zM534 0v203q78 17 117.5 132t39.5 314v63q0 174 -41 292.5 t-116 130.5v203q54 -1 102 -18t97 -63.5t84 -118.5t57 -191.5t22 -274.5q0 -117 -12 -213.5t-32.5 -165t-50 -121t-60.5 -84t-68.5 -52t-70.5 -28.5t-68 -8z" />
<glyph unicode="1" horiz-adv-x="465" d="M63 1045h125v-1045h214v1340h-214l-125 -100v-195z" />
<glyph unicode="2" horiz-adv-x="955" d="M63 997l186 -36q5 55 27 94.5t50.5 56.5t49.5 24t34 7v197q-93 -3 -172.5 -53t-125.5 -127.5t-49 -162.5zM103 0h774v209h-774v-209zM103 302h236q1 41 20.5 77.5t58 69t73 55t89.5 55t82 50.5q124 82 177 159t53 191q1 76 -20.5 142.5t-66 121t-120.5 86t-176 31.5v-197 q85 0 135.5 -49t50.5 -137q0 -27 -11.5 -53t-26 -45t-43 -43t-47 -37.5t-55 -37.5t-51.5 -35q-18 -12 -61.5 -39.5t-77.5 -49.5t-77.5 -58.5t-72.5 -71.5t-49 -84t-20 -101z" />
<glyph unicode="3" horiz-adv-x="964" d="M515 -2q56 0 110.5 14t105 44t88.5 73t60.5 106t22.5 138q0 202 -136 295q136 93 136 297q0 75 -22.5 138t-60.5 106t-88.5 73t-105 44t-110.5 14v-197q80 -3 133.5 -49t53.5 -133q0 -32 -5.5 -58t-23 -52t-45.5 -43.5t-76.5 -28.5t-113.5 -11v-198q81 0 135.5 -15.5 t81 -45t37 -61t10.5 -73.5q0 -87 -53 -132t-134 -48v-197zM63 341q5 -131 106 -235.5t241 -107.5v197q-13 0 -34 7t-49.5 24t-50.5 56.5t-27 94.5zM63 997l186 -36q13 156 161 182v197q-93 -3 -172.5 -53t-125.5 -127.5t-49 -162.5z" />
<glyph unicode="4" horiz-adv-x="945" d="M44 274h419v197h-199l199 337v381l-419 -718v-197zM567 0h212v274h103v197h-103v871h-212v-1342z" />
<glyph unicode="5" horiz-adv-x="995" d="M84 678l178 -106q25 41 70.5 67t100.5 29v188q-68 0 -138 -35l28 320l500 2v197h-683zM532 0q76 2 147 31t128 81.5t91 134.5t34 180q0 81 -24.5 155.5t-71.5 136t-125.5 99t-178.5 38.5v-188q76 -7 140.5 -70t64.5 -169q0 -99 -61.5 -163t-143.5 -75v-191zM63 299 q14 -119 123 -210t243 -91v199q-55 2 -110.5 40.5t-71.5 105.5z" />
<glyph unicode="6" horiz-adv-x="981" d="M452 -2q-70 1 -126.5 22t-96.5 56.5t-70 87.5t-48 108.5t-29 127.5t-15 136.5t-4 142.5q0 55 3 107t13.5 119.5t27 124.5t46.5 114.5t69.5 98t98.5 67t131 28.5v-197q-49 -9 -85 -41.5t-54.5 -72.5t-29 -97t-13 -98t-2.5 -93q31 38 81.5 56t102.5 18v-197 q-77 -9 -120 -69.5t-43 -140.5q0 -43 15 -86.5t54 -81t94 -43.5v-197zM557 -2v197q74 9 118.5 72.5t44.5 138.5q0 85 -46.5 142.5t-116.5 67.5v197q115 0 199 -55.5t124.5 -147t40.5 -206.5q0 -175 -107.5 -290.5t-256.5 -115.5zM710 1026q-18 52 -62 83.5t-93 31.5v197 q102 0 188.5 -56.5t129.5 -144.5z" />
<glyph unicode="7" horiz-adv-x="853" d="M827 1141v199h-764v-199h764zM316 0h214q8 248 80.5 523.5t199.5 517.5h-219q-117 -220 -192.5 -499.5t-82.5 -541.5z" />
<glyph unicode="8" horiz-adv-x="957" d="M423 -2v195q-73 8 -118 61.5t-45 135.5q0 78 46.5 125t116.5 55v196q-78 7 -118.5 59t-40.5 122q0 72 42 130t119 66v195q-89 0 -171.5 -50t-135.5 -140t-53 -195q0 -102 37.5 -175.5t94.5 -109.5q-60 -37 -97 -110.5t-37 -178.5q0 -104 52.5 -193t135 -138.5 t172.5 -49.5zM532 -2q91 0 174 49.5t135.5 138t52.5 193.5t-37 178.5t-97 110.5q56 37 94 110.5t38 174.5q0 105 -53.5 195t-136 140t-170.5 50v-195q77 -8 119 -66t42 -130q0 -70 -41 -122t-118 -59v-196q69 -8 116 -55t47 -125q0 -82 -45.5 -135.5t-119.5 -61.5v-195z" />
<glyph unicode="9" horiz-adv-x="981" d="M526 0v197q95 6 140.5 114.5t45.5 281.5l-17 -12q-17 -12 -23.5 -16t-26 -14t-34.5 -14.5t-38 -8.5t-47 -4v199q79 9 122 67t43 144q0 72 -43.5 135t-121.5 72v199q70 0 127 -20.5t97.5 -56t71 -88t48.5 -109.5t29.5 -129t15.5 -139t4 -145q0 -55 -2.5 -105.5t-12 -119 t-26 -125t-46 -115t-70 -98.5t-101 -65t-135.5 -25zM429 524q-174 0 -270 114.5t-96 293.5q0 175 108.5 291.5t257.5 116.5v-199q-78 -10 -121.5 -74t-43.5 -135q0 -84 44 -141.5t121 -67.5v-199zM105 207l163 109q21 -51 67 -84t94 -35v-197q-110 0 -193.5 57t-130.5 150z " />
<glyph unicode=":" horiz-adv-x="424" d="M96 201q0 -47 34 -81t82 -34q49 0 83 34t34 81q0 49 -34 84t-83 35q-48 0 -82 -35t-34 -84zM96 756q0 -48 34 -81.5t82 -33.5q49 0 83 34t34 81q0 49 -34 84t-83 35q-48 0 -82 -35t-34 -84z" />
<glyph unicode=";" horiz-adv-x="505" d="M96 -44h193l71 291h-193zM178 662q0 -49 34 -83t83 -34q47 0 81 34t34 83t-34 83t-81 34q-49 0 -83 -34t-34 -83z" />
<glyph unicode="&#x3c;" horiz-adv-x="803" d="M63 503l678 -352v195l-410 213l410 199v199l-678 -348v-106z" />
<glyph unicode="=" horiz-adv-x="800" d="M96 299h608v195h-608v-195zM96 622h608v195h-608v-195z" />
<glyph unicode="&#x3e;" horiz-adv-x="803" d="M63 151l678 352v106l-678 348v-199l410 -199l-410 -213v-195z" />
<glyph unicode="?" horiz-adv-x="891" d="M63 1169l126 -130q35 47 92 79t131 32q94 0 158 -58t64 -150q0 -137 -84 -187.5t-265 -53.5v-437h197v264q7 1 19.5 3t48.5 13t69 27t73 48.5t69 73.5t48.5 105.5t19.5 141.5q-6 186 -114.5 296t-291.5 110q-59 0 -111.5 -12t-88 -29t-69 -43t-52 -46t-39.5 -47zM266 75 q0 -49 34 -83t83 -34t83 34t34 83t-34 82.5t-83 33.5t-83 -33.5t-34 -82.5z" />
<glyph unicode="@" horiz-adv-x="1517" d="M44 591q0 -228 98.5 -396.5t268.5 -255t389 -86.5q160 0 310.5 52t244.5 133l-78 144q-227 -159 -490 -159q-117 0 -218 38.5t-176.5 110t-119 181t-43.5 242.5q0 163 86.5 297t228.5 207.5t307 73.5q103 0 201.5 -45t166.5 -135t68 -204q0 -81 -17 -145t-42 -102 t-57 -63t-59 -34t-51 -9q-29 0 -44 22.5t-13 50.5q3 38 15 81l92 356h-136l-15 -48q-21 23 -34.5 34.5t-53.5 26.5t-92 15q-45 0 -94.5 -16t-98 -50t-87 -81t-62.5 -116.5t-24 -149.5q0 -129 73.5 -219.5t175.5 -90.5q140 0 201 90q12 -35 56 -64.5t95 -29.5q60 0 119.5 16 t121 56t108.5 99.5t77 155.5t30 215q0 134 -55.5 243t-146 176t-199.5 103t-223 36q-173 0 -323.5 -59t-255.5 -160.5t-165 -241t-60 -295.5z" />
<glyph unicode="A" horiz-adv-x="955" d="M59 0h211l159 718l-88 406h-29zM413 191h245l43 -191h212l-308 1340h-211l207 -940h-144z" />
<glyph unicode="B" horiz-adv-x="947" d="M63 0v1340h213v-1340h-213zM375 0v188h59q118 0 177 61.5t59 144.5q0 78 -49.5 131t-145.5 53h-100v186h100q97 0 145 52t48 131t-56 142t-158 63h-79v188h105q82 0 150 -22t113.5 -59t77 -86t45.5 -102.5t14 -109.5q0 -90 -35.5 -168t-94.5 -121q62 -47 98 -122.5 t36 -168.5q0 -102 -44 -187t-137 -139.5t-221 -54.5h-107z" />
<glyph unicode="C" horiz-adv-x="957" d="M75 346v645q0 37 12.5 81.5t42 94t71.5 89.5t108 66.5t145 26.5v-212q-44 -1 -78.5 -18.5t-52.5 -43t-27 -47.5t-9 -37v-645q0 -15 9 -37t27 -47t52.5 -42t78.5 -17v-213q-79 0 -145.5 26t-108.5 66t-71 89t-41.5 93.5t-12.5 81.5zM551 -10v213q4 0 11.5 1.5t28 8 t37.5 16.5t35.5 29t27.5 44q10 29 10 69q1 2 1 27l207 -50q0 -148 -109.5 -253t-248.5 -105zM551 1137v212q88 0 171.5 -51.5t135 -135.5t51.5 -174l-208 -54v29q0 39 -10 65q-16 43 -51 70t-62 33z" />
<glyph unicode="D" horiz-adv-x="903" d="M78 0h215v1340h-215v-1340zM392 0q56 0 111 9t115.5 35t106 66.5t75 109.5t29.5 157v586q0 157 -118 267t-319 110v-213q105 -1 164.5 -45t59.5 -119v-586q-2 -165 -224 -165v-212z" />
<glyph unicode="E" horiz-adv-x="849" d="M78 0h697v212h-482v347h302v214h-302v356h482v211h-697v-1340z" />
<glyph unicode="F" horiz-adv-x="832" d="M78 2h215v557h302v214h-302v356h482v211h-697v-1338z" />
<glyph unicode="G" horiz-adv-x="974" d="M75 367v636q3 39 18 83t46 91.5t72.5 85t104.5 62t136 24.5v-212q-51 -1 -90.5 -28.5t-57 -63.5t-17.5 -73v-605q1 -36 15.5 -65.5t35 -47t44.5 -30t42 -17t28 -4.5v-213q-38 0 -85 12t-99 41.5t-94.5 71t-70.5 107.5t-28 145zM549 -10v213q37 0 89.5 48.5t52.5 112.5 v115h-142v197h358v-339q0 -75 -55.5 -156.5t-140 -135.5t-162.5 -55zM549 1137v212q89 0 172.5 -51.5t134.5 -135.5t51 -174l-210 -77v61q-4 79 -51.5 121t-96.5 44z" />
<glyph unicode="H" horiz-adv-x="935" d="M77 0h214v570h126v209h-126v561h-214v-1340zM519 570h126v-570h214v1340h-214v-561h-126v-209z" />
<glyph unicode="I" horiz-adv-x="375" d="M80 0h215v1340h-215v-1340z" />
<glyph unicode="J" horiz-adv-x="934" d="M31 369q0 -76 26.5 -141t67.5 -107.5t90.5 -73t94.5 -44t82 -13.5v215q-16 0 -38.5 9t-47.5 27t-42.5 53t-18.5 79v90h-214v-94zM490 -10q37 0 83.5 12.5t99 42t95 71.5t71 108t28.5 145v971h-212v-971q0 -42 -21 -76.5t-50.5 -52t-54.5 -26.5t-39 -9v-215z" />
<glyph unicode="K" horiz-adv-x="935" d="M78 0h215v1340h-215v-1340zM373 653l316 -653h214l-313 653l306 687h-217z" />
<glyph unicode="L" horiz-adv-x="830" d="M78 0h720v211h-505v1129h-215v-1340z" />
<glyph unicode="M" horiz-adv-x="1332" d="M80 0h215v434l-197 473h-18v-907zM80 1202l500 -1202h153l207 465v486h-19l-264 -597l-406 986h-171v-138zM1037 0h215v1340h-215v-1340z" />
<glyph unicode="N" horiz-adv-x="1012" d="M80 0h215v679l-199 320h-16v-999zM80 1202l749 -1202h103v258l-674 1082h-178v-138zM718 781l199 -320h15v879h-214v-559z" />
<glyph unicode="O" horiz-adv-x="1004" d="M75 373q0 -79 28 -145.5t70.5 -109t94.5 -72.5t98.5 -43t83.5 -13v215q-16 0 -41.5 10t-53.5 29t-48 53t-20 76v599q0 16 10 41.5t28.5 54t52 48.5t74.5 21v212q-72 0 -136 -25t-106.5 -63.5t-74 -86t-46 -91.5t-14.5 -80v-630zM555 -10q37 0 83.5 13t99 43t95 72.5 t71 109t28.5 145.5v630q0 35 -14.5 79t-46 91.5t-74.5 86.5t-106.5 64t-135.5 25v-212q41 -1 74.5 -20.5t51.5 -47.5t27.5 -53.5t9.5 -43.5v-599q-1 -42 -21 -76.5t-48 -53t-53 -28.5t-41 -10v-215z" />
<glyph unicode="P" horiz-adv-x="918" d="M80 0h215v1340h-215v-1340zM392 605q2 0 39.5 -0.5t68.5 -0.5t38 1q182 -2 266 85.5t84 285.5q0 177 -84.5 270t-265.5 94q-7 1 -38 1t-68.5 -0.5t-39.5 -0.5v-209h129q64 0 107.5 -36t43.5 -123q0 -47 -14 -80t-37.5 -49.5t-48 -23t-51.5 -6.5h-129v-208z" />
<glyph unicode="Q" horiz-adv-x="1008" d="M75 373q0 -79 28 -145.5t70.5 -109t94.5 -72.5t99 -43t85 -13v215q-11 0 -34.5 8t-54.5 24.5t-53.5 52.5t-22.5 83v599q0 18 10 44t28.5 54t52.5 47t76 20v212q-73 0 -137 -25t-107 -63.5t-74.5 -86t-46 -91.5t-14.5 -80v-630zM551 -10l140 -195l168 115l-105 155 q178 118 178 308v630q0 35 -14.5 79t-46.5 91.5t-75.5 86.5t-107.5 64t-137 25v-212q42 -1 76.5 -20t53 -47t28 -53.5t9.5 -44.5v-599q-1 -46 -24 -82t-54 -53t-54.5 -25t-34.5 -8v-215z" />
<glyph unicode="R" horiz-adv-x="968" d="M80 0h215v1340h-215v-1340zM392 565h111q100 1 141 -52t51 -172l28 -341h200l-33 415q-6 81 -41 150t-91 101q130 95 130 308q0 169 -100.5 265t-278.5 101h-117v-199h92q96 0 148.5 -50.5t52.5 -143.5q0 -89 -45.5 -140t-139.5 -51h-108v-191z" />
<glyph unicode="S" horiz-adv-x="932" d="M44 302q0 -32 16 -72.5t47.5 -81.5t73 -75.5t98.5 -56.5t117 -22v197q-6 1 -16 4.5t-36 17t-46 31.5t-38.5 52t-22.5 75zM59 976q0 -136 60 -211t176 -126q27 -13 83 -29t102 -31t93 -38t74 -61t27 -88q0 -89 -59.5 -143t-118.5 -58v-197q157 0 274.5 121.5t117.5 280.5 q0 58 -14.5 106.5t-36.5 83t-56 65t-65.5 49.5t-72.5 39q-33 16 -90.5 34t-103 33.5t-90.5 38t-70 56.5t-25 79q0 65 44 108t88 51v201q-33 -1 -74 -13t-88 -40.5t-85.5 -68.5t-64 -103.5t-25.5 -138.5zM496 1139q5 -1 13.5 -3t30.5 -12t39.5 -24.5t35 -42.5t22.5 -64 l198 65q-2 36 -26.5 82.5t-66 92t-107.5 76.5t-139 31v-201z" />
<glyph unicode="T" horiz-adv-x="891" d="M31 1131h308v-1131h214v1131h306v209h-828v-209z" />
<glyph unicode="U" horiz-adv-x="987" d="M65 369q0 -79 28.5 -145t71.5 -108t96 -71.5t99.5 -42t83.5 -12.5v215q-10 0 -28 5t-42 17.5t-44.5 30t-35 47t-15.5 64.5v971h-214v-971zM544 -10q38 0 84.5 12t98.5 41.5t95 71.5t71 108.5t28 145.5v971h-213v-971q0 -44 -21 -78.5t-50 -51.5t-53.5 -25.5t-39.5 -8.5 v-215z" />
<glyph unicode="V" horiz-adv-x="905" d="M17 1340l389 -1340h73l78 234l-323 1106h-217zM496 790l97 -333h19q25 85 79.5 258.5t119 375t79.5 249.5h-218z" />
<glyph unicode="W" horiz-adv-x="1515" d="M19 1340h218l322 -1101l-79 -239h-72zM494 800l151 540h216l312 -1105l-78 -235h-73l-270 961q-19 -68 -51 -180t-54 -190t-36 -124h-20zM1120 798l159 542h218l-261 -873h-19z" />
<glyph unicode="X" horiz-adv-x="863" d="M36 0h220l175 408l176 -408h218l-287 691l264 649h-207l-164 -373l-163 373h-209l266 -649z" />
<glyph unicode="Y" horiz-adv-x="882" d="M33 1340l281 -858v-482h220v484l-279 856h-222zM490 967l100 -345h15l245 718h-220z" />
<glyph unicode="Z" horiz-adv-x="826" d="M63 0h701v216h-465l465 919v205h-701v-211h465l-465 -918v-211z" />
<glyph unicode="[" horiz-adv-x="449" d="M96 -69h308v170h-111l6 1143h105v170h-308v-1483z" />
<glyph unicode="\" horiz-adv-x="687" d="M78 1370l334 -1414h197l-335 1414h-196z" />
<glyph unicode="]" horiz-adv-x="440" d="M46 -69h308v1483h-308v-170h105l6 -1143h-111v-170z" />
<glyph unicode="^" horiz-adv-x="924" d="M109 880h190l160 330l165 -330h191l-285 567h-136z" />
<glyph unicode="_" horiz-adv-x="987" d="M63 -226v-166h861v166h-861z" />
<glyph unicode="`" horiz-adv-x="556" d="M78 1449l127 -291h140l-71 291h-196z" />
<glyph unicode="a" horiz-adv-x="899" d="M56 247v94q0 60 20.5 105t80.5 78q33 19 148 52.5t201.5 68.5t86.5 71v40q0 54 -35 86.5t-89 32.5v187q77 0 140.5 -28.5t101.5 -73.5t58.5 -95t20.5 -97v-515q0 -11 3 -23t15.5 -25.5t33.5 -13.5v-191q-103 0 -168 65q-77 -65 -203 -65v189q57 0 89.5 30.5t32.5 84.5 v190q-49 -28 -185.5 -62.5t-154.5 -48.5q-23 -17 -23 -54v-40q0 -100 143 -100v-189q-141 0 -229 76t-88 171zM71 796q-1 109 93.5 187.5t208.5 78.5v-187q-55 0 -90.5 -39t-35.5 -107z" />
<glyph unicode="b" horiz-adv-x="870" d="M78 0h211v1361h-211v-1361zM385 0h115q75 0 137.5 31.5t99 78t56.5 94t20 85.5v486q-1 33 -14 71t-40 76t-63 68.5t-87 50t-108 19.5h-116v-197h116q49 -1 81 -33.5t32 -61.5v-475q0 -29 -33.5 -62.5t-80.5 -33.5h-115v-197z" />
<glyph unicode="c" horiz-adv-x="859" d="M73 289v484q1 41 21.5 88.5t58.5 93t104 75.5t147 30v-193q-61 0 -95.5 -31.5t-34.5 -66.5v-480q0 -39 35 -66.5t95 -27.5v-195q-69 0 -127 21t-95 53t-62.5 72t-36 76t-10.5 67zM490 865v195q125 0 213.5 -86.5t88.5 -207.5l-187 -71v53q-3 59 -35.5 88t-79.5 29z M490 -2v195q61 0 98 30t40 91v52l187 -71q1 -118 -100 -209t-225 -88z" />
<glyph unicode="d" horiz-adv-x="863" d="M57 289q0 -30 11.5 -66.5t37.5 -76t61.5 -72t89 -53.5t114.5 -21h108v197h-108q-47 0 -81 33t-34 63v471q0 30 31.5 62.5t79.5 32.5h112v199h-112q-70 0 -130.5 -29.5t-98 -74t-59 -92.5t-22.5 -89v-484zM574 0h211v1361h-211v-1361z" />
<glyph unicode="e" horiz-adv-x="909" d="M73 289q0 -39 22 -87.5t62 -94t106.5 -76.5t144.5 -31v188q-58 0 -94 33t-36 68v159h557v329q0 119 -105 201t-227 82v-189q55 0 96.5 -29.5t41.5 -83.5v-113h-363v115q0 36 37 72.5t89 36.5v191q-62 0 -116.5 -20t-92.5 -51.5t-66 -70t-41.5 -75.5t-14.5 -68v-486z M503 0q127 0 216.5 73.5t116.5 173.5l-170 61q-13 -49 -54.5 -84t-108.5 -35v-189z" />
<glyph unicode="f" horiz-adv-x="570" d="M36 771h131v-771h204v771h134v199h-134v94q0 21 6 41t28 39t58 20h52l46 197h-98q-60 -1 -111.5 -23t-84.5 -55.5t-56.5 -74t-33.5 -77.5t-10 -67v-94h-131v-199z" />
<glyph unicode="g" horiz-adv-x="859" d="M44 -358h431q74 1 137 33.5t100 79.5t57 94t20 82v1139h-198v-36q-60 36 -126 36v-190q51 0 88.5 -32.5t37.5 -68.5v-478q0 -39 -35.5 -70.5t-90.5 -31.5v-189q14 0 28.5 2.5t24.5 5t23 7t19 7.5t17.5 8t13.5 6v-115q0 -29 -34.5 -63.5t-95.5 -37.5h-369zM63 297 q0 -37 20 -83.5t57 -93t101 -78t142 -32.5v191q-59 0 -93 32t-34 66v482q0 29 35 64t92 35v190q-62 0 -116.5 -20.5t-90.5 -52t-62 -70.5t-38 -74.5t-13 -65.5v-490z" />
<glyph unicode="h" horiz-adv-x="890" d="M78 -10h194v745q0 33 42.5 72t98.5 39v189q-78 0 -143 -40v366h-192v-1371zM505 846q65 0 97 -37t32 -74v-745h193v764q0 113 -88 197t-234 84v-189z" />
<glyph unicode="i" horiz-adv-x="409" d="M92 1208q0 -46 33.5 -78.5t79.5 -32.5q47 0 81 32.5t34 78.5q0 47 -34 80t-81 33q-46 0 -79.5 -33t-33.5 -80zM105 0h205v1020h-205v-1020z" />
<glyph unicode="j" horiz-adv-x="424" d="M121 1020v-1097q0 -29 -30.5 -62.5t-79.5 -36.5h-45l-46 -195h93q60 0 113 21.5t88.5 54.5t61 73t37.5 77.5t12 67.5v1097h-204zM109 1208q0 -46 33.5 -78.5t79.5 -32.5t79.5 32.5t33.5 78.5q0 47 -33.5 80t-79.5 33t-79.5 -33t-33.5 -80z" />
<glyph unicode="k" horiz-adv-x="934" d="M78 0h211v1361h-211v-1361zM341 534l323 -534h232l-328 534l326 526h-234z" />
<glyph unicode="l" horiz-adv-x="378" d="M80 0h219v1361h-219v-1361z" />
<glyph unicode="m" horiz-adv-x="1424" d="M73 0h206v746q0 47 30 81t89 34v203q-79 0 -144.5 -30.5t-103 -76.5t-57.5 -94t-20 -90v-773zM486 861q59 0 91 -32.5t32 -82.5v-746h206v746q0 49 31.5 82t91.5 33v203q-77 0 -129.5 -22t-96.5 -66q-88 88 -226 88v-203zM1024 861q59 0 90 -31.5t31 -83.5v-746h206v773 q0 40 -20.5 88t-58.5 94.5t-103.5 77.5t-144.5 31v-203z" />
<glyph unicode="n" horiz-adv-x="911" d="M73 0h206v748q0 44 37 78.5t97 34.5v203q-80 0 -147.5 -30.5t-108 -76.5t-62.5 -94.5t-22 -89.5v-773zM498 861q64 0 99 -36.5t35 -76.5v-748h206v773q0 39 -22 87t-62.5 94.5t-108 78t-147.5 31.5v-203z" />
<glyph unicode="o" horiz-adv-x="891" d="M73 289q0 -39 21 -87t60.5 -94.5t107 -78t148.5 -31.5v197q-64 0 -100 37t-36 84v430q0 43 33.5 80t100.5 37v197q-80 0 -147 -30.5t-106 -75.5t-60.5 -93t-21.5 -88v-484zM494 -2q63 0 118 20.5t92 53t63.5 72t39 77t12.5 68.5v484q0 40 -21 88t-59.5 93t-103.5 75.5 t-143 30.5v-197q64 0 97 -34.5t33 -82.5v-434q0 -42 -32.5 -79.5t-95.5 -37.5v-197z" />
<glyph unicode="p" horiz-adv-x="899" d="M387 0h107q78 0 143.5 31t103 77t58 94t20.5 87v482q0 31 -12.5 68t-39.5 76t-64.5 71.5t-93.5 53t-121 20.5h-105v-197h105q63 0 96.5 -33.5t33.5 -61.5v-475q0 -31 -31.5 -63.5t-92.5 -32.5h-107v-197zM77 -371h212v1431h-212v-1431z" />
<glyph unicode="q" horiz-adv-x="890" d="M400 0h103v197h-103q-61 0 -92.5 32.5t-31.5 63.5v475q0 29 30.5 62t93.5 33h107v197h-107q-79 0 -144.5 -31t-103 -77.5t-57.5 -94t-20 -86.5v-482q0 -39 20.5 -87t58 -94t103 -77t143.5 -31zM599 -371h214v1431h-214v-1431z" />
<glyph unicode="r" horiz-adv-x="620" d="M80 0h207v586q0 67 36.5 131.5t97.5 105.5t126 42l48 201h-50q-84 0 -154 -43t-104 -95v132h-207v-1060z" />
<glyph unicode="s" horiz-adv-x="847" d="M38 279q0 -52 21 -102t60.5 -92.5t105.5 -68.5t148 -26v194q-54 0 -99.5 37.5t-45.5 92.5zM48 766q0 -60 15 -107t43 -78.5t57 -51.5t67 -37q36 -13 95.5 -28.5t104.5 -27.5t89.5 -29t68.5 -40t24 -53q0 -63 -51.5 -97.5t-104.5 -34.5v-192q151 0 252.5 90.5t101.5 242.5 q0 61 -20 110.5t-53 80.5t-69 49.5t-75 26.5q-208 48 -282 87t-74 89q0 44 34.5 78.5t95.5 34.5v189q-37 0 -78.5 -10.5t-85 -34.5t-77.5 -58t-56 -86t-22 -113zM454 879q17 0 39 -6.5t47.5 -20.5t43 -42.5t17.5 -66.5l189 32q0 70 -41.5 136.5t-120.5 111.5t-174 45v-189z " />
<glyph unicode="t" horiz-adv-x="579" d="M31 842h130v-497q0 -83 14.5 -143t49 -107t97.5 -71t155 -24h90l-46 209h-41q-65 0 -89.5 31t-24.5 85l-2 517h126v197h-126v322h-203v-322h-130v-197z" />
<glyph unicode="u" horiz-adv-x="911" d="M73 281q0 -42 22 -90.5t62 -94t107.5 -76t148.5 -30.5v203q-62 0 -98 34.5t-36 76.5v756h-206v-779zM498 -10q81 0 148.5 31t107.5 77.5t62 94.5t22 88v779h-206v-756q0 -42 -35.5 -76.5t-98.5 -34.5v-203z" />
<glyph unicode="v" horiz-adv-x="826" d="M15 1060l335 -1060h115l67 205l-289 855h-228zM452 666l105 -304h25l230 698h-228z" />
<glyph unicode="w" horiz-adv-x="1383" d="M15 1060h228l289 -855l-65 -205h-115zM452 668l126 392h228l289 -855l-65 -205h-115l-224 704l-109 -342h-25zM1016 668l125 392h228l-224 -698h-25z" />
<glyph unicode="x" horiz-adv-x="775" d="M15 0h209l165 318l162 -318h209l-255 538l249 522h-210l-155 -300l-159 300h-209l253 -522z" />
<glyph unicode="y" horiz-adv-x="800" d="M11 1060l270 -825l-189 -608h210l201 605l-273 828h-219zM446 702l90 -300h21l237 658h-216z" />
<glyph unicode="z" horiz-adv-x="721" d="M57 0h607v199h-369l369 666v195h-607v-199h377l-377 -662v-199z" />
<glyph unicode="{" horiz-adv-x="518" d="M29 666q9 -5 31.5 -16t30.5 -15.5t22.5 -14.5t19.5 -17.5t9.5 -20t4.5 -27.5v-218q0 -72 6 -129.5t20 -99t29.5 -72t41 -50t48 -31.5t57.5 -18t62 -8t69 -2v153q-54 0 -81 21.5t-41.5 90t-14.5 204.5v186q0 60 -77 84q77 18 77 67v165q0 62 0.5 97.5t2.5 77.5t5.5 63 t10.5 45t16.5 34.5t24.5 20.5t33.5 13t43.5 3v155q-46 0 -80.5 -3.5t-70.5 -14t-62 -29t-50 -49.5t-38.5 -74.5t-23 -104.5t-8.5 -139v-212q0 -11 -2 -20.5t-4 -16.5t-7.5 -14.5t-8.5 -12t-12 -10.5t-13 -9t-16 -8.5t-16 -7.5t-19 -8z" />
<glyph unicode="|" horiz-adv-x="354" d="M96 -256h162v1699h-162v-1699z" />
<glyph unicode="}" horiz-adv-x="518" d="M38 -73q45 0 77.5 3t69.5 12.5t62.5 27t50.5 48t40 73.5t24 105t9 141v218q0 15 4.5 27.5t10 20t20 17.5t22.5 14.5t30 15.5l32 16q-4 2 -21.5 9t-21.5 9t-17.5 8.5t-17 9.5t-13 10t-12.5 13t-8 15t-6.5 19t-1.5 22v212q0 90 -11 158.5t-33 113t-49.5 73.5t-68 44 t-79.5 20t-92 5v-155q25 0 43.5 -3t33.5 -13t24.5 -20t16.5 -35t10.5 -45t5.5 -63t3 -77.5t1 -97.5v-163q0 -25 20.5 -42.5t56.5 -26.5q-77 -24 -77 -84v-184q0 -135 -15 -204.5t-42.5 -91.5t-80.5 -22v-153z" />
<glyph unicode="~" horiz-adv-x="1202" d="M153 547q106 69 205 69q52 0 108.5 -21.5t99 -48t102.5 -48t119 -21.5q117 0 262 88v197q-141 -86 -251 -86q-56 0 -114.5 21.5t-100.5 48t-100 48t-114 21.5q-101 0 -216 -67v-201z" />
<glyph unicode="&#xa1;" horiz-adv-x="409" d="M40 944q0 -50 37.5 -86.5t87.5 -36.5q51 0 87.5 36.5t36.5 86.5q0 52 -36 88t-88 36q-51 0 -88 -36.5t-37 -87.5zM63 -322h205v1059h-205v-1059z" />
<glyph unicode="&#xa2;" horiz-adv-x="853" d="M488 56h2v137q52 0 92 30.5t44 88.5q0 1 1 27t1 27l187 -71q0 -98 -69.5 -177.5t-169.5 -107.5v-171h-88v217zM488 1219h88v-174q93 -27 154.5 -106t61.5 -177l-187 -69v55q-3 55 -37.5 84t-77.5 29v142h-2v216zM316 1219h86v-356q-61 0 -94.5 -35.5t-33.5 -79.5v-446 q0 -36 35 -71t93 -36v-356h-86v171q-63 13 -112.5 47t-76.5 76t-40.5 82t-13.5 74v480q1 35 16.5 76.5t44 82t76.5 74t106 47.5v170z" />
<glyph unicode="&#xa3;" horiz-adv-x="830" d="M38 570v167h111v268q0 70 19.5 131t58.5 109t103 76t147 28h3q71 0 132 -24q70 -28 116 -82.5t64 -118.5l-155 -77q-46 115 -149 115q-60 0 -98 -37.5t-38 -113.5v-272h270v-167h-272v-404h433v-168h-634v570h-111z" />
<glyph unicode="&#xa4;" horiz-adv-x="1209" d="M78 348l110 -124l143 126q88 -95 230 -95v181q-59 0 -93.5 34.5t-34.5 76.5v299q0 42 32.5 76.5t95.5 34.5v182q-141 0 -228 -90l-145 126l-111 -126l174 -155q-4 -16 -4 -42v-308q0 -31 4 -39zM639 255q137 0 220 93l142 -124l111 124l-174 157q6 12 6 39v310 q0 26 -6 38l176 157l-111 126l-144 -128q-89 92 -220 92v-182q58 0 90.5 -34.5t32.5 -76.5v-301q0 -41 -32 -76t-91 -35v-179z" />
<glyph unicode="&#xa5;" horiz-adv-x="861" d="M339 0v410h-306v99h298l-30 100h-268v99h237l-192 628h211l157 -486l151 486h211l-192 -628h226v-99h-256l-29 -100h285v-99h-295v-410h-208z" />
<glyph unicode="&#xa6;" horiz-adv-x="363" d="M80 -264h188v681h-188v-681zM80 775h188v682h-188v-682z" />
<glyph unicode="&#xa7;" horiz-adv-x="1154" d="M103 674q0 -68 19.5 -122t57 -94t75 -66.5t91.5 -54.5q35 -18 180 -65v222q-45 15 -77 28.5t-64.5 35.5t-49.5 52.5t-17 68.5q0 84 55 125q27 -20 84 -46q20 -9 69 -23v235q-105 53 -105 134q0 68 45 108.5t129 41.5h180v199h-207q-42 0 -86.5 -11t-92 -38t-84 -66 t-60 -102.5t-23.5 -140.5q0 -85 21 -138q-64 -48 -102 -120.5t-38 -162.5zM379 -59v-201h205q50 0 99 14t94 43t79.5 70t55 100.5t20.5 128.5q0 80 -19 136q65 51 101.5 125t36.5 160q0 58 -14.5 106.5t-36.5 82t-56.5 63.5t-65 49t-72.5 39q-18 9 -42.5 19t-43 16.5 t-49.5 16.5t-45 15v-222q47 -15 78 -28.5t64.5 -35.5t50.5 -54t17 -73q0 -75 -51 -122q-33 28 -90 47q-19 9 -69 25v-233q105 -50 105 -136q0 -72 -47.5 -112.5t-128.5 -38.5h-176z" />
<glyph unicode="&#xa8;" horiz-adv-x="731" d="M105 1298q0 -49 34 -83t83 -34q50 0 83.5 34t33.5 83t-33.5 83.5t-83.5 34.5q-49 0 -83 -34.5t-34 -83.5zM392 1298q0 -49 34 -83t83 -34q50 0 83.5 34t33.5 83t-33.5 83.5t-83.5 34.5q-49 0 -83 -34.5t-34 -83.5z" />
<glyph unicode="&#xa9;" horiz-adv-x="1544" d="M67 649q0 136 44.5 256t116 203.5t161.5 144.5t181.5 90t174.5 29v-139q-95 -1 -190.5 -43.5t-173.5 -116t-127 -185t-49 -239.5q0 -151 72.5 -282.5t197 -212t270.5 -85.5v-144q-101 2 -200 37t-184.5 99.5t-151.5 151t-104 199.5t-38 237zM503 452v394q0 26 8.5 56 t27.5 62.5t46 58.5t69 43t91 17v-139q-51 0 -76.5 -34.5t-25.5 -65.5v-392q0 -32 27 -65t75 -33v-140q-51 0 -94 17.5t-69.5 44t-45 59.5t-26 62.5t-7.5 54.5zM812 -75v144q142 5 266 84t197.5 209t73.5 277q0 126 -46.5 238.5t-122 189t-172 121t-196.5 45.5v139 q90 -1 184 -32t182 -94.5t157 -150t110.5 -207t41.5 -256.5q-3 -120 -42.5 -230.5t-106 -195t-151.5 -148t-181.5 -97.5t-193.5 -36zM812 214v138q36 0 62 31t26 76v35l137 -50q0 -88 -69.5 -159t-155.5 -71zM812 944v139q87 0 155 -70.5t68 -158.5l-135 -52v31 q0 50 -27.5 79.5t-60.5 31.5z" />
<glyph unicode="&#xaa;" horiz-adv-x="465" d="M36 660v102h385v-102h-385zM191 817q-71 0 -114.5 38.5t-43.5 86.5v46q0 66 49 92q17 10 74.5 26.5t101 33.5t43.5 35v21q0 26 -18 43t-44 17v93q74 0 117.5 -48t43.5 -99v-258q0 -31 25 -31v-96q-51 0 -84 33q-39 -33 -102 -33v96q29 0 45.5 15t16.5 42v94 q-25 -13 -93 -30.5t-78 -24.5q-11 -7 -11 -27v-19q0 -50 72 -50v-96zM128 1183l-88 32q-1 56 46 95t105 39v-93q-28 0 -45.5 -19.5t-17.5 -53.5z" />
<glyph unicode="&#xab;" horiz-adv-x="884" d="M42 507l404 -300v195l-207 157l207 143v200l-404 -299v-96zM446 507l404 -300v195l-207 157l207 143v200l-404 -299v-96z" />
<glyph unicode="&#xac;" horiz-adv-x="1012" d="M77 649h656v-251h184v429h-840v-178z" />
<glyph unicode="&#xad;" horiz-adv-x="719" d="M52 465h605v193h-605v-193z" />
<glyph unicode="&#xae;" horiz-adv-x="761" d="M362 982q39 0 56 -12.5t18 -48.5l8 -96h57l-5 117q-3 49 -39 71q39 23 39 78q0 56 -37 83.5t-97 27.5v-61h9q63 0 63 -52q0 -48 -57 -48h-15v-59zM364 685l-2 71q-96 5 -165.5 79t-70.5 174q0 109 73 182.5t168 75.5v69q-51 -1 -103.5 -22.5t-99 -60.5t-76 -103.5 t-29.5 -142.5q0 -128 92 -223.5t213 -98.5zM398 685q121 6 212.5 98t91.5 228q0 72 -28 134.5t-73 102.5t-98 63t-105 25v-69q93 -2 165 -75.5t72 -182.5q0 -101 -70.5 -174.5t-166.5 -78.5v-71zM268 825h65v375h-65v-375z" />
<glyph unicode="&#xaf;" horiz-adv-x="976" d="M63 1529v-166h861v166h-861z" />
<glyph unicode="&#xb0;" horiz-adv-x="524" d="M67 1116q0 -80 57.5 -137.5t137.5 -57.5t137.5 57.5t57.5 137.5t-57.5 137.5t-137.5 57.5t-137.5 -57.5t-57.5 -137.5zM189 1116q0 31 21.5 53t51.5 22q32 0 53.5 -21.5t21.5 -53.5q0 -30 -22 -51.5t-53 -21.5q-30 0 -51.5 21.5t-21.5 51.5z" />
<glyph unicode="&#xb1;" horiz-adv-x="821" d="M52 126h719v194h-719v-194zM63 773h260v-298h194v298h264v194h-264v294h-194v-294h-260v-194z" />
<glyph unicode="&#xb2;" horiz-adv-x="430" d="M23 1194l88 -17q1 23 10 39t21.5 23t21 10t14.5 3v94q-62 -1 -107.5 -47.5t-47.5 -104.5zM38 745h347v97h-347v-97zM38 884h113q0 21 14 41t28 30.5t46.5 30t43.5 27.5q59 39 85 75t26 89q0 72 -43.5 120.5t-128.5 48.5v-94q35 0 57 -21t22 -54q0 -7 -1.5 -14.5t-6 -14.5 t-8 -12.5t-11.5 -13t-12.5 -11.5t-15 -12t-15 -11l-16.5 -11t-16 -11q-8 -5 -34.5 -21.5t-44 -29.5t-39 -33.5t-32.5 -45t-11 -52.5z" />
<glyph unicode="&#xb3;" horiz-adv-x="440" d="M230 741q67 0 120.5 44t53.5 124q0 92 -59 132q59 40 59 132q0 80 -53.5 124.5t-120.5 44.5v-94q31 -2 55.5 -20.5t24.5 -56.5q0 -84 -115 -84v-94q115 0 115 -82q0 -37 -24.5 -55.5t-55.5 -20.5v-94zM31 892q2 -58 46.5 -104t106.5 -47v94q-9 0 -21 4t-27 22.5t-17 47.5 zM31 1191l88 -18q4 63 65 75v94q-62 -1 -106.5 -47t-46.5 -104z" />
<glyph unicode="&#xb4;" horiz-adv-x="708" d="M220 1158h140l126 291h-195z" />
<glyph unicode="&#xb5;" horiz-adv-x="957" d="M84 0v1336h192v-718q0 -27 34.5 -47t91.5 -20v-185q-51 0 -126 24v-390h-192zM482 366v185q58 0 93.5 20t35.5 47v722h189v-720q0 -65 80 -65v-186q-107 0 -181 64q-87 -67 -217 -67z" />
<glyph unicode="&#xb6;" horiz-adv-x="855" d="M67 990q0 148 90.5 253.5t232.5 105.5h131v-1359h-131v640q-149 0 -236 98t-87 262zM622 -10v1359h130v-1359h-130z" />
<glyph unicode="&#xb7;" horiz-adv-x="424" d="M111 674q0 -52 36.5 -88.5t86.5 -36.5q52 0 88 36.5t36 88.5t-36 88t-88 36q-50 0 -86.5 -36t-36.5 -88z" />
<glyph unicode="&#xb8;" horiz-adv-x="800" d="M235 -54q82 0 143.5 26t96 69t51 92t16.5 102h-148q0 -74 -45.5 -109.5t-113.5 -35.5v-144z" />
<glyph unicode="&#xb9;" horiz-adv-x="264" d="M19 1206h58v-469h101v601h-101l-58 -44v-88z" />
<glyph unicode="&#xba;" horiz-adv-x="440" d="M50 720h340v107h-340v-107zM52 1004q0 -41 41 -85.5t110 -44.5v88q-29 0 -45 16.5t-16 37.5v193q0 19 15 36t45 17v88q-68 0 -109 -43.5t-41 -85.5v-217zM240 874q67 0 106.5 44t39.5 86v217q0 42 -39.5 85.5t-106.5 43.5v-88q29 0 43.5 -15.5t14.5 -37.5v-194 q0 -19 -15 -36t-43 -17v-88z" />
<glyph unicode="&#xbb;" horiz-adv-x="874" d="M29 218l404 283v108l-404 281v-193l218 -138l-218 -153v-188zM433 218l403 283v108l-403 281v-193l218 -138l-218 -153v-188z" />
<glyph unicode="&#xbc;" horiz-adv-x="966" d="M727 0h127v117h51v111h-51v442h-127v-670zM101 1192h64v-522h126v670h-126l-64 -50v-98zM448 117h228v111h-92l92 164v230l-228 -394v-111zM0 0h132l817 1340h-122z" />
<glyph unicode="&#xbd;" horiz-adv-x="1098" d="M588 0h432v119h-432v-119zM0 0h132l817 1340h-122zM101 1192h64v-522h126v670h-126l-64 -50v-98zM582 482l113 -21q1 26 11 44.5t24.5 27t24 12t18.5 4.5v121q-74 -2 -132 -56.5t-59 -131.5zM588 167h149q-1 21 16.5 38.5t37 27.5t57 25.5t54.5 24.5q133 64 133 178 q0 94 -55.5 151.5t-156.5 57.5v-121q41 -2 64.5 -23.5t23.5 -64.5q0 -25 -22.5 -48t-40 -32t-68.5 -32l-12 -6q-87 -39 -119 -64q-60 -48 -61 -112z" />
<glyph unicode="&#xbe;" horiz-adv-x="1127" d="M308 668q74 0 133.5 52t59.5 137q0 101 -67 148q67 43 67 145q0 85 -59.5 137.5t-133.5 52.5v-121q36 -1 56.5 -23t20.5 -55q0 -28 -21 -54.5t-69 -26.5h-31v-111h31q48 0 69 -26.5t21 -55.5q0 -33 -20.5 -55t-56.5 -22v-122zM888 0h126v117h52v111h-52v442h-126v-670z M609 117h227v111h-91l91 164v230l-227 -394v-111zM63 856q3 -77 60.5 -131.5t132.5 -56.5v121q-10 1 -20 4.5t-24.5 12t-24.5 27t-11 44.5zM63 1150l113 -21q1 27 11 46t24.5 27.5t24.5 12t20 4.5v121q-75 -2 -132.5 -56.5t-60.5 -133.5zM161 0h132l819 1340h-124z" />
<glyph unicode="&#xbf;" horiz-adv-x="851" d="M806 153l-127 130q-35 -47 -91.5 -79t-130.5 -32q-94 0 -158 58.5t-64 150.5q0 137 84 187.5t265 53.5v436h-197v-264q-7 -1 -19.5 -3t-48.5 -13t-69 -27t-73 -48t-69 -73t-48.5 -105.5t-19.5 -141.5q6 -186 114.5 -296t291.5 -110q73 0 134 16t104 45.5t69 55t53 59.5z M603 1248q0 49 -34 83t-83 34t-83 -34t-34 -83t34 -83t83 -34t83 34t34 83z" />
<glyph unicode="&#xc0;" horiz-adv-x="955" d="M295 1757l126 -291h140l-71 291h-195zM59 0h211l159 718l-88 406h-29zM413 191h245l43 -191h212l-308 1340h-211l207 -940h-144z" />
<glyph unicode="&#xc1;" horiz-adv-x="955" d="M433 1466h139l127 291h-196zM59 0h211l159 718l-88 406h-29zM413 191h245l43 -191h212l-308 1340h-211l207 -940h-144z" />
<glyph unicode="&#xc2;" horiz-adv-x="955" d="M304 1466h130l67 140l69 -140h132l-147 291h-107zM59 0h211l159 718l-88 406h-29zM413 191h245l43 -191h212l-308 1340h-211l207 -940h-144z" />
<glyph unicode="&#xc3;" horiz-adv-x="955" d="M232 1476q68 42 126 42q45 0 122 -38.5t129 -38.5q72 0 160 54v159q-90 -54 -153 -54q-49 0 -125 39.5t-125 39.5q-59 0 -134 -43v-160zM59 0h211l159 718l-88 406h-29zM413 191h245l43 -191h212l-308 1340h-211l207 -940h-144z" />
<glyph unicode="&#xc4;" horiz-adv-x="955" d="M241 1583q0 -49 34 -83t83 -34q50 0 83.5 34t33.5 83t-33.5 84t-83.5 35q-49 0 -83 -35t-34 -84zM528 1583q0 -49 34 -83t83 -34q50 0 83.5 34t33.5 83t-33.5 84t-83.5 35q-49 0 -83 -35t-34 -84zM59 0h211l159 718l-88 406h-29zM413 191h245l43 -191h212l-308 1340h-211 l207 -940h-144z" />
<glyph unicode="&#xc5;" horiz-adv-x="987" d="M77 0h210l157 718l-86 406h-31zM429 191h231l44 -191h207l-289 1336q63 46 63 128q0 71 -50 121t-120 50q-72 0 -121 -50t-49 -121q0 -40 18.5 -74.5t48.5 -55.5l206 -934h-143zM450 1464q0 27 19 46t46 19t46 -19t19 -46t-19 -46t-46 -19t-46 19t-19 46z" />
<glyph unicode="&#xc6;" horiz-adv-x="1391" d="M80 0h236l281 1127h77v-637h-138l-46 -184h184v-306h668v212h-456v347h276v212h-276v356h456v213h-917z" />
<glyph unicode="&#xc7;" horiz-adv-x="957" d="M268 -366v144q68 0 113.5 35.5t45.5 109.5h147q0 -53 -16.5 -102t-50.5 -92t-95.5 -69t-143.5 -26zM75 346v645q0 37 12.5 81.5t42 94t71.5 89.5t108 66.5t145 26.5v-212q-44 -1 -78.5 -18.5t-52.5 -43t-27 -47.5t-9 -37v-645q0 -15 9 -37t27 -47t52.5 -42t78.5 -17v-213 q-79 0 -145.5 26t-108.5 66t-71 89t-41.5 93.5t-12.5 81.5zM551 -10v213q4 0 11.5 1.5t28 8t37.5 16.5t35.5 29t27.5 44q10 29 10 69q1 2 1 27l207 -50q0 -148 -109.5 -253t-248.5 -105zM551 1137v212q88 0 171.5 -51.5t135 -135.5t51.5 -174l-208 -54v29q0 39 -10 65 q-16 43 -51 70t-62 33z" />
<glyph unicode="&#xc8;" horiz-adv-x="849" d="M220 1757l126 -291h140l-71 291h-195zM78 0h697v212h-482v347h302v214h-302v356h482v211h-697v-1340z" />
<glyph unicode="&#xc9;" horiz-adv-x="849" d="M463 1466h140l126 291h-195zM78 0h697v212h-482v347h302v214h-302v356h482v211h-697v-1340z" />
<glyph unicode="&#xca;" horiz-adv-x="849" d="M230 1466h130l67 140l69 -140h132l-148 291h-107zM78 0h697v212h-482v347h302v214h-302v356h482v211h-697v-1340z" />
<glyph unicode="&#xcb;" horiz-adv-x="849" d="M168 1583q0 -49 34 -83t83 -34q50 0 83.5 34t33.5 83t-33.5 84t-83.5 35q-49 0 -83 -35t-34 -84zM456 1583q0 -49 33.5 -83t82.5 -34q50 0 83.5 34t33.5 83t-33.5 84t-83.5 35q-48 0 -82 -35t-34 -84zM78 0h697v212h-482v347h302v214h-302v356h482v211h-697v-1340z" />
<glyph unicode="&#xcc;" horiz-adv-x="375" d="M-10 1757l127 -291h139l-70 291h-196zM80 0h215v1340h-215v-1340z" />
<glyph unicode="&#xcd;" horiz-adv-x="375" d="M117 1466h139l127 291h-195zM80 0h215v1340h-215v-1340z" />
<glyph unicode="&#xce;" horiz-adv-x="375" d="M-11 1466h130l67 140l69 -140h132l-148 291h-107zM80 0h215v1340h-215v-1340z" />
<glyph unicode="&#xcf;" horiz-adv-x="375" d="M-73 1583q0 -49 34 -83t83 -34q50 0 83.5 34t33.5 83t-33.5 84t-83.5 35q-49 0 -83 -35t-34 -84zM214 1583q0 -49 34 -83t83 -34q50 0 83.5 34t33.5 83t-33.5 84t-83.5 35q-49 0 -83 -35t-34 -84zM80 0h215v1340h-215v-1340z" />
<glyph unicode="&#xd0;" horiz-adv-x="932" d="M50 582h109v-582h212v582h108v195h-108v563h-212v-563h-109v-195zM471 0q46 0 92 7t97 22t94 44t78.5 69t56 100.5t20.5 134.5v586q0 157 -118.5 267t-319.5 110v-213q105 -1 164.5 -45t59.5 -119v-586q-1 -53 -22.5 -88.5t-59 -51t-69.5 -20.5t-73 -5v-212z" />
<glyph unicode="&#xd1;" horiz-adv-x="1012" d="M237 1501q68 42 127 42q45 0 121.5 -38.5t128.5 -38.5q73 0 161 54v159q-90 -54 -153 -54q-49 0 -125.5 39t-125.5 39q-61 0 -134 -42v-160zM80 0h215v679l-199 320h-16v-999zM80 1202l749 -1202h103v258l-674 1082h-178v-138zM718 781l199 -320h15v879h-214v-559z" />
<glyph unicode="&#xd2;" horiz-adv-x="1004" d="M293 1757l126 -291h140l-71 291h-195zM75 373q0 -79 28 -145.5t70.5 -109t94.5 -72.5t98.5 -43t83.5 -13v215q-16 0 -41.5 10t-53.5 29t-48 53t-20 76v599q0 16 10 41.5t28.5 54t52 48.5t74.5 21v212q-72 0 -136 -25t-106.5 -63.5t-74 -86t-46 -91.5t-14.5 -80v-630z M555 -10q37 0 83.5 13t99 43t95 72.5t71 109t28.5 145.5v630q0 35 -14.5 79t-46 91.5t-74.5 86.5t-106.5 64t-135.5 25v-212q41 -1 74.5 -20.5t51.5 -47.5t27.5 -53.5t9.5 -43.5v-599q-1 -42 -21 -76.5t-48 -53t-53 -28.5t-41 -10v-215z" />
<glyph unicode="&#xd3;" horiz-adv-x="1004" d="M433 1466h139l127 291h-196zM75 373q0 -79 28 -145.5t70.5 -109t94.5 -72.5t98.5 -43t83.5 -13v215q-16 0 -41.5 10t-53.5 29t-48 53t-20 76v599q0 16 10 41.5t28.5 54t52 48.5t74.5 21v212q-72 0 -136 -25t-106.5 -63.5t-74 -86t-46 -91.5t-14.5 -80v-630zM555 -10 q37 0 83.5 13t99 43t95 72.5t71 109t28.5 145.5v630q0 35 -14.5 79t-46 91.5t-74.5 86.5t-106.5 64t-135.5 25v-212q41 -1 74.5 -20.5t51.5 -47.5t27.5 -53.5t9.5 -43.5v-599q-1 -42 -21 -76.5t-48 -53t-53 -28.5t-41 -10v-215z" />
<glyph unicode="&#xd4;" horiz-adv-x="1004" d="M302 1466h131l67 140l68 -140h133l-148 291h-107zM75 373q0 -79 28 -145.5t70.5 -109t94.5 -72.5t98.5 -43t83.5 -13v215q-16 0 -41.5 10t-53.5 29t-48 53t-20 76v599q0 16 10 41.5t28.5 54t52 48.5t74.5 21v212q-72 0 -136 -25t-106.5 -63.5t-74 -86t-46 -91.5 t-14.5 -80v-630zM555 -10q37 0 83.5 13t99 43t95 72.5t71 109t28.5 145.5v630q0 35 -14.5 79t-46 91.5t-74.5 86.5t-106.5 64t-135.5 25v-212q41 -1 74.5 -20.5t51.5 -47.5t27.5 -53.5t9.5 -43.5v-599q-1 -42 -21 -76.5t-48 -53t-53 -28.5t-41 -10v-215z" />
<glyph unicode="&#xd5;" horiz-adv-x="1004" d="M232 1483q68 42 126 42q45 0 122 -38t129 -38q72 0 160 54v158q-88 -53 -153 -53q-49 0 -125 39t-125 39q-61 0 -134 -42v-161zM75 373q0 -79 28 -145.5t70.5 -109t94.5 -72.5t98.5 -43t83.5 -13v215q-16 0 -41.5 10t-53.5 29t-48 53t-20 76v599q0 16 10 41.5t28.5 54 t52 48.5t74.5 21v212q-72 0 -136 -25t-106.5 -63.5t-74 -86t-46 -91.5t-14.5 -80v-630zM555 -10q37 0 83.5 13t99 43t95 72.5t71 109t28.5 145.5v630q0 35 -14.5 79t-46 91.5t-74.5 86.5t-106.5 64t-135.5 25v-212q41 -1 74.5 -20.5t51.5 -47.5t27.5 -53.5t9.5 -43.5v-599 q-1 -42 -21 -76.5t-48 -53t-53 -28.5t-41 -10v-215z" />
<glyph unicode="&#xd6;" horiz-adv-x="1004" d="M241 1583q0 -49 34 -83t83 -34q50 0 83.5 34t33.5 83t-33.5 84t-83.5 35q-49 0 -83 -35t-34 -84zM528 1583q0 -49 34 -83t83 -34q50 0 83.5 34t33.5 83t-33.5 84t-83.5 35q-49 0 -83 -35t-34 -84zM75 373q0 -79 28 -145.5t70.5 -109t94.5 -72.5t98.5 -43t83.5 -13v215 q-16 0 -41.5 10t-53.5 29t-48 53t-20 76v599q0 16 10 41.5t28.5 54t52 48.5t74.5 21v212q-72 0 -136 -25t-106.5 -63.5t-74 -86t-46 -91.5t-14.5 -80v-630zM555 -10q37 0 83.5 13t99 43t95 72.5t71 109t28.5 145.5v630q0 35 -14.5 79t-46 91.5t-74.5 86.5t-106.5 64 t-135.5 25v-212q41 -1 74.5 -20.5t51.5 -47.5t27.5 -53.5t9.5 -43.5v-599q-1 -42 -21 -76.5t-48 -53t-53 -28.5t-41 -10v-215z" />
<glyph unicode="&#xd7;" horiz-adv-x="1221" d="M337 339l320 321l321 -319l138 138l-322 321l322 320l-138 138l-321 -320l-322 321l-136 -137l322 -324l-322 -321z" />
<glyph unicode="&#xd8;" horiz-adv-x="1272" d="M13 234l121 -134l115 103q36 -70 101 -121t124.5 -71.5t107.5 -20.5v215q-39 0 -95.5 41t-63.5 112l427 387v-372q0 -42 -20 -76.5t-48 -53.5t-53.5 -28.5t-41.5 -9.5v-215q37 0 83.5 13t99 43t95 72.5t71 109t28.5 145.5v565l188 170l-119 134l-113 -101 q-46 88 -131 148t-202 60v-212q39 -1 70.5 -16.5t49.5 -39.5t28 -47.5t13 -47.5l-427 -385v364q0 32 15 69t54.5 69.5t93.5 33.5v212q-72 0 -136 -25t-106.5 -63.5t-74 -86t-46 -91.5t-14.5 -80v-595z" />
<glyph unicode="&#xd9;" horiz-adv-x="987" d="M281 1757l127 -291h139l-70 291h-196zM65 369q0 -79 28.5 -145t71.5 -108t96 -71.5t99.5 -42t83.5 -12.5v215q-10 0 -28 5t-42 17.5t-44.5 30t-35 47t-15.5 64.5v971h-214v-971zM544 -10q38 0 84.5 12t98.5 41.5t95 71.5t71 108.5t28 145.5v971h-213v-971 q0 -44 -21 -78.5t-50 -51.5t-53.5 -25.5t-39.5 -8.5v-215z" />
<glyph unicode="&#xda;" horiz-adv-x="987" d="M419 1466h140l126 291h-195zM65 369q0 -79 28.5 -145t71.5 -108t96 -71.5t99.5 -42t83.5 -12.5v215q-10 0 -28 5t-42 17.5t-44.5 30t-35 47t-15.5 64.5v971h-214v-971zM544 -10q38 0 84.5 12t98.5 41.5t95 71.5t71 108.5t28 145.5v971h-213v-971q0 -44 -21 -78.5 t-50 -51.5t-53.5 -25.5t-39.5 -8.5v-215z" />
<glyph unicode="&#xdb;" horiz-adv-x="987" d="M291 1466h130l67 140l69 -140h132l-147 291h-108zM65 369q0 -79 28.5 -145t71.5 -108t96 -71.5t99.5 -42t83.5 -12.5v215q-10 0 -28 5t-42 17.5t-44.5 30t-35 47t-15.5 64.5v971h-214v-971zM544 -10q38 0 84.5 12t98.5 41.5t95 71.5t71 108.5t28 145.5v971h-213v-971 q0 -44 -21 -78.5t-50 -51.5t-53.5 -25.5t-39.5 -8.5v-215z" />
<glyph unicode="&#xdc;" horiz-adv-x="987" d="M228 1583q0 -49 34 -83t83 -34q50 0 83 34t33 83t-33 84t-83 35q-49 0 -83 -35t-34 -84zM515 1583q0 -49 34 -83t83 -34q50 0 83 34t33 83t-33 84t-83 35q-49 0 -83 -35t-34 -84zM65 369q0 -79 28.5 -145t71.5 -108t96 -71.5t99.5 -42t83.5 -12.5v215q-10 0 -28 5 t-42 17.5t-44.5 30t-35 47t-15.5 64.5v971h-214v-971zM544 -10q38 0 84.5 12t98.5 41.5t95 71.5t71 108.5t28 145.5v971h-213v-971q0 -44 -21 -78.5t-50 -51.5t-53.5 -25.5t-39.5 -8.5v-215z" />
<glyph unicode="&#xdd;" horiz-adv-x="882" d="M362 1466h139l127 291h-195zM33 1340l281 -858v-482h220v484l-279 856h-222zM490 967l100 -345h15l245 718h-220z" />
<glyph unicode="&#xde;" horiz-adv-x="907" d="M78 0h213v1340h-213v-1340zM392 398q241 -5 353.5 79t111.5 291q-1 93 -23 157.5t-74 112.5t-143 70t-225 21v-210h69q180 0 180 -157q0 -153 -180 -153h-69v-211z" />
<glyph unicode="&#xdf;" horiz-adv-x="999" d="M50 0h197v953q0 213 184 213q95 0 133.5 -52.5t38.5 -154.5v-23q-82 -20 -139.5 -76t-57.5 -150q0 -55 14.5 -97t44.5 -72t56 -47t69 -38q20 -10 49 -23.5t44.5 -21t34.5 -19.5t28.5 -24.5t16 -31.5t6.5 -43q0 -63 -49 -93t-109 -32h-230v-168h245q138 0 230.5 81.5 t92.5 220.5q0 201 -201 270q-55 18 -90.5 36.5t-50 35.5t-19 28t-4.5 25q0 12 5 27t24 32t49 21l115 -2v216q0 29 -2 54.5t-9.5 63.5t-21 69t-39.5 64t-61.5 55.5t-89.5 37t-121 14.5q-79 0 -141 -17.5t-101.5 -44t-67.5 -68t-42 -78.5t-21 -87t-8.5 -81.5t-1.5 -73.5v-24 v-875z" />
<glyph unicode="&#xe0;" horiz-adv-x="899" d="M216 1472h196l70 -291h-139zM56 247v94q0 60 20.5 105t80.5 78q33 19 148 52.5t201.5 68.5t86.5 71v40q0 54 -35 86.5t-89 32.5v187q77 0 140.5 -28.5t101.5 -73.5t58.5 -95t20.5 -97v-515q0 -11 3 -23t15.5 -25.5t33.5 -13.5v-191q-103 0 -168 65q-77 -65 -203 -65v189 q57 0 89.5 30.5t32.5 84.5v190q-49 -28 -185.5 -62.5t-154.5 -48.5q-23 -17 -23 -54v-40q0 -100 143 -100v-189q-141 0 -229 76t-88 171zM71 796q-1 109 93.5 187.5t208.5 78.5v-187q-55 0 -90.5 -39t-35.5 -107z" />
<glyph unicode="&#xe1;" horiz-adv-x="899" d="M345 1181l70 291h196l-127 -291h-139zM56 247v94q0 60 20.5 105t80.5 78q33 19 148 52.5t201.5 68.5t86.5 71v40q0 54 -35 86.5t-89 32.5v187q77 0 140.5 -28.5t101.5 -73.5t58.5 -95t20.5 -97v-515q0 -11 3 -23t15.5 -25.5t33.5 -13.5v-191q-103 0 -168 65 q-77 -65 -203 -65v189q57 0 89.5 30.5t32.5 84.5v190q-49 -28 -185.5 -62.5t-154.5 -48.5q-23 -17 -23 -54v-40q0 -100 143 -100v-189q-141 0 -229 76t-88 171zM71 796q-1 109 93.5 187.5t208.5 78.5v-187q-55 0 -90.5 -39t-35.5 -107z" />
<glyph unicode="&#xe2;" horiz-adv-x="899" d="M214 1181l144 291h107l147 -291h-132l-68 140l-67 -140h-131zM56 247v94q0 60 20.5 105t80.5 78q33 19 148 52.5t201.5 68.5t86.5 71v40q0 54 -35 86.5t-89 32.5v187q77 0 140.5 -28.5t101.5 -73.5t58.5 -95t20.5 -97v-515q0 -11 3 -23t15.5 -25.5t33.5 -13.5v-191 q-103 0 -168 65q-77 -65 -203 -65v189q57 0 89.5 30.5t32.5 84.5v190q-49 -28 -185.5 -62.5t-154.5 -48.5q-23 -17 -23 -54v-40q0 -100 143 -100v-189q-141 0 -229 76t-88 171zM71 796q-1 109 93.5 187.5t208.5 78.5v-187q-55 0 -90.5 -39t-35.5 -107z" />
<glyph unicode="&#xe3;" horiz-adv-x="899" d="M149 1213v161q73 42 134 42q49 0 125.5 -39t125.5 -39q65 0 153 53v-158q-88 -54 -161 -54q-52 0 -128.5 38.5t-121.5 38.5q-58 0 -127 -43zM56 247v94q0 60 20.5 105t80.5 78q33 19 148 52.5t201.5 68.5t86.5 71v40q0 54 -35 86.5t-89 32.5v187q77 0 140.5 -28.5 t101.5 -73.5t58.5 -95t20.5 -97v-515q0 -11 3 -23t15.5 -25.5t33.5 -13.5v-191q-103 0 -168 65q-77 -65 -203 -65v189q57 0 89.5 30.5t32.5 84.5v190q-49 -28 -185.5 -62.5t-154.5 -48.5q-23 -17 -23 -54v-40q0 -100 143 -100v-189q-141 0 -229 76t-88 171zM71 796 q-1 109 93.5 187.5t208.5 78.5v-187q-55 0 -90.5 -39t-35.5 -107z" />
<glyph unicode="&#xe4;" horiz-adv-x="899" d="M153 1296q0 49 34 83.5t83 34.5q50 0 83.5 -34.5t33.5 -83.5t-33.5 -83t-83.5 -34q-49 0 -83 34t-34 83zM440 1296q0 49 34 83.5t83 34.5q50 0 83.5 -34.5t33.5 -83.5t-33.5 -83t-83.5 -34q-49 0 -83 34t-34 83zM56 247v94q0 60 20.5 105t80.5 78q33 19 148 52.5 t201.5 68.5t86.5 71v40q0 54 -35 86.5t-89 32.5v187q77 0 140.5 -28.5t101.5 -73.5t58.5 -95t20.5 -97v-515q0 -11 3 -23t15.5 -25.5t33.5 -13.5v-191q-103 0 -168 65q-77 -65 -203 -65v189q57 0 89.5 30.5t32.5 84.5v190q-49 -28 -185.5 -62.5t-154.5 -48.5 q-23 -17 -23 -54v-40q0 -100 143 -100v-189q-141 0 -229 76t-88 171zM71 796q-1 109 93.5 187.5t208.5 78.5v-187q-55 0 -90.5 -39t-35.5 -107z" />
<glyph unicode="&#xe5;" horiz-adv-x="899" d="M253 1365q0 69 49.5 118.5t118.5 49.5t119 -49.5t50 -118.5t-50 -119t-119 -50t-118.5 50t-49.5 119zM360 1365q0 -26 18 -44t43 -18t43 18t18 44q0 25 -18 43t-43 18t-43 -18t-18 -43zM56 247v94q0 60 20.5 105t80.5 78q33 19 148 52.5t201.5 68.5t86.5 71v40 q0 54 -35 86.5t-89 32.5v187q77 0 140.5 -28.5t101.5 -73.5t58.5 -95t20.5 -97v-515q0 -11 3 -23t15.5 -25.5t33.5 -13.5v-191q-103 0 -168 65q-77 -65 -203 -65v189q57 0 89.5 30.5t32.5 84.5v190q-49 -28 -185.5 -62.5t-154.5 -48.5q-23 -17 -23 -54v-40q0 -100 143 -100 v-189q-141 0 -229 76t-88 171zM71 796q-1 109 93.5 187.5t208.5 78.5v-187q-55 0 -90.5 -39t-35.5 -107z" />
<glyph unicode="&#xe6;" horiz-adv-x="1146" d="M50 216v115q0 56 37.5 99t93.5 67t121.5 46.5t121.5 38.5t93.5 40.5t37.5 55.5v42q0 44 -46.5 75.5t-108.5 31.5q-71 0 -122.5 -36.5t-51.5 -107.5l-149 42q0 116 94.5 192t222.5 76q168 0 255 -93q88 88 216 88v-178q-56 0 -93 -36t-37 -81v-94h354v94q0 51 -41.5 85 t-92.5 34v176q72 0 143.5 -35.5t119 -98t47.5 -131.5v-304h-530v-124q0 -57 51 -92.5t121 -35.5q176 0 205 120l155 -57q-28 -111 -122.5 -170.5t-233.5 -59.5q-180 0 -268 96q-64 -94 -207 -94v174q54 0 86.5 31.5t32.5 77.5v194q-27 -19 -89.5 -37t-116.5 -30.5 t-96.5 -38.5t-41.5 -63v-29q0 -58 35 -81.5t100 -23.5v-174q-134 0 -215 64t-81 150z" />
<glyph unicode="&#xe7;" horiz-adv-x="859" d="M216 -366v144q68 0 113.5 35.5t45.5 109.5h148q0 -53 -16.5 -102t-51 -92t-96 -69t-143.5 -26zM73 289v484q1 41 21.5 88.5t58.5 93t104 75.5t147 30v-193q-61 0 -95.5 -31.5t-34.5 -66.5v-480q0 -39 35 -66.5t95 -27.5v-195q-69 0 -127 21t-95 53t-62.5 72t-36 76 t-10.5 67zM490 865v195q125 0 213.5 -86.5t88.5 -207.5l-187 -71v53q-3 59 -35.5 88t-79.5 29zM490 -2v195q61 0 98 30t40 91v52l187 -71q1 -118 -100 -209t-225 -88z" />
<glyph unicode="&#xe8;" horiz-adv-x="909" d="M256 1466l127 -291h140l-71 291h-196zM73 289q0 -39 22 -87.5t62 -94t106.5 -76.5t144.5 -31v188q-58 0 -94 33t-36 68v159h557v329q0 119 -105 201t-227 82v-189q55 0 96.5 -29.5t41.5 -83.5v-113h-363v115q0 36 37 72.5t89 36.5v191q-62 0 -116.5 -20t-92.5 -51.5 t-66 -70t-41.5 -75.5t-14.5 -68v-486zM503 0q127 0 216.5 73.5t116.5 173.5l-170 61q-13 -49 -54.5 -84t-108.5 -35v-189z" />
<glyph unicode="&#xe9;" horiz-adv-x="909" d="M385 1175h139l127 291h-195zM73 289q0 -39 22 -87.5t62 -94t106.5 -76.5t144.5 -31v188q-58 0 -94 33t-36 68v159h557v329q0 119 -105 201t-227 82v-189q55 0 96.5 -29.5t41.5 -83.5v-113h-363v115q0 36 37 72.5t89 36.5v191q-62 0 -116.5 -20t-92.5 -51.5t-66 -70 t-41.5 -75.5t-14.5 -68v-486zM503 0q127 0 216.5 73.5t116.5 173.5l-170 61q-13 -49 -54.5 -84t-108.5 -35v-189z" />
<glyph unicode="&#xea;" horiz-adv-x="909" d="M255 1175h130l67 140l69 -140h132l-148 291h-107zM73 289q0 -39 22 -87.5t62 -94t106.5 -76.5t144.5 -31v188q-58 0 -94 33t-36 68v159h557v329q0 119 -105 201t-227 82v-189q55 0 96.5 -29.5t41.5 -83.5v-113h-363v115q0 36 37 72.5t89 36.5v191q-62 0 -116.5 -20 t-92.5 -51.5t-66 -70t-41.5 -75.5t-14.5 -68v-486zM503 0q127 0 216.5 73.5t116.5 173.5l-170 61q-13 -49 -54.5 -84t-108.5 -35v-189z" />
<glyph unicode="&#xeb;" horiz-adv-x="909" d="M193 1290q0 -49 34 -83t83 -34q50 0 83.5 34t33.5 83t-33.5 84t-83.5 35q-49 0 -83 -35t-34 -84zM480 1290q0 -49 34 -83t83 -34q50 0 83.5 34t33.5 83t-33.5 84t-83.5 35q-49 0 -83 -35t-34 -84zM73 289q0 -39 22 -87.5t62 -94t106.5 -76.5t144.5 -31v188q-58 0 -94 33 t-36 68v159h557v329q0 119 -105 201t-227 82v-189q55 0 96.5 -29.5t41.5 -83.5v-113h-363v115q0 36 37 72.5t89 36.5v191q-62 0 -116.5 -20t-92.5 -51.5t-66 -70t-41.5 -75.5t-14.5 -68v-486zM503 0q127 0 216.5 73.5t116.5 173.5l-170 61q-13 -49 -54.5 -84t-108.5 -35 v-189z" />
<glyph unicode="&#xec;" horiz-adv-x="333" d="M-31 1466l127 -291h139l-70 291h-196zM73 0h187v988h-187v-988z" />
<glyph unicode="&#xed;" horiz-adv-x="333" d="M98 1175h139l127 291h-196zM73 0h187v988h-187v-988z" />
<glyph unicode="&#xee;" horiz-adv-x="333" d="M-33 1175h131l67 140l69 -140h132l-148 291h-107zM73 0h187v988h-187v-988z" />
<glyph unicode="&#xef;" horiz-adv-x="333" d="M-94 1290q0 -49 34 -83t83 -34q50 0 83.5 34t33.5 83t-33.5 84t-83.5 35q-49 0 -83 -35t-34 -84zM193 1290q0 -49 34 -83t83 -34q50 0 83.5 34t33.5 83t-33.5 84t-83.5 35q-49 0 -83 -35t-34 -84zM73 0h187v988h-187v-988z" />
<glyph unicode="&#xf0;" horiz-adv-x="803" d="M54 270q0 -29 11.5 -63.5t37.5 -72t61 -67.5t88.5 -49.5t114.5 -19.5v182q-60 0 -94 35t-34 80v400q0 40 32 75.5t96 35.5v182q-75 0 -137.5 -28.5t-99 -71t-56.5 -87t-20 -81.5v-450zM367 1259q88 -36 127 -80l-98 -31l31 -97l113 32q20 -51 23 -126q-51 31 -117 31 v-182q59 0 90.5 -30.5t31.5 -74.5v-410q0 -40 -31 -75.5t-91 -35.5v-182q73 0 134 29t96.5 72t54.5 88t19 83v572q0 171 -55 289l73 23l-31 100l-102 -33q-97 116 -268 146v-108z" />
<glyph unicode="&#xf1;" horiz-adv-x="911" d="M186 1213q69 43 126 43q45 0 122 -38.5t129 -38.5q72 0 160 54v158q-88 -53 -153 -53q-49 0 -125 39t-125 39q-61 0 -134 -42v-161zM73 0h206v748q0 44 37 78.5t97 34.5v203q-80 0 -147.5 -30.5t-108 -76.5t-62.5 -94.5t-22 -89.5v-773zM498 861q64 0 99 -36.5t35 -76.5 v-748h206v773q0 39 -22 87t-62.5 94.5t-108 78t-147.5 31.5v-203z" />
<glyph unicode="&#xf2;" horiz-adv-x="891" d="M253 1466l126 -291h140l-71 291h-195zM73 289q0 -39 21 -87t60.5 -94.5t107 -78t148.5 -31.5v197q-64 0 -100 37t-36 84v430q0 43 33.5 80t100.5 37v197q-80 0 -147 -30.5t-106 -75.5t-60.5 -93t-21.5 -88v-484zM494 -2q63 0 118 20.5t92 53t63.5 72t39 77t12.5 68.5v484 q0 40 -21 88t-59.5 93t-103.5 75.5t-143 30.5v-197q64 0 97 -34.5t33 -82.5v-434q0 -42 -32.5 -79.5t-95.5 -37.5v-197z" />
<glyph unicode="&#xf3;" horiz-adv-x="891" d="M381 1175h140l126 291h-195zM73 289q0 -39 21 -87t60.5 -94.5t107 -78t148.5 -31.5v197q-64 0 -100 37t-36 84v430q0 43 33.5 80t100.5 37v197q-80 0 -147 -30.5t-106 -75.5t-60.5 -93t-21.5 -88v-484zM494 -2q63 0 118 20.5t92 53t63.5 72t39 77t12.5 68.5v484 q0 40 -21 88t-59.5 93t-103.5 75.5t-143 30.5v-197q64 0 97 -34.5t33 -82.5v-434q0 -42 -32.5 -79.5t-95.5 -37.5v-197z" />
<glyph unicode="&#xf4;" horiz-adv-x="891" d="M253 1175h130l67 140l69 -140h132l-148 291h-107zM73 289q0 -39 21 -87t60.5 -94.5t107 -78t148.5 -31.5v197q-64 0 -100 37t-36 84v430q0 43 33.5 80t100.5 37v197q-80 0 -147 -30.5t-106 -75.5t-60.5 -93t-21.5 -88v-484zM494 -2q63 0 118 20.5t92 53t63.5 72t39 77 t12.5 68.5v484q0 40 -21 88t-59.5 93t-103.5 75.5t-143 30.5v-197q64 0 97 -34.5t33 -82.5v-434q0 -42 -32.5 -79.5t-95.5 -37.5v-197z" />
<glyph unicode="&#xf5;" horiz-adv-x="891" d="M182 1208q68 42 126 42q45 0 122 -38.5t129 -38.5q73 0 161 54v159q-90 -54 -153 -54q-49 0 -125.5 39.5t-125.5 39.5q-61 0 -134 -42v-161zM73 289q0 -39 21 -87t60.5 -94.5t107 -78t148.5 -31.5v197q-64 0 -100 37t-36 84v430q0 43 33.5 80t100.5 37v197 q-80 0 -147 -30.5t-106 -75.5t-60.5 -93t-21.5 -88v-484zM494 -2q63 0 118 20.5t92 53t63.5 72t39 77t12.5 68.5v484q0 40 -21 88t-59.5 93t-103.5 75.5t-143 30.5v-197q64 0 97 -34.5t33 -82.5v-434q0 -42 -32.5 -79.5t-95.5 -37.5v-197z" />
<glyph unicode="&#xf6;" horiz-adv-x="891" d="M189 1290q0 -49 34 -83t83 -34q50 0 83.5 34t33.5 83t-33.5 84t-83.5 35q-49 0 -83 -35t-34 -84zM477 1290q0 -49 33.5 -83t82.5 -34q50 0 83.5 34t33.5 83t-33.5 84t-83.5 35q-48 0 -82 -35t-34 -84zM73 289q0 -39 21 -87t60.5 -94.5t107 -78t148.5 -31.5v197 q-64 0 -100 37t-36 84v430q0 43 33.5 80t100.5 37v197q-80 0 -147 -30.5t-106 -75.5t-60.5 -93t-21.5 -88v-484zM494 -2q63 0 118 20.5t92 53t63.5 72t39 77t12.5 68.5v484q0 40 -21 88t-59.5 93t-103.5 75.5t-143 30.5v-197q64 0 97 -34.5t33 -82.5v-434q0 -42 -32.5 -79.5 t-95.5 -37.5v-197z" />
<glyph unicode="&#xf7;" horiz-adv-x="1244" d="M147 461h862v194h-862v-194zM471 888q0 -52 36 -88t86 -36q52 0 88.5 36t36.5 88t-36.5 88.5t-88.5 36.5q-50 0 -86 -36.5t-36 -88.5zM471 276q0 -52 36 -88.5t86 -36.5q52 0 88.5 36.5t36.5 88.5t-36.5 88t-88.5 36q-50 0 -86 -36t-36 -88z" />
<glyph unicode="&#xf8;" horiz-adv-x="909" d="M8 149l88 -97l86 78q87 -132 260 -132v182q-49 0 -79.5 21t-40.5 57l321 295v-262q0 -40 -31 -75.5t-91 -35.5v-182q73 0 133.5 29t96 72t55 88.5t19.5 82.5v425q0 2 -1 12.5t-1 12.5l124 113l-88 97l-84 -76q-86 134 -254 134v-182q93 0 116 -79l-323 -298v266 q0 40 32 75.5t96 35.5v182q-75 0 -137.5 -28.5t-99.5 -71t-57 -87t-20 -81.5v-433q0 -23 2 -27z" />
<glyph unicode="&#xf9;" horiz-adv-x="911" d="M258 1466l127 -291h139l-70 291h-196zM73 281q0 -42 22 -90.5t62 -94t107.5 -76t148.5 -30.5v203q-62 0 -98 34.5t-36 76.5v756h-206v-779zM498 -10q81 0 148.5 31t107.5 77.5t62 94.5t22 88v779h-206v-756q0 -42 -35.5 -76.5t-98.5 -34.5v-203z" />
<glyph unicode="&#xfa;" horiz-adv-x="911" d="M475 1175h139l127 291h-196zM73 281q0 -42 22 -90.5t62 -94t107.5 -76t148.5 -30.5v203q-62 0 -98 34.5t-36 76.5v756h-206v-779zM498 -10q81 0 148.5 31t107.5 77.5t62 94.5t22 88v779h-206v-756q0 -42 -35.5 -76.5t-98.5 -34.5v-203z" />
<glyph unicode="&#xfb;" horiz-adv-x="911" d="M256 1175h131l67 140l69 -140h132l-148 291h-107zM73 281q0 -42 22 -90.5t62 -94t107.5 -76t148.5 -30.5v203q-62 0 -98 34.5t-36 76.5v756h-206v-779zM498 -10q81 0 148.5 31t107.5 77.5t62 94.5t22 88v779h-206v-756q0 -42 -35.5 -76.5t-98.5 -34.5v-203z" />
<glyph unicode="&#xfc;" horiz-adv-x="911" d="M195 1290q0 -49 34 -83t83 -34q50 0 83.5 34t33.5 83t-33.5 84t-83.5 35q-49 0 -83 -35t-34 -84zM482 1290q0 -49 34 -83t83 -34q50 0 83.5 34t33.5 83t-33.5 84t-83.5 35q-49 0 -83 -35t-34 -84zM73 281q0 -42 22 -90.5t62 -94t107.5 -76t148.5 -30.5v203 q-62 0 -98 34.5t-36 76.5v756h-206v-779zM498 -10q81 0 148.5 31t107.5 77.5t62 94.5t22 88v779h-206v-756q0 -42 -35.5 -76.5t-98.5 -34.5v-203z" />
<glyph unicode="&#xfd;" horiz-adv-x="800" d="M419 1185h140l126 291h-195zM11 1060l270 -825l-189 -608h210l201 605l-273 828h-219zM446 702l90 -300h21l237 658h-216z" />
<glyph unicode="&#xfe;" horiz-adv-x="807" d="M57 -348h192v1688h-192v-1688zM331 810h105q60 0 98 -28t38 -70v-431q0 -44 -31.5 -71t-92.5 -28h-103v-182h99q77 0 139.5 27t99 68.5t56 86t19.5 84.5v456q0 41 -22 87t-61.5 87t-102.5 68t-136 27h-105v-181z" />
<glyph unicode="&#xff;" horiz-adv-x="800" d="M140 1302q0 -49 33.5 -83t82.5 -34q50 0 83.5 34t33.5 83t-33.5 83.5t-83.5 34.5q-49 0 -82.5 -34.5t-33.5 -83.5zM427 1302q0 -49 34 -83t83 -34q50 0 83 34t33 83t-33 83.5t-83 34.5q-49 0 -83 -34.5t-34 -83.5zM11 1060l270 -825l-189 -608h210l201 605l-273 828h-219 zM446 702l90 -300h21l237 658h-216z" />
<glyph unicode="&#x100;" horiz-adv-x="955" d="M199 1466h605v126h-605v-126zM59 0h211l159 718l-88 406h-29zM413 191h245l43 -191h212l-308 1340h-211l207 -940h-144z" />
<glyph unicode="&#x101;" horiz-adv-x="899" d="M122 1181v126h605v-126h-605zM56 247v94q0 60 20.5 105t80.5 78q33 19 148 52.5t201.5 68.5t86.5 71v40q0 54 -35 86.5t-89 32.5v187q77 0 140.5 -28.5t101.5 -73.5t58.5 -95t20.5 -97v-515q0 -11 3 -23t15.5 -25.5t33.5 -13.5v-191q-103 0 -168 65q-77 -65 -203 -65v189 q57 0 89.5 30.5t32.5 84.5v190q-49 -28 -185.5 -62.5t-154.5 -48.5q-23 -17 -23 -54v-40q0 -100 143 -100v-189q-141 0 -229 76t-88 171zM71 796q-1 109 93.5 187.5t208.5 78.5v-187q-55 0 -90.5 -39t-35.5 -107z" />
<glyph unicode="&#x102;" horiz-adv-x="955" d="M335 1631q0 -65 48 -115t118 -50t118.5 50t48.5 115h-105q0 -25 -18.5 -43.5t-43.5 -18.5t-43 18t-18 44h-105zM59 0h211l159 718l-88 406h-29zM413 191h245l43 -191h212l-308 1340h-211l207 -940h-144z" />
<glyph unicode="&#x103;" horiz-adv-x="899" d="M247 1346h105q0 -26 18 -44t43 -18t43.5 18t18.5 44h105q0 -65 -48.5 -115t-118.5 -50t-118 50t-48 115zM56 247v94q0 60 20.5 105t80.5 78q33 19 148 52.5t201.5 68.5t86.5 71v40q0 54 -35 86.5t-89 32.5v187q77 0 140.5 -28.5t101.5 -73.5t58.5 -95t20.5 -97v-515 q0 -11 3 -23t15.5 -25.5t33.5 -13.5v-191q-103 0 -168 65q-77 -65 -203 -65v189q57 0 89.5 30.5t32.5 84.5v190q-49 -28 -185.5 -62.5t-154.5 -48.5q-23 -17 -23 -54v-40q0 -100 143 -100v-189q-141 0 -229 76t-88 171zM71 796q-1 109 93.5 187.5t208.5 78.5v-187 q-55 0 -90.5 -39t-35.5 -107z" />
<glyph unicode="&#x104;" horiz-adv-x="955" d="M1045 -366v144q-68 0 -113.5 35.5t-45.5 109.5h-147q0 -53 16.5 -102t50.5 -92t95.5 -69t143.5 -26zM59 0h211l159 718l-88 406h-29zM413 191h245l43 -191h212l-308 1340h-211l207 -940h-144z" />
<glyph unicode="&#x105;" horiz-adv-x="899" d="M917 -366q-82 0 -143.5 26t-95.5 69t-50.5 92t-16.5 102h147q0 -74 45.5 -109.5t113.5 -35.5v-144zM56 247v94q0 60 20.5 105t80.5 78q33 19 148 52.5t201.5 68.5t86.5 71v40q0 54 -35 86.5t-89 32.5v187q77 0 140.5 -28.5t101.5 -73.5t58.5 -95t20.5 -97v-515 q0 -11 3 -23t15.5 -25.5t33.5 -13.5v-191q-103 0 -168 65q-77 -65 -203 -65v189q57 0 89.5 30.5t32.5 84.5v190q-49 -28 -185.5 -62.5t-154.5 -48.5q-23 -17 -23 -54v-40q0 -100 143 -100v-189q-141 0 -229 76t-88 171zM71 796q-1 109 93.5 187.5t208.5 78.5v-187 q-55 0 -90.5 -39t-35.5 -107z" />
<glyph unicode="&#x106;" horiz-adv-x="957" d="M448 1466l71 291h195l-126 -291h-140zM75 346v645q0 37 12.5 81.5t42 94t71.5 89.5t108 66.5t145 26.5v-212q-44 -1 -78.5 -18.5t-52.5 -43t-27 -47.5t-9 -37v-645q0 -15 9 -37t27 -47t52.5 -42t78.5 -17v-213q-79 0 -145.5 26t-108.5 66t-71 89t-41.5 93.5t-12.5 81.5z M551 -10v213q4 0 11.5 1.5t28 8t37.5 16.5t35.5 29t27.5 44q10 29 10 69q1 2 1 27l207 -50q0 -148 -109.5 -253t-248.5 -105zM551 1137v212q88 0 171.5 -51.5t135 -135.5t51.5 -174l-208 -54v29q0 39 -10 65q-16 43 -51 70t-62 33z" />
<glyph unicode="&#x107;" horiz-adv-x="859" d="M375 1175l71 291h195l-126 -291h-140zM73 289v484q1 41 21.5 88.5t58.5 93t104 75.5t147 30v-193q-61 0 -95.5 -31.5t-34.5 -66.5v-480q0 -39 35 -66.5t95 -27.5v-195q-69 0 -127 21t-95 53t-62.5 72t-36 76t-10.5 67zM490 865v195q125 0 213.5 -86.5t88.5 -207.5 l-187 -71v53q-3 59 -35.5 88t-79.5 29zM490 -2v195q61 0 98 30t40 91v52l187 -71q1 -118 -100 -209t-225 -88z" />
<glyph unicode="&#x10c;" horiz-adv-x="957" d="M302 1757h131l67 -140l68 140h133l-148 -291h-107zM75 346v645q0 37 12.5 81.5t42 94t71.5 89.5t108 66.5t145 26.5v-212q-44 -1 -78.5 -18.5t-52.5 -43t-27 -47.5t-9 -37v-645q0 -15 9 -37t27 -47t52.5 -42t78.5 -17v-213q-79 0 -145.5 26t-108.5 66t-71 89t-41.5 93.5 t-12.5 81.5zM551 -10v213q4 0 11.5 1.5t28 8t37.5 16.5t35.5 29t27.5 44q10 29 10 69q1 2 1 27l207 -50q0 -148 -109.5 -253t-248.5 -105zM551 1137v212q88 0 171.5 -51.5t135 -135.5t51.5 -174l-208 -54v29q0 39 -10 65q-16 43 -51 70t-62 33z" />
<glyph unicode="&#x10d;" horiz-adv-x="859" d="M247 1466h130l67 -140l69 140h132l-147 -291h-108zM73 289v484q1 41 21.5 88.5t58.5 93t104 75.5t147 30v-193q-61 0 -95.5 -31.5t-34.5 -66.5v-480q0 -39 35 -66.5t95 -27.5v-195q-69 0 -127 21t-95 53t-62.5 72t-36 76t-10.5 67zM490 865v195q125 0 213.5 -86.5 t88.5 -207.5l-187 -71v53q-3 59 -35.5 88t-79.5 29zM490 -2v195q61 0 98 30t40 91v52l187 -71q1 -118 -100 -209t-225 -88z" />
<glyph unicode="&#x10e;" horiz-adv-x="903" d="M256 1757l144 -291h107l148 291h-132l-69 -140l-67 140h-131zM78 0h215v1340h-215v-1340zM392 0q56 0 111 9t115.5 35t106 66.5t75 109.5t29.5 157v586q0 157 -118 267t-319 110v-213q105 -1 164.5 -45t59.5 -119v-586q-2 -165 -224 -165v-212z" />
<glyph unicode="&#x10f;" horiz-adv-x="863" d="M951 1127h194l70 291h-193zM57 289q0 -30 11.5 -66.5t37.5 -76t61.5 -72t89 -53.5t114.5 -21h108v197h-108q-47 0 -81 33t-34 63v471q0 30 31.5 62.5t79.5 32.5h112v199h-112q-70 0 -130.5 -29.5t-98 -74t-59 -92.5t-22.5 -89v-484zM574 0h211v1361h-211v-1361z" />
<glyph unicode="&#x110;" horiz-adv-x="932" d="M50 582h109v-582h212v582h108v195h-108v563h-212v-563h-109v-195zM471 0q46 0 92 7t97 22t94 44t78.5 69t56 100.5t20.5 134.5v586q0 157 -118.5 267t-319.5 110v-213q105 -1 164.5 -45t59.5 -119v-586q-1 -53 -22.5 -88.5t-59 -51t-69.5 -20.5t-73 -5v-212z" />
<glyph unicode="&#x111;" horiz-adv-x="792" d="M56 270q0 -35 18.5 -79t52.5 -88t92.5 -73.5t128.5 -29.5h104v182h-104q-45 0 -78 31.5t-33 60.5v440q0 29 31 60t77 32h107v182h-107q-65 0 -121 -27.5t-91.5 -68.5t-55.5 -86t-21 -84v-452zM392 1101h150v-1101h193v1101h122v151h-122v109h-193v-109h-150v-151z" />
<glyph unicode="&#x112;" horiz-adv-x="849" d="M126 1466h605v126h-605v-126zM78 0h697v212h-482v347h302v214h-302v356h482v211h-697v-1340z" />
<glyph unicode="&#x113;" horiz-adv-x="909" d="M151 1175h605v127h-605v-127zM73 289q0 -39 22 -87.5t62 -94t106.5 -76.5t144.5 -31v188q-58 0 -94 33t-36 68v159h557v329q0 119 -105 201t-227 82v-189q55 0 96.5 -29.5t41.5 -83.5v-113h-363v115q0 36 37 72.5t89 36.5v191q-62 0 -116.5 -20t-92.5 -51.5t-66 -70 t-41.5 -75.5t-14.5 -68v-486zM503 0q127 0 216.5 73.5t116.5 173.5l-170 61q-13 -49 -54.5 -84t-108.5 -35v-189z" />
<glyph unicode="&#x116;" horiz-adv-x="849" d="M310 1585q0 -50 34.5 -84.5t84.5 -34.5t84 34.5t34 84.5t-34 85t-84 35t-84.5 -35t-34.5 -85zM78 0h697v212h-482v347h302v214h-302v356h482v211h-697v-1340z" />
<glyph unicode="&#x117;" horiz-adv-x="909" d="M335 1294q0 -50 34.5 -84.5t84.5 -34.5t84 34.5t34 84.5t-34 85t-84 35t-84.5 -35t-34.5 -85zM73 289q0 -39 22 -87.5t62 -94t106.5 -76.5t144.5 -31v188q-58 0 -94 33t-36 68v159h557v329q0 119 -105 201t-227 82v-189q55 0 96.5 -29.5t41.5 -83.5v-113h-363v115 q0 36 37 72.5t89 36.5v191q-62 0 -116.5 -20t-92.5 -51.5t-66 -70t-41.5 -75.5t-14.5 -68v-486zM503 0q127 0 216.5 73.5t116.5 173.5l-170 61q-13 -49 -54.5 -84t-108.5 -35v-189z" />
<glyph unicode="&#x118;" horiz-adv-x="849" d="M806 -366q-82 0 -143.5 26t-95.5 69t-50.5 92t-16.5 102h147q0 -74 45.5 -109.5t113.5 -35.5v-144zM78 0h697v212h-482v347h302v214h-302v356h482v211h-697v-1340z" />
<glyph unicode="&#x119;" horiz-adv-x="909" d="M693 -366q-82 0 -143.5 26t-95.5 69t-50.5 92t-16.5 102h147q0 -74 45.5 -109.5t113.5 -35.5v-144zM73 289q0 -39 22 -87.5t62 -94t106.5 -76.5t144.5 -31v188q-58 0 -94 33t-36 68v159h557v329q0 119 -105 201t-227 82v-189q55 0 96.5 -29.5t41.5 -83.5v-113h-363v115 q0 36 37 72.5t89 36.5v191q-62 0 -116.5 -20t-92.5 -51.5t-66 -70t-41.5 -75.5t-14.5 -68v-486zM503 0q127 0 216.5 73.5t116.5 173.5l-170 61q-13 -49 -54.5 -84t-108.5 -35v-189z" />
<glyph unicode="&#x11a;" horiz-adv-x="849" d="M230 1757l143 -291h107l148 291h-132l-69 -140l-67 140h-130zM78 0h697v212h-482v347h302v214h-302v356h482v211h-697v-1340z" />
<glyph unicode="&#x11b;" horiz-adv-x="909" d="M255 1466l143 -291h107l148 291h-132l-69 -140l-67 140h-130zM73 289q0 -39 22 -87.5t62 -94t106.5 -76.5t144.5 -31v188q-58 0 -94 33t-36 68v159h557v329q0 119 -105 201t-227 82v-189q55 0 96.5 -29.5t41.5 -83.5v-113h-363v115q0 36 37 72.5t89 36.5v191 q-62 0 -116.5 -20t-92.5 -51.5t-66 -70t-41.5 -75.5t-14.5 -68v-486zM503 0q127 0 216.5 73.5t116.5 173.5l-170 61q-13 -49 -54.5 -84t-108.5 -35v-189z" />
<glyph unicode="&#x11e;" horiz-adv-x="974" d="M333 1631h105q0 -25 18 -43.5t44 -18.5q25 0 43 18t18 44h105q0 -65 -48 -115t-118 -50t-118.5 50t-48.5 115zM75 367v636q3 39 18 83t46 91.5t72.5 85t104.5 62t136 24.5v-212q-51 -1 -90.5 -28.5t-57 -63.5t-17.5 -73v-605q1 -36 15.5 -65.5t35 -47t44.5 -30t42 -17 t28 -4.5v-213q-38 0 -85 12t-99 41.5t-94.5 71t-70.5 107.5t-28 145zM549 -10v213q37 0 89.5 48.5t52.5 112.5v115h-142v197h358v-339q0 -75 -55.5 -156.5t-140 -135.5t-162.5 -55zM549 1137v212q89 0 172.5 -51.5t134.5 -135.5t51 -174l-210 -77v61q-4 79 -51.5 121 t-96.5 44z" />
<glyph unicode="&#x11f;" horiz-adv-x="859" d="M251 1351q0 -65 48 -114.5t118 -49.5t118.5 49.5t48.5 114.5h-105q0 -25 -18 -43t-44 -18q-25 0 -43 18t-18 43h-105zM44 -358h431q74 1 137 33.5t100 79.5t57 94t20 82v1139h-198v-36q-60 36 -126 36v-190q51 0 88.5 -32.5t37.5 -68.5v-478q0 -39 -35.5 -70.5 t-90.5 -31.5v-189q14 0 28.5 2.5t24.5 5t23 7t19 7.5t17.5 8t13.5 6v-115q0 -29 -34.5 -63.5t-95.5 -37.5h-369zM63 297q0 -37 20 -83.5t57 -93t101 -78t142 -32.5v191q-59 0 -93 32t-34 66v482q0 29 35 64t92 35v190q-62 0 -116.5 -20.5t-90.5 -52t-62 -70.5t-38 -74.5 t-13 -65.5v-490z" />
<glyph unicode="&#x122;" horiz-adv-x="974" d="M354 -417l71 291h193l-71 -291h-193zM75 367v636q3 39 18 83t46 91.5t72.5 85t104.5 62t136 24.5v-212q-51 -1 -90.5 -28.5t-57 -63.5t-17.5 -73v-605q1 -36 15.5 -65.5t35 -47t44.5 -30t42 -17t28 -4.5v-213q-38 0 -85 12t-99 41.5t-94.5 71t-70.5 107.5t-28 145z M549 -10v213q37 0 89.5 48.5t52.5 112.5v115h-142v197h358v-339q0 -75 -55.5 -156.5t-140 -135.5t-162.5 -55zM549 1137v212q89 0 172.5 -51.5t134.5 -135.5t51 -174l-210 -77v61q-4 79 -51.5 121t-96.5 44z" />
<glyph unicode="&#x123;" horiz-adv-x="859" d="M440 1187h140l126 291h-195zM44 -358h431q74 1 137 33.5t100 79.5t57 94t20 82v1139h-198v-36q-60 36 -126 36v-190q51 0 88.5 -32.5t37.5 -68.5v-478q0 -39 -35.5 -70.5t-90.5 -31.5v-189q14 0 28.5 2.5t24.5 5t23 7t19 7.5t17.5 8t13.5 6v-115q0 -29 -34.5 -63.5 t-95.5 -37.5h-369zM63 297q0 -37 20 -83.5t57 -93t101 -78t142 -32.5v191q-59 0 -93 32t-34 66v482q0 29 35 64t92 35v190q-62 0 -116.5 -20.5t-90.5 -52t-62 -70.5t-38 -74.5t-13 -65.5v-490z" />
<glyph unicode="&#x12a;" horiz-adv-x="375" d="M-115 1466h605v126h-605v-126zM80 0h215v1340h-215v-1340z" />
<glyph unicode="&#x12b;" horiz-adv-x="333" d="M-136 1175h605v127h-605v-127zM73 0h187v988h-187v-988z" />
<glyph unicode="&#x12e;" horiz-adv-x="375" d="M421 -362v144q-68 0 -113.5 35.5t-45.5 109.5h-147q0 -53 16.5 -102t50.5 -92t95.5 -69t143.5 -26zM80 0h215v1340h-215v-1340z" />
<glyph unicode="&#x12f;" horiz-adv-x="409" d="M440 -364v144q-68 0 -113.5 35.5t-45.5 109.5h-147q0 -53 16.5 -102t50.5 -92t95.5 -69t143.5 -26zM92 1208q0 -46 33.5 -78.5t79.5 -32.5q47 0 81 32.5t34 78.5q0 47 -34 80t-81 33q-46 0 -79.5 -33t-33.5 -80zM105 0h205v1020h-205v-1020z" />
<glyph unicode="&#x130;" horiz-adv-x="375" d="M69 1585q0 -50 34.5 -84.5t84.5 -34.5t84 34.5t34 84.5t-34 85t-84 35t-84.5 -35t-34.5 -85zM80 0h215v1340h-215v-1340z" />
<glyph unicode="&#x131;" horiz-adv-x="333" d="M73 0h187v988h-187v-988z" />
<glyph unicode="&#x136;" horiz-adv-x="935" d="M329 -408h194l70 291h-193zM78 0h215v1340h-215v-1340zM373 653l316 -653h214l-313 653l306 687h-217z" />
<glyph unicode="&#x137;" horiz-adv-x="934" d="M325 -408h194l71 291h-194zM78 0h211v1361h-211v-1361zM341 534l323 -534h232l-328 534l326 526h-234z" />
<glyph unicode="&#x139;" horiz-adv-x="830" d="M117 1466h139l127 291h-195zM78 0h720v211h-505v1129h-215v-1340z" />
<glyph unicode="&#x13a;" horiz-adv-x="378" d="M119 1535h139l127 291h-196zM80 0h219v1361h-219v-1361z" />
<glyph unicode="&#x13b;" horiz-adv-x="830" d="M302 -408h194l71 291h-194zM78 0h720v211h-505v1129h-215v-1340z" />
<glyph unicode="&#x13c;" horiz-adv-x="378" d="M40 -419h194l70 291h-193zM101 0h219v1361h-219v-1361z" />
<glyph unicode="&#x13d;" horiz-adv-x="830" d="M452 1058h193l71 291h-193zM78 0h720v211h-505v1129h-215v-1340z" />
<glyph unicode="&#x13e;" horiz-adv-x="622" d="M367 1127h194l71 291h-194zM65 0h218v1361h-218v-1361z" />
<glyph unicode="&#x141;" horiz-adv-x="957" d="M63 561l113 -144l71 56v-473h720v211h-506v428l255 197l-111 146l-144 -113v471h-214v-638z" />
<glyph unicode="&#x142;" horiz-adv-x="811" d="M322 -11v528l-96 -75l-113 144l209 162v599h218v-428l84 65l113 -144l-197 -153v-698h-218z" />
<glyph unicode="&#x143;" horiz-adv-x="1012" d="M436 1466h140l126 291h-195zM80 0h215v679l-199 320h-16v-999zM80 1202l749 -1202h103v258l-674 1082h-178v-138zM718 781l199 -320h15v879h-214v-559z" />
<glyph unicode="&#x144;" horiz-adv-x="911" d="M387 1181h139l127 291h-196zM73 0h206v748q0 44 37 78.5t97 34.5v203q-80 0 -147.5 -30.5t-108 -76.5t-62.5 -94.5t-22 -89.5v-773zM498 861q64 0 99 -36.5t35 -76.5v-748h206v773q0 39 -22 87t-62.5 94.5t-108 78t-147.5 31.5v-203z" />
<glyph unicode="&#x145;" horiz-adv-x="1012" d="M367 -408h194l71 291h-194zM80 0h215v679l-199 320h-16v-999zM80 1202l749 -1202h103v258l-674 1082h-178v-138zM718 781l199 -320h15v879h-214v-559z" />
<glyph unicode="&#x146;" horiz-adv-x="911" d="M318 -408h193l71 291h-193zM73 0h206v748q0 44 37 78.5t97 34.5v203q-80 0 -147.5 -30.5t-108 -76.5t-62.5 -94.5t-22 -89.5v-773zM498 861q64 0 99 -36.5t35 -76.5v-748h206v773q0 39 -22 87t-62.5 94.5t-108 78t-147.5 31.5v-203z" />
<glyph unicode="&#x147;" horiz-adv-x="1012" d="M308 1757l144 -291h107l147 291h-132l-69 -140l-67 140h-130zM80 0h215v679l-199 320h-16v-999zM80 1202l749 -1202h103v258l-674 1082h-178v-138zM718 781l199 -320h15v879h-214v-559z" />
<glyph unicode="&#x148;" horiz-adv-x="911" d="M256 1472l144 -291h107l148 291h-132l-69 -140l-67 140h-131zM73 0h206v748q0 44 37 78.5t97 34.5v203q-80 0 -147.5 -30.5t-108 -76.5t-62.5 -94.5t-22 -89.5v-773zM498 861q64 0 99 -36.5t35 -76.5v-748h206v773q0 39 -22 87t-62.5 94.5t-108 78t-147.5 31.5v-203z" />
<glyph unicode="&#x14c;" horiz-adv-x="1004" d="M199 1466h605v126h-605v-126zM75 373q0 -79 28 -145.5t70.5 -109t94.5 -72.5t98.5 -43t83.5 -13v215q-16 0 -41.5 10t-53.5 29t-48 53t-20 76v599q0 16 10 41.5t28.5 54t52 48.5t74.5 21v212q-72 0 -136 -25t-106.5 -63.5t-74 -86t-46 -91.5t-14.5 -80v-630zM555 -10 q37 0 83.5 13t99 43t95 72.5t71 109t28.5 145.5v630q0 35 -14.5 79t-46 91.5t-74.5 86.5t-106.5 64t-135.5 25v-212q41 -1 74.5 -20.5t51.5 -47.5t27.5 -53.5t9.5 -43.5v-599q-1 -42 -21 -76.5t-48 -53t-53 -28.5t-41 -10v-215z" />
<glyph unicode="&#x14d;" horiz-adv-x="891" d="M149 1175h605v127h-605v-127zM73 289q0 -39 21 -87t60.5 -94.5t107 -78t148.5 -31.5v197q-64 0 -100 37t-36 84v430q0 43 33.5 80t100.5 37v197q-80 0 -147 -30.5t-106 -75.5t-60.5 -93t-21.5 -88v-484zM494 -2q63 0 118 20.5t92 53t63.5 72t39 77t12.5 68.5v484 q0 40 -21 88t-59.5 93t-103.5 75.5t-143 30.5v-197q64 0 97 -34.5t33 -82.5v-434q0 -42 -32.5 -79.5t-95.5 -37.5v-197z" />
<glyph unicode="&#x150;" horiz-adv-x="1004" d="M582 1466h140l126 291h-195zM316 1466h140l126 291h-195zM75 373q0 -79 28 -145.5t70.5 -109t94.5 -72.5t98.5 -43t83.5 -13v215q-16 0 -41.5 10t-53.5 29t-48 53t-20 76v599q0 16 10 41.5t28.5 54t52 48.5t74.5 21v212q-72 0 -136 -25t-106.5 -63.5t-74 -86t-46 -91.5 t-14.5 -80v-630zM555 -10q37 0 83.5 13t99 43t95 72.5t71 109t28.5 145.5v630q0 35 -14.5 79t-46 91.5t-74.5 86.5t-106.5 64t-135.5 25v-212q41 -1 74.5 -20.5t51.5 -47.5t27.5 -53.5t9.5 -43.5v-599q-1 -42 -21 -76.5t-48 -53t-53 -28.5t-41 -10v-215z" />
<glyph unicode="&#x151;" horiz-adv-x="891" d="M530 1175h140l126 291h-195zM264 1175h140l126 291h-195zM73 289q0 -39 21 -87t60.5 -94.5t107 -78t148.5 -31.5v197q-64 0 -100 37t-36 84v430q0 43 33.5 80t100.5 37v197q-80 0 -147 -30.5t-106 -75.5t-60.5 -93t-21.5 -88v-484zM494 -2q63 0 118 20.5t92 53t63.5 72 t39 77t12.5 68.5v484q0 40 -21 88t-59.5 93t-103.5 75.5t-143 30.5v-197q64 0 97 -34.5t33 -82.5v-434q0 -42 -32.5 -79.5t-95.5 -37.5v-197z" />
<glyph unicode="&#x152;" horiz-adv-x="1217" d="M21 381q0 -87 28 -156t71.5 -110t101.5 -68t112.5 -37t109.5 -10v214q-210 0 -210 167v582q0 76 55 119.5t157 44.5v213q-193 0 -309 -102.5t-116 -253.5v-603zM545 0h791v212h-482v347h302v214h-302v356h482v211h-791v-213h94v-913h-94v-214z" />
<glyph unicode="&#x153;" horiz-adv-x="1332" d="M662 90q-85 -92 -218 -92v176q60 0 93 35.5t33 79.5v404q0 48 -32.5 80.5t-93.5 32.5v182q132 0 216 -88q84 88 215 88v-178q-56 0 -92 -36t-38 -81v-94h354v94q0 51 -41 85t-91 34v176q111 0 209.5 -80.5t98.5 -184.5v-304h-530v-124q0 -56 51.5 -92t120.5 -36 q176 0 205 120l155 -57q-28 -112 -122 -171t-234 -59q-158 0 -259 90zM52 270v450q0 28 11.5 62t37.5 70.5t61.5 66.5t89 49.5t114.5 19.5v-182q-64 0 -96.5 -33t-32.5 -78v-402q0 -46 35 -82.5t94 -36.5v-176q-62 0 -115.5 20t-89 51t-61 68t-37 71.5t-11.5 61.5z" />
<glyph unicode="&#x154;" horiz-adv-x="968" d="M364 1466h139l127 291h-196zM80 0h215v1340h-215v-1340zM392 565h111q100 1 141 -52t51 -172l28 -341h200l-33 415q-6 81 -41 150t-91 101q130 95 130 308q0 169 -100.5 265t-278.5 101h-117v-199h92q96 0 148.5 -50.5t52.5 -143.5q0 -89 -45.5 -140t-139.5 -51h-108 v-191z" />
<glyph unicode="&#x155;" horiz-adv-x="620" d="M301 1175h139l127 291h-196zM80 0h207v586q0 67 36.5 131.5t97.5 105.5t126 42l48 201h-50q-84 0 -154 -43t-104 -95v132h-207v-1060z" />
<glyph unicode="&#x156;" horiz-adv-x="968" d="M360 -408h193l71 291h-193zM80 0h215v1340h-215v-1340zM392 565h111q100 1 141 -52t51 -172l28 -341h200l-33 415q-6 81 -41 150t-91 101q130 95 130 308q0 169 -100.5 265t-278.5 101h-117v-199h92q96 0 148.5 -50.5t52.5 -143.5q0 -89 -45.5 -140t-139.5 -51h-108v-191 z" />
<glyph unicode="&#x157;" horiz-adv-x="620" d="M15 -408h194l70 291h-193zM80 0h207v586q0 67 36.5 131.5t97.5 105.5t126 42l48 201h-50q-84 0 -154 -43t-104 -95v132h-207v-1060z" />
<glyph unicode="&#x158;" horiz-adv-x="968" d="M211 1757l143 -291h107l148 291h-132l-69 -140l-67 140h-130zM80 0h215v1340h-215v-1340zM392 565h111q100 1 141 -52t51 -172l28 -341h200l-33 415q-6 81 -41 150t-91 101q130 95 130 308q0 169 -100.5 265t-278.5 101h-117v-199h92q96 0 148.5 -50.5t52.5 -143.5 q0 -89 -45.5 -140t-139.5 -51h-108v-191z" />
<glyph unicode="&#x159;" horiz-adv-x="620" d="M140 1466l143 -291h107l148 291h-132l-69 -140l-67 140h-130zM80 0h207v586q0 67 36.5 131.5t97.5 105.5t126 42l48 201h-50q-84 0 -154 -43t-104 -95v132h-207v-1060z" />
<glyph unicode="&#x15a;" horiz-adv-x="932" d="M371 1466h140l126 291h-195zM44 302q0 -32 16 -72.5t47.5 -81.5t73 -75.5t98.5 -56.5t117 -22v197q-6 1 -16 4.5t-36 17t-46 31.5t-38.5 52t-22.5 75zM59 976q0 -136 60 -211t176 -126q27 -13 83 -29t102 -31t93 -38t74 -61t27 -88q0 -89 -59.5 -143t-118.5 -58v-197 q157 0 274.5 121.5t117.5 280.5q0 58 -14.5 106.5t-36.5 83t-56 65t-65.5 49.5t-72.5 39q-33 16 -90.5 34t-103 33.5t-90.5 38t-70 56.5t-25 79q0 65 44 108t88 51v201q-33 -1 -74 -13t-88 -40.5t-85.5 -68.5t-64 -103.5t-25.5 -138.5zM496 1139q5 -1 13.5 -3t30.5 -12 t39.5 -24.5t35 -42.5t22.5 -64l198 65q-2 36 -26.5 82.5t-66 92t-107.5 76.5t-139 31v-201z" />
<glyph unicode="&#x15b;" horiz-adv-x="847" d="M343 1177h139l127 291h-196zM38 279q0 -52 21 -102t60.5 -92.5t105.5 -68.5t148 -26v194q-54 0 -99.5 37.5t-45.5 92.5zM48 766q0 -60 15 -107t43 -78.5t57 -51.5t67 -37q36 -13 95.5 -28.5t104.5 -27.5t89.5 -29t68.5 -40t24 -53q0 -63 -51.5 -97.5t-104.5 -34.5v-192 q151 0 252.5 90.5t101.5 242.5q0 61 -20 110.5t-53 80.5t-69 49.5t-75 26.5q-208 48 -282 87t-74 89q0 44 34.5 78.5t95.5 34.5v189q-37 0 -78.5 -10.5t-85 -34.5t-77.5 -58t-56 -86t-22 -113zM454 879q17 0 39 -6.5t47.5 -20.5t43 -42.5t17.5 -66.5l189 32 q0 70 -41.5 136.5t-120.5 111.5t-174 45v-189z" />
<glyph unicode="&#x15e;" horiz-adv-x="932" d="M214 -366q82 0 143.5 26t96 69t51 92t16.5 102h-148q0 -74 -45.5 -109.5t-113.5 -35.5v-144zM44 302q0 -32 16 -72.5t47.5 -81.5t73 -75.5t98.5 -56.5t117 -22v197q-6 1 -16 4.5t-36 17t-46 31.5t-38.5 52t-22.5 75zM59 976q0 -136 60 -211t176 -126q27 -13 83 -29 t102 -31t93 -38t74 -61t27 -88q0 -89 -59.5 -143t-118.5 -58v-197q157 0 274.5 121.5t117.5 280.5q0 58 -14.5 106.5t-36.5 83t-56 65t-65.5 49.5t-72.5 39q-33 16 -90.5 34t-103 33.5t-90.5 38t-70 56.5t-25 79q0 65 44 108t88 51v201q-33 -1 -74 -13t-88 -40.5 t-85.5 -68.5t-64 -103.5t-25.5 -138.5zM496 1139q5 -1 13.5 -3t30.5 -12t39.5 -24.5t35 -42.5t22.5 -64l198 65q-2 36 -26.5 82.5t-66 92t-107.5 76.5t-139 31v-201z" />
<glyph unicode="&#x15f;" horiz-adv-x="847" d="M239 -366q82 0 143.5 26t95.5 69t50.5 92t16.5 102h-147q0 -74 -45.5 -109.5t-113.5 -35.5v-144zM38 279q0 -52 21 -102t60.5 -92.5t105.5 -68.5t148 -26v194q-54 0 -99.5 37.5t-45.5 92.5zM48 766q0 -60 15 -107t43 -78.5t57 -51.5t67 -37q36 -13 95.5 -28.5 t104.5 -27.5t89.5 -29t68.5 -40t24 -53q0 -63 -51.5 -97.5t-104.5 -34.5v-192q151 0 252.5 90.5t101.5 242.5q0 61 -20 110.5t-53 80.5t-69 49.5t-75 26.5q-208 48 -282 87t-74 89q0 44 34.5 78.5t95.5 34.5v189q-37 0 -78.5 -10.5t-85 -34.5t-77.5 -58t-56 -86t-22 -113z M454 879q17 0 39 -6.5t47.5 -20.5t43 -42.5t17.5 -66.5l189 32q0 70 -41.5 136.5t-120.5 111.5t-174 45v-189z" />
<glyph unicode="&#x160;" horiz-adv-x="932" d="M226 1757l143 -291h108l147 291h-132l-69 -140l-67 140h-130zM31 302q0 -32 16 -72.5t47.5 -81.5t73 -75.5t98.5 -56.5t117 -22v197q-6 1 -16 4.5t-36 17t-46 31.5t-38.5 52t-22.5 75zM46 976q0 -136 59.5 -211t175.5 -126q27 -13 83 -29t102 -31t93 -38t74 -61t27 -88 q0 -89 -59.5 -143t-118.5 -58v-197q157 0 275 121.5t118 280.5q0 58 -14.5 106.5t-36.5 83t-56 65t-65.5 49.5t-72.5 39q-33 16 -90.5 34t-103 33.5t-90.5 38t-70 56.5t-25 79q0 65 44 108t88 51v201q-33 -1 -74 -13t-88 -40.5t-85.5 -68.5t-64 -103.5t-25.5 -138.5z M482 1139q5 -1 13.5 -3t30.5 -12t40 -24.5t35.5 -42.5t22.5 -64l197 65q-2 36 -26.5 82.5t-66 92t-107.5 76.5t-139 31v-201z" />
<glyph unicode="&#x161;" horiz-adv-x="847" d="M214 1468l144 -291h107l147 291h-132l-68 -140l-67 140h-131zM40 279q0 -52 21 -102t60.5 -92.5t105.5 -68.5t148 -26v194q-54 0 -99.5 37.5t-45.5 92.5zM50 766q0 -60 15 -107t43 -78.5t57 -51.5t67 -37q36 -13 95.5 -28.5t104.5 -27.5t89.5 -29t68.5 -40t24 -53 q0 -63 -52 -97.5t-105 -34.5v-192q151 0 253 90.5t102 242.5q0 61 -20 110.5t-53 80.5t-69 49.5t-75 26.5q-208 48 -282 87t-74 89q0 44 34.5 78.5t95.5 34.5v189q-37 0 -78.5 -10.5t-85 -34.5t-77.5 -58t-56 -86t-22 -113zM456 879q17 0 39 -6.5t47.5 -20.5t43 -42.5 t17.5 -66.5l189 32q0 70 -41.5 136.5t-120.5 111.5t-174 45v-189z" />
<glyph unicode="&#x162;" horiz-adv-x="891" d="M211 -366q82 0 143.5 26t95.5 69t50.5 92t16.5 102h-148q0 -74 -45 -109.5t-113 -35.5v-144zM31 1131h308v-1131h214v1131h306v209h-828v-209z" />
<glyph unicode="&#x163;" horiz-adv-x="579" d="M258 -364q82 0 143.5 26t96 69t51 92t16.5 102h-148q0 -74 -45.5 -109.5t-113.5 -35.5v-144zM31 842h130v-497q0 -83 14.5 -143t49 -107t97.5 -71t155 -24h90l-46 209h-41q-65 0 -89.5 31t-24.5 85l-2 517h126v197h-126v322h-203v-322h-130v-197z" />
<glyph unicode="&#x164;" horiz-adv-x="891" d="M245 1757l144 -291h107l147 291h-132l-69 -140l-67 140h-130zM31 1131h308v-1131h214v1131h306v209h-828v-209z" />
<glyph unicode="&#x165;" horiz-adv-x="876" d="M450 1131h193l71 291h-193zM31 842h130v-497q0 -83 14.5 -143t49 -107t97.5 -71t155 -24h90l-46 209h-41q-65 0 -89.5 31t-24.5 85l-2 517h126v197h-126v322h-203v-322h-130v-197z" />
<glyph unicode="&#x16a;" horiz-adv-x="987" d="M188 1466h604v126h-604v-126zM65 369q0 -79 28.5 -145t71.5 -108t96 -71.5t99.5 -42t83.5 -12.5v215q-10 0 -28 5t-42 17.5t-44.5 30t-35 47t-15.5 64.5v971h-214v-971zM544 -10q38 0 84.5 12t98.5 41.5t95 71.5t71 108.5t28 145.5v971h-213v-971q0 -44 -21 -78.5 t-50 -51.5t-53.5 -25.5t-39.5 -8.5v-215z" />
<glyph unicode="&#x16b;" horiz-adv-x="911" d="M153 1175h605v127h-605v-127zM73 281q0 -42 22 -90.5t62 -94t107.5 -76t148.5 -30.5v203q-62 0 -98 34.5t-36 76.5v756h-206v-779zM498 -10q81 0 148.5 31t107.5 77.5t62 94.5t22 88v779h-206v-756q0 -42 -35.5 -76.5t-98.5 -34.5v-203z" />
<glyph unicode="&#x16e;" horiz-adv-x="987" d="M322 1650q0 -69 49.5 -119t118.5 -50t118.5 50t49.5 119t-49.5 118.5t-118.5 49.5t-118.5 -49.5t-49.5 -118.5zM429 1650q0 26 17.5 43.5t43.5 17.5t43.5 -17.5t17.5 -43.5t-17.5 -43.5t-43.5 -17.5t-43.5 17.5t-17.5 43.5zM65 369q0 -79 28.5 -145t71.5 -108t96 -71.5 t99.5 -42t83.5 -12.5v215q-10 0 -28 5t-42 17.5t-44.5 30t-35 47t-15.5 64.5v971h-214v-971zM544 -10q38 0 84.5 12t98.5 41.5t95 71.5t71 108.5t28 145.5v971h-213v-971q0 -44 -21 -78.5t-50 -51.5t-53.5 -25.5t-39.5 -8.5v-215z" />
<glyph unicode="&#x16f;" horiz-adv-x="911" d="M287 1359q0 -69 50 -118.5t119 -49.5t118.5 49.5t49.5 118.5t-49.5 118.5t-118.5 49.5t-119 -49.5t-50 -118.5zM394 1359q0 25 18 43t44 18t43.5 -18t17.5 -43t-17.5 -43t-43.5 -18t-44 18t-18 43zM73 281q0 -42 22 -90.5t62 -94t107.5 -76t148.5 -30.5v203 q-62 0 -98 34.5t-36 76.5v756h-206v-779zM498 -10q81 0 148.5 31t107.5 77.5t62 94.5t22 88v779h-206v-756q0 -42 -35.5 -76.5t-98.5 -34.5v-203z" />
<glyph unicode="&#x170;" horiz-adv-x="987" d="M586 1466h139l127 291h-195zM320 1466h139l127 291h-196zM65 369q0 -79 28.5 -145t71.5 -108t96 -71.5t99.5 -42t83.5 -12.5v215q-10 0 -28 5t-42 17.5t-44.5 30t-35 47t-15.5 64.5v971h-214v-971zM544 -10q38 0 84.5 12t98.5 41.5t95 71.5t71 108.5t28 145.5v971h-213 v-971q0 -44 -21 -78.5t-50 -51.5t-53.5 -25.5t-39.5 -8.5v-215z" />
<glyph unicode="&#x171;" horiz-adv-x="911" d="M530 1175h140l126 291h-195zM264 1175h140l126 291h-195zM73 281q0 -42 22 -90.5t62 -94t107.5 -76t148.5 -30.5v203q-62 0 -98 34.5t-36 76.5v756h-206v-779zM498 -10q81 0 148.5 31t107.5 77.5t62 94.5t22 88v779h-206v-756q0 -42 -35.5 -76.5t-98.5 -34.5v-203z" />
<glyph unicode="&#x172;" horiz-adv-x="987" d="M723 -366v144q-68 0 -113 35.5t-45 109.5h-148q0 -53 16.5 -102t50.5 -92t95.5 -69t143.5 -26zM65 369q0 -79 28.5 -145t71.5 -108t96 -71.5t99.5 -42t83.5 -12.5v215q-10 0 -28 5t-42 17.5t-44.5 30t-35 47t-15.5 64.5v971h-214v-971zM544 -10q38 0 84.5 12t98.5 41.5 t95 71.5t71 108.5t28 145.5v971h-213v-971q0 -44 -21 -78.5t-50 -51.5t-53.5 -25.5t-39.5 -8.5v-215z" />
<glyph unicode="&#x173;" horiz-adv-x="911" d="M691 -366v144q-68 0 -113.5 35.5t-45.5 109.5h-147q0 -53 16.5 -102t50.5 -92t95.5 -69t143.5 -26zM73 281q0 -42 22 -90.5t62 -94t107.5 -76t148.5 -30.5v203q-62 0 -98 34.5t-36 76.5v756h-206v-779zM498 -10q81 0 148.5 31t107.5 77.5t62 94.5t22 88v779h-206v-756 q0 -42 -35.5 -76.5t-98.5 -34.5v-203z" />
<glyph unicode="&#x178;" horiz-adv-x="882" d="M170 1583q0 -49 34 -83t83 -34q50 0 83.5 34t33.5 83t-33.5 84t-83.5 35q-49 0 -83 -35t-34 -84zM457 1583q0 -49 34 -83t83 -34q50 0 83.5 34t33.5 83t-33.5 84t-83.5 35q-49 0 -83 -35t-34 -84zM33 1340l281 -858v-482h220v484l-279 856h-222zM490 967l100 -345h15 l245 718h-220z" />
<glyph unicode="&#x179;" horiz-adv-x="826" d="M339 1466h140l126 291h-195zM63 0h701v216h-465l465 919v205h-701v-211h465l-465 -918v-211z" />
<glyph unicode="&#x17a;" horiz-adv-x="721" d="M291 1175h140l126 291h-195zM57 0h607v199h-369l369 666v195h-607v-199h377l-377 -662v-199z" />
<glyph unicode="&#x17b;" horiz-adv-x="826" d="M289 1585q0 -50 34.5 -84.5t84.5 -34.5t84 34.5t34 84.5t-34 85t-84 35t-84.5 -35t-34.5 -85zM63 0h701v216h-465l465 919v205h-701v-211h465l-465 -918v-211z" />
<glyph unicode="&#x17c;" horiz-adv-x="721" d="M243 1294q0 -50 34.5 -84.5t84.5 -34.5t84 34.5t34 84.5t-34 85t-84 35t-84.5 -35t-34.5 -85zM57 0h607v199h-369l369 666v195h-607v-199h377l-377 -662v-199z" />
<glyph unicode="&#x17d;" horiz-adv-x="826" d="M209 1757l143 -291h107l148 291h-132l-69 -140l-67 140h-130zM63 0h701v216h-465l465 919v205h-701v-211h465l-465 -918v-211z" />
<glyph unicode="&#x17e;" horiz-adv-x="721" d="M163 1466l143 -291h107l148 291h-132l-69 -140l-67 140h-130zM57 0h607v199h-369l369 666v195h-607v-199h377l-377 -662v-199z" />
<glyph unicode="&#x192;" horiz-adv-x="731" d="M50 -322h130q76 0 132.5 24t86.5 64.5t44 84.5t14 92v844h127v178l-127 -2v80q0 43 29.5 75.5t93.5 33.5h59l42 180h-116q-70 -1 -128.5 -31t-93.5 -75t-54 -92t-19 -87v-82h-121v-178h121v-860q0 -30 -19.5 -57t-66.5 -27h-92z" />
<glyph unicode="&#x218;" horiz-adv-x="932" d="M304 -413h194l70 291h-193zM44 302q0 -32 16 -72.5t47.5 -81.5t73 -75.5t98.5 -56.5t117 -22v197q-6 1 -16 4.5t-36 17t-46 31.5t-38.5 52t-22.5 75zM59 976q0 -136 60 -211t176 -126q27 -13 83 -29t102 -31t93 -38t74 -61t27 -88q0 -89 -59.5 -143t-118.5 -58v-197 q157 0 274.5 121.5t117.5 280.5q0 58 -14.5 106.5t-36.5 83t-56 65t-65.5 49.5t-72.5 39q-33 16 -90.5 34t-103 33.5t-90.5 38t-70 56.5t-25 79q0 65 44 108t88 51v201q-33 -1 -74 -13t-88 -40.5t-85.5 -68.5t-64 -103.5t-25.5 -138.5zM496 1139q5 -1 13.5 -3t30.5 -12 t39.5 -24.5t35 -42.5t22.5 -64l198 65q-2 36 -26.5 82.5t-66 92t-107.5 76.5t-139 31v-201z" />
<glyph unicode="&#x219;" horiz-adv-x="847" d="M268 -417h193l71 291h-193zM38 279q0 -52 21 -102t60.5 -92.5t105.5 -68.5t148 -26v194q-54 0 -99.5 37.5t-45.5 92.5zM48 766q0 -60 15 -107t43 -78.5t57 -51.5t67 -37q36 -13 95.5 -28.5t104.5 -27.5t89.5 -29t68.5 -40t24 -53q0 -63 -51.5 -97.5t-104.5 -34.5v-192 q151 0 252.5 90.5t101.5 242.5q0 61 -20 110.5t-53 80.5t-69 49.5t-75 26.5q-208 48 -282 87t-74 89q0 44 34.5 78.5t95.5 34.5v189q-37 0 -78.5 -10.5t-85 -34.5t-77.5 -58t-56 -86t-22 -113zM454 879q17 0 39 -6.5t47.5 -20.5t43 -42.5t17.5 -66.5l189 32 q0 70 -41.5 136.5t-120.5 111.5t-174 45v-189z" />
<glyph unicode="&#x21a;" horiz-adv-x="891" d="M281 -408h194l70 291h-193zM31 1131h308v-1131h214v1131h306v209h-828v-209z" />
<glyph unicode="&#x21b;" horiz-adv-x="579" d="M331 -408h193l71 291h-193zM31 842h130v-497q0 -83 14.5 -143t49 -107t97.5 -71t155 -24h90l-46 209h-41q-65 0 -89.5 31t-24.5 85l-2 517h126v197h-126v322h-203v-322h-130v-197z" />
<glyph unicode="&#x2c6;" horiz-adv-x="516" d="M59 984h130l67 140l69 -140h132l-147 291h-107z" />
<glyph unicode="&#x2c7;" horiz-adv-x="516" d="M59 1275l144 -291h107l147 291h-132l-69 -140l-67 140h-130z" />
<glyph unicode="&#x2c9;" horiz-adv-x="796" d="M96 999h605v126h-605v-126z" />
<glyph unicode="&#x2d8;" horiz-adv-x="467" d="M67 1007q0 -65 48.5 -115t118.5 -50t118 50t48 115h-105q0 -25 -17.5 -43t-43.5 -18t-44 18t-18 43h-105z" />
<glyph unicode="&#x2d9;" horiz-adv-x="386" d="M75 1298q0 -50 34 -84.5t84 -34.5t84.5 34.5t34.5 84.5t-34.5 85t-84.5 35t-84 -35t-34 -85z" />
<glyph unicode="&#x2da;" horiz-adv-x="467" d="M65 1007q0 -69 50 -119t119 -50t118.5 50t49.5 119t-49.5 118.5t-118.5 49.5t-119 -49.5t-50 -118.5zM172 1007q0 25 18 43t44 18t43.5 -18t17.5 -43t-17.5 -43t-43.5 -18t-44 18t-18 43z" />
<glyph unicode="&#x2db;" horiz-adv-x="419" d="M203 -366v144q-68 0 -113.5 35.5t-45.5 109.5h-147q0 -53 16.5 -102t50.5 -92t95.5 -69t143.5 -26z" />
<glyph unicode="&#x2dc;" horiz-adv-x="637" d="M50 216q68 42 126 42q45 0 122 -38t129 -38q75 0 161 53v159q-88 -53 -154 -53q-49 0 -125 39t-125 39q-61 0 -134 -42v-161z" />
<glyph unicode="&#x2dd;" horiz-adv-x="629" d="M362 1158h139l127 291h-195zM96 1158h139l127 291h-195z" />
<glyph unicode="&#x3c0;" horiz-adv-x="958" d="M25 794h130v-796h190v796h275v-539q0 -114 75.5 -188.5t211.5 -74.5v175q-53 0 -78 24.5t-25 80.5v522h130v197h-909v-197z" />
<glyph unicode="&#xb82;" horiz-adv-x="436" d="M140 1629q0 33 23.5 56.5t56.5 23.5t57 -23.5t24 -56.5t-24 -57t-57 -24t-56.5 24t-23.5 57zM59 1629q0 -56 52.5 -108.5t108.5 -52.5t108.5 52.5t52.5 108.5t-52.5 108.5t-108.5 52.5t-108.5 -52.5t-52.5 -108.5z" />
<glyph unicode="&#xb83;" horiz-adv-x="1483" d="M285 427q-83 0 -142 -59t-59 -144t59 -144t142 -59q85 0 145 59t60 144t-60 144t-145 59zM735 1150q-85 0 -144 -59t-59 -144t59 -143.5t144 -58.5t143 58.5t58 143.5t-58 144t-143 59zM1189 434q-85 0 -144 -58.5t-59 -143.5t59 -144t144 -59t143.5 59t58.5 144 t-58.5 143.5t-143.5 58.5z" />
<glyph unicode="&#xb85;" horiz-adv-x="1948" d="M720 879q4 -62 54.5 -100t117.5 -38q81 0 136 46.5t55 135.5l132 -140q-8 -92 -102 -161t-221 -69q-69 0 -126.5 18t-94 46.5t-64 63.5t-42 70t-23 63.5t-10.5 46.5l-2 18h190zM530 986q0 60 32 120t91 110.5t154.5 82t210.5 31.5q248 0 385.5 -151.5t137.5 -426.5v-256 h118v610h188v-1311h-188v515h-116v-182q0 -99 -40.5 -182.5t-122.5 -136t-191 -52.5h-310v187h294q90 1 135 53t45 133v180h-478v186h478v262q0 385 -335 385q-61 0 -112.5 -12.5t-84 -31t-56 -41t-33 -41t-9.5 -31.5h-193zM101 138q0 166 111.5 263t298.5 97h260v-190h-294 q-17 0 -37.5 -3.5t-48 -15t-49.5 -29t-37.5 -49.5t-15.5 -73q0 -95 65.5 -144.5t148.5 -49.5h270v-187h-283q-164 0 -276.5 106.5t-112.5 274.5z" />
<glyph unicode="&#xb86;" horiz-adv-x="2379" d="M1307 -283l590 2q100 0 141 37t41 137v147q0 88 -25.5 112t-106.5 24v188q58 0 101 -6.5t86 -27t70.5 -55t44.5 -94t17 -141.5v-143q0 -65 -10.5 -116.5t-38 -100t-72.5 -81t-118 -51.5t-170 -19h-550v188zM720 879q4 -62 54.5 -100t117.5 -38q81 0 136 46.5t55 135.5 l132 -140q-8 -92 -102 -161t-221 -69q-69 0 -126.5 18t-94 46.5t-64 63.5t-42 70t-23 63.5t-10.5 46.5l-2 18h190zM530 986q0 60 32 120t91 110.5t154.5 82t210.5 31.5q248 0 385.5 -151.5t137.5 -426.5v-256h118v610h188v-1311h-188v515h-116v-182q0 -99 -40.5 -182.5 t-122.5 -136t-191 -52.5h-310v187h294q90 1 135 53t45 133v180h-478v186h478v262q0 385 -335 385q-61 0 -112.5 -12.5t-84 -31t-56 -41t-33 -41t-9.5 -31.5h-193zM101 138q0 166 111.5 263t298.5 97h260v-190h-294q-17 0 -37.5 -3.5t-48 -15t-49.5 -29t-37.5 -49.5 t-15.5 -73q0 -95 65.5 -144.5t148.5 -49.5h270v-187h-283q-164 0 -276.5 106.5t-112.5 274.5z" />
<glyph unicode="&#xb87;" horiz-adv-x="2224" d="M982 -339l-486 -2q-164 0 -276.5 106.5t-112.5 274.5q0 130 70 220t194 123q-28 176 -28 308q1 220 59.5 401.5t164 309t259.5 198t342 71.5v-190q-153 -1 -273.5 -62.5t-195.5 -168t-113.5 -244t-38.5 -298.5q0 -148 39 -306h394v-190h-498q-17 0 -37.5 -3.5 t-47.5 -15.5t-48.5 -29.5t-36.5 -50t-15 -73.5q0 -95 65.5 -144t148.5 -49h121q-129 123 -190 298l203 4q67 -203 258 -302h79v-186zM1089 -341v188h272q88 1 133 53.5t45 132.5v181h-454v184h643q194 0 291.5 -87t97.5 -242v-65q0 -60 -30.5 -122t-85.5 -113t-144 -78 t-194 -14l88 185q182 21 182 186q0 83 -53.5 124.5t-149.5 41.5v-181q0 -154 -96 -264t-258 -110h-287zM718 890q0 72 35.5 141.5t98 123.5t155.5 87t199 33q244 0 383 -170t139 -450v-182h-187v187q0 195 -84 310t-251 115q-61 0 -112.5 -15t-84 -37.5t-56 -49.5t-33 -51 t-9.5 -42h-193zM718 783h189q0 -66 50 -102t123 -36q77 0 134 46t57 134l132 -140q-8 -92 -102 -160.5t-221 -68.5q-69 0 -126.5 18t-94 47t-64 63.5t-42 69.5t-23 64t-10.5 47zM1263 1480v191q233 0 391.5 -63.5t258.5 -204.5t143.5 -355t43.5 -527l-194 3 q0 172 -11.5 300.5t-39 240t-74.5 186t-118.5 127.5t-170 77.5t-229.5 24.5z" />
<glyph unicode="&#xb88;" horiz-adv-x="1179" d="M867 477q0 46 32.5 79.5t78.5 33.5q44 0 77.5 -33.5t33.5 -79.5q0 -44 -33.5 -77t-77.5 -33q-46 0 -78.5 32.5t-32.5 77.5zM341 479q0 46 32.5 79t76.5 33q46 0 78.5 -33t32.5 -79q0 -45 -32.5 -77.5t-78.5 -32.5q-44 0 -76.5 33t-32.5 77zM630 0v951h-125v188h584v-188 h-272v-951h-187zM86 2v1137h316v-188h-128v-949h-188z" />
<glyph unicode="&#xb89;" horiz-adv-x="1986" d="M281 995h-193q0 157 137.5 279.5t335.5 122.5q251 0 393.5 -150.5t142.5 -423.5h-182q0 36 -8 80t-32 100.5t-61.5 101.5t-103 76.5t-149.5 31.5q-75 0 -131 -19.5t-87 -52.5t-46 -69.5t-16 -76.5zM496 0v174h1443v-174h-1443zM109 174v125q2 84 32.5 123t107.5 39h398 q115 1 171 16.5t78.5 54t22.5 117.5v84h180v-92q0 -52 -8 -95t-34.5 -91t-70 -80.5t-119.5 -54t-178 -21.5q-377 -2 -390 -2v-123h93v-174h-170q-41 0 -65.5 12t-34 39.5t-11.5 48t-2 62.5v12zM279 903q0 -61 43.5 -101t113.5 -40q184 0 184 189l136 -130 q-6 -105 -97.5 -177t-220.5 -72q-88 0 -153 20t-102.5 50.5t-60 76t-29.5 88.5t-7 96h193z" />
<glyph unicode="&#xb8a;" horiz-adv-x="2719" d="M1591 285v159q44 0 74 33t29 91q-1 57 -31.5 89t-70.5 34v159q117 0 189 -69.5t72 -158.5q0 -21 2 -109q2 -82 -74 -154.5t-190 -73.5zM1233 622v8v164q0 50 14.5 105.5t47 112.5t78 103t114 75t148.5 29h3l-2 -159h-5q-88 0 -151.5 -62t-76.5 -167q56 19 98 19v-159 q-42 -2 -75 -34.5t-33 -88.5q0 -59 30 -91.5t78 -32.5v-159q-119 0 -193.5 70t-74.5 156v111zM1726 1062v159h2q162 0 259 -107q63 107 187 107h31v-159q-30 0 -51.5 -14.5t-33.5 -35t-19.5 -53t-9.5 -59.5t-3 -62l8 -553h-163l-2 536v10v11q-1 98 -62.5 159t-138.5 61h-4z M2297 1062v159h346v-159h-115v-777h-158v777h-73zM496 0v174h2119v-174h-2119zM281 995h-193q0 157 137.5 279.5t335.5 122.5q251 0 393.5 -150.5t142.5 -423.5h-182q0 36 -8 80t-32 100.5t-61.5 101.5t-103 76.5t-149.5 31.5q-75 0 -131 -19.5t-87 -52.5t-46 -69.5 t-16 -76.5zM109 174v125q2 84 32.5 123t107.5 39h398q115 1 171 16.5t78.5 54t22.5 117.5v84h180v-92q0 -52 -8 -95t-34.5 -91t-70 -80.5t-119.5 -54t-178 -21.5q-377 -2 -390 -2v-123h93v-174h-170q-41 0 -65.5 12t-34 39.5t-11.5 48t-2 62.5v12zM279 903q0 -61 43.5 -101 t113.5 -40q184 0 184 189l136 -130q-6 -105 -97.5 -177t-220.5 -72q-88 0 -153 20t-102.5 50.5t-60 76t-29.5 88.5t-7 96h193z" />
<glyph unicode="&#xb8e;" horiz-adv-x="1399" d="M101 339v71v13v126q0 78 16 157t54 158t92.5 140t138.5 99t186 38v-190q-119 0 -190.5 -78.5t-91.5 -204.5q56 21 111 21v-189q-51 0 -88.5 -37.5t-37.5 -114.5q0 -73 36 -116t90 -43v-187q-140 0 -228 95t-88 242zM523 2v187q55 0 89 42.5t33 116.5q0 75 -31.5 113.5 t-90.5 38.5v189q147 0 229.5 -74.5t82.5 -206.5v-111q2 -108 -92 -201.5t-220 -93.5zM953 0v949h-260v190h654v-190h-206v-949h-188z" />
<glyph unicode="&#xb8f;" horiz-adv-x="1399" d="M635 -337l318 389v897h-260v190h654v-190h-202l-2 -947l-284 -339h-224zM101 339v71v13v126q0 78 16 157t54 158t92.5 140t138.5 99t186 38v-190q-119 0 -190.5 -78.5t-91.5 -204.5q56 21 111 21v-189q-51 0 -88.5 -37.5t-37.5 -114.5q0 -73 36 -116t90 -43v-187 q-140 0 -228 95t-88 242zM523 2v187q55 0 89 42.5t33 116.5q0 75 -31.5 113.5t-90.5 38.5v189q147 0 229.5 -74.5t82.5 -206.5v-111q2 -108 -92 -201.5t-220 -93.5z" />
<glyph unicode="&#xb90;" horiz-adv-x="1804" d="M530 -345q-114 0 -212 50.5t-153.5 133t-55.5 174.5v134q0 48 12 96t40 97t70 86.5t107.5 61t145.5 23.5h58v-189h-71q-78 0 -126 -66t-48 -168q0 -117 62 -181t171 -64v-188zM634 -345v188q133 0 193.5 31.5t60.5 123.5v228h188v-226q0 -88 44 -121.5t122 -33.5v-190 q-213 0 -254 110q-15 -30 -44.5 -51t-62.5 -32.5t-79.5 -17.5t-82.5 -7.5t-85 -1.5zM65 1009q0 61 31 120.5t89.5 110t154.5 82t213 31.5q275 0 414 -184q50 69 124 109t155 48v-189q-31 -6 -58.5 -21t-54 -42.5t-42 -75t-15.5 -110.5v-239h-188v130q-9 404 -341 404 q-150 0 -218.5 -47t-68.5 -127h-195zM1353 323v190q55 0 92.5 39t52 93t14.5 117v143q0 106 -47 164.5t-116 67.5v189q150 -12 251.5 -122t101.5 -299v-164q-1 -94 -23.5 -168.5t-57.5 -120.5t-82 -76t-92.5 -41.5t-93.5 -11.5zM427 576q-69 0 -126.5 18t-94 45.5t-64 63 t-42 68t-23 64t-10.5 46t-2 19.5h191q3 -54 50.5 -95t120.5 -41q82 0 136.5 46.5t54.5 135.5l132 -140q-8 -92 -102 -161t-221 -69zM1346 -345v190q68 0 110.5 39.5t42.5 109.5v232h189v-232q0 -83 -38 -159t-118 -128t-186 -52zM647 322v189h589v-188z" />
<glyph unicode="&#xb92;" horiz-adv-x="1670" d="M896 1143v187q141 0 261.5 -41.5t199 -105.5t134.5 -142t80.5 -149.5t24.5 -129.5v-446q0 -66 -32.5 -119t-86.5 -84t-119.5 -46t-135.5 -11t-131 26q2 -41 31.5 -71t78 -45.5t102.5 -22.5t115 -6v-190q-231 0 -373 84.5t-142 216.5v622h190v-314q0 -41 32 -70 t77.5 -36.5t91 -1.5t78.5 35.5t35 74.5v404q0 52 -34 115.5t-95.5 124t-162.5 101t-219 40.5zM75 352v113v10v118q0 63 10 129t34 139t60.5 139.5t94.5 127.5t130 105t172.5 70.5t217.5 26.5v-187q-97 0 -178 -23t-136.5 -62.5t-95.5 -93.5t-61.5 -112.5t-29.5 -124.5 q59 18 99 18v-190q-52 0 -89 -37.5t-37 -115.5q0 -73 36 -115t90 -42v-189q-67 0 -128 29.5t-101.5 74t-64 96t-23.5 96.5zM498 56v189q55 0 89 42.5t33 116.5q-3 151 -122 151v190q127 0 219.5 -88t92.5 -194v-109q0 -110 -93 -204t-219 -94zM360 -237l184 46 q34 -72 104.5 -102t143 -6t110.5 96l162 -94q-32 -66 -90 -112.5t-126 -67t-143 -16.5t-141.5 32t-121.5 86t-82 138z" />
<glyph unicode="&#xb93;" horiz-adv-x="1670" d="M896 1143v187q141 0 261.5 -41.5t199 -105.5t134.5 -142t80.5 -149.5t24.5 -129.5v-446q0 -66 -32.5 -119t-86.5 -84t-119.5 -46t-135.5 -11t-131 26q2 -41 31.5 -71t78 -45.5t102.5 -22.5t115 -6v-190q-231 0 -373 84.5t-142 216.5v622h190v-314q0 -41 32 -70 t77.5 -36.5t91 -1.5t78.5 35.5t35 74.5v404q0 52 -34 115.5t-95.5 124t-162.5 101t-219 40.5zM394 -270q0 59 16.5 110.5t52 97t101 72t154.5 26.5v-189q-65 0 -99.5 -33.5t-34.5 -85.5q0 -44 31.5 -75t76.5 -38.5t99.5 16.5t94.5 80q14 20 44 77l171 -100 q-20 -40 -54 -82.5t-83 -85.5t-116 -70t-138 -26q-142 1 -229 90t-87 216zM75 352v113v10v118q0 63 10 129t34 139t60.5 139.5t94.5 127.5t130 105t172.5 70.5t217.5 26.5v-187q-97 0 -178 -23t-136.5 -62.5t-95.5 -93.5t-61.5 -112.5t-29.5 -124.5q59 18 99 18v-190 q-52 0 -89 -37.5t-37 -115.5q0 -73 36 -115t90 -42v-189q-67 0 -128 29.5t-101.5 74t-64 96t-23.5 96.5zM498 56v189q55 0 89 42.5t33 116.5q-3 151 -122 151v190q127 0 219.5 -88t92.5 -194v-109q0 -110 -93 -204t-219 -94z" />
<glyph unicode="&#xb94;" horiz-adv-x="3496" d="M896 1143v187q141 0 261.5 -41.5t199 -105.5t134.5 -142t80.5 -149.5t24.5 -129.5v-446q0 -66 -32.5 -119t-86.5 -84t-119.5 -46t-135.5 -11t-131 26q2 -41 31.5 -71t78 -45.5t102.5 -22.5t115 -6v-190q-231 0 -373 84.5t-142 216.5v622h190v-314q0 -41 32 -70 t77.5 -36.5t91 -1.5t78.5 35.5t35 74.5v404q0 52 -34 115.5t-95.5 124t-162.5 101t-219 40.5zM75 352v113v10v118q0 63 10 129t34 139t60.5 139.5t94.5 127.5t130 105t172.5 70.5t217.5 26.5v-187q-97 0 -178 -23t-136.5 -62.5t-95.5 -93.5t-61.5 -112.5t-29.5 -124.5 q59 18 99 18v-190q-52 0 -89 -37.5t-37 -115.5q0 -73 36 -115t90 -42v-189q-67 0 -128 29.5t-101.5 74t-64 96t-23.5 96.5zM498 56v189q55 0 89 42.5t33 116.5q-3 151 -122 151v190q127 0 219.5 -88t92.5 -194v-109q0 -110 -93 -204t-219 -94zM360 -237l184 46 q34 -72 104.5 -102t143 -6t110.5 96l162 -94q-32 -66 -90 -112.5t-126 -67t-143 -16.5t-141.5 32t-121.5 86t-82 138zM2065 0q-67 0 -128 29t-101 73.5t-63.5 96.5t-23.5 100v107v13v188q0 71 18 145t57 146t93 128.5t133.5 91t171.5 34.5v-187q-105 0 -181.5 -83.5 t-90.5 -219.5q59 21 115 21v-185q-49 0 -87.5 -40.5t-38.5 -112.5q0 -70 35.5 -113.5t90.5 -43.5v-188zM2170 0v188q59 0 88 42t27 116q-3 152 -115 152v185q124 0 215.5 -86.5t91.5 -184.5v-111q1 -71 -35.5 -139t-109 -115t-162.5 -47zM2775 0h-193l-2 618v23v33 q-2 119 -71.5 205t-182.5 86v187q198 0 323 -147q79 147 264 147v-189q-75 0 -107.5 -72t-35.5 -240zM3093 0v963h-77v189h406v-189h-141v-963h-188z" />
<glyph unicode="&#xb95;" horiz-adv-x="1571" d="M98 423q0 248 239 281v435h289v-192h-98l-2 -237h301v237h-98v192h538v-192h-253v-237h113q92 0 152.5 -14.5t104 -50.5t63 -99t19.5 -159h-189q0 75 -35 108t-111 33h-117v-162q0 -58 -12 -111t-41 -104.5t-73 -88.5t-113.5 -60t-156.5 -23v189q99 0 154 49.5t55 142.5 v168h-396q-43 0 -73 -10.5t-43.5 -28t-18.5 -33.5t-5 -33h-193zM515 -21q-110 0 -191.5 27.5t-129.5 77.5t-71.5 113.5t-24.5 141.5h187q5 -93 57 -132t173 -39v-189zM1053 -21l2 178q58 0 102.5 15.5t68 39.5t35 46.5t12.5 42.5l193 -2q-3 -320 -413 -320z" />
<glyph unicode="&#xb99;" horiz-adv-x="1682" d="M1414 0v1139h188v-1139h-188zM513 0v188h329q81 0 105.5 16.5t24.5 61.5v146q0 51 -27 63.5t-107 12.5v190q65 0 121 -13t102.5 -40t73.5 -75t27 -112v-222q0 -18 -2 -28h153v-188h-800zM547 264v687h-275v-951h-188v1131v8h860v-188h-209v-687h-188z" />
<glyph unicode="&#xb9a;" horiz-adv-x="1381" d="M505 -2q-121 1 -208 27t-133 71.5t-66.5 98t-20.5 115.5h185q0 -124 243 -124v-188zM607 -2v188q104 0 150.5 43t46.5 129v165h-348q-100 0 -146 -27.5t-46 -93.5h-189q0 112 66 185.5t173 103.5v440h291v-184h-100l-2 -237h301v237h-96v184h565v-184h-282v-237h196v-187 h-196v-157q0 -74 -18.5 -136t-59.5 -116t-119 -85t-187 -31z" />
<glyph unicode="&#xb9c;" horiz-adv-x="1781" d="M536 -345q-86 0 -164.5 32.5t-134.5 84.5t-89 120t-33 137v118q0 59 23.5 121t67.5 118t118.5 91.5t165.5 35.5h852q42 0 72 8.5t48.5 27.5t29.5 39.5t16 54t6 61.5t2 71v14v99q0 106 -46 164.5t-115 67.5v189q149 -10 249.5 -120.5t100.5 -300.5v-147q-1 -93 -21.5 -167 t-53 -120t-76.5 -76.5t-88.5 -42.5t-93.5 -12h-895q-78 0 -126.5 -66.5t-48.5 -168.5q0 -117 62.5 -181t171.5 -64v-188zM80 902v1v20q0 25 2 38q3 30 12 59q11 44 30 83.5t56 83t87 74.5t127 51t171 20q129 0 234.5 -44t174.5 -132q52 67 125 106t153 47v-189 q-31 -6 -58.5 -21t-54.5 -42.5t-42.5 -75t-15.5 -110.5v-259h-187v209q0 89 -37 159.5t-99 114.5q29 -67 29 -140v-53q0 -59 -42.5 -132t-114.5 -127.5t-144 -54.5v189q38 10 76.5 59.5t38.5 118.5q0 82 -50.5 130t-116.5 48q-63 0 -113.5 -52t-50.5 -135q0 -69 36.5 -115 t76.5 -56v-187q-78 0 -149.5 50.5t-112.5 123.5t-41 140zM653 -153q82 0 121.5 27t42.5 113q4 134 87.5 207.5t220.5 73.5h110v-191h-133q-52 2 -73 -34t-28 -156q-5 -89 -100 -159.5t-248 -70.5v190zM1148 -151q161 0 225 12q134 26 133 112q0 99 -168 104v191 q66 0 126.5 -17t113.5 -51t84.5 -93.5t31.5 -137.5q0 -63 -19.5 -112.5t-57 -82.5t-85 -55.5t-111.5 -35t-129 -17.5t-144 -5v188z" />
<glyph unicode="&#xb9e;" horiz-adv-x="2049" d="M467 -373q-165 0 -268 95t-103 276v758q0 98 32 174t86.5 121.5t121 68.5t141.5 23v-190q-58 0 -98.5 -19t-60 -51t-27.5 -63.5t-8 -67.5v-758q0 -92 48 -136t155 -44h530v-187h-549zM1122 -186h490q96 0 133 39t37 137l2 305q0 87 -28 111.5t-108 24.5v187 q68 0 120.5 -13t101 -46t75 -99.5t26.5 -164.5v-305q0 -82 -18.5 -145t-62 -114.5t-123 -78.5t-192.5 -27h-453v189zM530 339v71v13v126q0 78 16 157t53.5 158t92 140t138.5 99t186 38v-190q-119 0 -190 -78.5t-91 -204.5q56 21 111 21v-189q-51 0 -88.5 -37.5t-37.5 -114.5 q0 -73 36 -116t90 -43v-187q-140 0 -228 95t-88 242zM951 2v187q55 0 89.5 42.5t33.5 116.5q0 75 -32 113.5t-91 38.5v189q147 0 229.5 -74.5t82.5 -206.5v-111q2 -108 -92 -201.5t-220 -93.5zM1382 0v949h-260v190h654v-190h-207v-949h-187z" />
<glyph unicode="&#xb9f;" horiz-adv-x="1205" d="M88 0v188h1026v-188h-1026zM88 293v848h190v-848h-190z" />
<glyph unicode="&#xba3;" horiz-adv-x="2685" d="M75 312v241q0 92 14.5 170.5t38 135t58 102t70 75t79.5 51t80 32.5t78.5 17t68 7.5t54.5 1.5v-190q-83 0 -144.5 -19t-110 -63t-73.5 -124.5t-24 -195.5v-239q0 -134 65 -134v-188q-119 0 -186.5 94.5t-67.5 225.5zM381 685q-5 45 34.5 92.5t101.5 53.5q172 0 172 -276 v-243q0 -140 -67 -230t-188 -90v188q67 0 67 132v243q0 73 -29.5 101.5t-90.5 28.5zM787 314v235q0 250 118 393q-74 13 -185 13v190q237 0 379 -58q133 58 302 58v-190q-57 0 -111 -6q111 -139 111 -375v-260q0 -139 -67 -229.5t-191 -90.5v188q70 0 70 132v249 q0 216 -124 310q-115 -98 -115 -320v-237q0 -134 67 -134v-188q-119 0 -186.5 94.5t-67.5 225.5zM1504 957v188q203 0 326 -50q122 50 283 50v-188q-32 0 -98 -4q100 -142 100 -377v-260q0 -138 -67.5 -229t-188.5 -91v188q67 0 67 132v247q0 228 -113 317 q-125 -95 -125 -325v-237q0 -57 15.5 -95.5t51.5 -38.5v-188q-119 0 -186.5 94.5t-67.5 225.5v235q0 254 122 398q-48 8 -119 8zM2236 2v955h-18v188h391v-190h-186v-953h-187z" />
<glyph unicode="&#xba4;" horiz-adv-x="1458" d="M107 -559q0 208 82 301t251 93h553q96 0 136 45.5t40 117.5l2 291h188v-293q0 -46 -9.5 -91t-35 -92.5t-64.5 -83t-105 -58.5t-150 -23h-582q-61 0 -85 -44t-24 -163h-197zM75 304h189q3 -27 11.5 -46.5t26 -31.5t32.5 -19t46.5 -10t51.5 -3.5t62 -0.5v-189 q-211 0 -315 80.5t-104 219.5zM75 402q0 122 66 196t173 101v440h289v-188h-98l-2 -235h301v235h-98v188h538v-188h-253v-235h44q58 0 101.5 -6.5t87.5 -27t72 -55t45.5 -94t17.5 -141.5h-188q0 59 -27 96.5t-86 37.5h-67v-155q0 -73 -20 -135.5t-64 -116t-123.5 -84.5 t-188.5 -31v189q105 0 157 41.5t52 129.5v162l-354 2q-44 0 -74 -4t-58.5 -16.5t-43 -38.5t-14.5 -67h-185z" />
<glyph unicode="&#xba8;" horiz-adv-x="1290" d="M894 530v188q49 0 87 -6.5t79 -27t67.5 -55t44 -94.5t17.5 -141v-346q0 -46 -6 -92.5t-27.5 -108t-55.5 -107t-97.5 -77.5t-146.5 -32h-483q-56 0 -79.5 -43t-23.5 -149h-195q0 202 85.5 290.5t251.5 88.5h442q51 0 85 38t46 87t12 105l2 346q1 47 -5 75.5t-22 41.5 t-32 16t-46 3zM138 0v1139h274v-188h-87v-951h-187zM599 0l2 951h-65v188h524v-188h-270l2 -951h-193z" />
<glyph unicode="&#xba9;" horiz-adv-x="1971" d="M789 295v262q0 249 120 398q-76 15 -186 15v188q234 0 374 -59q133 61 291 61v-190q-60 0 -102 -5q117 -142 117 -383v-287q0 -139 -66.5 -229.5t-190.5 -90.5v188q69 0 69 132v275q0 218 -124 312q-115 -98 -115 -321v-264q0 -134 67 -134v-188q-119 0 -186.5 94.5 t-67.5 225.5zM77 293v268q0 117 23.5 212t59.5 156t88.5 106t100 68t105 36t93 16t73.5 3v-188q-66 -1 -118.5 -13t-98 -41t-75.5 -75t-47 -116.5t-17 -163.5l2 -266q-2 -57 15 -95.5t54 -38.5v-188q-81 0 -141 46.5t-88.5 118t-28.5 155.5zM383 691q-5 44 35.5 91.5 t102.5 53.5q172 0 172 -275v-266q0 -140 -67 -231t-190 -91v190q69 0 69 132v266q0 72 -30 101t-92 29zM1489 970v188h406v-190h-184v-968h-187v970h-35z" />
<glyph unicode="&#xbaa;" horiz-adv-x="1029" d="M568 2v187h180v950h190v-1137h-370zM92 2v1137h187v-950h182v-187h-369z" />
<glyph unicode="&#xbae;" horiz-adv-x="1234" d="M856 0v189q105 0 105 163v479q0 139 -105 139v188q60 0 110 -16.5t92 -52.5t66 -101.5t24 -156.5v-454q0 -101 -24.5 -176.5t-67.5 -118t-93 -62.5t-107 -20zM75 0v1139h189v-950h203v642q-1 93 23 160t66.5 102t90 50t105.5 15v-188q-97 0 -97 -139v-642h97v-189h-677z " />
<glyph unicode="&#xbaf;" horiz-adv-x="1341" d="M990 0v184h24q66 0 66 55v900h189v-1139h-279zM75 268v871h189v-861q0 -38 22.5 -66t59.5 -28h12v-184h-12q-75 0 -139.5 45.5t-98 107t-33.5 115.5zM461 0v184h12q32 0 60.5 6t53 26t24.5 52v871h187v-896q0 -59 58 -59h32v-184h-276l-7 65q-11 -30 -46.5 -47.5 t-85.5 -17.5h-12z" />
<glyph unicode="&#xbb0;" horiz-adv-x="1096" d="M291 -339l323 395v895h-118v188h526v-188h-214l-4 -951l-289 -339h-224zM75 0v1139h317v-188h-128v-951h-189z" />
<glyph unicode="&#xbb1;" horiz-adv-x="1381" d="M75 -565q0 209 83 305.5t254 96.5h486q107 0 150 69t43 194v780q0 92 -103 92v188q72 0 130 -24t92 -62.5t52 -81t18 -83.5v-787q0 -229 -90.5 -349.5t-257.5 -122.5h-519q-75 0 -112 -47t-37 -168h-189zM134 0v917q0 39 15 79t45.5 78t85.5 62t126 24v-190 q-46 0 -65 -26t-19 -58l3 -884zM507 970v190q127 0 192 -65q70 65 191 65v-188q-100 0 -100 -99l4 -871h-187l-4 869q0 52 -24 75.5t-72 23.5z" />
<glyph unicode="&#xbb2;" horiz-adv-x="1674" d="M498 0v188q114 0 114 160q-3 152 -114 152v187q122 0 213 -88t91 -186v-111q1 -72 -35 -140.5t-107.5 -115t-161.5 -46.5zM75 301v107v15v-2v186q0 71 17.5 146t56 148t91.5 130.5t130.5 93t167.5 35.5v-188q-100 0 -173.5 -85t-86.5 -221q68 21 114 21v-187 q-50 0 -88 -40.5t-38 -113.5q0 -70 35.5 -114t90.5 -44v-188q-89 0 -164 49t-114 117.5t-39 134.5zM641 972v188q92 0 168 -30t125.5 -78t83.5 -110t48.5 -123t14.5 -120v-397q0 -48 32.5 -80.5t80.5 -32.5v-189q-140 0 -220 89.5t-80 212.5l-2 402q-1 45 -14.5 89t-41 86 t-78 67.5t-117.5 25.5zM1269 1137q172 1 252.5 -78t80.5 -247v-506q0 -81 -33 -149t-104.5 -112.5t-168.5 -44.5v189q58 0 87.5 34t29.5 83v502q0 72 -28.5 105.5t-113.5 33.5z" />
<glyph unicode="&#xbb3;" horiz-adv-x="1824" d="M78 301v107v13v190q0 71 18 145.5t57 146.5t93 128.5t133.5 91.5t171.5 35v-188q-105 0 -181.5 -84t-90.5 -220q68 21 115 21v-187q-49 0 -87.5 -41t-38.5 -113q0 -70 35.5 -114t90.5 -44v-188q-67 0 -128 29t-101 73.5t-63.5 97.5t-23.5 101zM500 0v188q58 0 87 43 t27 117q-3 152 -114 152v187q124 0 215 -88t91 -186v-111q1 -72 -35.5 -140.5t-108.5 -115t-162 -46.5zM655 970v188q197 0 323 -149q78 149 264 149v-190q-75 0 -107.5 -73t-35.5 -242l5 -653h-193l-2 622v23v33q-2 119 -71.5 205.5t-182.5 86.5zM1422 0v968h-76v190h405 v-190h-141v-968h-188z" />
<glyph unicode="&#xbb4;" horiz-adv-x="1234" d="M121 -128h187q1 -46 32.5 -70.5t70.5 -22.5t62 24q11 -39 55 -74.5t102 -42.5q-96 -66 -191 -80.5t-164 16t-111.5 96.5t-42.5 154zM856 0v189q105 0 105 163v479q0 139 -105 139v188q60 0 110 -16.5t92 -52.5t66 -101.5t24 -156.5v-454q0 -101 -24.5 -176.5t-67.5 -118 t-93 -62.5t-107 -20zM75 0v1139h189v-950h203v642q-1 93 23 160t66.5 102t90 50t105.5 15v-188q-97 0 -97 -139v-642h97v-189h-97q1 -56 52 -74q45 -15 209 -14h114v-191l-207 1q-356 -2 -356 278h-392z" />
<glyph unicode="&#xbb5;" horiz-adv-x="1626" d="M500 0v188q54 2 85 42t31 116q0 77 -32 115.5t-84 38.5v187q124 0 215 -88t91 -186v-111q1 -72 -35.5 -140.5t-108.5 -115t-162 -46.5zM77 301v107v13v161q0 84 14.5 162.5t50 155t88.5 133t136.5 91t188.5 34.5v-188q-111 0 -187.5 -83.5t-84.5 -220.5q56 21 111 21 v-187q-51 0 -88.5 -38t-37.5 -116q0 -71 35.5 -114.5t90.5 -43.5v-188q-89 0 -164 49t-114 117.5t-39 134.5zM653 970v188q92 0 171 -29.5t132.5 -78t91.5 -111.5t55.5 -129t18.5 -131v-490h134v-189h-406v189q28 1 43.5 4t29 14.5t13.5 33.5v437q-2 124 -80 208t-203 84z M1361 0v1139h191v-1139h-191z" />
<glyph unicode="&#xbb6;" horiz-adv-x="1810" d="M90 302v837h188v-835q0 -60 25.5 -86.5t75.5 -26.5v-191h-33q-59 0 -105 20.5t-74 52t-46 73t-24.5 80t-6.5 76.5zM482 0v191q47 0 77.5 29.5t30.5 80.5v838h1110v-840q0 -36 -8.5 -75t-28.5 -79.5t-49 -72.5t-74 -52t-99 -20h-36v191q47 0 77 29.5t30 81.5v649h-310 v-647q0 -113 100 -113v-191h-33q-57 0 -102.5 20t-73.5 51t-46.5 72t-25.5 80.5t-7 78.5v649h-237v-652q0 -44 -13.5 -92t-41.5 -96t-80.5 -79.5t-120.5 -31.5h-39z" />
<glyph unicode="&#xbb7;" horiz-adv-x="2409" d="M500 0v188q54 2 85 42t31 116q0 77 -32 115.5t-84 38.5v187q124 0 215 -88t91 -186v-111q1 -72 -35.5 -140.5t-108.5 -115t-162 -46.5zM77 301v107v13v161q0 84 14.5 162.5t50 155t88.5 133t136.5 91t188.5 34.5v-188q-111 0 -187.5 -83.5t-84.5 -220.5q56 21 111 21 v-187q-51 0 -88.5 -38t-37.5 -116q0 -71 35.5 -114.5t90.5 -43.5v-188q-89 0 -164 49t-114 117.5t-39 134.5zM651 970v188q92 0 171 -29.5t133 -78t92 -111.5t56 -129t19 -131v-490h478v-189h-752v189q29 1 44.5 4t28.5 14.5t13 33.5v437q-2 124 -80 208t-203 84zM1277 639 v190q0 95 23.5 162t69 103.5t101 52t129.5 15.5v-188q-65 0 -99.5 -33.5t-34.5 -123.5v-180q0 -49 9 -80t29.5 -45.5t41 -19t54.5 -4.5v-186q-75 0 -130 14.5t-100.5 50.5t-69 104t-23.5 168zM2128 0h-103v-341h-188v343h-135v187h135v23h188v-23h103v113h-103v-19h-188v19 h-135v188h135v300q0 52 -7.5 88t-17.5 54.5t-30 28t-35.5 11.5t-44.5 2v188q152 0 237.5 -86t85.5 -286v-300h260v-490h-157z" />
<glyph unicode="&#xbb8;" horiz-adv-x="2262" d="M1353 970v190q82 0 141 -23t92 -57.5t52 -89.5t24.5 -103.5t6.5 -115.5v-482q0 -45 27.5 -71.5t72.5 -26.5v-191q-62 0 -112 17.5t-82 46t-54 66.5t-31 77t-9 80v481q-1 42 -3.5 69.5t-10 55t-21 43t-37 25t-56.5 9.5zM1872 0v191q63 0 95.5 38.5t32.5 92.5v490 q0 72 -28 105.5t-113 33.5v190q176 0 253.5 -80t77.5 -246v-493q0 -60 -17.5 -115t-53.5 -102.5t-100 -76t-147 -28.5zM98 301v107v13v190q0 71 18 145.5t57 146.5t93.5 128.5t134 91.5t171.5 35v-188q-105 0 -181 -84t-90 -220q68 21 114 21v-187q-50 0 -88 -40.5 t-38 -113.5q0 -70 35.5 -114t90.5 -44v-188q-139 0 -228 86.5t-89 214.5zM521 0v188q114 0 114 160q-3 152 -114 152v187q122 0 213 -88t91 -186v-111q1 -72 -35 -140.5t-107.5 -115t-161.5 -46.5zM676 970v188q195 0 317 -144q79 144 257 144v-190q-78 0 -103 -62.5 t-27 -243.5l5 -662h-193l-2 622v27v29q-2 119 -71.5 205.5t-182.5 86.5z" />
<glyph unicode="&#xbb9;" horiz-adv-x="2645" d="M2329 544v333q0 91 -103 91v188q74 0 132.5 -24t91.5 -62.5t50.5 -80.5t18.5 -84v-361h-190zM664 957v189q93 0 171.5 -26t132.5 -71t92 -105t56 -126.5t19 -138.5v-490h132v-189h-406v189q29 1 44.5 4t28.5 14.5t13 33.5v437q-2 122 -79.5 200.5t-203.5 78.5zM1746 967 v189q126 0 191 -65q70 65 189 65v-188q-99 0 -99 -93l6 -875l-190 -2l-2 877q0 92 -95 92zM88 301v107v15v-2v130q0 50 6 102t21 111.5t38 112.5t61 103t85.5 86.5t115.5 58t148 21.5v-189q-109 0 -182 -80t-84 -209q58 19 111 19v-187q-50 0 -89.5 -41t-39.5 -113 q0 -70 37 -114t92 -44v-188q-67 0 -128.5 29t-102.5 73.5t-65 97.5t-24 101zM513 0v188q57 0 86 43t29 117q-3 152 -115 152v187q122 0 213 -88t91 -186v-111q1 -72 -35 -140.5t-107.5 -115t-161.5 -46.5zM1370 0v913q0 39 15 79t45.5 78t85.5 62t126 24v-189q-46 0 -64 -26 t-18 -59l2 -882h-192zM2519 442v-312q0 -240 -82 -362t-265 -122h-1671q-64 0 -91 -48t-27 -163h-188q0 208 77.5 296.5t267.5 88.5h1594q104 0 150.5 71.5t46.5 242.5l-2 308h190z" />
<glyph unicode="&#xbbe;" horiz-adv-x="1043" d="M630 0v951h-123v188h471v-188h-161v-951h-187zM86 0v1139h320v-188h-130v-951h-190z" />
<glyph unicode="&#xbbf;" horiz-adv-x="637" d="M140 1319v189q91 0 160.5 -22.5t112 -59.5t69 -89.5t36.5 -106t10 -116.5v-982h-187v976q0 106 -52 158.5t-149 52.5zM-337 1110q0 62 10 116.5t36 107.5t67 90.5t107.5 60.5t152.5 23v-187q-183 0 -183 -211h-190z" />
<glyph unicode="&#xbc0;" horiz-adv-x="754" d="M241 787q-85 70 -140 170.5t-72.5 204.5t-2.5 208t59.5 184.5t125 131t183.5 50.5q58 -1 111 -16t101.5 -46.5t77 -89.5t28.5 -137q0 -115 -78.5 -195.5t-176.5 -80.5q-76 0 -140.5 47t-71.5 84l111 130q0 -28 21 -50.5t63 -22.5q38 0 61 26.5t23 59.5q0 52 -35 77 t-95 25q-58 -4 -99 -34.5t-60.5 -79.5t-23.5 -110.5t14 -131t50 -137t85 -132.5t120 -114z" />
<glyph unicode="&#xbc1;" horiz-adv-x="1066" d="M75 1122v187h543q85 0 149.5 -13t116.5 -43.5t79.5 -86t27.5 -134.5v-18q0 -62 -24.5 -115.5t-63 -87t-82.5 -52t-84 -18.5h-46q-99 0 -175 82.5t-76 190.5h188q0 -33 22.5 -59.5t65.5 -26.5q42 0 65 27.5t23 57.5q0 60 -46 84.5t-147 24.5h-536z" />
<glyph unicode="&#xbc2;" horiz-adv-x="1431" d="M103 1122v187h362q3 169 120 273t299 104q189 0 306 -100.5t117 -253.5v-620q0 -136 -84 -205t-235 -69h-113v148h113q130 0 130 126v620q0 79 -70.5 123t-163.5 44q-60 0 -110 -17.5t-85.5 -62t-35.5 -110.5q84 -1 147 -14t114 -43.5t77.5 -85.5t26.5 -134v-18 q0 -62 -24.5 -115.5t-62.5 -87t-81.5 -52t-83.5 -18.5h-46q-99 0 -176 82.5t-77 190.5h188q0 -33 23 -59.5t67 -26.5q42 0 64 27t22 58q0 60 -46.5 84.5t-145.5 24.5h-536z" />
<glyph unicode="&#xbc6;" horiz-adv-x="1211" d="M517 0v188q58 0 87.5 43t27.5 117q-3 152 -115 152v187q124 0 215 -88t91 -186v-111q1 -72 -35.5 -140.5t-108.5 -115t-162 -46.5zM96 301v562q0 99 28 185t83.5 154.5t148 108.5t211.5 40v-187q-77 0 -133 -23t-87.5 -65t-46.5 -95t-15 -118v-203q65 27 127 27v-187 q-49 0 -88 -41t-39 -113q0 -70 36 -114t91 -44v-188q-67 0 -128 29t-101 73.5t-63.5 97.5t-23.5 101zM670 1164v187q114 0 201.5 -39.5t140 -108t78.5 -154.5t26 -186v-882h-188v882q0 301 -258 301z" />
<glyph unicode="&#xbc7;" horiz-adv-x="1188" d="M790 720v187q58 0 87.5 42.5t27.5 116.5q-3 151 -115 151v190q122 0 213.5 -89t91.5 -187v-109q1 -53 -20.5 -106.5t-60 -97t-97.5 -71t-127 -27.5zM369 1020v107v2q-86 -69 -86 -187v-486q0 -110 86 -186v8v107q-1 57 21.5 105t57 79.5t78 53.5t84 31.5t75.5 9.5v-189 q-49 0 -87.5 -40.5t-38.5 -112.5q0 -70 35.5 -113.5t90.5 -43.5v-188h-4h-9q-42 0 -87.5 5t-103 18.5t-109.5 34.5t-103 57t-88 81.5t-60 112t-23 145.5v518q0 83 25.5 152t66 115t95 82t108.5 56t112 32.5t98.5 16.5t74.5 4h7v-190q-49 0 -87.5 -40.5t-38.5 -112.5 q0 -70 35.5 -113.5t90.5 -43.5v-187q-89 0 -164 49t-113.5 117t-38.5 134zM790 -23v188q59 0 88 42t27 116q-3 152 -115 152v189q122 0 213.5 -88.5t91.5 -186.5v-110q1 -53 -20.5 -106.5t-60 -97t-97.5 -71t-127 -27.5z" />
<glyph unicode="&#xbc8;" horiz-adv-x="1996" d="M810 301v250q0 252 128 406q-77 13 -193 13v188q239 0 388 -57q135 59 299 59v-190q-46 0 -92 -3q130 -143 130 -391v-275q0 -140 -72 -231t-207 -91v189q91 0 91 133v264q0 234 -151 327q-134 -99 -134 -337v-253q0 -53 22 -93.5t68 -40.5v-189q-87 0 -151.5 47t-95 119 t-30.5 156zM77 299v256q0 117 24.5 212.5t62 157t91.5 107t103.5 69t109 37.5t97 17t76.5 3v-188q-89 -1 -155.5 -22t-118 -67.5t-77.5 -128t-26 -197.5l2 -254q-2 -55 22 -94.5t68 -39.5v-188q-131 0 -205 94.5t-74 225.5zM429 691q-5 45 34.5 92t101.5 53q172 0 172 -285 v-252q0 -140 -73.5 -230t-206.5 -90v189q48 0 70 37t22 94v252q0 74 -30 107t-90 33zM1535 953v188q70 -4 135.5 -44.5t118 -110t84 -175.5t31.5 -231v-270q0 -139 -76 -229.5t-218 -90.5v188q105 0 105 132v270q0 152 -53.5 249.5t-126.5 123.5z" />
<glyph unicode="&#xbca;" horiz-adv-x="2224" d="M1811 0v951h-123v188h471v-188h-161v-951h-187zM1267 0v1139h320v-188h-130v-951h-190zM534 19v188q58 0 87.5 43t27.5 117q-3 152 -115 152v187q124 0 215 -87.5t91 -185.5v-111q1 -72 -35.5 -140.5t-108.5 -115.5t-162 -47zM113 320v562q0 99 28 185t83.5 154.5 t148 108.5t211.5 40v-187q-77 0 -133 -23t-87.5 -65t-46.5 -95t-15 -118v-203q65 27 127 27v-187q-49 0 -88 -40.5t-39 -112.5q0 -70 36 -114.5t91 -44.5v-188q-67 0 -128 29t-101 73.5t-63.5 97.5t-23.5 101zM687 1183v187q114 0 201.5 -39.5t140 -108t78.5 -154.5t26 -186 v-882h-187v882q0 301 -259 301z" />
<glyph unicode="&#xbcb;" horiz-adv-x="2233" d="M790 720v187q58 0 87.5 42.5t27.5 116.5q-3 151 -115 151v190q122 0 213.5 -89t91.5 -187v-109q1 -53 -20.5 -106.5t-60 -97t-97.5 -71t-127 -27.5zM369 1020v107v2q-86 -69 -86 -187v-486q0 -110 86 -186v8v107q-1 57 21.5 105t57 79.5t78 53.5t84 31.5t75.5 9.5v-189 q-49 0 -87.5 -40.5t-38.5 -112.5q0 -70 35.5 -113.5t90.5 -43.5v-188h-4h-9q-42 0 -87.5 5t-103 18.5t-109.5 34.5t-103 57t-88 81.5t-60 112t-23 145.5v518q0 83 25.5 152t66 115t95 82t108.5 56t112 32.5t98.5 16.5t74.5 4h7v-190q-49 0 -87.5 -40.5t-38.5 -112.5 q0 -70 35.5 -113.5t90.5 -43.5v-187q-89 0 -164 49t-113.5 117t-38.5 134zM790 -23v188q59 0 88 42t27 116q-3 152 -115 152v189q122 0 213.5 -88.5t91.5 -186.5v-110q1 -53 -20.5 -106.5t-60 -97t-97.5 -71t-127 -27.5zM1818 0v951h-122v188h471v-188h-161v-951h-188z M1275 0v1139h319v-188h-130v-951h-189z" />
<glyph unicode="&#xbcc;" horiz-adv-x="3020" d="M1267 304v108v13v189q0 71 18 145.5t57 147t93 129t133.5 91.5t171.5 35v-188q-105 0 -181.5 -84t-90.5 -220q68 21 115 21v-188q-49 0 -87.5 -40.5t-38.5 -112.5q0 -70 35.5 -114.5t90.5 -44.5v-187q-89 0 -164 49t-113.5 117t-38.5 134zM1688 4v187q58 0 87.5 43.5 t27.5 117.5q-3 151 -115 151v188q124 0 215 -88t91 -186v-111q1 -72 -35.5 -140.5t-108.5 -115t-162 -46.5zM1843 974v188q198 0 324 -149q78 149 264 149v-190q-75 0 -108 -73t-36 -242l6 -653h-193l-2 622v23v32q-2 119 -72 206t-183 87zM2611 4v968h-77v190h406v-190 h-142v-968h-187zM530 23v188q58 0 87.5 43t27.5 117q-3 152 -115 152v187q124 0 215 -88t91 -186v-111q1 -72 -35.5 -140.5t-108.5 -115t-162 -46.5zM109 323v563q0 99 28 185t83.5 154.5t148 108.5t211.5 40v-187q-77 0 -132.5 -23t-87.5 -65.5t-46.5 -95t-14.5 -117.5 v-203q65 27 126 27v-187q-49 0 -87.5 -41t-38.5 -113q0 -70 35.5 -114t90.5 -44v-188q-89 0 -164 49t-113.5 117t-38.5 134zM683 1187v187q114 0 201.5 -39.5t140 -108t78.5 -154.5t26 -186v-882h-187v882q0 301 -259 301z" />
<glyph unicode="&#xbcd;" horiz-adv-x="0" d="M-119 1391q0 52 36 89.5t87 37.5q50 0 86 -37.5t36 -89.5t-36 -89t-86 -37q-51 0 -87 37t-36 89z" />
<glyph unicode="&#xbd0;" horiz-adv-x="2291" d="M599 -1131q-164 0 -263 94.5t-99 276.5v245q0 195 87.5 291t240.5 96v-188q-84 0 -111 -47.5t-27 -153.5v-247q0 -94 43 -137t148 -43h496v-187h-515zM1236 -944h446q96 0 133.5 39t37.5 137l2 173q0 18 -1.5 32t-2.5 25.5t-6 19t-8 13.5t-12 9t-13.5 5t-18 2.5t-20.5 1 t-25.5 0t-28.5 -0.5v189q67 0 109.5 -4.5t87.5 -21.5t69.5 -48.5t40.5 -86.5t16 -135v-173q0 -82 -18.5 -145t-62 -114.5t-123 -78.5t-192.5 -27h-410v189zM1003 100q0 33 24.5 56.5t57.5 23.5t57 -23.5t24 -56.5q0 -34 -24 -58.5t-57 -24.5t-57.5 24.5t-24.5 58.5z M1252 -829v113q70 0 98 48t28 134v157q0 90 -26 128t-91 38v121q125 0 188 -67t63 -220v-132q0 -82 -13.5 -141t-35.5 -93t-57.5 -54t-70.5 -26t-83 -6zM664 -829v707h134v-594h153v304q0 81 8.5 134.5t32.5 99t71 67t120 21.5v-121q-28 0 -47 -10.5t-29 -25t-15 -44.5 t-6 -53.5t-1 -67.5v-304h86v-113h-507zM534 745q127 0 219.5 -88t92.5 -194v-109q0 -110 -93 -204t-219 -94v189q55 0 89.5 42.5t33.5 116.5q-3 151 -123 151v190zM429 745v-190q-52 0 -90 -37.5t-38 -115.5q0 -72 37 -114.5t91 -42.5v-189q-67 0 -128.5 29.5t-101.5 74 t-64 96t-24 96.5v113v10v118q0 96 10.5 173t38.5 155.5t75 138t123.5 112t180.5 86t248.5 53t324.5 19.5v-187q-281 -3 -447.5 -46t-246 -131.5t-91.5 -238.5q59 18 102 18zM2174 316q0 -66 -32.5 -119t-86.5 -84t-119.5 -46t-135.5 -11t-131 26q2 -41 31.5 -71t78 -45.5 t102.5 -22.5t115 -6v-190q-231 0 -373 84.5t-142 216.5v622h190v-314q0 -41 32 -70t77 -36.5t91 -1.5t78.5 35.5t33.5 74.5v404q0 65 -18.5 118t-69 103.5t-132 84.5t-214.5 54.5t-309 20.5v187q208 0 368.5 -28t266.5 -77t174 -121.5t96.5 -156t28.5 -185.5v-446z" />
<glyph unicode="&#xbd7;" horiz-adv-x="1824" d="M78 301v107v13v190q0 71 18 145.5t57 146.5t93 128.5t133.5 91.5t171.5 35v-188q-105 0 -181.5 -84t-90.5 -220q68 21 115 21v-187q-49 0 -87.5 -41t-38.5 -113q0 -70 35.5 -114t90.5 -44v-188q-67 0 -128 29t-101 73.5t-63.5 97.5t-23.5 101zM500 0v188q58 0 87 43 t27 117q-3 152 -114 152v187q124 0 215 -88t91 -186v-111q1 -72 -35.5 -140.5t-108.5 -115t-162 -46.5zM655 970v188q197 0 323 -149q78 149 264 149v-190q-75 0 -107.5 -73t-35.5 -242l5 -653h-193l-2 622v23v33q-2 119 -71.5 205.5t-182.5 86.5zM1422 0v968h-76v190h405 v-190h-141v-968h-188z" />
<glyph unicode="&#xbe6;" horiz-adv-x="1136" d="M605 1235q116 0 205.5 -53.5t142 -144t78.5 -200.5t26 -234q0 -130 -28.5 -243.5t-83.5 -202t-142.5 -139.5t-197.5 -51v188q71 0 121.5 33.5t78 96t40 140t12.5 178.5q0 57 -3.5 104.5t-12 102.5t-26.5 96.5t-45 77.5t-69 55t-96 19v177zM519 1235v-177q-54 0 -96.5 -19 t-69 -55t-45 -77.5t-27 -96.5t-12 -102.5t-3.5 -104.5q0 -448 253 -448v-188q-146 0 -250 87t-153 228.5t-49 320.5q0 124 26 234t78.5 200.5t142 144t205.5 53.5z" />
<glyph unicode="&#xbe7;" horiz-adv-x="1571" d="M98 423q0 248 239 281v435h289v-192h-98l-2 -237h301v237h-98v192h538v-192h-253v-237h113q92 0 152.5 -14.5t104 -50.5t63 -99t19.5 -159h-189q0 75 -35 108t-111 33h-117v-162q0 -58 -12 -111t-41 -104.5t-73 -88.5t-113.5 -60t-156.5 -23v189q99 0 154 49.5t55 142.5 v168h-396q-43 0 -73 -10.5t-43.5 -28t-18.5 -33.5t-5 -33h-193zM515 -21q-110 0 -191.5 27.5t-129.5 77.5t-71.5 113.5t-24.5 141.5h187q5 -93 57 -132t173 -39v-189zM1053 -21l2 178q58 0 102.5 15.5t68 39.5t35 46.5t12.5 42.5l193 -2q-3 -320 -413 -320z" />
<glyph unicode="&#xbe8;" horiz-adv-x="1881" d="M75 903q0 87 33.5 165t94.5 136.5t153.5 93t202.5 34.5q247 0 393.5 -137t146.5 -372h-190q0 86 -27.5 150t-77 100.5t-110.5 54t-135 17.5q-138 0 -217.5 -73t-77.5 -172q0 -77 49.5 -122t119.5 -45q41 0 75 22t51.5 56.5t24.5 75.5t-6 78h188q17 -81 -4.5 -159 t-68.5 -134.5t-116 -91.5t-143 -35q-68 0 -131 22.5t-114.5 65t-82.5 112.5t-31 158zM182 0v188q136 -1 255.5 31t204.5 85.5t146 122.5t91 144t30 149h190q0 -152 -84 -288.5t-219 -243.5h1011v-188h-1625z" />
<glyph unicode="&#xbe9;" horiz-adv-x="1404" d="M488 0v188h352q88 0 117 13.5t29 62.5v151q0 21 -6 35t-15 21.5t-28.5 11t-36 4.5t-48.5 1v190q62 0 116.5 -12t102.5 -38.5t76 -75t28 -114.5v-226q0 -16 -2 -24h153v-188h-838zM561 339v612h-274v-951h-189v1131v8h859v-188h-209v-612h-187z" />
<glyph unicode="&#xbea;" horiz-adv-x="1691" d="M595 -2v190q209 0 209 170v165h-348q-98 0 -146 -33.5t-48 -129.5q0 -57 13.5 -92t45.5 -52.5t70 -22.5t103 -5v-190q-111 1 -195.5 28.5t-131.5 73.5t-69.5 98.5t-22.5 109.5v98q0 103 65 178t174 107v448h291v-192h-100l-2 -237h301v237h-96v192h565v-192h-282v-237 h429v222h190l-2 -409h-617v-157q0 -73 -20 -135.5t-64 -116.5t-123.5 -85t-188.5 -31z" />
<glyph unicode="&#xbeb;" horiz-adv-x="1896" d="M90 78v481q0 90 24.5 161t62.5 115t89.5 73t102 40t102.5 11v-188q-101 0 -147 -61t-46 -161v-472q0 -117 52 -183t150 -66h477v-188h-496q-160 0 -265.5 121t-105.5 317zM1062 -172h345q47 0 82 22.5t53 59.5t26.5 75.5t8.5 77.5v291q0 85 -32 118t-90 33v186 q72 -1 125.5 -14.5t97 -45.5t66.5 -89.5t23 -139.5v-452q0 -50 -23 -103t-65 -100.5t-113 -78t-157 -30.5l-347 2v188zM618 2v1137h341v-188h-153v-949h-188zM1158 2v949h-96v188h504v-188h-215l-4 -949h-189z" />
<glyph unicode="&#xbec;" horiz-adv-x="2040" d="M595 -2v190q209 0 209 170v165h-348q-98 0 -146 -33.5t-48 -129.5q0 -57 13.5 -92t45.5 -52.5t70 -22.5t103 -5v-190q-111 1 -195.5 28.5t-131.5 73.5t-69.5 98.5t-22.5 109.5v98q0 103 65 178t174 107v448h291v-192h-100l-2 -237h301v237h-96v192h565v-192h-282v-237 h975v-187h-107l-2 -519h-188v519h-203l-2 -519h-187v519h-286v-157q0 -73 -20 -135.5t-64 -116.5t-123.5 -85t-188.5 -31z" />
<glyph unicode="&#xbed;" horiz-adv-x="1399" d="M101 339v71v13v126q0 78 16 157t54 158t92.5 140t138.5 99t186 38v-190q-119 0 -190.5 -78.5t-91.5 -204.5q56 21 111 21v-189q-51 0 -88.5 -37.5t-37.5 -114.5q0 -73 36 -116t90 -43v-187q-140 0 -228 95t-88 242zM523 2v187q55 0 89 42.5t33 116.5q0 75 -31.5 113.5 t-90.5 38.5v189q147 0 229.5 -74.5t82.5 -206.5v-111q2 -108 -92 -201.5t-220 -93.5zM953 0v949h-260v190h654v-190h-206v-949h-188z" />
<glyph unicode="&#xbee;" horiz-adv-x="1948" d="M733 879q4 -62 54.5 -100t117.5 -38q81 0 136.5 46.5t55.5 135.5l132 -140q-8 -92 -102.5 -161t-221.5 -69q-69 0 -126.5 18t-93.5 46.5t-64 63.5t-42 70t-22.5 63.5t-10.5 46.5l-2 18h189zM544 986q0 60 32 120t91 110.5t154.5 82t210.5 31.5q248 0 385 -151.5 t137 -426.5v-256h119v610h187v-1311h-187v515h-117v-182q0 -99 -40.5 -182.5t-122.5 -136t-191 -52.5h-310v187h295q90 1 135 53t45 133v180h-479v186h479v262q0 385 -335 385q-61 0 -112.5 -12.5t-84 -31t-56 -41t-33 -41t-9.5 -31.5h-193zM115 138q0 166 111 263t298 97 h261v-190h-295q-17 0 -37.5 -3.5t-48 -15t-49.5 -29t-37.5 -49.5t-15.5 -73q0 -95 66 -144.5t149 -49.5h270v-187h-284q-164 0 -276 106.5t-112 274.5z" />
<glyph unicode="&#xbef;" horiz-adv-x="1852" d="M595 -2v190q209 0 209 170v165h-348q-98 0 -146 -33.5t-48 -129.5q0 -57 13.5 -92t45.5 -52.5t70 -22.5t103 -5v-190q-111 1 -195.5 28.5t-131.5 73.5t-69.5 98.5t-22.5 109.5v98q0 103 65 178t174 107v448h291v-192h-100l-2 -237h301v237h-96v192h565v-192h-282v-237 h385q87 0 152.5 -12t123.5 -43t89 -92t31 -151v-22q0 -70 -28 -128.5t-70.5 -93t-89 -53.5t-87.5 -19h-46q-109 0 -192.5 87.5t-83.5 208.5h188q0 -56 35 -82.5t78 -26.5q40 0 73.5 27t33.5 80q0 36 -12.5 62t-30.5 39.5t-49.5 21t-56.5 9t-64 1.5h-379v-157 q0 -73 -20 -135.5t-64 -116.5t-123.5 -85t-188.5 -31z" />
<glyph unicode="&#xbf0;" horiz-adv-x="1360" d="M967 0v184q46 0 71.5 27.5t25.5 71.5v848l-199 264h195l194 -256v-861q-1 -31 -8 -64.5t-27.5 -73t-50.5 -69.5t-82.5 -50.5t-118.5 -20.5zM94 279v860h187v-860q0 -95 85 -95v-184q-124 0 -198 78.5t-74 200.5zM469 0v184q22 0 38 3t34 11.5t27.5 29.5t9.5 53v858h186 v-858q0 -56 26.5 -76.5t72.5 -20.5v-184q-44 0 -64.5 1t-48.5 7.5t-46.5 21t-35.5 39.5q-19 -25 -39 -39.5t-48 -21t-48.5 -7.5t-63.5 -1z" />
<glyph unicode="&#xbf1;" horiz-adv-x="1571" d="M1112 0v970h-180v190h567v-190h-197v-970h-190zM75 0v917q0 42 15.5 83.5t46 78t84 59t122.5 22.5v-190q-81 0 -81 -82l6 -888h-193zM448 970v190q66 0 110 -14.5t81 -48.5q38 38 82 50.5t108 12.5v-188q-46 0 -72 -16.5t-26 -63.5l4 -892h-188l-5 890q0 80 -94 80z" />
<glyph unicode="&#xbf2;" horiz-adv-x="2074" d="M1307 -117q-109 0 -175 71.5t-66 177.5q0 44 15 85t43.5 75.5t76 55.5t106.5 21v-147q-35 0 -64.5 -26.5t-29.5 -71.5q0 -46 31.5 -68.5t60.5 -22.5q51 0 83 37.5t32 120.5v332h-429v-157q0 -73 -20 -135.5t-64 -116.5t-123.5 -85t-188.5 -31v190q209 0 209 170v165h-348 q-98 0 -146 -33.5t-48 -129.5q0 -57 13.5 -92t45.5 -52.5t70 -22.5t103 -5v-190q-111 1 -195.5 28.5t-131.5 73.5t-69.5 98.5t-22.5 109.5v98q0 103 65 178t174 107v448h291v-192h-100l-2 -237h301v237h-96v192h565v-192h-282v-237h822v-187h-245v-339q0 -135 -67 -218 t-194 -83zM1185 -494q0 303 258 303h182q96 0 161 54.5t65 167.5q0 107 -65.5 158.5t-168.5 51.5v149q81 0 149.5 -21t122 -63t83.5 -112.5t30 -162.5q0 -101 -30 -175t-83.5 -116t-119 -61.5t-144.5 -19.5h-184q-65 0 -85.5 -29.5t-23.5 -123.5h-147z" />
<glyph unicode="&#xbf3;" horiz-adv-x="1835" d="M498 0v188q54 2 85 42t31 116q0 77 -31.5 115.5t-84.5 38.5v187q129 0 217.5 -79.5t88.5 -194.5v-111q2 -113 -85 -207.5t-221 -94.5zM75 301v107v13v161q0 84 14.5 162.5t50 155t88.5 133t136.5 91t188.5 34.5v-188q-110 0 -187 -84t-85 -220q56 21 111 21v-187 q-51 0 -88.5 -38t-37.5 -116q0 -71 36 -114.5t90 -43.5v-188q-146 0 -231.5 89.5t-85.5 211.5zM651 970v188q92 0 171 -29.5t133 -78t92 -111.5t56 -129t19 -131v-490h639v-189h-913v189q29 1 44.5 4t28.5 14.5t13 33.5v437q-2 124 -80 208t-203 84z" />
<glyph unicode="&#xbf4;" horiz-adv-x="2013" d="M1966 1213q-303 0 -303 259v182q0 107 -59 166.5t-176 59.5q-199 0 -199 -234h-161q0 81 21 151.5t63.5 126.5t113 88t162.5 32q205 0 301.5 -98.5t96.5 -291.5v-182q0 -65 22 -79t118 -17v-163zM1589 1323q0 -108 -77.5 -175t-185.5 -67q-44 0 -87 15t-80 43.5t-60 76.5 t-23 107h160q0 -35 25.5 -63.5t72.5 -28.5q44 0 68 31t24 59q0 101 -159 101h-438v186h446q314 0 314 -285zM655 1175l5 -29q44 12 92 12v-188q-97 0 -97 -139v-642h97v-189h-677v1139h187v-950h205v642q0 162 71 243q-39 36 -63.5 90t-30.5 112t9.5 117t49.5 106t97 77.5 t146 33.5v-188q-64 -9 -94 -49.5t-26.5 -92t29.5 -105.5zM856 0v189q105 0 105 163v479q0 139 -105 139v188q60 0 110 -16.5t92 -52.5t66 -101.5t24 -156.5v-454q0 -101 -24.5 -176.5t-67.5 -118t-93 -62.5t-107 -20z" />
<glyph unicode="&#xbf5;" horiz-adv-x="3234" d="M98 33v1043q0 85 23 153t59 110t84.5 69.5t95.5 38.5t96 11h995v-189h-994q-170 0 -170 -201v-1037q0 -109 44.5 -154t139.5 -45h980v-188h-1005q-155 0 -251.5 100t-96.5 289zM990 970v188q92 0 170.5 -29.5t132 -78t91.5 -111.5t55.5 -129t18.5 -131v-490h196v-189 h-467v189q28 1 43.5 4t28 14.5t12.5 33.5v437q-2 124 -79 208t-202 84zM1552 -168h1003q86 0 116 44.5t30 134.5v223q0 76 -32 107.5t-74 31.5v195q47 -5 93.5 -21.5t93.5 -48.5t76.5 -89t29.5 -130v-325q0 -56 -21 -109.5t-60 -99t-104.5 -73.5t-145.5 -28h-1005v188z M413 301v107v13v161q0 84 14.5 162.5t50 155t89 133t137 91t188.5 34.5v-188q-111 0 -187.5 -83.5t-84.5 -220.5q56 21 111 21v-187q-51 0 -89.5 -38t-38.5 -116q0 -71 36 -114.5t92 -43.5v-188q-67 0 -128.5 29t-101.5 73.5t-64 97.5t-24 101zM835 0v188q54 2 86 42t32 116 q0 77 -32.5 115.5t-85.5 38.5v187q124 0 215 -88t91 -186v-111q2 -113 -85 -207.5t-221 -94.5zM1552 1269v189h1080q89 0 154 -28.5t99 -71.5t59 -98.5t36.5 -105.5t29 -96.5t39.5 -67.5h-193q-21 26 -35 67t-22.5 75t-24 66.5t-50 51.5t-90.5 19h-1082zM1759 0v1139h318 v-188h-130v-951h-188zM2303 0v951h-125v188h473v-188h-161v-951h-187z" />
<glyph unicode="&#xbf6;" horiz-adv-x="1286" d="M467 -345q59 0 82.5 32.5t26.5 96.5h-233q-50 0 -70.5 -32t-0.5 -64.5t69 -32.5h25v-149h-25q-25 0 -53 3t-68 15t-70 31t-52 56.5t-23 86.5v47q0 90 72 138t196 48h235v71q-17 -2 -109 -2v184q51 0 80 21t29 82v645h188v-1001h258v798h188v-945h-448q-2 -46 -9 -81.5 t-26 -74.5t-50.5 -64t-85 -41.5t-126.5 -16.5v149zM92 279v860h189v-860q0 -95 85 -95v-184q-128 0 -201 80.5t-73 198.5z" />
<glyph unicode="&#xbf7;" horiz-adv-x="2118" d="M1550 534v109q63 0 113.5 -24.5t80 -64t45 -85t16.5 -92.5v-266h75v-109h-226v109l10 1q9 2 15.5 4t12.5 6.5t6 11.5v243q-2 61 -41 109t-107 48zM75 299v111v15v-2v126q0 77 16.5 156.5t54 158.5t92 140t138.5 99t185 38v-190q-118 0 -190 -79t-90 -204q56 21 111 21 v-189q-52 0 -89 -37.5t-37 -114.5q0 -73 36 -116t90 -43v-187q-67 0 -128 29.5t-101.5 74.5t-64 96.5t-23.5 96.5zM498 2v187q55 0 89 42.5t33 116.5q-3 152 -122 152v189q127 0 219.5 -87.5t92.5 -193.5v-111q0 -108 -93 -201.5t-219 -93.5zM1460 0v109q28 0 46.5 19.5 t18.5 62.5q0 41 -19.5 62t-45.5 21v109q69 0 121 -51t52 -102v-63q0 -60 -48 -113.5t-125 -53.5zM1229 239v23h-113v-262h-188v949h-262v190h643v-190h-193v-580h115q4 52 19.5 97.5t44.5 87t80.5 65.5t119.5 24v-109q-58 0 -102.5 -40t-45.5 -121q35 10 54 10v-109 q-24 0 -43.5 -21t-19.5 -62q0 -40 18.5 -61t44.5 -21v-109q-71 0 -121.5 54t-50.5 107v73v5zM1937 2v630h107v-630h-107z" />
<glyph unicode="&#xbf8;" horiz-adv-x="2918" d="M387 107v149q102 0 177 -80t75 -163v-42q0 -101 -71 -177.5t-181 -76.5v149q36 0 69.5 28t33.5 95q0 57 -32.5 87.5t-70.5 30.5zM1057 0v188q54 2 85 42t31 116q0 77 -32 115.5t-84 38.5v187q124 0 215 -88t91 -186v-111q1 -72 -35.5 -140.5t-108.5 -115t-162 -46.5z M634 301v107v13v119h-58q-350 0 -350 -270v-36q52 22 99 22v-149q-32 0 -65.5 -28t-33.5 -90q0 -60 34 -91.5t65 -31.5v-149q-97 0 -173.5 77.5t-76.5 180.5v297q0 93 30 166.5t78.5 119.5t115.5 75.5t135 41.5t142 12h63q9 74 30 139.5t59 127.5t90 106.5t127.5 71 t166.5 26.5v-188q-107 0 -182 -78t-88 -205h109v-187q-51 0 -88.5 -38t-37.5 -116q0 -71 35.5 -114.5t90.5 -43.5v-188q-89 0 -164 49t-114 117.5t-39 134.5zM1208 970v188q92 0 171 -29.5t133 -78t92 -111.5t56 -129t19 -131v-490h478v-189h-752v189q29 1 44.5 4t28.5 14.5 t13 33.5v437q-2 124 -80 208t-203 84zM1834 639v190q0 95 23.5 162t69 103.5t101 52t129.5 15.5v-188q-65 0 -99.5 -33.5t-34.5 -123.5v-180q0 -49 9 -80t29.5 -45.5t41 -19t54.5 -4.5v-186q-75 0 -130 14.5t-100.5 50.5t-69 104t-23.5 168zM2685 0h-103v-341h-188v343h-135 v187h135v23h188v-23h103v113h-103v-19h-188v19h-135v188h135v300q0 52 -7.5 88t-17.5 54.5t-30 28t-35.5 11.5t-44.5 2v188q152 0 237.5 -86t85.5 -286v-300h260v-490h-157z" />
<glyph unicode="&#xbf9;" horiz-adv-x="2137" d="M2090 1481q-302 0 -302 259v182q0 107 -59.5 166.5t-176.5 59.5q-199 0 -199 -234h-161q0 81 21 151.5t63.5 126.5t113 88t162.5 32q205 0 301.5 -98.5t96.5 -291.5v-184q0 -64 22 -77.5t118 -16.5v-163zM1713 1591q0 -108 -77 -175t-185 -67q-60 0 -116 25t-96.5 82 t-40.5 135h163q0 -36 25.5 -65t71.5 -29q44 0 68 32t24 60q0 101 -159 101h-438v186h446q314 0 314 -285zM75 57v1061q0 174 89 255.5t248 81.5h178q-19 52 -22 109t14.5 111.5t52 98.5t95.5 72.5t141 31.5v-188q-62 -10 -93 -48t-28 -86t23 -101h31l2 -150l4 -21h-4h-368 q-47 0 -80 -10t-51 -25t-28 -40t-12.5 -46.5t-2.5 -52.5v-1054q1 -111 51 -159t158 -48h404v-188l-431 2q-165 0 -268 101t-103 293zM980 -151h343q164 0 164 195v333q0 80 -39.5 113.5t-82.5 33.5v188q41 -4 78 -12.5t81.5 -29t76.5 -51t54 -81t22 -115.5v-452 q0 -51 -22.5 -104t-64.5 -100.5t-112.5 -77.5t-156.5 -30l-341 2v188zM1068 2v944h-88v193h496v-193h-213l-4 -944h-191zM528 2v1137h351v-193h-159v-944h-192z" />
<glyph unicode="&#xbfa;" horiz-adv-x="2082" d="M1671 1279q0 -108 -78 -175t-186 -67q-60 0 -115.5 25t-95.5 82t-40 135h161q0 -35 26 -64.5t71 -29.5q46 0 70 32t24 60q0 101 -161 101h-436v184h444q316 0 316 -283zM2048 1169q-302 0 -302 259v182q0 107 -60 166.5t-178 59.5q-106 0 -151.5 -64.5t-45.5 -169.5h-163 q0 81 21 151.5t63.5 126.5t113 88t162.5 32q400 0 400 -390v-184q0 -64 22 -78.5t118 -17.5v-161zM882 530v188q49 0 87 -6.5t79 -27t67.5 -55t44 -94.5t17.5 -141v-346q0 -46 -6 -92.5t-27.5 -108t-55.5 -107t-97.5 -77.5t-146.5 -32h-482q-56 0 -80 -43t-24 -149h-195 q0 202 85.5 290.5t251.5 88.5h442q39 0 68 21.5t45 56.5t23.5 73t7.5 79l2 346q1 47 -5.5 75.5t-22.5 41.5t-32 16t-46 3zM126 0v1139h274v-188h-86v-951h-188zM588 0l2 951h-66v188h23q-20 52 -23 109.5t14.5 112.5t52 100t96.5 73.5t142 31.5v-188q-64 -10 -94.5 -50 t-28 -89t26.5 -100h316v-188h-270l2 -951h-193z" />
<glyph unicode="&#xd82;" horiz-adv-x="886" d="M490 86h42q66 0 118 20.5t83 56.5t51.5 75t29.5 87.5t12 81.5t3 68v120q0 35 -3 68t-12 81.5t-29.5 87.5t-51.5 75t-83 56.5t-118 20.5h-42v-199q79 0 105.5 -48.5t26.5 -141.5v-120q0 -93 -26.5 -141.5t-105.5 -48.5v-199zM354 86h40v199q-78 0 -105 49t-27 141v120 q0 92 27 141t105 49v199h-40q-66 0 -118 -20.5t-83 -56.5t-51.5 -75t-29.5 -87.5t-12 -81.5t-3 -68v-120q0 -35 3 -68t12 -81.5t29.5 -87.5t51.5 -75t83 -56.5t118 -20.5z" />
<glyph unicode="&#xd83;" horiz-adv-x="740" d="M417 -13h27q111 0 174 77.5t63 182.5q0 67 -25 123.5t-80 94.5t-132 38h-27v-158q43 0 67.5 -28.5t24.5 -67.5t-24 -67.5t-68 -28.5v-166zM297 -13h26v166q-45 0 -69 28.5t-24 67.5t25 67.5t68 28.5v158h-26q-77 0 -132.5 -38t-80.5 -94.5t-25 -123.5t25.5 -125t81 -96.5 t131.5 -38.5zM417 570h27q111 0 174 77.5t63 183.5q0 67 -25 123.5t-80 94.5t-132 38h-27v-159q43 0 67.5 -28t24.5 -67t-24 -67.5t-68 -28.5v-167zM297 570h26v167q-45 0 -69 28.5t-24 67.5t25 67t68 28v159h-26q-77 0 -132.5 -38t-80.5 -94.5t-25 -123.5t25.5 -125t81 -97 t131.5 -39z" />
<glyph unicode="&#xd85;" horiz-adv-x="1039" d="M641 -323v882h-157q-95 0 -151.5 -42.5t-56.5 -137.5q0 -86 60 -129t156 -43h44v-207h-44q-89 0 -165.5 22.5t-138 67.5t-96.5 119t-35 170q0 192 118 291t315 99h151v18q-7 64 -57.5 98t-118.5 34q-58 0 -104.5 -27t-61.5 -75l-182 60q29 110 124 169.5t216 59.5 q169 0 282 -101q69 63 199 105l44 -218q-85 -21 -113.5 -60.5t-28.5 -100.5v-519h106v-212h-106v-323h-199z" />
<glyph unicode="&#xd86;" horiz-adv-x="1542" d="M1080 0v212h38q75 0 114 43t39 126v298q0 89 -39 135.5t-114 46.5h-38v213h38q188 0 277.5 -102t89.5 -279v-312q0 -177 -89.5 -279t-277.5 -102h-38zM641 -323v882h-157q-95 0 -151.5 -42.5t-56.5 -137.5q0 -86 60 -129t156 -43h44v-207h-44q-89 0 -165.5 22.5 t-138 67.5t-96.5 119t-35 170q0 192 118 291t315 99h151v18q-7 64 -57.5 98t-118.5 34q-58 0 -104.5 -27t-61.5 -75l-182 60q29 110 124 169.5t216 59.5q169 0 282 -101q69 63 199 105l44 -218q-85 -21 -113.5 -60.5t-28.5 -100.5v-519h106v-212h-106v-323h-199z" />
<glyph unicode="&#xd87;" horiz-adv-x="1538" d="M1436 0q-160 0 -259 94.5t-99 290.5v139q0 108 26 166.5t131 197.5h-157v211h403v-201q-56 -76 -76.5 -104t-49.5 -72t-35.5 -59t-16.5 -45.5t-10.5 -51t-0.5 -57.5v-134q0 -73 35.5 -116t108.5 -43h45v-216h-45zM641 -323v882h-157q-95 0 -151.5 -42.5t-56.5 -137.5 q0 -86 60 -129t156 -43h44v-207h-44q-89 0 -165.5 22.5t-138 67.5t-96.5 119t-35 170q0 192 118 291t315 99h151v18q-7 64 -57.5 98t-118.5 34q-58 0 -104.5 -27t-61.5 -75l-182 60q29 110 124 169.5t216 59.5q169 0 282 -101q69 63 199 105l44 -218q-85 -21 -113.5 -60.5 t-28.5 -100.5v-519h106v-212h-106v-323h-199z" />
<glyph unicode="&#xd88;" horiz-adv-x="1540" d="M1080 408q0 65 22 105t108 109h-130v172l151 132h-151v173h403v-173l-155 -132h155v-172q-97 -71 -131 -100t-46 -52t-12 -62v-44q0 -148 143 -148h46v-216h-46q-162 0 -259.5 79t-97.5 252v77zM641 -323v882h-157q-95 0 -151.5 -42.5t-56.5 -137.5q0 -86 60 -129 t156 -43h44v-207h-44q-89 0 -165.5 22.5t-138 67.5t-96.5 119t-35 170q0 192 118 291t315 99h151v18q-7 64 -57.5 98t-118.5 34q-58 0 -104.5 -27t-61.5 -75l-182 60q29 110 124 169.5t216 59.5q169 0 282 -101q69 63 199 105l44 -218q-85 -21 -113.5 -60.5t-28.5 -100.5 v-519h106v-212h-106v-323h-199z" />
<glyph unicode="&#xd89;" horiz-adv-x="1081" d="M373 0v195h73q74 0 138.5 18.5t117 56t83 102t30.5 149.5v147q0 59 -19.5 102t-52.5 65t-69.5 32t-78.5 10v212h31q101 0 191 -43t148.5 -127.5t58.5 -191.5v-245q0 -148 -70 -259.5t-181 -167t-243 -55.5h-157zM128 -153l201 52q12 -46 52 -71t88 -25q59 0 99.5 31.5 t40.5 79.5h208q0 -138 -94.5 -221t-251.5 -83q-135 0 -224 65t-119 172zM57 593v140q0 103 59.5 186t150.5 126.5t192 43.5h31v-212h-31q-69 0 -130 -45t-61 -124v-76q0 -35 23.5 -59t66.5 -24q44 0 67 23.5t23 61.5v65h199v-161q0 -90 -67 -145.5t-222 -55.5 q-145 0 -223 74t-78 182z" />
<glyph unicode="&#xd8a;" horiz-adv-x="1119" d="M823 1265q0 58 41 99t99 41t98.5 -41t40.5 -99q0 -57 -41 -97.5t-98 -40.5q-58 0 -99 41t-41 97zM96 1472q0 58 40.5 99t98.5 41t99 -41t41 -99q0 -56 -41 -97t-99 -41q-57 0 -98 41t-41 97zM57 450v367q0 40 1.5 66t11 73t27 84.5t53 84.5t85.5 88l374 305l252 -67 l-457 -371q-89 -71 -111.5 -115.5t-22.5 -120.5v-394q0 -128 44.5 -184.5t146.5 -56.5v-220q-61 0 -117 14t-109.5 47.5t-92 85t-62 132t-23.5 182.5zM362 911l203 169h101q165 0 233.5 -104.5t68.5 -328.5v-197q0 -107 -21.5 -188.5t-57 -132.5t-88 -82.5t-108.5 -44 t-125 -12.5v219q105 0 146.5 56t41.5 185v187q0 132 -37.5 182t-142.5 50h-214v42z" />
<glyph unicode="&#xd8b;" horiz-adv-x="1075" d="M620 -109v-213q61 0 116.5 8.5t114 31.5t104 59t82 95t52.5 136l-205 57q-12 -51 -40.5 -87t-66.5 -54t-76 -25.5t-81 -7.5zM245 888l178 -67q11 34 44 56t66.5 29t67.5 7q27 0 55 -7.5t57 -23.5t48.5 -47.5t21.5 -74.5h-276q-450 0 -450 -505v-92q0 -115 43 -210.5 t111 -154t146.5 -90t155.5 -31.5v214q-19 1 -42.5 6t-60.5 23t-66 45.5t-50.5 79t-21.5 118.5v92q0 157 61 224.5t180 67.5h469v196q-3 179 -111.5 268.5t-271.5 89.5q-122 0 -223.5 -56.5t-130.5 -156.5z" />
<glyph unicode="&#xd8c;" horiz-adv-x="1833" d="M1430 -15q89 0 166 35t128.5 110.5t51.5 177.5v544q-3 113 -68.5 176t-153.5 63q-86 0 -148 -54t-62 -151v-55q0 -25 -15.5 -39.5t-36.5 -14.5q-22 0 -37 14t-15 40v249h-147v-299q0 -104 60.5 -160t142.5 -56q74 0 128 46.5t54 127.5v94q0 28 15 43.5t36 15.5 q22 0 37 -15.5t15 -43.5v-525q0 -66 -42 -101t-100 -35q-61 0 -106 36t-45 100v79h-195v-79q0 -79 29 -142t77 -101.5t107 -59t124 -20.5zM620 -109v-213q61 0 116.5 8.5t114 31.5t104 59t82 95t52.5 136l-205 57q-12 -51 -40.5 -87t-66.5 -54t-76 -25.5t-81 -7.5zM245 888 l178 -67q11 34 44 56t66.5 29t67.5 7q27 0 55 -7.5t57 -23.5t48.5 -47.5t21.5 -74.5h-276q-450 0 -450 -505v-92q0 -115 43 -210.5t111 -154t146.5 -90t155.5 -31.5v214q-19 1 -42.5 6t-60.5 23t-66 45.5t-50.5 79t-21.5 118.5v92q0 157 61 224.5t180 67.5h469v196 q-3 179 -111.5 268.5t-271.5 89.5q-122 0 -223.5 -56.5t-130.5 -156.5z" />
<glyph unicode="&#xd8d;" horiz-adv-x="1929" d="M57 295v86h211v-71q0 -52 36 -80.5t88 -28.5q54 0 90.5 29t36.5 84v67h195v-67q0 -54 36.5 -83.5t89.5 -29.5t89 28.5t36 80.5v71h210v-86q0 -144 -91 -225t-240 -81q-151 0 -232 97q-78 -97 -222 -97q-148 0 -240.5 84t-92.5 222zM77 890q33 100 116 151.5t188 51.5 q144 0 235 -88q93 90 236 90q106 0 188.5 -52t117.5 -153l-182 -61q-23 74 -126 74q-55 0 -95.5 -34t-40.5 -100h188q273 0 273 -229v-65h-210q0 32 -2 36q-3 75 -90 75h-513q-84 0 -90 -75q-2 -4 -2 -36h-211v65q0 229 274 229h188q0 66 -40.5 100t-95.5 34 q-102 0 -125 -74zM1608 0q-119 0 -205 79.5t-86 209.5q0 120 75.5 202.5t215.5 82.5h23v-178h-23q-48 0 -78.5 -29.5t-30.5 -77.5q0 -43 31.5 -74t77.5 -31q43 0 73 30t30 75v452q0 153 -124 153h-173v199h196q128 0 207.5 -93t79.5 -238v-473q0 -133 -86.5 -211t-202.5 -78 z" />
<glyph unicode="&#xd8e;" horiz-adv-x="2626" d="M2304 0q-119 0 -204.5 79.5t-85.5 209.5q0 120 75 202.5t215 82.5h23v-178h-23q-48 0 -78.5 -29.5t-30.5 -77.5q0 -43 31.5 -74t77.5 -31q43 0 73.5 30t30.5 75v452q0 153 -125 153h-172v199h195q128 0 207.5 -93t79.5 -238v-473q0 -133 -86.5 -211t-202.5 -78zM57 295 v86h211v-71q0 -52 36 -80.5t88 -28.5q54 0 90.5 29t36.5 84v67h195v-67q0 -54 36.5 -83.5t89.5 -29.5t89 28.5t36 80.5v71h210v-86q0 -144 -91 -225t-240 -81q-151 0 -232 97q-78 -97 -222 -97q-148 0 -240.5 84t-92.5 222zM77 890q33 100 116 151.5t188 51.5q144 0 235 -88 q93 90 236 90q106 0 188.5 -52t117.5 -153l-182 -61q-23 74 -126 74q-55 0 -95.5 -34t-40.5 -100h188q273 0 273 -229v-65h-210q0 32 -2 36q-3 75 -90 75h-513q-84 0 -90 -75q-2 -4 -2 -36h-211v65q0 229 274 229h188q0 66 -40.5 100t-95.5 34q-102 0 -125 -74zM1608 0 q-119 0 -205 79.5t-86 209.5q0 120 75.5 202.5t215.5 82.5h23v-178h-23q-48 0 -78.5 -29.5t-30.5 -77.5q0 -43 31.5 -74t77.5 -31q43 0 73 30t30 75v452q0 153 -124 153h-173v199h196q128 0 207.5 -93t79.5 -238v-473q0 -133 -86.5 -211t-202.5 -78z" />
<glyph unicode="&#xd8f;" horiz-adv-x="1820" d="M57 387h201q0 -41 2 -60q72 0 125 -53q-10 55 -10 107h213q0 -104 65.5 -149.5t190.5 -45.5h132q127 0 193 46t66 149h212q0 -50 -10 -105q48 51 123 51q2 19 2 60h201q0 -187 -50 -301q-21 -44 -61.5 -70.5t-91.5 -26.5q-67 0 -116 47t-54 113q-107 -168 -423 -168h-108 q-327 0 -428 166q-5 -66 -54.5 -112t-116.5 -46q-51 0 -91.5 26.5t-61.5 70.5q-50 108 -50 301zM377 475q0 86 22 144.5t65 90.5t97 45.5t128 13.5h124q0 66 -40.5 100t-94.5 34q-104 0 -127 -74l-72 25q-19 5 -52 5q-72 0 -120.5 -52.5t-48.5 -182.5v-144h-201v177 q0 177 99 292t250 115q53 0 97 -13q75 42 173 42q144 0 235 -88q93 90 235 90q98 0 173 -42q45 11 95 11q151 0 250 -115t99 -292v-177h-201v144q0 68 -15 116.5t-41 73t-53.5 35t-59.5 10.5q-30 0 -49 -5l-75 -25q-23 74 -124 74q-55 0 -95.5 -34t-40.5 -100h111 q83 0 139.5 -12.5t101 -44t65.5 -90t21 -147.5h-211q0 55 -21.5 83t-89.5 28h-421q-37 0 -62 -9.5t-36 -27t-14.5 -34.5t-3.5 -40h-211z" />
<glyph unicode="&#xd90;" horiz-adv-x="2612" d="M2207 -15q-65 0 -124 20.5t-107 59t-77 101.5t-29 142v79h195v-79q0 -64 45 -100t106 -36q58 0 100 35t42 101v525q0 28 -15 43.5t-37 15.5q-21 0 -36 -15.5t-15 -43.5v-94q0 -81 -54 -127.5t-128 -46.5q-82 0 -142.5 56t-60.5 160v299h147v-249q0 -26 15 -40t37 -14 q21 0 36.5 14.5t15.5 39.5v55q0 97 62 151t148 54q88 0 153.5 -63t68.5 -176v-544q0 -102 -51.5 -177.5t-128.5 -110.5t-166 -35zM57 387h201q0 -41 2 -60q72 0 125 -53q-10 55 -10 107h213q0 -104 65.5 -149.5t190.5 -45.5h132q127 0 193 46t66 149h212q0 -50 -10 -105 q48 51 123 51q2 19 2 60h201q0 -187 -50 -301q-21 -44 -61.5 -70.5t-91.5 -26.5q-67 0 -116 47t-54 113q-107 -168 -423 -168h-108q-327 0 -428 166q-5 -66 -54.5 -112t-116.5 -46q-51 0 -91.5 26.5t-61.5 70.5q-50 108 -50 301zM377 475q0 86 22 144.5t65 90.5t97 45.5 t128 13.5h124q0 66 -40.5 100t-94.5 34q-104 0 -127 -74l-72 25q-19 5 -52 5q-72 0 -120.5 -52.5t-48.5 -182.5v-144h-201v177q0 177 99 292t250 115q53 0 97 -13q75 42 173 42q144 0 235 -88q93 90 235 90q98 0 173 -42q45 11 95 11q151 0 250 -115t99 -292v-177h-201v144 q0 68 -15 116.5t-41 73t-53.5 35t-59.5 10.5q-30 0 -49 -5l-75 -25q-23 74 -124 74q-55 0 -95.5 -34t-40.5 -100h111q83 0 139.5 -12.5t101 -44t65.5 -90t21 -147.5h-211q0 55 -21.5 83t-89.5 28h-421q-37 0 -62 -9.5t-36 -27t-14.5 -34.5t-3.5 -40h-211z" />
<glyph unicode="&#xd91;" horiz-adv-x="1148" d="M132 768q16 53 47 90.5t69 56t72.5 26.5t68.5 8q59 0 114.5 -20t89.5 -56q36 -38 52.5 -83.5t16.5 -117.5v-157h-185q-58 0 -95 -37t-37 -107q0 -65 49.5 -112t145.5 -47v-220q-182 0 -294 111.5t-112 263.5q0 91 40 148h-117v161h395l48 7q0 51 -32.5 77.5t-78.5 26.5 q-31 0 -61 -14.5t-39 -45.5zM798 875q-146 19 -214.5 105.5t-68.5 211.5v253h130q100 0 178 -22.5t140 -73t95 -141.5t33 -218v-517q0 -240 -110 -360t-334 -121v220q230 0 230 261v480q0 148 -50.5 215t-181.5 67v-44q0 -158 153 -177v-139z" />
<glyph unicode="&#xd92;" horiz-adv-x="1148" d="M57 515v161h395l48 7q0 51 -32.5 77.5t-78.5 26.5q-31 0 -61 -14.5t-39 -45.5l-157 41q16 53 47 90.5t69 56t72.5 26.5t68.5 8q59 0 114.5 -20t89.5 -56q36 -38 52.5 -83.5t16.5 -117.5v-157h-185q-58 0 -95 -37t-37 -107q0 -65 49.5 -112t145.5 -47v-220 q-182 0 -294 111.5t-112 263.5q0 91 40 148h-117zM515 1192v253h130q140 0 235 -44v167h209v-519q2 -19 2 -59v-517q0 -240 -110 -360t-334 -121v220q230 0 230 261v480q0 148 -50.5 215t-181.5 67v-44q0 -158 153 -177v-139q-146 19 -214.5 105.5t-68.5 211.5z" />
<glyph unicode="&#xd93;" horiz-adv-x="2003" d="M988 768q16 53 46.5 90.5t68.5 56t72.5 26.5t68.5 8q60 0 115.5 -20.5t89.5 -55.5q36 -38 52.5 -83.5t16.5 -117.5v-157h-186q-58 0 -95 -37t-37 -107q0 -65 49.5 -112t145.5 -47v-220q-182 0 -293.5 111.5t-111.5 263.5q0 91 40 148h-117v161h394l48 7q0 51 -32.5 77.5 t-78.5 26.5q-31 0 -60.5 -14.5t-38.5 -45.5zM1654 875q-146 19 -215 105.5t-69 211.5v253h131q100 0 178 -22.5t140 -73t95 -141.5t33 -218v-517q0 -240 -110 -360t-334 -121v220q229 0 229 261v480q0 148 -50 215t-181 67v-44q0 -158 153 -177v-139zM477 880h-64 q-73 0 -112 -47t-39 -123v-331q0 -92 29.5 -141t108.5 -49v-199h-40q-57 0 -104 16t-78 41.5t-54 61t-35.5 70t-20 75t-9.5 68.5t-2 57v331q0 49 8.5 96t32 98t60 89t98.5 62.5t142 24.5h119q66 0 122 -24.5t91 -63.5t56 -82t26 -85l-188 -48q-8 41 -42.5 72t-104.5 31z M446 479v199h166q96 0 150.5 -42t54.5 -148v-187q0 -131 -72 -221t-198 -90h-55v199q120 0 120 119v102q0 19 -5.5 32.5t-13 20.5t-22 11t-26 4.5t-30.5 0.5h-69z" />
<glyph unicode="&#xd94;" horiz-adv-x="1144" d="M367 -11q-138 0 -224 82.5t-86 219.5v377q0 112 73.5 176.5t170.5 64.5q90 0 154 -54.5t64 -153.5v-54q0 -21 13 -32.5t31 -11.5q17 0 30.5 12t13.5 32v251h147v-264q0 -92 -58 -144t-135 -52q-73 0 -125.5 45t-52.5 124v44q0 31 -17 48t-41 17t-41.5 -18t-17.5 -49v-343 q0 -44 32 -76.5t85 -32.5q50 0 80.5 32.5t30.5 76.5v75h159v-75q0 -45 30 -77t81 -32q52 0 83.5 32.5t31.5 76.5v670q0 68 -13 116t-34.5 75.5t-58 43t-73 20t-91.5 4.5v210q251 0 364.5 -105t113.5 -349v-700q0 -137 -85.5 -219.5t-224.5 -82.5q-58 0 -113 23t-92 68 q-37 -45 -92 -68t-113 -23zM276 1028l-209 53q0 105 64.5 190t163 129.5t205.5 44.5v-210q-97 0 -160.5 -50.5t-63.5 -156.5z" />
<glyph unicode="&#xd95;" horiz-adv-x="1144" d="M367 -11q-138 0 -224 82.5t-86 219.5v377q0 112 73.5 176.5t170.5 64.5q90 0 154 -54.5t64 -153.5v-54q0 -21 13 -32.5t31 -11.5q17 0 30.5 12t13.5 32v251h147v-264q0 -95 -55 -145.5t-132 -50.5q-74 0 -129 45.5t-55 123.5v44q0 31 -17 48t-41 17t-41.5 -18t-17.5 -49 v-343q0 -44 32 -76.5t85 -32.5q50 0 80.5 32.5t30.5 76.5v75h159v-75q0 -45 30 -77t81 -32q52 0 83.5 32.5t31.5 76.5v571q0 102 -52 137t-161 35h-540v199h67q-55 47 -55 117q0 77 68 140t158 63h172v-180h-111q-46 0 -67 -20.5t-21 -50.5t23.5 -49.5t64.5 -19.5h241 q224 0 322.5 -84.5t98.5 -256.5v-616q0 -137 -85.5 -219.5t-224.5 -82.5q-58 0 -113 23t-92 68q-37 -45 -92 -68t-113 -23zM867 1288q0 28 -8 47t-20 29.5t-35 16t-42.5 6.5t-53.5 1h-65v180h107q83 0 143 -15t94.5 -39.5t54.5 -62.5t26 -75t6 -88h-207z" />
<glyph unicode="&#xd96;" horiz-adv-x="1954" d="M1550 -15q-65 0 -124 20.5t-107 59t-77 101.5t-29 142v79h196v-79q0 -64 45 -100t106 -36q58 0 100 35t42 101v525q0 28 -15 43.5t-37 15.5q-21 0 -36.5 -15.5t-15.5 -43.5v-94q0 -81 -54 -127.5t-128 -46.5q-82 0 -142.5 56t-60.5 160v299h148v-249q0 -26 15 -40t37 -14 q20 0 35.5 14.5t15.5 39.5v55q0 97 62.5 151t148.5 54q88 0 153.5 -63t68.5 -176v-544q0 -102 -51.5 -177.5t-129 -110.5t-166.5 -35zM367 -11q-138 0 -224 82.5t-86 219.5v377q0 112 73.5 176.5t170.5 64.5q90 0 154 -54.5t64 -153.5v-54q0 -21 13 -32.5t31 -11.5 q17 0 30.5 12t13.5 32v251h147v-264q0 -92 -58 -144t-135 -52q-73 0 -125.5 45t-52.5 124v44q0 31 -17 48t-41 17t-41.5 -18t-17.5 -49v-343q0 -44 32 -76.5t85 -32.5q50 0 80.5 32.5t30.5 76.5v75h159v-75q0 -45 30 -77t81 -32q52 0 83.5 32.5t31.5 76.5v670q0 68 -13 116 t-34.5 75.5t-58 43t-73 20t-91.5 4.5v210q251 0 364.5 -105t113.5 -349v-700q0 -137 -85.5 -219.5t-224.5 -82.5q-58 0 -113 23t-92 68q-37 -45 -92 -68t-113 -23zM276 1028l-209 53q0 105 64.5 190t163 129.5t205.5 44.5v-210q-97 0 -160.5 -50.5t-63.5 -156.5z" />
<glyph unicode="&#xd9a;" horiz-adv-x="1508" d="M59 848q13 64 47 111.5t79 73.5t91.5 38t92.5 12q89 0 159 -35t100 -87q78 63 174 96.5t193 33.5q91 0 171.5 -29.5t145 -86.5t102 -151t37.5 -213v-226q0 -387 -364 -387v216q78 0 114.5 42.5t36.5 128.5v206q0 130 -79.5 209t-190.5 79q-110 0 -197 -77l-476 -392 q9 -22 9 -43v-86q0 -38 25.5 -59t59.5 -21q33 0 56.5 20.5t23.5 59.5v100h157v-98q0 -40 25 -62t59 -22q37 0 63.5 22.5t26.5 61.5v125q0 73 -30 111t-112 61l154 124q97 -32 141 -96.5t44 -178.5v-180q0 -118 -79 -189t-183 -71q-117 0 -188 80q-60 -80 -170 -80 q-96 0 -174.5 63t-78.5 155v40q0 25 -2 40t-12 29.5t-30 14.5l-23 -6v163l423 348q-18 30 -49 45t-62 15q-50 0 -85 -30t-45 -76z" />
<glyph unicode="&#xd9b;" horiz-adv-x="1175" d="M827 -11q-58 0 -119 21v-134h-207v637q0 63 -35 98.5t-83 35.5t-83.5 -36t-35.5 -98v-140q0 -85 32 -123t112 -38v-212q-100 0 -170 26t-108.5 75.5t-55.5 111t-17 143.5v172q0 107 49.5 184.5t123.5 113t160 35.5q83 0 154 -32.5t117.5 -101.5t46.5 -162v-247 q0 -46 29.5 -72t68.5 -26q40 0 68.5 26t28.5 72v647q0 144 -52 207t-177 63h-50v210h50q105 0 184 -25t138.5 -80t90.5 -149t31 -226v-617q0 -93 -24.5 -164.5t-66.5 -112.5t-92.5 -61.5t-107.5 -20.5zM295 1028l-209 53q0 105 64 190t162 129.5t205 44.5v-210 q-97 0 -159.5 -50.5t-62.5 -156.5z" />
<glyph unicode="&#xd9c;" horiz-adv-x="1364" d="M429 -15q-185 0 -278.5 110t-93.5 294v287q0 184 93.5 294t278.5 110v-217q-157 0 -157 -201v-273q0 -188 157 -188v-216zM936 -15v216q157 0 157 188v273q0 201 -157 201v217q185 0 278 -110t93 -294v-287q0 -184 -93 -294t-278 -110zM484 479v197q0 404 345 404v-217 q-35 0 -60 -12t-38.5 -29.5t-21.5 -44.5t-10 -49.5t-2 -51.5v-33q78 -8 126 -71.5t48 -186.5v-79q0 -321 -335 -321v216q143 0 143 140q0 23 -2.5 40.5t-12 41t-32.5 38t-58 18.5h-90z" />
<glyph unicode="&#xd9d;" d="M427 -15q-128 0 -210.5 83.5t-82.5 222.5v86h211v-75q0 -43 27 -73t74 -30q101 0 101 105q0 86 85 86h122q84 0 84 -86q0 -105 102 -105q47 0 74 30t27 73v75h211v-86q0 -139 -82.5 -222.5t-210.5 -83.5q-108 0 -162 48.5t-54 136.5q0 60 -50 60t-50 -60 q0 -88 -54 -136.5t-162 -48.5zM153 890q33 100 116 151.5t188 51.5q145 0 236 -88q93 90 235 90q106 0 189 -52t118 -153l-182 -61q-23 74 -127 74q-53 0 -93.5 -34.5t-40.5 -99.5h186q274 0 274 -229v-65h-211v26q0 42 -24 63.5t-68 21.5h-509q-95 0 -95 -85v-26h-211 q0 44 2 55q0 44 19 56h-98v183h538q0 66 -40.5 100t-95.5 34q-101 0 -124 -74z" />
<glyph unicode="&#xd9e;" horiz-adv-x="1127" d="M383 -11q-145 0 -235.5 82.5t-90.5 219.5v103q0 53 4.5 89.5t20 74.5t43 61.5t76.5 38t117 14.5h138q30 0 46.5 18t16.5 43t-16.5 42t-45.5 17h-124q-43 0 -60 -19t-17 -42h-155q0 94 60 157t170 63h136q102 0 159 -64.5t57 -153.5q0 -90 -57 -155t-159 -65h-77 q-70 0 -96 -21.5t-26 -70.5v-119q0 -34 26.5 -67.5t82.5 -33.5q55 0 80 32.5t25 68.5v79h159v-79q0 -36 25.5 -68.5t81.5 -32.5q55 0 81.5 33.5t26.5 67.5v657q0 153 -51 212.5t-187 59.5v212q110 0 190.5 -23t141 -74.5t90.5 -140.5t30 -215v-699q0 -137 -82.5 -219.5 t-212.5 -82.5q-129 0 -207 91q-33 -45 -82.5 -68t-102.5 -23zM69 1080q0 103 67 188.5t167.5 130t207.5 44.5v-210q-46 0 -86.5 -11.5t-74.5 -35t-54 -65.5t-20 -97z" />
<glyph unicode="&#xd9f;" horiz-adv-x="1705" d="M57 400v149q0 73 4.5 129.5t16.5 113.5t33 99t55 79t81 60.5t112.5 36.5t147.5 13h262v-217q-58 0 -94.5 -30t-49.5 -72.5t-13 -98.5v-273q0 -188 157 -188v-216q-184 0 -276.5 110t-94.5 294v287q0 99 33 187q-45 -1 -76.5 -19t-49 -44t-27 -70t-12 -83t-2.5 -98v-149 q0 -91 5.5 -138.5t34 -109.5t88.5 -133l-201 -63q-80 104 -107 203t-27 241zM1277 -15v216q85 0 122 52.5t37 135.5v273q0 88 -36.5 144.5t-122.5 56.5v217q185 0 278 -110t93 -294v-287q0 -184 -93 -294t-278 -110zM827 479v197q0 404 342 404v-217q-35 0 -60 -12.5 t-38.5 -29.5t-21 -44.5t-9.5 -48.5t-3 -52v-33q79 -8 127 -71t48 -187v-79q0 -321 -335 -321v216q143 0 143 140q0 127 -107 138h-86z" />
<glyph unicode="&#xda0;" horiz-adv-x="1148" d="M540 -8v213q-94 0 -144 50t-50 118q0 58 36 100t95 42h185v157q0 72 -16.5 117.5t-52.5 83.5q-34 36 -89.5 56t-114.5 20q-34 0 -68.5 -8t-72.5 -26.5t-69 -56t-47 -90.5l157 -41q9 31 39 45.5t61 14.5q46 0 78.5 -26.5t32.5 -77.5l-48 -7h-395v-161h117 q-40 -54 -40 -148q0 -152 112 -263.5t294 -111.5zM647 -8q224 1 334 121t110 360v518q0 240 -115.5 347t-328.5 107v-210q125 0 178.5 -64.5t53.5 -207.5v-490q0 -268 -232 -268v-213zM337 1028q0 99 60 153t143 54v210q-100 0 -194.5 -47t-156 -132t-61.5 -185z" />
<glyph unicode="&#xda1;" horiz-adv-x="1234" d="M549 -19q-253 0 -369.5 97t-116.5 303h213q0 -104 66 -149.5t192 -45.5h132q127 0 192 46t65 149v86l-110 -2q-78 0 -143 32.5t-107 88.5h-169q-37 0 -62 -9.5t-36.5 -27t-15.5 -34.5t-4 -40h-211q0 86 22 144.5t65 90.5t97 45.5t128 13.5h123q0 64 -40.5 99t-93.5 35 q-104 0 -127 -74l-182 61q34 100 117 151.5t188 51.5q156 0 231 -96l10 10l385 507l220 -57l-293 -387q84 -29 140 -99.5t63 -160.5l-188 -8q-8 41 -40.5 67.5t-74.5 26.5q-50 0 -85 -35t-35 -84q0 -50 35 -85t85 -35h165q87 0 121 -41t34 -113v-122q0 -201 -117.5 -300.5 t-362.5 -99.5h-106z" />
<glyph unicode="&#xda2;" horiz-adv-x="1230" d="M57 890q34 101 117.5 152t189.5 51q145 0 233 -88l387 509l218 -57l-281 -372q77 -18 134.5 -67t83.5 -128l-182 -61q-23 74 -124 74q-55 0 -95.5 -34t-40.5 -100h111q83 0 139.5 -12.5t101 -44t65.5 -90t21 -147.5h-211q0 55 -21.5 83t-89.5 28h-421q-37 0 -62 -9.5 t-36 -27t-14.5 -34.5t-3.5 -40h-211q0 86 22 144.5t65 90.5t97 45.5t128 13.5h124q0 66 -40.5 100t-94.5 34q-104 0 -127 -74zM547 -19q-253 0 -368.5 96.5t-115.5 303.5h213q0 -104 65.5 -149.5t190.5 -45.5h132q127 0 193 46t66 149h212q0 -201 -118 -300.5t-362 -99.5 h-108z" />
<glyph unicode="&#xda3;" horiz-adv-x="2160" d="M57 325v163l422 350q-16 28 -47.5 43t-62.5 15q-50 0 -85 -30t-45 -76l-180 58q13 64 47 111.5t79 73.5t91.5 38t92.5 12q89 0 159 -35t100 -87l6 6q183 139 419 139q90 0 168.5 -23.5t143 -71t104.5 -127t47 -183.5h-40q-89 0 -132.5 -49t-43.5 -129v-221 q0 -34 26 -67.5t81 -33.5t81 33t26 68v79h159v-79q0 -36 25 -68.5t80 -32.5q56 0 82.5 33.5t26.5 67.5v661q0 150 -56 211t-193 61v210q110 0 192.5 -23t145 -75t94.5 -141t32 -215v-700q0 -137 -82.5 -219.5t-212.5 -82.5q-59 0 -114.5 23t-92.5 68q-33 -45 -83 -68 t-103 -23q-145 0 -235 82.5t-90 219.5v235q0 231 155 307q-70 67 -199 67q-157 0 -274 -98l-476 -392q9 -22 9 -43v-86q0 -38 25.5 -59t59.5 -21q33 0 56.5 20.5t23.5 59.5v100h157v-98q0 -40 25 -62t59 -22q37 0 63.5 22.5t26.5 61.5v125q0 73 -30 111t-112 61l154 124 q97 -32 141 -96.5t44 -178.5v-180q0 -118 -79 -189t-183 -71q-117 0 -188 80q-60 -80 -170 -80q-96 0 -174.5 63t-78.5 155v40q0 25 -2 40t-12 29.5t-30 14.5zM1137 1221q47 105 156.5 164.5t237.5 59.5v-210q-143 0 -187 -87z" />
<glyph unicode="&#xda4;" horiz-adv-x="2206" d="M377 325v163l423 348q-18 30 -49 45t-62 15q-50 0 -85 -30t-45 -76l-44 14q-58 17 -88 17q-74 0 -118.5 -60t-44.5 -193v-193q0 -124 26 -200t114 -181l-201 -63q-83 106 -114.5 207t-31.5 237v193q0 114 30.5 204t82 144t114 82t131.5 28q44 0 71 -6q84 63 203 63 q89 0 159 -36t99 -88q113 92 214.5 134t233.5 42v-201q-83 0 -154.5 -34t-149.5 -98l-477 -392q10 -25 10 -43v-86q0 -38 25.5 -59t58.5 -21t57 20.5t24 59.5v100h157v-98q0 -40 25 -62t61 -22q35 0 61.5 22.5t26.5 61.5v125q0 73 -30 111t-112 61l153 124q104 -35 148 -105 q109 163 373 163h136q0 45 -20 78.5t-48.5 51t-70.5 27.5t-74.5 12.5t-73.5 2.5v199q77 0 144.5 -9.5t135.5 -35.5t115.5 -67t77.5 -109t30 -156v-199h-358q-95 0 -152 -42.5t-57 -135.5q0 -87 60.5 -130.5t156.5 -43.5h72q147 0 194 109l195 -52q-27 -86 -91 -147.5 t-140 -89t-158 -27.5h-72q-113 0 -206.5 36t-151.5 108q-31 -71 -98 -112t-143 -41q-117 0 -188 80q-60 -80 -168 -80q-98 0 -176.5 63t-78.5 155v40q0 25 -2 40t-12 29.5t-30 14.5zM1862 -392q-156 0 -251 83.5t-95 220.5h209q0 -47 40.5 -79t98.5 -32q48 0 87.5 26 t50.5 72l203 -52q-31 -109 -120 -174t-223 -65z" />
<glyph unicode="&#xda5;" horiz-adv-x="2055" d="M1504 -11q-216 0 -329 141q-75 -145 -298 -145v216q143 0 143 140q0 127 -107 138h-86v197q0 192 93 300t284 109h40v-216h-40q-85 -1 -125 -54.5t-42 -138.5v-33q72 -9 121 -78q50 72 136 112.5t201 40.5h143q0 31 -11.5 56t-30 40.5t-43 26.5t-50.5 15.5t-52.5 8 t-49 2.5t-38.5 0h-14v218q49 0 83.5 -1.5t91.5 -9t98 -21.5t88 -42t76 -66.5t49 -98.5t20 -136v-199h-358q-93 0 -143.5 -42.5t-50.5 -110.5t53 -115.5t148 -47.5h73q146 0 193 109l194 -51q-27 -86 -90.5 -147.5t-139 -89t-157.5 -27.5h-73zM57 383v166q0 73 4.5 129.5 t16.5 113.5t33 99t55 79t81 60.5t112.5 36.5t147.5 13h262v-217q-58 0 -94.5 -30t-49.5 -72.5t-13 -98.5v-273q0 -188 157 -188v-216q-184 0 -276.5 110t-94.5 294v287q0 99 33 187q-45 -1 -76.5 -19t-49 -44t-27 -70t-12 -83t-2.5 -98v-166q0 -123 26 -199.5t114 -181.5 l-201 -63q-83 106 -114.5 207.5t-31.5 236.5zM1711 -402q-156 0 -251 83.5t-95 220.5h208q0 -47 41.5 -79t98.5 -32q48 0 88.5 26t51.5 72l203 -52q-31 -109 -120.5 -174t-224.5 -65z" />
<glyph unicode="&#xda6;" horiz-adv-x="1550" d="M197 -59q-82 105 -111 201.5t-29 234.5v268q0 187 104 303t258 116q55 0 104 -6q73 35 158 35q146 0 234 -88l387 509l218 -57l-282 -372q77 -18 135 -67t84 -128l-182 -61q-23 74 -125 74q-55 0 -95.5 -34t-40.5 -100h111q83 0 139.5 -12.5t101 -44t66 -90t21.5 -147.5 h-211q0 55 -21.5 83t-89.5 28h-421q-37 0 -62 -9.5t-36 -27t-15 -34.5t-4 -40h-210q0 86 22 144.5t65 90.5t97 45.5t128 13.5h124q0 66 -40.5 100t-95.5 34q-103 0 -126 -74l-73 25q-26 5 -53 5q-78 0 -125.5 -58.5t-47.5 -189.5v-228q0 -123 25.5 -199.5t112.5 -179.5z M865 -19q-253 0 -368.5 96.5t-115.5 303.5h212q0 -104 65.5 -149.5t191.5 -45.5h132q127 0 192.5 46t65.5 149h213q0 -201 -118.5 -300.5t-362.5 -99.5h-107z" />
<glyph unicode="&#xda7;" horiz-adv-x="1064" d="M61 505v-111q0 -53 14.5 -108t46 -108t77 -94t113 -66.5t147.5 -25.5v213q-89 0 -138 62t-49 146v92q0 95 49 142.5t138 47.5v210q-398 0 -398 -400zM568 -8q102 0 181 27.5t127 71.5t78 106.5t41.5 124.5t11.5 134v535q0 229 -106.5 341.5t-332.5 112.5v-210 q52 0 90.5 -11t70.5 -39t48.5 -80t16.5 -129v-505q0 -151 -58.5 -208.5t-167.5 -57.5v-213zM57 1081l209 -53q0 99 56.5 153t136.5 54v210q-97 0 -189 -47t-152.5 -132t-60.5 -185z" />
<glyph unicode="&#xda8;" horiz-adv-x="1135" d="M390 -11q-145 0 -235 82.5t-90 219.5v235q0 385 387 385h51v-210h-51q-89 0 -132.5 -49t-43.5 -129v-221q0 -34 26 -67.5t81 -33.5t81 33t26 68v79h159v-79q0 -36 25 -68.5t80 -32.5q56 0 82.5 33.5t26.5 67.5v651q0 149 -49.5 215.5t-181.5 66.5v-44q0 -158 153 -177 v-139q-145 19 -214.5 106t-69.5 211v253h131q100 0 178 -22.5t140 -73t95 -141.5t33 -218v-699q0 -137 -82.5 -219.5t-212.5 -82.5q-59 0 -114.5 23t-92.5 68q-33 -45 -83 -68t-103 -23z" />
<glyph unicode="&#xda9;" horiz-adv-x="1205" d="M461 -11q-143 0 -232 82.5t-89 219.5v138q0 69 25 84h-108v161h500q0 56 -32 83.5t-79 27.5q-32 0 -61.5 -14t-38.5 -46l-157 41q16 53 47 90.5t69 56t72.5 26.5t68.5 8q60 0 115.5 -20.5t89.5 -55.5q36 -38 52.5 -83.5t16.5 -117.5v-157h-286q-88 0 -88 -84v-127 q0 -34 26.5 -67.5t81.5 -33.5t80 32.5t25 68.5v79h161v-79q0 -36 25 -68.5t80 -32.5t81 33.5t26 67.5v661q0 152 -50 212t-183 60v210q109 0 189.5 -23t140 -75t89.5 -141t30 -215v-700q0 -137 -82 -219.5t-212 -82.5q-59 0 -114.5 23t-92.5 68q-33 -45 -83 -68t-103 -23z M149 1081q0 79 39 148.5t102.5 116t142 73t158.5 26.5v-210q-98 0 -166.5 -51t-68.5 -156z" />
<glyph unicode="&#xdaa;" horiz-adv-x="1205" d="M461 -11q-143 0 -232 82.5t-89 219.5v138q0 69 25 84h-108v161h500q0 56 -32 83.5t-79 27.5q-32 0 -61.5 -14t-38.5 -46l-157 41q16 53 47 90.5t69 56t72.5 26.5t68.5 8q60 0 115.5 -20.5t89.5 -55.5q36 -38 52.5 -83.5t16.5 -117.5v-157h-286q-88 0 -88 -84v-127 q0 -34 26.5 -67.5t81.5 -33.5t80 32.5t25 68.5v79h161v-79q0 -36 25 -68.5t80 -32.5q56 0 82.5 33.5t26.5 67.5v651q0 148 -50.5 215t-181.5 67v-44q0 -158 154 -177v-139q-146 19 -215 105.5t-69 211.5v253h130q100 0 178 -22.5t140 -73t95 -141.5t33 -218v-699 q0 -137 -82 -219.5t-212 -82.5q-59 0 -114.5 23t-92.5 68q-33 -45 -83 -68t-103 -23z" />
<glyph unicode="&#xdab;" horiz-adv-x="1915" d="M6 38q38 92 117.5 158t180.5 66q62 0 159.5 -25t137.5 -25q165 0 165 217v250q0 280 -232 280q-58 0 -102 -20t-66.5 -52t-33 -63t-10.5 -60q0 -27 8.5 -55t27 -57t55.5 -47.5t87 -18.5h101v-205h-142q-144 0 -244 105t-100 276q0 95 35.5 172t95 125.5t134 74.5 t154.5 26q84 0 147 -15l280 367l222 -57l-316 -416q60 -67 80 -157.5t20 -202.5v-250q0 -204 -89.5 -316.5t-236.5 -112.5q-49 0 -152 30.5t-152 30.5q-52 0 -84 -24.5t-44 -49.5zM1248 475v241q0 73 -29 109t-71 36q-54 0 -80 -34l-67 193q58 58 170 58q120 0 186 -87 q73 87 207 87q133 0 214 -73.5t81 -214.5v-315h-211v270q0 116 -98 116q-46 0 -71.5 -31.5t-25.5 -84.5v-270h-205zM1045 312v69h213v-38q0 -76 58 -115t133 -39q50 0 93 13.5t74.5 49.5t31.5 89v40h211v-46q0 -84 -33.5 -151.5t-90.5 -109t-129.5 -63.5t-154.5 -22 q-187 0 -296.5 89t-109.5 234z" />
<glyph unicode="&#xdac;" horiz-adv-x="1475" d="M731 -11q-143 0 -232 82.5t-89 219.5v109q0 71 26 86h-80v161h452q0 56 -37.5 87.5t-85.5 31.5q-90 0 -122 -60l-6 2q-82 31 -128 31q-80 0 -128 -60t-48 -183v-123q0 -111 25.5 -183t108.5 -169l-201 -63q-76 99 -102.5 194t-26.5 223v163q0 178 105.5 287t256.5 109 q56 0 121 -17q65 30 145 30q148 0 226.5 -87.5t78.5 -216.5v-157h-284q-90 0 -90 -86v-98q0 -34 26.5 -67.5t82.5 -33.5q55 0 80.5 32.5t25.5 68.5v79h159v-79q0 -35 26 -68t81 -33t81 33.5t26 67.5v661q0 151 -51 211.5t-185 60.5v210q224 0 337 -103.5t113 -350.5v-700 q0 -136 -82 -219t-211 -83q-130 0 -208 91q-33 -45 -83 -68t-103 -23zM419 1081q0 104 67 189.5t167.5 130t207.5 44.5v-210q-97 0 -165 -51t-68 -156z" />
<glyph unicode="&#xdad;" horiz-adv-x="1469" d="M57 318v170l439 364q-35 44 -98 44q-52 0 -86.5 -30t-43.5 -76l-182 58q13 64 47 111.5t79.5 73.5t92 38t93.5 12q78 0 149.5 -34t101.5 -75q76 53 150 81t166 28q88 0 167 -29.5t142 -86.5t100 -149t37 -207v-226q0 -387 -364 -387v216q78 0 114.5 42.5t36.5 128.5v206 q0 129 -72.5 201.5t-174.5 72.5t-180 -61l-476 -385q14 -17 32 -45.5t31.5 -51t35 -48t44.5 -42t57.5 -28t76.5 -11.5q86 0 140 50t54 126q0 72 -29 118t-117 72l153 124q49 -17 85.5 -45.5t57 -60t32.5 -71.5t16 -74.5t4 -75.5q0 -156 -104.5 -262.5t-287.5 -106.5 q-226 0 -362 204q-8 12 -26.5 45t-28 46t-29 26.5t-42.5 13.5q-20 0 -31 -4z" />
<glyph unicode="&#xdae;" horiz-adv-x="1064" d="M431 1192v253h130q100 0 178 -22.5t140 -73t95 -141.5t33 -218v-517q0 -240 -110 -360t-334 -121v220q49 0 87.5 11.5t72 39.5t51.5 81t18 129v480q0 149 -49.5 215.5t-181.5 66.5v-44q0 -158 153 -177v-139q-145 19 -214 106t-69 211zM57 505q0 400 399 400v-210 q-89 0 -138.5 -47.5t-49.5 -142.5v-92q0 -81 50 -141t138 -60v-220q-99 0 -178.5 38t-126 99t-70.5 129t-24 136v111z" />
<glyph unicode="&#xdaf;" horiz-adv-x="1045" d="M702 -390q135 0 223.5 64.5t119.5 172.5l-203 52q-11 -46 -50.5 -71t-87.5 -25q-59 0 -99 31.5t-40 79.5h-209q0 -138 94.5 -221t251.5 -83zM57 379q0 -96 35 -170t96.5 -119t138 -67.5t165.5 -22.5h73q82 0 157 27t138.5 88.5t90.5 148.5l-193 52q-47 -109 -193 -109 h-73q-96 0 -156 43t-60 129q0 95 56.5 137.5t151.5 42.5h356v199q0 85 -32.5 153t-87 110t-122 64.5t-139.5 22.5q-121 0 -217 -60.5t-125 -170.5l182 -60q14 48 61.5 75t106.5 27q73 0 124.5 -39t51.5 -111h-153q-197 0 -315 -100t-118 -290z" />
<glyph unicode="&#xdb0;" horiz-adv-x="1127" d="M383 -11q-145 0 -235.5 82.5t-90.5 219.5v235q0 385 387 385h52v-210h-52q-89 0 -132.5 -49t-43.5 -129v-221q0 -34 26.5 -67.5t82.5 -33.5q55 0 80 32.5t25 68.5v79h159v-79q0 -36 25.5 -68.5t81.5 -32.5q55 0 81.5 33.5t26.5 67.5v661q0 151 -51 211.5t-185 60.5v210 q224 0 337 -103.5t113 -350.5v-700q0 -137 -82.5 -219.5t-212.5 -82.5q-129 0 -207 91q-33 -45 -82.5 -68t-102.5 -23zM71 1081q0 104 67 189.5t167.5 130t207.5 44.5v-210q-98 0 -166 -51t-68 -156z" />
<glyph unicode="&#xdb1;" horiz-adv-x="1433" d="M1013 -11v216q78 0 114.5 42t36.5 128v243q0 119 -79 191.5t-185 72.5q-129 0 -213 -109l-149 -197q-87 -112 -145 -167t-121 -64q67 -152 258 -152q91 0 151 56.5t60 140.5q0 109 -102 157l119 157q97 -42 147 -129t50 -190q0 -166 -116 -282t-305 -116 q-208 0 -342.5 132.5t-134.5 370.5v168h184v-103q54 2 159 153q2 3 34 49.5t52 73.5q-16 32 -48.5 48.5t-64.5 16.5q-52 0 -86.5 -30t-43.5 -76l-182 58q13 64 47 111.5t79.5 73.5t92 38t93.5 12q71 0 136.5 -29t97.5 -68q121 107 302 107q88 0 170 -28.5t149 -82.5 t107.5 -141.5t40.5 -195.5v-270q0 -386 -363 -386z" />
<glyph unicode="&#xdb3;" horiz-adv-x="1381" d="M831 0q-89 0 -165.5 22.5t-138 67.5t-96.5 119t-35 170q0 190 117.5 287.5t315.5 97.5h153q0 41 -18.5 72t-47 47t-58.5 24t-58 8q-32 0 -62.5 -7t-62 -30.5t-43.5 -60.5l-6 2q-64 23 -125 23q-103 0 -170 -71t-67 -206v-165q0 -91 5.5 -138.5t34 -109.5t88.5 -133 l-201 -63q-80 104 -107 203t-27 241v165q0 116 34 209.5t92 152t131 89.5t155 31q38 0 90 -10q97 65 241 65q62 0 117.5 -13t104 -41.5t84 -70t55.5 -102.5t20 -136l-2 -180h-356q-95 0 -152 -42.5t-57 -137.5q0 -86 60.5 -129t156.5 -43h72q147 0 194 109l193 -52 q-27 -87 -90.5 -148.5t-139 -88.5t-157.5 -27h-72zM1037 -390q-157 0 -251.5 83t-94.5 221h209q0 -48 41 -79.5t98 -31.5q48 0 88.5 25t51.5 71l203 -52q-31 -108 -120.5 -172.5t-224.5 -64.5z" />
<glyph unicode="&#xdb4;" horiz-adv-x="1198" d="M57 890q34 101 117.5 152t189.5 51q144 0 235 -88q93 90 236 90q105 0 188 -52t116 -153l-182 -61q-23 74 -124 74q-55 0 -95.5 -34t-40.5 -100h111q83 0 139.5 -12.5t101 -44t65.5 -90t21 -147.5h-211q0 55 -21.5 83t-89.5 28h-421q-37 0 -62 -9.5t-36 -27t-14.5 -34.5 t-3.5 -40h-211q0 86 22 144.5t65 90.5t97 45.5t128 13.5h124q0 66 -40.5 100t-94.5 34q-104 0 -127 -74zM547 -19q-253 0 -368.5 96.5t-115.5 303.5h213q0 -104 65.5 -149.5t190.5 -45.5h132q127 0 193 46t66 149h212q0 -201 -118 -300.5t-362 -99.5h-108z" />
<glyph unicode="&#xdb5;" horiz-adv-x="1075" d="M467 -8q-175 0 -290.5 110t-115.5 260q0 86 19 145t81 109q50 43 115.5 61t159.5 18q0 42 -31 66t-78 24q-35 0 -63.5 -14.5t-37.5 -45.5l-155 41q28 96 98 138.5t158 42.5q116 0 194 -67.5t78 -180.5v-184h-142q-95 0 -140 -31.5t-45 -117.5q0 -62 51 -108t144 -46v-220 zM442 1192v253h132q100 0 177 -22.5t139 -73t95 -141.5t33 -218v-517q0 -240 -110 -360t-334 -121v220q232 0 232 261v480q0 148 -50.5 215t-181.5 67v-44q0 -158 151 -177v-139q-145 19 -214 106t-69 211z" />
<glyph unicode="&#xdb6;" horiz-adv-x="1152" d="M57 352v190q0 99 48.5 173t121.5 109t156 35q60 0 114 -20.5t98 -60t70 -105t26 -147.5v-212q0 -49 28.5 -76t67.5 -27t67 27t28 76v620q0 148 -53.5 224.5t-175.5 76.5h-35v210h35q209 0 325.5 -119.5t116.5 -360.5v-649q0 -79 -27.5 -143.5t-74 -104t-103 -60.5 t-117.5 -21q-119 0 -204 73.5t-85 205.5v255q0 60 -33.5 93t-79.5 33q-45 0 -78 -33t-33 -93v-161q0 -84 35.5 -116t108.5 -32v-212q-176 0 -261.5 83t-85.5 269zM78 1081q0 105 64.5 190t163 129.5t205.5 44.5v-210q-97 0 -160.5 -50.5t-63.5 -156.5z" />
<glyph unicode="&#xdb7;" horiz-adv-x="1437" d="M769 641q81 -6 127 -72t46 -184v-79q0 -162 -85.5 -241.5t-247.5 -79.5v216q143 0 143 140q0 19 -1.5 33t-8 34.5t-18 34.5t-35 24.5t-55.5 11.5h-77v143h-56q-86 0 -121 -40.5t-35 -112.5v-90q0 -76 36.5 -127t119.5 -51v-216q-183 0 -276 108t-93 284v107q0 86 38 138 h-113v184h435q0 54 -30.5 83.5t-82.5 29.5q-35 0 -62.5 -16.5t-35.5 -45.5l-157 41q27 88 99.5 135t159.5 47q76 0 140.5 -34t98.5 -95q89 129 280 129v-217q-137 0 -133 -185v-37zM1009 -15v216q157 0 157 188v279q0 195 -157 195v217q185 0 278 -111t93 -301v-279 q-2 -184 -94.5 -294t-276.5 -110z" />
<glyph unicode="&#xdb8;" horiz-adv-x="1131" d="M57 482q0 -70 9.5 -132t38.5 -130t75 -116.5t125.5 -80t184.5 -31.5v213q-35 0 -64.5 5t-63 22.5t-56.5 46.5t-38 81t-15 122v150q0 41 17.5 62.5t41.5 21.5q21 0 36.5 -16t15.5 -43v-50q0 -78 54.5 -123.5t128.5 -45.5q77 0 132.5 51t55.5 145v264h-147v-251 q0 -21 -13 -32.5t-31 -11.5t-31 11.5t-13 32.5v59q0 93 -56 146t-136 53q-100 0 -175.5 -81.5t-75.5 -230.5v-111zM597 -8q109 0 192.5 26.5t136.5 70.5t87 107.5t47.5 131.5t13.5 149v486q0 81 -13.5 148.5t-47.5 130t-87 106t-136.5 69.5t-192.5 26v-210q63 0 107.5 -11 t82 -39.5t56 -83t18.5 -136.5v-486q0 -82 -18.5 -137t-56 -83.5t-82 -40t-107.5 -11.5v-213zM63 1080l209 -54q0 104 62.5 155.5t155.5 51.5v210q-105 0 -202 -45t-161 -130t-64 -188z" />
<glyph unicode="&#xdb9;" horiz-adv-x="1148" d="M362 -21q101 0 132 69q25 38 25 120q0 32 15 47t38 15q54 0 54 -62q0 -82 25 -120q31 -69 132 -69q139 0 223.5 90t84.5 237v676q0 463 -469 463v-210q56 0 97.5 -10.5t80 -37.5t59 -83t20.5 -139v-645q0 -49 -30 -85t-74 -36q-59 0 -59 65v15v20t-1.5 20t-4 22t-8 18.5 t-13.5 16.5t-19.5 9.5t-26.5 4.5h-143q-12 0 -21.5 -3t-16.5 -6.5t-13 -11t-9.5 -13t-6 -16t-4 -16t-2 -17.5t-0.5 -16v-15v-12q0 -32 -16 -48.5t-44 -16.5q-43 0 -73 35.5t-30 83.5v331q0 32 17.5 49.5t41.5 17.5t42 -17t18 -48v-44q0 -78 54 -123.5t128 -45.5 q77 0 132 50.5t55 145.5v264h-147v-251q0 -21 -13 -32.5t-31 -11.5q-17 0 -30.5 12t-13.5 32v54q0 99 -63 153.5t-153 54.5q-97 0 -170.5 -65t-73.5 -180v-358q0 -147 83.5 -237t221.5 -90zM289 1028q0 106 63.5 156.5t160.5 50.5v210q-107 0 -205 -44.5t-162 -129.5 t-64 -190z" />
<glyph unicode="&#xdba;" horiz-adv-x="1240" d="M57 295v86h211v-71q0 -52 36 -80.5t88 -28.5q54 0 90.5 29t36.5 84v67h195v-67q0 -54 36.5 -83.5t89.5 -29.5t89 28.5t36 80.5v71h210v-86q0 -144 -91 -225t-240 -81q-151 0 -232 97q-78 -97 -222 -97q-148 0 -240.5 84t-92.5 222zM563 586v141q0 175 82.5 264.5 t234.5 89.5q218 0 299 -193l-170 -59q-33 67 -129 67q-120 0 -120 -127h157q258 0 258 -239v-55h-212v36q0 41 -21.5 58t-76.5 17h-302zM57 475v176q0 106 34 189.5t92.5 134.5t132.5 77t159 26h32v-199h-38q-100 0 -150.5 -68t-50.5 -191v-145h-211z" />
<glyph unicode="&#xdbb;" horiz-adv-x="1025" d="M57 450v367q0 40 1.5 66t11 73t27 84.5t53 84.5t85.5 88l374 305l252 -67l-457 -371q-89 -71 -111.5 -115.5t-22.5 -120.5v-394q0 -128 44.5 -184.5t146.5 -56.5v-220q-61 0 -117 14t-109.5 47.5t-92 85t-62 132t-23.5 182.5zM362 911l203 169h101q165 0 233.5 -104.5 t68.5 -328.5v-197q0 -107 -21.5 -188.5t-57 -132.5t-88 -82.5t-108.5 -44t-125 -12.5v219q105 0 146.5 56t41.5 185v187q0 132 -37.5 182t-142.5 50h-214v42z" />
<glyph unicode="&#xdbd;" horiz-adv-x="1186" d="M490 421v80h-98v178h395v-178h-100v-51q0 -48 29 -78.5t84 -30.5q57 0 88 37.5t31 92.5v153q0 249 -268 249v212q59 0 111 -7.5t108.5 -25.5t101 -52t81 -83t56.5 -124t20 -169v-153q0 -164 -90 -255.5t-239 -91.5q-84 0 -146 24.5t-96.5 67t-51 94t-16.5 111.5z M534 -325q-68 0 -130.5 11.5t-127.5 44t-112 83t-77 135t-30 193.5v476q0 110 29.5 195t76 135.5t111.5 82t127.5 43t132.5 11.5v-212q-120 0 -192 -62t-72 -193v-476q0 -131 72 -193t192 -62v-212zM651 -117q205 0 256 167l205 -58q-18 -75 -54.5 -132.5t-80.5 -92.5 t-101 -57t-111 -30.5t-114 -8.5v212z" />
<glyph unicode="&#xdc0;" horiz-adv-x="1077" d="M469 -8v213q-93 0 -144 48.5t-51 112.5q0 86 45 117.5t140 31.5h142v184q0 113 -78 180.5t-194 67.5q-88 0 -158 -42.5t-98 -138.5l155 -41q9 31 37.5 45.5t63.5 14.5q47 0 78 -24t31 -66q-95 0 -160.5 -18t-114.5 -61q-62 -50 -81 -109t-19 -145q0 -150 115.5 -260 t290.5 -110zM576 -8q224 1 334 121t110 360v518q0 240 -114.5 347t-329.5 107v-210q125 0 178.5 -64.5t53.5 -207.5v-490q0 -268 -232 -268v-213zM57 1081l209 -53q0 99 60 153t143 54v210q-100 0 -194.5 -47t-156 -132t-61.5 -185z" />
<glyph unicode="&#xdc1;" horiz-adv-x="1364" d="M936 -15v216q157 0 157 188v273q0 201 -157 201v217q185 0 278 -110t93 -294v-287q0 -184 -93 -294t-278 -110zM429 -15q-185 0 -278.5 110t-93.5 294v287q0 184 93.5 294t278.5 110v-217q-157 0 -157 -201v-273q0 -188 157 -188v-216zM484 479v197q0 404 345 404v-217 q-136 0 -132 -187v-54h7q75 -11 119 -73q78 63 237 63v-162q-170 0 -189 -125v-5q0 -335 -335 -335v216q143 0 143 140q0 138 -118 138h-77z" />
<glyph unicode="&#xdc2;" horiz-adv-x="1240" d="M82 890q34 100 117 151.5t188 51.5q146 0 237 -88q46 46 109 68t126 22q105 0 188.5 -52.5t116.5 -152.5l-182 -61q-10 33 -42 53.5t-83 20.5q-53 0 -92 -31.5t-43 -94.5h134q83 0 139.5 -12.5t101 -45.5t65.5 -93t21 -151h-211q0 57 -21.5 86.5t-89.5 29.5h-17 q-151 -121 -151 -268l-205 -1q0 153 113 269h-214q-38 0 -62.5 -9.5t-35.5 -28t-15 -36t-4 -42.5h-211q0 169 80 235.5t232 66.5h153q-4 63 -43.5 94.5t-90.5 31.5q-103 0 -126 -74zM542 -19q-253 0 -369 96.5t-116 303.5h213q0 -104 65.5 -149.5t190.5 -45.5h188 q127 0 191.5 46t64.5 149h213q0 -201 -118 -300.5t-363 -99.5h-160z" />
<glyph unicode="&#xdc3;" d="M134 295v86h211v-71q0 -52 36 -80.5t88 -28.5q54 0 90 29t36 84v67h195v-67q0 -54 37 -83.5t90 -29.5t88.5 28.5t35.5 80.5v71h211v-86q0 -144 -91 -225t-240 -81q-151 0 -232 97q-78 -97 -222 -97q-148 0 -240.5 84t-92.5 222zM153 890q33 100 116 151.5t188 51.5 q145 0 236 -88q93 90 235 90q106 0 189 -52t118 -153l-182 -61q-23 74 -127 74q-53 0 -93.5 -34.5t-40.5 -99.5h186q274 0 274 -229v-65h-211q0 44 -11 55q-10 56 -81 56h-509q-74 0 -84 -58q-11 -9 -11 -53h-211q0 39 2 49q0 50 19 62h-98v183h538q0 66 -40.5 100t-95.5 34 q-101 0 -124 -74z" />
<glyph unicode="&#xdc4;" horiz-adv-x="1362" d="M695 641q83 -6 128.5 -72t45.5 -184v-79q0 -321 -335 -321v216q144 0 144 140q0 134 -117 138h-77v122h-55q-87 0 -122 -40t-35 -113v-71q0 -75 36.5 -125.5t120.5 -50.5v-216q-184 0 -278 108t-94 284v84q0 162 86.5 256t266.5 100h21q0 49 -30 75.5t-81 26.5 q-34 0 -62.5 -16.5t-37.5 -45.5l-157 41q29 89 100.5 135.5t159.5 46.5q71 0 134 -31t100 -88q86 119 270 119v-217q-41 0 -69 -16t-40.5 -44.5t-17.5 -57.5t-5 -66v-38zM934 -15v216q85 0 122 52.5t37 135.5v273q0 88 -36.5 144.5t-122.5 56.5v217q185 0 278 -110t93 -294 v-287q0 -184 -93 -294t-278 -110z" />
<glyph unicode="&#xdc5;" horiz-adv-x="1165" d="M216 802v46q0 114 70 180.5t187 66.5q100 0 157 -63q50 63 147 63q122 0 189.5 -70.5t67.5 -188.5h-180q0 41 -22 63t-59 22q-36 0 -57 -24t-21 -62h-136q-2 40 -22 64t-58 24q-41 0 -62 -26t-21 -70zM57 147v224q0 88 33 160.5t85.5 117t114.5 68.5t123 24l622 2v-201 h-578q-23 0 -45 -6q17 -94 78 -150.5t138 -56.5h57q62 0 108.5 25t65.5 67l176 -46q-25 -65 -66 -112t-89 -71.5t-94 -35.5t-95 -11h-75q-71 0 -131 21.5t-100 58t-66 76t-41 82.5q-8 -28 -8 -77v-161q0 -134 74 -196t198 -62v-212q-224 0 -354.5 119.5t-130.5 352.5z M658 -113q221 0 265 172l204 -57q-16 -77 -52.5 -136t-82 -94.5t-104.5 -58t-114 -30.5t-116 -8v212z" />
<glyph unicode="&#xdc6;" horiz-adv-x="1232" d="M57 475h211v283q0 52 36 80.5t88 28.5q54 0 90.5 -29t36.5 -82v-281h195v281q0 54 36 82.5t90 28.5q52 0 88.5 -28.5t36.5 -80.5v-283h210v298q0 138 -93 222.5t-240 84.5q-143 0 -222 -98q-82 98 -231 98q-150 0 -241 -81t-91 -226v-298zM57 381q0 -170 92.5 -275.5 t281.5 -105.5v216q-49 0 -83 15.5t-50.5 42t-23 52t-6.5 55.5h-211zM802 0q97 0 170 29.5t116.5 82t65 120t21.5 149.5h-210q0 -165 -163 -165v-216z" />
<glyph unicode="&#xdca;" horiz-adv-x="321" d="M57 1185h207v383h-207v-383z" />
<glyph unicode="&#xdcf;" horiz-adv-x="520" d="M57 0h39q189 0 278 103.5t89 285.5v315q0 182 -89 285.5t-278 103.5h-39v-216h39q75 0 114 -47.5t39 -138.5v-302q0 -173 -153 -173h-39v-216z" />
<glyph unicode="&#xdd0;" horiz-adv-x="518" d="M415 0q-160 0 -259 94.5t-99 290.5v139q0 108 26 166.5t131 197.5h-157v211h404v-201q-56 -76 -76.5 -104t-49.5 -72t-35.5 -59t-16.5 -45.5t-10.5 -51t-0.5 -57.5v-134q0 -73 35 -116t108 -43h46v-216h-46z" />
<glyph unicode="&#xdd1;" horiz-adv-x="530" d="M69 408q0 65 22 105t108 109h-130v172l151 132h-151v173h404v-173l-155 -132h155v-172q-98 -72 -131.5 -100.5t-46 -51.5t-12.5 -62v-44q0 -148 144 -148h46v-216h-46q-162 0 -260 79t-98 252v77z" />
<glyph unicode="&#xdd2;" horiz-adv-x="0" d="M-1102 1152h199q0 156 168 159h266q168 -3 168 -159h200v54q0 132 -97 218t-240 86h-328q-144 0 -240 -85.5t-96 -218.5v-54z" />
<glyph unicode="&#xdd3;" horiz-adv-x="0" d="M-312 1070q-88 0 -149.5 61t-61.5 149q0 21 2 31h-262q-168 0 -168 -159h-199v54q0 132 97 218t240 86h461q102 0 174.5 -60.5t76.5 -161.5v-4v-4q0 -88 -61.5 -149t-149.5 -61z" />
<glyph unicode="&#xdd4;" horiz-adv-x="0" d="M-287 241h212v-633h-402v212h190v421zM-932 -180h348v-212h-348v212z" />
<glyph unicode="&#xdd6;" horiz-adv-x="0" d="M-947 -121q71 -55 137 -55q41 0 113.5 26t112.5 26v-215q-38 0 -111 -25t-115 -25q-64 0 -137 54v214zM-289 -392q-89 53 -188 53v215q101 0 188 -48v407h212v-627h-212z" />
<glyph unicode="&#xdd8;" horiz-adv-x="683" d="M337 0q116 0 202.5 78t86.5 211v473q0 145 -79.5 238t-207.5 93h-195v-199h172q124 0 124 -153v-452q0 -45 -30 -75t-73 -30q-46 0 -77.5 31t-31.5 74q0 48 30.5 77.5t78.5 29.5h23v178h-23q-140 0 -215.5 -82.5t-75.5 -202.5q0 -130 86 -209.5t205 -79.5z" />
<glyph unicode="&#xdd9;" horiz-adv-x="874" d="M477 880h-64q-73 0 -112 -47t-39 -123v-331q0 -92 29.5 -141t108.5 -49v-199h-40q-57 0 -104 16t-78 41.5t-54 61t-35.5 70t-20 75t-9.5 68.5t-2 57v331q0 49 8.5 96t32 98t60 89t98.5 62.5t142 24.5h119q66 0 122 -24.5t91 -63.5t56 -82t26 -85l-188 -48q-8 41 -42.5 72 t-104.5 31zM446 479v199h166q96 0 150.5 -42t54.5 -148v-187q0 -131 -72 -221t-198 -90h-55v199q120 0 120 119v102q0 19 -5.5 32.5t-13 20.5t-22 11t-26 4.5t-30.5 0.5h-69z" />
<glyph unicode="&#xdda;" horiz-adv-x="1469" d="M1206 1185v383h207v-383h-207zM477 880h-64q-73 0 -112 -47t-39 -123v-331q0 -92 29.5 -141t108.5 -49v-199h-40q-57 0 -104 16t-78 41.5t-54 61t-35.5 70t-20 75t-9.5 68.5t-2 57v331q0 49 8.5 96t32 98t60 89t98.5 62.5t142 24.5h119q66 0 122 -24.5t91 -63.5t56 -82 t26 -85l-188 -48q-8 41 -42.5 72t-104.5 31zM446 479v199h166q96 0 150.5 -42t54.5 -148v-187q0 -131 -72 -221t-198 -90h-55v199q120 0 120 119v102q0 19 -5.5 32.5t-13 20.5t-22 11t-26 4.5t-30.5 0.5h-69z" />
<glyph unicode="&#xddb;" horiz-adv-x="1699" d="M1302 886h-64q-73 0 -112 -47t-39 -123v-331q0 -92 29.5 -141t108.5 -49v-199h-40q-57 0 -104 16t-78 41.5t-54 61t-35.5 70t-20 75t-9.5 68.5t-2 57v331q0 49 8.5 96t32 98t60 88.5t98.5 62t142 24.5h119q66 0 122 -24.5t90.5 -63t55.5 -81.5t26 -85l-187 -48 q-8 41 -42.5 72t-104.5 31zM1271 484v199h166q96 0 150.5 -41.5t54.5 -147.5v-188q0 -131 -72 -220.5t-198 -89.5h-55v199q120 0 120 119v101q0 19 -5.5 32.5t-13 20.5t-22 11t-26 4.5t-30.5 0.5h-69zM477 880h-64q-73 0 -112 -47t-39 -123v-331q0 -92 29.5 -141t108.5 -49 v-199h-40q-57 0 -104 16t-78 41.5t-54 61t-35.5 70t-20 75t-9.5 68.5t-2 57v331q0 49 8.5 96t32 98t60 89t98.5 62.5t142 24.5h119q66 0 122 -24.5t91 -63.5t56 -82t26 -85l-188 -48q-8 41 -42.5 72t-104.5 31zM446 479v199h166q96 0 150.5 -42t54.5 -148v-187 q0 -131 -72 -221t-198 -90h-55v199q120 0 120 119v102q0 19 -5.5 32.5t-13 20.5t-22 11t-26 4.5t-30.5 0.5h-69z" />
<glyph unicode="&#xddc;" horiz-adv-x="1523" d="M1060 0v216h39q153 0 153 173v302q0 91 -39 138.5t-114 47.5h-39v216h39q189 0 278 -103.5t89 -285.5v-315q0 -182 -89 -285.5t-278 -103.5h-39zM477 880h-64q-73 0 -112 -47t-39 -123v-331q0 -92 29.5 -141t108.5 -49v-199h-40q-57 0 -104 16t-78 41.5t-54 61t-35.5 70 t-20 75t-9.5 68.5t-2 57v331q0 49 8.5 96t32 98t60 89t98.5 62.5t142 24.5h119q66 0 122 -24.5t91 -63.5t56 -82t26 -85l-188 -48q-8 41 -42.5 72t-104.5 31zM446 479v199h166q96 0 150.5 -42t54.5 -148v-187q0 -131 -72 -221t-198 -90h-55v199q120 0 120 119v102 q0 19 -5.5 32.5t-13 20.5t-22 11t-26 4.5t-30.5 0.5h-69z" />
<glyph unicode="&#xddd;" horiz-adv-x="1523" d="M1058 1185v383h207v-383h-207zM1060 0v216h39q153 0 153 173v302q0 91 -39 138.5t-114 47.5h-39v216h39q189 0 278 -103.5t89 -285.5v-315q0 -182 -89 -285.5t-278 -103.5h-39zM477 880h-64q-73 0 -112 -47t-39 -123v-331q0 -92 29.5 -141t108.5 -49v-199h-40 q-57 0 -104 16t-78 41.5t-54 61t-35.5 70t-20 75t-9.5 68.5t-2 57v331q0 49 8.5 96t32 98t60 89t98.5 62.5t142 24.5h119q66 0 122 -24.5t91 -63.5t56 -82t26 -85l-188 -48q-8 41 -42.5 72t-104.5 31zM446 479v199h166q96 0 150.5 -42t54.5 -148v-187q0 -131 -72 -221 t-198 -90h-55v199q120 0 120 119v102q0 19 -5.5 32.5t-13 20.5t-22 11t-26 4.5t-30.5 0.5h-69z" />
<glyph unicode="&#xdde;" horiz-adv-x="1946" d="M1543 -15q-65 0 -124 20.5t-107 59t-77 101.5t-29 142v79h195v-79q0 -64 45 -100t106 -36q58 0 100 35t42 101v525q0 28 -15 43.5t-37 15.5q-21 0 -36 -15.5t-15 -43.5v-94q0 -81 -54 -127.5t-128 -46.5q-82 0 -142.5 56t-60.5 160v299h147v-249q0 -26 15 -40t37 -14 q21 0 36.5 14.5t15.5 39.5v55q0 97 62 151t148 54q88 0 153.5 -63t68.5 -176v-544q0 -102 -51.5 -177.5t-128.5 -110.5t-166 -35zM477 880h-64q-73 0 -112 -47t-39 -123v-331q0 -92 29.5 -141t108.5 -49v-199h-40q-57 0 -104 16t-78 41.5t-54 61t-35.5 70t-20 75t-9.5 68.5 t-2 57v331q0 49 8.5 96t32 98t60 89t98.5 62.5t142 24.5h119q66 0 122 -24.5t91 -63.5t56 -82t26 -85l-188 -48q-8 41 -42.5 72t-104.5 31zM446 479v199h166q96 0 150.5 -42t54.5 -148v-187q0 -131 -72 -221t-198 -90h-55v199q120 0 120 119v102q0 19 -5.5 32.5t-13 20.5 t-22 11t-26 4.5t-30.5 0.5h-69z" />
<glyph unicode="&#xddf;" horiz-adv-x="1039" d="M356 -15q89 0 166 35t128.5 110.5t51.5 177.5v544q-3 113 -68.5 176t-153.5 63q-86 0 -148 -54t-62 -151v-55q0 -25 -15.5 -39.5t-36.5 -14.5q-22 0 -36.5 14t-14.5 40v249h-148v-299q0 -104 60.5 -160t142.5 -56q74 0 128 46.5t54 127.5v94q0 28 15.5 43.5t36.5 15.5 q22 0 36.5 -15t14.5 -44v-525q0 -66 -41.5 -101t-99.5 -35q-61 0 -106.5 36t-45.5 100v79h-195v-79q0 -79 29 -142t77 -101.5t107 -59t124 -20.5z" />
<glyph unicode="&#xdf2;" horiz-adv-x="1351" d="M1003 0q116 0 202.5 78t86.5 211v473q0 145 -79.5 238t-207.5 93h-195v-199h172q124 0 124 -153v-452q0 -45 -30 -75t-73 -30q-46 0 -77.5 31t-31.5 74q0 48 30.5 77.5t78.5 29.5h23v178h-23q-140 0 -215.5 -82.5t-75.5 -202.5q0 -130 86 -209.5t205 -79.5zM348 0 q116 0 202.5 78t86.5 211v473q0 145 -79.5 238t-207.5 93h-195v-199h172q125 0 125 -153v-452q0 -45 -30.5 -75t-73.5 -30q-46 0 -77.5 31t-31.5 74q0 48 30.5 77.5t78.5 29.5h23v178h-23q-140 0 -215.5 -82.5t-75.5 -202.5q0 -130 86 -209.5t205 -79.5z" />
<glyph unicode="&#xdf3;" horiz-adv-x="786" d="M383 -15q89 0 166 35t128.5 110.5t51.5 177.5v544q-3 113 -68.5 176t-153.5 63q-86 0 -148 -54t-62 -151v-55q0 -25 -15.5 -39.5t-36.5 -14.5q-22 0 -37 14t-15 40v249h-147v-299q0 -104 60.5 -160t142.5 -56q74 0 128 46.5t54 127.5v94q0 28 15 43.5t36 15.5 q22 0 37 -15.5t15 -43.5v-525q0 -66 -42 -101t-100 -35q-61 0 -106 36t-45 100v79h-195v-79q0 -79 29 -142t77 -101.5t107 -59t124 -20.5z" />
<glyph unicode="&#xdf4;" horiz-adv-x="3079" d="M1089 917q-192 -391 -240 -475q-92 -166 -166 -220q-65 -48 -166 -48h-230v-174h230q158 0 250 60q90 60 188 223q63 104 227 427q40 78 62 121zM1413 963l-435 -877l157 -86l433 879zM1604 739l-324 -653l156 -86l323 653zM1738 0l136 279q219 -141 383 -210t342 -69 h224v176h-224q-150 0 -308.5 74.5t-487.5 283.5l-220 -448z" />
<glyph unicode="&#x2000;" horiz-adv-x="1156" />
<glyph unicode="&#x2001;" horiz-adv-x="2312" />
<glyph unicode="&#x2002;" horiz-adv-x="1156" />
<glyph unicode="&#x2003;" horiz-adv-x="2312" />
<glyph unicode="&#x2004;" horiz-adv-x="770" />
<glyph unicode="&#x2005;" horiz-adv-x="578" />
<glyph unicode="&#x2006;" horiz-adv-x="385" />
<glyph unicode="&#x2007;" horiz-adv-x="385" />
<glyph unicode="&#x2008;" horiz-adv-x="289" />
<glyph unicode="&#x2009;" horiz-adv-x="462" />
<glyph unicode="&#x200a;" horiz-adv-x="128" />
<glyph unicode="&#x200c;" horiz-adv-x="0" d="M-98 4h190v1414h-190v-1414z" />
<glyph unicode="&#x200d;" horiz-adv-x="0" d="M-92 6v1045l-157 -115l-99 119l220 157l-217 153l96 115l249 -178l249 178l88 -115l-211 -153l219 -157l-87 -119l-166 119v-1049h-184z" />
<glyph unicode="&#x2010;" horiz-adv-x="784" d="M90 465h605v193h-605v-193z" />
<glyph unicode="&#x2011;" horiz-adv-x="784" d="M90 465h605v193h-605v-193z" />
<glyph unicode="&#x2012;" horiz-adv-x="784" d="M90 465h605v193h-605v-193z" />
<glyph unicode="&#x2013;" horiz-adv-x="1018" d="M50 465h918v193h-918v-193z" />
<glyph unicode="&#x2014;" horiz-adv-x="1734" d="M50 465h1634v193h-1634v-193z" />
<glyph unicode="&#x2018;" horiz-adv-x="321" d="M63 890h195v519h-195v-519z" />
<glyph unicode="&#x2019;" horiz-adv-x="321" d="M63 890h195v519h-195v-519z" />
<glyph unicode="&#x201a;" horiz-adv-x="321" d="M63 890h195v519h-195v-519z" />
<glyph unicode="&#x201c;" horiz-adv-x="616" d="M63 890h195v519h-195v-519zM360 890h195v519h-195v-519z" />
<glyph unicode="&#x201d;" horiz-adv-x="616" d="M63 890h195v519h-195v-519zM360 890h195v519h-195v-519z" />
<glyph unicode="&#x201e;" horiz-adv-x="614" d="M314 -44h193l71 291h-193zM25 -44h193l71 291h-193z" />
<glyph unicode="&#x2020;" horiz-adv-x="867" d="M50 884h277v-991h213v991h277v196h-277v382h-213v-382h-277v-196z" />
<glyph unicode="&#x2021;" horiz-adv-x="867" d="M50 274h277v-381h215v381h275v195h-275v417h275v195h-275v381h-215v-381h-277v-195h277v-417h-277v-195z" />
<glyph unicode="&#x2022;" horiz-adv-x="673" d="M100 658q0 -99 69 -168t168 -69q100 0 168.5 69t68.5 168q0 101 -68.5 171.5t-168.5 70.5q-99 0 -168 -70.5t-69 -171.5z" />
<glyph unicode="&#x2026;" horiz-adv-x="1194" d="M69 77q0 -49 34 -83t83 -34q47 0 81 34t34 83q0 47 -34 81.5t-81 34.5q-48 0 -82.5 -34.5t-34.5 -81.5zM482 77q0 -49 34 -83t81 -34q49 0 83 34t34 83q0 47 -34 81.5t-83 34.5q-47 0 -81 -34.5t-34 -81.5zM894 77q0 -49 34 -83t81 -34q49 0 82.5 34t33.5 83q0 48 -34 82 t-82 34q-47 0 -81 -34.5t-34 -81.5z" />
<glyph unicode="&#x202f;" horiz-adv-x="462" />
<glyph unicode="&#x2030;" horiz-adv-x="1716" d="M232 674q-26 0 -50.5 7.5t-52.5 30t-48.5 58t-34 97.5t-13.5 142q0 97 19 166.5t50.5 104t63 49t66.5 15.5v-121q-77 -15 -77 -193v-31q0 -189 77 -205v-120zM287 674v120q77 16 77 205v31q0 178 -77 193v121q35 -1 66.5 -15.5t63 -49t50.5 -104t19 -166.5 q0 -80 -13.5 -142t-34 -97.5t-48.5 -58t-52.5 -30t-50.5 -7.5zM934 0q-26 0 -50.5 7.5t-52.5 30t-48.5 58t-34 97.5t-13.5 142q0 97 19 166.5t50.5 104t63 49t66.5 15.5v-121q-77 -15 -77 -193v-31q0 -188 77 -204v-121zM990 0v121q76 16 76 204v31q0 178 -76 193v121 q35 -1 66.5 -15.5t63 -49t50.5 -104t19 -166.5q0 -80 -13.5 -142t-34 -97.5t-48.5 -58t-52.5 -30t-50.5 -7.5zM1430 0q-26 0 -51 7.5t-53 30t-49 58t-34.5 97.5t-13.5 142q0 79 13 139.5t33 96.5t48 59t53.5 31t53.5 9v-121q-39 -7 -59 -58t-20 -135v-31q0 -188 79 -204 v-121zM1483 0v121q79 16 79 204v31q-3 178 -79 193v121q35 -1 66.5 -15.5t64 -49t51.5 -104t19 -166.5q0 -80 -14 -142t-34.5 -97.5t-48.5 -58t-53 -30t-51 -7.5zM138 0l827 1340h122l-817 -1340h-132z" />
<glyph unicode="&#x2039;" horiz-adv-x="646" d="M78 559l251 -408h238l-251 408l251 398h-238z" />
<glyph unicode="&#x203a;" horiz-adv-x="646" d="M78 151h240l250 408l-250 398h-240l251 -398z" />
<glyph unicode="&#x2044;" horiz-adv-x="1020" d="M34 -2h134l818 1344h-125z" />
<glyph unicode="&#x205f;" horiz-adv-x="578" />
<glyph unicode="&#x20ac;" horiz-adv-x="1045" d="M96 507h88v-159q3 -61 28.5 -120.5t69 -109.5t110.5 -82t146 -36v211q-68 0 -107 46t-39 118v132h389v100h-389v113h389v101h-389v157q0 59 38 105t108 46v211q-101 -2 -184 -59t-126.5 -142.5t-43.5 -177.5v-140h-88v-99h88v-115h-88v-100zM645 0q64 1 127.5 32.5 t112 80.5t78.5 113.5t30 127.5l-203 73q0 -67 -5 -79q-11 -69 -55.5 -102t-84.5 -35v-211zM645 1129q23 0 48.5 -10t53 -40.5t38.5 -77.5q4 -10 4 -90l204 75q0 146 -99.5 249.5t-248.5 104.5v-211z" />
<glyph unicode="&#x2113;" horiz-adv-x="369" d="M92 354q0 -79 24 -143.5t60 -104.5t82 -67.5t88 -38.5t79 -11v212q-9 0 -22.5 3t-33 12.5t-36 25.5t-28 45t-12.5 67v984h-201v-984z" />
<glyph unicode="&#x2122;" horiz-adv-x="803" d="M50 1263h92v-337h78v337h92v77h-262v-77zM356 926h77v115l-71 169h-6v-284zM356 1294l153 -368h50l61 142v165h-9l-77 -175l-117 282h-61v-46zM645 926h77v414h-77v-414z" />
<glyph unicode="&#x2126;" horiz-adv-x="876" d="M52 0h342v184q-61 0 -94.5 35t-33.5 80v400q0 42 32 76.5t96 34.5v181q-76 0 -138.5 -28t-99.5 -70.5t-56.5 -87t-19.5 -82.5v-449q0 -36 21 -83t60 -86h-109v-105zM492 0h341v105h-108q37 40 58 87t21 82v449q0 38 -19.5 82.5t-55.5 87t-98.5 70.5t-138.5 28v-181 q62 0 94 -35t32 -76v-400q0 -47 -31.5 -81t-94.5 -34v-184z" />
<glyph unicode="&#x212e;" horiz-adv-x="1016" d="M442 -4v213q-71 3 -121.5 59.5t-50.5 167.5v90h662v437q0 159 -114 272.5t-271 113.5v-210q72 -5 122.5 -63.5t50.5 -164.5v-174h-450v174q0 106 50 164.5t122 63.5v210q-157 0 -271 -113.5t-114 -272.5v-580q0 -161 113.5 -274t271.5 -113zM547 -4q140 0 253 89.5 t130 222.5l-210 54q-11 -67 -61.5 -108.5t-111.5 -44.5v-213z" />
<glyph unicode="&#x2202;" horiz-adv-x="803" d="M54 270q0 -29 11.5 -63.5t37.5 -72t61 -67.5t88.5 -49.5t114.5 -19.5v182q-60 0 -94 35t-34 80v386q0 46 32 85.5t96 39.5v182q-75 0 -137.5 -28.5t-99 -71t-56.5 -87t-20 -81.5v-450zM134 1259q87 0 162.5 -18t136 -53.5t95.5 -94.5t35 -136q-51 31 -117 31v-182 q59 0 90.5 -34.5t31.5 -84.5v-388q0 -43 -31 -81t-91 -38v-182q73 0 134 29t96.5 72t54.5 88t19 83v580q0 272 -148 394.5t-468 122.5v-108z" />
<glyph unicode="&#x2206;" horiz-adv-x="1142" d="M126 0h890l-354 1344h-185l302 -1153h-419l163 619l-85 314h-17z" />
<glyph unicode="&#x220f;" horiz-adv-x="979" d="M42 1133h92v-1401h197v1401h318v-1401h197v1401h92v203h-896v-203z" />
<glyph unicode="&#x2211;" horiz-adv-x="1228" d="M501 1129h510v213h-657v-17zM57 -268h954v226h-686l464 618l-571 766h-161v-148l460 -612l-460 -626v-224z" />
<glyph unicode="&#x2212;" horiz-adv-x="796" d="M90 465h605v193h-605v-193z" />
<glyph unicode="&#x2215;" horiz-adv-x="1020" d="M34 -2h134l818 1344h-125z" />
<glyph unicode="&#x2219;" horiz-adv-x="478" d="M63 821q0 -51 36.5 -87.5t86.5 -36.5q52 0 88 36t36 88t-36 88.5t-88 36.5q-50 0 -86.5 -36.5t-36.5 -88.5z" />
<glyph unicode="&#x221a;" horiz-adv-x="1179" d="M11 982l56 -161l184 65l361 -888h219l329 1570h-214l-257 -1210l-308 762z" />
<glyph unicode="&#x221e;" horiz-adv-x="1527" d="M450 0q86 0 151 40t100 104l68 151l67 -150q35 -65 99.5 -105t151.5 -40v182q-69 0 -94 50l-124 268l122 260q23 48 96 48v180q-89 0 -158.5 -41.5t-99.5 -104.5l-60 -134l-61 136q-30 63 -99.5 104.5t-158.5 41.5v-182q73 0 95 -48l123 -260l-124 -270q-25 -48 -94 -48 v-182zM371 0v182q-61 0 -94.5 34.5t-33.5 80.5v400q0 40 32 75.5t96 35.5v182q-75 0 -137.5 -28.5t-99.5 -71t-57 -87t-20 -81.5v-450q0 -29 11.5 -63.5t37.5 -71.5t61.5 -67.5t89 -50t114.5 -19.5zM1166 -2q60 0 112 19.5t86.5 49.5t59.5 67.5t36.5 72t11.5 63.5v450 q0 37 -19.5 81.5t-55 87t-97 71t-134.5 28.5v-180q63 0 94.5 -33t31.5 -80v-402q0 -39 -33.5 -76t-92.5 -37v-182z" />
<glyph unicode="&#x222b;" horiz-adv-x="622" d="M42 -270v-103q37 -3 81 7t90 38t83 70t61 107.5t24 144.5v1202q0 66 17.5 117t42.5 77.5t54 42t51 19t34 -0.5v103q-36 3 -79 -6.5t-89 -36t-83.5 -66.5t-61.5 -105t-24 -144v-1202q0 -66 -18 -117.5t-43.5 -79.5t-54.5 -44.5t-51 -21t-34 -1.5z" />
<glyph unicode="&#x2248;" horiz-adv-x="1087" d="M96 367q106 69 205 69q43 0 87 -14.5t82 -35t76.5 -40.5t86.5 -34.5t96 -14.5q117 0 262 88v197q-141 -86 -250 -86q-56 0 -114.5 21.5t-100.5 48t-100 48t-114 21.5q-101 0 -216 -67v-201zM96 769q106 69 205 69q43 0 87 -14.5t82 -35t76.5 -40.5t86.5 -34.5t96 -14.5 q117 0 262 88v197q-141 -86 -250 -86q-56 0 -114.5 21.5t-100.5 48t-100 48t-114 21.5q-101 0 -216 -67v-201z" />
<glyph unicode="&#x2260;" horiz-adv-x="800" d="M126 -144l106 443h-136v195h182l30 128h-212v195h258l107 454h194l-108 -454h157v-195h-203l-30 -128h233v-195h-279l-103 -443h-196z" />
<glyph unicode="&#x2264;" horiz-adv-x="874" d="M810 289v193l-469 205l469 203v195l-760 -348v-98zM56 29h761v166h-761v-166z" />
<glyph unicode="&#x2265;" horiz-adv-x="874" d="M57 289l760 352v96l-760 348v-193l467 -203l-467 -205v-195zM56 29h761v166h-761v-166z" />
<glyph unicode="&#x25ca;" horiz-adv-x="800" d="M-6 674l349 -678h105l352 678l-350 677h-104zM193 674l201 409l211 -409l-213 -410z" />
<glyph unicode="&#x25cc;" horiz-adv-x="1217" d="M295 926q0 -39 26.5 -66t65.5 -27t65.5 27t26.5 66q0 38 -26.5 65t-65.5 27t-65.5 -27t-26.5 -65zM130 762q0 -39 27 -65.5t65 -26.5q39 0 66.5 26.5t27.5 65.5t-27.5 65.5t-66.5 26.5q-38 0 -65 -26.5t-27 -65.5zM295 138q0 -38 26.5 -65t65.5 -27t65.5 27t26.5 65 q0 39 -26.5 66.5t-65.5 27.5t-65.5 -27.5t-26.5 -66.5zM130 302q0 -39 27 -65t65 -26q39 0 66.5 26t27.5 65t-27.5 65.5t-66.5 26.5q-38 0 -65 -26.5t-27 -65.5zM754 138q0 -38 26.5 -65t65.5 -27t65.5 27t26.5 65q0 39 -26.5 66.5t-65.5 27.5t-65.5 -27.5t-26.5 -66.5z M917 302q0 -39 27.5 -65t66.5 -26q38 0 64.5 26t26.5 65t-26.5 65.5t-64.5 26.5q-39 0 -66.5 -26.5t-27.5 -65.5zM917 762q0 -39 27.5 -65.5t66.5 -26.5q38 0 64.5 26.5t26.5 65.5t-26.5 65.5t-64.5 26.5q-39 0 -66.5 -26.5t-27.5 -65.5zM754 926q0 -39 26.5 -66t65.5 -27 t65.5 27t26.5 66q0 38 -26.5 65t-65.5 27t-65.5 -27t-26.5 -65zM980 532q0 -39 26.5 -65.5t65.5 -26.5t65.5 26.5t26.5 65.5t-26.5 65.5t-65.5 26.5t-65.5 -26.5t-26.5 -65.5zM524 77q0 -39 26.5 -65.5t65.5 -26.5t65.5 26.5t26.5 65.5t-26.5 65t-65.5 26t-65.5 -26 t-26.5 -65zM69 532q0 -39 26.5 -65.5t65.5 -26.5t65.5 26.5t26.5 65.5t-26.5 65.5t-65.5 26.5t-65.5 -26.5t-26.5 -65.5zM524 988q0 -39 26.5 -65.5t65.5 -26.5t65.5 26.5t26.5 65.5t-26.5 65.5t-65.5 26.5t-65.5 -26.5t-26.5 -65.5z" />
<glyph unicode="&#x25fc;" horiz-adv-x="1062" d="M0 1062h1062v-1062h-1062v1062z" />
<glyph unicode="&#x5713;" horiz-adv-x="1613" d="M96 934h74v165h23v72h-23v165h-74v-402zM224 1099h25v-165h74v402h-74v-165h-25v-72zM379 934h75v402h-75v-402zM482 1164l67 -230h75l-67 230l65 172h-75zM666 302q2 -71 69.5 -160t169.5 -125v-107h113v281q-6 1 -15.5 4.5t-35 17t-46 31.5t-39 52t-23.5 75zM681 976 q0 -136 60 -211t176 -126q43 -19 101 -36v230q-62 25 -97 59t-35 88q0 65 44 108t88 51v297h-113v-127q-41 -18 -78 -45t-71.5 -67t-54.5 -97.5t-20 -123.5zM1118 -90h113v105q120 41 199.5 148t79.5 233q0 58 -14.5 106.5t-36.5 83t-56 65t-65.5 49.5t-72.5 39 q-61 29 -147 53v-224q83 -28 130.5 -67.5t47.5 -108.5q0 -89 -59.5 -143t-118.5 -58v-281zM1118 1139q5 -1 13 -3t29.5 -12t39 -24.5t35 -42.5t23.5 -64l199 65q-6 33 -31.5 79t-78 98.5t-116.5 77.5v123h-113v-297z" />
<glyph horiz-adv-x="979" d="M383 0l48 205h143q62 0 99 31t37 95v132q0 100 -113 100h-189l-136 -563h-215l150 599q27 127 27 161q0 60 -36.5 90t-126.5 30v200q174 0 272 -92q78 95 239 95q42 0 81 -9.5t79.5 -31t76 -62t60.5 -96.5l-171 -57q-37 71 -126 71q-56 0 -87 -37.5t-38 -89.5h140 q41 0 68 -1.5t64.5 -8t62 -18.5t52 -35t43 -55.5t26 -81.5t10.5 -112v-153q0 -129 -66 -217.5t-187 -88.5h-287z" />
<glyph horiz-adv-x="979" d="M494 1185v383h207v-383h-207zM383 0l48 205h143q62 0 99 31t37 95v132q0 100 -113 100h-189l-136 -563h-215l150 599q27 127 27 161q0 60 -36.5 90t-126.5 30v200q174 0 272 -92q78 95 239 95q42 0 81 -9.5t79.5 -31t76 -62t60.5 -96.5l-171 -57q-37 71 -126 71 q-56 0 -87 -37.5t-38 -89.5h140q41 0 68 -1.5t64.5 -8t62 -18.5t52 -35t43 -55.5t26 -81.5t10.5 -112v-153q0 -129 -66 -217.5t-187 -88.5h-287z" />
<glyph horiz-adv-x="979" d="M63 -132q66 -50 144 -50q41 0 97 22t100 22q36 0 84.5 -10t76.5 -26v-218q-68 44 -161 44q-44 0 -100 -22t-97 -22q-80 0 -144 49v211zM383 0l48 205h143q62 0 99 31t37 95v132q0 100 -113 100h-189l-136 -563h-215l150 599q27 127 27 161q0 60 -36.5 90t-126.5 30v200 q174 0 272 -92q78 95 239 95q42 0 81 -9.5t79.5 -31t76 -62t60.5 -96.5l-171 -57q-37 71 -126 71q-56 0 -87 -37.5t-38 -89.5h140q41 0 68 -1.5t64.5 -8t62 -18.5t52 -35t43 -55.5t26 -81.5t10.5 -112v-153q0 -96 -37 -170v-528h-212v392h-4h-287z" />
<glyph horiz-adv-x="979" d="M341 1129q-103 0 -161 64t-58 151q0 92 60.5 159.5t167.5 67.5h184q115 0 180 -62t65 -165v-157h-157v130q0 32 -10.5 53t-31.5 30t-40 12t-50 4h-136q-40 0 -64 -23t-24 -55q0 -28 20.5 -49.5t52.5 -21.5q35 0 51 23t16 48h134q0 -31 -5 -58.5t-18.5 -56t-35 -48.5 t-57.5 -33t-83 -13zM383 0l48 205h143q62 0 99 31t37 95v132q0 100 -113 100h-189l-136 -563h-215l150 599q27 127 27 161q0 60 -36.5 90t-126.5 30v200q174 0 272 -92q78 95 239 95q42 0 81 -9.5t79.5 -31t76 -62t60.5 -96.5l-171 -57q-37 71 -126 71q-56 0 -87 -37.5 t-38 -89.5h140q41 0 68 -1.5t64.5 -8t62 -18.5t52 -35t43 -55.5t26 -81.5t10.5 -112v-153q0 -129 -66 -217.5t-187 -88.5h-287z" />
<glyph horiz-adv-x="979" d="M341 1125q-103 0 -161 64t-58 151q0 92 60.5 160t167.5 68h184q115 0 180 -62t65 -166v-157h-157v130q0 32 -10.5 53t-31.5 30.5t-40.5 12.5t-49.5 4h-136q-40 0 -64 -23.5t-24 -55.5q0 -28 20.5 -49.5t52.5 -21.5q35 0 51 23t16 48h134q0 -31 -5 -58.5t-18.5 -56 t-35 -48.5t-57.5 -33t-83 -13zM59 -180h509v-212h-509v212zM383 0l48 205h143q62 0 99 31t37 95v132q0 100 -113 100h-189l-136 -563h-215l150 599q27 127 27 161q0 60 -36.5 90t-126.5 30v200q174 0 272 -92q78 95 239 95q42 0 81 -9.5t79.5 -31t76 -62t60.5 -96.5 l-171 -57q-37 71 -126 71q-56 0 -87 -37.5t-38 -89.5h140q41 0 68 -1.5t64.5 -8t62 -18.5t52 -35t43 -55.5t26 -81.5t10.5 -112v-153q0 -96 -37 -170v-528h-212v392h-4h-287z" />
<glyph horiz-adv-x="979" d="M341 1125q-103 0 -161 64t-58 151q0 92 60.5 160t167.5 68h184q115 0 180 -62t65 -166v-157h-157v130q0 32 -10.5 53t-31.5 30.5t-40.5 12.5t-49.5 4h-136q-40 0 -64 -23.5t-24 -55.5q0 -28 20.5 -49.5t52.5 -21.5q35 0 51 23t16 48h134q0 -31 -5 -58.5t-18.5 -56 t-35 -48.5t-57.5 -33t-83 -13zM63 -132q66 -50 144 -50q41 0 97 22t100 22q36 0 84.5 -10t76.5 -26v-218q-68 44 -161 44q-44 0 -100 -22t-97 -22q-80 0 -144 49v211zM383 0l48 205h143q62 0 99 31t37 95v132q0 100 -113 100h-189l-136 -563h-215l150 599q27 127 27 161 q0 60 -36.5 90t-126.5 30v200q174 0 272 -92q78 95 239 95q42 0 81 -9.5t79.5 -31t76 -62t60.5 -96.5l-171 -57q-37 71 -126 71q-56 0 -87 -37.5t-38 -89.5h140q41 0 68 -1.5t64.5 -8t62 -18.5t52 -35t43 -55.5t26 -81.5t10.5 -112v-153q0 -96 -37 -170v-528h-212v392h-4 h-287z" />
<glyph horiz-adv-x="953" d="M67 1152v54q0 133 96.5 218.5t240.5 85.5h163q144 0 240 -85.5t96 -218.5v-54h-199q0 156 -168 159h-102q-168 -3 -168 -159h-199zM383 0l48 205h143q62 0 99 31t37 95v132q0 100 -113 100h-189l-136 -563h-215l150 599q27 127 27 161q0 60 -36.5 90t-126.5 30v200 q174 0 272 -92q78 95 239 95q42 0 81 -9.5t79.5 -31t76 -62t60.5 -96.5l-171 -57q-37 71 -126 71q-56 0 -87 -37.5t-38 -89.5h140q41 0 68 -1.5t64.5 -8t62 -18.5t52 -35t43 -55.5t26 -81.5t10.5 -112v-153q0 -129 -66 -217.5t-187 -88.5h-287z" />
<glyph horiz-adv-x="953" d="M712 1070q-88 0 -149.5 61t-61.5 149q0 21 2 31h-65q-168 0 -168 -159h-199v54q0 132 97 218t240 86h264q102 0 174.5 -60.5t76.5 -161.5v-4v-4q0 -88 -61.5 -149t-149.5 -61zM383 0l48 205h143q62 0 99 31t37 95v132q0 100 -113 100h-189l-136 -563h-215l150 599 q27 127 27 161q0 60 -36.5 90t-126.5 30v200q174 0 272 -92q78 95 239 95q42 0 81 -9.5t79.5 -31t76 -62t60.5 -96.5l-171 -57q-37 71 -126 71q-56 0 -87 -37.5t-38 -89.5h140q41 0 68 -1.5t64.5 -8t62 -18.5t52 -35t43 -55.5t26 -81.5t10.5 -112v-153q0 -129 -66 -217.5 t-187 -88.5h-287z" />
<glyph horiz-adv-x="0" d="M-521 -442q196 0 317.5 93t121.5 257q0 125 -86 203t-263 90l-15 -182q84 -9 121.5 -32t37.5 -77q0 -66 -64.5 -109.5t-169.5 -43.5v-199zM-628 -442v203q-43 0 -85 14.5t-75 50t-33 84.5h-199v-46q0 -90 57.5 -161.5t146 -108t188.5 -36.5z" />
<glyph horiz-adv-x="771" d="M276 1125q47 0 83 13t57.5 33t35 48.5t18.5 56t5 58.5h-134q0 -25 -16 -48t-51 -23q-32 0 -52.5 21.5t-20.5 49.5q0 32 24 55.5t64 23.5h136q30 -1 49.5 -4t40.5 -12.5t31.5 -30.5t10.5 -53v-130h157v157q0 104 -65 166t-180 62h-184q-107 0 -167.5 -68t-60.5 -160 q0 -87 58 -151t161 -64z" />
<glyph horiz-adv-x="2279" d="M377 -11q-96 0 -174.5 63t-78.5 155v40q0 25 -2 40t-12 29.5t-30 14.5l-23 -6v163l422 350q-16 28 -47.5 43t-62.5 15q-50 0 -85 -30t-45 -76l-180 58q13 64 47 111.5t79 73.5t91.5 38t92.5 12q90 0 161 -36t100 -88q124 87 271.5 130.5t294.5 43.5q135 0 251 -36 t189 -102q89 100 259 100q105 0 188 -52t118 -153l-184 -61q-23 74 -124 74q-53 0 -92.5 -31.5t-43.5 -94.5h136q83 0 139.5 -12.5t101 -45.5t65.5 -93t21 -151h-210q0 57 -21.5 86.5t-89.5 29.5h-19q-152 -122 -152 -268l-204 -1q0 154 112 269h-214q-38 0 -62.5 -9.5 t-35.5 -28t-15 -36t-4 -42.5h-210q0 169 80 235.5t232 66.5h147q-37 66 -134.5 107.5t-221.5 41.5q-273 0 -503 -187l-400 -329q9 -22 9 -43v-86q0 -38 25.5 -59t59.5 -21q33 0 56.5 20.5t23.5 59.5v100h157v-98q0 -40 25 -62t59 -22q37 0 63.5 22.5t26.5 61.5v125 q0 73 -30 111t-112 61l154 124q97 -32 141 -96.5t44 -178.5v-180q0 -118 -79 -189t-183 -71q-117 0 -188 80q-60 -80 -170 -80zM1579 -19q-253 0 -369.5 97t-116.5 303h212q0 -104 66.5 -149.5t192.5 -45.5h185q127 0 193 46t66 149h212q0 -201 -118 -300.5t-362 -99.5h-161 z" />
<glyph horiz-adv-x="2111" d="M1137 1240q54 91 156.5 148t209.5 57v-210q-91 0 -148 -66zM1610 -8v213q231 0 231 268v490q0 143 -53 207.5t-178 64.5v210q215 0 329.5 -107t114.5 -347v-518q0 -240 -110 -360t-334 -121zM59 848q13 64 47 111.5t79 73.5t91.5 38t92.5 12q89 0 159 -35t100 -87 q96 76 216 115.5t245 39.5q141 0 260.5 -46.5t199 -144t86.5 -230.5v-180h-142q-95 0 -140.5 -31.5t-45.5 -117.5q0 -64 51.5 -112.5t144.5 -48.5v-213q-175 0 -290.5 110t-115.5 260q0 139 63 220q79 98 262 113q-16 90 -117 150t-233 60q-180 0 -316 -116l-461 -379 q9 -22 9 -43v-86q0 -38 25.5 -59t59.5 -21q33 0 56.5 20.5t23.5 59.5v100h157v-98q0 -40 25 -62t59 -22q37 0 63.5 22.5t26.5 61.5v125q0 73 -30 111t-112 61l154 124q97 -32 141 -96.5t44 -178.5v-180q0 -118 -79 -189t-183 -71q-117 0 -188 80q-60 -80 -170 -80 q-96 0 -174.5 63t-78.5 155v40q0 25 -2 40t-12 29.5t-30 14.5l-23 -6v163l422 350q-16 28 -47.5 43t-62.5 15q-50 0 -85 -30t-45 -76z" />
<glyph horiz-adv-x="2065" d="M1455 -8q-175 0 -290.5 108t-115.5 258q0 133 55 214q76 104 268 123q-24 93 -110.5 144t-197.5 51q-88 0 -178 -33t-161 -91l-430 -349q15 -19 46 -67.5t53 -77t69.5 -54t108.5 -25.5q86 0 140 50t54 126q0 72 -29 118t-117 72l153 124q49 -17 85.5 -45.5t57 -60 t32.5 -71.5t16 -74.5t4 -75.5q0 -156 -104.5 -262.5t-287.5 -106.5q-67 0 -124 18.5t-103 54t-81 75.5t-71 95q-2 3 -12.5 19t-13.5 20t-12.5 16t-15 16t-15 10.5t-19.5 8.5t-21 2q-20 0 -31 -4v170l439 362q-35 46 -98 46q-52 0 -86.5 -30t-43.5 -76l-182 58 q13 64 47 111.5t79.5 73.5t92 38t93.5 12q78 0 148.5 -36t96.5 -77q175 123 402 123q106 0 202.5 -29t173 -82.5t121.5 -137.5t45 -187v-142h-140q-97 0 -142.5 -31.5t-45.5 -117.5q0 -64 51.5 -112.5t144.5 -48.5v-213zM1562 -8v213q231 0 231 268v490q0 144 -52.5 208 t-178.5 64v210q215 0 330.5 -107t115.5 -347v-518q0 -240 -110.5 -360t-335.5 -121zM1089 1240q54 91 156.5 148t209.5 57v-210q-91 0 -148 -66z" />
<glyph horiz-adv-x="2055" d="M576 -13q-56 0 -105.5 14.5t-86.5 35.5t-74 56.5t-62 66.5t-57 77q-3 4 -12 17.5t-12.5 18t-11.5 15t-14 14.5t-14.5 10t-18 8t-20.5 2q-20 0 -31 -4v170l439 364q-35 44 -98 44q-52 0 -86.5 -30t-43.5 -76l-182 58q13 64 47 111.5t79.5 73.5t92 38t93.5 12 q78 0 149.5 -34t101.5 -75q168 123 339 123q68 0 130 -12.5t121 -42.5t103 -75t73 -114.5t34 -157.5q-90 0 -140 -47.5t-50 -142.5v-92q0 -81 50.5 -141t139.5 -60v-220q-100 0 -179 38t-125 99t-70 129t-24 136v111q0 220 120 318q-57 69 -178 69q-65 0 -126 -31t-142 -95 l-430 -349q15 -19 46 -67.5t53 -77t69.5 -54t108.5 -25.5q86 0 140 50t54 126q0 72 -29 118t-117 72l153 124q49 -17 85.5 -45.5t57 -60t32.5 -71.5t16 -74.5t4 -75.5q0 -156 -104.5 -262.5t-287.5 -106.5zM1554 -8v220q232 0 232 261v480q0 148 -50.5 215t-181.5 67v-44 q0 -158 151 -177v-139q-145 19 -214 106t-69 211v253h132q80 0 144.5 -13.5t121.5 -46t95.5 -84t60.5 -130t22 -181.5v-519q-2 -241 -111 -359.5t-333 -119.5z" />
<glyph horiz-adv-x="1854" d="M1143 1133q89 0 163 -12t139 -39.5t109.5 -70.5t70 -107.5t25.5 -147.5v-197h-356q-95 0 -152 -42.5t-57 -137.5q0 -86 60.5 -129t156.5 -43h70q147 0 196 109l193 -52q-27 -87 -90.5 -148.5t-139.5 -88.5t-159 -27h-70q-131 0 -236.5 49t-156.5 146 q-51 -95 -148.5 -151.5t-226.5 -56.5q-208 0 -342.5 132.5t-134.5 370.5v168h184v-103q54 2 159 153q2 3 34 49.5t52 73.5q-16 32 -48.5 48.5t-64.5 16.5q-52 0 -86.5 -30t-43.5 -76l-182 58q13 64 47 111.5t79.5 73.5t92 38t93.5 12q70 0 134.5 -28.5t99.5 -66.5 q146 145 430 145v-199q-118 0 -202 -38t-148 -123l-149 -197q-87 -112 -145 -167t-121 -64q67 -152 258 -152q91 0 151 56.5t60 140.5q0 109 -102 157l119 157q98 -44 151 -134q48 95 149.5 143.5t241.5 48.5h134q0 172 -291 172v199zM1166 -86h208q0 -48 40.5 -79.5 t99.5 -31.5q48 0 87.5 25t50.5 71l203 -52q-31 -108 -119.5 -172.5t-223.5 -64.5q-157 0 -251.5 83t-94.5 221z" />
<glyph horiz-adv-x="2061" d="M1453 -8q-175 0 -290.5 108t-115.5 258q0 137 55 214q73 104 267 123q-17 63 -56 108t-91.5 68.5t-106 33.5t-112.5 10q-99 0 -183 -38.5t-133 -103.5l-149 -197q-87 -112 -145 -167t-121 -64q67 -152 258 -152q91 0 151 56.5t60 140.5q0 109 -102 157l119 157 q97 -42 147 -129t50 -190q0 -166 -116 -282t-305 -116q-208 0 -342.5 132.5t-134.5 370.5v168h184v-103q54 2 159 153q2 3 34 49.5t52 73.5q-16 32 -48.5 48.5t-64.5 16.5q-52 0 -86.5 -30t-43.5 -76l-182 58q13 64 47 111.5t79.5 73.5t92 38t93.5 12q71 0 136.5 -29 t97.5 -68q73 66 180.5 100t225.5 34q86 0 168 -18t156 -55.5t129 -91.5t87.5 -131.5t31.5 -168.5v-140h-142q-95 0 -140 -31.5t-45 -117.5q0 -64 51 -112.5t144 -48.5v-213zM1560 -8v213q232 0 232 268v490q0 143 -53.5 207.5t-178.5 64.5v210q215 0 329.5 -107t114.5 -347 v-518q0 -240 -110 -360t-334 -121zM1087 1240q54 91 156.5 148t209.5 57v-210q-91 0 -148 -66z" />
<glyph horiz-adv-x="2116" d="M1372 -11q-145 0 -235 82.5t-90 219.5v235q0 244 182 316q-46 42 -111.5 62t-127.5 20q-89 0 -169.5 -40t-133.5 -111l-149 -197q-87 -112 -145 -167t-121 -64q67 -152 258 -152q91 0 151 56.5t60 140.5q0 109 -102 157l119 157q97 -42 147 -129t50 -190 q0 -166 -116 -282t-305 -116q-208 0 -342.5 132.5t-134.5 370.5v168h184v-103q54 2 159 153q2 3 34 49.5t52 73.5q-16 32 -48.5 48.5t-64.5 16.5q-52 0 -86.5 -30t-43.5 -76l-182 58q13 64 47 111.5t79.5 73.5t92 38t93.5 12q71 0 136 -28.5t98 -66.5q144 132 383 132 q94 0 179 -25t155 -74t113.5 -131.5t47.5 -188.5h-51q-89 0 -132.5 -49t-43.5 -129v-221q0 -34 26.5 -67.5t82.5 -33.5q55 0 80 32.5t25 68.5v79h159v-79q0 -36 25.5 -68.5t81.5 -32.5q55 0 81 33.5t26 67.5v661q0 145 -51.5 208.5t-183.5 63.5v210q220 0 334.5 -108 t114.5 -346v-700q0 -137 -82 -219.5t-212 -82.5q-129 0 -207 91q-33 -45 -83 -68t-103 -23zM1315 1148l-207 75q53 102 161 162t235 60v-210q-132 0 -189 -87z" />
<glyph horiz-adv-x="2053" d="M534 -13q-208 0 -342.5 132.5t-134.5 370.5v168h184v-103q54 2 159 153q2 3 34 49.5t52 73.5q-16 32 -48.5 48.5t-64.5 16.5q-52 0 -86.5 -30t-43.5 -76l-182 58q13 64 47 111.5t79.5 73.5t92 38t93.5 12q71 0 136 -28.5t98 -66.5q144 132 377 132q94 0 179.5 -25.5 t156.5 -75.5t115.5 -133.5t49.5 -190.5h-40q-89 0 -138 -47.5t-49 -142.5v-92q0 -81 49.5 -141t137.5 -60v-220q-80 0 -147.5 25.5t-113 66.5t-77 94t-46 108t-14.5 108v111q0 250 159 341q-75 78 -216 78q-89 0 -169 -40.5t-134 -110.5l-149 -197q-87 -112 -145 -167 t-121 -64q67 -152 258 -152q91 0 151 56.5t60 140.5q0 109 -102 157l119 157q97 -42 147 -129t50 -190q0 -166 -116 -282t-305 -116zM1552 -8v220q49 0 87.5 11.5t72 39.5t52 81t18.5 129v480q0 148 -50 215t-182 67v-44q0 -158 153 -177v-139q-145 19 -214 106t-69 211v253 h130q100 0 178 -22.5t140 -73t95 -141.5t33 -218v-533q-5 -233 -114.5 -348.5t-329.5 -116.5z" />
<glyph horiz-adv-x="1410" d="M178 -42q-74 100 -97.5 177.5t-23.5 210.5v180q0 188 92 291.5t236 103.5q49 0 118 -18q64 44 159 44q116 0 194 -67.5t78 -180.5v-184h-142q-95 0 -140 -31.5t-45 -117.5q0 -64 51 -112.5t144 -48.5v-213q-175 0 -290.5 110t-115.5 260q0 86 19 145t81 109 q49 43 114.5 61t160.5 18q0 42 -31 66t-78 24q-35 0 -63.5 -14.5t-37.5 -45.5l-92 23q-29 6 -44 6q-79 0 -120 -60t-41 -168v-180q0 -116 21.5 -176.5t93.5 -148.5zM909 -8v213q232 0 232 268v490q0 143 -53.5 207.5t-178.5 64.5v210q215 0 329.5 -107t114.5 -347v-518 q0 -240 -110 -360t-334 -121zM390 1081q0 100 61.5 185t156 132t194.5 47v-210q-83 0 -143 -54t-60 -153z" />
</font>
</defs>
</svg>
