<?xml version="1.0" encoding="utf-8"?>
<!-- Generator: Adobe Illustrator 22.0.1, SVG Export Plug-In . SVG Version: 6.00 Build 0)  -->
<svg version="1.1" id="Layer_1" xmlns="http://www.w3.org/2000/svg" xmlns:xlink="http://www.w3.org/1999/xlink" x="0px" y="0px"
	 viewBox="0 0 480.7 153.3" style="enable-background:new 0 0 480.7 153.3;" xml:space="preserve">
<style type="text/css">
	.st0{fill:#0C0B0B;}
	.st1{fill:#5E5F5E;}
	.st2{fill:#FCF1D7;}
	.st3{fill:#767168;}
	.st4{fill:#F1BE94;}
	.st5{opacity:0.5;fill:#E89170;}
	.st6{fill:#E89170;}
	.st7{fill:#FAF7DA;}
</style>
<g>
	<path class="st0" d="M87.2,51h-3.8V31.4h3.8V51z"/>
	<path class="st0" d="M103.5,51.2c-0.5,0.1-1,0.2-1.5,0.2c-1,0-1.9-0.2-2.6-0.8s-0.9-1.5-0.9-2.7v-6.3c0-0.7-0.1-1.4-0.5-1.9
		c-0.3-0.5-0.7-0.7-1.3-0.7c-0.7,0-1.4,0.3-1.9,1.2c-0.5,0.7-0.8,1.9-0.8,3.4V51h-3.7V36.5h3.6v1.9c0.5-0.7,1-1.3,1.7-1.6
		c0.7-0.3,1.4-0.6,2.2-0.6c1.3,0,2.2,0.5,3,1.3c0.8,0.9,1.2,2.1,1.2,3.7v6.4c0,0.3,0.1,0.6,0.2,0.7s0.5,0.2,0.8,0.1L103.5,51.2z"/>
	<path class="st0" d="M114.4,50.1c-1.3,0.8-2.6,1.3-3.7,1.3c-1.3,0-2.3-0.3-3-1.2s-1-2-1-3.6v-7.3h-1.9v-2.8h1.9v-4h3.7v4h3v2.8h-3
		v7c0,0.7,0.1,1.2,0.3,1.5s0.6,0.5,1,0.5c0.3,0,0.9-0.1,1.5-0.5L114.4,50.1z"/>
	<path class="st0" d="M127.7,44.8h-8.5c0.1,1.2,0.5,2.1,1,2.7s1.4,0.9,2.2,0.9c1.2,0,2.4-0.3,3.8-1l1,2.4c-1.5,1-3.3,1.6-5.2,1.6
		c-1.4,0-2.6-0.3-3.6-0.9c-1-0.6-1.9-1.5-2.4-2.7s-0.9-2.6-0.9-4.2s0.3-3,0.9-4.1c0.6-1.2,1.4-2,2.3-2.6s2.1-0.8,3.3-0.8
		c2.1,0,3.6,0.7,4.5,2c0.9,1.3,1.4,3.3,1.4,5.7v0.9H127.7z M124,42c0-1-0.2-1.7-0.6-2.3c-0.3-0.5-0.9-0.8-1.6-0.8
		c-0.6,0-1.2,0.2-1.6,0.8c-0.5,0.5-0.7,1.3-0.9,2.3H124z"/>
	<path class="st0" d="M138.3,36.1l-0.3,3.8c-0.5-0.2-0.9-0.3-1.4-0.3c-0.8,0-1.5,0.3-2,1c-0.5,0.7-0.7,1.7-0.7,3V51h-3.7V36.4h3.5
		l0.1,2.4c0.3-0.9,0.9-1.6,1.5-2.1s1.4-0.7,2.3-0.7C137.8,36.1,138.1,36.1,138.3,36.1z"/>
	<path class="st0" d="M152.8,51.2c-0.6,0.1-1,0.1-1.5,0.1c-1,0-1.9-0.2-2.6-0.8c-0.6-0.6-0.9-1.5-0.9-2.7v-6.3
		c0-0.7-0.1-1.4-0.5-1.9c-0.3-0.5-0.7-0.7-1.3-0.7c-0.7,0-1.4,0.3-1.9,1.2c-0.5,0.8-0.7,2-0.7,3.5V51h-3.7V36.5h3.6v1.9
		c0.5-0.7,1-1.3,1.7-1.6s1.4-0.6,2.2-0.6c1.3,0,2.2,0.5,3,1.3c0.8,0.9,1.2,2.1,1.2,3.7v6.4c0,0.3,0.1,0.6,0.2,0.7s0.5,0.2,0.8,0.1
		L152.8,51.2z"/>
	<path class="st0" d="M166.7,44.8h-8.5c0.1,1.2,0.5,2.1,1,2.7s1.4,0.9,2.2,0.9c1.2,0,2.4-0.3,3.8-1l1,2.4c-1.5,1-3.3,1.6-5.1,1.6
		c-1.4,0-2.6-0.3-3.6-0.9s-1.9-1.5-2.4-2.7s-0.9-2.6-0.9-4.2s0.3-3,0.9-4.1c0.6-1.2,1.4-2,2.3-2.6s2.1-0.8,3.3-0.8
		c2.1,0,3.6,0.7,4.5,2c0.9,1.3,1.4,3.3,1.4,5.7C166.7,43.9,166.7,44.8,166.7,44.8z M162.9,42c0-1-0.2-1.7-0.6-2.3
		c-0.3-0.5-0.9-0.8-1.6-0.8c-0.6,0-1.2,0.2-1.6,0.8c-0.5,0.5-0.7,1.3-0.9,2.3H162.9z"/>
	<path class="st0" d="M177.6,50.1c-1.3,0.8-2.6,1.3-3.8,1.3s-2.3-0.3-3-1.2s-1-2-1-3.6v-7.3h-1.9v-2.8h1.9v-4h3.7v4h3v2.8h-3v7
		c0,0.7,0.1,1.2,0.3,1.5s0.6,0.5,1,0.5c0.3,0,0.9-0.1,1.5-0.5L177.6,50.1z"/>
	<path class="st0" d="M189.3,34.7v5.1h5.6v3.1h-5.6v8.1h-3.8V31.4h10.2v3.1h-6.4V34.7z"/>
	<path class="st0" d="M205.8,36.1l-0.3,3.8c-0.5-0.2-0.9-0.3-1.4-0.3c-0.8,0-1.5,0.3-2,1c-0.5,0.7-0.7,1.7-0.7,3V51h-3.7V36.4h3.5
		l0.1,2.4c0.3-0.9,0.9-1.6,1.5-2.1s1.4-0.7,2.3-0.7C205.5,36.1,205.7,36.1,205.8,36.1z"/>
	<path class="st0" d="M218.7,44.8h-8.5c0.1,1.2,0.5,2.1,1,2.7s1.4,0.9,2.2,0.9c1.2,0,2.4-0.3,3.8-1l1,2.4c-1.5,1-3.3,1.6-5.2,1.6
		c-1.4,0-2.6-0.3-3.6-0.9c-1-0.6-1.9-1.5-2.4-2.7s-0.9-2.6-0.9-4.2s0.3-3,0.9-4.1c0.6-1.2,1.4-2,2.3-2.6c0.9-0.6,2.1-0.8,3.3-0.8
		c2.1,0,3.6,0.7,4.5,2s1.4,3.3,1.4,5.7v0.9H218.7z M215,42c0-1-0.2-1.7-0.6-2.3c-0.3-0.5-0.9-0.8-1.6-0.8c-0.6,0-1.2,0.2-1.6,0.8
		c-0.5,0.5-0.7,1.3-0.9,2.3H215z"/>
	<path class="st0" d="M232.6,44.8h-8.5c0.1,1.2,0.5,2.1,1,2.7s1.4,0.9,2.2,0.9c1.2,0,2.4-0.3,3.8-1l1,2.4c-1.5,1-3.3,1.6-5.2,1.6
		c-1.4,0-2.6-0.3-3.6-0.9c-1-0.6-1.9-1.5-2.4-2.7s-0.9-2.6-0.9-4.2s0.3-3,0.9-4.1c0.6-1.2,1.4-2,2.3-2.6s2.1-0.8,3.3-0.8
		c2.1,0,3.6,0.7,4.5,2s1.4,3.3,1.4,5.7v0.9H232.6z M228.9,42c0-1-0.2-1.7-0.6-2.3c-0.3-0.5-0.9-0.8-1.6-0.8c-0.6,0-1.2,0.2-1.6,0.8
		c-0.5,0.5-0.7,1.3-0.9,2.3H228.9z"/>
	<path class="st0" d="M247.6,51.2c-0.6,0.1-1.2,0.2-1.5,0.2c-0.7,0-1.4-0.1-1.9-0.5s-0.8-0.9-1-1.6c-0.5,0.7-1,1.2-1.6,1.5
		s-1.4,0.6-2.1,0.6c-1.2,0-2.1-0.3-2.9-0.9c-0.8-0.7-1.4-1.5-1.9-2.6s-0.6-2.3-0.6-3.7c0-1.5,0.2-2.8,0.7-4.1s1.3-2.2,2.3-2.9
		c1-0.7,2.3-1,3.8-1c0.6,0,1.3,0.1,1.9,0.2v-6.3h3.7v17.7c0,0.6,0.3,0.9,0.9,0.8L247.6,51.2z M242.1,47.5c0.5-0.7,0.7-1.5,0.7-2.7
		v-5.2c-0.6-0.2-1.2-0.3-1.9-0.3c-1,0-1.9,0.5-2.3,1.3c-0.5,0.8-0.7,2-0.7,3.4c0,1.4,0.2,2.4,0.6,3.4s1,1.3,1.9,1.3
		C241.1,48.4,241.7,48,242.1,47.5z"/>
	<path class="st0" d="M260.3,49.3c-1.2,1.4-2.8,2-5,2c-2.1,0-3.6-0.7-4.8-2.1s-1.6-3.3-1.6-5.6c0-2.4,0.6-4.3,1.7-5.7
		c1.2-1.4,2.8-2.1,4.9-2.1c2.1,0,3.7,0.7,4.8,2.1c1.2,1.4,1.6,3.3,1.6,5.6C262,46.2,261.5,48,260.3,49.3z M257.5,40.2
		c-0.5-0.8-1.2-1.2-2-1.2c-0.8,0-1.5,0.3-2,1.2c-0.5,0.8-0.7,2-0.7,3.5c0,1.5,0.2,2.7,0.7,3.5c0.5,0.8,1.2,1.2,2,1.2
		c0.8,0,1.5-0.3,2-1.2c0.5-0.8,0.7-1.9,0.7-3.4C258.2,42.2,258,41.1,257.5,40.2z"/>
	<path class="st0" d="M285.2,51.2c-0.6,0.1-1,0.1-1.5,0.1c-1,0-1.9-0.3-2.6-0.9c-0.6-0.6-0.9-1.5-0.9-2.7v-6.3
		c0-0.8-0.1-1.4-0.5-1.9c-0.2-0.5-0.7-0.7-1.2-0.7c-0.7,0-1.3,0.3-1.7,1.2c-0.5,0.7-0.7,1.9-0.7,3.4v7.5h-3.7v-9.4
		c0-0.8-0.1-1.4-0.5-1.9c-0.2-0.5-0.7-0.7-1.2-0.7c-0.7,0-1.4,0.3-1.9,1.2c-0.5,0.7-0.7,1.9-0.7,3.4v7.5h-3.7V36.5h3.6v1.7
		c0.5-0.7,1-1.3,1.9-1.6c0.7-0.3,1.4-0.6,2.1-0.6c0.8,0,1.5,0.2,2.2,0.7s1.2,1.2,1.5,2c0.5-0.8,1.2-1.5,1.9-2
		c0.7-0.5,1.5-0.7,2.3-0.7c0.7,0,1.4,0.2,2,0.6c0.6,0.3,1.2,0.9,1.5,1.7c0.3,0.8,0.6,1.7,0.6,2.8v6.4c0,0.3,0.1,0.6,0.2,0.7
		c0.1,0.1,0.5,0.2,0.8,0.1L285.2,51.2z"/>
	<path class="st0" d="M312.9,51h-3.7l-0.9-11.2c0-0.6-0.1-1.6-0.2-3c-0.2,1.2-0.5,2.2-0.7,3.1l-2.9,10.4l-3.6,0.1L298,39.7
		c-0.1-0.5-0.3-1.4-0.6-2.8c0,0.5-0.1,1.4-0.2,2.9l-1,11.2h-3.5l2.3-19.6h4.4l3,11.9c0.1,0.6,0.2,1.2,0.3,1.7c0,0.1,0.1,0.3,0.1,0.6
		c0.2-1.2,0.3-2,0.6-2.4l3-11.8h4.3L312.9,51z"/>
	<path class="st0" d="M325.8,49.3c-1.2,1.4-2.8,2-5,2c-2.1,0-3.6-0.7-4.8-2.1s-1.6-3.3-1.6-5.6c0-2.4,0.6-4.3,1.7-5.7
		c1.2-1.4,2.8-2.1,4.9-2.1s3.7,0.7,4.8,2.1c1.2,1.4,1.6,3.3,1.6,5.6C327.6,46.2,327,48,325.8,49.3z M323,40.2
		c-0.5-0.8-1.2-1.2-2-1.2c-0.8,0-1.5,0.3-2,1.2c-0.5,0.8-0.7,2-0.7,3.5c0,1.5,0.2,2.7,0.7,3.5c0.5,0.8,1.2,1.2,2,1.2
		c0.8,0,1.5-0.3,2-1.2c0.5-0.8,0.7-1.9,0.7-3.4C323.7,42.2,323.5,41.1,323,40.2z"/>
	<path class="st0" d="M342.2,36.5l-5,14.4h-3.7l-5-14.4h3.8l3.1,9.5l3.1-9.5H342.2z"/>
	<path class="st0" d="M355.4,44.8h-8.5c0.1,1.2,0.5,2.1,1,2.7c0.6,0.6,1.4,0.9,2.2,0.9c1.2,0,2.4-0.3,3.8-1l1,2.4
		c-1.5,1-3.3,1.6-5.2,1.6c-1.4,0-2.6-0.3-3.6-0.9c-1-0.6-1.9-1.5-2.4-2.7c-0.6-1.2-0.9-2.6-0.9-4.2s0.3-3,0.9-4.1
		c0.6-1.2,1.4-2,2.3-2.6s2.1-0.8,3.3-0.8c2.1,0,3.6,0.7,4.5,2c0.9,1.3,1.4,3.3,1.4,5.7v0.9H355.4z M351.6,42c0-1-0.2-1.7-0.6-2.3
		c-0.3-0.5-0.9-0.8-1.6-0.8c-0.6,0-1.2,0.2-1.6,0.8c-0.5,0.5-0.7,1.3-0.9,2.3H351.6z"/>
	<path class="st0" d="M378.2,51.2c-0.6,0.1-1,0.1-1.5,0.1c-1,0-1.9-0.3-2.6-0.9c-0.7-0.6-0.9-1.5-0.9-2.7v-6.3
		c0-0.8-0.1-1.4-0.5-1.9c-0.2-0.5-0.7-0.7-1.2-0.7c-0.7,0-1.3,0.3-1.7,1.2c-0.5,0.7-0.7,1.9-0.7,3.4v7.5h-3.7v-9.4
		c0-0.8-0.1-1.4-0.5-1.9c-0.2-0.5-0.7-0.7-1.2-0.7c-0.7,0-1.4,0.3-1.9,1.2c-0.5,0.7-0.7,1.9-0.7,3.4v7.5h-3.7V36.5h3.6v1.7
		c0.5-0.7,1-1.3,1.9-1.6c0.7-0.3,1.4-0.6,2.1-0.6c0.8,0,1.5,0.2,2.2,0.7c0.7,0.5,1.2,1.2,1.5,2c0.5-0.8,1.2-1.5,1.9-2
		c0.7-0.5,1.5-0.7,2.3-0.7c0.7,0,1.4,0.2,2,0.6c0.6,0.3,1.2,0.9,1.5,1.7s0.6,1.7,0.6,2.8v6.4c0,0.3,0.1,0.6,0.2,0.7
		c0.1,0.1,0.5,0.2,0.8,0.1L378.2,51.2z"/>
	<path class="st0" d="M392.2,44.8h-8.6c0.1,1.2,0.5,2.1,1,2.7c0.6,0.6,1.4,0.9,2.2,0.9c1.2,0,2.4-0.3,3.8-1l1,2.4
		c-1.5,1-3.3,1.6-5.2,1.6c-1.4,0-2.6-0.3-3.6-0.9c-1-0.6-1.9-1.5-2.4-2.7c-0.6-1.2-0.9-2.6-0.9-4.2s0.3-3,0.9-4.1
		c0.6-1.2,1.4-2,2.3-2.6c0.9-0.6,2.1-0.8,3.3-0.8c2.1,0,3.6,0.7,4.5,2c0.9,1.3,1.4,3.3,1.4,5.7v0.9H392.2z M388.3,42
		c0-1-0.2-1.7-0.6-2.3c-0.3-0.5-0.9-0.8-1.6-0.8c-0.6,0-1.2,0.2-1.6,0.8c-0.5,0.5-0.7,1.3-0.9,2.3H388.3z"/>
	<path class="st0" d="M407.3,51.2c-0.6,0.1-1,0.1-1.5,0.1c-1,0-1.9-0.2-2.6-0.8c-0.7-0.6-0.9-1.5-0.9-2.7v-6.3
		c0-0.7-0.1-1.4-0.5-1.9c-0.3-0.5-0.7-0.7-1.3-0.7c-0.7,0-1.4,0.3-1.9,1.2c-0.5,0.7-0.8,1.9-0.8,3.4v7.3h-3.7V36.5h3.6v1.9
		c0.5-0.7,1-1.3,1.7-1.6s1.4-0.6,2.2-0.6c1.3,0,2.2,0.5,3,1.3c0.8,0.9,1.2,2.1,1.2,3.7v6.4c0,0.3,0.1,0.6,0.2,0.7s0.5,0.2,0.8,0.1
		L407.3,51.2z"/>
	<path class="st0" d="M418.3,50.1c-1.3,0.8-2.6,1.3-3.7,1.3c-1.3,0-2.3-0.3-3-1.2s-1-2-1-3.6v-7.3h-1.9v-2.8h1.9v-4h3.7v4h3v2.8h-3
		v7c0,0.7,0.1,1.2,0.3,1.5c0.2,0.3,0.6,0.5,1,0.5c0.3,0,0.9-0.1,1.5-0.5L418.3,50.1z"/>
	<path class="st0" d="M93,77.1v4.5c0.6-0.3,1-0.7,1.4-0.9c0.3-0.3,0.6-0.5,0.6-0.6l2,2.4c-0.5,0.5-0.9,0.9-1.7,1.4
		c-0.7,0.5-1.5,0.8-2.3,1.2v6.6h-3v-5.9c-0.1,0-0.3,0-0.6,0c-1.5,0-2.9-0.2-4-0.8s-1.9-1.3-2.4-2.2c-0.6-0.9-0.8-2-0.8-3.3
		c0-1,0.2-2,0.8-2.8c0.5-0.8,1.2-1.6,2.1-2.1c-0.3-0.6-0.6-1.3-0.6-2c0-1.2,0.3-2.1,1-2.8c0.7-0.7,1.7-1.2,2.9-1.2
		c0.6,0,1.3,0.1,1.9,0.3s1,0.7,1.5,1.2c1.5-1.4,2.8-2.1,4.1-2.1l1.2,1.7c-0.2,0.2-0.5,0.6-0.5,1c0,0.2,0,0.7,0.1,1.4
		c0.1,0.8,0.2,1.5,0.2,2c0,0.8-0.2,1.5-0.8,2.1s-1.3,0.9-2.3,0.9C93.6,77.1,93.4,77.1,93,77.1z M90,82.4v-5.9h-1.4
		c-0.8,0-1.5,0.2-2.1,0.8s-0.9,1.3-0.9,2.1c0,0.9,0.3,1.6,0.9,2.2c0.7,0.6,1.6,0.8,2.9,0.8C89.6,82.5,89.9,82.4,90,82.4z M87.5,73.5
		c0.3,0,0.6-0.1,0.9-0.1c0.5,0,0.9,0,1.4,0.1c0-0.2,0-0.5,0-0.5c0-0.6-0.1-0.9-0.5-1.3s-0.6-0.5-1-0.5c-0.3,0-0.7,0.1-0.9,0.3
		s-0.3,0.6-0.3,0.9C87.2,73.1,87.3,73.3,87.5,73.5z M93.2,72.7c-0.1,0.5-0.2,1.2-0.2,2c0,0,0.1,0,0.2,0c0.9,0,1.4-0.3,1.4-1.2
		c0-0.3-0.1-0.9-0.3-1.7l-0.1-0.3C93.7,71.8,93.5,72.3,93.2,72.7z"/>
	<path class="st0" d="M114.9,67.5v2.9c1.4,1.6,2,4.1,2,7.3c0,3-0.5,5.1-1.5,6.2c-1,1.2-2.3,1.7-4,1.7c-1.2,0-2.2-0.3-2.9-1.2
		c-1,0.8-2.4,1.2-4.2,1.2s-3.1-0.6-4.2-1.7s-1.6-2.8-1.6-4.9c0-0.3,0-0.9,0.1-1.7l2.8,0.2V78h0.1c0.6,0,1-0.5,1.5-1.3l-0.7-0.2
		c-1-0.5-1.9-1-2.4-1.7s-0.8-1.5-0.8-2.4c0-1,0.3-2,1-2.7c0.7-0.7,1.6-1.2,2.9-1.2c0.7,0,1.4,0.1,2,0.5c0.6,0.3,1,0.7,1.5,1.3
		c1.2-1.2,2.6-1.7,4.2-1.7c0.6,0,1.2,0.1,1.6,0.2v-8h2.7c0.9,0,1.6,0.2,2.4,0.6c0.7,0.5,1,1.4,1,2.8c0,1-0.3,1.9-0.9,2.6
		c-0.6,0.6-1.3,0.9-2.2,0.9C115,67.5,114.9,67.5,114.9,67.5z M106.8,81.7c0.5-0.6,0.8-1.4,0.8-2.4c0-1.4-0.5-2.2-1.4-2.7
		c-0.5,1.2-1,2.2-1.7,2.9s-1.4,1-2.3,1c-0.2,0-0.5,0-0.7-0.1c0.1,0.7,0.5,1.3,0.9,1.6s1.2,0.5,2,0.5
		C105.4,82.5,106.2,82.3,106.8,81.7z M103.8,74.6l0.3-1c0-0.2,0-0.3,0-0.5c0-0.6-0.1-0.9-0.5-1.3s-0.7-0.5-1-0.5s-0.7,0.1-0.9,0.3
		s-0.3,0.6-0.3,0.9s0.1,0.7,0.5,1c0.3,0.3,0.8,0.6,1.3,0.8L103.8,74.6z M113.9,77.7c0-1.4-0.1-2.4-0.5-3.4c-0.3-0.9-0.7-1.5-1.2-2
		l0,0l0,0c-0.5-0.5-1-0.6-1.6-0.6c-0.7,0-1.2,0.1-1.6,0.5c-0.5,0.2-0.9,0.8-1.5,1.7c0,0,0.1,0,0.2,0c0.8,0.3,1.6,0.9,2.2,1.7
		c0.6,0.8,0.9,2,0.9,3.6c0,1.2-0.1,2.1-0.5,3c0.2,0.3,0.7,0.5,1.3,0.5C113,82.7,113.9,81,113.9,77.7z M114.8,62.8h-0.1V65h0.3
		c0.3,0,0.6-0.1,0.7-0.3c0.1-0.2,0.2-0.5,0.2-0.8C115.9,63.3,115.6,62.8,114.8,62.8z"/>
	<path class="st0" d="M133.5,69.5c0.9,0.7,1.7,1.7,2.3,3.1s0.9,3.1,0.9,5.1c0,5.4-1.7,7.9-5.2,7.9c-1.3,0-2.3-0.3-3.1-1.2
		c-0.9,0.8-2.3,1.2-4.1,1.2c-1.2,0-2.2-0.2-3.1-0.8s-1.3-1.3-1.3-2.1c0-0.5,0-0.9-0.1-1c-0.1-0.2-0.2-0.3-0.3-0.3
		c-0.1,0-0.3,0-0.6,0v-2.7l2.3-2.7c-0.8-0.2-1.4-0.7-1.9-1.4c-0.5-0.7-0.7-1.4-0.7-2.3c0-1,0.3-2,1-2.7s1.6-1.2,2.9-1.2
		c0.7,0,1.4,0.2,2,0.6s1,0.9,1.4,1.7c0.7-0.7,1.4-1.3,2.2-1.7c0.7-0.3,1.6-0.6,2.6-0.6C131.5,68.5,132.6,68.9,133.5,69.5z
		 M122.5,74.4l1.3-1.5c0-0.5-0.2-0.8-0.5-1.2s-0.6-0.5-1-0.5c-0.3,0-0.7,0.1-0.9,0.3c-0.2,0.2-0.3,0.6-0.3,0.9
		C121,73.4,121.5,74.1,122.5,74.4z M126.5,81.9c0.3-0.5,0.6-1.3,0.6-2.4c0-1-0.2-1.9-0.7-2.4c-0.5-0.6-1-0.8-1.7-0.8h-0.1l-2.8,3
		c0.3,0.2,0.6,0.9,0.6,1.9c0,0.5,0.2,0.9,0.6,1.2c0.3,0.2,0.9,0.3,1.4,0.3C125.4,82.6,126.1,82.4,126.5,81.9z M133.1,81.6
		c0.5-0.7,0.7-2,0.7-3.8c0-1.3-0.1-2.4-0.5-3.4c-0.3-0.9-0.7-1.6-1.3-2c-0.5-0.5-1-0.7-1.6-0.7c-0.7,0-1.4,0.1-1.7,0.3
		c-0.5,0.2-0.9,0.8-1.6,1.5l-0.2,0.2c0.5,0,0.9,0.2,1.5,0.7c0.6,0.3,1,1,1.4,1.9c0.3,0.8,0.6,1.9,0.6,3c0,1-0.1,1.9-0.3,2.7
		c0.3,0.3,0.7,0.6,1.3,0.6C132,82.7,132.7,82.4,133.1,81.6z"/>
	<path class="st0" d="M151.2,77.7c0,2.4-0.6,4.3-1.6,5.8c-1.2,1.5-2.8,2.2-4.9,2.2s-3.7-0.7-4.9-2.2c-1.2-1.5-1.6-3.4-1.6-5.8V60.6
		h2.4c0.9,0,1.7,0.2,2.4,0.6c0.7,0.5,1,1.4,1,2.8c0,1-0.3,1.9-0.9,2.6c-0.6,0.6-1.3,0.9-2.2,0.9c-0.1,0-0.3,0-0.3,0v3.3
		c0.3-0.5,0.7-0.8,0.9-1c1.3-1.3,2.1-2.2,2.7-3c0.6-0.7,0.9-1.4,1-1.9s0.2-1,0.2-1.7h3.1c0,1.3-0.3,2.4-0.9,3.5s-1.5,2.2-2.8,3.5
		c0.3,0,0.6,0,0.7,0c0.9,0,1.9,0.2,2.7,0.8c0.8,0.5,1.5,1.4,2.1,2.7C151,74.7,151.2,76.1,151.2,77.7z M140.5,62.8h-0.2V65h0.3
		c0.3,0,0.6-0.1,0.7-0.3c0.1-0.2,0.2-0.5,0.2-0.8C141.6,63.3,141.2,62.8,140.5,62.8z M147.1,81.1c0.5-0.9,0.8-2,0.8-3.4
		c0-1.4-0.2-2.6-0.8-3.5c-0.5-0.9-1.3-1.4-2.4-1.4s-2,0.5-2.6,1.4c-0.6,0.9-0.8,2.1-0.8,3.5c0,1.4,0.2,2.6,0.8,3.4
		c0.6,0.9,1.4,1.3,2.6,1.3C145.7,82.5,146.6,82,147.1,81.1z"/>
	<path class="st0" d="M167.4,76.8c0.2,0.7,0.3,1.5,0.3,2.3c0,1.4-0.3,2.7-1,3.7s-1.6,1.9-2.8,2.3s-2.4,0.8-3.7,0.8s-2.6-0.2-3.7-0.8
		c-1.2-0.5-2.1-1.3-2.8-2.3s-1-2.3-1-3.7c0-0.8,0.1-1.6,0.5-2.3c0.2-0.7,0.7-1.4,1.2-1.9c-0.2-0.3-0.5-0.8-0.7-1.3
		c-0.1-0.5-0.2-0.8-0.2-1.3c0-1.2,0.3-2.1,1-2.8c0.7-0.8,1.7-1.2,2.9-1.2s2.1,0.3,2.9,1.2c0.7-0.7,1.6-1,2.7-1.2
		c0.8-0.9,1.5-1.6,2-2.3c0.5-0.6,0.7-1.2,0.8-1.5c0.1-0.5,0.1-0.9,0.1-1.5h3.1c0,1.2-0.2,2.3-0.7,3.3c-0.5,0.9-1.3,2-2.3,3.1
		c0.3,0.3,0.7,0.8,0.9,1.3c0.2,0.5,0.3,1,0.3,1.6c0,0.3-0.1,0.8-0.2,1.3s-0.3,0.8-0.6,1.2C166.7,75.5,167.1,76.1,167.4,76.8z
		 M163.3,81.8c0.9-0.6,1.4-1.5,1.4-2.6c0-0.8-0.2-1.4-0.6-2c-0.3-0.5-1-0.8-1.7-0.8H158c-0.8,0-1.4,0.2-1.7,0.8
		c-0.3,0.5-0.6,1.2-0.6,2c0,1,0.5,2,1.4,2.6c0.9,0.6,2,0.9,3.1,0.9C161.3,82.6,162.4,82.4,163.3,81.8z M156,73.2
		c0.1,0.2,0.1,0.5,0.2,0.6c0.5-0.1,0.9-0.1,1.4-0.1h1c0-0.2,0-0.3,0-0.5c0-0.6-0.1-1-0.5-1.4c-0.3-0.2-0.7-0.5-1-0.5
		c-0.5,0-0.8,0.1-1,0.3s-0.3,0.6-0.3,0.9C155.9,72.8,156,73,156,73.2z M161.9,71.8c-0.3,0.2-0.5,0.7-0.5,1.4c0,0.2,0,0.3,0,0.5h1
		c0.5,0,0.9,0,1.4,0.1c0.1-0.1,0.2-0.3,0.3-0.6c0.1-0.2,0.1-0.5,0.1-0.6c0-0.3-0.1-0.7-0.3-0.9c-0.2-0.2-0.6-0.3-1-0.3
		C162.5,71.3,162.2,71.4,161.9,71.8z"/>
	<path class="st0" d="M169.4,73.1l-1.6-2.1c0.8-0.9,1.7-1.4,2.9-1.4c0.8,0,1.6,0.2,2.4,0.8c0.7,0.5,1.4,1.4,1.9,2.6
		c0.5,1.2,0.7,2.7,0.7,4.7s-0.2,3.5-0.7,4.7c-0.5,1.2-1,2-1.9,2.6c-0.7,0.5-1.5,0.8-2.4,0.8c-1.2,0-2.1-0.5-2.9-1.4l1.6-2.1
		c0.3,0.3,0.7,0.5,1,0.5c0.5,0,0.9-0.3,1.3-1.2s0.6-2,0.6-3.8c0-1.7-0.2-3-0.6-3.8c-0.3-0.8-0.8-1.2-1.3-1.2
		C170.1,72.6,169.7,72.7,169.4,73.1z"/>
	<path class="st0" d="M180.2,88.8c-1.3-0.9-2.2-2.2-2.8-3.7c-0.6-1.6-0.9-3.4-0.9-5.4c0-2,0.2-3.8,0.8-5.6c0.6-1.6,1.5-3,2.7-4.1
		c1.3-1,2.9-1.5,4.9-1.5c1.6,0,2.9,0.3,4,1.2c1,0.7,1.9,1.7,2.4,2.9s0.8,2.3,0.8,3.6c0,2.1-0.5,3.7-1.4,5.1c-0.9,1.3-2.2,2-3.8,2
		c-1.5,0-2.7-0.3-3.5-1.2c-0.7-0.8-1.2-1.7-1.2-2.9c0-0.8,0.2-1.5,0.6-2.1h-1.3v-2.8h5.6V77c-0.6,0-1.2,0.1-1.4,0.5
		c-0.3,0.3-0.5,0.7-0.5,1.2c0,0.3,0.1,0.7,0.5,0.9c0.2,0.2,0.6,0.3,1,0.3c0.7,0,1.2-0.3,1.5-1.2c0.3-0.7,0.5-1.6,0.5-2.8
		c0-1.4-0.3-2.4-1-3.1c-0.7-0.7-1.6-1-2.9-1c-1.7,0-3,0.7-3.8,2.2s-1.3,3.4-1.3,5.6c0,1.4,0.2,2.6,0.6,3.7c0.3,1,0.9,2,1.7,2.6
		c0.7,0.6,1.6,0.9,2.7,0.9c1,0,2-0.3,2.7-0.9c0.7-0.6,1.2-1.4,1.3-2.3l3.3,0.5c-0.1,1.2-0.5,2.1-1,3s-1.4,1.6-2.6,2.2
		c-1,0.6-2.2,0.8-3.6,0.8C183,90.2,181.5,89.7,180.2,88.8z"/>
	<path class="st0" d="M217.3,73.4c0.5,1.3,0.7,2.9,0.7,4.7c0,2.8-0.5,4.8-1.5,5.9c-0.9,1.2-2.3,1.7-4.2,1.7c-1.3,0-2.2-0.5-3-1.5
		c-0.5,0.5-1.2,0.8-1.9,1c-0.7,0.2-1.4,0.3-2.2,0.3c-1.6,0-3-0.5-4.1-1.5c-1.2-0.9-1.6-2.7-1.6-5c0-0.6,0-1.3,0.1-1.9l2.8,0.1v0.5
		c0.6,0,1-0.5,1.5-1.4c-0.3-0.1-0.6-0.2-0.8-0.2c-1-0.5-1.7-1-2.3-1.7S200,73,200,72.1c0-0.9,0.2-1.6,0.7-2.3s1.2-1.2,2-1.4
		c-0.3-0.7-0.6-1.4-0.6-2.1c0-1.2,0.3-2.2,0.9-3.1c0.7-0.9,1.5-1.6,2.7-2.1c1.2-0.5,2.3-0.7,3.6-0.7c2.2,0,4,0.5,5.4,1.5
		c1.4,0.9,2.1,2.4,2.1,4.4c0,0.7-0.1,1.4-0.5,2c-0.2,0.7-0.7,1.3-1.2,1.7C216.2,71.1,216.9,72,217.3,73.4z M207.4,81.8
		c0.5-0.6,0.7-1.4,0.7-2.4c0-1.4-0.3-2.2-1.2-2.6c-0.5,1.2-1,2-1.6,2.7c-0.6,0.7-1.4,1-2.2,1c-0.1,0-0.2,0-0.6,0
		c0.1,0.7,0.5,1.3,0.8,1.6c0.5,0.3,1.2,0.5,2,0.5C206.3,82.6,207,82.4,207.4,81.8z M204.8,74.6c0.2-0.6,0.5-1.2,0.6-1.6
		c0-0.5-0.1-0.9-0.5-1.2c-0.2-0.3-0.6-0.5-1-0.5c-0.3,0-0.7,0.1-0.9,0.3s-0.3,0.6-0.3,0.9s0.1,0.7,0.3,0.9c0.2,0.3,0.6,0.6,1,0.8
		C204.4,74.5,204.7,74.6,204.8,74.6z M206.4,64.7c-0.7,0.6-1,1.3-1,2.1c0,0.5,0.1,0.8,0.3,1.3c0.2,0.5,0.6,0.9,0.9,1.3
		c0.3,0.2,0.6,0.6,0.8,0.8c1.2-1,2.6-1.5,4.1-1.5c0.3,0,0.8,0,1.3,0.1c0.7-0.6,1-1.4,1-2.3c0-0.8-0.3-1.5-1.2-2
		c-0.8-0.5-1.9-0.7-3.1-0.7C208.1,63.9,207.1,64.2,206.4,64.7z M214.2,81.7c0.3-0.7,0.6-1.9,0.6-3.6c0-2-0.3-3.4-1-4.5
		c-0.7-1-1.5-1.6-2.7-1.6c-0.7,0-1.2,0.1-1.6,0.3c-0.5,0.2-0.8,0.7-1.4,1.5c-0.1,0.2-0.2,0.5-0.3,0.6c0.5,0,0.9,0.1,1.4,0.5
		c0.5,0.3,0.9,0.8,1.3,1.5c0.3,0.7,0.6,1.7,0.6,2.9c0,0.8-0.1,1.6-0.3,2.3c0.2,0.6,0.8,0.9,1.5,0.9
		C213.3,82.7,213.8,82.4,214.2,81.7z"/>
	<path class="st0" d="M231.9,88.8c-0.6,0.9-1.3,1.6-2.1,2.1c-0.7,0.5-1.5,0.7-2.3,0.7s-1.6-0.2-2.3-0.6c-0.7-0.3-1.2-0.9-1.6-1.5
		c-0.3-0.6-0.6-1.3-0.6-2.1c0-0.7,0.1-1.3,0.5-2c-1.3-0.3-2.3-1.2-3.1-2.2s-1.2-2.3-1.2-3.7c0-1,0.2-2,0.8-2.8
		c0.5-0.8,1.2-1.6,2.1-2.1c-0.3-0.6-0.6-1.3-0.6-2c0-1.2,0.3-2.1,1-2.8c0.7-0.8,1.7-1.2,2.9-1.2c0.8,0,1.5,0.2,2.1,0.6
		c0.7,0.3,1.2,0.9,1.5,1.6s0.6,1.6,0.6,2.6c0,0.9-0.2,2.1-0.6,3.3h-3.7c-0.8,0-1.5,0.2-2.1,0.8s-0.9,1.3-0.9,2.1
		c0,0.8,0.3,1.5,0.9,2.1s1.3,0.8,2.2,0.8c0.5,0,0.9-0.1,1.4-0.3c0.5-0.2,0.8-0.5,1-0.8l2.4,1.7c-0.5,0.7-1,1.3-1.7,1.7
		c-0.7,0.5-1.4,0.7-2.2,0.9c-0.3,0.3-0.5,0.8-0.5,1.4c0,0.5,0.1,0.8,0.3,1.2c0.2,0.3,0.6,0.5,1,0.5c0.8,0,1.5-0.3,2.1-1.2
		L231.9,88.8z M224.6,73.5c0.3,0,0.6-0.1,0.9-0.1c0.5,0,0.9,0,1.4,0.1c0-0.1,0-0.3,0-0.5c0-0.6-0.1-0.9-0.5-1.3
		c-0.2-0.3-0.6-0.5-1-0.5c-0.5,0-0.7,0.1-0.9,0.3c-0.2,0.2-0.3,0.6-0.3,0.9C224.2,73,224.3,73.3,224.6,73.5z"/>
	<path class="st0" d="M249,77.3c0,3-0.5,5.1-1.5,6.5c-1,1.3-2.3,2-4,2c-0.6,0-1.2-0.1-1.7-0.3c-0.5-0.2-0.9-0.5-1.3-0.9
		c-0.9,0.8-2.2,1.2-3.8,1.2c-1.2,0-2.2-0.2-3-0.8c-0.8-0.6-1.5-1.3-2-2.2c-0.5-0.9-0.7-1.9-0.7-2.9c0-1,0.1-2.1,0.3-2.8
		c0.2-0.8,0.7-1.4,1.2-2c-0.2-0.3-0.5-0.8-0.6-1.2c-0.1-0.5-0.2-0.8-0.2-1.3c0-1.2,0.3-2.1,1-2.8c0.7-0.8,1.7-1.2,2.9-1.2
		c0.7,0,1.4,0.1,2,0.5s1,0.8,1.5,1.4c0.8-1,2.1-1.5,3.8-1.5C247,68.8,249,71.6,249,77.3z M238.6,82c0.3-0.3,0.6-0.8,0.6-1.3
		s-0.1-0.7-0.3-0.7c0,0-0.1,0-0.3,0.1c-0.1,0.1-0.2,0.2-0.5,0.3l-1.7-2.1c0.6-0.3,1-1,1.3-1.9H236c-0.6,0-1,0.3-1.4,0.9
		c-0.3,0.6-0.5,1.3-0.5,2.1s0.2,1.6,0.7,2.2s1.2,0.9,2.2,0.9C237.7,82.6,238.3,82.4,238.6,82z M234.9,71.7c-0.2,0.2-0.3,0.6-0.3,0.9
		c0,0.1,0,0.3,0.1,0.6c0.1,0.2,0.1,0.3,0.2,0.6c0.2,0,0.5,0,0.6,0h2c0-0.1,0-0.2,0-0.5c0-0.6-0.1-1-0.5-1.4c-0.3-0.2-0.7-0.5-1-0.5
		C235.5,71.3,235.2,71.4,234.9,71.7z M245.3,81.3c0.5-0.8,0.7-2.2,0.7-4.2s-0.2-3.4-0.8-4.2s-1.3-1.2-2.1-1.2
		c-0.8,0-1.4,0.2-1.7,0.8c-0.3,0.5-0.6,1.3-0.7,2.3c-0.2,1.2-0.3,2.1-0.6,2.6c0.7,0.2,1.2,0.6,1.6,1c0.3,0.6,0.6,1.3,0.6,2.2
		c0,0.3,0,0.7-0.1,1c0.3,0.5,0.8,0.8,1.4,0.8C244.3,82.6,244.9,82.3,245.3,81.3z"/>
	<path class="st0" d="M266.1,79.7c0,1.7-0.3,3.1-1.2,4.3c-0.7,1.2-1.9,1.6-3.4,1.6c-0.7,0-1.4-0.2-2-0.6c-0.6-0.5-0.9-0.9-1.2-1.6
		c-0.2,0.7-0.6,1.3-1.2,1.6c-0.6,0.5-1.2,0.6-2,0.6c-1.5,0-2.7-0.6-3.4-1.6c-0.7-1.2-1.2-2.6-1.2-4.3c0-0.6,0.1-1.2,0.2-1.7
		c0.1-0.6,0.3-1,0.6-1.5h-1.2v-2.8h1.5c-0.1-0.3-0.2-0.8-0.2-1.3c0-1,0.3-2,1-2.7c0.7-0.7,1.6-1.2,2.9-1.2c0.6,0,1,0.1,1.6,0.3
		c0.5,0.2,0.9,0.5,1.3,0.8c0.3-0.3,0.8-0.7,1.3-0.8c0.5-0.2,1-0.3,1.6-0.3c1.2,0,2.2,0.3,2.9,1.2c0.7,0.8,1,1.7,1,2.8
		c0,0.3-0.1,0.8-0.2,1.2c-0.1,0.5-0.3,0.8-0.6,1.2C265.5,76,266.1,77.5,266.1,79.7z M262.6,81.6c0.2-0.5,0.3-1.2,0.3-2
		s-0.1-1.6-0.5-2.2c-0.3-0.7-0.7-0.9-1.3-0.9h-5.6c-0.6,0-1,0.3-1.3,0.9c-0.3,0.7-0.5,1.4-0.5,2.2s0.1,1.4,0.3,1.9s0.6,0.7,1,0.7
		c0.6,0,1-0.3,1.4-1c0.2-0.7,0.5-1.6,0.5-2.8h2.7c0,1.2,0.1,2.1,0.5,2.8c0.2,0.7,0.7,1,1.4,1C262,82.4,262.4,82.2,262.6,81.6z
		 M254.6,73.7h2.4c0-0.1,0-0.2,0-0.5c0-0.6-0.1-1-0.5-1.4c-0.3-0.2-0.7-0.5-1-0.5c-0.5,0-0.8,0.1-1,0.3s-0.3,0.6-0.3,0.9
		C254.2,73.1,254.4,73.4,254.6,73.7z M260.2,71.8c-0.3,0.2-0.5,0.7-0.5,1.4c0,0.2,0,0.3,0,0.5h2c0.1,0,0.3,0,0.6,0
		c0.1-0.1,0.2-0.3,0.2-0.6c0.1-0.2,0.1-0.3,0.1-0.6c0-0.3-0.1-0.7-0.3-0.9s-0.6-0.3-1-0.3C260.9,71.3,260.5,71.4,260.2,71.8z"/>
	<path class="st0" d="M289.2,79.7c0,1.7-0.3,3.1-1.2,4.3c-0.7,1.2-1.9,1.6-3.4,1.6c-0.7,0-1.4-0.2-2-0.6c-0.6-0.5-0.9-0.9-1.2-1.6
		c-0.2,0.7-0.6,1.3-1.2,1.6c-0.6,0.5-1.2,0.6-2,0.6c-1.5,0-2.7-0.6-3.4-1.6c-0.7-1.2-1.2-2.6-1.2-4.3c0-0.6,0.1-1.2,0.2-1.7
		s0.3-1,0.6-1.5h-1.2v-2.8h1.5c-0.1-0.3-0.2-0.8-0.2-1.3c0-1,0.3-2,1-2.7c0.7-0.7,1.6-1.2,2.9-1.2c0.6,0,1,0.1,1.6,0.3
		c0.5,0.2,0.9,0.5,1.3,0.8c0.3-0.3,0.8-0.7,1.3-0.8c0.5-0.2,1-0.3,1.6-0.3c1.2,0,2.2,0.3,2.9,1.2s1,1.7,1,2.8c0,0.3-0.1,0.8-0.2,1.2
		c-0.1,0.5-0.3,0.8-0.6,1.2C288.7,76,289.2,77.5,289.2,79.7z M285.8,81.6c0.2-0.5,0.3-1.2,0.3-2s-0.1-1.6-0.5-2.2
		c-0.3-0.7-0.7-0.9-1.3-0.9h-5.6c-0.6,0-1,0.3-1.3,0.9c-0.3,0.7-0.5,1.4-0.5,2.2s0.1,1.4,0.3,1.9s0.6,0.7,1,0.7c0.6,0,1-0.3,1.4-1
		c0.2-0.7,0.5-1.6,0.5-2.8h2.7c0,1.2,0.1,2.1,0.5,2.8c0.2,0.7,0.7,1,1.4,1C285.1,82.4,285.4,82.2,285.8,81.6z M277.8,73.7h2.4
		c0-0.1,0-0.2,0-0.5c0-0.6-0.1-1-0.5-1.4c-0.3-0.2-0.7-0.5-1-0.5c-0.5,0-0.8,0.1-1,0.3s-0.3,0.6-0.3,0.9
		C277.4,73.1,277.5,73.4,277.8,73.7z M283.2,71.8c-0.3,0.2-0.5,0.7-0.5,1.4c0,0.2,0,0.3,0,0.5h2c0.1,0,0.3,0,0.6,0
		c0.1-0.1,0.2-0.3,0.2-0.6c0.1-0.2,0.1-0.3,0.1-0.6c0-0.3-0.1-0.7-0.3-0.9s-0.6-0.3-1-0.3C283.9,71.3,283.6,71.4,283.2,71.8z"/>
	<path class="st0" d="M308,88.8c-0.6,0.9-1.3,1.6-2.1,2.1c-0.7,0.5-1.5,0.7-2.3,0.7c-0.8,0-1.6-0.2-2.3-0.6
		c-0.7-0.3-1.2-0.9-1.6-1.5c-0.3-0.6-0.6-1.3-0.6-2.1c0-0.7,0.1-1.3,0.5-2c-1.3-0.3-2.3-1.2-3.1-2.2c-0.8-1-1.2-2.3-1.2-3.7
		c0-1,0.2-2,0.8-2.8c0.5-0.8,1.2-1.6,2.1-2.1c-0.2-0.3-0.3-0.7-0.5-1.2c-0.1-0.3-0.3-0.7-0.6-1c-0.2-0.3-0.7-0.5-1.2-0.5
		c-0.7,0-1.3,0.5-1.7,1.4c-0.5,0.9-0.7,2.3-0.7,4.3c0,2.1,0.1,3.5,0.5,4.2c0.2,0.7,0.7,1,1.3,1v2.9c-1,0-1.9-0.2-2.6-0.7
		c-0.7-0.5-1.2-1.3-1.6-2.4c-0.3-1.2-0.6-2.9-0.6-5.1c0-3,0.5-5.2,1.5-6.6c1-1.4,2.3-2.1,4-2.1c1,0,1.9,0.3,2.4,1
		c0.3-0.5,0.8-0.8,1.4-1c0.6-0.2,1.2-0.3,1.9-0.3c0.8,0,1.5,0.2,2.1,0.6c0.7,0.3,1.2,0.9,1.5,1.6c0.3,0.7,0.6,1.6,0.6,2.6
		s-0.2,2.1-0.6,3.3h-3.7c-0.8,0-1.5,0.2-2.1,0.8c-0.6,0.6-0.9,1.3-0.9,2.1s0.3,1.5,0.9,2.1c0.6,0.6,1.3,0.8,2.2,0.8
		c0.5,0,0.9-0.1,1.4-0.3c0.5-0.2,0.8-0.5,1-0.8l2.4,1.7c-0.5,0.7-1,1.3-1.7,1.7s-1.4,0.7-2.2,0.9c-0.3,0.3-0.5,0.8-0.5,1.4
		c0,0.5,0.1,0.8,0.3,1.2s0.6,0.5,1,0.5c0.8,0,1.5-0.3,2.1-1.2L308,88.8z M300.6,73.5c0.3,0,0.6-0.1,0.9-0.1c0.5,0,0.9,0,1.4,0.1
		c0-0.1,0-0.3,0-0.5c0-0.6-0.1-0.9-0.5-1.3c-0.2-0.3-0.6-0.5-1-0.5c-0.5,0-0.7,0.1-0.9,0.3s-0.3,0.6-0.3,0.9
		C300.2,73,300.3,73.3,300.6,73.5z"/>
	<path class="st0" d="M325.1,77.3c0,3-0.5,5.1-1.5,6.5c-1,1.3-2.3,2-4,2c-0.6,0-1.2-0.1-1.7-0.3c-0.5-0.2-0.9-0.5-1.3-0.9
		c-0.9,0.8-2.2,1.2-3.8,1.2c-1.2,0-2.2-0.2-3-0.8s-1.5-1.3-2-2.2s-0.7-1.9-0.7-2.9c0-1,0.1-2.1,0.3-2.8c0.2-0.8,0.7-1.4,1.2-2
		c-0.2-0.3-0.5-0.8-0.6-1.2c-0.1-0.5-0.2-0.8-0.2-1.3c0-1.2,0.3-2.1,1-2.8c0.7-0.8,1.7-1.2,2.9-1.2c0.7,0,1.4,0.1,2,0.5
		c0.6,0.3,1,0.8,1.5,1.4c0.8-1,2.1-1.5,3.8-1.5C323.2,68.8,325.1,71.6,325.1,77.3z M314.8,82c0.3-0.3,0.6-0.8,0.6-1.3
		s-0.1-0.7-0.3-0.7c0,0-0.1,0-0.3,0.1c-0.1,0.1-0.2,0.2-0.5,0.3l-1.7-2.1c0.6-0.3,1-1,1.3-1.9h-1.6c-0.6,0-1,0.3-1.4,0.9
		c-0.3,0.6-0.5,1.3-0.5,2.1s0.2,1.6,0.7,2.2c0.5,0.6,1.2,0.9,2.2,0.9C313.7,82.6,314.3,82.4,314.8,82z M310.9,71.7
		c-0.2,0.2-0.3,0.6-0.3,0.9c0,0.1,0,0.3,0.1,0.6c0.1,0.2,0.1,0.3,0.2,0.6c0.2,0,0.5,0,0.6,0h2c0-0.1,0-0.2,0-0.5
		c0-0.6-0.1-1-0.5-1.4c-0.3-0.2-0.7-0.5-1-0.5C311.5,71.3,311.2,71.4,310.9,71.7z M321.4,81.3c0.5-0.8,0.7-2.2,0.7-4.2
		s-0.2-3.4-0.8-4.2c-0.6-0.8-1.3-1.2-2.1-1.2s-1.4,0.2-1.7,0.8c-0.3,0.5-0.6,1.3-0.7,2.3c-0.2,1.2-0.3,2.1-0.6,2.6
		c0.7,0.2,1.2,0.6,1.6,1c0.3,0.6,0.6,1.3,0.6,2.2c0,0.3,0,0.7-0.1,1c0.3,0.5,0.8,0.8,1.4,0.8C320.4,82.6,320.9,82.3,321.4,81.3z"/>
	<path class="st0" d="M326.9,73.1l-1.6-2.1c0.8-0.9,1.7-1.4,2.9-1.4c0.8,0,1.6,0.2,2.4,0.8c0.7,0.5,1.4,1.4,1.9,2.6s0.7,2.7,0.7,4.7
		s-0.2,3.5-0.7,4.7c-0.5,1.2-1,2-1.9,2.6s-1.5,0.8-2.4,0.8c-1.2,0-2.1-0.5-2.9-1.4l1.6-2.1c0.3,0.3,0.7,0.5,1,0.5
		c0.5,0,0.9-0.3,1.3-1.2c0.3-0.8,0.6-2,0.6-3.8c0-1.7-0.2-3-0.6-3.8c-0.3-0.8-0.8-1.2-1.3-1.2C327.6,72.6,327.2,72.7,326.9,73.1z"/>
	<path class="st0" d="M353.8,80.5v11.2h-3.1c-0.5-0.9-1.3-1.4-2.2-1.4c-0.3,0-0.7,0-1,0.1c-0.3,0.1-0.7,0.2-1,0.3
		c-0.3,0.1-0.6,0.2-0.6,0.2c-0.6,0.2-1,0.3-1.5,0.5s-0.8,0.1-1.2,0.1c-0.9,0-1.7-0.2-2.2-0.7c-0.5-0.5-0.8-1.2-0.8-2.2
		c0-0.6,0.1-1.2,0.2-1.7l3,0.5c0,0.1,0,0.2,0,0.5c0,0.5,0.2,0.6,0.6,0.6c0.2,0,0.5,0,0.7-0.1c0.2-0.1,0.6-0.2,0.9-0.3
		c0.6-0.2,1.2-0.5,1.6-0.6c0.5-0.1,1-0.2,1.7-0.2c0.2,0,0.6,0,0.9,0.1c0.3,0.1,0.6,0.2,0.8,0.5v-3c-1,0.6-2.3,0.8-3.8,0.8
		c-1.6,0-2.9-0.3-3.8-1c-1-0.7-1.7-1.5-2.1-2.4c-0.5-0.9-0.6-1.9-0.6-2.8c0-0.8,0.1-1.6,0.3-2.4c0.2-0.7,0.6-1.3,1-1.7
		c-0.1-0.5-0.2-0.9-0.2-1.4c0-1,0.3-1.9,0.9-2.6c0.7-0.7,1.5-0.9,2.6-0.9c0.8,0,1.5,0.2,2.1,0.6c0.7,0.3,1.2,0.9,1.5,1.6
		c0.3,0.7,0.6,1.6,0.6,2.6c0,0.5-0.1,1-0.2,1.7h-3.6c-0.7,0-1.3,0.2-1.5,0.6s-0.5,0.9-0.5,1.6c0,0.9,0.2,1.6,0.8,2.3
		c0.6,0.6,1.4,0.9,2.7,0.9c1.5,0,2.6-0.6,3.3-1.7s1-2.9,1-5.2c0-3-0.3-5.2-1.2-6.4c-0.8-1.3-1.9-1.9-3.3-1.9c-0.6,0-1.2,0.1-1.7,0.5
		c-0.5,0.3-0.9,0.8-1.2,1.4l-3.1-1c0.5-1.3,1.3-2.3,2.4-3c1-0.7,2.3-1,3.6-1c5.2,0,7.8,3.8,7.8,11.6
		C354.4,77.4,354.2,79.1,353.8,80.5z M344.1,73.2c-0.1,0.2-0.2,0.5-0.2,0.8c0,0.1,0,0.2,0,0.3h0.1h2.3c0-0.5-0.2-0.8-0.5-1
		s-0.6-0.5-1-0.5C344.6,72.8,344.2,73,344.1,73.2z"/>
	<path class="st0" d="M376,75.4c0,3.5-0.7,6.1-1.9,7.7c-1.3,1.7-3.1,2.6-5.7,2.6c-1.6,0-2.9-0.3-3.8-1c-1-0.7-1.7-1.5-2.1-2.4
		c-0.5-0.9-0.6-1.9-0.6-2.8c0-0.8,0.1-1.6,0.3-2.4c0.2-0.7,0.6-1.3,1-1.7c-0.1-0.5-0.2-0.9-0.2-1.4c0-1,0.3-1.9,0.9-2.6
		c0.7-0.7,1.5-0.9,2.6-0.9c0.8,0,1.5,0.2,2.1,0.6c0.7,0.3,1.2,0.9,1.5,1.6c0.3,0.7,0.6,1.6,0.6,2.6c0,0.5-0.1,1-0.2,1.7h-3.6
		c-0.7,0-1.3,0.2-1.5,0.6s-0.5,0.9-0.5,1.6c0,0.9,0.2,1.6,0.8,2.3c0.6,0.6,1.4,0.9,2.7,0.9c1.5,0,2.6-0.6,3.3-1.7
		c0.7-1.2,1-2.9,1-5.2c0-3-0.3-5.2-1.2-6.4c-0.8-1.3-1.9-1.9-3.3-1.9c-0.6,0-1.2,0.1-1.7,0.5c-0.5,0.3-0.9,0.8-1.2,1.4l-3.1-1
		c0.5-1.3,1.3-2.3,2.4-3c1-0.7,2.3-1,3.6-1C373.3,63.9,376,67.7,376,75.4z M365.6,73.2c-0.1,0.2-0.2,0.5-0.2,0.8c0,0.1,0,0.2,0,0.3
		h0.1h2.3c0-0.5-0.2-0.8-0.5-1c-0.2-0.2-0.6-0.5-1-0.5C366.1,72.8,365.9,73,365.6,73.2z"/>
	<path class="st0" d="M390.8,79.6c0,1.2-0.2,2.1-0.7,3c-0.5,0.9-1.2,1.6-2,2.2c-0.8,0.6-1.7,0.8-2.8,0.8c-0.7,0-1.5-0.2-2.3-0.6
		c-0.6-0.2-1-0.3-1.4-0.3c-0.5,0-0.8,0.2-1.2,0.6h-3.1c0-1.2,0.2-2.3,0.7-3.5c0.5-1.2,1-2.4,2-4c0.6-1.2,1-2.1,1.4-2.7
		c0.2-0.6,0.3-1.2,0.3-1.7c0-1-0.2-1.6-0.8-1.6c-0.2,0-0.5,0.1-0.7,0.3c-0.1,0.2-0.2,0.6-0.2,1.2h-2.7c0-3,1.2-4.4,3.5-4.4
		c0.6,0,1,0.1,1.5,0.3c0.5,0.2,0.8,0.5,1,0.8c0.3-0.5,0.8-0.7,1.4-0.9c0.6-0.2,1-0.3,1.7-0.3c0.8,0,1.5,0.2,2.1,0.6
		c0.6,0.3,1,0.8,1.4,1.4c0.3,0.6,0.5,1.3,0.5,1.9c0,0.5-0.1,0.9-0.2,1.4c-0.2,0.5-0.5,0.8-0.7,1.2C390.3,76.2,390.8,77.7,390.8,79.6
		z M386.8,81.6c0.3-0.5,0.6-1.2,0.6-2s-0.2-1.5-0.6-2s-0.9-0.8-1.7-0.8h-1.3l-0.8,1.4c-0.8,1.5-1.4,2.6-1.7,3.3c0.2,0,0.5,0,0.5,0
		c0.3,0,0.9,0.1,1.5,0.3c0.3,0.1,0.7,0.2,1,0.3c0.3,0.1,0.6,0.1,0.9,0.1C386,82.4,386.5,82,386.8,81.6z M385.2,72.1
		c-0.2,0.3-0.5,0.8-0.5,1.3c0,0.2,0,0.3,0,0.5c0.1,0,0.2,0,0.3,0c0.1,0,0.3,0,0.6,0c0.5,0,0.9,0,1.3,0.1c0.3-0.3,0.5-0.7,0.5-1
		c0-0.3-0.1-0.7-0.3-0.9s-0.6-0.3-0.9-0.3C385.9,71.7,385.6,71.8,385.2,72.1z"/>
	<path class="st0" d="M392.5,73.1l-1.6-2.1c0.8-0.9,1.7-1.4,2.9-1.4c0.8,0,1.6,0.2,2.4,0.8c0.7,0.5,1.4,1.4,1.9,2.6s0.7,2.7,0.7,4.7
		s-0.2,3.5-0.7,4.7s-1,2-1.9,2.6s-1.5,0.8-2.4,0.8c-1.2,0-2.1-0.5-2.9-1.4l1.6-2.1c0.3,0.3,0.7,0.5,1,0.5c0.5,0,0.9-0.3,1.3-1.2
		c0.3-0.8,0.6-2,0.6-3.8c0-1.7-0.2-3-0.6-3.8c-0.3-0.8-0.8-1.2-1.3-1.2C393.2,72.6,392.9,72.7,392.5,73.1z"/>
	<path class="st0" d="M414.7,76.8c0.2,0.7,0.5,1.5,0.5,2.4c0,1.4-0.3,2.7-1,3.7c-0.7,1-1.6,1.9-2.8,2.3c-1.2,0.5-2.4,0.8-3.7,0.8
		c-1.3,0-2.6-0.2-3.7-0.8c-1.2-0.5-2.1-1.3-2.8-2.3c-0.7-1-1-2.3-1-3.7c0-0.8,0.1-1.6,0.5-2.3c0.2-0.7,0.7-1.4,1.2-1.9
		c-0.2-0.3-0.5-0.8-0.7-1.2c-0.1-0.5-0.2-0.8-0.2-1.3c0-1.2,0.3-2.1,1-2.8c0.7-0.8,1.7-1.2,2.9-1.2s2.1,0.3,2.9,1.2
		c0.8-0.8,1.7-1.2,2.9-1.2s2.2,0.3,2.9,1.2c0.7,0.8,1,1.7,1,2.8c0,0.3-0.1,0.8-0.2,1.3s-0.3,0.8-0.7,1.3
		C414,75.5,414.3,76.1,414.7,76.8z M410.6,81.8c0.9-0.6,1.4-1.5,1.4-2.6c0-0.8-0.2-1.4-0.6-2c-0.3-0.5-1-0.8-1.7-0.8h-4.4
		c-0.8,0-1.4,0.2-1.7,0.8c-0.3,0.5-0.6,1.2-0.6,2c0,1,0.5,2,1.4,2.6c0.9,0.6,2,0.9,3.1,0.9C408.6,82.6,409.6,82.4,410.6,81.8z
		 M403.2,73.2c0.1,0.2,0.2,0.5,0.3,0.6c0.5-0.1,0.9-0.1,1.4-0.1h1c0-0.1,0-0.2,0-0.5c0-0.6-0.1-1-0.5-1.4c-0.3-0.2-0.7-0.5-1-0.5
		c-0.5,0-0.8,0.1-1,0.3c-0.2,0.2-0.3,0.6-0.3,0.9C403.1,72.8,403.2,73,403.2,73.2z M409.2,71.8c-0.3,0.2-0.5,0.7-0.5,1.4
		c0,0.1,0,0.2,0,0.5h1c0.5,0,0.9,0,1.4,0.1c0.1-0.1,0.2-0.3,0.2-0.6c0.1-0.2,0.1-0.5,0.1-0.6c0-0.3-0.1-0.7-0.3-0.9s-0.6-0.3-1-0.3
		C409.8,71.3,409.4,71.4,409.2,71.8z"/>
	<path class="st0" d="M416.9,73.1l-1.6-2.1c0.8-0.9,1.7-1.4,2.9-1.4c0.8,0,1.6,0.2,2.4,0.8c0.7,0.5,1.4,1.4,1.9,2.6
		c0.5,1.2,0.7,2.7,0.7,4.7s-0.2,3.5-0.7,4.7c-0.5,1.2-1,2-1.9,2.6c-0.7,0.5-1.5,0.8-2.4,0.8c-1.2,0-2.1-0.5-2.9-1.4l1.6-2.1
		c0.3,0.3,0.7,0.5,1,0.5c0.5,0,0.9-0.3,1.3-1.2c0.3-0.8,0.6-2,0.6-3.8c0-1.7-0.2-3-0.6-3.8c-0.3-0.8-0.8-1.2-1.3-1.2
		S417.1,72.7,416.9,73.1z"/>
	<path class="st0" d="M437.1,77.7c0,2.4-0.6,4.3-1.6,5.8c-1.2,1.5-2.8,2.2-4.9,2.2c-2.1,0-3.7-0.7-4.9-2.2s-1.6-3.4-1.6-5.8
		c0-1.6,0.2-3.1,0.8-4.4c0.6-1.3,1.4-2.4,2.6-3.6c1.3-1.3,2.1-2.2,2.7-3c0.6-0.7,0.9-1.4,1-1.9c0.1-0.5,0.2-1,0.2-1.7h3.1
		c0,1.3-0.3,2.4-0.9,3.5c-0.6,1-1.5,2.2-2.8,3.5c0.3,0,0.6,0,0.7,0c0.9,0,1.9,0.2,2.7,0.8c0.8,0.5,1.5,1.4,2.1,2.7
		C436.9,74.7,437.1,76.1,437.1,77.7z M433,81.1c0.5-0.9,0.8-2,0.8-3.4c0-1.4-0.2-2.6-0.8-3.5c-0.5-0.9-1.3-1.4-2.4-1.4
		s-2,0.5-2.6,1.4c-0.6,0.9-0.8,2.1-0.8,3.5c0,1.4,0.2,2.6,0.8,3.4c0.6,0.9,1.4,1.3,2.6,1.3C431.8,82.5,432.6,82,433,81.1z"/>
	<path class="st0" d="M454,79.7c0,1.7-0.3,3.1-1.2,4.3c-0.7,1.2-1.9,1.6-3.4,1.6c-0.7,0-1.4-0.2-2-0.6c-0.6-0.5-0.9-0.9-1.2-1.6
		c-0.2,0.7-0.6,1.3-1.2,1.6c-0.6,0.5-1.2,0.6-2,0.6c-1.3,0-2.3-0.3-3-1c-0.7-0.7-1.2-1.5-1.4-2.6c-0.2-1-0.3-2.3-0.3-3.8
		c0-1.4,0.2-2.7,0.7-3.7c0.5-1,1-1.7,1.9-2.3c0.8-0.6,1.6-0.8,2.7-0.8c0.6,0,1,0.1,1.5,0.2c0.2-1,0.8-1.7,1.5-2.3
		c0.7-0.6,1.6-0.8,2.6-0.8c1.2,0,2.2,0.3,2.9,1.2c0.7,0.8,1,1.7,1,2.8c0,0.3-0.1,0.8-0.2,1.3c-0.1,0.5-0.3,0.8-0.6,1.2
		C453.4,75.9,454,77.5,454,79.7z M450.5,81.6c0.2-0.5,0.3-1.2,0.3-2s-0.1-1.6-0.5-2.2c-0.3-0.7-0.7-0.9-1.3-0.9h-3.7
		c-0.1-0.6-0.3-1.2-0.3-1.7c-0.3-0.1-0.8-0.2-1-0.2c-0.6,0-1,0.2-1.4,0.6c-0.3,0.5-0.7,0.9-0.8,1.5c-0.1,0.6-0.2,1.2-0.2,1.6
		c0,1.2,0.1,2.1,0.2,2.9c0.2,0.8,0.7,1.2,1.4,1.2c0.6,0,1-0.3,1.4-1c0.2-0.7,0.5-1.6,0.5-2.8h2.7c0,1.2,0.1,2.1,0.5,2.8
		c0.2,0.7,0.7,1,1.4,1C449.9,82.4,450.3,82.2,450.5,81.6z M448.1,71.8c-0.3,0.2-0.5,0.7-0.5,1.4c0,0.1,0,0.2,0,0.5h2
		c0.1,0,0.3,0,0.6,0c0.2-0.3,0.3-0.7,0.3-1s-0.1-0.7-0.3-0.9c-0.2-0.2-0.6-0.3-1-0.3C448.6,71.3,448.3,71.4,448.1,71.8z"/>
	<path class="st0" d="M106.8,102.3c2.2,2.4,3.3,6.2,3.3,11.2v6.9h-3.3v-6.4c0-4.4-0.8-7.6-2.6-9.4c-1.6-1.9-4.2-2.8-7.6-2.8
		c-1.6,0-3.1,0.3-4.4,0.9c-1.3,0.7-2.3,1.6-3,2.9s-1,2.8-1,4.5c0,1.6,0.3,3.3,0.9,4.9c1.6-0.5,3.3-0.8,5.1-0.8s3.6,0.2,5.2,0.8
		c0.5-1.2,0.6-2.3,0.6-3.6c0-0.8-0.1-1.6-0.5-2.3c-0.3-0.8-0.7-1.4-1.3-1.9c-0.6-0.5-1.2-0.7-1.9-0.7c-0.2,0-0.3,0-0.5,0
		c0.6,0.2,1,0.7,1.3,1.3c0.3,0.6,0.5,1.2,0.5,1.9c0,1-0.3,1.9-1,2.6s-1.5,1-2.6,1c-1.2,0-2.1-0.3-2.8-1s-1-1.6-1-2.8
		c0-1,0.2-2,0.8-2.8c0.5-0.8,1.3-1.5,2.1-2c0.9-0.5,2-0.7,3.1-0.7c1.3,0,2.4,0.3,3.5,0.9s1.9,1.5,2.4,2.7s0.8,2.4,0.8,4
		c0,1.6-0.3,3.3-1,4.9c1,0.7,1.9,1.5,2.4,2.4s0.9,2.1,0.9,3.4c0,0.8-0.2,1.6-0.7,2.2c-0.5,0.7-1.2,1.2-2.1,1.5
		c-0.9,0.3-1.9,0.6-3,0.6c-1.9,0-3.8-0.5-5.7-1.5c-2,1-4,1.5-5.7,1.5c-1,0-2-0.2-2.8-0.6c-0.8-0.3-1.5-0.9-2-1.6
		c-0.5-0.7-0.7-1.4-0.7-2.3c0-1.3,0.3-2.3,0.9-3.3c0.6-0.9,1.4-1.7,2.4-2.4c-0.8-2-1.2-4.1-1.2-6.2c0-2.4,0.5-4.4,1.5-6.2
		c1-1.7,2.4-3,4.2-4c1.7-0.9,3.8-1.4,6.2-1.4C101.3,98.6,104.7,99.8,106.8,102.3z M91.2,123.1c-1.4-1.2-2.6-2.4-3.6-4.1
		c-0.9,0.8-1.4,1.6-1.4,2.7c0,0.5,0.2,0.9,0.7,1.3c0.5,0.3,1,0.6,1.7,0.6C89.4,123.6,90.2,123.5,91.2,123.1z M90.5,117.7
		c1,1.6,2.2,2.9,3.6,4c1.6-1,2.9-2.3,3.8-3.8c-1.2-0.3-2.4-0.6-3.8-0.6C92.9,117.2,91.6,117.3,90.5,117.7z M95.1,110.6
		c0.2-0.2,0.3-0.6,0.3-1c0-0.3-0.1-0.7-0.3-0.9c-0.2-0.2-0.6-0.3-0.9-0.3s-0.7,0.1-0.9,0.3c-0.2,0.2-0.3,0.6-0.3,0.9
		c0,0.3,0.1,0.7,0.3,1c0.2,0.2,0.6,0.3,0.9,0.3C94.5,110.9,94.9,110.8,95.1,110.6z M100.6,119.1c-1,1.5-2.3,2.8-3.7,4.1
		c0.8,0.3,1.7,0.5,2.6,0.5s1.4-0.2,2-0.6c0.5-0.3,0.8-0.8,0.8-1.4C102.1,120.8,101.6,119.9,100.6,119.1z"/>
	<path class="st0" d="M135.5,104.9c1.3,0.7,2.2,1.7,2.9,3c0.7,1.4,1,3,1,5c0,2.1-0.5,3.8-1.5,5.4s-2.4,2.3-4.2,2.6l-0.3-2.9
		c0.9-0.1,1.6-0.6,2.2-1.5c0.5-0.9,0.8-2,0.8-3.1c0-2.1-0.5-3.6-1.4-4.8s-2.2-1.7-3.8-1.7c-0.7,0-1.4,0.1-2,0.3
		c1.7,1.9,2.6,4.4,2.6,7.6c0,2.1-0.5,3.6-1.3,4.8s-2,1.6-3.3,1.6c-1.4,0-2.6-0.6-3.4-1.7c-0.8-1.2-1.3-2.8-1.3-4.9
		c0-1.4,0.1-2.7,0.5-3.8c0.3-1.3,0.8-2.3,1.5-3.3c-0.9-0.5-1.9-0.6-2.9-0.6s-2,0.3-3,0.9s-1.9,1.5-2.3,2.8c0.5-0.3,1-0.5,1.7-0.5
		s1.4,0.2,2,0.6c0.6,0.5,1,1,1.5,1.9c0.3,0.8,0.6,1.9,0.6,3c0,1.7-0.3,3.1-1.2,4.1c-0.8,1-1.9,1.5-3,1.5c-1,0-1.9-0.3-2.7-0.9
		c-0.7-0.7-1.3-1.5-1.7-2.7c-0.3-1.2-0.6-2.4-0.6-3.8c0-2.2,0.5-4.1,1.4-5.5c0.9-1.5,2.1-2.6,3.5-3.1c1.4-0.7,2.8-0.9,4.2-0.9
		c0.7,0,1.6,0.1,2.4,0.3c0.9,0.2,1.7,0.6,2.6,0.9c1.4-0.9,2.9-1.3,4.7-1.3C132.9,103.8,134.2,104.2,135.5,104.9z M116.2,113.2
		c-0.3,0.6-0.5,1.4-0.5,2.2c0.2,2.1,0.8,3.1,1.9,3.1c0.6,0,0.9-0.3,1.2-1c0.2-0.7,0.3-1.5,0.3-2.2c0-0.8-0.1-1.6-0.5-2.1
		c-0.3-0.6-0.7-0.8-1.2-0.8C117,112.3,116.5,112.5,116.2,113.2z M128.6,114.7c0-2.3-0.6-4.3-1.7-5.7c-0.8,1.4-1.3,3.3-1.3,5.6
		c0,1.2,0.1,2.1,0.5,2.8c0.2,0.7,0.7,1,1.3,1C128.2,118.5,128.6,117.3,128.6,114.7z"/>
	<path class="st0" d="M178,104.2v2.9h-3v13.3h-3.1v-13.3H170c-0.6,0-1,0.1-1.4,0.2c1.4,1.9,2.1,4.2,2.1,7.1c0,2.2-0.3,3.8-1.2,5
		s-1.9,1.7-3.4,1.7s-2.7-0.6-3.4-1.7c-0.8-1.2-1.2-2.9-1.2-5.1c0-1.4,0.2-2.7,0.6-3.8c0.3-1.2,0.9-2.2,1.6-3.1
		c-0.8-0.3-1.7-0.5-2.7-0.5c-0.9,0-1.7,0.1-2.4,0.5c1.6,1.9,2.4,4.3,2.4,7.5c0,2.1-0.5,3.7-1.3,4.8c-0.8,1.2-2,1.6-3.4,1.6
		s-2.4-0.6-3.4-1.7c-0.8-1.2-1.3-2.8-1.3-4.9c0-1.4,0.1-2.7,0.5-3.8c0.3-1.2,0.8-2.3,1.5-3.3c-0.9-0.5-1.9-0.6-2.9-0.6s-2,0.3-3,0.9
		s-1.9,1.5-2.3,2.8c0.5-0.3,1-0.5,1.7-0.5s1.4,0.2,2,0.6c0.6,0.5,1,1,1.5,1.9c0.3,0.8,0.6,1.9,0.6,3c0,1.7-0.3,3.1-1.2,4.1
		c-0.8,1-1.9,1.5-3,1.5c-1,0-1.9-0.3-2.7-0.9c-0.7-0.7-1.3-1.5-1.7-2.7c-0.3-1.2-0.6-2.4-0.6-3.8c0-2.2,0.5-4.1,1.4-5.5
		c0.9-1.5,2.1-2.6,3.5-3.1c1.4-0.7,2.8-0.9,4.2-0.9c0.7,0,1.6,0.1,2.4,0.3c0.9,0.2,1.7,0.6,2.6,1c1.4-0.9,3-1.4,5-1.4
		c1.9,0,3.6,0.5,5.1,1.3c1.2-0.6,2.4-0.9,4-0.9h7.7V104.2z M145.4,113.2c-0.3,0.6-0.5,1.4-0.3,2.3l0,0c0.1,0.8,0.3,1.6,0.7,2.2
		s0.7,0.8,1.2,0.8c0.6,0,0.9-0.3,1.2-1c0.2-0.7,0.3-1.5,0.3-2.2c0-0.8-0.1-1.6-0.5-2.1c-0.3-0.6-0.7-0.8-1.2-0.8
		C146.2,112.3,145.7,112.5,145.4,113.2z M157.5,117.5c0.2-0.7,0.3-1.6,0.3-2.7c0-2.3-0.6-4.2-1.6-5.6c-0.9,1.4-1.4,3.3-1.4,5.5
		c0,1.2,0.1,2.1,0.3,2.8c0.2,0.7,0.7,1,1.2,1C156.8,118.5,157.3,118.2,157.5,117.5z M167.3,117.3c0.2-0.8,0.3-1.7,0.3-2.9
		c0-2.3-0.5-4.1-1.5-5.4c-1,1.3-1.5,3.1-1.5,5.4c0,1.2,0.1,2.1,0.3,2.9c0.2,0.8,0.7,1.2,1.2,1.2
		C166.7,118.5,167.1,118.1,167.3,117.3z"/>
	<path class="st0" d="M198.4,104.2v16.2h-9.8l-0.3-1.4c-0.7,1.3-1.9,1.9-3.4,1.9c-1.3,0-2.3-0.3-3.1-1.2c-0.8-0.7-1.2-1.9-1.2-3.1
		v-12.3h3.1v11.4c0,0.8,0.2,1.4,0.6,1.9c0.3,0.3,0.8,0.6,1.4,0.6s1-0.2,1.4-0.7c0.3-0.5,0.5-1.2,0.5-2v-11.1h3.1v13.4h4.8v-13.5
		H198.4z"/>
	<path class="st0" d="M212.5,107.1v3.5h3v2.8h-3v1c0,1.7-0.5,3.3-1.3,4.5c-0.8,1.3-2.3,1.9-4.4,1.9c-1.9,0-3.1-0.5-4.1-1.5
		s-1.3-2.3-1.3-3.8c0-1.2,0.2-2.1,0.8-2.9c0.6-0.8,1.3-1.4,2.3-1.7v-6.6h10.9v2.9H212.5z M209.3,113.4h-2.8c-0.7,0-1.3,0.2-1.7,0.6
		c-0.5,0.3-0.6,0.9-0.6,1.6c0,0.6,0.2,1.2,0.7,1.6c0.5,0.5,1,0.7,1.7,0.7c0.9,0,1.5-0.3,2-0.9c0.5-0.7,0.7-1.5,0.7-2.6
		C209.3,114.4,209.3,113.4,209.3,113.4z M209.7,110.6v-3.5h-2.8v3.5H209.7z"/>
	<path class="st0" d="M209.1,101.4c-0.5-0.5-0.6-0.9-0.6-1.5s0.2-1,0.6-1.5c0.5-0.5,0.9-0.6,1.5-0.6s1,0.2,1.5,0.6
		c0.5,0.5,0.6,0.9,0.6,1.5s-0.2,1-0.6,1.5c-0.5,0.5-0.9,0.6-1.5,0.6S209.5,101.8,209.1,101.4z"/>
	<path class="st0" d="M240.7,113.4h-1.5v7.1h-2.8v-7.1h-1v1c0,1.7-0.5,3.3-1.3,4.5c-0.8,1.3-2.3,1.9-4.4,1.9c-1.9,0-3.1-0.5-4.1-1.5
		c-0.9-1-1.3-2.3-1.3-3.8c0-1.2,0.2-2.1,0.8-2.9c0.6-0.8,1.3-1.4,2.3-1.7v-6.6h10.9v2.9h-3v3.5h5.4L240.7,113.4L240.7,113.4z
		 M232.4,113.4h-2.8c-0.7,0-1.3,0.2-1.7,0.6c-0.5,0.3-0.6,0.9-0.6,1.6c0,0.6,0.2,1.2,0.7,1.6c0.5,0.5,1,0.7,1.7,0.7
		c0.9,0,1.5-0.3,2-0.9c0.5-0.7,0.7-1.5,0.7-2.6L232.4,113.4L232.4,113.4z M229.8,107.1v3.5h2.8v-3.5H229.8z"/>
	<path class="st0" d="M258.4,112.8c0.9,1.3,1.4,3,1.4,5.1c0,1.2-0.3,2.3-1,3.4c-0.7,1-1.6,2-2.8,2.7c-1.2,0.7-2.6,1-4,1h-3
		c-1,0-1.6,0.1-1.9,0.5c-0.2,0.3-0.3,0.7-0.3,1c0,0.3,0,0.6,0,0.7h-3.1c0-1.6,0.5-2.9,1.2-3.7c0.8-0.8,2.1-1.3,4.1-1.3h3
		c1,0,1.9-0.2,2.7-0.6c0.8-0.5,1.4-0.9,1.7-1.6c0.5-0.7,0.6-1.4,0.6-2.1c0-1.3-0.2-2.3-0.6-3c-0.3-0.7-1-1.2-2-1.4v0.9
		c0,4-2,5.9-5.8,5.9c-1.9,0-3.1-0.5-4-1.4c-0.8-0.9-1.3-2.2-1.3-3.7c0-1.2,0.2-2.2,0.8-3c0.6-0.8,1.3-1.4,2.3-1.6v-6.4h10.9v2.8h-3
		v3.6C256.1,110.7,257.5,111.5,258.4,112.8z M250.5,116.7c0.5-0.6,0.7-1.4,0.7-2.3v-1h-3.4c-0.6,0-1,0.2-1.3,0.6
		c-0.3,0.3-0.5,0.8-0.5,1.4c0,0.7,0.2,1.3,0.6,1.7c0.5,0.3,1,0.6,1.7,0.6C249.4,117.7,250.1,117.3,250.5,116.7z M248.8,106.9v3.6
		h2.8v-3.6H248.8z"/>
	<path class="st0" d="M278.1,112c0.7,1.3,1.2,2.9,1.2,5c0,2.4-0.7,4.4-2,5.8c-1.3,1.4-3.3,2.1-5.8,2.1h-3c-0.9,0-1.5,0.1-1.9,0.3
		c-0.3,0.2-0.6,0.5-0.6,0.7c0,0.2-0.1,0.7-0.1,1.3h-3.1c0-1.6,0.5-2.9,1.3-3.7c0.8-0.8,2.2-1.3,4.3-1.3h3c1.6,0,2.9-0.5,3.8-1.4
		c0.8-0.9,1.3-2.2,1.2-4c0-1.2-0.1-2.2-0.5-3c-0.3-0.8-0.8-1.2-1.5-1.2c-0.6,0-0.9,0.2-1.2,0.7s-0.2,1-0.2,1.9v5.1h-3.1v-13.3H266
		v13.4h-3.1v-16.3h13v2.8h-3v3.5c0.5-0.3,1-0.5,1.7-0.5C276.1,110.1,277.4,110.7,278.1,112z"/>
	<path class="st0" d="M269.4,101.4c-0.5-0.5-0.6-0.9-0.6-1.5s0.2-1,0.6-1.5c0.5-0.5,0.9-0.6,1.5-0.6c0.6,0,1,0.2,1.5,0.6
		c0.5,0.5,0.6,0.9,0.6,1.5s-0.2,1-0.6,1.5c-0.3,0.5-0.9,0.6-1.5,0.6C270.3,102.1,269.8,101.8,269.4,101.4z"/>
	<path class="st0" d="M296.6,112.8c0.9,1.3,1.4,3,1.4,5.1c0,1.2-0.3,2.3-1,3.4c-0.7,1-1.6,2-2.8,2.7c-1.2,0.7-2.6,1-4,1h-3
		c-1,0-1.6,0.1-1.9,0.5c-0.2,0.3-0.3,0.7-0.3,1c0,0.3,0,0.6,0,0.7h-3.1c0-1.6,0.5-2.9,1.2-3.7c0.8-0.8,2.1-1.3,4.1-1.3h3
		c1,0,1.9-0.2,2.7-0.6c0.8-0.5,1.4-0.9,1.7-1.6c0.5-0.7,0.6-1.4,0.6-2.1c0-1.3-0.2-2.3-0.6-3c-0.3-0.7-1-1.2-2-1.4v0.9
		c0,4-2,5.9-5.8,5.9c-1.9,0-3.1-0.5-4-1.4c-0.8-0.9-1.3-2.2-1.3-3.7c0-1.2,0.2-2.2,0.8-3c0.6-0.8,1.3-1.4,2.3-1.6v-6.4h10.9v2.8h-3
		v3.6C294.3,110.7,295.7,111.5,296.6,112.8z M288.7,116.7c0.5-0.6,0.7-1.4,0.7-2.3v-1H286c-0.6,0-1,0.2-1.3,0.6
		c-0.3,0.3-0.5,0.8-0.5,1.4c0,0.7,0.2,1.3,0.6,1.7c0.5,0.3,1,0.6,1.7,0.6C287.5,117.7,288.2,117.3,288.7,116.7z M287,106.9v3.6h2.8
		v-3.6H287z"/>
	<path class="st0" d="M290.7,100.9c0.6-0.7,1.3-1.3,2.1-1.7c0.9-0.5,1.9-0.6,2.8-0.6c2.1,0,3.7,0.7,5,2c1.2,1.3,1.9,3.1,1.9,5.6
		v14.3h-3.1V106c0-1.3-0.3-2.3-0.9-3.1c-0.7-0.8-1.6-1.2-2.8-1.2c-0.8,0-1.4,0.1-2,0.5c-0.5,0.3-0.7,0.7-0.7,1.2
		c0,0.2,0.1,0.3,0.2,0.5c0.1,0.1,0.3,0.2,0.6,0.2s0.5-0.1,0.7-0.2l-0.1,2.8c-0.3,0-0.6,0-0.7,0c-0.9,0-1.9-0.2-2.6-0.8s-1-1.4-1-2.4
		C289.9,102.4,290.1,101.6,290.7,100.9z"/>
	<path class="st0" d="M319,104.2v2.9h-3v13.4l-7.6,7l-1.9-2l6.4-5.9v-12.5h-4.4v13.4h-3.1v-16.3H319z"/>
	<path class="st0" d="M350.9,102.3c2.2,2.4,3.3,6.2,3.3,11.2v6.9h-3.3v-6.4c0-4.4-0.8-7.6-2.6-9.4c-1.6-1.9-4.2-2.8-7.6-2.8
		c-1.6,0-3.1,0.3-4.4,0.9c-1.3,0.7-2.3,1.6-3,2.9c-0.7,1.3-1,2.8-1,4.5c0,1.6,0.3,3.3,0.9,4.9c1.6-0.5,3.3-0.8,5.1-0.8
		c1.9,0,3.6,0.2,5.2,0.8c0.5-1.2,0.6-2.3,0.6-3.6c0-0.8-0.1-1.6-0.5-2.3c-0.3-0.8-0.7-1.4-1.3-1.9c-0.6-0.5-1.2-0.7-1.9-0.7
		c-0.2,0-0.3,0-0.5,0c0.6,0.2,1,0.7,1.3,1.3c0.3,0.6,0.5,1.2,0.5,1.9c0,1-0.3,1.9-1,2.6s-1.5,1-2.6,1c-1.2,0-2.1-0.3-2.8-1
		s-1-1.6-1-2.8c0-1,0.2-2,0.8-2.8c0.5-0.8,1.3-1.5,2.1-2c0.9-0.5,2-0.7,3.1-0.7c1.3,0,2.4,0.3,3.5,0.9s1.9,1.5,2.4,2.7
		c0.6,1.2,0.8,2.4,0.8,4c0,1.6-0.3,3.3-1,4.9c1,0.7,1.9,1.5,2.4,2.4c0.6,0.9,0.9,2.1,0.9,3.4c0,0.8-0.2,1.6-0.7,2.2
		c-0.5,0.6-1.2,1.2-2.1,1.5c-0.9,0.3-1.9,0.6-3,0.6c-1.9,0-3.8-0.5-5.7-1.5c-2,1-4,1.5-5.7,1.5c-1,0-2-0.2-2.8-0.6
		c-0.8-0.3-1.5-0.9-2-1.6c-0.5-0.7-0.7-1.4-0.7-2.3c0-1.3,0.3-2.3,0.9-3.3c0.6-0.9,1.4-1.7,2.4-2.4c-0.8-2-1.2-4.1-1.2-6.2
		c0-2.4,0.5-4.4,1.5-6.2c1-1.7,2.4-3,4.2-4c1.7-0.9,3.8-1.4,6.2-1.4C345.3,98.6,348.6,99.8,350.9,102.3z M335.3,123.1
		c-1.4-1.2-2.6-2.4-3.6-4.1c-0.9,0.8-1.4,1.6-1.4,2.7c0,0.5,0.2,0.9,0.7,1.3c0.5,0.3,1,0.6,1.7,0.6
		C333.4,123.6,334.2,123.5,335.3,123.1z M334.6,117.7c1,1.6,2.2,2.9,3.6,4c1.6-1,2.9-2.3,3.8-3.8c-1.2-0.3-2.4-0.6-3.8-0.6
		C336.9,117.2,335.6,117.3,334.6,117.7z M339.1,110.6c0.2-0.2,0.3-0.6,0.3-1c0-0.3-0.1-0.7-0.3-0.9c-0.2-0.2-0.6-0.3-0.9-0.3
		s-0.7,0.1-0.9,0.3c-0.2,0.2-0.3,0.6-0.3,0.9c0,0.3,0.1,0.7,0.3,1c0.2,0.2,0.6,0.3,0.9,0.3C338.6,110.9,338.9,110.8,339.1,110.6z
		 M344.7,119.1c-1,1.5-2.3,2.8-3.7,4.1c0.8,0.3,1.7,0.5,2.6,0.5c0.8,0,1.4-0.2,2-0.6c0.5-0.3,0.8-0.8,0.8-1.4
		C346.1,120.8,345.6,119.9,344.7,119.1z"/>
	<path class="st0" d="M374.6,104.2v16.2h-9.8l-0.3-1.4c-0.7,1.3-1.9,1.9-3.4,1.9c-1.3,0-2.3-0.3-3.1-1.2c-0.8-0.7-1.2-1.9-1.2-3.1
		v-12.3h3.1v11.4c0,0.8,0.2,1.4,0.6,1.9c0.3,0.3,0.8,0.6,1.4,0.6c0.6,0,1-0.2,1.4-0.7c0.3-0.5,0.5-1.2,0.5-2v-11.1h3.1v13.4h4.8
		v-13.5H374.6z"/>
	<path class="st0" d="M393,111.6c0.9,0.7,1.3,2.1,1.3,4c0,1.4-0.2,2.3-0.7,3.1c-0.5,0.7-1,1.2-1.6,1.4c-0.7,0.2-1.5,0.3-2.4,0.3
		h-0.6v-2.7h0.5c0.6,0,1.2-0.2,1.5-0.6c0.3-0.3,0.6-0.9,0.6-1.6c0-1.4-0.7-2.1-2.2-2.1h-0.7v1c0,1.7-0.5,3.3-1.3,4.4
		s-2.3,1.7-4.4,1.7c-1.9,0-3.1-0.5-4.1-1.5c-0.9-0.9-1.3-2.2-1.3-3.7c0-1.2,0.2-2.1,0.8-2.9c0.6-0.8,1.3-1.4,2.3-1.7v-6.6h10.9v2.9
		h-3v3.5h0.7C390.9,110.6,392.2,110.9,393,111.6z M385.6,113.4h-2.8c-0.7,0-1.3,0.2-1.7,0.6c-0.5,0.3-0.6,0.9-0.6,1.6
		c0,0.6,0.2,1.2,0.7,1.6c0.5,0.5,1,0.7,1.7,0.7c0.8,0,1.5-0.3,2-0.9c0.5-0.6,0.7-1.4,0.7-2.6L385.6,113.4L385.6,113.4z M383.1,107.1
		v3.5h2.8v-3.5H383.1z"/>
	<path class="st0" d="M385.7,101.4c-0.5-0.5-0.6-0.9-0.6-1.5s0.2-1,0.6-1.5c0.5-0.5,0.9-0.6,1.5-0.6c0.6,0,1,0.2,1.5,0.6
		c0.5,0.5,0.6,0.9,0.6,1.5s-0.2,1-0.6,1.5c-0.5,0.5-0.9,0.6-1.5,0.6C386.6,101.9,386.1,101.8,385.7,101.4z"/>
	<path class="st0" d="M412.3,111.6c0.9,0.7,1.3,2.1,1.3,4c0,1.4-0.2,2.3-0.7,3.1c-0.5,0.7-1,1.2-1.6,1.4c-0.7,0.2-1.5,0.3-2.4,0.3
		h-0.6v-2.7h0.5c0.6,0,1.2-0.2,1.5-0.6c0.3-0.3,0.6-0.9,0.6-1.6c0-1.4-0.7-2.1-2.2-2.1h-0.7v1c0,1.7-0.5,3.3-1.3,4.4
		s-2.3,1.7-4.4,1.7c-1.9,0-3.1-0.5-4.1-1.5c-0.9-0.9-1.3-2.2-1.3-3.7c0-1.2,0.2-2.1,0.8-2.9c0.6-0.8,1.3-1.4,2.3-1.7v-6.6h10.9v2.9
		h-3v3.5h0.7C410.2,110.6,411.4,110.9,412.3,111.6z M404.9,113.4h-2.8c-0.7,0-1.3,0.2-1.7,0.6c-0.5,0.3-0.6,0.9-0.6,1.6
		c0,0.6,0.2,1.2,0.7,1.6c0.5,0.5,1,0.7,1.7,0.7c0.8,0,1.5-0.3,2-0.9c0.5-0.6,0.7-1.4,0.7-2.6L404.9,113.4L404.9,113.4z M402.3,107.1
		v3.5h2.8v-3.5H402.3z"/>
	<path class="st0" d="M431.6,118.1c-1,1.5-2.7,2.2-4.9,2.3h-10.5v-16.2h3.1v13.4h3.7v-10c0-1.4,0.3-2.3,0.9-2.9
		c0.6-0.6,1.6-0.9,2.9-0.9c1.5,0,2.7,0.3,3.6,1.2c0.9,0.8,1.6,1.9,2.1,3c0.5,1.3,0.6,2.6,0.6,3.8
		C433.3,114.5,432.7,116.6,431.6,118.1z M429.7,115.9c0.6-1,0.8-2.4,0.8-4.2c0-0.8-0.1-1.7-0.3-2.6c-0.2-0.8-0.6-1.5-1-2.1
		c-0.5-0.6-1-0.8-1.7-0.8c-0.3,0-0.6,0.1-0.8,0.3c-0.1,0.2-0.2,0.7-0.2,1.2v9.7C427.9,117.5,429.1,117,429.7,115.9z"/>
	<path class="st0" d="M423.9,101.7c-0.5-0.5-0.6-0.9-0.6-1.5s0.2-1,0.6-1.5c0.5-0.5,0.9-0.6,1.5-0.6c0.6,0,1,0.2,1.5,0.6
		c0.5,0.5,0.6,0.9,0.6,1.5s-0.2,1-0.6,1.5c-0.5,0.5-0.9,0.6-1.5,0.6C424.8,102.3,424.3,102.1,423.9,101.7z"/>
</g>
<g>
	<g>
		<g>
			<g>
				<g>
					<path class="st1" d="M68,58.9L49.5,80.8c-0.6,0.7-1.7,0.8-2.5,0.2L0.7,41.9c-0.7-0.6-0.8-1.7-0.2-2.5L19,17.5
						c0.6-0.7,1.7-0.8,2.5-0.2l46.3,39.1C68.5,57,68.6,58.1,68,58.9z"/>
					<path class="st2" d="M48.1,81.8c-0.5,0-1-0.2-1.4-0.5L0.5,42.2c-0.4-0.4-0.7-0.9-0.7-1.4c0-0.6,0.1-1.1,0.5-1.5l18.5-21.9
						c0.4-0.4,0.9-0.7,1.4-0.7c0.6-0.1,1.1,0.1,1.5,0.5L68,56.1c0.4,0.4,0.7,0.9,0.7,1.4c0,0.6-0.1,1.1-0.5,1.5L49.8,81
						C49.3,81.5,48.8,81.8,48.1,81.8z M20.4,17.2c0,0-0.1,0-0.1,0c-0.4,0-0.7,0.2-1,0.5L0.8,39.6c-0.2,0.3-0.4,0.7-0.3,1
						c0,0.4,0.2,0.7,0.5,1l46.3,39.1c0.6,0.5,1.5,0.4,2-0.2l18.5-21.9c0,0,0,0,0,0c0.2-0.3,0.4-0.7,0.3-1c0-0.4-0.2-0.7-0.5-1
						L21.3,17.5C21,17.3,20.7,17.2,20.4,17.2z"/>
				</g>
				<g>
					<path class="st3" d="M58.4,56.9L46,71.7c-0.6,0.7-1.7,0.8-2.5,0.2L7.4,41.4c-0.7-0.6-0.8-1.7-0.2-2.5l12.5-14.8
						c0.6-0.7,1.7-0.8,2.5-0.2l36.1,30.5C58.9,55,59,56.1,58.4,56.9z"/>
					<path class="st2" d="M44.6,72.6c-0.5,0-1-0.2-1.4-0.5L7.2,41.6c-0.9-0.8-1-2.1-0.2-3l12.5-14.8c0.8-0.9,2.1-1,3-0.2l36.1,30.5
						c0.4,0.4,0.7,0.9,0.7,1.4c0,0.6-0.1,1.1-0.5,1.5L46.2,71.9c-0.4,0.4-0.9,0.7-1.4,0.7C44.7,72.6,44.7,72.6,44.6,72.6z M21,23.8
						c-0.4,0-0.8,0.2-1.1,0.5L7.4,39.1c-0.5,0.6-0.4,1.5,0.2,2l36.1,30.5c0.3,0.2,0.7,0.4,1,0.3c0.4,0,0.7-0.2,1-0.5l12.5-14.8
						c0,0,0,0,0,0c0.2-0.3,0.4-0.7,0.3-1c0-0.4-0.2-0.7-0.5-1L21.9,24.2C21.6,23.9,21.3,23.8,21,23.8z"/>
				</g>
			</g>
			<g>
				<path class="st2" d="M58.1,63.9c0.6,0.5,0.7,1.5,0.2,2.1c-0.5,0.6-1.5,0.7-2.1,0.2c-0.6-0.5-0.7-1.5-0.2-2.1
					C56.5,63.4,57.4,63.3,58.1,63.9z"/>
			</g>
			<g>
				<g>
					<path class="st2" d="M13.9,42c0-0.9,0.2-1.7,0.5-2.6c-0.2,0.1-0.3,0.1-0.5,0.2c0.5,0.3,1.1,0.7,1.6,1c0.2,0.1,0.4,0,0.5-0.1
						c0.5-0.8,0.9-1.5,1-2.5c0.1-1.3-0.1-2,1.6-1.4c0.2,0.1,0.4-0.1,0.4-0.2c0.3-1.1,0.4-2.3,0.4-3.5c0-0.4-0.3-2.1,0.4-2.2
						c0.1,0,0.5,0.5,0.5,0.6c1.5,0.9,1.9-1.2,2.3-2.1c0.2-0.4-0.4-0.8-0.6-0.4c-0.3,0.6-0.5,1.9-1.5,1.7c-0.2,0-0.3-0.4-0.5-0.5
						c-0.3-0.1-0.7-0.1-0.9,0.1c-0.4,0.3-0.3,0.8-0.3,1.3c-0.1,1.7,0,3.2-0.4,4.8c0.1-0.1,0.3-0.2,0.4-0.2c-0.6-0.2-2-0.9-2.5-0.1
						c-0.1,0.2-0.1,0.4-0.1,0.7c0,1.4,0,2.4-0.8,3.6c0.2,0,0.3-0.1,0.5-0.1c-0.5-0.3-1.1-0.7-1.6-1c-0.2-0.1-0.5,0-0.5,0.2
						c-0.3,0.9-0.4,1.8-0.5,2.7C13.1,42.5,13.9,42.5,13.9,42L13.9,42z"/>
				</g>
			</g>
			<g>
				<g>
					<path class="st2" d="M19,46.7c1.2,0.2,2.4-0.1,3.2-1.1c1.1-1.4,0.7-3.3,1.6-4.8c-0.2,0-0.3,0.1-0.5,0.1
						c1.6,1.3,3.4,2.4,5.1,3.5c0.2,0.1,0.4,0,0.5-0.1c1.3-2-2.9-3-1.1-5.3c-0.2,0-0.4,0-0.6,0.1c0.3,0.3,0.7,0.6,1,0.9
						c0.2,0.2,0.5,0.1,0.6-0.2c0.5-2.2,0.9-4.3,1.4-6.5c0.1-0.4-0.6-0.6-0.7-0.2c-0.5,2.2-0.9,4.3-1.4,6.5c0.2-0.1,0.4-0.1,0.6-0.2
						c-0.3-0.3-0.7-0.6-1-0.9c-0.2-0.2-0.4-0.1-0.6,0.1c-0.5,0.6-0.6,1.3-0.4,2c0.2,0.8,2,2.5,1.6,3.2c0.2,0,0.3-0.1,0.5-0.1
						c-1.8-1.1-3.5-2.3-5.1-3.5c-0.2-0.1-0.4,0-0.5,0.1c-1.2,2-0.6,6.1-4,5.6C18.7,45.9,18.5,46.6,19,46.7L19,46.7z"/>
				</g>
			</g>
			<g>
				<g>
					<path class="st2" d="M25.9,51.8c-0.5-1.1-0.9-2.1-1.4-3.2c-0.2-0.4-0.8-0.1-0.6,0.3c0.1,0.3,0.2,0.5,0.5,0.6
						c0.4,0.2,0.8-0.4,0.4-0.6c-0.1-0.1-0.1-0.1-0.2-0.2c-0.2,0.1-0.4,0.2-0.6,0.3c0.5,1.1,0.9,2.1,1.4,3.2
						C25.5,52.6,26.1,52.2,25.9,51.8L25.9,51.8z"/>
				</g>
			</g>
			<g>
				<g>
					<path class="st2" d="M23.1,51.5c0.9-0.5,1.9-1,2.8-1.5c0.4-0.2,0-0.8-0.4-0.6c-0.9,0.5-1.9,1-2.8,1.5
						C22.3,51.1,22.7,51.7,23.1,51.5L23.1,51.5z"/>
				</g>
			</g>
			<g>
				<g>
					<path class="st2" d="M26.7,48.6c0.6,0.3,1.1,0.6,1.7,0.9c0.3,0.2,0.8,0.5,1.2,0.3c0.3-0.2,0.3-0.6,0.4-0.9c0-0.6,0-1.2-0.1-1.7
						c-0.1-0.4-0.8-0.3-0.7,0.2c0.1,0.3,0.1,0.7,0.1,1.1c0,0.2,0,0.4,0,0.6c-0.1,0.2,0,0.2-0.2,0.1c-0.3-0.1-0.7-0.3-0.9-0.5
						c-0.3-0.2-0.7-0.4-1-0.5C26.7,47.8,26.3,48.4,26.7,48.6L26.7,48.6z"/>
				</g>
			</g>
			<g>
				<g>
					<path class="st2" d="M33.4,44.8c-0.4,0.6-0.7,1.1-1,1.8c-0.2,0.4-0.5,1.1-0.5,1.6c0.1,1,2,0.5,2.5,0.3c0.4-0.1,0.2-0.8-0.2-0.7
						c-0.4,0.1-0.9,0.2-1.3,0.2c-0.3,0-0.3,0.2-0.3-0.1c0-0.2,0.1-0.4,0.2-0.5c0.3-0.8,0.7-1.5,1.2-2.2
						C34.3,44.8,33.7,44.4,33.4,44.8L33.4,44.8z"/>
				</g>
			</g>
			<g>
				<g>
					<path class="st2" d="M34,42c0.4,1.1,1.2,2.1,1.9,3c0.7,0.8,1.6,1.5,2.7,1.8c0.4,0.1,0.6-0.6,0.2-0.7c-1-0.2-1.7-0.9-2.4-1.6
						c-0.7-0.8-1.4-1.7-1.8-2.7C34.6,41.4,33.9,41.6,34,42L34,42z"/>
				</g>
			</g>
			<g>
				<g>
					<path class="st2" d="M37,43.5c0.9-0.1,1.8,0,2.6,0.3c0.4,0.1,0.6-0.5,0.2-0.7c-0.9-0.3-1.9-0.4-2.8-0.3
						C36.5,42.8,36.5,43.5,37,43.5L37,43.5z"/>
				</g>
			</g>
			<g>
				<g>
					<path class="st2" d="M31.8,57.1c1.6,0.8,3.2,1.6,4.8,2.2c0.4,0.2,0.6-0.5,0.2-0.7c-1.6-0.6-3.2-1.3-4.7-2.2
						C31.8,56.2,31.4,56.8,31.8,57.1L31.8,57.1z"/>
				</g>
			</g>
			<g>
				<g>
					<path class="st2" d="M33.2,58.8c0.5-1.4,1.3-2.6,2.2-3.8c0.3-0.3-0.2-0.9-0.5-0.5c-1,1.2-1.8,2.6-2.4,4.1
						C32.3,59.1,33,59.2,33.2,58.8L33.2,58.8z"/>
				</g>
			</g>
			<g>
				<g>
					<path class="st2" d="M36.3,52.6c1.1,0.5,2.1,1.2,2.9,2c0.2,0.2,0.7,0,0.6-0.3c-0.6-1.5-0.9-3.1-0.7-4.8c0.1-0.4-0.7-0.4-0.7,0
						c-0.2,1.7,0,3.4,0.7,5c0.2-0.1,0.4-0.2,0.6-0.3c-0.9-0.9-1.9-1.6-3.1-2.1C36.2,51.8,35.9,52.4,36.3,52.6L36.3,52.6z"/>
				</g>
			</g>
			<g>
				<g>
					<path class="st2" d="M42.8,45.9c0,1.1,0,2.2,0,3.2c0,0.5-0.2,1.4,0.2,1.8c0.4,0.4,1.4,0.2,2,0.2c1.1,0,2.2,0,3.3,0
						c0.5,0,0.5-0.7,0-0.7c-0.8,0-1.5,0-2.3,0c-0.4,0-0.8,0-1.2,0c-0.1,0-1,0.1-1.2,0c-0.3-0.2-0.1-1.7-0.1-2.1c0-0.8,0-1.6,0-2.4
						C43.5,45.5,42.8,45.5,42.8,45.9L42.8,45.9z"/>
				</g>
			</g>
			<g>
				<g>
					<path class="st2" d="M42.1,66.2c0-1.2,0-2.3,0-3.5c0.1-1.6,0.8-1,1.7-0.3c0.2,0.1,0.4,0,0.5-0.1c1.2-2.1,1.9-4.4,2.3-6.8
						c-0.2,0.1-0.3,0.1-0.5,0.2c1.1,0.7,2.4,1.4,3.7,0.8c1-0.4,1.3-1.3,1.1-2.3c-0.1-0.4-0.8-0.3-0.7,0.2c-0.6,1.6-1.5,2-2.8,1.2
						c-0.3-0.2-0.6-0.4-1-0.6c-0.2-0.1-0.5,0-0.5,0.2c-0.3,2.3-1,4.5-2.2,6.6c0.2,0,0.3-0.1,0.5-0.1c-0.7-0.5-1.8-1.6-2.5-0.7
						c-0.2,0.3-0.2,0.6-0.3,0.9c-0.2,1.4-0.1,2.8,0,4.2C41.4,66.7,42.1,66.7,42.1,66.2L42.1,66.2z"/>
				</g>
			</g>
		</g>
		<polygon class="st4" points="63,47 55.4,42.6 56.9,39.9 48.8,31.6 49.8,29.8 41.9,23.4 40,25.6 31.2,18.2 18.9,34.7 39.1,50.5 
			46.5,55.4 45.2,57.2 52.1,62.8 59.4,53.4 		"/>
		<polygon class="st5" points="56.7,55.3 49.8,50.9 45.3,57.3 51.4,61.4 		"/>
		<polygon class="st5" points="51.6,49.2 42,42.3 37.8,50.2 46.3,55.3 		"/>
		<polygon class="st5" points="42.8,40.8 33.2,34 28.2,41.2 37.5,46.9 		"/>
		<polygon class="st5" points="33.7,34.4 24.1,27.5 19.1,34.7 28.4,40.5 		"/>
		<path class="st4" d="M16.9,129.1l4.3-51.2l-18.6-26l15.6-21.4l26.5,15.5c0,0-4.6,12.1-21.9-2.6l-3.7,3.7l16.2,24.3l12.3,10.4
			l1.7-0.7l2.7,48.1H16.9z"/>
		<path class="st6" d="M18.3,30.5l26.5,15.5C44.8,46.1,26.7,38.3,18.3,30.5z"/>
		<polygon class="st6" points="29.4,38.3 40,25.6 30.5,39 		"/>
		<polygon class="st6" points="39.9,43.8 48.8,31.6 41.2,44 		"/>
		<polygon class="st6" points="56.9,39.9 45.3,54.7 46.3,55.3 		"/>
		<path class="st6" d="M40.6,28.5l4.7,4.2C45.3,32.7,41.1,31.3,40.6,28.5z"/>
		<path class="st6" d="M38.7,30.2l4.7,4.2C43.4,34.4,39.2,33,38.7,30.2z"/>
		<path class="st6" d="M30,23.5l4.7,4.2C34.7,27.8,30.5,26.4,30,23.5z"/>
		<path class="st6" d="M31.3,21.9l4.7,4.2C36,26.1,31.9,24.7,31.3,21.9z"/>
		<path class="st6" d="M47.4,38.4l4.7,4.2C52.1,42.6,48,41.2,47.4,38.4z"/>
		<path class="st6" d="M49.2,36.8l4.7,4.2C54,41.1,49.8,39.7,49.2,36.8z"/>
		<path class="st6" d="M54.5,46.7l4.7,4.2C59.3,50.9,55.1,49.5,54.5,46.7z"/>
		<path class="st6" d="M55.7,45.5l4.7,4.2C60.5,49.7,56.3,48.3,55.7,45.5z"/>
		<path class="st6" d="M39.9,48.2c0,0-7.6-4.1-4.4-7.2C35.5,41.1,33.7,43.8,39.9,48.2z"/>
		<path class="st6" d="M24.6,34.7L20.8,39C20.8,39,24,37.1,24.6,34.7z"/>
		<path class="st6" d="M25.3,35.7l-3.8,4.2C21.5,39.9,24.7,38,25.3,35.7z"/>
		<polygon class="st6" points="10.6,41.1 5.3,52.3 23.4,77.8 42.6,78.8 23.4,80.5 21.5,128.5 16.9,129.1 20.8,78 2.7,51.9 		"/>
		<polygon class="st7" points="48.8,32.3 56.4,40.5 56.9,39.9 		"/>
		<polygon class="st7" points="55.4,42.6 62.5,47.9 63,47 		"/>
		<polygon class="st7" points="49.2,30.2 41.9,23.4 49.8,29.8 		"/>
		<polygon class="st7" points="40,25.6 31.2,18.2 39.3,26.5 		"/>
		<polygon class="st7" points="49.2,80.8 51,128.8 52.9,129.4 49.8,80.1 		"/>
		<path class="st7" d="M43.7,46.1L36,42.3C36,42.3,40.3,45.8,43.7,46.1z"/>
		<path class="st7" d="M45.5,78.6"/>
	</g>
</g>
</svg>
